<?xml version="1.0" encoding="UTF-8"?>
<svg id="Layer_2" data-name="Layer 2" xmlns="http://www.w3.org/2000/svg" viewBox="0 0 69.34 40.64">
  <g id="Layer_1-2" data-name="Layer 1">
    <g>
      <g>
        <path d="M57.02,24.56c2.82,1.75,6.08-.04,6.58-.31,4.89-2.68,6.11-10.09,5.66-10.44-.31-.24-1.74,2.2-4.72,4.55-1.05.83-3.15,1.65-3.5.83-.35-.83,5.29-9,3.85-12.41,0-.02-.02-.03-.03-.04-.39-.23-1.8,5.53-5.29,7.51-.9.51-2.3.98-2.61.43-.2-.35.12-1.01.24-1.29.7-1.65,4.2-11.58,3.15-13.23-.05-.08-.1-.11-.17-.14-1.21-.47-2.44,7.94-7.04,11.23-2.85,2.04-3.67-.27-7.24,2-3.35,2.13-4.91,5.6-6.44,9-1.1,2.45-1.01,3.6-.8,4,.02.05.04.07.06.08.45.25,1.49-3.64,3.96-6.08,1.88-1.85,3.93-2.21,4.56-2.31.74-.12,2.94-.71,4.9.83,2.62,2.06,2.48,4.29,4.9,5.79Z"/>
        <path d="M12.33,24.56c-2.82,1.75-6.08-.04-6.58-.31C.86,21.58-.36,14.16.09,13.81c.31-.24,1.74,2.2,4.72,4.55,1.05.83,3.15,1.65,3.5.83.35-.83-5.29-9-3.85-12.41,0-.02.02-.03.03-.04.39-.23,1.8,5.53,5.29,7.51.9.51,2.3.98,2.61.43.2-.35-.12-1.01-.24-1.29-.7-1.65-4.2-11.58-3.15-13.23.05-.08.1-.11.17-.14,1.21-.47,2.44,7.94,7.04,11.23,2.85,2.04,3.67-.27,7.24,2,3.35,2.13,4.91,5.6,6.44,9,1.1,2.45,1.01,3.6.8,4-.02.05-.04.07-.06.08-.45.25-1.49-3.64-3.96-6.08-1.88-1.85-3.93-2.21-4.56-2.31-.74-.12-2.94-.71-4.9.83-2.62,2.06-2.48,4.29-4.9,5.79Z"/>
      </g>
      <path d="M19.28,35.36c-1.38-.38-2.98,0-3.22.07-2.39.57-2.99,2.17-2.77,2.24.15.05.85-.47,2.31-.98.51-.18,1.54-.36,1.71-.18.17.18-2.59,1.93-1.88,2.67,0,0,0,0,.01,0,.19.05.88-1.19,2.59-1.61.44-.11,1.13-.21,1.28-.09.1.08-.06.22-.12.28-.34.36-2.05,2.49-1.54,2.84.02.02.05.02.08.03.59.1,1.19-1.71,3.44-2.41,1.4-.44,1.79.06,3.55-.43,1.64-.46,2.4-1.2,3.15-1.93.54-.53.49-.77.39-.86-.01,0-.02-.01-.03-.02-.22-.05-.73.78-1.94,1.31-.92.4-1.92.47-2.23.5-.36.03-1.44.15-2.4-.18-1.28-.44-1.22-.92-2.4-1.24Z"/>
      <path d="M50.69,35.36c1.38-.38,2.98,0,3.22.07,2.39.57,2.99,2.17,2.77,2.24-.15.05-.85-.47-2.31-.98-.51-.18-1.54-.36-1.71-.18-.17.18,2.59,1.93,1.88,2.67,0,0,0,0-.01,0-.19.05-.88-1.19-2.59-1.61-.44-.11-1.13-.21-1.28-.09-.1.08.06.22.12.28.34.36,2.05,2.49,1.54,2.84-.02.02-.05.02-.08.03-.59.1-1.19-1.71-3.44-2.41-1.4-.44-1.79.06-3.55-.43-1.64-.46-2.4-1.2-3.15-1.93-.54-.53-.49-.77-.39-.86.01,0,.02-.01.03-.02.22-.05.73.78,1.94,1.31.92.4,1.92.47,2.23.5.36.03,1.44.15,2.4-.18,1.28-.44,1.22-.92,2.4-1.24Z"/>
    </g>
  </g>
</svg>