<?xml version="1.0" encoding="UTF-8"?>
<svg id="Layer_1" data-name="Layer 1" xmlns="http://www.w3.org/2000/svg" viewBox="0 0 167.38 126.39">
  <defs>
    <style>
      .cls-1 {
        fill: #40535c;
      }

      .cls-2 {
        fill: #3e4f58;
      }

      .cls-3 {
        fill: #fd9601;
      }

      .cls-4 {
        fill: #fd9702;
      }

      .cls-5 {
        fill: #455964;
      }

      .cls-6 {
        fill: #7a8990;
      }

      .cls-7 {
        fill: #b32105;
      }

      .cls-8 {
        fill: #3f525b;
      }

      .cls-9 {
        fill: none;
      }

      .cls-10 {
        fill: #445964;
      }

      .cls-11 {
        fill: #feb64a;
      }

      .cls-12 {
        fill: #3a4c55;
      }

      .cls-13 {
        fill: #455a65;
      }

      .cls-14 {
        fill: #db2d00;
      }

      .cls-15 {
        fill: #36474f;
      }

      .cls-16 {
        fill: #3f515b;
      }

      .cls-17 {
        fill: #41545e;
      }

      .cls-18 {
        fill: #36474e;
      }

      .cls-19 {
        fill: #f47c01;
      }
    </style>
  </defs>
  <g>
    <path class="cls-9" d="M16.92,14.92L77.08,2.77c2.89.15,5.18,1.91,5.87,4.89l2.62.17c-.07-.52.14-.24.34-.31.46-.14.93-.17,1.39-.26,3.72-.77,6.06.22,7.54,2.55h.1l3.79,1.14,13.54,3.22h2.63l2.24-.43c-.15-.65-.4-1.39-.84-1.75-1.08-.91-2.29-.64-3.54-.34-.72.17-1.48.34-2.22.31-2.79-.17-7.78-1.48-11.42-2.46-.6-.15-1.17-.31-1.67-.43-.22-.07-.52-.14-.84-.19-.84-.19-1.82-.41-2.25-.64-.31-.14-.65-.5-1.1-.93-.41-.4-.88-.84-1.24-1.07-1.81-1.08-3.23-1.43-5.32-1.27-.31,0-.81.14-1.27.26-1.07.26-1.81.41-2.25.28-.46-.14-.84-.72-1.24-1.32-.17-.28-.36-.57-.5-.72-1.51-1.63-3.39-2.46-5.52-2.51L18.31,12.56c-6.68,1.91-11.73,6.06-14.62,11.99-.48.96-.88,1.96-1.22,2.98,2.67-6.02,7.71-10.6,14.49-12.58l-.03-.03Z"/>
    <path class="cls-9" d="M123.19,15.04c.74-.41.43-1.58,1.38-1.69-.24-.1-.48-.17-.81-.14-.19.02-.24.09-.4.5-.14.34-.28.81-.76,1.07,0,0-2.29.57-3.79.72l.05.31c1.1-.07,3.99-.58,4.32-.76v-.02Z"/>
    <path class="cls-9" d="M114.92,28.35c1.24-.26,2.29-.64,2.99-1.22l-.93.19-2.06,1.02v.02Z"/>
    <path class="cls-9" d="M49.66,107.15c.07,2,.88,3.97,2.32,5.21,4.04,3.42,8.65-.76,12.49,3.96.57.69.48,1.07.74,1.51.28.52.22.22.55,1.1.48,1.32.48,1.55.72,2.96.05.28.09.5.1.77,0,.14.14.31.15.55.1,1.26.1,2.25-.05,3.17,1.05-.22,1.75-.5,2.1-1.05.43-.67.41-1.98-.09-4.2-.36-1.63-1-3.05-1.84-4.22-.48-.33-.93-.64-1.34-.91-1.27-.84-2.74-1.74-4.28-2.67-.34-.07-.69-.14-1.08-.17-.6-.05-1.19,0-1.79.09-1.39.17-2.84.34-4.28-1.17-.98-1.02-1.15-2.17-1.17-3.39-1.08-.57-2.17-1.15-3.3-1.72v.14h.05v.03Z"/>
    <path class="cls-9" d="M89.04,45.49l-6.09-37.82,6.19,38.63c0-.15.07-.28.09-.43l.07-.36.34-.05c.81-.09,1.67-.24,2.55-.5-.26,0-.5.05-.74.05l-2.41.5v-.02Z"/>
    <path class="cls-9" d="M53.17,62.39c-.67,8.09-1.22,16.19-1.84,24.26-.05.72-.31,1.41-.34,2.13,0,.05.17.33.15.65-.33,4.39-1.19,9.91-1.41,14.62,1.14.58,2.24,1.15,3.34,1.72l1.46-37.58c-.76-2.06-.91-4.52-1.22-6.81l-.1,1.02h-.02l-.02-.02Z"/>
    <path class="cls-9" d="M26.24,70.83s-.17-.33-.15-.65c.09-.77.26-1.58.43-2.37,0,0-.4-.05-1.08-.36l-1.88,24.12c.31.14.6.28.91.41.55-7.05,1.08-14.13,1.75-21.16h0l.02.02Z"/>
    <path class="cls-9" d="M58.33,112.4c.34-.05.69-.09,1.07-.1-1.74-1-3.58-2.01-5.52-3.06.07.84.26,1.58.89,2.24,1.15,1.19,2.22,1.07,3.58.91h-.02v.02Z"/>
    <path d="M22.39,109.77c.19-2.89.4-5.78.57-8.67.19-2.91.36-5.8.55-8.67-.31-.14-.55-.26-.84-.4-.41,5.95-.81,11.92-1.22,17.88.31-.05.64-.09.93-.14h.02,0Z"/>
    <path class="cls-9" d="M157.79,7.67c-.69.17-1.41.36-2.08.5.1.05.22.1.34.1,1.46.09,3.89-.84,5.94-1.26-.36,0-.72-.07-1.14,0-.83.09-1.91.36-3.06.67h0v-.02Z"/>
    <path class="cls-9" d="M133.28,13.08c.1-.84.34-1.32.65-1.57-.36-.19-.76-.33-1-.22s-.43.57-.52,1.24l-.07.46-.41-.05c-.81-.07-1.84.24-2.84.52-.91.26-1.79.5-2.56.52.19.09.41.15.65.17,1.65.15,4.28-1.24,6.09-1.08h.02l-.02.02Z"/>
    <path class="cls-9" d="M20.13,113.99c-.26.09-.5.15-.69.26-.89.52-1.6,1.74-1.69,2.96-.05.55.15,2.17.43,4.03.17-2.24.74-5.4,2.43-7.42-.15.07-.31.1-.46.15h-.02v.02Z"/>
    <path class="cls-9" d="M152.72,9.05c.14-.1.1-.5.17-.88-.17-.1-.33-.22-.46-.33-.28-.24-.5-.41-.83-.41-.5,0-.55.22-.6.81-.02.28-.07.58-.26.77-.33.31-3.13.77-4.9,1.07.17.09.34.17.55.19.33.05,6.11-1,6.37-1.22h-.03Z"/>
    <path class="cls-9" d="M58.71,60.2c.72,4.04,1.32,8.17,1.82,12.25-1.15.15-2.08-.19-3.03-.72.77,1.05,1.75,1.91,2.89,2.2.98.24,2.01,0,3.06-.69-.22-2.87-.72-5.76-1.22-8.55-.4-2.22-.77-4.49-1.05-6.76l-2.84.57c.19.52.24,1.31.31,1.72h.05v-.02Z"/>
    <path class="cls-9" d="M143,11.06c.17-.15.15-.76.36-1.22-.02,0-.07-.05-.09-.07-.33-.26-.58-.46-1.05-.41-.24.02-.33.17-.43.77-.05.31-.09.58-.28.76-.17.17-.46.24-2.51.55-.89.14-2.08.33-2.87.48.17.1.34.24.5.34.81-.46,6.11-1,6.37-1.24h0v.03Z"/>
    <path d="M154.61,7.43c-.19-.1-.4-.17-.65-.17-.24,0-.4.07-.55.14.09.05.15.09.26.09.26,0,.58,0,.93-.05h.02Z"/>
    <path d="M148.86,17.1c-.58-.05-1.57.24-2.51.52-1.02.31-2.05.58-2.89.6-.34.88-.72,1.38-1.17,1.58.98.58,1.82,1.46,2.75-1.19,1.19.09,3.11-.64,4.61-1-.1-.09-.24-.15-.34-.24-.17-.15-.33-.28-.46-.31h.02v.03Z"/>
    <path d="M155.71,8.19c-.81.17-1.55.28-2.13.24-.28,0-.5-.1-.69-.24-.07.36-.05.76-.17.88-.24.22-6.04,1.26-6.37,1.22-.22-.02-.4-.1-.55-.19-.83.14-1.43.22-1.46.22-.43-.05-.74-.26-1-.46-.22.46-.19,1.07-.36,1.22-.26.24-5.56.77-6.37,1.24-.17-.14-.34-.24-.5-.34-.34.09-.64.15-.74.22l-.24.14-.22-.15c-.19-.15-.58-.43-1-.65-.31.24-.55.72-.65,1.57-1.81-.15-4.44,1.24-6.09,1.08-.24,0-.46-.09-.65-.17h-.36c-.5-.05-.89-.26-1.22-.46-.14-.09-.26-.14-.4-.19-.93.1-.6,1.27-1.38,1.69-.33.17-3.2.69-4.32.76l.24,1.48c3.3-.43,7.14-2.96,9.62.46-1.08.07-7.91,1.96-9.24,1.96l.36,2.32,10.56-2.05c.57-.07.93.28,1.22.55.15.14.28.26.4.31.31.14.55.15.69.07.24-.1.36-.5.5-.83.14-.34.24-.67.52-.83.41-.22,5.69-1.17,5.95-1.15.52.05.96.33,1.32.57.34.22.67.43.89.34.15-.07.46-.31.84-1.39l.1-.33h.33c.74.09,1.84-.24,2.92-.55,1.07-.31,2.06-.6,2.8-.57.43.05.74.31.98.52.14.1.26.24.36.28.41.17.74.19.93.09.24-.14.33-.5.41-.81.09-.28.15-.57.41-.72.41-.22,5.23-1.14,5.63-1.14.88-.02,1.26.24,1.57.46.19.14.33.24.58.28.65.14.67.05.81-.46.07-.26.15-.57.36-.84.15-.17.4-.31.88-.5.31-.14.64-.28.88-.43,1.75-1.14,2.62-2.65,2.22-3.96-.33-1.1-1.46-1.81-2.98-1.93-2.01.43-4.47,1.38-5.94,1.26-.14,0-.24-.07-.34-.1v.05h.02l.05-.02ZM132.59,16.93c-.48-.09-2.01-1.34-2.46-1.79.05-.31,5.26-1.34,5.63-1.27.26.05.5.17.72.33l1.96,1.65c-1.5-.09-4.54,1.31-5.85,1.08h0ZM142.55,14.97c-.46-.07-1.34-.72-1.79-1-.33-.22-1.07-.6-1.1-1,1.58.05,4.46-1.26,5.87-1.08.91.1,1.79,1.46,2.7,1.72l-5.68,1.38v-.02ZM164.76,9.51c-.33,2.24-4.99,1.5-5.69-.57,1.24.17,6.06-2.01,5.69.57ZM157.29,12.01c-.72.22-4.47,1-5.02.96-.81-.07-2.34-1.31-2.89-2,1.48.15,4.63-1.31,5.85-1.08.15.02,2.41,1.55,2.49,1.67.31.48-.19.4-.41.48h-.02v-.03Z"/>
    <path d="M139.66,19.01c-.43,0-4.8.84-5.49,1.05-.05.07-.09.22-.14.31-.17.46-.4,1.07-.96,1.34-.17.09-.34.1-.55.1.19.17.4.36.64.48,1.81.72,1.72-1.43,2.17-1.67.22-.14,3.91-.84,5.4-1.08-.05-.02-.1-.07-.15-.09-.33-.19-.65-.41-.93-.43l.02-.02Z"/>
    <path d="M157.69,15.33c-.41,0-4.44.81-5.18,1,0,.05-.02.09-.05.15-.09.36-.26.93-.74,1.27.19.17.4.36.64.48,2.1.84,1.91-1.34,2.22-1.5.19-.1,2.75-.64,4.39-.93-.09-.05-.15-.09-.24-.15-.28-.19-.48-.33-1.08-.33,0,0,.05,0,.05,0Z"/>
    <path d="M130.54,20.87l-10.53,2.05.1.76,11.27-2.2c-.14-.09-.24-.19-.33-.28-.26-.24-.4-.34-.52-.33Z"/>
    <path d="M164.66,7c.55.43.96,1,1.15,1.67.4,1.38-.09,3.39-2.62,5.04-.31.19-.67.34-1,.5-.19.09-.48.22-.52.24-.09.1-.14.31-.19.5-.07.24-.17.52-.34.76.55.17.74.55,1.38.67,1.58.34,1.19-.89,1.69-1.55.17-.22,1.17-.43,1.72-.89,2.51-2.13,1.55-6.13-1.24-6.95h-.02l-.02.02Z"/>
    <path d="M38.92,65.45c.28,0,.64-.28.98-.09-.19,1.26-.41,2.49-.6,3.75l-.64,5.3c-.22,1.32-.43,2.67-.65,3.99l-.43,4.04c-.28,1.75-.57,3.53-.88,5.26-.1,2.17-.5,4.39-1.07,6.52-.17.84-.41,1.69-.69,2.56.76.36,1.55.72,2.32,1.08,1.75-5.61,2.25-11.73,3.25-18.68.72-4.9,1.41-9.77,2.24-14.64l10.43-2.2.1-1.02c-.09-.6-.19-1.19-.31-1.75l-4.04.81c0-.28-.05-.52-.14-.77-.93-3.15-.88-6.62-1.75-9.79-.05-.02-.22-.43-.55-.57-9.6,1.58-19.3,3.58-28.94,5.52-3.3.67-7.12,1.89-10.48,2.24.67.83,1.41,1.6,2.22,2.31l35.1-7.11.52.09,1.31,8.29c-.1.58-1.24.65-1.75.77-5.68,1.39-12.66,2.87-18.38,3.75-.17.02-.33.05-.48.07l-.17,2.24c.69.33,1.08.36,1.08.36,4.08-.58,8.33-2.08,12.41-2.37h-.05l.05.03Z"/>
    <path d="M6.08,57.19s-.09.02-.14,0l1.89,2.39.33-.07c-.76-.72-1.46-1.5-2.1-2.32h.02Z"/>
    <path d="M22.95,65.83c.6.52,1.15.91,1.63,1.19l.09-1.17h-1.72v-.02Z"/>
    <path class="cls-3" d="M43.81,101.08c1.02-5.23,2.41-10.7,3.56-15.33.19-.83,1.48-6.13,1.75-6.28.58-.33.69,1.24.67,1.55-.24,7.19-1.55,14.8-1.93,22.09.31.15.6.31.91.46.19-1.24.43-2.41.58-3.84.28-2.84.31-5.71.72-8.65.1-.74-.46-2.39.88-2.31.05-.72.31-1.41.34-2.13.6-8.09,1.17-16.19,1.84-24.26l-11.82,37.49c.83.4,1.63.81,2.46,1.19h.02v.02Z"/>
    <path class="cls-3" d="M40.5,79.23c-1,6.95-1.5,13.08-3.25,18.68,1.38.65,2.74,1.31,4.13,1.98l11.82-37.49-10.43,2.2c-.81,4.89-1.51,9.76-2.24,14.64h-.02l-.02-.02Z"/>
    <path class="cls-13" d="M26.28,70.83h-.05c-.65,7.04-1.22,14.09-1.75,21.16h.07l1.74-21.18h0v.02Z"/>
    <path class="cls-13" d="M34.79,79.88c.28-5.39-3.3-9.67-8.52-9.07l-1.74,21.18c2.17.98,4.47,2.05,6.86,3.15,1.96-4.73,3.13-10.6,3.39-15.28v.02Z"/>
    <path class="cls-13" d="M33.97,96.35c.33.15.64.31.96.46.28-.88.52-1.74.69-2.56.58-2.13.96-4.35,1.07-6.52.28-1.75.58-3.53.88-5.26l.43-4.04c.22-1.32.43-2.67.65-3.99l.64-5.3c.19-1.26.41-2.49.6-3.75-.34-.17-.69.09-.98.09-.65,4.39-1.32,8.79-1.96,13.18-.84,5.9-1.24,12.06-3.03,17.7h.05Z"/>
    <path class="cls-15" d="M26.52,67.82c-.17.76-.34,1.57-.43,2.37-.05.33.15.6.15.65,0,0,.02,0,.05-.05l.24-2.98h-.02Z"/>
    <path class="cls-15" d="M30.73,71.08c6.21,3.08,4.66,11.58,3.25,17.46-.58,2.46-1.31,4.7-2.22,6.8.58.28,1.17.55,1.79.83.58-1.6.96-2.99.96-3.8,1.24-8.19,2.49-16.45,3.75-24.76l.64-2.15c-4.08.31-8.33,1.81-12.41,2.37l-.24,2.98c.93-1.08,3.3-.31,4.46.28h.02Z"/>
    <path class="cls-15" d="M26.28,70.8s-.02,0-.05.05h.05v-.05Z"/>
    <path class="cls-15" d="M34.52,92.38c0,.81-.36,2.2-.96,3.8.14.07.26.14.4.19,1.79-5.63,2.17-11.8,3.03-17.7.64-4.4,1.31-8.79,1.96-13.18l-.64,2.15c-1.27,8.33-2.55,16.57-3.75,24.76h-.02l-.02-.02Z"/>
    <path class="cls-15" d="M34.79,79.88c-.26,4.66-1.43,10.53-3.39,15.28.14.07.26.1.4.17.89-2.1,1.63-4.32,2.22-6.8,1.39-5.9,2.96-14.38-3.25-17.46-1.15-.57-3.54-1.34-4.46-.28v.05c5.21-.6,8.79,3.66,8.52,9.07h-.02l-.02-.03Z"/>
    <path class="cls-4" d="M49.4,103.87s.22.1.33.17c.24-4.71,1.08-10.24,1.41-14.62.02-.33-.15-.6-.15-.65l-.4.77c-.5,4.78-.88,9.57-1.19,14.31v.02Z"/>
    <path class="cls-4" d="M50.1,91.07c-.41,2.92-.43,5.8-.72,8.65-.14,1.43-.4,2.63-.58,3.84.19.09.36.19.57.28.33-4.77.69-9.53,1.19-14.31l.4-.77c-1.31-.09-.76,1.57-.88,2.31h.02l.02.02Z"/>
    <path class="cls-7" d="M56.18,69.51c.24.48.52.98.83,1.46-.74-3.66-2.22-8.69,1.74-10.77-.07-.4-.1-1.19-.31-1.72l-4.94,1h0l-.19,1.88c.31,2.31.46,4.77,1.22,6.81l.09-2.39,1.57,3.73h0Z"/>
    <path class="cls-7" d="M53.29,61.35l.19-1.88h0l-.52.1c.14.57.24,1.15.31,1.75h.02v.02Z"/>
    <path class="cls-14" d="M60.57,72.45c-.52-4.11-1.1-8.21-1.82-12.25l-.14.65c-2.01,1.22-2.22,3.72-1.91,5.9l.83,4.3-.26.28c.09.14.19.26.31.41.93.52,1.88.88,3.03.72h-.02l-.02-.02Z"/>
    <path class="cls-14" d="M57,70.97c.09.14.17.24.24.36l.26-.28-.83-4.3c-.31-2.2-.1-4.7,1.91-5.9l.14-.65c-3.96,2.08-2.48,7.11-1.74,10.77h.02Z"/>
    <polygon points="82.95 7.67 89.04 45.49 91.45 44.99 85.58 7.85 82.95 7.67"/>
    <path d="M114.92,14.18h-2.63c.22.09.1.98.17,1.31.17,1.07.28,2.15.43,3.15.24,1.41.55,2.8.74,4.23.15,1.07,1.02,4.49.69,5.56.19-.05.4-.07.57-.1l2.06-1.02-2.06-13.13h.03Z"/>
    <path d="M100.15,19.92c-.22-1.41-.52-2.82-.74-4.23-.1-.67-.96-4.52-.65-4.73l-3.79-1.1h-.1c.76,1.15,1.31,2.65,1.67,4.46,1.26,6.18,2.98,15.4,3.49,21.59.05.58-.07.96-.09,1.48,0,.09.07.28.1.55l2.62-1.84c-.48-2.37-.69-4.8-1.08-7.17-.48-2.99-.93-5.97-1.41-8.96h-.02v-.03Z"/>
    <path class="cls-19" d="M49.26,80.43c-1.81,6.62-3.72,13.78-5.04,20.84,1.08.55,2.17,1.08,3.23,1.6.74-7.52,1.34-14.99,1.81-22.47h0v.03Z"/>
    <path class="cls-19" d="M20.63,124.46s0,.09.02.14h.07s-.07-.07-.09-.14Z"/>
    <path class="cls-19" d="M49.26,80.43c-.46,7.47-1.07,14.95-1.81,22.47.15.07.28.15.43.22.4-7.3,1.69-14.9,1.93-22.09,0-.31-.09-1.88-.67-1.55-.28.15-1.57,5.45-1.75,6.28-1.15,4.63-2.55,10.1-3.56,15.33.14.07.28.14.41.19,1.32-7.09,3.23-14.23,5.04-20.84h-.02v-.02Z"/>
    <path class="cls-18" d="M91.45,44.99c.24,0,.5-.02.74-.05,2.55-.74,5.13-2.32,6.62-5.56-.17.1-.34.17-.55.26l-6.85,5.35h.03Z"/>
    <path class="cls-18" d="M87.32,7.28c-.46.09-.93.14-1.39.26-.24.07-.41-.22-.34.31l1.75.36v-.96h-.02v.03Z"/>
    <path class="cls-18" d="M99.12,40.79c-.14.22-.26.41-.4.6.15-.19.28-.4.4-.6Z"/>
    <path class="cls-18" d="M99.66,39.73s-.07.14-.09.19c0-.07.07-.14.09-.19Z"/>
    <path class="cls-18" d="M94.65,40.14c-.91-.22-2.58-1.31-2.79-2.32-1.55-8.55-3.05-17.14-4.32-25.76-.1-.77-.15-1.58-.19-2.37v-1.46l-1.75-.36,5.88,37.15,6.85-5.35c-1.22.55-2.79.67-3.65.48h-.03Z"/>
    <path class="cls-18" d="M99.88,38.02l.15-.1c0-.26-.1-.46-.1-.55.05.24,0,.43-.05.65Z"/>
    <path class="cls-15" d="M102.67,36.06l10.36-7.35.17-.07c.4-.07.76-.14,1.14-.22.33-1.07-.55-4.49-.69-5.56l-12.08,5.99c.4,2.37.6,4.8,1.08,7.17h.02v.03Z"/>
    <path class="cls-13" d="M101.57,28.89l.07-.58c3.87-1.93,7.76-3.84,11.63-5.78l.4.36c-.22-1.43-.5-2.82-.74-4.23l-12.73,1.26c.48,2.99.93,5.99,1.41,8.96h-.02l-.02.02Z"/>
    <path class="cls-13" d="M101.63,28.3l-.07.58,12.08-5.99-.4-.36c-3.87,1.93-7.73,3.84-11.63,5.78l.02-.02Z"/>
    <path class="cls-12" d="M118.89,15.79l-.05-.31c-.6.07-1.08.07-1.24-.07-.17-.15-.19-.36-.28-.84-.05-.24-.09-.52-.15-.83l-2.24.46,2.06,13.13.93-.19c.22-.19.46-.36.6-.6.52-.84.58-2.08.17-3.79l-.1-.5.88-.17-1.02-6.3s.22.02.46,0h-.03Z"/>
    <path d="M119.67,22.99c.05.26.07.5.1.76l.34-.07-.1-.76-.34.07Z"/>
    <path class="cls-12" d="M119.25,19.67s-.34-2.24-.24-2.37h.09l-.24-1.48h-.46l1.02,6.3.41-.09-.36-2.32s-.19,0-.24-.05h.02l.02.02Z"/>
    <path class="cls-15" d="M111.56,15.88c-4.04.14-8.14.09-12.15-.19.22,1.41.52,2.82.74,4.23l.26-.55c4.08-.41,8.14-.81,12.23-1.22l.26.48c-.17-1-.26-2.08-.43-3.15,0,.83-.43.36-.89.36h-.02v.03Z"/>
    <path class="cls-15" d="M100.43,19.41l-.26.55,12.73-1.26-.26-.48c-4.08.41-8.14.81-12.23,1.22h.02v-.03Z"/>
    <path class="cls-5" d="M99.42,15.69l.96-.28c3.91-.05,8.91,0,12.08.09-.07-.33.05-1.24-.17-1.32l-13.54-3.22c-.28.22.57,4.06.65,4.73h.02Z"/>
    <path class="cls-5" d="M100.38,15.4l-.96.28c4.03.28,8.1.33,12.15.19.46,0,.89.43.89-.36-3.2-.1-8.17-.14-12.08-.09h0v-.02Z"/>
    <path class="cls-17" d="M128.73,17.72c-2.48-3.41-6.31-.89-9.62-.46l.36,2.41c1.32,0,8.14-1.89,9.24-1.96h.02v.02Z"/>
    <path class="cls-17" d="M119.25,19.67s.1.05.24.05l-.36-2.41h-.09c-.1.14.15,2.29.24,2.37h-.02l-.02-.02Z"/>
    <path class="cls-2" d="M139.64,12.97c.07.4.81.77,1.1,1,.43.31,1.31.96,1.79,1l5.68-1.38c-.93-.26-1.79-1.6-2.7-1.72-1.41-.17-4.28,1.14-5.87,1.08v.02Z"/>
    <path class="cls-16" d="M149.36,10.94c.55.69,2.08,1.93,2.89,2,.55.05,4.32-.74,5.02-.96.22-.07.72,0,.41-.48-.09-.14-2.34-1.65-2.49-1.67-1.22-.22-4.37,1.24-5.85,1.08h.02v.03Z"/>
    <path class="cls-8" d="M135.77,13.87c-.36-.07-5.57.98-5.63,1.27.43.43,1.98,1.72,2.46,1.79,1.31.24,4.35-1.17,5.85-1.08l-1.96-1.65c-.22-.17-.46-.28-.72-.33h0Z"/>
    <path class="cls-1" d="M164.76,9.51c.4-2.58-4.46-.4-5.69-.57.69,2.06,5.35,2.8,5.69.57Z"/>
    <path class="cls-13" d="M94.86,9.82c-1.48-2.32-3.8-3.32-7.54-2.55.05.33.1.65.15.98l7.38,1.57Z"/>
    <path class="cls-13" d="M100.02,35.89c-.52-6.19-2.24-15.4-3.49-21.59-.36-1.82-.91-3.3-1.67-4.47l-7.38-1.57c1.46,9.84,3.11,19.63,4.85,29.39,1.24,2.22,3.08,2.41,5.28,1.69.41-.14,1.08-.36,1.58-.74l.05-.14.43-.31c.19-.24.31-.5.26-.81,0-.52.14-.89.09-1.48h.02l-.02.03Z"/>
    <path class="cls-13" d="M98.3,39.64c.19-.09.36-.15.55-.26.05-.09.09-.17.14-.26l-.65.52h-.03Z"/>
    <path class="cls-13" d="M87.47,8.26c-.05-.33-.1-.65-.15-.98v.96h.15v.02Z"/>
    <path class="cls-13" d="M99.66,38.16l.22-.15c.05-.19.09-.41.05-.65,0,.31-.09.57-.26.81h-.02Z"/>
    <path class="cls-13" d="M92.33,37.65c-1.74-9.77-3.39-19.58-4.85-29.39h-.14v1.43c.05.81.09,1.58.19,2.37,1.27,8.62,2.79,17.21,4.32,25.76.17,1.02,1.84,2.1,2.79,2.32.88.19,2.43.05,3.65-.48l.65-.52c.09-.17.17-.33.24-.52h0c-.52.34-1.17.58-1.58.74-2.22.72-4.04.52-5.28-1.69h0l.02-.03Z"/>
    <path class="cls-19" d="M58.88,56.42c7.97-1.26,15.9-2.74,23.79-4.56,3.7-.84,4.97-2.31,4.61-6.14-.07-.69-.64-5.54-.84-5.71-.58,1.24-2.08,2.91-3.41,3.2-7.38,1.58-14.83,3.13-22.26,4.63l-5.87,9.43c1.32-.28,2.65-.55,3.99-.81h0l-.02-.03Z"/>
    <path class="cls-19" d="M49.57,58.48c1.75-.48,3.54-.89,5.32-1.26l5.87-9.43c-4.46.89-8.88,1.79-13.3,2.62l-.41-.58c.89,3.17.83,6.64,1.75,9.79-.17-.5.33-1,.76-1.14h.02Z"/>
    <path class="cls-13" d="M21.53,64.8c-2.46-1.41-7.52-3.2-10.75-4.25,3.11,2.32,6.78,3.84,10.75,4.25Z"/>
    <path class="cls-13" d="M7.87,59.62l2.87,2.49c2.63,1.74,5.26,2.74,8,3.15-3.87-.89-7.38-2.79-10.25-5.45-.36-.1-.58-.17-.58-.17h-.02l-.02-.02Z"/>
    <path class="cls-13" d="M8.18,59.55l-.33.07s.22.07.58.17c-.09-.09-.17-.17-.26-.26h0v.02Z"/>
    <path class="cls-13" d="M44.46,61.41c.52-.14,1.65-.19,1.75-.77l-1.31-8.29-.52-.09-35.1,7.11c.48.43.98.84,1.5,1.22,3.23,1.07,8.29,2.84,10.75,4.25,1.19.14,2.39.15,3.61.09h.5v.33c.15-.02.31-.05.46-.07,5.71-.88,12.71-2.37,18.38-3.75h-.02l-.02-.02Z"/>
    <path class="cls-3" d="M2.36,50.46c-.15-.41-.24-.81-.36-1.22.57,2.08,1.31,4.06,2.31,5.78.31.52,1.24,2.08,1.67,2.2l.1-.05c-1.57-1.98-2.82-4.23-3.72-6.71Z"/>
    <path class="cls-3" d="M77.08,2.79L16.92,14.93c-6.78,2-11.84,6.56-14.49,12.58-2.29,6.69-2.05,14.73.76,22.61.88,2.43,2.08,4.61,3.61,6.52-.05-.15-.17-.28-.28-.48-.64-1.1-1.41-2.1-1.98-3.3-1.65-3.53-2.15-7.55-2.58-11.44,1,1.55,1.6,3.56,2.65,5.06,2.58,3.79,6.5,6.52,10.77,7.76l51.56-16.36-5.85,9.38c7.28-1.6,14.56-3.37,21.83-4.58,1.38-.58,2.41-1.51,3.06-2.91.1-.22.26-1.96.74-1.24.14.19.24,2.62.33,3.13.81,4.54,2.24,8.84-3.48,10.43-9.2,2.58-19.46,3.63-29.06,5.69l-.74,1.19c1.41-.31,3.46-1.14,4.23-.98.19.05.31.22.41.46l2.84-.57s0-.14-.02-.19l-.05-.43,22.07-4.22c3.17-1,5.23-3.41,5.9-6.78l-6.19-38.63c-.72-2.98-2.98-4.77-5.87-4.89l-.05.05.02-.02ZM49.98,41.55c-10.77,2.34-22.09,4.8-32.91,6.71-2.24.4-3.94,1.15-5.23-1.46-.6-4.35-1.58-8.65-2.13-13.01-.15-1.14-.55-2.7-.33-3.79.41-2.2,2.01-2.32,3.7-2.74,12.51-3.13,25.67-4.77,38.25-7.76,1.07-.14,2.1.19,2.72,1.1.5.72.65,2.08.83,2.98.72,3.63,1.89,9.69,2.1,13.23.26,4.2-4.11,4.11-7,4.73h.02ZM77.87,13.59c-.28.26-6.61,1.63-7.28,1.63-.33,0-.67.14-.96-.15-.26-.26-.77-3.66-.41-4.08.28-.33,7.79-1.65,8.17-1.46.46.24,1,3.56.48,4.06ZM81.9,9.46c-.88-1.19-1.46-1.74-2.75-2.25-.31.34-.77.34-1.48,0-3.13.1-6.3.76-9.29,1.74l-.57-.24c-17.31,3.42-34.65,6.81-51.87,10.67-5.14,1.58-12.25,8.65-13.18,14.31l-.83,5.02c0,.15.43,1.41-.22,1.38-1.07-8.17,2.79-16.65,9.38-21.09,2.79-1.88,5.32-2.51,8.46-3.25,18.63-4.32,37.61-7.19,56.28-11.42,2.24-.67,4.99.88,5.8,3.08.1.28.36,2,.28,2.08h-.02l.02-.02Z"/>
    <path class="cls-3" d="M46.51,49.24c.33.14.5.55.55.57.52.24,1.5-.07,2.08-.17,3.97-.65,7.97-1.48,11.94-2.37l5.85-9.38L15.37,54.25c.72.22,1.46.4,2.22.52,9.6-1.93,19.34-3.94,28.94-5.52h-.02Z"/>
    <path class="cls-3" d="M48.81,59.62c.07.26.14.52.14.77l4.04-.81c-.05-.15-.07-.33-.09-.46.24,0,.57-.05.91-.1l.74-1.19c-1.63.34-3.23.72-4.8,1.14l-.91.65h-.03Z"/>
    <path class="cls-3" d="M6.06,57.17l-.1.05h.14v-.05h-.03Z"/>
    <path class="cls-3" d="M58.43,58.5c-.09-.24-.22-.41-.41-.46-.77-.15-2.82.67-4.23.98l-.31.48,4.94-1s.02,0,.02,0Z"/>
    <path class="cls-3" d="M52.96,59.58l.52-.1.31-.48c-.34.07-.67.14-.91.1.05.15.07.31.09.46h0v.02Z"/>
    <path class="cls-3" d="M83.02,43.19c1.31-.28,2.8-1.96,3.41-3.2.22.17.77,5.02.84,5.71.36,3.84-.91,5.3-4.61,6.14-7.88,1.82-15.81,3.3-23.79,4.56-1.32.24-2.67.52-3.99.81l-.36.58c9.6-2.06,19.85-3.11,29.06-5.69,5.71-1.6,4.28-5.9,3.48-10.43-.09-.55-.19-2.92-.33-3.13-.48-.72-.64,1.02-.74,1.24-.67,1.39-1.69,2.32-3.06,2.91-7.28,1.19-14.56,2.98-21.83,4.58l-.33.52c7.43-1.48,14.88-3.03,22.26-4.63h-.02l.02.03Z"/>
    <path class="cls-3" d="M47.04,49.81l.41.58c4.4-.83,8.84-1.72,13.3-2.62l.33-.52c-3.99.89-7.97,1.72-11.94,2.37-.58.09-1.55.4-2.08.17h-.02Z"/>
    <path class="cls-3" d="M49.57,58.48c-.43.1-.91.64-.76,1.14l.91-.65c1.58-.41,3.17-.77,4.8-1.14l.36-.58c-1.79.36-3.56.77-5.32,1.26h0v-.02Z"/>
    <path class="cls-19" d="M2.76,44.17c.48,4.49,1.82,8.6,4.4,12.13.1.28.1.43,0,.55l7.6-2.41c-5.13-1.15-9.7-5.47-12.01-10.27h0Z"/>
    <path class="cls-19" d="M7.16,56.83s-.09.07-.14.09c0,.02.05.05.07.09,3.34-.36,7.17-1.58,10.48-2.24-.96,0-1.89-.14-2.8-.33l-7.6,2.41h0v-.02Z"/>
    <path class="cls-19" d="M7.16,56.83s.1-.26,0-.55c-2.58-3.53-3.94-7.62-4.4-12.13,2.29,4.8,6.88,9.12,12.01,10.27l.6-.19c-4.28-1.26-8.17-3.97-10.77-7.76-1.05-1.51-1.65-3.53-2.65-5.06.43,3.89.93,7.93,2.58,11.44.57,1.22,1.34,2.2,1.98,3.3.1.19.24.33.28.48.07.09.14.17.22.26l.17-.05v-.05h-.02v.03Z"/>
    <path class="cls-19" d="M17.57,54.76c-.74-.14-1.48-.31-2.22-.52l-.6.19c.91.22,1.84.34,2.8.33h.02Z"/>
    <path class="cls-19" d="M7.16,56.83l-.17.05v.05s.1-.05.14-.09h.05l-.02-.02Z"/>
    <path class="cls-11" d="M75.83,4.3c-18.67,4.23-37.63,7.11-56.28,11.42-3.15.74-5.69,1.39-8.46,3.25C4.48,23.42.64,31.88,1.71,40.07c.65.02.19-1.22.22-1.38l.83-5.02c.93-5.68,8.03-12.73,13.18-14.31,17.22-3.84,34.57-7.23,51.87-10.67l.57.24c2.99-.98,6.18-1.6,9.29-1.74.67.34,1.17.33,1.48,0,1.31.52,1.89,1.07,2.75,2.25.09-.09-.17-1.81-.28-2.08-.81-2.24-3.56-3.75-5.8-3.08h.02l-.02.02Z"/>
    <path class="cls-14" d="M69.22,10.99c-.36.41.15,3.8.41,4.08.28.28.64.17.96.15.67,0,7-1.38,7.28-1.63.52-.48,0-3.82-.48-4.06-.36-.19-7.88,1.14-8.17,1.46Z"/>
    <path class="cls-10" d="M54.04,20.61h-2.84L11.69,28.65l-2.32,1.38c-.19,1.08.19,2.67.33,3.79.57,4.35,1.55,8.67,2.13,13.01,1.31,2.62,2.99,1.84,5.23,1.46,10.82-1.91,22.14-4.37,32.91-6.71,2.89-.64,7.26-.52,7-4.73-.22-3.56-1.41-9.6-2.1-13.23-.17-.89-.33-2.25-.83-2.98h.02l-.02-.02ZM55.11,38.9c-.77.74-6.8,1.46-8.24,1.74-10.7,2.22-21.37,4.73-32.12,6.62-2.39,0-2.06-2.37-1.02-4.03,1-1.58,3.17-1.34,4.8-1.72,10.34-2.39,20.78-4.35,31.18-6.47.69-.57.89-1.55.69-2.39-.19-.88-.64,0-1.07.14-9.67,2.63-20.13,3.66-29.92,6.19-1.5.07-1.57.09-1.98-1.24-.4-1.26-.52-1.82.83-2.37l29.54-6.13,1.88.14c-.02-.31-.09-3.73-.64-3.46-.17.69-.91.88-1.5,1.05-9.08,2.8-19.82,3.29-29.04,5.94-1.02.15-1.96-.14-2.22-1.27-.24-1,.02-2.01,1.08-2.25l30.18-6.14c.33-.05.96.14,1.15.34.93-1.89,2.8-4.15,4.49-1.82l2.46,14.73c-.05.74-.05,1.89-.58,2.41,0,0,.05,0,.05,0Z"/>
    <path class="cls-6" d="M11.89,28.1l39.21-8.02c1-.07,2.06-.07,2.92.52-.64-.91-1.67-1.24-2.72-1.1-12.58,3.03-25.74,4.65-38.25,7.76-1.69.41-3.29.55-3.7,2.74.55-1,1.55-1.6,2.55-1.91h-.02v.02Z"/>
    <path class="cls-6" d="M51.19,20.58h2.84c-.88-.55-1.96-.57-2.92-.5L11.89,28.1c-1,.31-2,.93-2.55,1.91l2.32-1.38,39.52-8.05Z"/>
    <path class="cls-15" d="M48.71,23.59c.36.36.4,1.41.14,1.91-.19.36-1.34.65-1.79.77-9.5,2.51-19.94,3.53-29.52,5.87l-1.24-.48c.26,1.14,1.19,1.43,2.22,1.27,9.24-2.65,19.96-3.13,29.04-5.94.58-.17,1.32-.34,1.5-1.05.55-.31.6,3.15.64,3.46.07.77.91,1.91-.58,2.41l-30.5,6.28-1.15-.34c.41,1.32.48,1.27,1.98,1.24,9.76-2.55,20.23-3.58,29.92-6.19.43-.1.84-1,1.07-.14.19.84,0,1.82-.69,2.39,1.67.34,1.6,2.46-.09,2.82l-30.01,6.09c-1.31.14-2-1.32-1.1-2.43-1.63.36-3.79.14-4.8,1.72-1.05,1.65-1.38,4.03,1.02,4.03,10.75-1.91,21.42-4.4,32.12-6.62,1.43-.31,7.45-1,8.24-1.74.55-.5.52-1.65.58-2.41l-2.46-14.73c-1.69-2.32-3.56-.07-4.49,1.82h-.02l-.02-.02Z"/>
    <path d="M17.55,31.66c9.26-1.75,18.51-3.54,27.73-5.44,1.08-.22,2.2-.5,3.13-.93.02-.6.14-1.17.31-1.67-.19-.19-.83-.4-1.15-.34l-30.18,6.14c-1.07.24-1.32,1.26-1.08,2.25.33-.41.74-.43,1.24,0h0v-.02Z"/>
    <path d="M47.08,26.29c.43-.1,1.58-.4,1.79-.77.26-.5.24-1.55-.14-1.91-.17.5-.26,1.07-.31,1.67-.96.43-2.05.72-3.13.93-9.24,1.89-18.48,3.66-27.73,5.44-.5-.41-.91-.41-1.24,0l1.24.48c9.58-2.34,20.03-3.34,29.52-5.87v.05-.02Z"/>
    <path d="M49.52,37.4c1.26-.36,1.17-1.32.19-1.98v-.34c-10.41,2.13-20.85,4.08-31.19,6.47-.05.89.14,1.5.57,1.88,10.15-1.84,20.29-3.84,30.44-5.99h0v-.03Z"/>
    <path d="M19.63,43.99l30.01-6.09c1.72-.36,1.75-2.48.09-2.82v.34c.98.67,1.07,1.63-.19,1.98-10.15,2.15-20.29,4.15-30.44,5.99-.43-.36-.6-.98-.57-1.88-.89,1.1-.19,2.56,1.1,2.43h0v.05Z"/>
    <path d="M18.64,37.63l30.35-6.28c.6-.17.69-.72.28-1.63l.43-.31-1.88-.14-29.54,6.13c-1.32.55-1.22,1.1-.83,2.37.24-.43.64-.48,1.17-.15l.02.02Z"/>
    <path d="M49.11,31.83c1.48-.5.64-1.63.58-2.41l-.43.31c.43.91.33,1.46-.28,1.63l-30.35,6.28c-.52-.33-.91-.28-1.17.15l1.15.34,30.5-6.28h0l-.02-.03Z"/>
    <path d="M149.67,17.62s.17.15.28.19c.67.28,1.22.28,1.65.05.05-.02.09-.07.14-.1-.19-.17-.4-.33-.65-.33-.4-.02-.88.07-1.43.19h.02Z"/>
    <path d="M122.63,14.74c.48-.26.64-.74.76-1.07.15-.41.19-.48.4-.5.33-.05.57.05.81.14h0c.91-.1,1.38.36,1.98.65.76,0,1.63-.26,2.56-.52,1-.28,2.06-.58,2.84-.52l.41.05.07-.46c.09-.67.26-1.14.52-1.24.24-.1.64,0,1,.22.55-.43,1.34-.1,2.2.46.77-.17,1.98-.34,2.87-.48,2.06-.31,2.34-.36,2.51-.55.19-.17.24-.46.28-.76.1-.6.17-.76.43-.77.46-.05.72.15,1.05.41.02,0,.07.05.09.07.14-.26.31-.5.65-.52.15,0,.24.02.36.05-.19-.05-.36-.17-.58-.33-.4-.28-.84-.65-1.63-.57-.98.1-1.15,1.08-1.24,1.57,0,.07,0,.14-.02.19-.34.09-1.26.22-2.01.34-1.75.26-3.03.48-3.63.69-.91-.65-1.88-1.17-2.65-.77-.48.24-.81.74-.98,1.57-.84.02-1.81.28-2.74.57-.96.26-1.93.55-2.63.48-.34-.02-.58-.17-.88-.34-.43-.26-.93-.55-1.69-.43-.76.09-.98.69-1.14,1.1-.1.31-.17.48-.33.57-.28.14-2.39.5-3.54.64l.15.91c1.5-.15,3.75-.72,3.79-.72l-.05-.09.02-.05Z"/>
    <path d="M159,15.79c.17.1.36.22.65.26.83.19,1.26-.05,1.5-.36-.19-.07-.46-.1-.81-.1-.15,0-.67.09-1.34.22v-.02Z"/>
    <path d="M92.21,44.94c-.88.26-1.74.41-2.55.5l-.34.05-.07.36c0,.15-.07.31-.09.43v.1c.15,3.23-1.79,5.88-4.63,6.85l-23.3,4.66c.26,2.25.65,4.56,1.05,6.76.48,2.8,1,5.71,1.22,8.55-1.07.69-2.08.93-3.06.69-1.14-.28-2.1-1.17-2.89-2.2-.15-.09-.28-.15-.43-.24-1.32-.77-2.08-1.98-2.62-3.34l-1.46,37.58c.28.15.57.31.88.46l1.41-36.41.07.15c1.39,2.79,3.06,4.47,4.85,4.9,1.31.31,2.63,0,3.97-1l.22-.15v-.26c-.22-2.99-.74-6.02-1.26-8.95-.36-2.1-.74-4.3-1-6.47l21.28-4.06c3.58-1.14,5.9-3.82,6.62-7.62,3.87-.5,6.8-2.2,8.65-4.94-1.51,2.13-4.03,3.41-6.52,3.54h-.02l-.02.03Z"/>
    <path d="M140.74,19.53c.43.28.93.55,1.48.33.02,0,.07-.05.09-.05-.31-.17-.6-.34-.93-.36-.05,0-.31.05-.64.09h0Z"/>
    <path d="M157.79,7.67c1.15-.31,2.24-.58,3.06-.67.41-.05.76,0,1.14,0,.6-.14,1.17-.22,1.67-.22.36,0,.69.09,1,.17-.93-.72-2.29-1.07-3.87-.91-.89.09-2.01.36-3.2.69-1.07.28-2.13.55-2.99.67.41.22.72.57,1.1.74.67-.14,1.38-.33,2.08-.5h0l.02.03Z"/>
    <path d="M114.92,28.35l-.64.31-11.48,8.14-2.74,1.46c-.09.5-.22,1-.41,1.46.1-.22.22-.41.31-.65l13.47-9.51c2.46-.41,4.78-.83,5.85-2.55.05-.07.05-.14.09-.17l-1.43.28c-.74.6-1.79.96-2.99,1.22h-.02l-.02.02Z"/>
    <path d="M150.74,9.02c.22-.19.24-.5.26-.77.07-.58.14-.81.6-.81.33,0,.57.17.83.41.14.1.28.24.46.33.07-.31.19-.6.52-.77-.14-.07-.26-.15-.41-.28-.33-.28-.74-.6-1.39-.6-1.32,0-1.43,1.17-1.48,1.67v.14c-.88.26-5.02,1.02-5.61,1.05.55.1.91.48,1.32.72,1.79-.28,4.58-.76,4.9-1.07h-.02l.02-.02Z"/>
    <path d="M131.38,21.49s.19.15.33.19c.31.14.57.15.83.15-.26-.24-.5-.43-.88-.4,0,0-.28.05-.28.05Z"/>
    <path d="M25.43,67.48c-.24-.1-.52-.26-.84-.46l-1.88,24.17c.28.14.57.26.84.36l1.88-24.12h0v.05Z"/>
    <path d="M99.55,39.93c-.14.31-.28.58-.46.88.15-.28.31-.57.46-.88Z"/>
    <path d="M22.54,65.48c-1.31.05-2.58-.05-3.82-.24,1.38.33,2.8.52,4.23.58-.14-.1-.26-.22-.4-.33h-.02v-.02Z"/>
    <path d="M2.43,27.49c.34-1.02.74-2.01,1.22-2.98,2.91-5.94,7.97-10.08,14.62-11.99L75.88.93c2.15.05,4.03.89,5.52,2.51.14.15.33.43.5.72.41.64.77,1.22,1.24,1.32.46.14,1.19,0,2.25-.28.48-.1.98-.24,1.27-.26,2.08-.15,3.53.19,5.32,1.27.36.22.83.67,1.24,1.07.46.43.81.77,1.1.93.43.19,1.39.41,2.25.64.33.07.64.15.84.19.5.14,1.07.28,1.67.43,3.65.96,8.67,2.29,11.42,2.46.74.05,1.5-.14,2.22-.31,1.26-.31,2.46-.57,3.54.34.46.4.69,1.1.84,1.75l.88-.17c-.17-.83-.48-1.75-1.17-2.32-1.41-1.17-2.92-.83-4.25-.52-.69.15-1.34.33-1.98.28-2.7-.15-7.86-1.51-11.27-2.43-.6-.15-1.17-.31-1.67-.43-.22-.07-.52-.14-.88-.19-.74-.17-1.74-.4-2.08-.57-.17-.09-.55-.46-.88-.76-.43-.43-.93-.91-1.39-1.17-1.93-1.17-3.56-1.57-5.8-1.41-.36,0-.88.15-1.41.28-.64.15-1.57.36-1.84.28-.17-.07-.57-.65-.76-.98-.22-.33-.41-.64-.6-.83-1.69-1.81-3.75-2.74-6.18-2.79h-.09L18.05,11.63c-6.93,1.98-12.18,6.3-15.21,12.47-3.48,7.11-3.75,16.21-.89,25.14-.76-2.75-1.22-5.69-1.5-8.36-.52-4.87.19-9.43,1.96-13.39h.02Z"/>
    <path d="M135.13,12.32l.24-.14s.4-.14.74-.22c-.84-.57-1.65-.89-2.2-.46.41.22.81.5,1,.65l.22.15v.02Z"/>
    <path d="M126.17,13.99h.36c-.6-.28-1.07-.76-1.98-.65h0c.14.07.26.1.4.19.33.19.69.41,1.22.46h0Z"/>
    <path d="M152.89,8.19c.19.1.41.22.69.24.58.05,1.32-.07,2.13-.24-.41-.17-.72-.52-1.1-.74-.34.05-.67.07-.93.05-.09,0-.17-.05-.26-.09-.33.17-.46.48-.52.77h-.02Z"/>
    <path d="M161.68,14.45s.31-.15.52-.24c.33-.15.69-.31,1-.5,2.55-1.65,3.03-3.7,2.62-5.04-.19-.67-.58-1.24-1.15-1.67-.33-.09-.65-.17-1-.17-.5,0-1.07.09-1.67.22,1.51.14,2.65.81,2.98,1.93.4,1.31-.48,2.82-2.22,3.96-.24.15-.57.31-.88.43-.46.19-.72.33-.88.5-.22.26-.31.57-.36.84-.14.5-.15.6-.81.46-.26-.07-.41-.15-.58-.28-.33-.22-.72-.48-1.57-.46-.4,0-5.21.91-5.63,1.14-.24.14-.33.41-.41.72s-.17.67-.41.81c-.19.1-.52.07-.93-.09-.1-.05-.24-.15-.36-.28-.24-.22-.55-.48-.98-.52-.72-.05-1.74.24-2.8.57-1.08.31-2.2.64-2.92.58h-.33l-.1.31c-.4,1.08-.69,1.32-.84,1.39-.22.09-.55-.14-.89-.34-.4-.24-.83-.52-1.32-.57-.26,0-5.54.93-5.95,1.15-.28.15-.4.48-.52.83-.14.33-.26.72-.5.83-.15.09-.4.07-.69-.07-.14-.05-.26-.17-.4-.31-.28-.26-.65-.6-1.22-.55l-10.56,2.05.15.91,10.53-2.05c.14,0,.26.09.52.33.1.09.22.19.33.28l.28-.05c.34-.05.6.17.88.4.19,0,.4-.05.55-.1.57-.28.81-.89.96-1.34.05-.1.09-.24.14-.31.69-.19,5.06-1.05,5.49-1.05.28.02.6.24.93.43.05.02.1.07.15.09.33-.05.58-.09.64-.09.33.02.64.17.93.36.46-.22.83-.69,1.17-1.58.84-.02,1.89-.33,2.89-.6.96-.28,1.93-.57,2.51-.52.14,0,.28.15.46.31.09.09.22.15.34.24.55-.14,1.05-.22,1.43-.19.26,0,.46.17.65.33.46-.34.64-.91.74-1.27,0-.05.02-.1.05-.15.74-.19,4.73-1,5.18-1,.6,0,.81.14,1.08.33.07.05.15.09.24.15.67-.14,1.19-.22,1.34-.22.34,0,.6.05.81.1.17-.24.28-.52.34-.76.05-.19.1-.4.19-.5l-.1-.07-.02-.03Z"/>
    <path d="M143.34,9.84c.28.22.57.43,1,.46,0,0,.64-.09,1.46-.22-.41-.24-.77-.6-1.32-.72h-.1c-.14,0-.22-.07-.36-.05-.36.05-.55.26-.65.52l-.02.02Z"/>
    <path d="M25.6,65.21c-1.05.15-2.06.24-3.06.26h0c.14.14.26.22.4.33.57.02,1.15.02,1.72,0l-.09,1.17c.31.19.6.34.84.46l.17-2.24h.02v.02Z"/>
    <path d="M7.09,57c-.17,0-.34.07-.5.07-.14,0-.31.1-.5.14.65.83,1.34,1.6,2.1,2.32l1.1-.22c-.77-.72-1.51-1.48-2.22-2.31h.02Z"/>
    <path d="M56.18,69.51l-1.57-3.73-.09,2.39c.5,1.34,1.27,2.55,2.62,3.34-.02-.17-.07-.34-.1-.52-.31-.5-.58-1-.83-1.46h-.02l-.02-.02Z"/>
    <path d="M57.11,71.52c.15.09.28.15.43.24-.1-.14-.19-.26-.31-.41l-.15.15h.02l.02.02Z"/>
    <path d="M57,70.97c.05.17.07.36.1.52l.15-.15c-.09-.14-.17-.24-.24-.36,0,0-.02,0-.02,0Z"/>
    <path d="M114.28,28.65l.64-.31c-.17.05-.36.07-.57.1,0,.07,0,.15-.07.22h0v-.02Z"/>
    <path d="M100.03,37.9s.05.19,0,.34l2.74-1.46c-.07-.24-.09-.5-.15-.74l-2.62,1.84h.02l.02.02Z"/>
    <path d="M99.64,38.61c-.19.31-.46.58-.81.77-1.5,3.22-4.08,4.82-6.62,5.56,2.49-.14,4.99-1.43,6.52-3.54.14-.19.26-.4.4-.6.17-.28.33-.57.46-.88,0-.07.07-.14.09-.19.17-.46.33-.96.41-1.46l-.41.33h-.02l-.02.02Z"/>
    <path d="M99.88,38.02c-.05.22-.14.4-.26.58l.41-.33v-.34l-.15.1h0v-.02Z"/>
    <path d="M113.2,28.65l-.17.07-10.36,7.35c.05.24.09.5.15.74l11.48-8.14s.05-.14.07-.22c-.36.07-.76.14-1.14.22h-.02l-.02-.02Z"/>
    <path d="M119.75,23.74h-.05l-.28-1.65-.88.17.1.5c.41,1.69.34,2.92-.17,3.79-.15.24-.4.41-.6.6l1.43-.28c.43-.81.58-1.84.43-3.11h0l.02-.02Z"/>
    <path d="M117.33,14.56c.09.48.1.69.28.84.15.14.64.14,1.24.07l-.15-.91c-.19,0-.34.05-.48.05,0-.07,0-.15-.05-.24-.05-.24-.09-.52-.15-.81l-.88.17c.07.31.14.58.15.83h.05Z"/>
    <path d="M119.73,23.74h.05c0-.26-.05-.5-.1-.76l.34-.07-.15-.91-.41.09.28,1.67h0v-.02Z"/>
    <path d="M99.19,38.63c.19-.14.34-.28.48-.43l-.43.31-.05.14v-.02Z"/>
    <path d="M98.83,39.38c.34-.22.6-.48.81-.77l-.69.55s-.09.17-.14.26h.02v-.03Z"/>
    <path d="M99.66,38.16c-.14.15-.28.31-.48.43h0c-.07.19-.17.34-.24.52l.69-.55c.1-.17.22-.36.26-.58l-.22.15h-.02l.02.03Z"/>
    <path d="M22.54,65.48c-.24-.22-.58-.46-1-.69-3.96-.43-7.64-1.93-10.75-4.25-1-.33-1.82-.58-2.32-.74,2.87,2.67,6.4,4.56,10.25,5.45,1.24.19,2.51.26,3.82.24v-.02Z"/>
    <path d="M8.18,59.55s.17.17.26.26c.52.15,1.32.41,2.32.74-.52-.4-1.02-.77-1.5-1.22l-1.1.22h.02Z"/>
    <path d="M25.16,64.88c-1.22.07-2.43.05-3.61-.09.41.24.76.48,1,.69,1-.02,2.01-.1,3.06-.26v-.36l-.46.02h.02Z"/>
    <path d="M83.26,53.08l-22.07,4.22.05.43s0,.14.02.19l23.3-4.66c2.82-.96,4.77-3.61,4.63-6.85v-.1c-.67,3.37-2.75,5.78-5.94,6.78h.02,0Z"/>
    <path d="M6.06,57.17l.58-.17c.14-.15.17-.26.15-.36-1.51-1.91-2.75-4.11-3.61-6.52-2.8-7.86-3.05-15.93-.76-22.61C.67,31.47-.05,36.03.47,40.9c.28,2.65.74,5.57,1.5,8.36.14.41.24.81.36,1.22.89,2.49,2.15,4.77,3.72,6.71l.02-.02Z"/>
    <path d="M6.64,57l-.58.17h0c.19,0,.36-.1.5-.14l.07-.07h.02v.03Z"/>
    <path d="M6.58,57.07c.15,0,.34-.05.5-.07,0-.02-.05-.05-.07-.09-.1.07-.26.1-.43.15Z"/>
    <path d="M6.76,56.64s0,.22-.15.36l.34-.1s-.15-.17-.22-.26h.03Z"/>
    <path d="M7.01,56.92v-.05l-.34.1s0,.05-.07.07c.17-.05.33-.09.43-.15h-.02v.03Z"/>
    <path d="M23.56,91.57c-.28-.14-.57-.26-.84-.36l-.22,2.87c.28.14.57.26.84.4l.22-2.87h0v-.03Z"/>
    <path d="M52.98,107.62v.58c0,.26,0,.5.02.72.1,0,.26.05.43.09.19.07.34.17.46.24-.05-.5-.05-1.02,0-1.6l.07-1.41c-.28-.15-.57-.31-.88-.46l-.07,1.88h-.05l.02-.03Z"/>
  </g>
  <polygon class="cls-3" points="47.9 103.13 47.27 108.77 49.4 108.77 49.69 104.04 47.9 103.13"/>
  <path class="cls-19" d="M43.81,101.08c-.58,2.56-1.19,5.13-1.79,7.69h5.21l.65-5.64s-4.08-2.05-4.08-2.05Z"/>
  <path class="cls-3" d="M37.27,97.78c-.83,3.66-1.65,7.36-2.46,11.03,2.41,0,4.82-.05,7.23-.05.6-2.63,1.22-5.23,1.81-7.86l-6.59-3.13.02.02Z"/>
  <polygon class="cls-3" points="49.69 83.53 47.27 108.77 49.4 108.77 51.57 83.53 49.69 83.53"/>
  <path class="cls-15" d="M31.4,95.18c-.65,2.06-1.43,4.28-2.37,6.59-1.07,2.63-2.22,4.99-3.32,7.14h3.54c.96-1.55,1.98-3.48,2.84-5.78.98-2.55,1.55-4.87,1.88-6.76-.84-.4-1.69-.81-2.56-1.19Z"/>
  <path class="cls-13" d="M33.97,96.35c-.55,2.01-1.24,4.22-2.1,6.54-.83,2.2-1.72,4.2-2.62,5.99h1.74c1.19-3.22,2.05-5.45,2.39-6.23,0,0,.5-1.22.67-2.05.05-.24.02-.26.26-.88.22-.58.22-1.26.6-2.56.05-.15.09-.28.1-.36-.34-.15-.72-.31-1.07-.46l.02.02Z"/>
  <path d="M34.81,108.81c-1.27,0-2.56.05-3.82.07.14-.41.34-1.05.58-1.79.69-2.01,1.27-3.46,1.48-3.96.52-1.34,1.22-3.39,1.89-6.47.76.4,1.51.81,2.29,1.19-.81,3.63-1.6,7.28-2.43,10.91v.05h.02-.02Z"/>
  <path class="cls-13" d="M24.47,91.98c-.1,2.1-.24,4.25-.4,6.47-.28,3.61-.64,7.09-1.05,10.43h2.67c.98-1.69,1.98-3.63,2.91-5.78,1.26-2.87,2.15-5.56,2.79-7.95-.74-.57-1.67-1.17-2.79-1.74-1.57-.77-3.03-1.19-4.15-1.43h.02Z"/>
  <path d="M53.87,108.81c-5.3,0-10.6.05-15.93.07-5.37,0-10.7.07-16.05.1-.07.14-.1.24-.17.36-.09.17-.17.36-.26.55,10.86-.05,21.7-.1,32.57-.15-.05-.31-.09-.64-.14-.93h-.02,0Z"/>
</svg>