<?xml version="1.0" encoding="UTF-8"?>
<svg id="Layer_1" data-name="Layer 1" xmlns="http://www.w3.org/2000/svg" viewBox="0 0 107 78.64">
  <defs>
    <style>
      .cls-1 {
        fill: #ff971d;
      }

      .cls-2 {
        fill: #f48e31;
      }

      .cls-3 {
        fill: #ffd33f;
      }

      .cls-4 {
        fill: #ce7c38;
      }
    </style>
  </defs>
  <g>
    <path class="cls-4" d="M106.84,67.6c-1.45-3.44-5.91-5.09-5.91-5.09.97,6.34-19.77,11.28-49,12.05-29.22.77-47.36-6.17-46.53-14.64,0,0-3.75,2.95-3.72,5.16.04,1.76,2.55,6.65,9.97,9.55s26.9,4.01,41.52,4.01,37.39-2.78,41.74-4.01c4.35-1.24,13.38-3.58,11.94-7.02h0Z"/>
    <path class="cls-2" d="M51.93,74.57c29.22-.77,49.97-5.71,49-12.05-.94-6.17-4.58-16.85-4.58-16.85,0,8.33-12.2,13.57-27.57,15.72h0s-8.37,1.44-16.53,1.36c-8.15-.07-18.32-1.41-18.32-1.41,0-.05-.02-.08-.02-.12-14.81-2.25-26.38-7.44-26.38-15.54,0,0-1.26,5.78-2.1,14.26-.84,8.47,17.29,15.41,46.52,14.64h0Z"/>
    <path class="cls-1" d="M59.97,20.48c.58,7.22.96,4.2,6.72,15.29,4.42,8.5,2.09,25.59,2.08,25.62,15.36-2.15,27.57-7.39,27.57-15.72,0-12.56-6.23-23.8-16-31.25,2.5,5.44,2.96,15.66,2.96,15.66h-9.83V10.1c-4.64-2.37-9.78-3.98-15.24-4.7.32.89.34,1.85.37,2.65.18,4.15,1.02,8.26,1.35,12.4h0v.02h0Z"/>
    <path class="cls-1" d="M33.9,61.22c-1.7-9.01-1.18-16.04.41-23.81,1.53-7.42,6.79-10.29,7.06-16.84.18-4.12.97-8.2,1.24-12.3.05-.6.1-1.53.54-2.46-4.68.86-9.1,2.4-13.12,4.49v19.8h-9.83s.45-9.74,2.79-15.25c-9.48,7.46-15.49,18.51-15.49,30.85,0,8.11,11.59,13.29,26.38,15.54h0Z"/>
    <path class="cls-3" d="M41.37,20.55c-.27,6.54-5.54,9.42-7.06,16.84-1.59,7.78-2.11,14.81-.41,23.81,0,.05.02.08.02.12,0,0,10.17,1.33,18.32,1.41s16.53-1.36,16.53-1.36h0s2.34-17.12-2.08-25.62c-5.76-11.09-6.15-8.07-6.72-15.29-.33-4.14-1.17-8.24-1.35-12.4-.04-.8-.05-1.77-.37-2.65-.18-.47-.44-.93-.85-1.33-1.1-1.06-3.13-1.14-7.09-1.14-3.04,0-5.26.34-6.61,1.99-.23.28-.41.57-.54.87-.44.93-.5,1.87-.54,2.46-.26,4.11-1.06,8.19-1.24,12.3h0Z"/>
    <path class="cls-3" d="M30.04,30.08V9.13s-1.3-.87-5.24,2.83c-.7.66-1.29,1.66-1.79,2.86-2.34,5.52-2.79,15.25-2.79,15.25h9.83Z"/>
    <path class="cls-3" d="M83.31,30.08s-.47-10.23-2.96-15.66c-.47-1.02-1-1.87-1.62-2.45-3.93-3.72-5.24-2.83-5.24-2.83v20.95h9.83,0Z"/>
  </g>
  <path d="M52,76.73c-15.59,0-34.54-1.25-41.7-4.04C2.61,69.68.05,64.64,0,62.66c-.05-2.18,2.92-4.76,3.73-5.44.79-7.85,1.95-13.44,2.08-14.04.02-11.97,5.69-23.29,15.58-31.12.56-1.29,1.18-2.26,1.87-2.9,4.02-3.8,5.61-3.07,5.88-2.9l.23.16v.6c3.86-1.92,7.98-3.3,12.26-4.11.14-.26.31-.5.49-.73,1.49-1.82,3.88-2.18,7.02-2.18,3.91,0,6.17.06,7.44,1.29.35.34.64.75.85,1.23,5.03.69,9.85,2.14,14.35,4.33v-.42l.23-.16c.27-.18,1.85-.91,5.88,2.9.61.58,1.17,1.42,1.68,2.5,10.21,7.84,16.07,19.32,16.1,31.51.34,1,3.57,10.66,4.54,16.56,1.04.44,4.61,2.14,5.93,5.26h0c.28.66.26,1.32-.05,1.97-1.18,2.46-6.36,4.1-11.57,5.56l-.66.19c-4.57,1.29-27.31,4.03-41.88,4.03v-.02h0ZM28.34,7.12c-.49.04-1.82.38-4.36,2.79-.61.57-1.16,1.46-1.67,2.68l-.05.12-.11.08c-9.72,7.65-15.29,18.74-15.29,30.44v.11c-.02.06-1.28,5.85-2.1,14.2l-.02.22-.18.14c-.99.78-3.55,3.16-3.51,4.73.04,1.68,2.51,6.3,9.63,9.07,7.04,2.75,25.83,3.98,41.32,3.98,14.2,0,37.2-2.75,41.59-3.99l.66-.18c3.44-.97,9.83-2.77,10.91-5.01.18-.37.19-.74.04-1.12h0c-1.34-3.19-5.58-4.8-5.62-4.81l-.29-.11-.05-.31c-.93-6.04-4.53-16.65-4.57-16.75l-.02-.17c0-11.94-5.76-23.18-15.8-30.85l-.11-.08-.06-.11c-.47-1.02-.97-1.79-1.51-2.28-2.51-2.37-3.85-2.76-4.36-2.78v1.4l-.75-.38c-4.68-2.38-9.75-3.95-15.06-4.64l-.31-.05-.11-.3c-.18-.47-.41-.84-.72-1.15-.92-.9-2.76-.99-6.72-.99-2.83,0-4.98.31-6.22,1.8-.19.23-.34.47-.47.75l-.11.24-.26.05c-4.54.84-8.91,2.33-12.97,4.44l-.75.39v-1.61h-.02Z"/>
</svg>