<?xml version="1.0" encoding="UTF-8"?>
<svg id="Layer_1" data-name="Layer 1" xmlns="http://www.w3.org/2000/svg" viewBox="0 0 114.89 84.44">
  <defs>
    <style>
      .cls-1 {
        fill: #ff971d;
      }

      .cls-2 {
        fill: #f48e31;
      }

      .cls-3 {
        fill: #ffd33f;
      }

      .cls-4 {
        fill: #ce7c38;
      }
    </style>
  </defs>
  <g>
    <path class="cls-4" d="M114.72,72.59c-1.56-3.69-6.35-5.47-6.35-5.47,1.04,6.81-21.23,12.11-52.61,12.94-31.38.83-50.85-6.62-49.96-15.72,0,0-4.03,3.17-3.99,5.54.04,1.89,2.74,7.14,10.7,10.25,7.96,3.11,28.88,4.31,44.58,4.31s40.15-2.98,44.82-4.31,14.37-3.84,12.82-7.54h0,0Z"/>
    <path class="cls-2" d="M55.76,80.07c31.38-.83,53.66-6.13,52.61-12.94-1.01-6.62-4.92-18.09-4.92-18.09,0,8.94-13.1,14.57-29.6,16.88h0s-8.99,1.55-17.75,1.46c-8.75-.08-19.67-1.51-19.67-1.51,0-.05-.02-.09-.02-.13-15.9-2.42-28.33-7.99-28.33-16.69,0,0-1.35,6.21-2.26,15.31-.9,9.1,18.57,16.55,49.95,15.72h0Z"/>
    <path class="cls-1" d="M64.39,21.99c.62,7.75,1.03,4.51,7.22,16.42,4.75,9.13,2.24,27.48,2.23,27.51,16.49-2.31,29.6-7.94,29.6-16.88,0-13.49-6.69-25.55-17.18-33.56,2.68,5.84,3.18,16.82,3.18,16.82h-10.55V10.85c-4.98-2.54-10.5-4.27-16.36-5.05.34.96.37,1.99.4,2.85.19,4.46,1.1,8.87,1.45,13.31h0v.02Z"/>
    <path class="cls-1" d="M36.4,65.73c-1.83-9.67-1.27-17.22.44-25.57,1.64-7.97,7.29-11.05,7.58-18.08.19-4.42,1.04-8.8,1.33-13.21.05-.64.11-1.64.58-2.64-5.03.92-9.77,2.58-14.09,4.82v21.26h-10.55s.48-10.46,3-16.38c-10.18,8.01-16.63,19.88-16.63,33.12,0,8.71,12.44,14.27,28.33,16.69h0Z"/>
    <path class="cls-3" d="M44.42,22.07c-.29,7.02-5.95,10.11-7.58,18.08-1.71,8.35-2.27,15.9-.44,25.57,0,.05.02.09.02.13,0,0,10.92,1.43,19.67,1.51,8.75.08,17.75-1.46,17.75-1.46h0s2.51-18.38-2.23-27.51c-6.19-11.91-6.6-8.67-7.22-16.42-.35-4.45-1.26-8.85-1.45-13.31-.04-.86-.05-1.9-.4-2.85-.19-.51-.47-1-.91-1.43-1.18-1.14-3.36-1.22-7.61-1.22-3.26,0-5.65.37-7.1,2.14-.25.3-.44.61-.58.93-.47,1-.54,2.01-.58,2.64-.28,4.41-1.14,8.79-1.33,13.21h0Z"/>
    <path class="cls-3" d="M32.25,32.3V9.8s-1.4-.93-5.63,3.04c-.75.71-1.39,1.78-1.92,3.07-2.51,5.93-3,16.38-3,16.38h10.55Z"/>
    <path class="cls-3" d="M89.45,32.3s-.51-10.98-3.18-16.82c-.51-1.1-1.07-2.01-1.74-2.63-4.22-3.99-5.63-3.04-5.63-3.04v22.5h10.55,0Z"/>
  </g>
  <path d="M55.83,82.39c-16.74,0-37.09-1.34-44.78-4.34C2.8,74.82.05,69.41,0,67.28c-.05-2.34,3.13-5.11,4.01-5.84.85-8.43,2.09-14.43,2.23-15.08.02-12.85,6.11-25.01,16.73-33.42.6-1.38,1.27-2.43,2.01-3.11,4.32-4.08,6.02-3.3,6.31-3.11l.25.17v.64c4.14-2.06,8.57-3.54,13.16-4.41.15-.28.33-.54.53-.78,1.6-1.95,4.17-2.34,7.54-2.34,4.2,0,6.63.06,7.99,1.38.38.37.69.81.91,1.32,5.4.74,10.58,2.3,15.41,4.65v-.45l.25-.17c.29-.19,1.99-.98,6.31,3.11.65.62,1.26,1.52,1.8,2.68,10.96,8.42,17.26,20.74,17.29,33.83.37,1.07,3.83,11.45,4.87,17.78,1.12.47,4.95,2.3,6.37,5.65h0c.3.71.28,1.42-.05,2.12-1.27,2.64-6.83,4.4-12.42,5.97l-.71.2c-4.91,1.39-29.32,4.33-44.97,4.33v-.02h0ZM30.43,7.64c-.53.04-1.95.41-4.68,3-.65.61-1.25,1.57-1.79,2.88l-.05.13-.12.09C13.35,21.95,7.37,33.86,7.37,46.42v.12c-.02.06-1.37,6.28-2.26,15.25l-.02.24-.19.15c-1.06.84-3.81,3.39-3.77,5.08.04,1.8,2.69,6.76,10.34,9.74,7.56,2.95,27.73,4.27,44.37,4.27,15.25,0,39.94-2.95,44.66-4.28l.71-.19c3.69-1.04,10.56-2.97,11.71-5.38.19-.4.2-.79.04-1.2h0c-1.44-3.42-5.99-5.15-6.03-5.16l-.31-.12-.05-.33c-1-6.49-4.86-17.88-4.91-17.99l-.02-.18c0-12.82-6.18-24.89-16.96-33.12l-.12-.09-.06-.12c-.51-1.09-1.04-1.92-1.62-2.45-2.7-2.55-4.13-2.96-4.68-2.98v1.5l-.81-.41c-5.03-2.56-10.47-4.24-16.17-4.98l-.33-.05-.12-.32c-.19-.5-.44-.9-.77-1.23-.99-.97-2.96-1.06-7.22-1.06-3.04,0-5.35.33-6.68,1.93-.2.25-.37.51-.51.81l-.12.26-.28.05c-4.88.9-9.57,2.5-13.93,4.77l-.81.42v-1.73h0Z"/>
</svg>