<?xml version="1.0" encoding="UTF-8"?>
<svg id="Layer_1" data-name="Layer 1" xmlns="http://www.w3.org/2000/svg" viewBox="0 0 208.23 105.2">
  <defs>
    <style>
      .cls-1 {
        fill: #d6ff00;
      }

      .cls-2 {
        fill: #caceaf;
      }
    </style>
  </defs>
  <g>
    <g>
      <path class="cls-1" d="M18.68,4.24C24.3,2.44,58.03-.11,61.4,1.15s24.82,41.6,30.41,43.15,4.54,50.1,0,53.49-14.1,6.24-26.47,6.49c-12.36.25-59.36,0-59.36-2.33s.32-50.59,1.71-52.3c1.39-1.71,13.03-2.36,12.79-18.39-.24-16.04-1.8-27.02-1.8-27.02Z"/>
      <path class="cls-2" d="M95.25,57.17c-.11-1.44-.25-2.82-.41-4.15-15.34.7-30.52,1.38-45.72,2.06L44.7,1.28c-1.36.08-2.74.17-4.13.28-1.27.09-2.52.19-3.77.3l4.38,53.58c-11.4.51-22.81,1.03-34.32,1.54-.09,1.84-.17,3.67-.24,5.54-.03.81-.05,1.6-.08,2.39,29.63-1.33,59.25-2.66,88.88-3.99-.05-1.2-.11-2.45-.21-3.75h.02Z"/>
      <path class="cls-2" d="M6.09,89.09v-1.9c0-2.03.05-4.04.09-6.03,29.74-1.42,59.49-2.87,89.21-4.29-.05,1.3-.13,2.61-.22,3.96-.09,1.33-.19,2.64-.32,3.91-29.6,1.44-59.2,2.9-88.8,4.34h.03v.02Z"/>
    </g>
    <g>
      <path class="cls-1" d="M195.56,4.24c-5.62-1.8-39.35-4.35-42.74-3.09s-24.82,41.6-30.41,43.15c-5.59,1.55-4.54,50.1,0,53.49,4.54,3.39,14.1,6.24,26.47,6.49s59.36,0,59.36-2.33-.32-50.59-1.71-52.3c-1.39-1.71-13.03-2.36-12.79-18.39s1.8-27.02,1.8-27.02h.02Z"/>
      <path class="cls-2" d="M118.99,57.17c.11-1.44.25-2.82.41-4.15,15.34.7,30.52,1.38,45.72,2.06,1.47-17.93,2.94-35.87,4.42-53.8,1.36.08,2.74.17,4.13.28,1.27.09,2.52.19,3.77.3l-4.38,53.58c11.4.51,22.81,1.03,34.32,1.54.09,1.84.17,3.67.24,5.54.03.81.05,1.6.08,2.39-29.63-1.33-59.25-2.66-88.88-3.99.05-1.2.11-2.45.21-3.75h-.02Z"/>
      <path class="cls-2" d="M208.14,89.09v-1.9c0-2.03-.05-4.04-.09-6.03-29.74-1.42-59.49-2.87-89.21-4.29.05,1.3.13,2.61.22,3.96.09,1.33.19,2.64.32,3.91,29.6,1.44,59.2,2.9,88.8,4.34h-.03v.02Z"/>
    </g>
  </g>
  <g>
    <path d="M49.74,105.15c-16.79,0-47.28-.35-49.42-2.44-.21-.21-.32-.46-.32-.73,0-1.73.13-21.72.57-36.33l.13-3.97c.05-1.42.11-2.75.17-4l.06-1.11c.36-6.66.7-7.08.95-7.39.41-.51,1.22-.84,2.31-1.31,3.66-1.54,10.48-4.42,10.29-16.57-.22-15.8-1.77-26.81-1.79-26.93l-.09-.66.63-.21c2.28-.73,9.12-1.63,18.31-2.41l.24.78-.06-.79c1.16-.09,2.31-.19,3.45-.27h.17c1.41-.11,2.74-.21,4.05-.28,5.59-.35,15.12-.82,17.1-.08,1.54.59,4.67,5.46,11.98,17.32,6.52,10.56,15.45,25.01,18.35,25.82,1.08.3,2.61,1.6,3.59,9.39.16,1.28.28,2.47.38,3.74l.05.46c0,.19.03.38.03.57v.4c.97,14.06-.25,37.72-3.78,40.36-5.18,3.86-15.48,6.41-26.93,6.65-1.3.03-5.21.06-10.43.06v-.05h0ZM1.58,101.65c3.8,1.68,43.09,2.18,58.55,1.85,13.3-.27,22.15-3.45,26.01-6.33,2.52-1.88,4.24-23.02,3.17-38.99v-.43c-.03-.17-.03-.33-.05-.52l-.05-.44c-.09-1.23-.22-2.41-.35-3.51-.95-7.58-2.31-8.17-2.45-8.22-3.25-.9-10.04-11.56-19.26-26.51-4.65-7.55-9.94-16.1-11.21-16.67-.89-.33-5.71-.49-16.37.17-1.38.08-2.71.17-4.05.28l-.27-.78.06.79c-1.17.09-2.33.17-3.47.27h-.16c-8.2.71-14.67,1.52-17.33,2.18.33,2.66,1.52,12.79,1.71,26.44.19,13.22-7.55,16.48-11.27,18.05-.73.3-1.54.65-1.71.85-.03.09-.32,1.11-.62,6.87l-.03.7c-.06,1.23-.11,2.56-.17,3.99l-.11,3.25c-.44,14.02-.59,33.53-.6,36.69h.03v.02Z"/>
    <path d="M153.62,105.15c-5.24,0-9.13-.03-10.43-.06-11.43-.24-21.75-2.79-26.93-6.65-3.53-2.63-4.75-26.29-3.8-40.36v-.4c.03-.19.03-.36.05-.57l.05-.46c.09-1.27.22-2.45.36-3.58,1-7.95,2.53-9.24,3.61-9.55,2.9-.81,11.82-15.26,18.35-25.82,7.31-11.84,10.45-16.73,12-17.32,1.98-.74,11.51-.27,17.03.08,1.38.08,2.72.17,4.07.28h.22c1.16.11,2.31.19,3.47.3l.09.81.06-.79c9.2.78,16.05,1.68,18.31,2.41l.63.21-.09.66c0,.11-1.57,11.13-1.79,26.93-.17,12.16,6.63,15.02,10.29,16.57,1.11.46,1.9.81,2.31,1.31.25.3.59.73.95,7.39h0l.05,1.11c.06,1.23.11,2.58.17,4l.14,4.07h0c.44,14.59.57,34.52.57,36.25,0,.27-.11.52-.32.73-2.14,2.09-32.62,2.44-49.42,2.44h-.02ZM151.87,1.61c-2.61,0-4.02.13-4.46.28-1.27.57-6.54,9.12-11.21,16.67-9.23,14.96-16.02,25.61-19.26,26.51-.16.05-1.52.63-2.44,8.06-.16,1.25-.27,2.42-.36,3.66l-.05.44c0,.17-.02.35-.03.52v.43c-1.09,15.97.63,37.1,3.15,38.99,3.86,2.88,12.71,6.05,26.01,6.33,15.48.33,54.77-.17,58.55-1.85,0-3.17-.16-22.67-.6-36.69l-.03-.82h0l-.09-2.42c-.05-1.41-.11-2.75-.17-3.97l-.03-.7c-.3-5.75-.59-6.76-.66-6.93-.11-.13-.93-.47-1.66-.78-3.72-1.57-11.46-4.83-11.27-18.05.19-13.66,1.38-23.78,1.71-26.43-2.66-.66-9.13-1.47-17.33-2.17h-.16c-1.14-.11-2.3-.21-3.43-.28h-.19c-1.36-.11-2.69-.21-4-.28-5.41-.35-9.32-.47-11.98-.47l.03-.03Z"/>
  </g>
</svg>