<?xml version="1.0" encoding="UTF-8"?>
<svg id="Layer_2" data-name="Layer 2" xmlns="http://www.w3.org/2000/svg" viewBox="0 0 128.91 43.55">
  <defs>
    <style>
      .cls-1 {
        fill: #593a11;
      }

      .cls-2 {
        fill: #633502;
      }

      .cls-3 {
        fill: #301b01;
      }
    </style>
  </defs>
  <g id="Layer_1-2" data-name="Layer 1">
    <g>
      <g>
        <g>
          <path class="cls-1" d="M38.79,26.67c-1.31,1.9-6.73,2.46-9.66.55-7.35-4.79-5.92-9.87-22.36-5.89-5.75,1.39-6.43,10.44-1.77,17.38.1-.03.2-.04.31-.05,7.01-.13,37.77-.66,44.14-.48.1,0,.2.03.29.06V13.71h-10.7c.3,5.48.48,11.9-.25,12.96Z"/>
          <path class="cls-3" d="M5.32,38.67c-.11,0-.21.02-.31.05-.57.15-.95.66-.82,1.21l.65,2.75c.06.25.22.47.44.61.34.23.7.22.79.21,4.03-.66,8.4-1.22,13.07-1.61,8.64-.71,16.5-.66,23.34-.24.64-.03,1.19.39,1.25.95.05.54.57.95,1.18.95h4.51c.65,0,1.18-.47,1.18-1.04v-3.28c0-.47-.36-.85-.85-.98-.09-.02-.19-.06-.29-.06-6.37-.18-37.14.35-44.14.48Z"/>
          <path class="cls-2" d="M51.27,6.63l-.64,6.82h0c.67-.03,1.45-.09,2.31-.24.92-.16,1.72-.37,2.39-.59l-3.44-6.09c-.15-.26-.59-.19-.62.1Z"/>
          <path class="cls-3" d="M55.61,1.94h-22.06c-.18,0-.33.13-.33.29v11.2c0,.16.15.29.33.29h16.75c.17,0,.31-.11.32-.26h0s.64-6.82.64-6.82c.03-.29.47-.36.62-.1l3.44,6.09c.15.27.62.18.62-.13V2.22c0-.16-.15-.29-.33-.29Z"/>
        </g>
        <path d="M47.86,42.76h-4.51c-.81,0-1.48-.55-1.55-1.29-.04-.36-.42-.64-.86-.61-7.79-.47-15.63-.39-23.33.24-4.35.36-8.74.9-13.04,1.6-.21.01-.65,0-1.06-.27-.3-.21-.52-.5-.59-.84l-.65-2.75c-.13-.57.13-1.14.63-1.46C.12,33.04-.77,27.67.7,23.9c.85-2.18,2.38-3.6,4.43-4.09,12.55-3.04,14.9-.83,18.45,2.5,1.13,1.06,2.41,2.27,4.21,3.44,2.77,1.8,7.97,1.26,9.15-.45.24-.35.74-2.27.2-12.37h-5.14c-.39,0-.7-.3-.7-.66V1.06c0-.36.31-.66.7-.66h22.06c.39,0,.7.3.7.66v10.26c0,.3-.21.56-.51.64-.21.05-.41.02-.58-.08-.72.23-1.47.41-2.23.54-.7.12-1.42.2-2.13.24-.13.17-.33.27-.57.27h-.18v23.9c.52.24.85.71.85,1.25v3.28c0,.78-.7,1.42-1.56,1.42ZM41.03,40.11c.77,0,1.44.55,1.51,1.29.03.34.39.61.81.61h4.51c.45,0,.81-.3.81-.67v-3.28c0-.28-.23-.53-.57-.62l-.28-.07V12.17h.93l.03-.33.28.06c.75-.03,1.51-.11,2.26-.23.79-.14,1.58-.33,2.34-.58l.29-.1.07.12V1.15h-21.96v11.02h5.8l.02.35c.65,11.79-.08,12.84-.32,13.19-1.4,2.03-7,2.72-10.17.66-1.85-1.21-3.16-2.44-4.31-3.52-3.37-3.17-5.59-5.26-17.75-2.32-1.8.44-3.15,1.69-3.91,3.64-1.42,3.66-.47,8.95,2.36,13.17l.29.44-.51.13c-.39.1-.63.43-.55.76l.65,2.75c.04.15.14.29.29.39.22.15.47.15.56.15,4.28-.71,8.69-1.25,13.06-1.61,7.74-.63,15.61-.72,23.39-.24.03,0,.06,0,.09,0ZM54.06,1.15h0v-.38.38Z"/>
      </g>
      <g>
        <g>
          <path class="cls-1" d="M90.12,26.27c1.31,1.9,6.73,2.46,9.66.55,7.35-4.79,5.92-9.87,22.36-5.89,5.75,1.39,6.43,10.44,1.77,17.38-.1-.03-.2-.04-.31-.05-7.01-.13-37.77-.66-44.14-.48-.1,0-.2.03-.29.06V13.32h10.7c-.3,5.48-.48,11.9.25,12.96Z"/>
          <path class="cls-3" d="M123.59,38.28c.11,0,.21.02.31.05.57.15.95.66.82,1.21l-.65,2.75c-.06.25-.22.47-.44.61-.34.23-.7.22-.79.21-4.03-.66-8.4-1.22-13.07-1.61-8.64-.71-16.5-.66-23.34-.24-.64-.03-1.19.39-1.25.95-.05.54-.57.95-1.18.95h-4.51c-.65,0-1.18-.47-1.18-1.04v-3.28c0-.47.36-.85.85-.98.09-.02.19-.06.29-.06,6.37-.18,37.14.35,44.14.48Z"/>
          <path class="cls-2" d="M77.64,6.24l.64,6.82h0c-.67-.03-1.45-.09-2.31-.24-.92-.16-1.72-.37-2.39-.59l3.44-6.09c.15-.26.59-.19.62.1Z"/>
          <path class="cls-3" d="M73.3,1.54h22.06c.18,0,.33.13.33.29v11.2c0,.16-.15.29-.33.29h-5.49s-10.7,0-10.7,0h-.55c-.17,0-.31-.11-.32-.26h0s-.64-6.82-.64-6.82c-.03-.29-.47-.36-.62-.1l-3.44,6.09c-.15.27-.62.18-.62-.13V1.83c0-.16.15-.29.33-.29Z"/>
        </g>
        <path d="M79.49,40.95v-3.28c0-.54.33-1.01.85-1.25V12.52s-.18,0-.18,0c-.23,0-.44-.11-.57-.27-.71-.04-1.42-.11-2.13-.24-.76-.13-1.51-.31-2.23-.54-.16.1-.37.14-.58.08-.31-.08-.51-.34-.51-.64V.66c0-.36.31-.66.7-.66h22.06c.39,0,.7.3.7.66v11.2c0,.37-.31.66-.7.66h-5.14c-.54,10.1-.04,12.02.2,12.37,1.18,1.71,6.38,2.26,9.15.45,1.8-1.17,3.08-2.37,4.21-3.44,3.55-3.33,5.89-5.54,18.45-2.5,2.05.5,3.58,1.91,4.43,4.09,1.47,3.77.58,9.14-2.19,13.49.5.32.76.89.63,1.46l-.65,2.75c-.08.33-.29.63-.59.84-.41.28-.85.28-1.06.27-4.3-.71-8.69-1.25-13.04-1.6-7.7-.63-15.53-.71-23.33-.24-.44-.03-.82.25-.86.61-.07.73-.74,1.29-1.55,1.29h-4.51c-.86,0-1.56-.63-1.56-1.42ZM87.97,39.71c7.79-.48,15.66-.39,23.39.24,4.37.36,8.78.9,13.06,1.61.09,0,.34,0,.56-.15.15-.1.25-.24.29-.39l.65-2.75c.08-.33-.16-.66-.55-.76l-.51-.13.29-.44c2.83-4.22,3.78-9.51,2.36-13.17-.76-1.94-2.11-3.2-3.91-3.64-12.16-2.94-14.39-.85-17.75,2.32-1.15,1.08-2.46,2.31-4.31,3.52-3.18,2.07-8.78,1.37-10.17-.66-.24-.35-.96-1.4-.32-13.19l.02-.35h5.8s0-11.02,0-11.02h-21.96s0,9.97,0,9.97l.07-.12.29.1c.76.25,1.54.44,2.34.58.75.13,1.5.21,2.26.23l.28-.06.03.33h.93v25.2s-.28.07-.28.07c-.34.09-.57.34-.57.62v3.28c0,.37.36.67.81.67h4.51c.42,0,.77-.27.81-.61.07-.74.75-1.29,1.51-1.29.03,0,.06,0,.09,0ZM74.85.38v.38h0v-.38Z"/>
      </g>
    </g>
  </g>
</svg>