<?xml version="1.0" encoding="UTF-8"?>
<svg id="Layer_2" data-name="Layer 2" xmlns="http://www.w3.org/2000/svg" viewBox="0 0 130.06 95.6">
  <defs>
    <style>
      .cls-1 {
        fill: #f48e31;
      }

      .cls-2 {
        fill: #ff971d;
      }

      .cls-3 {
        fill: #ffd33f;
      }

      .cls-4 {
        fill: #ce7c38;
      }
    </style>
  </defs>
  <g id="Layer_1-2" data-name="Layer 1">
    <g>
      <g>
        <path class="cls-4" d="M129.87,82.19c-1.76-4.18-7.19-6.19-7.19-6.19,1.18,7.7-24.04,13.71-59.56,14.65-35.52.94-57.57-7.49-56.55-17.8,0,0-4.56,3.59-4.51,6.27.04,2.14,3.1,8.08,12.11,11.6,9.01,3.52,32.69,4.88,50.46,4.88s45.46-3.38,50.74-4.88,16.26-4.35,14.51-8.53Z"/>
        <path class="cls-1" d="M63.12,90.65c35.52-.94,60.74-6.94,59.56-14.65-1.15-7.49-5.57-20.48-5.57-20.48,0,10.12-14.83,16.49-33.51,19.11,0,0,0,0,0,0h0s-10.18,1.75-20.09,1.66c-9.91-.09-22.27-1.71-22.27-1.71,0-.05-.02-.1-.03-.15-18-2.74-32.08-9.04-32.08-18.9,0,0-1.53,7.03-2.56,17.33-1.02,10.3,21.02,18.73,56.55,17.8Z"/>
        <path class="cls-2" d="M72.9,24.9c.7,8.77,1.16,5.1,8.17,18.59,5.38,10.34,2.54,31.11,2.53,31.14,18.67-2.62,33.51-8.99,33.51-19.11,0-15.27-7.57-28.93-19.45-37.99,3.03,6.61,3.6,19.04,3.6,19.04h-11.94V12.3c-5.63-2.87-11.88-4.84-18.52-5.71.39,1.08.42,2.26.46,3.23.21,5.05,1.24,10.04,1.64,15.07Z"/>
        <path class="cls-2" d="M41.21,74.42c-2.07-10.95-1.44-19.49.5-28.95,1.85-9.02,8.25-12.51,8.58-20.47.21-5.01,1.18-9.96,1.51-14.96.05-.72.12-1.86.66-2.99-5.69,1.04-11.06,2.92-15.95,5.46v24.06h-11.94s.55-11.84,3.39-18.55c-11.52,9.07-18.83,22.5-18.83,37.5,0,9.86,14.09,16.16,32.08,18.9Z"/>
        <path class="cls-3" d="M50.29,25c-.33,7.95-6.73,11.45-8.58,20.47-1.94,9.46-2.57,18-.5,28.95,0,.05.02.1.03.15,0,0,12.37,1.62,22.27,1.71,9.91.09,20.09-1.66,20.09-1.66h0s0,0,0,0c0-.03,2.85-20.8-2.53-31.14-7.01-13.49-7.47-9.82-8.17-18.59-.4-5.04-1.43-10.02-1.64-15.07-.04-.97-.06-2.15-.46-3.23-.21-.58-.53-1.14-1.03-1.62-1.33-1.29-3.81-1.38-8.61-1.38-3.69,0-6.39.42-8.04,2.42-.28.34-.49.69-.66,1.05-.54,1.13-.61,2.27-.66,2.99-.32,5-1.3,9.95-1.51,14.96Z"/>
        <path class="cls-3" d="M36.51,36.57V11.1s-1.59-1.06-6.37,3.45c-.85.8-1.57,2.02-2.18,3.47-2.84,6.71-3.39,18.55-3.39,18.55h11.94Z"/>
        <path class="cls-3" d="M101.26,36.57s-.57-12.43-3.6-19.04c-.57-1.24-1.22-2.27-1.97-2.98-4.78-4.51-6.37-3.45-6.37-3.45v25.47h11.94Z"/>
      </g>
      <path d="M63.2,93.28c-18.95,0-41.98-1.52-50.69-4.92C3.17,84.71.05,78.58,0,76.18c-.05-2.65,3.54-5.78,4.54-6.61.96-9.55,2.37-16.33,2.53-17.07.02-14.54,6.92-28.31,18.94-37.83.68-1.56,1.44-2.75,2.27-3.53,4.89-4.62,6.81-3.74,7.15-3.52l.28.19v.72c4.69-2.33,9.7-4.01,14.9-4.99.17-.32.37-.61.6-.88,1.81-2.2,4.72-2.65,8.53-2.65,4.75,0,7.51.07,9.04,1.56.43.42.78.92,1.03,1.5,6.12.84,11.98,2.61,17.44,5.26v-.51l.28-.19c.33-.22,2.26-1.11,7.15,3.52.74.7,1.43,1.72,2.04,3.03,12.41,9.53,19.54,23.47,19.58,38.3.41,1.21,4.34,12.97,5.51,20.13,1.27.54,5.61,2.6,7.21,6.4h0c.34.8.32,1.61-.06,2.4-1.44,2.99-7.73,4.98-14.06,6.76l-.8.23c-5.55,1.57-33.2,4.9-50.91,4.9ZM34.45,8.66c-.6.04-2.2.47-5.3,3.39-.73.69-1.41,1.78-2.03,3.26l-.06.15-.13.1c-11.81,9.3-18.59,22.78-18.59,37v.13c-.03.07-1.55,7.11-2.56,17.26l-.03.27-.21.17c-1.2.95-4.31,3.83-4.27,5.76.04,2.04,3.05,7.65,11.71,11.03,8.56,3.34,31.39,4.83,50.23,4.83,17.27,0,45.21-3.34,50.56-4.85l.8-.22c4.18-1.18,11.95-3.36,13.26-6.09.22-.46.23-.89.04-1.36h0c-1.63-3.87-6.78-5.83-6.83-5.84l-.35-.13-.06-.37c-1.13-7.35-5.5-20.24-5.55-20.37l-.03-.2c0-14.51-7-28.18-19.2-37.49l-.13-.1-.07-.14c-.57-1.23-1.18-2.17-1.83-2.78-3.06-2.89-4.67-3.35-5.3-3.38v1.7l-.92-.47c-5.69-2.9-11.86-4.8-18.31-5.64l-.38-.05-.13-.36c-.21-.56-.49-1.02-.87-1.39-1.12-1.09-3.35-1.2-8.17-1.2-3.45,0-6.06.37-7.56,2.19-.23.28-.42.58-.58.92l-.14.29-.32.06c-5.53,1.01-10.83,2.83-15.77,5.4l-.92.48v-1.94Z"/>
    </g>
  </g>
</svg>