<?xml version="1.0" encoding="UTF-8"?>
<svg id="Layer_2" data-name="Layer 2" xmlns="http://www.w3.org/2000/svg" viewBox="0 0 167.36 116.66">
  <defs>
    <style>
      .cls-1 {
        fill: #8e460a;
      }

      .cls-2 {
        fill: #e06500;
      }

      .cls-3 {
        fill: none;
        stroke: #000;
        stroke-miterlimit: 10;
      }
    </style>
  </defs>
  <g id="Layer_1-2" data-name="Layer 1">
    <g>
      <g>
        <path class="cls-2" d="M147.52,53.61c-9.4-10.68-21.35-16.58-32.24-19.82-2.1,13.54-15.16,23.96-30.95,23.96s-28.35-10.03-30.82-23.19c-10.21,3.38-21.09,9.16-29.79,19.04C2.14,78.15.16,110.75,8.37,116.5c3.31,2.32,16.42-20.53,32.02-26,15.58-5.47,31.43-19.11,45.23-19.43,13.8.32,29.66,13.96,45.23,19.43,15.6,5.47,28.71,28.32,32.02,26,8.21-5.75,6.24-38.35-15.36-62.89Z"/>
        <path class="cls-1" d="M84.34,57.75c15.79,0,28.85-10.43,30.95-23.96.19-1.25.3-2.53.3-3.84,0-15.35-13.99-27.8-31.25-27.8s-31.25,12.45-31.25,27.8c0,1.57.15,3.11.43,4.61,2.47,13.16,15.32,23.19,30.82,23.19Z"/>
      </g>
      <path class="cls-3" d="M144.12,51.95c-9.4-10.68-21.35-16.58-32.24-19.81.19-1.25.3-2.53.3-3.84,0-15.35-13.99-27.8-31.25-27.8s-31.25,12.45-31.25,27.8c0,1.57.15,3.11.43,4.61-10.21,3.38-21.09,9.16-29.79,19.04C-1.26,76.49-3.24,109.09,4.97,114.84c3.31,2.32,16.42-20.53,32.02-26,15.58-5.47,31.43-19.11,45.23-19.43,13.8.32,29.66,13.96,45.23,19.43,15.6,5.47,28.71,28.32,32.02,26,8.21-5.75,6.24-38.35-15.36-62.89Z"/>
    </g>
  </g>
</svg>