<?xml version="1.0" encoding="UTF-8"?>
<svg id="Layer_2" data-name="Layer 2" xmlns="http://www.w3.org/2000/svg" viewBox="0 0 162.51 72.09">
  <defs>
    <style>
      .cls-1 {
        fill: #8e460a;
      }

      .cls-2 {
        fill: #e06500;
      }
    </style>
  </defs>
  <g id="Layer_1-2" data-name="Layer 1">
    <g>
      <g>
        <path class="cls-2" d="M161.92,55.3c-.58-6.17-1.69-14.1-3.73-23.9C152.5,4.09,115.61,3.53,84.83,3.52l1.34,51.36,75.75.42Z"/>
        <path class="cls-2" d="M3.92,65.68c0-.07,0-.15,0-.22,0,.07,0,.15,0,.22Z"/>
        <path class="cls-2" d="M3.94,64.53s0-.05,0-.08c0,.03,0,.05,0,.08Z"/>
        <path class="cls-2" d="M3.92,67.52c0-.06,0-.13,0-.19,0,.06,0,.13,0,.19Z"/>
        <path class="cls-2" d="M3.91,66.54s0-.04,0-.05c0,.02,0,.04,0,.05Z"/>
        <path class="cls-2" d="M3.93,68.24s0-.03,0-.05c0,.01,0,.03,0,.05Z"/>
        <path class="cls-2" d="M3.96,63.52c0-.09,0-.17,0-.26,0,.09,0,.17,0,.26Z"/>
        <path class="cls-2" d="M4.38,56.54c0-.05,0-.1.01-.16,0,.05,0,.11-.01.16Z"/>
        <path class="cls-2" d="M4.01,62.2s0-.07,0-.11c0,.04,0,.07,0,.11Z"/>
        <path class="cls-2" d="M4.25,58.23c0-.11.02-.22.03-.33,0,.11-.02.22-.03.33Z"/>
        <path class="cls-2" d="M4.15,72.02s0-.01,0-.02c0,.01,0,.01,0,.02Z"/>
        <path class="cls-2" d="M4.51,55.08c.01-.12.02-.24.03-.36-.01.12-.02.24-.03.36Z"/>
        <path class="cls-2" d="M4.07,61.04c0-.1.01-.2.02-.29,0,.1-.01.2-.02.29Z"/>
        <path class="cls-2" d="M4.16,59.53s0-.08,0-.13c0,.04,0,.08,0,.13Z"/>
        <path class="cls-2" d="M162.26,72.04h-77.6,77.6s.09-.69.16-2.07c-.07,1.36-.16,2.07-.16,2.07Z"/>
        <path class="cls-2" d="M4.09,71.44s0,0,0-.01c0,0,0,0,0,.01Z"/>
        <path class="cls-2" d="M4.07,71.15s0-.06,0-.09c0,.03,0,.06,0,.09Z"/>
        <path class="cls-2" d="M80.94,3.52c-30.65.02-67.07.76-72.72,27.87-1.95,9.34-3.04,16.98-3.64,23.02l77.68.44-1.32-51.33Z"/>
        <path class="cls-2" d="M4.14,71.9s0,0,0,0c0,0,0,0,0,0Z"/>
        <path class="cls-2" d="M4.12,71.73s0-.03,0-.05c0,.02,0,.03,0,.05Z"/>
        <path class="cls-2" d="M4.04,70.68s0,0,0-.01c0,0,0,0,0,.01Z"/>
        <polygon class="cls-2" points="4.16 72.04 4.16 72.04 4.16 72.04 82.7 72.04 82.7 72.04 4.16 72.04"/>
        <path class="cls-2" d="M3.95,69.04c0-.05,0-.1,0-.16,0,.05,0,.11,0,.16Z"/>
        <path class="cls-2" d="M3.98,69.62s0-.02,0-.03c0,0,0,.02,0,.03Z"/>
        <path class="cls-2" d="M4.01,70.25s0-.08,0-.12c0,.04,0,.08,0,.12Z"/>
        <path class="cls-1" d="M87.2,72.04h75.05s.09-.71.16-2.07c.14-2.61.22-7.61-.5-14.68h0l-75.75-.42-1.34-51.36h0s-3.88,0-3.88,0h0s1.32,51.33,1.32,51.33l-77.68-.44h0c-.01.1-.02.2-.03.31-.01.12-.02.24-.03.36-.04.44-.08.88-.12,1.3,0,.05,0,.11-.01.16-.04.46-.08.91-.11,1.36,0,.11-.02.22-.03.33-.03.4-.06.79-.08,1.17,0,.04,0,.08,0,.13-.03.42-.05.82-.07,1.21,0,.1-.01.2-.02.29-.02.36-.04.71-.05,1.05,0,.04,0,.07,0,.11-.02.37-.03.72-.04,1.07,0,.09,0,.17,0,.26,0,.32-.02.63-.03.93,0,.03,0,.05,0,.08,0,.32-.01.63-.02.93,0,.07,0,.15,0,.22,0,.28,0,.55,0,.81,0,.02,0,.04,0,.05,0,.27,0,.54,0,.79,0,.06,0,.13,0,.19,0,.23,0,.46.01.67,0,.01,0,.03,0,.05,0,.23.01.44.02.65,0,.05,0,.11,0,.16,0,.19.01.37.02.54,0,0,0,.02,0,.03,0,.18.02.35.03.51,0,.04,0,.08,0,.12,0,.15.02.29.03.42,0,0,0,0,0,.01,0,.14.02.26.03.37,0,.03,0,.06,0,.09,0,.1.02.2.02.29,0,0,0,0,0,.01,0,.09.02.17.02.24,0,.02,0,.03,0,.05,0,.06.01.11.02.16,0,0,0,0,0,0,0,.05,0,.08.01.1,0,0,0,.02,0,.02,0,.01,0,.02,0,.02h0s78.54,0,78.54,0h0v.05s1.96-.05,1.96-.05h2.54Z"/>
      </g>
      <path d="M78.7,69.59v-.06H.14l-.14-10.48.07-1.35c.02-.39.05-.8.07-1.22v-.13c.03-.38.06-.78.09-1.18l.03-.34c.03-.44.07-.89.11-1.36l.2-2.13c.7-7.05,1.93-14.81,3.65-23.07C10.1.04,49.01.02,77.43,0h3.88c28.68.01,67.97.03,73.85,28.27,1.8,8.62,3.05,16.68,3.74,23.96h0c.74,7.24.63,12.35.5,14.76-.07,1.39-.16,2.08-.17,2.11l-.06.43-80.48.06ZM1.09,68.53h78.59s0,.04,0,.04l1.45-.04h77.16c.03-.34.08-.87.11-1.59.13-2.38.23-7.43-.5-14.6h0c-.68-7.25-1.93-15.27-3.72-23.85C148.47,1.03,109.65,1.01,81.31,1h-3.88c-28.07.02-66.52.04-72.23,27.48-1.71,8.23-2.94,15.96-3.64,22.97l-.2,2.12c-.04.46-.08.91-.11,1.35l-.03.34c-.03.4-.06.79-.08,1.17l-.51.09.5.03c-.03.42-.05.82-.07,1.21l-.17,5.72.15,4.53-.48.21.5-.04.03.35Z"/>
    </g>
  </g>
</svg>