<?xml version="1.0" encoding="UTF-8"?>
<svg id="Layer_2" data-name="Layer 2" xmlns="http://www.w3.org/2000/svg" viewBox="0 0 176.62 109.47">
  <defs>
    <style>
      .cls-1 {
        fill: #d6d6d6;
      }

      .cls-2 {
        fill: #e06500;
      }
    </style>
  </defs>
  <g id="Layer_1-2" data-name="Layer 1">
    <g>
      <g>
        <path class="cls-1" d="M89.21,47.33c-3.66,3.94-12.98,13.91-23.6,24.71h50.49c-10.61-10.8-19.94-20.77-23.6-24.71-.89-.96-2.4-.96-3.29,0Z"/>
        <path class="cls-2" d="M90.86.53C24.47.92-20.96,78.59,21.71,108.71c3.83,2.7,25.75-18.19,43.9-36.66,10.61-10.8,19.94-20.77,23.6-24.71.89-.96,2.4-.96,3.29,0,3.66,3.94,12.98,13.91,23.6,24.71,18.15,18.47,40.08,39.36,43.9,36.66C202.67,78.59,157.24.92,90.86.53Z"/>
      </g>
      <path d="M169.87,59.8C160.82,31,128.46.25,86.29,0h0C44.12.25,11.75,31,2.7,59.8c-6.42,20.44-1.26,38.41,14.15,49.29.23.16.54.38,1.16.38,2.69,0,11.13-4.3,43.24-36.95h50.07c39.42,40.1,43.17,37.44,44.4,36.57,15.41-10.88,20.57-28.85,14.15-49.29ZM70.75,71.52c7.14-7.92,18.54-20.21,20.15-21.07,1.69.74,12.41,13.09,19.49,21.07h-39.64ZM155.15,108.27c-1.29.92-8.1-.83-43.26-36.6l-.15-.15c-7.24-8.15-19.2-22.09-20.91-22.09-.01,0-.03,0-.04,0-1.58.22-16.85,17.04-21.4,22.09h-8.56l-.15.15c-35.16,35.78-41.96,37.52-43.26,36.6C2.39,97.66-2.63,80.1,3.65,60.1,12.6,31.64,44.59,1.25,86.29,1c41.69.25,73.69,30.64,82.63,59.1,6.28,20,1.26,37.56-13.77,48.17Z"/>
    </g>
  </g>
</svg>