<?xml version="1.0" encoding="UTF-8"?>
<svg id="Layer_2" data-name="Layer 2" xmlns="http://www.w3.org/2000/svg" viewBox="0 0 155.1 209.57">
  <defs>
    <style>
      .cls-1 {
        fill: #8e460a;
      }

      .cls-2 {
        fill: #e06500;
      }
    </style>
  </defs>
  <g id="Layer_1-2" data-name="Layer 1">
    <g>
      <g>
        <path class="cls-1" d="M99.73,38.12h-37.75c-16.23,0-29.51,13.28-29.51,29.51,0,0,23.69-15.2,48.38-15.2s48.38,15.2,48.38,15.2c0-16.23-13.28-29.51-29.51-29.51Z"/>
        <path class="cls-2" d="M152.5,62.18c-2.19-28.71-35.28-58.15-71.64-57.43C25.64,5.84,8.67,52.06,7.57,65.46s-3.01,64.81,6.02,82.58c6.67,13.14,24.84,19.1,33.87,21.32,2.89.71,4.7,3.59,4.07,6.5l-5.86,27.04c-.74,3.43,1.87,6.66,5.37,6.66h30.55c2.95,0,5.38-2.34,5.49-5.29l.98-25.98c.1-2.73,2.2-4.96,4.92-5.26,20.49-2.22,38.67-9.06,52.14-22.27,14.49-14.22,9.57-59.89,7.38-88.6ZM129.24,105.38c0,16.23-13.28,29.51-29.51,29.51h-37.75c-16.23,0-29.51-13.28-29.51-29.51v-37.75c0-16.23,13.28-29.51,29.51-29.51h37.75c16.23,0,29.51,13.28,29.51,29.51v37.75Z"/>
      </g>
      <path d="M75.47,205.83h-30.55c-1.82,0-3.52-.81-4.67-2.23-1.14-1.42-1.58-3.25-1.19-5.03l5.86-27.04c.58-2.66-1.05-5.26-3.7-5.91-9.92-2.44-27.54-8.48-34.19-21.58C-2.14,125.95-.09,74.08.96,61.18,1.93,49.31,18.11,1.14,74.75.01c17.04-.35,34.92,6.15,48.96,17.79,13.66,11.33,22.11,25.94,23.19,40.1h0c.17,2.17.35,4.43.53,6.77,2.32,29.08,5.5,68.91-8.06,82.22-12.72,12.48-30.36,20.02-52.43,22.41-2.5.27-4.38,2.28-4.48,4.78l-.98,25.98c-.12,3.24-2.75,5.77-5.99,5.77ZM76.01,1c-.41,0-.82,0-1.24.01C18.87,2.12,2.91,49.58,1.96,61.26c-1.05,12.84-3.11,64.45,5.96,82.32,2.78,5.47,10.83,15.48,33.54,21.06,3.18.78,5.13,3.9,4.44,7.1l-5.86,27.04c-.32,1.48.04,3.01.99,4.2.95,1.18,2.37,1.86,3.89,1.86h30.55c2.7,0,4.89-2.11,4.99-4.81l.98-25.98c.11-3,2.37-5.41,5.37-5.74,21.85-2.37,39.29-9.81,51.84-22.13,13.23-12.98,10.07-52.54,7.77-81.43-.19-2.34-.37-4.61-.53-6.78C143.64,28.38,109.87,1,76.01,1Z"/>
    </g>
  </g>
</svg>