<?xml version="1.0" encoding="UTF-8"?>
<svg id="Layer_2" data-name="Layer 2" xmlns="http://www.w3.org/2000/svg" viewBox="0 0 150.86 170.43">
  <defs>
    <style>
      .cls-1 {
        fill: #8e460a;
      }

      .cls-2 {
        fill: #e06500;
      }
    </style>
  </defs>
  <g id="Layer_1-2" data-name="Layer 1">
    <g>
      <g>
        <path class="cls-2" d="M40.66,164.14c-.14-.07-.27-.13-.41-.2.14.07.27.13.41.2Z"/>
        <path class="cls-2" d="M86.4,4.32h-18.04C32.91,4.32,3.9,33.32,3.9,68.77v37.2c0,24.42,13.76,45.77,33.9,56.7,47.44-31.65,65.62-43.18,67.34-44.38.02-.02.05-.03.08-.05-4.17,2.1-8.87,3.29-13.84,3.29h-22.77c-17.04,0-30.98-13.94-30.98-30.98v-29.29c0-17.04,13.94-30.98,30.98-30.98h22.77c17.04,0,30.98,13.94,30.98,30.98v29.29c0,9.66-4.49,18.33-11.48,24.02,0,0,0,.01-.02.02-8.47,8.83-19.81,17.95-69.36,49.91,8.19,3.79,17.28,5.92,26.86,5.92h18.04c35.45,0,64.46-29.01,64.46-64.46v-37.2c0-35.45-29.01-64.46-64.46-64.46Z"/>
        <path class="cls-2" d="M107.74,116.84c.1-.06.21-.13.32-.21-.15.1-.3.2-.46.29.05-.03.09-.05.14-.08Z"/>
        <path class="cls-1" d="M110.86,114.61s.01-.01.02-.02c.66-.7-1.55,1.16-2.82,2.04-.11.08-.22.15-.32.21-.05.03-.09.05-.14.08-.83.5-1.68.86-2.38,1.33-.02.02-.05.03-.08.05-1.72,1.2-19.9,12.73-67.34,44.38,0,0,0,0,0,0,.56.3,1.14.61,1.74.91.24.12.47.23.71.35.14.07.28.13.41.2.27.13.55.27.82.4,0,0,.02-.01.02-.02,49.55-31.96,60.89-41.08,69.36-49.91Z"/>
      </g>
      <path d="M83,167.12h-18.04c-9.32,0-18.34-1.97-26.84-5.86h0s-.26-.09-.26-.09c-.17-.08-.34-.16-.51-.25l-.99-.48c-.15-.07-.3-.15-.46-.23-.6-.3-1.18-.61-1.75-.91l-.59-.32h0C12.85,147.46,0,125.75,0,102.16v-37.2C0,29.14,29.14,0,64.96,0h18.04c35.82,0,64.96,29.14,64.96,64.96v37.2c0,35.82-29.14,64.96-64.96,64.96ZM38.08,160.16l.24.08c8.43,3.9,17.39,5.87,26.65,5.87h18.04c35.27,0,63.96-28.69,63.96-63.96v-37.2c0-35.27-28.69-63.96-63.96-63.96h-18.04C29.69,1,1,29.69,1,64.96v37.2c0,23.44,12.89,45,33.64,56.26l.47.25c.41.22.83.43,1.25.65.15.08.3.15.44.21l1,.49.28.13Z"/>
      <path d="M89.5,122.55h-24.24c-16.9,0-30.66-13.75-30.66-30.66v-30.93c0-16.9,13.75-30.66,30.66-30.66h24.24c16.9,0,30.66,13.75,30.66,30.66v30.93c0,16.9-13.75,30.66-30.66,30.66ZM65.26,31.3c-16.35,0-29.66,13.3-29.66,29.66v30.93c0,16.35,13.3,29.66,29.66,29.66h24.24c16.35,0,29.66-13.3,29.66-29.66v-30.93c0-16.35-13.3-29.66-29.66-29.66h-24.24Z"/>
    </g>
  </g>
</svg>