<?xml version="1.0" encoding="UTF-8"?>
<svg id="Layer_2" data-name="Layer 2" xmlns="http://www.w3.org/2000/svg" viewBox="0 0 94.61 25.31">
  <defs>
    <style>
      .cls-1 {
        fill: none;
        stroke: #000;
        stroke-miterlimit: 10;
        stroke-width: 1.5px;
      }

      .cls-2 {
        fill: #602d0b;
      }
    </style>
  </defs>
  <g id="Layer_1-2" data-name="Layer 1">
    <g>
      <path class="cls-2" d="M92.78,3.18c-2-1.33-3.66-2.33-6.99-1.66s-4.66,5.99-2,4.66c2.66-1.33,6.66-2.66,6.66.67s-4.66,9.32-10.65,7.32c-5.99-2-13.56-9.89-18.64-11.98-4.45-1.83-9.3-2.01-11.98.1-2.68-2.11-7.53-1.93-11.98-.1-5.08,2.09-12.65,9.99-18.64,11.98-5.99,2-10.65-3.99-10.65-7.32s3.99-2,6.66-.67c2.66,1.33,1.33-3.99-2-4.66s-4.99.33-6.99,1.66c-2,1.33-3.33,6.66,1.33,12.65s11.98,9.32,20.64,8.65,15.31-5.33,20.64-8.65c.37-.23.7-.47,1-.71.3.24.63.48,1,.71,5.33,3.33,11.98,7.99,20.64,8.65s15.98-2.66,20.64-8.65,3.33-11.32,1.33-12.65Z"/>
      <path class="cls-1" d="M89.78,3.18c-2-1.33-3.66-2.33-6.99-1.66s-4.66,5.99-2,4.66c2.66-1.33,6.66-2.66,6.66.67s-4.66,9.32-10.65,7.32c-5.99-2-13.56-9.89-18.64-11.98-4.45-1.83-9.3-2.01-11.98.1-2.68-2.11-7.53-1.93-11.98-.1-5.08,2.09-12.65,9.99-18.64,11.98-5.99,2-10.65-3.99-10.65-7.32s3.99-2,6.66-.67c2.66,1.33,1.33-3.99-2-4.66s-4.99.33-6.99,1.66c-2,1.33-3.33,6.66,1.33,12.65s11.98,9.32,20.64,8.65,15.31-5.33,20.64-8.65c.37-.23.7-.47,1-.71.3.24.63.48,1,.71,5.33,3.33,11.98,7.99,20.64,8.65s15.98-2.66,20.64-8.65,3.33-11.32,1.33-12.65Z"/>
    </g>
  </g>
</svg>