<?xml version="1.0" encoding="UTF-8"?>
<svg id="Layer_2" data-name="Layer 2" xmlns="http://www.w3.org/2000/svg" viewBox="0 0 44.35 50.07">
  <defs>
    <style>
      .cls-1 {
        fill: none;
        stroke: #000;
        stroke-miterlimit: 10;
        stroke-width: 1.5px;
      }

      .cls-2 {
        fill: #602d0b;
      }
    </style>
  </defs>
  <g id="Layer_1-2" data-name="Layer 1">
    <g>
      <path class="cls-2" d="M25.16,0c10,0,18,2,19,6s-2,20-4,22-3-4-4-4-.74,11.37-2,12c-2,1-2,5-4,5s-1,7-4,7-3,2-5-4-2-4-4-4-3,0-3-3,0-9-1-9-3.11-.21-4-2c-1-2-7-8-5-15S10.16,2,13.16,1s12-1,12-1Z"/>
      <path class="cls-1" d="M22.16,1c10,0,18,2,19,6s-2,20-4,22-3-4-4-4-.74,11.37-2,12c-2,1-2,5-4,5s-1,7-4,7-3,2-5-4-2-4-4-4-3,0-3-3,0-9-1-9-3.11-.21-4-2c-1-2-7-8-5-15S7.16,3,10.16,2s12-1,12-1Z"/>
    </g>
  </g>
</svg>