<?xml version="1.0" encoding="UTF-8"?>
<svg id="Layer_2" data-name="Layer 2" xmlns="http://www.w3.org/2000/svg" viewBox="0 0 107.61 102.95">
  <defs>
    <style>
      .cls-1 {
        fill: none;
        stroke: #000;
        stroke-miterlimit: 10;
        stroke-width: 1.5px;
      }

      .cls-2 {
        fill: #602d0b;
      }
    </style>
  </defs>
  <g id="Layer_1-2" data-name="Layer 1">
    <g>
      <path class="cls-2" d="M9.89,27.31c-1.91,0-1.91,5.34-1.53,6.87s2.29,1.14,2.29,1.53-5.34,4.58-4.96,12.21,2.29,11.45,2.29,12.59-3.82,4.96-2.67,10.3,9.92,11.06,11.45,13.35,8.01,12.59,12.21,13.73,7.25,0,8.77.38,2.29,3.05,5.72,3.05c4.58,0,6.1-2.29,7.25-2.67,1.14-.38,7.63-2.29,11.83,0,.47.26,1.91,2.67,4.58,2.67,3.43,0,5.34-2.29,7.25-2.29s8.39.76,10.3-.76,6.1-5.34,6.87-6.87,1.91-5.72,3.05-6.87,9.54-5.34,10.68-8.39,2.29-9.92.76-12.21c-1.53-2.29-2.67-3.43-2.29-4.58s5.34-6.49,3.43-13.35c-1.91-6.87-3.82-9.16-4.96-9.92-1.14-.76.38-.76.76-1.53s1.91-4.2.38-5.34c-1.53-1.14-17.55,12.59-37.01,13.35-19.46.76-19.46,3.05-29,.76-9.54-2.29-26.71-16.02-27.47-16.02Z"/>
      <path class="cls-1" d="M5.54,28.18c-1.91,0-1.91,5.34-1.53,6.87s2.29,1.14,2.29,1.53-5.34,4.58-4.96,12.21c.38,7.63,2.29,11.45,2.29,12.59s-3.82,4.96-2.67,10.3,9.92,11.06,11.45,13.35c1.53,2.29,8.01,12.59,12.21,13.73s7.25,0,8.77.38c1.53.38,2.29,3.05,5.72,3.05,4.58,0,6.1-2.29,7.25-2.67,1.14-.38,7.63-2.29,11.83,0,.47.26,1.91,2.67,4.58,2.67,3.43,0,5.34-2.29,7.25-2.29s8.39.76,10.3-.76c1.91-1.53,6.1-5.34,6.87-6.87s1.91-5.72,3.05-6.87,9.54-5.34,10.68-8.39,2.29-9.92.76-12.21-2.67-3.43-2.29-4.58,5.34-6.49,3.43-13.35-3.82-9.16-4.96-9.92.38-.76.76-1.53,1.91-4.2.38-5.34-17.55,12.59-37.01,13.35c-19.46.76-19.46,3.05-29,.76-9.54-2.29-26.71-16.02-27.47-16.02Z"/>
      <path class="cls-2" d="M29.23,5.76c10.42-4.34,25.39,3.88,31.31,3.88S82.29-.79,91.86.95c9.57,1.74,18.03,17.37,10.03,17.37-13.73,0-24.35-2.84-38,3-12.42,5.31-17-8-29-1-8.3,4.84-33,4-27-3,3.74-4.36,20.5-11.2,21.34-11.55Z"/>
      <path class="cls-1" d="M24.23,5.76c10.42-4.34,25.39,3.88,31.31,3.88S77.29-.79,86.86.95c9.57,1.74,18.03,17.37,10.03,17.37-13.73,0-24.35-2.84-38,3-12.42,5.31-17-8-29-1-8.3,4.84-33,4-27-3,3.74-4.36,20.5-11.2,21.34-11.55Z"/>
    </g>
  </g>
</svg>