<svg width="18" height="18" viewBox="0 0 18 18" fill="none" xmlns="http://www.w3.org/2000/svg">
<path d="M0 13.5C0 14.0304 0.210714 14.5391 0.585786 14.9142C0.960859 15.2893 1.46957 15.5 2 15.5H16C16.5304 15.5 17.0391 15.2893 17.4142 14.9142C17.7893 14.5391 18 14.0304 18 13.5V11H0V13.5Z" fill="#138808"/>
<path d="M18 7V4.5C18 3.96957 17.7893 3.46086 17.4142 3.08579C17.0391 2.71071 16.5304 2.5 16 2.5H2C1.46957 2.5 0.960859 2.71071 0.585786 3.08579C0.210714 3.46086 0 3.96957 0 4.5L0 7H18Z" fill="#FF9933"/>
<path d="M0 6.8335H18V11.167H0V6.8335Z" fill="#F7F7F7"/>
<path d="M9 11C10.1046 11 11 10.1046 11 9C11 7.89543 10.1046 7 9 7C7.89543 7 7 7.89543 7 9C7 10.1046 7.89543 11 9 11Z" fill="#000080"/>
<path d="M9 10.6875C9.93198 10.6875 10.6875 9.93198 10.6875 9C10.6875 8.06802 9.93198 7.3125 9 7.3125C8.06802 7.3125 7.3125 8.06802 7.3125 9C7.3125 9.93198 8.06802 10.6875 9 10.6875Z" fill="#F7F7F7"/>
<path d="M9.05 8.37499L9 8.69999L8.95 8.37499L9 7.39999L9.05 8.37499ZM8.586 7.45449L8.79 8.40899L8.9225 8.70999L8.8865 8.38349L8.586 7.45449ZM8.2 7.61449L8.644 8.48349L8.85 8.73999L8.731 8.43349L8.2 7.61449ZM7.8685 7.86849L8.5225 8.59349L8.788 8.78799L8.5935 8.52249L7.8685 7.86849ZM7.6145 8.19999L8.4335 8.73099L8.74 8.84999L8.4835 8.64399L7.6145 8.19999ZM7.4545 8.58599L8.3835 8.88649L8.71 8.92249L8.409 8.78999L7.4545 8.58599ZM7.4 8.99999L8.375 9.04999L8.7 8.99999L8.375 8.94999L7.4 8.99999ZM7.4545 9.41399L8.409 9.20999L8.71 9.07749L8.3835 9.11349L7.4545 9.41399ZM7.6145 9.79999L8.4835 9.35599L8.74 9.14999L8.4335 9.26899L7.6145 9.79999ZM7.8685 10.1315L8.5935 9.47749L8.788 9.21199L8.5225 9.40649L7.8685 10.1315ZM8.2 10.3855L8.731 9.56649L8.85 9.25999L8.644 9.51649L8.2 10.3855ZM8.586 10.5455L8.8865 9.61649L8.9225 9.28999L8.79 9.59099L8.586 10.5455ZM9 10.6L9.05 9.62499L9 9.29999L8.95 9.62499L9 10.6ZM9.414 10.5455L9.21 9.59099L9.0775 9.28999L9.1135 9.61649L9.414 10.5455ZM9.8 10.3855L9.356 9.51649L9.15 9.25999L9.269 9.56649L9.8 10.3855ZM10.1315 10.1315L9.4775 9.40649L9.212 9.21199L9.4065 9.47749L10.1315 10.1315ZM10.3855 9.79999L9.5665 9.26899L9.26 9.14999L9.5165 9.35599L10.3855 9.79999ZM10.5455 9.41399L9.6165 9.11349L9.29 9.07749L9.591 9.20999L10.5455 9.41399ZM10.6 8.99999L9.625 8.94999L9.3 8.99999L9.625 9.04999L10.6 8.99999ZM10.5455 8.58599L9.591 8.78999L9.29 8.92249L9.6165 8.88649L10.5455 8.58599ZM10.3855 8.19999L9.5165 8.64399L9.26 8.84999L9.5665 8.73099L10.3855 8.19999ZM10.1315 7.86849L9.4065 8.52249L9.212 8.78799L9.4775 8.59349L10.1315 7.86849ZM9.8 7.61449L9.269 8.43349L9.15 8.73999L9.356 8.48349L9.8 7.61449ZM9.414 7.45449L9.1135 8.38349L9.0775 8.70999L9.21 8.40899L9.414 7.45449Z" fill="#6666B3"/>
<path d="M8.78 7.42949C8.83523 7.42949 8.88 7.38472 8.88 7.32949C8.88 7.27426 8.83523 7.22949 8.78 7.22949C8.72477 7.22949 8.68 7.27426 8.68 7.32949C8.68 7.38472 8.72477 7.42949 8.78 7.42949Z" fill="#000080"/>
<path d="M8.355 7.54349C8.41023 7.54349 8.455 7.49872 8.455 7.44349C8.455 7.38826 8.41023 7.34349 8.355 7.34349C8.29977 7.34349 8.255 7.38826 8.255 7.44349C8.255 7.49872 8.29977 7.54349 8.355 7.54349Z" fill="#000080"/>
<path d="M7.974 7.76299C8.02923 7.76299 8.074 7.71822 8.074 7.66299C8.074 7.60776 8.02923 7.56299 7.974 7.56299C7.91877 7.56299 7.874 7.60776 7.874 7.66299C7.874 7.71822 7.91877 7.76299 7.974 7.76299Z" fill="#000080"/>
<path d="M7.663 8.07399C7.71823 8.07399 7.763 8.02922 7.763 7.97399C7.763 7.91876 7.71823 7.87399 7.663 7.87399C7.60777 7.87399 7.563 7.91876 7.563 7.97399C7.563 8.02922 7.60777 8.07399 7.663 8.07399Z" fill="#000080"/>
<path d="M7.4435 8.45499C7.49873 8.45499 7.5435 8.41022 7.5435 8.35499C7.5435 8.29976 7.49873 8.25499 7.4435 8.25499C7.38827 8.25499 7.3435 8.29976 7.3435 8.35499C7.3435 8.41022 7.38827 8.45499 7.4435 8.45499Z" fill="#000080"/>
<path d="M7.3295 8.87999C7.38473 8.87999 7.4295 8.83522 7.4295 8.77999C7.4295 8.72476 7.38473 8.67999 7.3295 8.67999C7.27427 8.67999 7.2295 8.72476 7.2295 8.77999C7.2295 8.83522 7.27427 8.87999 7.3295 8.87999Z" fill="#000080"/>
<path d="M7.3295 9.31999C7.38473 9.31999 7.4295 9.27522 7.4295 9.22C7.4295 9.16477 7.38473 9.12 7.3295 9.12C7.27427 9.12 7.2295 9.16477 7.2295 9.22C7.2295 9.27522 7.27427 9.31999 7.3295 9.31999Z" fill="#000080"/>
<path d="M7.4435 9.745C7.49873 9.745 7.5435 9.70023 7.5435 9.645C7.5435 9.58977 7.49873 9.545 7.4435 9.545C7.38827 9.545 7.3435 9.58977 7.3435 9.645C7.3435 9.70023 7.38827 9.745 7.4435 9.745Z" fill="#000080"/>
<path d="M7.663 10.126C7.71823 10.126 7.763 10.0812 7.763 10.026C7.763 9.97077 7.71823 9.92599 7.663 9.92599C7.60777 9.92599 7.563 9.97077 7.563 10.026C7.563 10.0812 7.60777 10.126 7.663 10.126Z" fill="#000080"/>
<path d="M7.974 10.437C8.02923 10.437 8.074 10.3922 8.074 10.337C8.074 10.2818 8.02923 10.237 7.974 10.237C7.91877 10.237 7.874 10.2818 7.874 10.337C7.874 10.3922 7.91877 10.437 7.974 10.437Z" fill="#000080"/>
<path d="M8.355 10.6565C8.41023 10.6565 8.455 10.6117 8.455 10.5565C8.455 10.5013 8.41023 10.4565 8.355 10.4565C8.29977 10.4565 8.255 10.5013 8.255 10.5565C8.255 10.6117 8.29977 10.6565 8.355 10.6565Z" fill="#000080"/>
<path d="M8.78 10.7705C8.83523 10.7705 8.88 10.7257 8.88 10.6705C8.88 10.6153 8.83523 10.5705 8.78 10.5705C8.72477 10.5705 8.68 10.6153 8.68 10.6705C8.68 10.7257 8.72477 10.7705 8.78 10.7705Z" fill="#000080"/>
<path d="M9.22 10.7705C9.27523 10.7705 9.32 10.7257 9.32 10.6705C9.32 10.6153 9.27523 10.5705 9.22 10.5705C9.16477 10.5705 9.12 10.6153 9.12 10.6705C9.12 10.7257 9.16477 10.7705 9.22 10.7705Z" fill="#000080"/>
<path d="M9.645 10.6565C9.70023 10.6565 9.745 10.6117 9.745 10.5565C9.745 10.5013 9.70023 10.4565 9.645 10.4565C9.58977 10.4565 9.545 10.5013 9.545 10.5565C9.545 10.6117 9.58977 10.6565 9.645 10.6565Z" fill="#000080"/>
<path d="M10.026 10.437C10.0812 10.437 10.126 10.3922 10.126 10.337C10.126 10.2818 10.0812 10.237 10.026 10.237C9.97077 10.237 9.926 10.2818 9.926 10.337C9.926 10.3922 9.97077 10.437 10.026 10.437Z" fill="#000080"/>
<path d="M10.337 10.126C10.3922 10.126 10.437 10.0812 10.437 10.026C10.437 9.97077 10.3922 9.92599 10.337 9.92599C10.2818 9.92599 10.237 9.97077 10.237 10.026C10.237 10.0812 10.2818 10.126 10.337 10.126Z" fill="#000080"/>
<path d="M10.5565 9.745C10.6117 9.745 10.6565 9.70023 10.6565 9.645C10.6565 9.58977 10.6117 9.545 10.5565 9.545C10.5013 9.545 10.4565 9.58977 10.4565 9.645C10.4565 9.70023 10.5013 9.745 10.5565 9.745Z" fill="#000080"/>
<path d="M10.6705 9.31999C10.7257 9.31999 10.7705 9.27522 10.7705 9.22C10.7705 9.16477 10.7257 9.12 10.6705 9.12C10.6153 9.12 10.5705 9.16477 10.5705 9.22C10.5705 9.27522 10.6153 9.31999 10.6705 9.31999Z" fill="#000080"/>
<path d="M10.6705 8.87999C10.7257 8.87999 10.7705 8.83522 10.7705 8.77999C10.7705 8.72476 10.7257 8.67999 10.6705 8.67999C10.6153 8.67999 10.5705 8.72476 10.5705 8.77999C10.5705 8.83522 10.6153 8.87999 10.6705 8.87999Z" fill="#000080"/>
<path d="M10.5565 8.45499C10.6117 8.45499 10.6565 8.41022 10.6565 8.35499C10.6565 8.29976 10.6117 8.25499 10.5565 8.25499C10.5013 8.25499 10.4565 8.29976 10.4565 8.35499C10.4565 8.41022 10.5013 8.45499 10.5565 8.45499Z" fill="#000080"/>
<path d="M10.337 8.07399C10.3922 8.07399 10.437 8.02922 10.437 7.97399C10.437 7.91876 10.3922 7.87399 10.337 7.87399C10.2818 7.87399 10.237 7.91876 10.237 7.97399C10.237 8.02922 10.2818 8.07399 10.337 8.07399Z" fill="#000080"/>
<path d="M10.026 7.76299C10.0812 7.76299 10.126 7.71822 10.126 7.66299C10.126 7.60776 10.0812 7.56299 10.026 7.56299C9.97077 7.56299 9.926 7.60776 9.926 7.66299C9.926 7.71822 9.97077 7.76299 10.026 7.76299Z" fill="#000080"/>
<path d="M9.645 7.54349C9.70023 7.54349 9.745 7.49872 9.745 7.44349C9.745 7.38826 9.70023 7.34349 9.645 7.34349C9.58977 7.34349 9.545 7.38826 9.545 7.44349C9.545 7.49872 9.58977 7.54349 9.645 7.54349Z" fill="#000080"/>
<path d="M9.22 7.42949C9.27523 7.42949 9.32 7.38472 9.32 7.32949C9.32 7.27426 9.27523 7.22949 9.22 7.22949C9.16477 7.22949 9.12 7.27426 9.12 7.32949C9.12 7.38472 9.16477 7.42949 9.22 7.42949Z" fill="#000080"/>
<path d="M9 9.44999C9.24853 9.44999 9.45 9.24852 9.45 8.99999C9.45 8.75146 9.24853 8.54999 9 8.54999C8.75147 8.54999 8.55 8.75146 8.55 8.99999C8.55 9.24852 8.75147 9.44999 9 9.44999Z" fill="#000080"/>
</svg>
