<svg width="18" height="18" viewBox="0 0 18 18" fill="none" xmlns="http://www.w3.org/2000/svg">
<path d="M18 13.5C18 14.0304 17.7893 14.5391 17.4142 14.9142C17.0391 15.2893 16.5304 15.5 16 15.5H2C1.46957 15.5 0.960859 15.2893 0.585786 14.9142C0.210714 14.5391 0 14.0304 0 13.5V4.5C0 3.96957 0.210714 3.46086 0.585786 3.08579C0.960859 2.71071 1.46957 2.5 2 2.5H16C16.5304 2.5 17.0391 2.71071 17.4142 3.08579C17.7893 3.46086 18 3.96957 18 4.5V13.5Z" fill="#EEEEEE"/>
<path d="M10.7205 6.5425C10.0687 6.08622 9.26239 5.90754 8.47887 6.04575C7.69535 6.18396 6.99882 6.62775 6.5425 7.2795C6.32703 7.6057 6.24736 8.0031 6.32047 8.38714C6.39358 8.77118 6.61368 9.11153 6.93394 9.33574C7.25419 9.55995 7.6493 9.65032 8.03518 9.58761C8.42105 9.52491 8.76722 9.31408 9 9C9.113 8.83864 9.25668 8.70112 9.42283 8.59528C9.58898 8.48945 9.77435 8.41737 9.96836 8.38318C10.1624 8.34898 10.3612 8.35334 10.5535 8.39599C10.7458 8.43864 10.9279 8.51875 11.0892 8.63175C11.2506 8.74475 11.3881 8.88843 11.494 9.05458C11.5998 9.22073 11.6719 9.40611 11.7061 9.60011C11.7403 9.79411 11.7359 9.99295 11.6933 10.1853C11.6506 10.3776 11.5705 10.5596 11.4575 10.721C11.6835 10.3983 11.8437 10.0342 11.929 9.64948C12.0143 9.26481 12.0229 8.86711 11.9545 8.4791C11.8861 8.09108 11.7419 7.72034 11.5301 7.38806C11.3184 7.05577 11.0433 6.76845 10.7205 6.5425Z" fill="#C60C30"/>
<path d="M11.089 8.63201C10.7632 8.40382 10.36 8.31439 9.96829 8.38341C9.57654 8.45242 9.22824 8.67421 9 9.00001C8.76779 9.31573 8.42126 9.52807 8.03452 9.59162C7.64778 9.65517 7.25153 9.56487 6.9305 9.34005C6.60947 9.11524 6.38914 8.77373 6.31663 8.38857C6.24413 8.00341 6.32519 7.60517 6.5425 7.27901C6.3099 7.6014 6.1437 7.9668 6.05355 8.35398C5.96341 8.74117 5.95111 9.1424 6.01738 9.53438C6.08365 9.92635 6.22716 10.3013 6.43958 10.6373C6.65199 10.9733 6.92908 11.2638 7.25473 11.4918C7.58038 11.7198 7.9481 11.8808 8.33652 11.9655C8.72494 12.0501 9.12631 12.0567 9.51731 11.9849C9.9083 11.9131 10.2811 11.7643 10.6141 11.5472C10.9471 11.33 11.2336 11.0489 11.457 10.72C11.57 10.5588 11.6502 10.3768 11.6928 10.1846C11.7355 9.9924 11.7399 9.79366 11.7057 9.59974C11.6715 9.40583 11.5995 9.22055 11.4937 9.0545C11.3878 8.88845 11.2503 8.74488 11.089 8.63201Z" fill="#003478"/>
<path d="M12.167 12.786L13.131 11.637L13.514 11.9585L12.55 13.1075L12.167 12.786ZM13.452 11.2545L14.416 10.106L14.799 10.4275L13.835 11.576L13.452 11.2545ZM12.933 13.43L13.897 12.2815L14.28 12.603L13.316 13.7515L12.933 13.43ZM14.219 11.897L15.184 10.7485L15.567 11.0705L14.602 12.2185L14.219 11.897ZM13.6985 14.073L14.6635 12.9245L15.046 13.246L14.0815 14.3945L13.6985 14.073ZM14.984 12.5405L15.9475 11.3905L16.331 11.712L15.3675 12.862L14.984 12.5405ZM14.986 5.4595L15.369 5.138L16.334 6.2875L15.9505 6.609L14.986 5.4595ZM13.7 3.9265L14.083 3.605L15.047 4.7545L14.6635 5.0755L13.7 3.9265ZM12.9335 4.5705L13.3165 4.249L15.5665 6.93L15.1835 7.2515L12.9335 4.5705ZM12.1675 5.2125L12.551 4.891L13.5145 6.04L13.1315 6.361L12.1675 5.2125ZM13.4525 6.745L13.8355 6.4235L14.8005 7.572L14.418 7.8935L13.4525 6.745ZM3.2 10.427L3.583 10.1055L5.8325 12.787L5.449 13.1085L3.2 10.427ZM2.435 11.07L2.8175 10.749L3.782 11.898L3.3985 12.2195L2.435 11.07ZM3.7185 12.603L4.1015 12.2815L5.0665 13.43L4.6835 13.7515L3.7185 12.603ZM1.668 11.7125L2.051 11.391L4.301 14.072L3.9175 14.3935L1.668 11.7125ZM1.6675 6.2865L3.9165 3.6055L4.3 3.9265L2.05 6.608L1.6675 6.2865ZM2.4335 6.93L4.6835 4.2485L5.0665 4.57L2.8165 7.251L2.4335 6.93ZM3.2 7.5725L5.45 4.891L5.833 5.2125L3.583 7.894L3.2 7.5725Z" fill="#292F33"/>
</svg>
