<?xml version="1.0" encoding="UTF-8"?>
<svg id="Layer_2" data-name="Layer 2" xmlns="http://www.w3.org/2000/svg" viewBox="0 0 94.58 32.5">
  <defs>
    <style>
      .cls-1 {
        fill: #383838;
      }
    </style>
  </defs>
  <g id="Layer_1-2" data-name="Layer 1">
    <g>
      <path class="cls-1" d="M94.56,7.04c.13-.53-.69-4.22-1.11-4.52-.64-.47-3.41-.44-4.35-.76-.58-.2-.57-.64-.88-.76-1-.39-5.38-.67-6.71-.76-8.2-.57-20.17-.04-27.98,2.64-1.5.51-.8.95-1.1,1.19-.08.07-1.69-.34-2.1-.36-1.23-.07-2.79-.07-4.02-.01-.6.03-2.19.44-2.52.38-.24-.04-.17-.69-.34-.88-.2-.23-4.55-1.27-5.24-1.41C29.49-.09,19.52-.44,10.64.63c-.62.07-2.28.2-2.72.38-.31.12-.3.56-.88.76-.89.3-3.96.29-4.43.85-.37.43-1.15,3.9-1.02,4.43.53.47,3.46,1.78,3.63,2.25.13.36-.16,2.37-.15,3.07.07,3.53,1.57,11.7,3.31,14.73,2.92,5.09,14.69,4.89,19.74,4.5,1.71-.13,4.55-.37,6.15-.78,5.71-1.46,9.01-12.88,9.9-17.99.26-1.51.57-3.01.45-4.56l6.93.18c-.05,2.32.47,4.68,1,6.93,1.08,4.58,3.82,13.02,8.42,15.09,1.51.68,5.3.99,7.08,1.13,5.17.4,17.22.62,19.94-4.85,1.63-3.28,3-10.52,3.12-14.2.02-.67-.25-2.98-.16-3.25.13-.37,3.13-1.83,3.63-2.25ZM41.15,13.61c-.54,3.85-1.75,8.07-4.09,11.22-2.72,3.65-4.88,4.02-9.27,4.22-4.34.2-15.55.23-17.82-4.25-.36-.72-.64-1.97-.86-2.79-1.61-5.94-1.78-12.44.39-18.26.2-.2,2.83-.51,3.35-.57,7.56-.84,18.07-.86,25.11,2.19.69.3,3.47,1.65,3.58,2.25.25,1.3-.19,4.55-.39,5.99ZM86.23,24.79c-2.27,4.49-13.48,4.45-17.82,4.25-4.4-.2-6.56-.56-9.27-4.22-2.34-3.15-3.55-7.37-4.09-11.22-.2-1.44-.64-4.69-.39-5.99.11-.6,2.89-1.95,3.58-2.25,1.59-.69,3.44-1.24,5.14-1.61,7.43-1.6,15.86-1.19,23.32-.01.32.32,1.16,3.97,1.27,4.66.67,4.32.26,12.45-1.73,16.39Z"/>
      <path d="M71.61,32.5c-1.86,0-3.54-.09-4.8-.19-2.6-.2-5.78-.51-7.2-1.16-5.19-2.34-7.92-12.34-8.63-15.35-.53-2.24-1.01-4.44-1.01-6.65l-6.15-.16c.04,1.31-.19,2.58-.4,3.82l-.07.42c-.99,5.68-4.39,16.81-10.18,18.29-1.51.39-3.99.62-6.21.79-3.91.31-16.92.87-20.1-4.68-1.75-3.05-3.29-11.21-3.36-14.92,0-.31.04-.82.09-1.36.05-.56.13-1.41.08-1.59-.13-.18-1.25-.78-1.92-1.14-.72-.39-1.34-.72-1.6-.95l-.09-.08-.03-.11c-.16-.65.67-4.26,1.1-4.76.36-.43,1.35-.56,2.93-.72.67-.07,1.37-.14,1.67-.25.22-.08.3-.19.41-.34.1-.14.22-.32.46-.41.36-.14,1.23-.24,2.25-.34.23-.02.42-.04.57-.06C18.5-.5,28.6-.07,37.12,1.76c.05.01,5.1,1.13,5.45,1.54.14.16.18.38.21.6,0,.04.02.1.03.15.24-.03.69-.11,1.01-.18.51-.1,1-.19,1.31-.21,1.26-.06,2.82-.06,4.06.01.22.01.65.1,1.12.2.2.04.47.1.67.13.04-.46.32-.81,1.26-1.14C59.93.22,71.91-.37,80.35.21h.2c2.62.19,5.74.44,6.63.78.24.09.36.27.46.41.1.15.18.26.41.34.36.12,1.09.19,1.81.26,1.32.13,2.22.24,2.64.55.58.43,1.4,4.3,1.25,4.92l-.03.12-.1.08c-.22.18-.73.47-1.55.92-.65.36-1.72.95-1.96,1.18-.01.24.05,1.01.09,1.52.05.65.1,1.27.09,1.59-.12,3.87-1.56,11.13-3.16,14.36-2.17,4.36-9.72,5.25-15.51,5.25ZM.75,7.19c.27.19.83.49,1.34.76,1.52.82,2.15,1.19,2.28,1.56.09.26.06.78-.04,1.9-.04.5-.09,1.01-.09,1.28.07,3.55,1.59,11.65,3.26,14.55,2.96,5.16,15.59,4.6,19.39,4.31,1.33-.1,4.43-.34,6.08-.77,5.02-1.29,8.5-11.28,9.62-17.69l.07-.42c.24-1.38.48-2.69.37-4.05l-.03-.42,7.73.2v.38c-.06,2.25.43,4.52.98,6.83.69,2.93,3.33,12.64,8.21,14.83,1.49.67,5.46.98,6.95,1.09,3.9.3,16.83.86,19.57-4.64,1.56-3.14,2.96-10.25,3.08-14.04,0-.28-.04-.9-.09-1.5-.1-1.26-.12-1.66-.05-1.85.11-.31.59-.62,2.32-1.58.49-.27,1.04-.58,1.31-.76-.01-.75-.67-3.66-.99-4.03-.26-.19-1.41-.3-2.24-.38-.79-.08-1.54-.15-1.98-.3-.46-.16-.66-.44-.79-.63-.03-.05-.09-.13-.11-.14-.9-.35-5.04-.63-6.4-.72h-.2c-8.38-.59-20.23,0-27.83,2.61-.77.26-.76.43-.76.54,0,.14.02.39-.22.58-.19.15-.34.12-1.35-.09-.38-.08-.85-.18-1.01-.19-1.2-.07-2.76-.07-3.98-.01-.25.01-.76.11-1.2.2-.74.14-1.17.22-1.4.18-.41-.07-.48-.49-.53-.78,0-.06-.02-.15-.04-.21-.61-.26-4.14-1.12-5.03-1.31C28.52.69,18.51.27,9.49,1.35c-.15.02-.35.04-.58.06-.66.07-1.76.18-2.05.29-.02,0-.07.09-.11.14-.13.19-.33.47-.79.63-.39.13-1.06.2-1.84.28-.77.08-2.21.23-2.42.46-.28.36-.95,3.24-.95,3.98Z"/>
    </g>
  </g>
</svg>