<?xml version="1.0" encoding="UTF-8"?>
<svg id="Layer_2" data-name="Layer 2" xmlns="http://www.w3.org/2000/svg" viewBox="0 0 259.01 243.26">
  <defs>
    <style>
      .cls-1 {
        fill: #ffba0a;
      }
    </style>
  </defs>
  <g id="Layer_1-2" data-name="Layer 1">
    <g>
      <g>
        <path class="cls-1" d="M92.46,37.09c8.85-11.49,16.81-20.26,24.76-23.1C125.64,10.98,150.21,0,166.18,2.99c17.97,3.38,41.07,19.06,49.5,29.08,8.43,10.03,12.48,33.94,19.54,42.91,9.48,12.04-.34,32.66,12.05,50.36,10.53,15.04,14.74,36.11,9.48,51.15-5.27,15.04-16.85,26.08-32.65,33.1-15.8,7.02-33.7,1-50.55,6.02-13.07,3.89-55.82,11.03-78.99,4.01-23.17-7.02-58.98-19.06-64.24-38.11-5.27-19.06-3.11-46.52,4.89-58.52,10.05-15.08,8.43-39.45,17-50,13-16,34.45-28.38,40.24-35.9Z"/>
        <path d="M236.87,123.51c-6.35-9.06-6.63-18.81-6.9-28.23-.24-8.32-.47-16.19-5.2-22.2-3.18-4.04-5.78-11.41-8.53-19.22-3.16-8.96-6.42-18.23-11.04-23.73-8.38-9.98-31.6-26.07-50.37-29.59-14.14-2.65-34.43,5.18-45.34,9.39-1.74.67-3.23,1.25-4.41,1.67-8.81,3.15-17.44,13.2-25.44,23.6-2.3,2.98-7.44,6.97-13.4,11.59-8.52,6.6-19.13,14.82-26.82,24.28-4.43,5.45-6.23,14.16-8.13,23.37-1.96,9.48-3.99,19.29-8.95,26.74-2.35,3.53-4.22,8.38-5.56,13.95C1.21,146.1.57,155.28.24,160.09c-.04.58-.07,1.08-.13,1.52-.38,3.04.17,8.02,2.87,12.89,3.41,6.16,9.26,10.54,17.37,13.05,10,15.02,37.9,25.17,62.16,32.52,7.25,2.2,16.34,3.04,25.84,3.04.26,0,.53,0,.79,0,.4,4.04.53,6.91.24,7.5-.88,1.46-5.82,1.87-9.08,1.16-1.2-.26-2.94-.87-4.95-1.58-4.29-1.5-9.63-3.38-13.95-3.38-2.32,0-4.3,1.14-5.56,3.2-1.94,3.16-1.93,8.06.02,11.91.41.81,1.2,1.32,2.06,1.32h38.99c1.09,0,1.97-.94,1.97-2.09v-18.36c10.59-.61,21.06-2.02,29.5-3.56v21.92c0,1.15.88,2.09,1.97,2.09h38.99c.86,0,1.65-.5,2.06-1.32,1.95-3.86,1.96-8.75.02-11.91-1.27-2.06-3.24-3.2-5.56-3.2-4.32,0-9.66,1.87-13.95,3.38-2.01.71-3.75,1.32-4.95,1.58-3.27.71-8.2.3-9.08-1.15-.42-.87.05-6.53.92-13.6,1.33-.33,2.53-.65,3.56-.96,7.51-2.24,15.44-2.21,23.1-2.2,9.25.02,18.79.04,27.63-3.89,8.46-3.76,15.6-8.64,21.26-14.45,3.11-.58,5.55-1.65,7.42-3.23,3.94-3.32,4.99-8.73,4.62-15.89.05-.14.11-.27.15-.41,5.32-15.19,1.34-36.78-9.67-52.5ZM240.71,191.45c-1.28,1.08-2.89,1.89-4.85,2.46-1.43.41-3.06.69-4.9.83-2.85.22-6.2.11-10.11-.31-21.01-2.29-23.76-10.97-22.92-21.92,6.81-2.75,18.75-.78,18.88-.76l.29-1.19c-.5-.08-11.74-1.94-19.05.57.21-2.12.53-4.31.86-6.55.05-.32.09-.65.14-.97,6.8-2.11,17.68-.75,17.79-.74l.22-1.2c-.45-.06-10.68-1.33-17.82.6.13-.9.25-1.8.36-2.71.69-5.75,6.36-10.04,13.36-12.3.46-.15.93-.29,1.4-.42,3.02-.84,6.24-1.31,9.37-1.37.22,0,.44,0,.66,0,1.12,0,2.26.06,3.39.18,1.21.13,2.4.32,3.56.6,5.23,1.24,9.67,4.1,10.59,9.32l.1.56c1.06,5.97,2,11.35,2.53,16.09.31,2.8.48,5.38.42,7.7-.12,5.13-1.29,9.06-4.26,11.56ZM212.69,139.17c-.07-.29-.17-.61-.27-.94-.55-1.82-1.23-4.09.26-5.75,1.33-1.48,4.29-2.3,8.78-2.45,3.6-.11,6.1.51,7.63,1.93,2.81,2.6,1.94,7.52,1.16,11.85-.05.31-.1.6-.16.9-2.11-.37-4.29-.51-6.41-.47-3.2.06-6.48.54-9.57,1.38-.35-1.77-.92-4.49-1.42-6.45ZM243.47,155.93l-.1-.56c-1.04-5.88-6.02-9.04-11.84-10.36.06-.34.11-.66.17-1.01.82-4.6,1.75-9.82-1.52-12.85-1.84-1.7-4.71-2.47-8.78-2.33-5.03.17-8.26,1.13-9.9,2.94-1.91,2.12-1.1,4.81-.51,6.77.1.32.19.62.26.9.52,2.02,1.11,4.86,1.45,6.61-7.6,2.4-13.82,7.08-14.58,13.4-.2,1.67-.44,3.34-.69,5-2.11,14.52-4.11,28.23,23.21,31.2,2.65.29,5.07.44,7.26.44.58,0,1.12-.02,1.67-.04-4.9,4.39-10.81,8.15-17.73,11.22-8.26,3.67-17.08,3.64-26.41,3.63-7.88-.03-16.03-.04-23.96,2.32-.68.2-1.46.41-2.29.63-.5.13-1.03.26-1.58.4-.14,1.05-.28,2.12-.41,3.19-.79,6.46-1.35,12.82-.64,13.99,1.55,2.57,7.83,2.47,10.68,1.85,1.29-.28,3.07-.9,5.13-1.63,4.18-1.47,9.39-3.29,13.45-3.29,2.28,0,3.59,1.35,4.29,2.48,1.68,2.74,1.65,7.04-.08,10.45-.15.3-.43.49-.72.49h-38.99c-.25,0-.47-.27-.47-.59v-25.28c-.49.09-.99.19-1.5.28-8.35,1.53-18.87,2.96-29.5,3.59-.5.03-1,.06-1.5.09v21.33c0,.32-.21.59-.47.59h-38.99c-.29,0-.57-.19-.72-.49-1.73-3.42-1.76-7.71-.08-10.45.7-1.13,2-2.48,4.29-2.48,4.06,0,9.27,1.83,13.45,3.29,2.06.72,3.84,1.35,5.13,1.63,2.86.62,9.13.72,10.68-1.85.49-.82.37-4.16-.01-8.29-.09-.98-.2-2-.31-3.04-.51,0-1.02.02-1.52.02-9.43.04-18.41-.75-25.44-2.88-14.59-4.42-45.67-13.84-58.31-28.4,4.57,1.03,8.82,1.48,12.79,1.48,11.07,0,20-3.41,27.81-6.88,6.11-2.72,8.17-6.85,8.55-11.08h.08c-.02-.12-.04-.23-.06-.34.23-3.27-.52-6.58-1.12-9.29-.09-.39-.17-.77-.25-1.14-1.44-6.63-8.69-10.44-19.89-10.44-9.28,0-29.14,3.7-29.34,3.74l.23,1.22c.2-.04,19.95-3.72,29.11-3.72,4.99,0,16.81.92,18.67,9.46.08.37.17.76.26,1.15.43,1.89.9,4,1.07,6.14-4.35-5.91-17.23-5.28-17.86-5.24l.07,1.24c.16,0,16.05-.79,17.8,6.97-.22,2.58-1.11,5.1-3.29,7.23-2.54-8.17-18.23-7.4-18.93-7.36l.07,1.24c.16,0,16.12-.8,17.81,7.03-.96.75-2.11,1.44-3.49,2.05-10.74,4.77-23.62,9.42-41.37,4.96-.78-.2-1.56-.4-2.36-.63-.72-.21-1.41-.43-2.08-.66C-.56,179,1.32,161.94,1.34,161.76c.06-.47.1-1.02.14-1.59.31-4.49.91-12.94,14.88-23.21,1.12-.82,2.33-1.66,3.63-2.5.16-.61.33-1.22.51-1.81,1.15-3.86,2.61-7.22,4.34-9.82,5.29-7.94,7.38-18.03,9.39-27.8,1.83-8.85,3.55-17.21,7.52-22.09,7.47-9.19,17.92-17.29,26.33-23.8,6.12-4.74,11.41-8.84,13.94-12.13,7.73-10.03,15.99-19.72,24.07-22.6,1.19-.43,2.71-1.01,4.48-1.7,10.62-4.1,30.41-11.75,43.7-9.24,17.85,3.35,40.72,19.16,48.63,28.57,4.27,5.09,7.45,14.09,10.51,22.8,2.83,8.05,5.51,15.65,9,20.08,4.12,5.23,4.33,12.28,4.56,20.43.27,9.4.58,20.06,7.44,29.86,8.79,12.55,12.87,28.95,11.02,42.37-.53-3.6-1.22-7.5-1.96-11.68Z"/>
      </g>
      <path d="M148.96,127.23h0c.86,0,1.58.66,1.63,1.52.48,7.25,4.3,13.11,8.77,13.11s8.3-5.86,8.77-13.11c.06-.86.77-1.52,1.63-1.52h0c.96,0,1.7.79,1.64,1.75-.58,9.19-5.66,16.16-12.05,16.16s-11.47-6.97-12.05-16.16c-.06-.96.68-1.75,1.64-1.75Z"/>
      <path d="M188,90.12h0c-.52,0-.96-.4-.99-.92-.29-4.42-2.62-8-5.35-8s-5.06,3.58-5.35,8c-.03.52-.47.92-.99.92h0c-.58,0-1.04-.5-1-1.08.36-5.6,3.45-9.84,7.34-9.84s6.99,4.24,7.34,9.84c.04.58-.42,1.08-1,1.08Z"/>
      <path d="M161,90.12h0c-.52,0-.96-.4-.99-.92-.29-4.42-2.62-8-5.35-8s-5.06,3.58-5.35,8c-.03.52-.47.92-.99.92h0c-.58,0-1.04-.5-1-1.08.36-5.6,3.45-9.84,7.34-9.84s6.99,4.24,7.34,9.84c.04.58-.42,1.08-1,1.08Z"/>
    </g>
  </g>
</svg>