<?xml version="1.0" encoding="UTF-8"?>
<svg id="Layer_2" data-name="Layer 2" xmlns="http://www.w3.org/2000/svg" viewBox="0 0 286.86 243.26">
  <defs>
    <style>
      .cls-1 {
        fill: #ffba0a;
      }
    </style>
  </defs>
  <g id="Layer_1-2" data-name="Layer 1">
    <g>
      <path class="cls-1" d="M102.27,37.09c8.85-11.49,16.81-20.26,24.76-23.1C135.46,10.98,160.03,0,175.99,2.99c17.97,3.38,41.07,19.06,49.5,29.08,8.43,10.03,12.48,33.94,19.54,42.91,9.48,12.04-.34,32.66,12.05,50.36,10.53,15.04,14.74,36.11,9.48,51.15s-16.85,26.08-32.65,33.1c-15.8,7.02-33.7,1-50.55,6.02-13.07,3.89-55.82,11.03-78.99,4.01-23.17-7.02-58.98-19.06-64.24-38.11-5.27-19.06-3.11-46.52,4.89-58.52,10.05-15.08,8.43-39.45,17-50,13-16,34.45-28.38,40.24-35.9Z"/>
      <path d="M286.57,47.72c-.93-7.21-4.07-12.58-9.33-15.99-9.35-6.05-16.29-7.91-21.21-5.67-6.78,3.07-8.29,13.32-9.63,22.37-.43,2.9-.83,5.65-1.39,8.07-1.45,6.37-4.57,13.74-8.18,20.21-.61-1.27-1.34-2.49-2.25-3.63-3.18-4.04-5.78-11.41-8.53-19.22-3.16-8.96-6.42-18.23-11.04-23.73-8.38-9.98-31.6-26.07-50.37-29.59-14.14-2.65-34.43,5.18-45.34,9.39-1.74.67-3.23,1.25-4.41,1.67-8.81,3.15-17.44,13.2-25.44,23.6-2.3,2.98-7.44,6.97-13.4,11.59-8.52,6.6-19.13,14.82-26.82,24.28-.08.09-.15.2-.22.29-3.16-5.98-5.85-12.55-7.15-18.3-.55-2.43-.96-5.17-1.39-8.07-1.34-9.05-2.86-19.31-9.63-22.37-4.93-2.23-11.86-.37-21.21,5.67C4.37,31.69,1.23,37.07.3,44.28c-2.7,20.95,13.45,53.28,27.91,76.06l2.31,3.58s.01.02.02.03c-6.82,13.28-8.53,38.72-3.48,56.98,5.18,18.74,37.59,30.77,65.25,39.15,7.25,2.2,16.34,3.04,25.84,3.04.26,0,.53,0,.79,0,.4,4.04.53,6.91.24,7.5-.88,1.46-5.82,1.87-9.08,1.16-1.2-.26-2.94-.87-4.95-1.58-4.29-1.5-9.63-3.38-13.95-3.38-2.32,0-4.3,1.14-5.56,3.2-1.94,3.16-1.93,8.06.02,11.91.41.81,1.2,1.32,2.06,1.32h38.99c1.09,0,1.97-.94,1.97-2.09v-18.36c10.6-.61,21.06-2.02,29.5-3.56v21.92c0,1.15.88,2.09,1.97,2.09h38.99c.86,0,1.65-.5,2.06-1.32,1.95-3.86,1.96-8.75.02-11.91-1.27-2.06-3.24-3.2-5.56-3.2-4.32,0-9.66,1.87-13.95,3.38-2.01.71-3.75,1.32-4.95,1.58-3.27.71-8.2.3-9.08-1.15-.42-.87.05-6.53.92-13.6,1.33-.33,2.53-.65,3.56-.96,7.51-2.24,15.44-2.21,23.1-2.2,9.25.02,18.79.04,27.63-3.89,16.7-7.42,28.27-19.17,33.45-33.97,4.28-12.21,2.53-28.56-4.03-42.68,15.53-22.36,37.36-61.52,34.25-85.61ZM241.45,147.45c1.39-1.52,3.09-3.58,5.01-6.07l3.12-4.18c.24-.33.49-.68.73-1.02,5.67,13.04,7.09,27.77,3.21,38.84-4.97,14.2-15.68,25.04-31.84,32.22-8.26,3.67-17.08,3.64-26.41,3.63-7.88-.03-16.03-.04-23.96,2.32-.68.2-1.46.41-2.29.63-.5.13-1.02.26-1.58.4-.14,1.05-.28,2.12-.41,3.19-.79,6.46-1.35,12.82-.64,13.99,1.55,2.57,7.83,2.47,10.68,1.85,1.29-.28,3.07-.9,5.13-1.63,4.18-1.47,9.39-3.29,13.45-3.29,2.28,0,3.59,1.35,4.29,2.48,1.68,2.74,1.65,7.04-.08,10.45-.15.3-.43.49-.72.49h-38.99c-.25,0-.47-.27-.47-.59v-25.28c-.49.09-.99.19-1.5.28-8.35,1.53-18.87,2.96-29.5,3.59-.5.03-1,.06-1.5.09v21.33c0,.32-.21.59-.47.59h-38.99c-.29,0-.57-.19-.72-.49-1.73-3.42-1.76-7.71-.08-10.45.7-1.13,2-2.48,4.29-2.48,4.06,0,9.27,1.83,13.45,3.29,2.06.72,3.84,1.35,5.13,1.63,2.86.62,9.13.72,10.68-1.85.49-.82.37-4.16-.01-8.29-.09-.98-.2-2-.31-3.04-.51,0-1.02.02-1.52.02-9.43.04-18.41-.75-25.44-2.88-17.3-5.24-57.83-17.52-63.23-37.08-4.7-17-3.4-40.31,2.51-53.29,5.18,7.69,9.85,13.77,12.95,17.17l1.11-1.01c-3.44-3.77-8.2-10.03-13.31-17.68-.62-.92-1.24-1.87-1.86-2.83-.13-.2-.26-.4-.39-.6-.76-1.17-1.52-2.37-2.29-3.59-3.67-5.87-7.39-12.26-10.83-18.82C9.36,83.29-.3,60.62,1.79,44.47c.78-6.09,3.25-10.75,7.3-13.93-.31,3.15-.66,9.81,1.49,13.71l1.31-.72c-2.31-4.2-1.38-12.45-1.16-14.16,2.84-1.82,5.43-3.23,7.78-4.25-.36,2.87-.86,9.79,1.98,14.45l1.28-.78c-2.89-4.75-1.93-12.49-1.66-14.31,4.14-1.52,7.48-1.69,10.1-.5,6.03,2.73,7.49,12.56,8.77,21.23.43,2.93.84,5.71,1.41,8.19,1.35,5.92,4.21,12.94,7.64,19.33.55,1.03,1.11,2.03,1.69,3.01.3.52.6,1.04.91,1.55.54.88,1.09,1.74,1.64,2.57,4.4,6.62,9.09,11.4,12.53,11.44l.02-1.5c-2.84-.03-7.2-4.58-11.41-10.98l-1.63-2.57c-.39-.64-.77-1.31-1.16-1.98.3-.46.61-.9.95-1.31,7.47-9.19,17.92-17.29,26.33-23.8,6.12-4.74,11.41-8.84,13.94-12.13,7.73-10.03,15.99-19.72,24.07-22.6,1.19-.43,2.71-1.01,4.48-1.7,10.62-4.1,30.41-11.75,43.7-9.24,17.85,3.35,40.72,19.16,48.63,28.57,4.27,5.09,7.45,14.09,10.51,22.8,2.83,8.05,5.51,15.65,9,20.08,1.2,1.53,2.07,3.21,2.7,5.03-1.04,1.7-2.1,3.3-3.16,4.76l-1.91,2.5c-2.97,3.66-5.78,5.99-7.8,6.01l.02,1.5c2.44-.03,5.52-2.46,8.67-6.23.65-.77,1.29-1.6,1.94-2.48.95-1.28,1.89-2.68,2.82-4.14.7-1.1,1.39-2.25,2.06-3.42,3.99-6.96,7.4-14.99,8.91-21.63.56-2.48.97-5.25,1.41-8.19,1.28-8.67,2.74-18.5,8.77-21.23,2.62-1.19,5.97-1.02,10.1.5.28,1.83,1.23,9.57-1.66,14.31l1.28.78c2.84-4.66,2.34-11.58,1.98-14.45,2.35,1.01,4.94,2.42,7.78,4.25.22,1.71,1.15,9.96-1.16,14.16l1.31.72c2.14-3.9,1.8-10.56,1.49-13.71,4.05,3.17,6.51,7.84,7.3,13.93,2.08,16.15-7.58,38.83-16.05,55-5.54,10.57-11.81,20.72-17.45,28.91-.66.96-1.32,1.9-1.96,2.8-.02.03-.05.07-.07.1-1.03,1.44-2.03,2.81-2.99,4.09-2.33,3.09-4.44,5.69-6.21,7.62l1.11,1.01Z"/>
      <path d="M204.28,82.12c-1.74-1.62-6.37-5.07-12.35-2.61-5.69,2.33-7.26,6.7-7.69,8.83-.12.57.21,1.11.67,1.23.03,0,.06.02.09.03.02,0,.04.02.06.02.03,0,.06-.01.1-.02.06,0,.12-.01.18-.03.01,0,.03-.01.04-.02.14-.05.27-.13.37-.26.71-.87,2.44-2.4,6.03-2.7,3.71-.31,5.79,1.73,6.64,2.83.28.37.74.45,1.09.19h.02c.46-.35.55-1.1.18-1.58-1.09-1.43-3.64-3.89-8.05-3.53-1.88.16-3.33.64-4.46,1.22.95-1.51,2.57-3.13,5.31-4.26,5.21-2.14,9.25.91,10.71,2.28.35.33.85.29,1.16-.09h0c.37-.45.32-1.17-.09-1.56Z"/>
      <path d="M151.84,82.12c1.74-1.62,6.37-5.07,12.35-2.61,5.69,2.33,7.26,6.7,7.69,8.83.12.57-.21,1.11-.67,1.23-.03,0-.06.02-.09.03-.02,0-.04.02-.06.02-.03,0-.06-.01-.1-.02-.06,0-.12-.01-.18-.03-.01,0-.03-.01-.04-.02-.14-.05-.27-.13-.37-.26-.71-.87-2.44-2.4-6.03-2.7-3.71-.31-5.79,1.73-6.64,2.83-.28.37-.74.45-1.09.19h-.02c-.46-.35-.55-1.1-.18-1.58,1.09-1.43,3.64-3.89,8.05-3.53,1.88.16,3.33.64,4.46,1.22-.95-1.51-2.57-3.13-5.31-4.26-5.21-2.14-9.25.91-10.71,2.28-.35.33-.85.29-1.16-.09h0c-.37-.45-.32-1.17.09-1.56Z"/>
      <ellipse cx="169.18" cy="128.8" rx="12.05" ry="16.34"/>
    </g>
  </g>
</svg>