<?xml version="1.0" encoding="UTF-8"?>
<svg id="Layer_2" data-name="Layer 2" xmlns="http://www.w3.org/2000/svg" viewBox="0 0 266.51 243.26">
  <defs>
    <style>
      .cls-1 {
        fill: #ffba0a;
      }
    </style>
  </defs>
  <g id="Layer_1-2" data-name="Layer 1">
    <g>
      <path class="cls-1" d="M87.63,37.09c8.85-11.49,16.81-20.26,24.76-23.1C120.82,10.98,145.39,0,161.35,2.99c17.97,3.38,41.07,19.06,49.5,29.08,8.43,10.03,12.48,33.94,19.54,42.91,9.48,12.04-.34,32.66,12.05,50.36,10.53,15.04,14.74,36.11,9.48,51.15s-16.85,26.08-32.65,33.1c-15.8,7.02-33.7,1-50.55,6.02-13.07,3.89-55.82,11.03-78.99,4.01-23.17-7.02-58.98-19.06-64.24-38.11-5.27-19.06-3.11-46.52,4.89-58.52,10.05-15.08,8.43-39.45,17-50,13-16,34.45-28.38,40.24-35.9Z"/>
      <g>
        <path d="M112.54,241.16c0,.32-.21.59-.47.59h-38.99c-.29,0-.57-.19-.72-.49-1.73-3.42-1.76-7.71-.08-10.45.7-1.13,2-2.48,4.29-2.48,4.06,0,9.27,1.83,13.45,3.29,2.06.72,3.84,1.35,5.13,1.63,2.86.62,9.13.72,10.68-1.85.49-.82.37-4.16-.01-8.29-.5,0-1.01.01-1.51.01.4,4.04.53,6.91.24,7.5-.88,1.46-5.82,1.87-9.08,1.16-1.2-.26-2.94-.87-4.95-1.58-4.29-1.5-9.63-3.38-13.95-3.38-2.32,0-4.3,1.14-5.56,3.2-1.94,3.16-1.93,8.06.02,11.91.41.81,1.2,1.32,2.06,1.32h38.99c1.09,0,1.97-.94,1.97-2.09v-18.36c-.5.03-1,.05-1.5.08v18.28Z"/>
        <path d="M151.75,231.4c1.55,2.57,7.83,2.47,10.68,1.85,1.29-.28,3.07-.9,5.13-1.63,4.18-1.47,9.39-3.29,13.45-3.29,2.28,0,3.59,1.35,4.29,2.48,1.68,2.74,1.65,7.04-.08,10.45-.15.3-.43.49-.72.49h-38.99c-.25,0-.47-.27-.47-.59v-22.2c-.49.09-.99.19-1.5.28v21.92c0,1.15.88,2.09,1.97,2.09h38.99c.86,0,1.65-.5,2.06-1.32,1.95-3.86,1.96-8.75.02-11.91-1.27-2.06-3.24-3.2-5.56-3.2-4.32,0-9.66,1.87-13.95,3.38-2.01.71-3.75,1.32-4.95,1.58-3.27.71-8.2.3-9.08-1.15-.42-.87.05-6.53.92-13.6-.5.13-1.03.25-1.57.38-.79,6.46-1.35,12.82-.64,13.99Z"/>
        <path d="M78.54,217.21c-17.3-5.24-57.83-17.52-63.23-37.08-1.14-4.12-1.93-8.62-2.38-13.24-1.09-1.02-2.17-2.11-3.24-3.28.36,6.06,1.26,12,2.73,17.32,5.18,18.74,37.59,30.77,65.25,39.15,7.25,2.2,16.34,3.04,25.84,3.04.26,0,.53,0,.79,0-.09-.95-.2-1.97-.32-3.03-9.43.04-18.41-.75-25.44-2.88Z"/>
        <path d="M29.4,95.04c1.83-8.85,3.55-17.21,7.52-22.09,7.47-9.19,17.92-17.29,26.33-23.8,6.12-4.74,11.41-8.84,13.94-12.13,7.73-10.03,15.99-19.72,24.07-22.6,1.19-.43,2.71-1.01,4.48-1.7,10.62-4.1,30.41-11.75,43.7-9.24,17.85,3.35,40.72,19.16,48.63,28.57,4.27,5.09,7.45,14.09,10.51,22.8,2.83,8.05,5.51,15.65,9,20.08,4.12,5.23,4.33,12.28,4.56,20.43.18,6.33.39,13.23,2.6,20.05,1.06-.07,2.1-.12,3.1-.15-2.3-6.59-2.51-13.37-2.7-19.99-.24-8.32-.47-16.19-5.2-22.2-3.18-4.04-5.78-11.41-8.53-19.22-3.16-8.96-6.42-18.23-11.04-23.73-8.38-9.98-31.6-26.07-50.37-29.59-14.14-2.65-34.43,5.18-45.34,9.39-1.74.67-3.23,1.25-4.41,1.67-8.81,3.15-17.44,13.2-25.44,23.6-2.3,2.98-7.44,6.97-13.4,11.59-8.52,6.6-19.13,14.82-26.82,24.28-4.43,5.45-6.23,14.16-8.13,23.37-1.63,7.88-3.31,15.97-6.68,22.76,1.15-.34,2.39-.65,3.74-.92,2.85-6.59,4.38-14,5.88-21.24Z"/>
        <path d="M207.04,207.24c-8.26,3.67-17.08,3.64-26.41,3.63-7.88-.03-16.03-.04-23.96,2.32-.68.2-1.46.41-2.29.63-.15,1.09-.28,2.16-.41,3.21,1.33-.33,2.53-.65,3.56-.96,7.51-2.24,15.44-2.21,23.1-2.2,9.25.02,18.79.04,27.63-3.89,16.7-7.42,28.27-19.17,33.45-33.97.08-.22.13-.45.2-.67-1.3.7-2.59,1.33-3.88,1.9-5.28,13.11-15.69,23.2-30.99,30Z"/>
        <path d="M114.04,219.75v3.06c10.59-.61,21.06-2.02,29.5-3.56v-3.08c-8.35,1.53-18.87,2.96-29.5,3.59Z"/>
        <path d="M112.54,219.83v3.05c.5-.02,1-.05,1.5-.08v-3.06c-.5.03-1,.06-1.5.09Z"/>
        <path d="M105.5,220.06c-.51,0-1.02.02-1.52.02.12,1.07.23,2.08.32,3.03.5,0,1.01,0,1.51-.01-.09-.98-.2-2-.31-3.04Z"/>
        <path d="M152.8,214.22c-.14,1.05-.28,2.12-.41,3.19.54-.13,1.07-.26,1.57-.38.13-1.04.27-2.11.41-3.21-.5.13-1.03.26-1.58.4Z"/>
        <path d="M145.04,215.88c-.49.09-.99.19-1.5.28v3.08c.51-.09,1.01-.19,1.5-.28v-3.08Z"/>
        <path d="M47.39,182.48c6.59,1.11,10.59-1.2,13.25-4.51l.08.04c.05-.1.09-.2.13-.3,2-2.6,3.21-5.77,4.2-8.36.14-.38.28-.74.42-1.09,2.46-6.33-1.47-13.5-10.8-19.69-7.73-5.13-26.33-13.02-26.52-13.1l-.48,1.15c.19.08,18.68,7.93,26.32,12.99,4.16,2.76,13.5,10.06,10.33,18.2-.14.35-.28.72-.42,1.1-.69,1.81-1.46,3.83-2.5,5.71-.36-7.33-11.44-13.92-11.98-14.24l-.63,1.07c.14.08,13.81,8.21,10.98,15.65-1.61,2.04-3.74,3.64-6.74,4.2,2.4-8.21-11.11-16.24-11.71-16.59l-.63,1.07c.14.08,13.88,8.24,10.96,15.7-1.21.09-2.55.03-4.04-.22-10.84-1.83-23.19-4.8-34.83-16.25.05.63.1,1.26.16,1.88,2.47,2.32,4.97,4.29,7.48,5.96,9.23,6.12,18.55,8.21,26.98,9.64Z"/>
        <path d="M8.77,160.69c-14.88-17.57-3.13-31.64-3.01-31.78.31-.36.64-.79.99-1.25,1.88-2.45,4.9-6.38,12.21-8.88.29-.52.56-1.04.83-1.58-8.54,2.56-11.95,7-14.03,9.7-.35.46-.66.86-.95,1.2-2,2.32-4.29,6.78-4.73,12.33-.58,7.23,2.03,14.32,7.74,21.07.62.74,1.25,1.44,1.88,2.12-.04-.65-.07-1.31-.1-1.97-.28-.31-.55-.63-.83-.95Z"/>
        <path d="M22.89,117.69c.22-.46.43-.93.64-1.4-1.34.27-2.59.57-3.74.92-.27.53-.54,1.06-.83,1.58,1.19-.41,2.5-.77,3.93-1.09Z"/>
        <path d="M12.94,166.89c-.06-.62-.12-1.25-.16-1.88-1.06-1.05-2.12-2.17-3.17-3.36.03.66.06,1.31.1,1.97,1.07,1.17,2.15,2.26,3.24,3.28Z"/>
        <path d="M266.43,140.43c-.44-5.55-2.74-10.01-4.73-12.33-.29-.34-.6-.74-.95-1.2-3.19-4.15-9.55-12.41-32.9-11.63.14.41.29.82.45,1.23,22.38-.66,28.43,7.2,31.47,11.16.35.46.68.89.99,1.25.12.14,11.87,14.21-3.01,31.78-4.98,5.88-10.14,9.99-15.3,12.93-.16.58-.34,1.15-.52,1.72,1.39-.75,2.79-1.57,4.18-2.5,4.25-2.82,8.48-6.49,12.59-11.35,5.71-6.75,8.32-13.84,7.74-21.07Z"/>
        <path d="M214.87,181.48c-2.91-7.46,10.82-15.62,10.96-15.7l-.63-1.07c-.6.35-14.1,8.38-11.71,16.59-3-.56-5.13-2.17-6.74-4.2-2.83-7.44,10.84-15.57,10.98-15.65l-.63-1.07c-.54.32-11.63,6.91-11.98,14.24-1.04-1.88-1.81-3.89-2.5-5.71-.14-.38-.28-.75-.42-1.1-3.17-8.14,6.17-15.44,10.33-18.2,5.93-3.94,18.42-9.55,23.78-11.9-.16-.38-.32-.76-.48-1.15-5.39,2.36-17.97,8.02-23.99,12-9.33,6.19-13.27,13.37-10.8,19.69.14.35.28.72.42,1.09.99,2.59,2.2,5.76,4.2,8.36.04.1.08.2.13.3l.08-.04c2.65,3.31,6.65,5.62,13.25,4.51,5.97-1.01,12.39-2.36,18.91-5.24.22-.55.43-1.1.63-1.66-6.8,3.19-13.53,4.62-19.75,5.67-1.48.25-2.82.31-4.04.22Z"/>
        <path d="M238.85,136.61l-.48-1.15s-1,.42-2.54,1.1c.16.38.33.76.48,1.15,1.54-.67,2.49-1.08,2.54-1.1Z"/>
        <path d="M238.66,175.58c-.2.56-.41,1.11-.63,1.66,1.29-.57,2.59-1.2,3.88-1.9.19-.57.36-1.14.52-1.72-1.26.72-2.52,1.37-3.77,1.96Z"/>
        <path d="M225.16,116.64c1.07-.06,2.12-.12,3.13-.15-.16-.41-.3-.82-.45-1.23-1,.03-2.04.08-3.1.15.13.41.27.81.42,1.22Z"/>
      </g>
      <path d="M146.81,145.45c-.15,0-.31,0-.46,0-7-.1-9.24-2.52-9.9-4.54-.34-1.05.24-2.18,1.29-2.52,1.05-.34,2.18.24,2.52,1.29.19.58,1.72,1.7,6.15,1.77,4.33.06,9.77-.9,15.35-2.7,5.58-1.81,10.55-4.22,14.02-6.81,3.55-2.65,4.13-4.46,3.94-5.04-.34-1.05.24-2.18,1.29-2.52,1.05-.34,2.18.24,2.52,1.29.65,2.01.25,5.29-5.36,9.48-3.81,2.84-9.2,5.47-15.18,7.41-5.79,1.88-11.51,2.9-16.18,2.9Z"/>
      <path d="M161.43,77.82l-10.93.73c-.09,0-.18.03-.27.05-3.33.33-5.97,4.62-5.97,9.89s2.86,9.92,6.38,9.92,6.38-4.44,6.38-9.92c0-2.38-.54-4.56-1.43-6.26l6.12-.41c1.1-.07,1.94-1.03,1.86-2.13-.07-1.1-1.02-1.94-2.13-1.86Z"/>
      <path d="M185.78,77.82l-10.93.73c-.09,0-.18.03-.27.05-3.33.33-5.97,4.62-5.97,9.89s2.86,9.92,6.38,9.92,6.38-4.44,6.38-9.92c0-2.38-.54-4.56-1.43-6.26l6.12-.41c1.1-.07,1.94-1.03,1.86-2.13-.07-1.1-1.02-1.94-2.13-1.86Z"/>
    </g>
  </g>
</svg>