<?xml version="1.0" encoding="UTF-8"?>
<svg id="Layer_2" data-name="Layer 2" xmlns="http://www.w3.org/2000/svg" viewBox="0 0 244.69 243.26">
  <defs>
    <style>
      .cls-1 {
        fill: #ffba0a;
      }
    </style>
  </defs>
  <g id="Layer_1-2" data-name="Layer 1">
    <g>
      <g>
        <path class="cls-1" d="M78.13,37.09c8.85-11.49,16.81-20.26,24.76-23.1C111.31,10.98,135.89,0,151.85,2.99c17.97,3.38,41.07,19.06,49.5,29.08,8.43,10.03,12.48,33.94,19.54,42.91,9.48,12.04-.34,32.66,12.05,50.36,10.53,15.04,14.74,36.11,9.48,51.15-5.27,15.04-16.85,26.08-32.65,33.1-15.8,7.02-33.7,1-50.55,6.02-13.07,3.89-55.82,11.03-78.99,4.01-23.17-7.02-58.98-19.06-64.24-38.11-5.27-19.06-3.11-46.52,4.89-58.52,10.05-15.08,8.43-39.45,17-50,13-16,34.45-28.38,40.24-35.9Z"/>
        <path d="M222.54,123.51c-6.35-9.06-6.63-18.81-6.9-28.23-.24-8.32-.47-16.19-5.2-22.2-3.18-4.04-5.78-11.41-8.53-19.22-3.16-8.96-6.42-18.23-11.04-23.73-8.38-9.98-31.6-26.07-50.37-29.59-14.14-2.65-34.43,5.18-45.34,9.39-1.74.67-3.23,1.25-4.41,1.67-8.81,3.15-17.44,13.2-25.44,23.6-2.3,2.98-7.44,6.97-13.4,11.59-8.52,6.6-19.13,14.82-26.82,24.28-4.43,5.45-6.23,14.16-8.13,23.37-1.96,9.48-3.99,19.29-8.95,26.74C-.12,133.38-2.5,161.3,2.92,180.93c5.18,18.74,37.59,30.77,65.25,39.15,7.25,2.2,16.34,3.04,25.84,3.04.26,0,.53,0,.79,0,.4,4.04.53,6.91.24,7.5-.88,1.46-5.82,1.87-9.08,1.16-1.2-.26-2.94-.87-4.95-1.58-4.29-1.5-9.63-3.38-13.95-3.38-2.32,0-4.3,1.14-5.56,3.2-1.94,3.16-1.93,8.06.02,11.91.41.81,1.2,1.32,2.06,1.32h38.99c1.09,0,1.97-.94,1.97-2.09v-18.36c10.59-.61,21.06-2.02,29.5-3.56v21.92c0,1.15.88,2.09,1.97,2.09h38.99c.86,0,1.65-.5,2.06-1.32,1.95-3.86,1.96-8.75.02-11.91-1.27-2.06-3.24-3.2-5.56-3.2-4.32,0-9.66,1.87-13.95,3.38-2.01.71-3.75,1.32-4.95,1.58-3.27.71-8.2.3-9.08-1.15-.42-.87.05-6.53.92-13.6,1.33-.33,2.53-.65,3.56-.96.12-.04.24-.06.36-.09.68-.2,1.36-.37,2.05-.53,6.79-1.59,13.84-1.58,20.68-1.57,9.25.02,18.79.04,27.63-3.89,16.7-7.42,28.27-19.17,33.45-33.97,5.32-15.19,1.34-36.78-9.67-52.5ZM144.87,213.82c-.5.13-1.03.26-1.58.4-.14,1.05-.28,2.12-.41,3.19-.79,6.46-1.35,12.82-.64,13.99,1.55,2.57,7.83,2.47,10.68,1.85,1.29-.28,3.07-.9,5.13-1.63,4.18-1.47,9.39-3.29,13.45-3.29,2.28,0,3.59,1.35,4.29,2.48,1.68,2.74,1.65,7.04-.08,10.45-.15.3-.43.49-.72.49h-38.99c-.25,0-.47-.27-.47-.59v-25.28c-.49.09-.99.19-1.5.28-8.35,1.53-18.87,2.96-29.5,3.59-.5.03-1,.06-1.5.09v21.33c0,.32-.21.59-.47.59h-38.99c-.29,0-.57-.19-.72-.49-1.73-3.42-1.76-7.71-.08-10.45.7-1.13,2-2.48,4.29-2.48,4.06,0,9.27,1.83,13.45,3.29,2.06.72,3.84,1.35,5.13,1.63,2.86.62,9.13.72,10.68-1.85.49-.82.37-4.16-.01-8.29-.09-.98-.2-2-.31-3.04-.51,0-1.02.02-1.52.02-5.31.02-10.46-.23-15.22-.82,6.25-1.97,13.32-5.95,21.18-10.38,7.29-4.11,15.34-8.63,23.99-12.21.61.55,1.22,1.09,1.83,1.64,6.15,5.52,12.39,11.12,18.75,15.48-.05.01-.09.02-.14.04ZM229.37,175.02c-4.97,14.2-15.68,25.04-31.84,32.22-8.26,3.67-17.08,3.64-26.41,3.63-7.88-.03-16.03-.04-23.96,2.32-.08.02-.17.05-.25.07-6.64-4.4-13.2-10.28-19.65-16.07-.43-.38-.86-.77-1.29-1.15,11.55-4.59,24.16-7.4,37.51-5.25,20.29,3.28,25.25-4.12,26.41-8.82,2.15-8.77-5.6-21.02-15.36-24.27-7.35-2.45-21.23-1.64-38.71,1.76-21.17-10.9-38.5-18.72-52.69-12.7-7.48,3.17-12.03,9.34-11.31,15.34.61,5.14,5.01,9.22,12.32,11.66-8.26,2.85-16.67,5.99-25.07,9.41l.56,1.39c9.01-3.66,18.09-7.03,27.01-10.05.91-.31,1.81-.6,2.71-.9,37.72-12.52,72.02-18.7,84.7-14.47,8.94,2.98,16.33,14.54,14.38,22.49-1.78,7.25-10.55,9.98-24.71,7.7-13.96-2.25-27.06.77-39,5.61-.52.21-1.03.42-1.54.63-8.46,3.57-16.32,8-23.47,12.02-9.28,5.22-17.43,9.81-24.26,11.12-2.27-.4-4.42-.88-6.41-1.49-17.3-5.24-57.83-17.52-63.23-37.08-5.23-18.92-3.04-45.69,4.69-57.29,5.29-7.94,7.38-18.03,9.39-27.8,1.83-8.85,3.55-17.21,7.52-22.09,7.47-9.19,17.92-17.29,26.33-23.8,6.12-4.74,11.41-8.84,13.94-12.13,7.73-10.03,15.99-19.72,24.07-22.6,1.19-.43,2.71-1.01,4.48-1.7,10.62-4.1,30.41-11.75,43.7-9.24,17.85,3.35,40.72,19.16,48.63,28.57,4.27,5.09,7.45,14.09,10.51,22.8,2.83,8.05,5.51,15.65,9,20.08,4.12,5.23,4.33,12.28,4.56,20.43.27,9.4.58,20.06,7.44,29.86,10.49,14.98,14.31,35.46,9.29,49.79ZM73.38,159.47c.3-1.95,1.22-3.89,2.64-5.66,1.79-.24,11.41-1.27,18.52,2.95l.77-1.29c-6.27-3.72-14.07-3.63-17.75-3.33,1.67-1.59,3.76-2.97,6.16-3.99,13.22-5.61,29.69,1.53,49.74,11.79-13.97,2.85-30.08,7.28-46.9,12.99-7.89-2.15-12.65-6.04-13.24-11.01-.04-.31-.06-.63-.06-.95,7.66.23,16.2,3.84,16.29,3.88l.59-1.38c-.37-.16-8.84-3.74-16.76-4Z"/>
      </g>
      <path d="M134.63,128.39h0c.85,0,1.58.65,1.63,1.51.47,7.25,4.3,13.12,8.77,13.12s8.3-5.87,8.77-13.12c.06-.85.78-1.51,1.63-1.51h0c.96,0,1.7.82,1.64,1.78-.58,9.18-5.67,16.14-12.05,16.14s-11.46-6.96-12.05-16.14c-.06-.96.68-1.78,1.64-1.78Z"/>
      <ellipse cx="140.36" cy="91.28" rx="7.09" ry="11.02"/>
      <path d="M178.78,87.27c-1.74-1.62-6.37-5.07-12.35-2.61-5.69,2.33-7.26,6.7-7.69,8.83-.12.57.21,1.11.67,1.23.03,0,.06.02.09.03.02,0,.04.02.06.02.03,0,.06-.01.1-.02.06,0,.12-.01.18-.03.01,0,.03-.01.04-.02.14-.05.27-.13.37-.26.71-.87,2.44-2.4,6.03-2.7,3.71-.31,5.79,1.73,6.64,2.83.28.37.74.45,1.09.19h.02c.46-.35.55-1.1.18-1.58-1.09-1.43-3.64-3.89-8.05-3.53-1.88.16-3.33.64-4.46,1.22.95-1.51,2.57-3.13,5.31-4.26,5.21-2.14,9.25.91,10.71,2.28.35.33.85.29,1.16-.09h0c.37-.45.32-1.17-.09-1.56Z"/>
    </g>
  </g>
</svg>