<?xml version="1.0" encoding="UTF-8"?>
<svg id="Layer_2" data-name="Layer 2" xmlns="http://www.w3.org/2000/svg" viewBox="0 0 132.7 81.15">
  <defs>
    <style>
      .cls-1 {
        fill: #e2e2e2;
      }

      .cls-2 {
        fill: #4885ff;
      }
    </style>
  </defs>
  <g id="Layer_1-2" data-name="Layer 1">
    <g>
      <g>
        <path class="cls-2" d="M23.84,30.4c2-10.8,9.21-18.29,17.91-23.14-1.22.36-2.45.71-3.72,1.07-12.11,3.38-24.64,6.88-27.54,23.4-1.96,11.14-3.76,18.93-4.94,24.09-.91,3.92-1.56,6.76-1.33,7.21.31.36,3.08-.35,5.79-1.51h.02s0,0,0,0c2.22-.87,5.78-2.22,10.15-3.75,0-1.87.26-8.87,3.68-27.37Z"/>
        <path d="M9.7,61.84c.05-.14.17-.25.32-.31h-.02c-2.71,1.17-5.48,1.88-5.79,1.51-.23-.45.43-3.29,1.33-7.21,1.19-5.16,2.99-12.95,4.94-24.09,2.91-16.52,15.43-20.02,27.54-23.4,1.27-.36,2.5-.71,3.72-1.07,1.97-1.1,4.02-2.06,6.09-2.89v-.05s-.67.26-.67.26c-2.91,1.13-6.05,2.01-9.38,2.94-11.78,3.29-25.14,7.02-28.14,24.06-1.96,11.12-3.75,18.9-4.94,24.05-1.33,5.75-1.65,7.28-1.19,7.89.21.28.63.4,1.16.4,1.45,0,3.74-.85,5.11-1.42-.1-.2-.2-.42-.11-.67Z"/>
        <path class="cls-2" d="M114.54,30.4c3.61,19.52,3.63,26.68,3.58,28.19,3.39,1.19,6.16,2.22,8,2.92l.12.05.03.03c.49.26,3.41,1.8,5.6,2.62.21-1.55-1.21-9.48-3.15-20.24-.65-3.65-1.39-7.74-2.18-12.24-2.91-16.52-15.43-20.02-27.54-23.4-.36-.1-.69-.2-1.05-.3,8.1,4.86,14.7,12.13,16.59,22.37Z"/>
        <path d="M129.54,43.83c-.65-3.65-1.39-7.74-2.18-12.24-3-17.04-16.35-20.77-28.14-24.06-1.58-.44-3.11-.87-4.59-1.32,1.13.56,2.24,1.17,3.32,1.82.35.1.69.2,1.05.3,12.11,3.38,24.64,6.88,27.54,23.4.79,4.5,1.53,8.59,2.18,12.24,1.93,10.76,3.36,18.69,3.15,20.24-2.18-.81-5.11-2.36-5.6-2.62l.12.14c.18.28.07.6-.06.84,1.1.57,3.61,1.85,5.51,2.52.07.02.13.04.2.04.13,0,.25-.05.35-.13.75-.63.17-4.31-2.86-21.17Z"/>
        <path class="cls-1" d="M113.73,30.55C109.81,9.39,85.26,1.19,69.71.85h-.41s-.1,0-.1,0h-.32s-.2,0-.2,0c-15.55.34-40.1,8.54-44.02,29.71-3.22,17.42-3.63,24.7-3.66,26.92,13.38-4.67,33.78-10.84,47.44-10.64,14.35.23,35.82,6.91,48.86,11.47.02-1.94-.18-9.42-3.57-27.75Z"/>
        <path d="M41.75,7.26c-8.69,4.85-15.91,12.34-17.91,23.14-3.42,18.5-3.69,25.49-3.68,27.37.27-.1.56-.19.84-.29.03-2.22.44-9.5,3.66-26.92C28.57,9.39,53.13,1.19,68.68.85h.2s.32,0,.32,0h.1s.41,0,.41,0c15.55.34,40.1,8.54,44.02,29.71,3.39,18.33,3.59,25.82,3.57,27.75.28.1.56.19.83.29.05-1.51.03-8.68-3.58-28.19-1.89-10.25-8.49-17.52-16.59-22.37-1.08-.65-2.19-1.26-3.32-1.82C86.51,2.15,77.4.25,70.13.03v-.03h-.94s-.53,0-.53,0l-.4.02h0c-6.07.19-13.43,1.55-20.43,4.35-2.08.83-4.12,1.79-6.09,2.89Z"/>
        <path class="cls-2" d="M68.42,47.67c-.23,0-.47,0-.71,0-18.28,0-47.97,10.96-57.14,14.53.05.1.1.19.12.28h0c2.01,6.26,11.84,14.26,21.97,15.61,8.14,1.09,12.91-2.56,17.95-6.41,4.75-3.63,9.66-7.39,17.71-7.46.08,0,.15,0,.23,0,8.28,0,13.88,3.93,19.3,7.74,5.37,3.77,10.44,7.34,17.58,6.35,7.27-1.01,14.01-6.37,20.04-15.93.05-.07.08-.13.11-.17-9.12-3.46-38.97-14.24-57.17-14.54Z"/>
        <path d="M126.4,61.73l-.12-.14-.03-.03-.12-.05c-1.84-.7-4.61-1.73-8-2.92-.27-.1-.55-.19-.83-.29-13.04-4.56-34.51-11.24-48.86-11.47-13.66-.2-34.06,5.97-47.44,10.64-.28.1-.56.2-.84.29-4.37,1.54-7.92,2.88-10.15,3.75,0,0,0,0,0,0-.15.06-.26.17-.32.31-.09.24.01.47.11.67,0,.02.02.04.03.06.03.06.06.11.08.17,2.09,6.5,11.91,14.75,22.65,16.18,8.5,1.13,13.38-2.61,18.56-6.57,4.64-3.55,9.44-7.22,17.22-7.29.07,0,.15,0,.22,0,8.02,0,13.51,3.86,18.83,7.59,4.87,3.42,9.5,6.67,15.65,6.67.81,0,1.65-.06,2.52-.18,7.53-1.04,14.47-6.53,20.62-16.29.04-.06.1-.16.16-.27.13-.24.24-.56.06-.84ZM125.59,62.21s-.06.1-.11.17c-6.02,9.56-12.77,14.92-20.04,15.93-7.14.99-12.21-2.58-17.58-6.35-5.42-3.81-11.02-7.74-19.3-7.74-.08,0-.15,0-.23,0-8.05.07-12.96,3.83-17.71,7.46-5.04,3.85-9.8,7.5-17.95,6.41-10.13-1.35-19.96-9.36-21.97-15.61h0c-.03-.09-.07-.18-.12-.28,9.18-3.57,38.86-14.53,57.14-14.53.24,0,.47,0,.71,0,18.2.29,48.05,11.08,57.17,14.54Z"/>
      </g>
      <path d="M100.21,81.15c-6.32,0-10.99-3.28-15.94-6.76-5.25-3.69-10.67-7.5-18.54-7.5h-.22c-7.6.07-12.34,3.69-16.91,7.19-5.27,4.03-10.24,7.83-18.93,6.67-10.78-1.44-20.65-9.65-22.97-16.25-1.36.54-3.44,1.27-4.83,1.27-.74,0-1.26-.2-1.56-.6-.6-.79-.34-2,1.11-8.3,1.19-5.16,2.98-12.93,4.93-24.02,3.05-17.35,16.57-21.13,28.5-24.46,3.34-.93,6.46-1.8,9.33-2.93l1.48-.58v.04c6.2-2.38,13.05-3.81,19.43-4.05l.74-.04h.56s1.43,0,1.43,0v.05c8.15.32,16.95,2.58,24.22,6.21,1.41.42,2.93.85,4.5,1.29,11.93,3.33,25.44,7.1,28.5,24.46.77,4.36,1.48,8.33,2.12,11.88l.06.35c3.38,18.82,3.63,20.84,2.69,21.64-.29.25-.69.31-1.05.18-1.69-.6-3.82-1.64-5.16-2.33-6.21,9.82-13.24,15.34-20.9,16.4-.86.12-1.73.18-2.59.18ZM65.73,65.89c8.18,0,13.74,3.9,19.11,7.68,4.82,3.38,9.37,6.58,15.37,6.58.81,0,1.63-.06,2.45-.17,7.37-1.02,14.19-6.43,20.27-16.07.05-.07.1-.15.15-.24l.23-.43.44.23c1.01.53,3.56,1.82,5.45,2.49.61-.61-.6-7.52-2.97-20.71l-.06-.35c-.64-3.56-1.35-7.53-2.12-11.89-2.94-16.73-16.14-20.42-27.78-23.67-1.58-.44-3.11-.87-4.6-1.32-7.37-3.68-16.23-5.91-24.37-6.16l-.48-.02h-.43s-.48,0-.48,0h0s-.44.02-.44.02c-6.64.2-13.83,1.73-20.26,4.31l-.82.33v-.06c-2.87,1.11-5.96,1.98-9.23,2.89-11.69,3.26-24.88,6.95-27.82,23.68-1.96,11.12-3.75,18.91-4.94,24.06-1.05,4.54-1.62,7.04-1.28,7.49.09.13.37.2.76.2,1.02,0,2.81-.5,4.92-1.38l.43-.18.21.42-.4.32.44-.23c.04.07.07.14.09.21,2.05,6.36,11.69,14.43,22.24,15.84,8.28,1.1,13.1-2.58,18.19-6.47,4.71-3.61,9.58-7.33,17.52-7.4h.22Z"/>
    </g>
  </g>
</svg>