<?xml version="1.0" encoding="UTF-8"?>
<svg id="Layer_2" data-name="Layer 2" xmlns="http://www.w3.org/2000/svg" viewBox="0 0 162.38 172.07">
  <defs>
    <style>
      .cls-1 {
        fill: #424242;
      }

      .cls-2 {
        fill: none;
        stroke: #000;
        stroke-miterlimit: 10;
        stroke-width: 1.5px;
      }

      .cls-3 {
        fill: #a8a8a8;
      }

      .cls-4 {
        fill: #828282;
      }

      .cls-5 {
        fill: #cae4ea;
      }
    </style>
  </defs>
  <g id="Layer_1-2" data-name="Layer 1">
    <g>
      <g>
        <path class="cls-1" d="M6.55,64.33c-1.49,0-2.7,1.21-2.7,2.7v21.63c0,1.49,1.21,2.7,2.7,2.7h3.51v-27.02h-3.51Z"/>
        <path class="cls-1" d="M159.68,64.48h-3.51v27.02h3.51c1.49,0,2.7-1.21,2.7-2.7v-21.63c0-1.49-1.21-2.7-2.7-2.7Z"/>
        <path class="cls-1" d="M83.12,3.05c-25.19,0-47.07,12.19-58.07,30.08h116.14C130.19,15.24,108.31,3.05,83.12,3.05Z"/>
        <path class="cls-4" d="M156.17,39.11c0-3.29-2.7-5.99-5.99-5.99H16.05c-3.29,0-5.99,2.7-5.99,5.99v66.98c0,36.29,29.69,65.97,65.97,65.97h14.16c36.29,0,65.97-29.69,65.97-65.97V39.11ZM72.77,151.4c.02.17-.11.31-.25.31s-.27-.14-.25-.31v-14.34c-.01-.15.11-.27.25-.27s.26.13.25.27v14.34ZM78.34,154.93c.01.15-.11.27-.25.27s-.26-.12-.25-.27v-21.4c0-.14.11-.27.25-.27s.26.12.25.27v21.4ZM83.37,157.24c.03.19-.11.34-.25.34s-.28-.15-.25-.34v-26.02c0-.14.11-.26.25-.26s.25.12.25.26v26.02ZM88.4,154.93c0,.14-.11.24-.25.24s-.25-.11-.25-.24v-21.4c0-.13.11-.24.25-.24s.25.11.25.24v21.4ZM93.97,151.4c0,.16-.14.28-.28.26-.12-.01-.22-.12-.22-.26v-14.34c-.01-.15.1-.28.23-.29.14,0,.28.12.27.29v14.34ZM148.75,96.84c0,6.7-5.43,12.12-12.12,12.12H29.61c-6.7,0-12.12-5.43-12.12-12.12v-31.21c0-6.7,5.43-12.12,12.12-12.12h107.01c6.7,0,12.12,5.43,12.12,12.12v31.21Z"/>
        <path class="cls-3" d="M136.62,53.5H29.61c-6.7,0-12.12,5.43-12.12,12.12v31.21c0,6.7,5.43,12.12,12.12,12.12h107.01c6.7,0,12.12-5.43,12.12-12.12v-31.21c0-6.7-5.43-12.12-12.12-12.12ZM125.25,103.07H40.98c-5.27,0-9.55-4.27-9.55-9.55v-24.58c0-5.27,4.27-9.55,9.55-9.55h84.27c5.27,0,9.55,4.27,9.55,9.55v24.58c0,5.27-4.27,9.55-9.55,9.55Z"/>
        <rect class="cls-5" x="31.44" y="59.4" width="103.37" height="43.67" rx="9.55" ry="9.55"/>
        <path class="cls-1" d="M83.12,130.96c-.14,0-.25.12-.25.26v26.02c-.03.19.11.34.25.34s.28-.15.25-.34v-26.02c0-.14-.11-.26-.25-.26Z"/>
        <path class="cls-1" d="M88.15,133.29c-.13,0-.25.11-.25.24v21.4c0,.14.11.24.25.24s.25-.11.25-.24v-21.4c0-.13-.11-.24-.25-.24Z"/>
        <path class="cls-1" d="M93.71,136.77c-.13,0-.25.13-.23.29v14.34c0,.14.1.25.22.26.14.02.28-.1.28-.26v-14.34c.01-.16-.12-.29-.27-.29Z"/>
        <path class="cls-1" d="M78.09,133.26c-.14,0-.26.12-.25.27v21.4c-.01.15.11.27.25.27s.26-.12.25-.27v-21.4c0-.14-.11-.27-.25-.27Z"/>
        <path class="cls-1" d="M72.52,136.78c-.14,0-.26.13-.25.27v14.34c-.02.17.11.31.25.31s.27-.14.25-.31v-14.34c.01-.15-.11-.27-.25-.27Z"/>
      </g>
      <path class="cls-2" d="M156.58,62.18h-3.51v-25.37c0-3.29-2.7-5.99-5.99-5.99h-8.99C127.08,12.94,105.21.75,80.01.75S32.94,12.94,21.94,30.83h-8.99c-3.29,0-5.99,2.7-5.99,5.99v25.22h-3.51c-1.49,0-2.7,1.21-2.7,2.7v21.63c0,1.49,1.21,2.7,2.7,2.7h3.51v14.74c0,36.29,29.69,65.97,65.97,65.97h14.16c36.29,0,65.97-29.69,65.97-65.97v-14.59h3.51c1.49,0,2.7-1.21,2.7-2.7v-21.63c0-1.49-1.21-2.7-2.7-2.7Z"/>
    </g>
  </g>
</svg>