<?xml version="1.0" encoding="UTF-8"?>
<svg id="Layer_2" data-name="Layer 2" xmlns="http://www.w3.org/2000/svg" viewBox="0 0 248.86 160.43">
  <defs>
    <style>
      .cls-1 {
        fill: #424242;
      }

      .cls-2 {
        fill: #e06500;
      }

      .cls-3 {
        fill: #828282;
      }

      .cls-4 {
        fill: #6b6b6b;
      }

      .cls-5 {
        fill: #0c0500;
      }
    </style>
  </defs>
  <g id="Layer_1-2" data-name="Layer 1">
    <g>
      <g>
        <path class="cls-1" d="M242.76,79.06l-5.3-.23c-1.41-.06-2.5-.9-2.54-1.93-1.57-41.13-55.44-67.25-113.65-67.25S21.9,35.77,20.74,76.91c-.03,1.02-1.12,1.87-2.53,1.93l-4.7.21c-1.58.07-2.93-.85-2.89-1.99C12.2,34.65,60.9.5,120.54.5s123.03,34.15,125.09,76.56c.06,1.14-1.3,2.06-2.87,2Z"/>
        <g>
          <path class="cls-1" d="M63.94,71.77c-3.28-1.7-7.57-.97-10.8-.33.27.58.45,1.27.48,2.03.64,16.66.92,34.32.7,52.88-.11,9.68-.35,19.1-.7,28.23-.02.51-.11.98-.24,1.41,2.52.68,11.07,2.73,12.79-.2,2.02-3.44,1.46-19.43,2.08-39.88.62-20.45.31-41.73-4.31-44.13Z"/>
          <path class="cls-2" d="M45.99,117.7c0-1.14-.94-2.07-2.09-2.07-.38,0-.73.11-1.03.28l2.37,3.36c.46-.38.75-.94.75-1.58Z"/>
          <path class="cls-2" d="M45.1,119.38l-.07.05s.05-.03.07-.05Z"/>
          <path class="cls-2" d="M42.72,115.99h0s0,0,0,0Z"/>
          <path class="cls-2" d="M48.56,134.41c-.07-.05-.15-.1-.21-.17l-26.92-32.44c-.28-.34-.23-.84.11-1.12l.06-.05c-2.29-2.27-5.74-7.99-6.14-11.64-.06-.53-.05-1.18-.03-1.9-7.23,13.98-14.99,33.92-10.26,48.72,5.55,17.36,17.73,20.62,23.64,21.38,4.07.52,13.92.92,19.67,1.13.36.01.7-.02,1.04-.08-.34-.02-.69-.04-1.05-.07l.1-23.75Z"/>
          <path class="cls-2" d="M43.9,119.76c.4,0,.76-.12,1.08-.3l-2.38-3.37c-.48.38-.79.95-.79,1.61,0,1.14.94,2.07,2.09,2.07Z"/>
          <path class="cls-2" d="M16.75,88.85c.36,3.33,3.81,9.04,5.86,10.97l.61-.5c.35-.28.85-.23,1.14.11l12.25,14.76c3.75,1.22,6.23-3.54,10.02,1.2,4.72,5.9-2.67,6.26.52,11.51l1.44,1.73.24-58.82c.2,0,.41-.02.61-.03-.3-.05-.6-.07-.92-.06-6.9.18-13.79.36-20.69.54-1.54.04-2.93.78-3.71,1.96-1.54,2.34-4.29,6.7-7.28,12.23-.01.59-.04,1.16-.06,1.68-.05,1.1-.09,2.04-.02,2.72Z"/>
          <path class="cls-3" d="M54.32,126.35c.22-18.56-.07-36.23-.7-52.88-.03-.76-.2-1.45-.48-2.03-.5-1.07-1.33-1.75-2.27-1.71-.48.02-.96.04-1.44.06-.2,0-.41.02-.61.03l-.24,58.82,2.69,3.25c.28.34.23.84-.11,1.12l-1.67,1.35c-.27.22-.65.23-.93.05l-.1,23.75c.36.02.71.05,1.05.07.47.03.92.06,1.34.08,1.11.07,2.09-.9,2.53-2.32.13-.43.22-.91.24-1.41.35-9.13.59-18.54.7-28.23Z"/>
          <path class="cls-1" d="M47.16,126.93l-10.57-12.74s0,0,.01,0l-12.25-14.76c-.28-.34-.79-.39-1.14-.11l-.61.5c.21.2.42.37.6.48l-.69,1.08c-.27-.17-.58-.42-.91-.75l-.06.05c-.35.28-.4.78-.11,1.12l26.92,32.44c.06.07.13.12.21.17.29.17.66.17.93-.05l1.67-1.35c.35-.28.4-.78.11-1.12l-2.69-3.25-1.44-1.73s0,.02.02.03Z"/>
          <path class="cls-4" d="M47.16,126.93s0-.02-.02-.03c-3.19-5.25,4.2-5.6-.52-11.51-3.79-4.74-6.27.02-10.02-1.2,0,0,0,0-.01,0l10.57,12.74ZM42.6,116.09h0s.13-.1.13-.1c0,0,0,0,0,0l.12-.08h0c.31-.16.66-.27,1.03-.27,1.16,0,2.09.93,2.09,2.07,0,.64-.3,1.2-.75,1.58h0s-.14.11-.14.11c-.02.02-.05.03-.07.05l-.05.04h0c-.32.18-.68.3-1.08.3-1.16,0-2.09-.92-2.09-2.07,0-.65.31-1.23.79-1.61Z"/>
          <polygon points="44.98 119.47 45.03 119.43 45.1 119.38 45.24 119.28 45.24 119.27 42.86 115.91 42.85 115.9 42.73 115.98 42.72 115.99 42.59 116.08 42.6 116.09 44.98 119.46 44.98 119.47"/>
          <path class="cls-3" d="M15.47,88.99c.4,3.65,3.85,9.37,6.14,11.64.33.33.64.58.91.75l.69-1.08c-.18-.11-.38-.28-.6-.48-2.05-1.93-5.5-7.65-5.86-10.97-.07-.67-.03-1.62.02-2.72.02-.52.05-1.09.06-1.68.08-3.33-.18-7.59-2.99-10.83l-.98.83c2.98,3.44,2.77,8.17,2.62,11.62-.02.35-.03.68-.04,1.01-.02.72-.03,1.37.03,1.9Z"/>
        </g>
        <g>
          <path class="cls-1" d="M188.65,73.38c3.28-1.7,7.57-.97,10.8-.33-.27.58-.45,1.27-.48,2.03-.64,16.66-.92,34.32-.7,52.88.11,9.68.35,19.1.7,28.23.02.51.11.98.24,1.41-2.52.68-11.07,2.73-12.79-.2-2.02-3.44-1.46-19.43-2.08-39.88-.62-20.45-.31-41.73,4.31-44.13Z"/>
          <path class="cls-2" d="M206.6,119.31c0-1.14.94-2.07,2.09-2.07.38,0,.73.11,1.03.28l-2.37,3.36c-.46-.38-.75-.94-.75-1.58Z"/>
          <path class="cls-2" d="M207.49,120.99l.07.05s-.05-.03-.07-.05Z"/>
          <path class="cls-2" d="M209.87,117.6h0s0,0,0,0Z"/>
          <path class="cls-2" d="M204.03,136.02c.07-.05.15-.1.21-.17l26.92-32.44c.28-.34.23-.84-.11-1.12l-.06-.05c2.29-2.27,5.74-7.99,6.14-11.64.06-.53.05-1.18.03-1.9,7.23,13.98,14.99,33.92,10.26,48.72-5.55,17.36-17.73,20.62-23.64,21.38-4.07.52-13.92.92-19.67,1.13-.36.01-.7-.02-1.04-.08.34-.02.69-.04,1.05-.07l-.1-23.75Z"/>
          <path class="cls-2" d="M208.69,121.37c-.4,0-.76-.12-1.08-.3l2.38-3.37c.48.38.79.95.79,1.61,0,1.14-.94,2.07-2.09,2.07Z"/>
          <path class="cls-2" d="M235.84,90.46c-.36,3.33-3.81,9.04-5.86,10.97l-.61-.5c-.35-.28-.85-.23-1.14.11l-12.25,14.76c-3.75,1.22-6.23-3.54-10.02,1.2-4.72,5.9,2.67,6.26-.52,11.51l-1.44,1.73-.24-58.82c-.2,0-.41-.02-.61-.03.3-.05.6-.07.92-.06,6.9.18,13.79.36,20.69.54,1.54.04,2.93.78,3.71,1.96,1.54,2.34,4.29,6.7,7.28,12.23.01.59.04,1.16.06,1.68.05,1.1.09,2.04.02,2.72Z"/>
          <path class="cls-3" d="M198.27,127.96c-.22-18.56.07-36.23.7-52.88.03-.76.2-1.45.48-2.03.5-1.07,1.33-1.75,2.27-1.71.48.02.96.04,1.44.06.2,0,.41.02.61.03l.24,58.82-2.69,3.25c-.28.34-.23.84.11,1.12l1.67,1.35c.27.22.65.23.93.05l.1,23.75c-.36.02-.71.05-1.05.07-.47.03-.92.06-1.34.08-1.11.07-2.09-.9-2.53-2.32-.13-.43-.22-.91-.24-1.41-.35-9.13-.59-18.54-.7-28.23Z"/>
          <path class="cls-1" d="M205.43,128.55l10.57-12.74s0,0-.01,0l12.25-14.76c.28-.34.79-.39,1.14-.11l.61.5c-.21.2-.42.37-.6.48l.69,1.08c.27-.17.58-.42.91-.75l.06.05c.35.28.4.78.11,1.12l-26.92,32.44c-.06.07-.13.12-.21.17-.29.17-.66.17-.93-.05l-1.67-1.35c-.35-.28-.4-.78-.11-1.12l2.69-3.25,1.44-1.73s0,.02-.02.03Z"/>
          <path class="cls-4" d="M215.99,115.81s0,0-.01,0c-3.75,1.22-6.23-3.54-10.02,1.2-4.72,5.9,2.67,6.26-.52,11.51,0,.01,0,.02-.02.03l10.57-12.74ZM210.79,119.31c0,1.14-.94,2.07-2.09,2.07-.4,0-.76-.12-1.08-.3h0s-.05-.03-.05-.03c-.02-.02-.05-.03-.07-.05l-.14-.1h0c-.46-.39-.75-.95-.75-1.59,0-1.14.94-2.07,2.09-2.07.38,0,.73.11,1.03.28h0s.12.07.12.07c0,0,0,0,0,0l.13.09h0c.48.39.79.97.79,1.62Z"/>
          <polygon points="207.61 121.08 207.56 121.04 207.49 120.99 207.35 120.89 207.35 120.88 209.73 117.52 209.74 117.51 209.86 117.59 209.87 117.6 210 117.69 210 117.7 207.62 121.07 207.61 121.08"/>
          <path class="cls-3" d="M237.12,90.6c-.4,3.65-3.85,9.37-6.14,11.64-.33.33-.64.58-.91.75l-.69-1.08c.18-.11.38-.28.6-.48,2.05-1.93,5.5-7.65,5.86-10.97.07-.67.03-1.62-.02-2.72-.02-.52-.05-1.09-.06-1.68-.08-3.33.18-7.59,2.99-10.83l.98.83c-2.98,3.44-2.77,8.17-2.62,11.62.02.35.03.68.04,1.01.02.72.03,1.37-.03,1.9Z"/>
        </g>
      </g>
      <path class="cls-5" d="M198.4,160.43c-1.15,0-2.18-.85-2.74-2.23-3.62.94-11.14,2.46-12.9-.55-1.51-2.57-1.63-11.03-1.82-23.84-.07-4.89-.15-10.43-.33-16.29-.85-28.36.6-42.53,4.58-44.59,3.2-1.67,7.2-1.14,10.76-.45.62-1.08,1.54-1.71,2.56-1.65l1.39.06c.32-.05.64-.07.96-.06l20.69.54c1.71.04,3.25.86,4.12,2.19,1.27,1.93,3.68,5.71,6.37,10.56.05-1.58.25-3.35.82-5.09-1-.41-1.64-1.2-1.67-2.11-.73-19.07-13.27-36.34-35.33-48.63-20.98-11.7-48.62-18.14-77.82-18.14s-53.4,6.26-71.38,18.12c-17.82,11.74-27.69,28.13-28.6,47.46.99-1.61,1.82-2.9,2.41-3.79.87-1.33,2.41-2.14,4.12-2.19l20.69-.54c.33,0,.67.01,1.01.07l1.34-.07c1.01-.04,1.94.57,2.56,1.65,3.56-.69,7.56-1.21,10.76.45,3.98,2.07,5.43,16.23,4.58,44.59-.18,5.86-.26,11.4-.33,16.29-.19,12.81-.31,21.27-1.82,23.84-1.77,3.01-9.29,1.49-12.9.55-.58,1.43-1.66,2.29-2.88,2.22l-1.25-.08c-.38.06-.75.09-1.11.08-5.59-.2-15.59-.6-19.71-1.13-8.13-1.04-18.91-5.65-24.05-21.72-4.76-14.89,2.92-34.85,10.24-49,0-.29.02-.59.04-.9.08-1.92.19-4.28-.28-6.56l-1.16.05c-1.06.07-2.1-.31-2.75-.95-.45-.44-.68-1-.66-1.56.77-20.7,12.63-40.08,33.4-54.57C61.05,7.98,88.4,0,117.31,0c57.52,0,123.45,32.95,125.59,77.04.03.56-.2,1.11-.64,1.56-.65.65-1.67,1-2.75.97l-4.35-.19c-1.01,2.76-.88,5.82-.77,8.3.01.31.03.61.04.9,7.31,14.16,15,34.11,10.24,49.01-5.14,16.07-15.91,20.68-24.05,21.72-4.09.52-14.1.93-19.71,1.13-.34,0-.69-.01-1.08-.08l-1.28.08s-.09,0-.14,0ZM196.32,156.99l.14.46c.38,1.25,1.18,2.02,2.02,1.97l1.39-.09h.06c.34.07.65.1.93.08,5.59-.2,15.57-.6,19.62-1.12,7.85-1,18.24-5.46,23.22-21.03,4.67-14.6-2.98-34.35-10.23-48.34l-.06-.21c-.01-.32-.02-.65-.04-1-.12-2.67-.26-6,.96-9.04l.13-.33,5.07.22c.79.06,1.56-.22,2-.67.17-.17.37-.45.35-.8-.96-19.83-15.42-38.92-40.71-53.78C177.05,9.13,146.48,1,117.31,1s-55.85,7.92-76.44,22.29C20.36,37.6,8.65,56.7,7.89,77.08c-.01.36.19.64.36.81.45.45,1.22.69,2,.66l2-.09.1.4c.6,2.54.49,5.15.4,7.24-.02.35-.03.68-.04,1l-.06.21c-7.24,13.99-14.9,33.74-10.23,48.34,4.98,15.57,15.38,20.03,23.22,21.03,4.08.52,14.04.93,19.62,1.12.28,0,.59-.01.93-.07h.06s1.39.07,1.39.07c.86.04,1.64-.72,2.02-1.97l.14-.46.47.13c4.88,1.31,11.01,2.11,12.23.03,1.38-2.34,1.51-11.61,1.68-23.34.07-4.89.15-10.44.33-16.3.82-27.16-.54-41.86-4.04-43.68-3.03-1.57-6.99-.97-10.47-.29l-.38.08-.17-.35c-.43-.92-1.1-1.4-1.79-1.43l-1.44.06c-.38-.05-.66-.07-.92-.06l-20.69.54c-1.38.04-2.62.69-3.31,1.74-1.4,2.14-4.21,6.56-7.26,12.2l-.99,1.83.05-2.08c.03-1.36.02-3.41-.42-5.41l-.13-.58,2.41-.11c1.13-.05,2.03-.69,2.05-1.45.57-20.19,10.63-37.29,29.09-49.45,18.15-11.96,43.02-18.28,71.93-18.28s57.18,6.49,78.31,18.26c22.37,12.47,35.1,30.04,35.84,49.47.02.59.6,1.13,1.43,1.35l.54.14-.19.52c-.92,2.49-.98,5.14-.93,7.16l.05,2.08-.99-1.83c-3.04-5.63-5.86-10.06-7.26-12.2-.69-1.05-1.93-1.7-3.31-1.74l-20.69-.54c-.27,0-.55.01-.82.06h-.05s-1.49-.06-1.49-.06c-.69-.02-1.36.5-1.8,1.42l-.17.35-.38-.08c-3.48-.69-7.45-1.29-10.47.29-3.5,1.82-4.86,16.51-4.04,43.67.18,5.86.26,11.41.33,16.3.17,11.73.3,21,1.68,23.34,1.22,2.08,7.35,1.28,12.23-.03l.47-.13ZM13.77,79.39c.2,1.09.29,2.16.32,3.12.66-1.18,1.29-2.3,1.9-3.34-.31.09-.64.15-.99.17l-1.24.06Z"/>
    </g>
  </g>
</svg>