<?xml version="1.0" encoding="UTF-8"?>
<svg id="Layer_2" data-name="Layer 2" xmlns="http://www.w3.org/2000/svg" viewBox="0 0 227.3 235.83">
  <defs>
    <style>
      .cls-1 {
        fill: #ffba0a;
      }
    </style>
  </defs>
  <g id="Layer_1-2" data-name="Layer 1">
    <g>
      <g>
        <path class="cls-1" d="M41.85,39.78c9.91-16.32,12.43-15.11,23.69-19.01,7.84-2.72,22.09-17.27,35.49-18.39,13.4-1.12,30.71,6.14,41.31,10.61,10.61,4.47,24.01,3.79,31.82,8.04,7.82,4.24,19.54,18.2,22.33,32.72,2.79,14.52,8.93,28.47,16.75,39.64,7.82,11.17,19.54,48.57,11.17,63.09-8.37,14.52-17.86,26.24-26.24,34.06-8.37,7.82-23.45,15.63-45.78,13.4-22.33-2.23-32.94-3.35-49.69-2.79-16.75.56-49.13,2.23-64.76-11.72-15.63-13.96-29.03-22.89-25.12-45.78s5.58-33.5,14.52-50.8c8.93-17.31,5.02-37.4,14.52-53.04Z"/>
        <path d="M215.73,122.57c-2.75-12.07-7.64-24.74-11.89-30.81-8-11.42-13.86-25.3-16.5-39.06-2.97-15.46-15.32-29.53-23.09-33.75-4.21-2.29-9.78-3.19-15.68-4.15-5.53-.9-11.24-1.83-16.27-3.95C121.75,6.4,104.11-1.03,90.28.12c-8.9.74-18.05,7.07-25.41,12.16-4.17,2.89-7.77,5.38-10.45,6.31-1.49.52-2.82.94-4.03,1.33-8.18,2.61-11.56,3.69-20.45,18.32-5.04,8.31-6.44,17.94-7.79,27.26-1.26,8.7-2.56,17.69-6.78,25.87-8.84,17.13-10.7,28.03-14.41,49.75l-.25,1.49c-3.68,21.53,7.3,31.13,21.21,43.28,1.44,1.25,2.9,2.54,4.39,3.87,12.72,11.36,36.2,12.66,53.56,12.44,1.46,10.17,2.48,19.85,1.92,21-.88,1.46-5.82,1.87-9.08,1.16-1.2-.26-2.93-.87-4.95-1.58-4.29-1.51-9.63-3.38-13.95-3.38-2.32,0-4.3,1.14-5.56,3.2-1.94,3.16-1.93,8.06.02,11.91.41.81,1.2,1.32,2.06,1.32h38.99c1.09,0,1.97-.94,1.97-2.09v-31.85l.83-.03c10.47-.35,18.59-.03,28.67.8v31.08c0,1.15.88,2.09,1.97,2.09h38.99c.86,0,1.65-.5,2.06-1.32,1.95-3.85,1.96-8.75.02-11.91-1.27-2.06-3.24-3.2-5.56-3.2-4.32,0-9.66,1.87-13.95,3.38-2.01.71-3.75,1.32-4.95,1.57-3.27.71-8.2.3-9.08-1.15-.54-1.1.36-9.91,1.71-19.52,2.51.25,5.17.51,8.03.8l1.58.16c2.73.27,5.33.4,7.82.4,20.59,0,33.17-8.63,39.13-14.19,9.32-8.7,18.73-20.91,26.51-34.4,5.22-9.05,2.65-25.11.65-33.88ZM141.91,201.66l-1.58-.16c-2.81-.28-5.42-.54-7.9-.79-.5-.05-1.01-.1-1.5-.15-.14.92-.28,1.92-.43,2.97-1.12,7.96-2.44,18.86-1.49,20.43,1.55,2.57,7.83,2.47,10.68,1.85,1.29-.28,3.07-.9,5.13-1.63,4.18-1.47,9.39-3.3,13.46-3.3,2.28,0,3.59,1.35,4.29,2.49,1.68,2.74,1.65,7.04-.08,10.45-.15.3-.43.49-.72.49h-38.99c-.25,0-.47-.27-.47-.59v-33.96c-.5-.04-1.01-.09-1.5-.13-7.32-.6-13.63-.93-20.57-.93-2.61,0-5.32.05-8.2.14l-.73.02-1.19.04c-.1,0-.21,0-.31.01v34.8c0,.32-.21.59-.47.59h-38.99c-.29,0-.57-.19-.72-.49-1.73-3.41-1.76-7.71-.08-10.45.7-1.13,2.01-2.49,4.29-2.49,4.06,0,9.27,1.83,13.45,3.3,2.06.72,3.84,1.35,5.13,1.63,2.85.62,9.13.72,10.68-1.85,1-1.66-.53-13.77-1.69-21.8-.16-1.09-.31-2.09-.44-2.99-.5,0-1,.02-1.51.02-11.34.13-25.2-.42-36.67-4.02,6.89-1.55,14.85-6.03,23.87-11.11,7.29-4.11,15.34-8.63,23.99-12.21.61.55,1.22,1.09,1.83,1.64,12.73,11.42,25.89,23.24,39.54,23.59,5.85.15,11.11.44,15.75.7,5.12.28,9.67.53,13.84.53s7.98-.26,11.57-.99c-7.61,3.34-17.91,5.66-31.25,4.32ZM212.48,154.95c-7.64,13.24-16.86,25.21-25.96,33.71-1.52,1.42-3.5,3.05-5.97,4.67-9.05,4.25-18.75,3.73-32.72,2.96-4.65-.26-9.92-.55-15.79-.7-13.1-.33-26.05-11.96-38.58-23.2-.43-.38-.86-.77-1.29-1.15,11.55-4.59,24.16-7.4,37.51-5.25,20.29,3.28,25.25-4.12,26.41-8.82,2.15-8.77-5.6-21.02-15.36-24.27-7.35-2.45-21.23-1.64-38.71,1.76-21.17-10.9-38.5-18.72-52.69-12.7-7.48,3.17-12.03,9.34-11.31,15.34.61,5.14,5.01,9.22,12.32,11.66-8.26,2.85-16.67,5.99-25.07,9.41l.56,1.39c9.01-3.66,18.09-7.03,27.01-10.05.91-.31,1.81-.6,2.71-.9,37.72-12.52,72.02-18.7,84.7-14.47,8.94,2.98,16.33,14.54,14.38,22.49-1.78,7.25-10.55,9.98-24.71,7.7-13.96-2.25-27.06.77-39,5.61-.52.21-1.03.42-1.54.63-8.46,3.57-16.32,8-23.47,12.02-10.13,5.7-18.92,10.64-26.1,11.39-4.38-1.65-8.32-3.81-11.49-6.65-1.5-1.34-2.97-2.63-4.42-3.89-13.71-11.98-23.62-20.64-20.23-40.52l.25-1.49c3.77-22.08,5.48-32.16,14.11-48.88,4.45-8.62,5.79-17.87,7.08-26.81,1.37-9.44,2.66-18.35,7.38-26.13,8.3-13.67,10.94-14.52,18.79-17.02,1.24-.4,2.59-.83,4.11-1.35,3.06-1.06,6.82-3.66,11.17-6.67,7.06-4.88,15.85-10.96,23.95-11.64,13.08-1.1,30.31,6.16,40.61,10.5,5.36,2.26,11.25,3.22,16.96,4.14,5.64.92,10.97,1.79,14.73,3.83,7.06,3.84,18.81,17.33,21.57,31.68,2.72,14.17,8.76,28.45,16.99,40.21,7.2,10.28,19.13,47.55,11.1,61.47ZM39.58,134.67c.3-1.95,1.22-3.89,2.64-5.66,1.79-.24,11.41-1.27,18.52,2.95l.77-1.29c-6.27-3.72-14.07-3.63-17.75-3.33,1.67-1.59,3.76-2.97,6.16-3.99,13.22-5.61,29.69,1.53,49.74,11.79-13.97,2.85-30.08,7.28-46.9,12.99-7.89-2.15-12.65-6.04-13.24-11.01-.04-.31-.06-.63-.06-.95,7.66.23,16.2,3.84,16.29,3.88l.59-1.38c-.37-.16-8.84-3.74-16.76-4Z"/>
      </g>
      <path d="M104.41,116.58h0c.85,0,1.58.65,1.63,1.51.47,7.25,4.3,13.12,8.77,13.12s8.3-5.87,8.77-13.12c.06-.85.78-1.51,1.63-1.51h0c.96,0,1.7.82,1.64,1.78-.58,9.18-5.67,16.14-12.05,16.14s-11.46-6.96-12.05-16.14c-.06-.96.68-1.78,1.64-1.78Z"/>
      <ellipse cx="110.14" cy="79.47" rx="7.09" ry="11.02"/>
      <path d="M148.56,75.45c-1.74-1.62-6.37-5.07-12.35-2.61-5.69,2.33-7.26,6.7-7.69,8.83-.12.57.21,1.11.67,1.23.03,0,.06.02.09.03.02,0,.04.02.06.02.03,0,.06-.01.1-.02.06,0,.12-.01.18-.03.01,0,.03-.01.04-.02.14-.05.27-.13.37-.26.71-.87,2.44-2.4,6.03-2.7,3.71-.31,5.79,1.73,6.64,2.83.28.37.74.45,1.09.19h.02c.46-.35.55-1.1.18-1.58-1.09-1.43-3.64-3.89-8.05-3.53-1.88.16-3.33.64-4.46,1.22.95-1.51,2.57-3.13,5.31-4.26,5.21-2.14,9.25.91,10.71,2.28.35.33.85.29,1.16-.09h0c.37-.45.32-1.17-.09-1.56Z"/>
    </g>
  </g>
</svg>