<?xml version="1.0" encoding="UTF-8"?>
<svg id="Layer_2" data-name="Layer 2" xmlns="http://www.w3.org/2000/svg" viewBox="0 0 262.8 235.83">
  <defs>
    <style>
      .cls-1 {
        fill: #ffba0a;
      }
    </style>
  </defs>
  <g id="Layer_1-2" data-name="Layer 1">
    <g>
      <path class="cls-1" d="M61.88,39.78c9.91-16.32,12.43-15.11,23.69-19.01,7.84-2.72,22.09-17.27,35.49-18.39,13.4-1.12,30.71,6.14,41.31,10.61,10.61,4.47,24.01,3.79,31.82,8.04,7.82,4.24,19.54,18.2,22.33,32.72,2.79,14.52,8.93,28.47,16.75,39.64,7.82,11.17,19.54,48.57,11.17,63.09-8.37,14.52-17.86,26.24-26.24,34.06-8.37,7.82-23.45,15.63-45.78,13.4-22.33-2.23-32.94-3.35-49.69-2.79-16.75.56-49.13,2.23-64.76-11.72s-29.03-22.89-25.12-45.78,5.58-33.5,14.52-50.8c8.93-17.31,5.02-37.4,14.52-53.04Z"/>
      <path d="M262.49,121.27c-.89-5.5-3.53-9.76-5.7-11.91-.32-.31-.65-.69-1.04-1.12-3.2-3.54-9.31-10.28-27.96-9.43-1.31-2.81-2.64-5.23-3.92-7.05-8-11.42-13.86-25.3-16.5-39.06-2.97-15.46-15.32-29.53-23.09-33.75-4.21-2.29-9.78-3.19-15.68-4.15-5.53-.9-11.24-1.83-16.27-3.95C141.77,6.4,124.13-1.03,110.3.12c-8.9.74-18.05,7.07-25.41,12.16-4.17,2.89-7.77,5.38-10.45,6.31-1.49.52-2.82.94-4.03,1.33-8.18,2.61-11.56,3.69-20.45,18.32-5.04,8.31-6.44,17.94-7.79,27.26-1.26,8.7-2.56,17.69-6.78,25.87-1.33,2.57-2.5,5.01-3.54,7.36-16.2,0-21.78,6.17-24.8,9.51-.39.43-.73.81-1.04,1.12-2.18,2.16-4.82,6.42-5.7,11.91-1.15,7.16.88,14.43,6.03,21.62,3.71,5.17,7.63,9.17,11.65,12.32.87.68,1.75,1.32,2.63,1.93,2.3,12.13,11.01,19.74,21.32,28.76,1.44,1.25,2.9,2.54,4.39,3.87,12.72,11.36,36.2,12.66,53.56,12.44,1.46,10.17,2.48,19.85,1.92,21-.88,1.46-5.82,1.87-9.08,1.16-1.2-.26-2.93-.87-4.95-1.58-4.29-1.51-9.63-3.38-13.95-3.38-2.32,0-4.3,1.14-5.56,3.2-1.94,3.16-1.93,8.06.02,11.91.41.81,1.2,1.32,2.06,1.32h38.99c1.09,0,1.97-.94,1.97-2.09v-31.85l.83-.03c10.47-.35,18.59-.03,28.67.8v31.08c0,1.15.88,2.09,1.97,2.09h38.99c.86,0,1.65-.5,2.06-1.32,1.95-3.85,1.96-8.75.02-11.91-1.27-2.06-3.24-3.2-5.56-3.2-4.32,0-9.66,1.87-13.95,3.38-2.01.71-3.75,1.32-4.95,1.57-3.27.71-8.2.3-9.08-1.15-.54-1.1.36-9.91,1.71-19.52,2.51.25,5.17.51,8.03.8l1.58.16c2.73.27,5.33.4,7.82.4,20.59,0,33.17-8.63,39.13-14.19,7.77-7.25,15.6-16.95,22.5-27.79,4.57-1.85,9.2-4.31,13.72-7.86,4.01-3.15,7.94-7.15,11.65-12.32,5.16-7.18,7.19-14.46,6.03-21.62ZM255.44,142.16c-7.22,10.05-15.27,15.59-23.2,19.07-1.59.7-3.17,1.31-4.74,1.86-3.11,1.09-6.17,1.93-9.13,2.68-1.46.37-2.79.54-4.01.54-3.5-7.2,9.54-16.43,9.67-16.53l-.71-1.02c-.57.4-13.39,9.48-10.35,17.48-3.03-.32-5.29-1.75-7.05-3.65-3.42-7.19,9.56-16.38,9.7-16.48l-.71-1.02c-.52.36-11.04,7.81-10.81,15.15-1.18-1.79-2.11-3.74-2.95-5.49-.17-.37-.34-.72-.51-1.06-3.81-7.86,4.91-15.89,8.84-18.97,5.59-4.39,17.54-10.96,22.72-13.73,1.5-.81,2.44-1.3,2.48-1.32l-.57-1.1s-.87.46-2.22,1.18c-5.05,2.7-17.41,9.48-23.17,14-8.81,6.91-12.16,14.38-9.19,20.49.17.34.33.69.51,1.06,1.19,2.51,2.65,5.56,4.85,8,.05.1.1.19.15.29l.07-.04c2.91,3.09,7.08,5.07,13.56,3.43,2.5-.63,5.09-1.34,7.71-2.19-6.21,9.28-13.07,17.55-19.85,23.89-6.31,5.89-20.5,15.42-44.61,13l-1.58-.16c-2.81-.28-5.42-.54-7.9-.79-.5-.05-1.01-.1-1.5-.15-.14.92-.28,1.92-.43,2.97-1.12,7.96-2.44,18.86-1.49,20.43,1.55,2.57,7.83,2.47,10.68,1.85,1.29-.28,3.07-.9,5.13-1.63,4.18-1.47,9.39-3.3,13.46-3.3,2.28,0,3.59,1.35,4.29,2.49,1.68,2.74,1.65,7.04-.08,10.45-.15.3-.43.49-.72.49h-38.99c-.25,0-.47-.27-.47-.59v-33.96c-.5-.04-1.01-.09-1.5-.13-7.32-.6-13.63-.93-20.57-.93-2.61,0-5.32.05-8.2.14l-.73.02-1.19.04c-.1,0-.21,0-.31.01v34.8c0,.32-.21.59-.47.59h-38.99c-.29,0-.57-.19-.72-.49-1.73-3.41-1.76-7.71-.08-10.45.7-1.13,2.01-2.49,4.29-2.49,4.06,0,9.27,1.83,13.45,3.3,2.06.72,3.84,1.35,5.13,1.63,2.85.62,9.13.72,10.68-1.85,1-1.66-.53-13.77-1.69-21.8-.16-1.09-.31-2.09-.44-2.99-.5,0-1,.02-1.51.02-16.85.19-39.28-1.11-51.13-11.69-1.5-1.34-2.97-2.63-4.42-3.89-9.25-8.08-16.76-14.66-19.63-24.17,6.73,3.89,13.52,5.92,19.83,7.51,6.48,1.64,10.66-.35,13.56-3.43l.07.04c.05-.1.11-.19.15-.29,2.2-2.44,3.66-5.49,4.85-8,.17-.36.34-.72.51-1.06,2.96-6.11-.39-13.58-9.19-20.49-7.3-5.73-25.21-15.08-25.39-15.18l-.57,1.1c.18.09,17.99,9.39,25.2,15.05,3.93,3.08,12.66,11.11,8.84,18.97-.17.34-.34.7-.51,1.06-.83,1.75-1.76,3.7-2.95,5.49.23-7.34-10.29-14.79-10.81-15.15l-.71,1.02c.13.1,13.11,9.29,9.7,16.48-1.77,1.9-4.02,3.33-7.05,3.65,3.04-8-9.77-17.08-10.35-17.48l-.71,1.02c.13.09,13.17,9.33,9.67,16.53-1.22,0-2.55-.17-4.01-.54-6.55-1.65-13.63-3.78-20.6-8.04-1.16-.71-2.33-1.48-3.48-2.32-4.48-3.25-8.87-7.51-12.98-13.24-13.43-18.71-.6-31.79-.46-31.92.34-.34.7-.74,1.09-1.17,2.85-3.16,8.1-8.95,23.33-9.09,1.03-.01,2.11,0,3.24.05.18-.41.36-.81.55-1.22.89-1.94,1.87-3.95,2.96-6.06,4.45-8.62,5.79-17.87,7.08-26.81,1.37-9.44,2.66-18.35,7.38-26.13,8.3-13.67,10.94-14.52,18.79-17.02,1.24-.4,2.59-.83,4.11-1.35,3.06-1.06,6.82-3.66,11.17-6.67,7.06-4.88,15.85-10.96,23.95-11.64,13.08-1.1,30.31,6.16,40.61,10.5,5.36,2.26,11.25,3.22,16.96,4.14,5.64.92,10.97,1.79,14.73,3.83,7.06,3.84,18.81,17.33,21.57,31.68,2.72,14.17,8.76,28.45,16.99,40.21.97,1.39,2.03,3.29,3.12,5.54.19.39.38.78.57,1.2,1.13-.09,2.2-.15,3.24-.19,17.67-.68,23.44,5.68,26.48,9.05.39.43.75.83,1.09,1.17.13.13,12.96,13.22-.46,31.92Z"/>
      <path d="M129.76,135.06c-.15,0-.31,0-.46,0-7-.1-9.24-2.52-9.9-4.54-.34-1.05.24-2.18,1.29-2.52,1.05-.34,2.18.24,2.52,1.29.19.58,1.72,1.7,6.15,1.77,4.33.06,9.77-.9,15.35-2.7,5.58-1.81,10.55-4.22,14.02-6.81,3.55-2.65,4.13-4.46,3.94-5.04-.34-1.05.24-2.18,1.29-2.52,1.05-.34,2.18.24,2.52,1.29.65,2.01.25,5.29-5.36,9.48-3.81,2.84-9.2,5.47-15.18,7.41-5.79,1.88-11.51,2.9-16.18,2.9Z"/>
      <path d="M144.38,67.43l-10.93.73c-.09,0-.18.03-.27.05-3.33.33-5.97,4.62-5.97,9.89s2.86,9.92,6.38,9.92,6.38-4.44,6.38-9.92c0-2.38-.54-4.56-1.43-6.26l6.12-.41c1.1-.07,1.94-1.03,1.86-2.13-.07-1.1-1.02-1.94-2.13-1.86Z"/>
      <path d="M168.73,67.43l-10.93.73c-.09,0-.18.03-.27.05-3.33.33-5.97,4.62-5.97,9.89s2.86,9.92,6.38,9.92,6.38-4.44,6.38-9.92c0-2.38-.54-4.56-1.43-6.26l6.12-.41c1.1-.07,1.94-1.03,1.86-2.13-.07-1.1-1.02-1.94-2.13-1.86Z"/>
    </g>
  </g>
</svg>