<?xml version="1.0" encoding="UTF-8"?>
<svg id="Layer_2" data-name="Layer 2" xmlns="http://www.w3.org/2000/svg" viewBox="0 0 260.78 242.91">
  <defs>
    <style>
      .cls-1 {
        fill: #ffba0a;
      }
    </style>
  </defs>
  <g id="Layer_1-2" data-name="Layer 1">
    <g>
      <g>
        <path class="cls-1" d="M60.71,46.86c9.91-16.32,12.43-15.11,23.69-19.01,7.84-2.72,22.09-17.27,35.49-18.39,13.4-1.12,30.71,6.14,41.31,10.61,10.61,4.47,24.01,3.79,31.82,8.04,7.82,4.24,19.54,18.2,22.33,32.72,2.79,14.52,8.93,28.47,16.75,39.64,7.82,11.17,19.54,48.57,11.17,63.09-8.37,14.52-17.86,26.24-26.24,34.06-8.37,7.82-23.45,15.63-45.78,13.4-22.33-2.23-32.94-3.35-49.69-2.79-16.75.56-49.13,2.23-64.76-11.72-15.63-13.96-29.03-22.89-25.12-45.78,3.91-22.89,5.58-33.5,14.52-50.8,8.93-17.31,5.02-37.4,14.52-53.04Z"/>
        <path d="M227.1,106.93c15.46-22.54,36.44-60.7,33.39-84.36-.93-7.21-4.07-12.58-9.33-15.99-9.35-6.05-16.29-7.91-21.21-5.67-6.78,3.07-8.29,13.32-9.63,22.37-.43,2.9-.83,5.65-1.39,8.07-2.05,9.03-7.49,20.09-12.88,27.71-3.21-15.17-15.29-28.89-22.94-33.04-4.21-2.29-9.78-3.19-15.68-4.15-5.53-.9-11.24-1.83-16.27-3.95-10.55-4.44-28.19-11.88-42.02-10.72-8.9.74-18.05,7.07-25.41,12.16-4.17,2.89-7.77,5.38-10.45,6.31-1.49.52-2.82.94-4.03,1.33-8.18,2.61-11.56,3.69-20.45,18.32-.37.61-.71,1.23-1.05,1.85-2.6-5.28-4.76-10.85-5.89-15.81-.55-2.43-.96-5.17-1.39-8.07-1.34-9.05-2.86-19.31-9.63-22.37-4.93-2.23-11.86-.37-21.21,5.67C4.37,9.99,1.23,15.37.3,22.57c-2.7,20.95,13.45,53.28,27.91,76.06l2.31,3.58c.36.55.71,1.08,1.07,1.62-6.62,14.24-8.46,25.01-11.76,44.36l-.25,1.49c-3.68,21.53,7.3,31.13,21.21,43.28,1.44,1.25,2.9,2.54,4.39,3.87,12.72,11.36,36.2,12.66,53.56,12.44,1.46,10.17,2.48,19.85,1.92,21-.88,1.46-5.82,1.87-9.08,1.16-1.2-.26-2.93-.87-4.95-1.58-4.29-1.51-9.63-3.38-13.95-3.38-2.32,0-4.3,1.14-5.56,3.2-1.94,3.16-1.93,8.06.02,11.91.41.81,1.2,1.32,2.06,1.32h38.99c1.09,0,1.97-.94,1.97-2.09v-31.85l.83-.03c10.47-.35,18.59-.03,28.67.8v31.08c0,1.15.88,2.09,1.97,2.09h38.99c.86,0,1.65-.5,2.06-1.32,1.95-3.85,1.96-8.75.02-11.91-1.27-2.06-3.24-3.2-5.56-3.2-4.32,0-9.66,1.87-13.95,3.38-2.01.71-3.75,1.32-4.95,1.57-3.27.71-8.2.3-9.08-1.15-.54-1.1.36-9.91,1.71-19.52,2.51.25,5.17.51,8.03.8l1.58.16c2.73.27,5.33.4,7.82.4,20.59,0,33.17-8.63,39.13-14.19,9.32-8.7,18.73-20.91,26.51-34.4,5.22-9.05,2.65-25.11.65-33.88-1.83-8.01-4.59-16.28-7.49-22.72ZM231.34,162.03c-7.64,13.24-16.86,25.21-25.96,33.71-6.31,5.89-20.5,15.42-44.61,13l-1.58-.16c-2.81-.28-5.42-.54-7.9-.79-.5-.05-1.01-.1-1.5-.15-.14.92-.28,1.92-.43,2.97-1.12,7.96-2.44,18.86-1.49,20.43,1.55,2.57,7.83,2.47,10.68,1.85,1.29-.28,3.07-.9,5.13-1.63,4.18-1.47,9.39-3.3,13.46-3.3,2.28,0,3.59,1.35,4.29,2.49,1.68,2.74,1.65,7.04-.08,10.45-.15.3-.43.49-.72.49h-38.99c-.25,0-.47-.27-.47-.59v-33.96c-.5-.04-1.01-.09-1.5-.13-7.32-.6-13.63-.93-20.57-.93-2.61,0-5.32.05-8.2.14l-.73.02-1.19.04c-.1,0-.21,0-.31.01v34.8c0,.32-.21.59-.47.59h-38.99c-.29,0-.57-.19-.72-.49-1.73-3.41-1.76-7.71-.08-10.45.7-1.13,2.01-2.49,4.29-2.49,4.06,0,9.27,1.83,13.45,3.3,2.06.72,3.84,1.35,5.13,1.63,2.85.62,9.13.72,10.68-1.85,1-1.66-.53-13.77-1.69-21.8-.16-1.09-.31-2.09-.44-2.99-.5,0-1,.02-1.51.02-16.85.19-39.28-1.11-51.13-11.69-1.5-1.34-2.97-2.63-4.42-3.89-13.71-11.98-23.62-20.64-20.23-40.52l.25-1.49c3.22-18.87,4.95-28.98,10.77-41.96,4.74,6.93,8.98,12.41,11.86,15.56l1.11-1.01c-3.21-3.51-7.54-9.17-12.25-16.11-.64-.94-1.29-1.91-1.94-2.9-.46-.69-.91-1.39-1.37-2.1-.76-1.17-1.52-2.37-2.29-3.59-3.67-5.87-7.39-12.26-10.83-18.82C9.36,61.59-.3,38.92,1.79,22.77c.78-6.09,3.25-10.75,7.3-13.93-.31,3.15-.66,9.81,1.49,13.71l1.31-.72c-2.31-4.2-1.38-12.45-1.16-14.16,2.84-1.82,5.43-3.23,7.78-4.24-.36,2.87-.86,9.79,1.98,14.45l1.28-.78c-2.89-4.75-1.93-12.49-1.66-14.31,4.14-1.52,7.48-1.69,10.1-.5,6.03,2.73,7.49,12.56,8.77,21.23.43,2.93.84,5.71,1.41,8.19,1.19,5.26,3.59,11.38,6.51,17.16.58,1.14,1.17,2.27,1.78,3.38.64,1.14,1.28,2.27,1.95,3.36.54.88,1.09,1.74,1.64,2.57,4.4,6.62,9.09,11.4,12.53,11.44l.02-1.5c-2.84-.03-7.2-4.58-11.41-10.98l-1.63-2.57c-.79-1.3-1.56-2.68-2.32-4.07.57-1.22,1.19-2.42,1.91-3.6,8.3-13.67,10.94-14.52,18.79-17.02,1.24-.4,2.59-.83,4.11-1.35,3.06-1.06,6.82-3.66,11.17-6.67,7.06-4.88,15.85-10.96,23.95-11.64,13.08-1.1,30.31,6.16,40.61,10.5,5.36,2.26,11.25,3.22,16.96,4.14,5.64.92,10.97,1.79,14.73,3.83,7.06,3.84,18.81,17.33,21.57,31.68.12.63.26,1.26.39,1.89-2.92,3.57-5.68,5.84-7.68,5.86l.02,1.5c2.29-.03,5.13-2.17,8.07-5.54.2-.23.4-.45.6-.69.6-.72,1.21-1.49,1.81-2.3.04-.06.09-.11.13-.17,5.9-7.99,11.69-19.95,13.79-29.2.56-2.48.97-5.25,1.41-8.19,1.28-8.67,2.74-18.5,8.77-21.23,2.62-1.19,5.97-1.02,10.1.5.28,1.82,1.23,9.57-1.66,14.31l1.28.78c2.84-4.66,2.34-11.58,1.98-14.45,2.35,1.01,4.94,2.42,7.78,4.25.22,1.71,1.15,9.96-1.16,14.16l1.31.72c2.14-3.9,1.8-10.56,1.49-13.71,4.05,3.17,6.51,7.84,7.3,13.93,2.08,16.15-7.58,38.83-16.05,55-5.25,10.02-11.16,19.67-16.57,27.62-.68.99-1.35,1.96-2,2.9-.31.44-.61.87-.91,1.29-1.03,1.44-2.03,2.81-2.99,4.09-2.33,3.09-4.44,5.69-6.21,7.62l1.11,1.01c1.39-1.52,3.09-3.58,5.01-6.07l3.12-4.18c.51-.7,1.03-1.43,1.56-2.18,6.44,15.29,12.67,41.1,6.28,52.16Z"/>
      </g>
      <path d="M169.53,78.55c-1.74-1.62-6.37-5.07-12.35-2.61-5.69,2.33-7.26,6.7-7.69,8.83-.12.57.21,1.11.67,1.23.03,0,.06.02.09.03.02,0,.04.02.06.02.03,0,.06-.01.1-.02.06,0,.12-.01.18-.03.01,0,.03-.01.04-.02.14-.05.27-.13.37-.26.71-.87,2.44-2.4,6.03-2.7,3.71-.31,5.79,1.73,6.64,2.83.28.37.74.45,1.09.19h.02c.46-.35.55-1.1.18-1.58-1.09-1.43-3.64-3.89-8.05-3.53-1.88.16-3.33.64-4.46,1.22.95-1.51,2.57-3.13,5.31-4.26,5.21-2.14,9.25.91,10.71,2.28.35.33.85.29,1.16-.09h0c.37-.45.32-1.17-.09-1.56Z"/>
      <path d="M117.09,78.55c1.74-1.62,6.37-5.07,12.35-2.61,5.69,2.33,7.26,6.7,7.69,8.83.12.57-.21,1.11-.67,1.23-.03,0-.06.02-.09.03-.02,0-.04.02-.06.02-.03,0-.06-.01-.1-.02-.06,0-.12-.01-.18-.03-.01,0-.03-.01-.04-.02-.14-.05-.27-.13-.37-.26-.71-.87-2.44-2.4-6.03-2.7-3.71-.31-5.79,1.73-6.64,2.83-.28.37-.74.45-1.09.19h-.02c-.46-.35-.55-1.1-.18-1.58,1.09-1.43,3.64-3.89,8.05-3.53,1.88.16,3.33.64,4.46,1.22-.95-1.51-2.57-3.13-5.31-4.26-5.21-2.14-9.25.91-10.71,2.28-.35.33-.85.29-1.16-.09h0c-.37-.45-.32-1.17.09-1.56Z"/>
      <ellipse cx="134.42" cy="125.23" rx="12.05" ry="16.34"/>
    </g>
  </g>
</svg>