<?xml version="1.0" encoding="UTF-8"?>
<svg id="Layer_2" data-name="Layer 2" xmlns="http://www.w3.org/2000/svg" viewBox="0 0 235.26 235.83">
  <defs>
    <style>
      .cls-1 {
        fill: #ffba0a;
      }
    </style>
  </defs>
  <g id="Layer_1-2" data-name="Layer 1">
    <g>
      <g>
        <path class="cls-1" d="M49.81,39.78c9.91-16.32,12.43-15.11,23.69-19.01,7.84-2.72,22.09-17.27,35.49-18.39,13.4-1.12,30.71,6.14,41.31,10.61,10.61,4.47,24.01,3.79,31.82,8.04,7.82,4.24,19.54,18.2,22.33,32.72s8.93,28.47,16.75,39.64c7.82,11.17,19.54,48.57,11.17,63.09-8.37,14.52-17.86,26.24-26.24,34.06-8.37,7.82-23.45,15.63-45.78,13.4-22.33-2.23-32.94-3.35-49.69-2.79-16.75.56-49.13,2.23-64.76-11.72-15.63-13.96-29.03-22.89-25.12-45.78,3.91-22.89,5.58-33.5,14.52-50.8,8.93-17.31,5.02-37.4,14.52-53.04Z"/>
        <path d="M223.69,122.57c-2.75-12.07-7.64-24.74-11.89-30.81-8-11.42-13.86-25.3-16.5-39.06-2.97-15.46-15.32-29.53-23.09-33.75-4.21-2.29-9.78-3.19-15.68-4.15-5.53-.9-11.24-1.83-16.27-3.95C129.71,6.4,112.06-1.03,98.23.12c-8.9.74-18.05,7.07-25.41,12.16-4.17,2.89-7.77,5.38-10.45,6.31-1.49.52-2.82.94-4.03,1.33-8.18,2.61-11.56,3.69-20.45,18.32-5.04,8.31-6.44,17.94-7.79,27.26-1.26,8.7-2.56,17.69-6.78,25.87-4.99,9.68-7.76,17.36-9.89,26.13C1.12,127.36.55,135.52.24,139.96c-.04.58-.07,1.08-.13,1.52-.38,3.04.17,8.02,2.87,12.89,1.73,3.13,4.09,5.79,7.05,7.99,3.51,9.24,11.1,15.87,19.85,23.52,1.44,1.25,2.9,2.54,4.39,3.87,12.72,11.36,36.2,12.66,53.56,12.44,1.46,10.17,2.48,19.85,1.92,21-.88,1.46-5.82,1.87-9.08,1.16-1.2-.26-2.93-.87-4.95-1.58-4.29-1.51-9.63-3.38-13.95-3.38-2.32,0-4.3,1.14-5.56,3.2-1.94,3.16-1.93,8.06.02,11.91.41.81,1.2,1.32,2.06,1.32h38.99c1.09,0,1.97-.94,1.97-2.09v-31.85l.83-.03c10.47-.35,18.59-.03,28.67.8v31.08c0,1.15.88,2.09,1.97,2.09h38.99c.86,0,1.65-.5,2.06-1.32,1.95-3.85,1.96-8.75.02-11.91-1.27-2.06-3.24-3.2-5.56-3.2-4.32,0-9.66,1.87-13.95,3.38-2.01.71-3.75,1.32-4.95,1.57-3.27.71-8.2.3-9.08-1.15-.54-1.1.36-9.91,1.71-19.52,2.51.25,5.17.51,8.03.8l1.58.16c2.73.27,5.33.4,7.82.4,20.59,0,33.17-8.63,39.13-14.19,4.59-4.28,9.2-9.42,13.63-15.15,4.1-.46,7.18-1.63,9.44-3.53,4.29-3.62,5.15-9.73,4.48-17.88,3.79-9.27,1.47-23.61-.38-31.73ZM218.54,171.32c-1.79,1.51-4.2,2.5-7.34,3-1.24.2-2.59.32-4.07.37-2.47.08-5.27-.06-8.45-.4-21.01-2.29-23.76-10.97-22.92-21.92,6.81-2.75,18.75-.78,18.88-.76l.29-1.19c-.5-.08-11.74-1.94-19.05.57.21-2.12.53-4.31.86-6.55.05-.32.09-.65.14-.97,6.8-2.11,17.68-.75,17.79-.74l.22-1.2c-.45-.06-10.68-1.33-17.82.6.13-.9.25-1.8.36-2.71.69-5.75,6.36-10.04,13.36-12.3.46-.15.93-.29,1.4-.42,3.02-.84,6.24-1.31,9.37-1.37.22,0,.44,0,.66,0,1.12,0,2.26.06,3.39.18,1.21.13,2.4.32,3.56.6,5.23,1.24,9.67,4.1,10.59,9.32l.1.56c.94,5.29,1.79,10.13,2.34,14.46.29,2.31.49,4.46.57,6.46.28,6.55-.73,11.47-4.23,14.42ZM190.53,119.04c-.07-.29-.17-.61-.27-.94-.55-1.82-1.23-4.09.26-5.75,1.33-1.48,4.29-2.3,8.78-2.45,3.6-.11,6.1.51,7.63,1.93,2.81,2.6,1.94,7.52,1.16,11.85-.05.31-.1.6-.16.9-2.11-.37-4.29-.51-6.41-.47-3.2.06-6.48.54-9.57,1.39-.35-1.77-.92-4.49-1.42-6.45ZM221.3,135.8l-.1-.56c-1.04-5.88-6.02-9.04-11.84-10.36.06-.34.11-.66.17-1.01.82-4.6,1.75-9.82-1.52-12.85-1.84-1.7-4.71-2.47-8.78-2.33-5.03.17-8.26,1.13-9.9,2.94-1.91,2.12-1.1,4.81-.51,6.77.1.32.19.62.26.9.52,2.02,1.11,4.86,1.45,6.61-7.6,2.4-13.82,7.08-14.58,13.4-.2,1.67-.44,3.34-.69,5-2.11,14.52-4.11,28.23,23.21,31.2,2.65.29,5.07.44,7.26.44.14,0,.27,0,.41-.01-3.83,4.77-7.77,9.08-11.69,12.74-6.31,5.89-20.5,15.42-44.61,13l-1.58-.16c-2.81-.28-5.42-.54-7.9-.79-.5-.05-1.01-.1-1.5-.15-.14.92-.28,1.92-.43,2.97-1.12,7.96-2.44,18.86-1.49,20.43,1.55,2.57,7.83,2.47,10.68,1.85,1.29-.28,3.07-.9,5.13-1.63,4.18-1.47,9.39-3.3,13.46-3.3,2.28,0,3.59,1.35,4.29,2.49,1.68,2.74,1.65,7.04-.08,10.45-.15.3-.43.49-.72.49h-38.99c-.25,0-.47-.27-.47-.59v-33.96c-.5-.04-1.01-.09-1.5-.13-7.32-.6-13.63-.93-20.57-.93-2.61,0-5.32.05-8.2.14l-.73.02-1.19.04c-.1,0-.21,0-.31.01v34.8c0,.32-.21.59-.47.59h-38.99c-.29,0-.57-.19-.72-.49-1.73-3.41-1.76-7.71-.08-10.45.7-1.13,2.01-2.49,4.29-2.49,4.06,0,9.27,1.83,13.45,3.3,2.06.72,3.84,1.35,5.13,1.63,2.85.62,9.13.72,10.68-1.85,1-1.66-.53-13.77-1.69-21.8-.16-1.09-.31-2.09-.44-2.99-.5,0-1,.02-1.51.02-16.85.19-39.28-1.11-51.13-11.69-1.5-1.34-2.97-2.63-4.42-3.89-7.28-6.36-13.49-11.79-17.2-18.46,1.96.97,4.1,1.8,6.42,2.48,6.11,1.77,11.67,2.5,16.77,2.5,11.07,0,20-3.41,27.81-6.88,6.11-2.72,8.17-6.85,8.55-11.08h.08c-.02-.12-.04-.23-.06-.34.23-3.28-.52-6.58-1.12-9.29-.09-.39-.17-.77-.25-1.14-1.44-6.63-8.69-10.44-19.89-10.44-9.28,0-29.14,3.7-29.34,3.74l.23,1.22c.2-.04,19.95-3.72,29.11-3.72,4.99,0,16.81.92,18.67,9.46.08.37.17.76.26,1.15.43,1.89.9,4,1.07,6.14-4.35-5.91-17.23-5.28-17.86-5.24l.07,1.24c.16,0,16.05-.79,17.8,6.97-.22,2.59-1.11,5.1-3.29,7.23-2.54-8.17-18.23-7.4-18.93-7.36l.07,1.24c.16,0,16.12-.8,17.81,7.03-.96.75-2.11,1.44-3.49,2.05-11.21,4.98-24.75,9.83-43.73,4.32-3.01-.87-5.56-1.97-7.75-3.21-1.67-.95-3.12-1.98-4.37-3.06-9.13-7.88-7.97-18.42-7.96-18.55.06-.47.1-1.02.14-1.59.28-4.09.8-11.49,11.49-20.54,1.14-.96,2.4-1.95,3.78-2.95.16-.63.33-1.26.5-1.88,1.96-7.17,4.53-13.76,8.74-21.93,4.45-8.62,5.79-17.87,7.08-26.81,1.37-9.44,2.66-18.35,7.38-26.13,8.3-13.67,10.94-14.52,18.79-17.02,1.24-.4,2.59-.83,4.11-1.35,3.06-1.06,6.82-3.66,11.17-6.67,7.06-4.88,15.85-10.96,23.95-11.64,13.08-1.1,30.31,6.16,40.61,10.5,5.36,2.26,11.25,3.22,16.96,4.14,5.64.92,10.97,1.79,14.73,3.83,7.06,3.84,18.81,17.33,21.57,31.68,2.72,14.17,8.76,28.45,16.99,40.21,5.91,8.44,15,35.08,13.62,52.05-.48-3.05-1.05-6.29-1.66-9.72Z"/>
      </g>
      <path d="M113.24,116.58h0c.85,0,1.58.65,1.63,1.51.47,7.25,4.3,13.12,8.77,13.12s8.3-5.87,8.77-13.12c.06-.85.78-1.51,1.63-1.51h0c.96,0,1.7.82,1.64,1.78-.58,9.18-5.67,16.14-12.05,16.14s-11.46-6.96-12.05-16.14c-.06-.96.68-1.78,1.64-1.78Z"/>
      <path d="M152.29,79.47h0c-.52,0-.96-.4-.99-.92-.29-4.42-2.62-8-5.35-8s-5.06,3.58-5.35,8c-.03.52-.47.92-.99.92h0c-.58,0-1.04-.5-1-1.08.36-5.6,3.45-9.84,7.34-9.84s6.99,4.24,7.34,9.84c.04.58-.42,1.08-1,1.08Z"/>
      <path d="M125.29,79.47h0c-.52,0-.96-.4-.99-.92-.29-4.42-2.62-8-5.35-8s-5.06,3.58-5.35,8c-.03.52-.47.92-.99.92h0c-.58,0-1.04-.5-1-1.08.36-5.6,3.45-9.84,7.34-9.84s6.99,4.24,7.34,9.84c.04.58-.42,1.08-1,1.08Z"/>
    </g>
  </g>
</svg>