<svg width="31" height="31" viewBox="0 0 31 31" fill="none" xmlns="http://www.w3.org/2000/svg">
<path d="M12.0278 7.19444L11.1964 9.44033C10.1073 12.3854 9.56278 13.858 8.48817 14.9326C7.41356 16.0072 5.941 16.5518 2.99589 17.6409L0.75 18.4722L2.99589 19.3036C5.941 20.3927 7.41356 20.9388 8.48817 22.0118C9.56278 23.0848 10.1073 24.559 11.1964 27.5041L12.0278 29.75L12.8591 27.5041C13.9482 24.559 14.4944 23.0864 15.5674 22.0118C16.6404 20.9372 18.1146 20.3927 21.0597 19.3036L23.3056 18.4722L21.0597 17.6409C18.1146 16.5518 16.642 16.0072 15.5674 14.9326C14.4928 13.858 13.9482 12.3854 12.8591 9.44033L12.0278 7.19444ZM24.9167 0.75L24.5606 1.71183C24.0934 2.97494 23.8598 3.6065 23.4006 4.06567C22.9398 4.52644 22.3083 4.76006 21.0452 5.22567L20.0833 5.58333L21.0468 5.93939C22.3083 6.40661 22.9398 6.64022 23.399 7.09939C23.8598 7.56017 24.0934 8.19172 24.559 9.45483L24.9167 10.4167L25.2727 9.45483C25.7399 8.19172 25.9736 7.56017 26.4327 7.101C26.8935 6.64022 27.5251 6.40661 28.7882 5.941L29.75 5.58333L28.7866 5.22728C27.5251 4.76006 26.8935 4.52644 26.4343 4.06728C25.9736 3.6065 25.7399 2.97494 25.2743 1.71183L24.9167 0.75Z" stroke="black" stroke-width="1.5" stroke-linejoin="round"/>
</svg>
