<svg width="60" height="50" viewBox="0 0 60 50" fill="none" xmlns="http://www.w3.org/2000/svg">
<path d="M29.607 47.4904C25.6071 44.6748 20.9765 42.8806 16.121 42.2767C12.6772 41.577 9.16874 41.2465 5.65493 41.2907C5.20532 41.2947 4.75938 41.2095 4.34287 41.0401C3.92636 40.8708 3.54751 40.6206 3.22821 40.304C2.9089 39.9875 2.65545 39.6108 2.4825 39.1958C2.30954 38.7808 2.2205 38.3356 2.22052 37.8859L2.28269 5.63509C2.2808 4.76975 2.60847 3.93615 3.19911 3.30372C3.78975 2.67129 4.59903 2.28747 5.46248 2.23029C9.03942 2.15918 12.6134 2.47886 16.121 3.18363C20.9713 3.80939 25.5982 5.59921 29.607 8.40038M29.607 47.4904V8.40038M29.607 47.4904C33.6069 44.6748 38.2374 42.8806 43.0929 42.2767C46.5367 41.577 50.0452 41.2465 53.559 41.2907C54.0086 41.2947 54.4545 41.2095 54.871 41.0401C55.2875 40.8708 55.6664 40.6206 55.9857 40.304C56.305 39.9875 56.5584 39.6108 56.7314 39.1958C56.9044 38.7808 56.9934 38.3356 56.9934 37.8859L56.9282 5.63509C56.9302 4.77022 56.6029 3.93703 56.0129 3.30468C55.4229 2.67232 54.6143 2.28819 53.7514 2.23029C50.1745 2.15918 46.6005 2.47886 43.0929 3.18363C38.2426 3.80939 33.6157 5.59921 29.607 8.40038" stroke="#FE4D13" stroke-width="4.44104" stroke-linecap="round" stroke-linejoin="round"/>
</svg>
