<svg width="21" height="21" viewBox="0 0 21 21" fill="none" xmlns="http://www.w3.org/2000/svg">
<path d="M11.375 3.50017H5.25C5.01794 3.50017 4.79538 3.59236 4.63128 3.75645C4.46719 3.92055 4.375 4.14311 4.375 4.37517V13.42C4.78524 13.2257 5.23355 13.125 5.6875 13.1252H16.625V8.75017H18.375V18.3752C18.375 18.6072 18.2828 18.8298 18.1187 18.9939C17.9546 19.158 17.7321 19.2502 17.5 19.2502H5.6875C4.87527 19.2502 4.09632 18.9275 3.52199 18.3532C2.94766 17.7789 2.625 16.9999 2.625 16.1877V4.37517C2.625 3.67898 2.90156 3.0113 3.39384 2.51901C3.88613 2.02673 4.55381 1.75017 5.25 1.75017H11.375V3.50017ZM5.6875 14.8752C5.3394 14.8752 5.00556 15.0134 4.75942 15.2596C4.51328 15.5057 4.375 15.8396 4.375 16.1877C4.375 16.5358 4.51328 16.8696 4.75942 17.1157C5.00556 17.3619 5.3394 17.5002 5.6875 17.5002H16.625V14.8752H5.6875ZM16.2138 0.28892C16.2469 0.207001 16.3037 0.136846 16.377 0.0874473C16.4503 0.0380486 16.5366 0.0116577 16.625 0.0116577C16.7134 0.0116577 16.7997 0.0380486 16.873 0.0874473C16.9463 0.136846 17.0031 0.207001 17.0363 0.28892L17.2585 0.82267C17.6299 1.72836 18.3346 2.45711 19.2273 2.85879L19.8555 3.13879C19.9358 3.17596 20.0038 3.23534 20.0515 3.30992C20.0992 3.3845 20.1245 3.47116 20.1245 3.55967C20.1245 3.64818 20.0992 3.73484 20.0515 3.80942C20.0038 3.884 19.9358 3.94337 19.8555 3.98054L19.1905 4.27629C18.3202 4.66683 17.6278 5.36924 17.2498 6.24504L17.0336 6.74029C17 6.82094 16.9432 6.88983 16.8705 6.93828C16.7978 6.98674 16.7124 7.01259 16.625 7.01259C16.5376 7.01259 16.4522 6.98674 16.3795 6.93828C16.3068 6.88983 16.25 6.82094 16.2164 6.74029L16.0011 6.24592C15.6229 5.36947 14.9297 4.66669 14.0586 4.27629L13.3936 3.98054C13.3131 3.94348 13.2448 3.88409 13.197 3.80942C13.1491 3.73475 13.1237 3.64792 13.1237 3.55923C13.1237 3.47055 13.1491 3.38372 13.197 3.30904C13.2448 3.23437 13.3131 3.17498 13.3936 3.13792L14.0219 2.85792C14.9144 2.45704 15.6193 1.72928 15.9915 0.82442L16.2138 0.28892Z" fill="black"/>
</svg>
