<svg width="58" height="58" viewBox="0 0 58 58" fill="none" xmlns="http://www.w3.org/2000/svg">
<path d="M36.25 9.66732V4.83398M36.25 9.66732V14.5007M36.25 9.66732H25.375M7.25 24.1673V45.9173C7.25 47.1992 7.75922 48.4286 8.66565 49.335C9.57208 50.2414 10.8015 50.7507 12.0833 50.7507H45.9167C47.1985 50.7507 48.4279 50.2414 49.3343 49.335C50.2408 48.4286 50.75 47.1992 50.75 45.9173V24.1673M7.25 24.1673H50.75M7.25 24.1673V14.5007C7.25 13.2188 7.75922 11.9894 8.66565 11.083C9.57208 10.1765 10.8015 9.66732 12.0833 9.66732H16.9167M50.75 24.1673V14.5007C50.75 13.2188 50.2408 11.9894 49.3343 11.083C48.4279 10.1765 47.1985 9.66732 45.9167 9.66732H44.7083M16.9167 4.83398V14.5007" stroke="#4F2110" stroke-width="2.5" stroke-linecap="round" stroke-linejoin="round"/>
<path d="M22.3811 35.216C22.4451 34.224 22.8238 33.4507 23.5171 32.896C24.2211 32.3413 25.1171 32.064 26.2051 32.064C26.9518 32.064 27.5971 32.1973 28.1411 32.464C28.6851 32.7307 29.0958 33.0933 29.3731 33.552C29.6505 34.0107 29.7891 34.528 29.7891 35.104C29.7891 35.7653 29.6131 36.3307 29.2611 36.8C28.9091 37.2693 28.4878 37.584 27.9971 37.744V37.808C28.6265 38 29.1171 38.352 29.4691 38.864C29.8211 39.3653 29.9971 40.0107 29.9971 40.8C29.9971 41.4293 29.8531 41.9893 29.5651 42.48C29.2771 42.9707 28.8505 43.36 28.2851 43.648C27.7198 43.9253 27.0425 44.064 26.2531 44.064C25.1011 44.064 24.1518 43.7707 23.4051 43.184C22.6691 42.5867 22.2745 41.7333 22.2211 40.624H23.9811C24.0238 41.1893 24.2425 41.6533 24.6371 42.016C25.0318 42.368 25.5651 42.544 26.2371 42.544C26.8878 42.544 27.3891 42.368 27.7411 42.016C28.0931 41.6533 28.2691 41.1893 28.2691 40.624C28.2691 39.8773 28.0291 39.3493 27.5491 39.04C27.0798 38.72 26.3545 38.56 25.3731 38.56H24.9571V37.056H25.3891C26.2531 37.0453 26.9091 36.9013 27.3571 36.624C27.8158 36.3467 28.0451 35.9093 28.0451 35.312C28.0451 34.8 27.8798 34.3947 27.5491 34.096C27.2185 33.7867 26.7491 33.632 26.1411 33.632C25.5438 33.632 25.0798 33.7867 24.7491 34.096C24.4185 34.3947 24.2211 34.768 24.1571 35.216H22.3811ZM31.6731 34V32.336H35.0011V44H33.1611V34H31.6731Z" fill="#2F130A"/>
</svg>
