<svg width="22" height="17" viewBox="0 0 22 17" fill="none" xmlns="http://www.w3.org/2000/svg">
<path fill-rule="evenodd" clip-rule="evenodd" d="M21.2951 0.813255C21.5283 1.06076 21.7105 1.35179 21.8313 1.66972C21.952 1.98766 22.009 2.32627 21.9988 2.66621C21.9887 3.00616 21.9117 3.34077 21.7722 3.65095C21.6327 3.96112 21.4335 4.24078 21.1859 4.47395L9.3546 15.6233C8.8602 16.0891 8.20254 16.342 7.52342 16.3274C6.84429 16.3128 6.19811 16.0319 5.72419 15.5452L0.733858 10.4187C0.254865 9.92659 -0.00902719 9.26437 0.000235877 8.57771C0.00949895 7.89105 0.291158 7.23619 0.783251 6.7572C1.27534 6.2782 1.93756 6.01431 2.62423 6.02358C3.31089 6.03284 3.96575 6.3145 4.44474 6.80659L7.6577 10.1072L17.636 0.704908C18.1357 0.233969 18.802 -0.0191836 19.4884 0.00113512C20.1747 0.0214539 20.8249 0.31358 21.2959 0.813255" fill="#337838"/>
</svg>
