<svg width="19" height="19" viewBox="0 0 19 19" fill="none" xmlns="http://www.w3.org/2000/svg">
<path d="M4.58553 1.83421C4.58553 1.34775 4.77877 0.881209 5.12275 0.537228C5.46674 0.193247 5.93327 0 6.41974 0H11.9224C12.4088 0 12.8754 0.193247 13.2194 0.537228C13.5633 0.881209 13.7566 1.34775 13.7566 1.83421V3.66842H17.425C17.6682 3.66842 17.9015 3.76504 18.0735 3.93704C18.2455 4.10903 18.3421 4.3423 18.3421 4.58553C18.3421 4.82876 18.2455 5.06203 18.0735 5.23402C17.9015 5.40601 17.6682 5.50263 17.425 5.50263H16.4446L15.6495 16.6381C15.6165 17.1009 15.4095 17.534 15.07 17.8501C14.7305 18.1663 14.2838 18.3421 13.8199 18.3421H4.52133C4.0574 18.3421 3.6107 18.1663 3.27121 17.8501C2.93171 17.534 2.72464 17.1009 2.6917 16.6381L1.89841 5.50263H0.917105C0.673874 5.50263 0.440604 5.40601 0.268614 5.23402C0.0966233 5.06203 0 4.82876 0 4.58553C0 4.3423 0.0966233 4.10903 0.268614 3.93704C0.440604 3.76504 0.673874 3.66842 0.917105 3.66842H4.58553V1.83421ZM6.41974 3.66842H11.9224V1.83421H6.41974V3.66842ZM3.73629 5.50263L4.52225 16.5079H13.8208L14.6067 5.50263H3.73629ZM7.33684 7.33684C7.58007 7.33684 7.81334 7.43347 7.98533 7.60546C8.15732 7.77745 8.25395 8.01072 8.25395 8.25395V13.7566C8.25395 13.9998 8.15732 14.2331 7.98533 14.4051C7.81334 14.5771 7.58007 14.6737 7.33684 14.6737C7.09361 14.6737 6.86034 14.5771 6.68835 14.4051C6.51636 14.2331 6.41974 13.9998 6.41974 13.7566V8.25395C6.41974 8.01072 6.51636 7.77745 6.68835 7.60546C6.86034 7.43347 7.09361 7.33684 7.33684 7.33684ZM11.0053 7.33684C11.2485 7.33684 11.4818 7.43347 11.6538 7.60546C11.8257 7.77745 11.9224 8.01072 11.9224 8.25395V13.7566C11.9224 13.9998 11.8257 14.2331 11.6538 14.4051C11.4818 14.5771 11.2485 14.6737 11.0053 14.6737C10.762 14.6737 10.5288 14.5771 10.3568 14.4051C10.1848 14.2331 10.0882 13.9998 10.0882 13.7566V8.25395C10.0882 8.01072 10.1848 7.77745 10.3568 7.60546C10.5288 7.43347 10.762 7.33684 11.0053 7.33684Z" fill="#3D190D"/>
</svg>
