<svg width="19" height="19" viewBox="0 0 19 19" fill="none" xmlns="http://www.w3.org/2000/svg">
<path d="M8.94934 1.7865H2.68487C2.21017 1.7865 1.75492 1.97507 1.41925 2.31073C1.08359 2.6464 0.89502 3.10165 0.89502 3.57635V16.1053C0.89502 16.58 1.08359 17.0352 1.41925 17.3709C1.75492 17.7066 2.21017 17.8951 2.68487 17.8951H15.2138C15.6885 17.8951 16.1438 17.7066 16.4794 17.3709C16.8151 17.0352 17.0037 16.58 17.0037 16.1053V9.84082" stroke="#3D190D" stroke-width="1.78985" stroke-linecap="round" stroke-linejoin="round"/>
<path d="M14.6541 1.45093C15.0102 1.09491 15.493 0.894897 15.9965 0.894897C16.5 0.894897 16.9829 1.09491 17.3389 1.45093C17.6949 1.80695 17.8949 2.28983 17.8949 2.79332C17.8949 3.29681 17.6949 3.77968 17.3389 4.1357L9.27296 12.2026C9.06046 12.4149 8.79794 12.5703 8.50959 12.6545L5.93847 13.4062C5.86147 13.4287 5.77984 13.43 5.70213 13.4101C5.62443 13.3902 5.5535 13.3498 5.49678 13.2931C5.44006 13.2363 5.39963 13.1654 5.37972 13.0877C5.35981 13.01 5.36116 12.9284 5.38362 12.8514L6.13536 10.2803C6.21995 9.99213 6.37568 9.72993 6.58819 9.51778L14.6541 1.45093Z" stroke="#3D190D" stroke-width="1.78985" stroke-linecap="round" stroke-linejoin="round"/>
</svg>
