<svg width="30" height="30" viewBox="0 0 30 30" fill="none" xmlns="http://www.w3.org/2000/svg">
<path fill-rule="evenodd" clip-rule="evenodd" d="M26.8189 6.76918C26.9376 6.94943 26.9905 7.16515 26.9687 7.37991C26.9468 7.59467 26.8515 7.7953 26.6989 7.94793L15.2076 19.4379C15.0901 19.5554 14.9434 19.6395 14.7826 19.6817L9.99636 20.9317C9.83815 20.9729 9.6719 20.9721 9.5141 20.9293C9.35631 20.8864 9.21247 20.8031 9.09685 20.6874C8.98124 20.5718 8.89787 20.428 8.85502 20.2702C8.81218 20.1124 8.81135 19.9461 8.85261 19.7879L10.1026 15.0029C10.14 14.8596 10.2087 14.7264 10.3039 14.6129L21.8376 3.08668C22.0134 2.91111 22.2517 2.8125 22.5001 2.8125C22.7486 2.8125 22.9868 2.91111 23.1626 3.08668L26.6989 6.62168C26.7425 6.66772 26.7827 6.71703 26.8189 6.76918ZM24.7101 7.28417L22.5001 5.07542L11.8526 15.7229L11.0714 18.7142L14.0626 17.9329L24.7101 7.28417Z" fill="#FE4D13"/>
<path d="M24.5522 21.4491C24.8939 18.5291 25.003 15.5865 24.8785 12.6491C24.8756 12.5799 24.887 12.5108 24.9122 12.4463C24.9374 12.3817 24.9757 12.3231 25.0247 12.2741L26.2547 11.0441C26.2884 11.0103 26.331 10.9869 26.3776 10.9768C26.4242 10.9667 26.4727 10.9702 26.5173 10.9869C26.5619 11.0037 26.6008 11.033 26.6291 11.0713C26.6575 11.1096 26.6742 11.1553 26.6772 11.2029C26.9081 14.6919 26.8203 18.1948 26.4147 21.6679C26.1197 24.1954 24.0897 26.1766 21.5735 26.4579C17.2052 26.9413 12.7968 26.9413 8.42849 26.4579C5.91349 26.1766 3.88224 24.1954 3.58724 21.6679C3.06988 17.2371 3.06988 12.7612 3.58724 8.33037C3.88224 5.80287 5.91224 3.82162 8.42849 3.54037C11.7441 3.17418 15.0844 3.08512 18.4147 3.27412C18.4624 3.27754 18.5081 3.29455 18.5464 3.32313C18.5847 3.35172 18.614 3.39068 18.6308 3.4354C18.6476 3.48012 18.6513 3.52872 18.6414 3.57546C18.6314 3.6222 18.6083 3.66512 18.5747 3.69912L17.3335 4.93912C17.285 4.98768 17.227 5.02572 17.1631 5.05088C17.0992 5.07604 17.0308 5.08778 16.9622 5.08537C14.1832 4.99018 11.4009 5.09671 8.63724 5.40412C7.82967 5.4935 7.07581 5.85252 6.49744 6.42318C5.91906 6.99384 5.54996 7.74282 5.44974 8.54912C4.94831 12.8345 4.94831 17.1637 5.44974 21.4491C5.54996 22.2554 5.91906 23.0044 6.49744 23.5751C7.07581 24.1457 7.82967 24.5047 8.63724 24.5941C12.831 25.0629 17.171 25.0629 21.366 24.5941C22.1736 24.5047 22.9274 24.1457 23.5058 23.5751C24.0842 23.0044 24.452 22.2554 24.5522 21.4491Z" fill="#FE4D13"/>
</svg>
