<svg width="34" height="34" viewBox="0 0 34 34" fill="none" xmlns="http://www.w3.org/2000/svg">
<path fill-rule="evenodd" clip-rule="evenodd" d="M30.3946 7.67259C30.5292 7.87688 30.5891 8.12136 30.5643 8.36475C30.5396 8.60814 30.4316 8.83552 30.2586 9.0085L17.2351 22.0305C17.1019 22.1637 16.9357 22.259 16.7535 22.3068L11.3291 23.7234C11.1497 23.7702 10.9613 23.7692 10.7825 23.7207C10.6037 23.6721 10.4406 23.5776 10.3096 23.4466C10.1786 23.3156 10.0841 23.1526 10.0355 22.9737C9.98698 22.7949 9.98604 22.6065 10.0328 22.4272L11.4495 17.0042C11.4918 16.8418 11.5697 16.6908 11.6776 16.5622L24.7491 3.49909C24.9484 3.30011 25.2184 3.18835 25.5 3.18835C25.7815 3.18835 26.0516 3.30011 26.2508 3.49909L30.2586 7.50542C30.3081 7.55761 30.3535 7.61349 30.3946 7.67259ZM28.0046 8.25625L25.5 5.753L13.4328 17.8202L12.5474 21.2103L15.9375 20.3248L28.0046 8.25625Z" fill="#6F2E17"/>
<path d="M27.8248 24.31C28.212 21.0006 28.3356 17.6656 28.1945 14.3366C28.1912 14.2582 28.2042 14.1799 28.2328 14.1067C28.2613 14.0336 28.3047 13.9671 28.3603 13.9116L29.7543 12.5176C29.7924 12.4793 29.8407 12.4528 29.8935 12.4413C29.9463 12.4298 30.0013 12.4338 30.0519 12.4528C30.1024 12.4718 30.1464 12.505 30.1786 12.5485C30.2107 12.5919 30.2297 12.6436 30.2331 12.6976C30.4948 16.6518 30.3952 20.6217 29.9356 24.5579C29.6013 27.4224 27.3006 29.6678 24.4489 29.9866C19.4981 30.5345 14.502 30.5345 9.55121 29.9866C6.70087 29.6678 4.39879 27.4224 4.06446 24.5579C3.47811 19.5363 3.47811 14.4636 4.06446 9.44205C4.39879 6.57755 6.69946 4.33214 9.55121 4.01339C13.3088 3.59837 17.0945 3.49744 20.869 3.71164C20.923 3.71552 20.9747 3.73479 21.0181 3.76719C21.0615 3.79958 21.0947 3.84373 21.1138 3.89442C21.1329 3.9451 21.1371 4.00019 21.1258 4.05316C21.1145 4.10613 21.0883 4.15477 21.0503 4.1933L19.6435 5.59864C19.5885 5.65367 19.5228 5.69679 19.4504 5.7253C19.378 5.75382 19.3005 5.76712 19.2228 5.76439C16.0732 5.65651 12.9199 5.77724 9.78779 6.12564C8.87254 6.22694 8.01816 6.63383 7.36267 7.28058C6.70719 7.92732 6.28887 8.77616 6.17529 9.68997C5.607 14.5467 5.607 19.4532 6.17529 24.31C6.28887 25.2238 6.70719 26.0726 7.36267 26.7194C8.01816 27.3661 8.87254 27.773 9.78779 27.8743C14.5407 28.4056 19.4594 28.4056 24.2137 27.8743C25.129 27.773 25.9833 27.3661 26.6388 26.7194C27.2943 26.0726 27.7112 25.2238 27.8248 24.31Z" fill="#6F2E17"/>
</svg>
