<svg width="24" height="24" viewBox="0 0 24 24" fill="none" xmlns="http://www.w3.org/2000/svg">
<g clip-path="url(#clip0_671_11743)">
<path d="M5.30688 10.0991C5.30362 8.47727 5.88827 6.909 6.95239 5.68506C8.01661 4.46115 9.48837 3.66401 11.095 3.44189L11.5266 3.38232V2.07275C11.5267 1.96949 11.5679 1.87041 11.6409 1.79736C11.714 1.72422 11.8138 1.68311 11.9172 1.68311C12.0205 1.68323 12.1196 1.72433 12.1926 1.79736C12.2657 1.87042 12.3068 1.96947 12.3069 2.07275V3.37354L12.7434 3.4292C14.3646 3.63633 15.8544 4.42863 16.9329 5.65674C18.0111 6.88473 18.6039 8.46396 18.5999 10.0981V13.4116L18.6018 13.4302C18.6897 14.6149 19.0135 15.7702 19.5549 16.8276L19.5667 16.8501L19.5803 16.8716C20.0723 17.6324 20.6648 18.3234 21.3411 18.9263L21.343 18.9282L21.3997 18.978V20.1333H2.53345V18.979L2.59106 18.9282L2.59595 18.9233C3.26231 18.3186 3.84507 17.6277 4.32837 16.8687L4.34106 16.8481L4.35181 16.8276C4.89323 15.7702 5.21702 14.6149 5.30493 13.4302L5.30688 13.4116V10.0991Z" fill="#FFBA0A" fill-opacity="0.3" stroke="#FFBA0A"/>
<path d="M12.9878 21.8335C12.9318 21.9107 12.8683 21.9829 12.7954 22.0464C12.5648 22.2473 12.2692 22.3579 11.9634 22.3579C11.6575 22.3579 11.362 22.2473 11.1313 22.0464C11.0584 21.9829 10.9949 21.9107 10.939 21.8335H12.9878Z" fill="#FFBA0A" fill-opacity="0.3" stroke="#FFBA0A"/>
</g>
<defs>
<clipPath id="clip0_671_11743">
<rect width="24" height="24" fill="white"/>
</clipPath>
</defs>
</svg>
