<svg width="24" height="24" viewBox="0 0 24 24" fill="none" xmlns="http://www.w3.org/2000/svg">
<g clip-path="url(#clip0_1859_15341)">
<path d="M5.30664 10.0996C5.30337 8.47776 5.88803 6.90949 6.95215 5.68555C8.01637 4.46164 9.48813 3.6645 11.0947 3.44238L11.5264 3.38281V2.07324C11.5265 1.96997 11.5676 1.8709 11.6406 1.79785C11.7138 1.72471 11.8136 1.68359 11.917 1.68359C12.0203 1.68371 12.1194 1.72482 12.1924 1.79785C12.2654 1.8709 12.3065 1.96996 12.3066 2.07324V3.37402L12.7432 3.42969C14.3644 3.63682 15.8542 4.42912 16.9326 5.65723C18.0109 6.88521 18.6036 8.46445 18.5996 10.0986V13.4121L18.6016 13.4307C18.6895 14.6154 19.0133 15.7707 19.5547 16.8281L19.5664 16.8506L19.5801 16.8721C20.072 17.6329 20.6645 18.3239 21.3408 18.9268L21.3428 18.9287L21.3994 18.9785V20.1338H2.5332V18.9795L2.59082 18.9287L2.5957 18.9238C3.26206 18.3191 3.84483 17.6282 4.32812 16.8691L4.34082 16.8486L4.35156 16.8281C4.89299 15.7706 5.21677 14.6154 5.30469 13.4307L5.30664 13.4121V10.0996Z" fill="#ffede7" stroke="#FE4D13"/>
<path d="M12.9873 21.834C12.9314 21.9112 12.8678 21.9834 12.7949 22.0469C12.5643 22.2478 12.2688 22.3584 11.9629 22.3584C11.657 22.3584 11.3615 22.2478 11.1309 22.0469C11.0579 21.9834 10.9944 21.9112 10.9385 21.834H12.9873Z" fill="#ffede7" stroke="#FE4D13"/>
</g>
<defs>
<clipPath id="clip0_1859_15341">
<rect width="24" height="24" fill="white"/>
</clipPath>
</defs>
</svg>
