<svg width="21" height="22" viewBox="0 0 21 22" fill="none" xmlns="http://www.w3.org/2000/svg">
<path d="M10.1273 0C15.7207 0 20.2547 4.477 20.2547 10C20.2547 15.523 15.7207 20 10.1273 20C4.53401 20 0 15.523 0 10C0 4.477 4.53401 0 10.1273 0ZM10.1273 2C7.97859 2 5.91785 2.84285 4.39845 4.34315C2.87906 5.84344 2.02547 7.87827 2.02547 10C2.02547 12.1217 2.87906 14.1566 4.39845 15.6569C5.91785 17.1571 7.97859 18 10.1273 18C12.2761 18 14.3368 17.1571 15.8562 15.6569C17.3756 14.1566 18.2292 12.1217 18.2292 10C18.2292 7.87827 17.3756 5.84344 15.8562 4.34315C14.3368 2.84285 12.2761 2 10.1273 2ZM10.1273 14C10.3959 14 10.6535 14.1054 10.8435 14.2929C11.0334 14.4804 11.1401 14.7348 11.1401 15C11.1401 15.2652 11.0334 15.5196 10.8435 15.7071C10.6535 15.8946 10.3959 16 10.1273 16C9.85875 16 9.60116 15.8946 9.41123 15.7071C9.22131 15.5196 9.11461 15.2652 9.11461 15C9.11461 14.7348 9.22131 14.4804 9.41123 14.2929C9.60116 14.1054 9.85875 14 10.1273 14ZM10.1273 4.5C10.9803 4.50003 11.8067 4.79335 12.4645 5.3296C13.1223 5.86585 13.5704 6.61154 13.732 7.43858C13.8935 8.26562 13.7583 9.12239 13.3496 9.86171C12.941 10.601 12.2843 11.1768 11.4925 11.49C11.3752 11.5326 11.2695 11.6014 11.1836 11.691C11.1391 11.741 11.132 11.805 11.133 11.871L11.1401 12C11.1398 12.2549 11.041 12.5 10.8638 12.6854C10.6866 12.8707 10.4444 12.9822 10.1867 12.9972C9.92901 13.0121 9.67528 12.9293 9.47734 12.7657C9.27939 12.6021 9.15218 12.3701 9.1217 12.117L9.11461 12V11.75C9.11461 10.597 10.0565 9.905 10.739 9.634C11.0168 9.52446 11.2592 9.34227 11.44 9.10699C11.6209 8.87171 11.7334 8.59222 11.7655 8.29856C11.7977 8.00489 11.7482 7.70813 11.6224 7.44014C11.4966 7.17215 11.2992 6.94307 11.0515 6.77748C10.8038 6.61189 10.5151 6.51606 10.2164 6.50027C9.91766 6.48448 9.62023 6.54934 9.35604 6.68787C9.09184 6.8264 8.87085 7.03338 8.7168 7.28658C8.56275 7.53978 8.48145 7.82962 8.48165 8.125C8.48165 8.39022 8.37495 8.64457 8.18503 8.83211C7.9951 9.01964 7.73751 9.125 7.46891 9.125C7.20032 9.125 6.94273 9.01964 6.7528 8.83211C6.56288 8.64457 6.45618 8.39022 6.45618 8.125C6.45618 7.16359 6.84296 6.24156 7.53144 5.56174C8.21992 4.88192 9.15369 4.5 10.1273 4.5Z" fill="black"/>
</svg>
