<svg width="77" height="77" viewBox="0 0 77 77" fill="none" xmlns="http://www.w3.org/2000/svg">
<path fill-rule="evenodd" clip-rule="evenodd" d="M39.3952 5.67293C37.7478 5.39358 35.4986 5.37209 31.4445 5.37209C24.579 5.37209 19.6976 5.37926 16.0016 5.87349C12.3773 6.35698 10.2965 7.27023 8.78155 8.78158C7.26662 10.2929 6.35695 12.3737 5.87347 15.9766C5.37923 19.6583 5.37207 24.5075 5.37207 31.3408V45.6664C5.37207 52.4925 5.37923 57.3417 5.87347 61.0234C6.35695 64.6263 7.26662 66.7035 8.78155 68.222C10.2965 69.7333 12.3737 70.643 15.9765 71.1265C19.6582 71.6243 24.5074 71.6279 31.3371 71.6279H45.6626C52.4923 71.6279 57.3451 71.6208 61.0267 71.1265C64.626 70.643 66.7032 69.7334 68.2181 68.2184C69.7331 66.7035 70.6427 64.6263 71.1262 61.0234C71.6205 57.3453 71.6276 52.4925 71.6276 45.6628V44.0977C71.6276 38.5967 71.5918 35.9894 71.0045 34.0233H59.7947C55.737 34.0233 52.4243 34.0233 49.8027 33.6723C47.0701 33.3034 44.6992 32.5083 42.8047 30.6138C40.9101 28.7192 40.115 26.3519 39.7462 23.6121C39.3952 20.9977 39.3952 17.6813 39.3952 13.62V5.67293ZM44.7673 8.45209V13.4302C44.7673 17.7279 44.7744 20.679 45.0717 22.8959C45.3582 25.0375 45.8739 26.0869 46.6045 26.8139C47.3351 27.5409 48.3809 28.0602 50.5225 28.3467C52.7394 28.644 55.6905 28.6512 59.9881 28.6512H67.2225C65.8481 27.3426 64.4511 26.0579 63.0323 24.7976L48.8536 12.0371C47.5162 10.8143 46.1538 9.61902 44.7673 8.45209ZM31.9638 0C36.924 0 40.1294 2.13468e-07 43.0769 1.12814C46.0243 2.25986 48.3952 4.39437 52.0661 7.7L52.4493 8.04381L66.6244 20.8043L67.0721 21.2054C71.3125 25.0196 74.0558 27.4872 75.5277 30.7964C76.9997 34.1056 77.0033 37.7945 76.9997 43.496V45.8633C76.9997 52.446 76.9997 57.6605 76.4517 61.7397C75.8859 65.9371 74.6969 69.3358 72.018 72.0183C69.3355 74.6972 65.9368 75.8862 61.7394 76.452C57.6567 77 52.4457 77 45.8632 77H31.1365C24.5539 77 19.3395 77 15.2603 76.452C11.0629 75.8862 7.66416 74.6972 4.9817 72.0183C2.30283 69.3358 1.11381 65.9371 0.547951 61.7397C0 57.6569 0 52.446 0 45.8633V31.1402C0 24.5576 0 19.3431 0.547951 15.2639C1.11381 11.0665 2.30283 7.66777 4.9817 4.9853C7.66774 2.30284 11.0736 1.1174 15.2889 0.551535C19.386 0.00358156 24.6256 0.00358156 31.244 0.00358156H31.9674" fill="#FFC83B"/>
</svg>
