<svg width="20" height="20" viewBox="0 0 20 20" fill="none" xmlns="http://www.w3.org/2000/svg">
<path fill-rule="evenodd" clip-rule="evenodd" d="M10.2325 1.47349C9.80461 1.40093 9.22043 1.39535 8.16741 1.39535C6.38416 1.39535 5.11626 1.39721 4.15626 1.52558C3.21487 1.65116 2.67441 1.88837 2.28092 2.28093C1.88743 2.67349 1.65116 3.21395 1.52558 4.14977C1.3972 5.10605 1.39534 6.36558 1.39534 8.14047V11.8614C1.39534 13.6344 1.3972 14.894 1.52558 15.8502C1.65116 16.786 1.88743 17.3256 2.28092 17.72C2.67441 18.1126 3.21394 18.3488 4.14975 18.4744C5.10603 18.6037 6.36556 18.6047 8.1395 18.6047H11.8604C13.6344 18.6047 14.8948 18.6028 15.8511 18.4744C16.786 18.3488 17.3255 18.1126 17.719 17.7191C18.1125 17.3256 18.3488 16.786 18.4743 15.8502C18.6027 14.8949 18.6046 13.6344 18.6046 11.8605V11.454C18.6046 10.0251 18.5953 9.34791 18.4427 8.83721H15.5311C14.4772 8.83721 13.6167 8.83721 12.9358 8.74605C12.226 8.65023 11.6102 8.44372 11.1181 7.95163C10.626 7.45954 10.4195 6.84465 10.3237 6.13302C10.2325 5.45395 10.2325 4.59256 10.2325 3.53767V1.47349ZM11.6279 2.19535V3.48837C11.6279 4.60465 11.6297 5.37116 11.7069 5.94698C11.7813 6.50326 11.9153 6.77581 12.1051 6.96465C12.2948 7.15349 12.5665 7.28837 13.1227 7.36279C13.6986 7.44 14.4651 7.44186 15.5813 7.44186H17.4604C17.1034 7.10197 16.7406 6.76828 16.372 6.44093L12.6893 3.12651C12.3419 2.8089 11.988 2.49845 11.6279 2.19535ZM8.30229 0C9.59066 0 10.4232 5.54462e-08 11.1888 0.293023C11.9544 0.586977 12.5702 1.1414 13.5237 2L13.6232 2.0893L17.305 5.40372L17.4213 5.50791C18.5227 6.4986 19.2353 7.13953 19.6176 7.99907C19.9999 8.8586 20.0009 9.81674 19.9999 11.2977V11.9126C19.9999 13.6223 19.9999 14.9767 19.8576 16.0363C19.7106 17.1265 19.4018 18.0093 18.706 18.706C18.0092 19.4019 17.1264 19.7107 16.0362 19.8577C14.9758 20 13.6223 20 11.9125 20H8.08741C6.37765 20 5.02324 20 3.96371 19.8577C2.87348 19.7107 1.99069 19.4019 1.29395 18.706C0.598137 18.0093 0.289301 17.1265 0.142325 16.0363C0 14.9758 0 13.6223 0 11.9126V8.08837C0 6.3786 0 5.02419 0.142325 3.96465C0.289301 2.87442 0.598137 1.99163 1.29395 1.29488C1.99162 0.59814 2.87627 0.290233 3.97115 0.143256C5.03533 0.000930276 6.39625 0.000930276 8.11532 0.000930276H8.30322" fill="#4F2110"/>
</svg>
