<svg width="38" height="38" viewBox="0 0 38 38" fill="none" xmlns="http://www.w3.org/2000/svg">
<path d="M20.5837 30.083C20.5837 30.6213 20.647 31.1438 20.7262 31.6663H6.33366C5.49381 31.6663 4.68835 31.3327 4.09449 30.7388C3.50062 30.145 3.16699 29.3395 3.16699 28.4997V9.49967C3.16699 7.74217 4.57616 6.33301 6.33366 6.33301H15.8337L19.0003 9.49967H31.667C32.5068 9.49967 33.3123 9.8333 33.9062 10.4272C34.5 11.021 34.8337 11.8265 34.8337 12.6663V21.8655C33.8678 21.3113 32.807 20.9313 31.667 20.7255V12.6663H6.33366V28.4997H20.7262C20.647 29.0222 20.5837 29.5447 20.5837 30.083ZM31.667 28.4997V23.7497H28.5003V28.4997H23.7503V31.6663H28.5003V36.4163H31.667V31.6663H36.417V28.4997H31.667Z" fill="black"/>
</svg>
