<svg width="27" height="27" viewBox="0 0 27 27" fill="none" xmlns="http://www.w3.org/2000/svg">
<path d="M14.625 21.375C14.625 21.7575 14.67 22.1287 14.7262 22.5H4.5C3.90326 22.5 3.33097 22.2629 2.90901 21.841C2.48705 21.419 2.25 20.8467 2.25 20.25V6.75C2.25 5.50125 3.25125 4.5 4.5 4.5H11.25L13.5 6.75H22.5C23.0967 6.75 23.669 6.98705 24.091 7.40901C24.5129 7.83097 24.75 8.40326 24.75 9V15.5362C24.0637 15.1425 23.31 14.8725 22.5 14.7262V9H4.5V20.25H14.7262C14.67 20.6212 14.625 20.9925 14.625 21.375ZM22.5 20.25V16.875H20.25V20.25H16.875V22.5H20.25V25.875H22.5V22.5H25.875V20.25H22.5Z" fill="#2F130A"/>
</svg>
