<svg width="51" height="48" viewBox="0 0 51 48" fill="none" xmlns="http://www.w3.org/2000/svg">
<path d="M42.4639 17.0908L41.8742 18.4477C41.782 18.6686 41.6265 18.8573 41.4273 18.9901C41.2281 19.1229 40.994 19.1937 40.7546 19.1937C40.5152 19.1937 40.2812 19.1229 40.0819 18.9901C39.8827 18.8573 39.7272 18.6686 39.6351 18.4477L39.0453 17.0908C38.0084 14.6904 36.1095 12.7658 33.7232 11.6968L31.9037 10.8841C31.6829 10.7825 31.4959 10.6198 31.3648 10.4152C31.2337 10.2106 31.1641 9.97274 31.1641 9.72976C31.1641 9.48677 31.2337 9.24889 31.3648 9.04429C31.4959 8.8397 31.6829 8.67699 31.9037 8.57545L33.6226 7.8107C36.0688 6.71123 38.0002 4.71546 39.0189 2.23451L39.6255 0.769738C39.7146 0.54284 39.8699 0.348042 40.0713 0.21074C40.2728 0.0734378 40.5109 0 40.7546 0C40.9984 0 41.2365 0.0734378 41.4379 0.21074C41.6393 0.348042 41.7947 0.54284 41.8838 0.769738L42.4903 2.23211C43.5079 4.71353 45.4385 6.71016 47.8843 7.8107L49.6056 8.57784C49.8256 8.67968 50.012 8.84237 50.1426 9.0467C50.2732 9.25103 50.3426 9.48846 50.3426 9.73096C50.3426 9.97346 50.2732 10.2109 50.1426 10.4152C50.012 10.6195 49.8256 10.7822 49.6056 10.8841L47.7836 11.6944C45.3978 12.7645 43.4997 14.6899 42.4639 17.0908ZM50.1042 47.9492L39.5559 21.5786H34.7613L24.2154 47.9492H29.3793L32.2537 40.7572H42.0588L44.938 47.9492H50.1042ZM34.1691 35.9625L37.1586 28.4949L40.1433 35.9625H34.1691ZM13.298 27.102C10.5664 23.9988 8.28718 20.5251 6.52793 16.7839H11.8979C13.2547 19.2784 14.8793 21.6177 16.743 23.7601C19.8642 20.3221 22.3134 16.3296 23.9637 11.9892H0V7.19458H14.384V2.39992H19.1786V7.19458H30.3262C30.1169 8.22543 29.8699 9.2419 29.5855 10.244C27.7949 16.5534 24.55 22.3552 20.1112 27.1835C21.841 28.7395 23.7064 30.1379 25.685 31.3621L23.8798 35.8738C21.2979 34.3434 18.88 32.552 16.6638 30.5278C12.3626 34.2552 7.34798 37.0684 1.92506 38.7962L0.472274 34.2269C5.17855 32.7279 9.53877 30.3058 13.298 27.102Z" fill="#FE4D13"/>
</svg>
