<svg width="22" height="31" viewBox="0 0 22 31" fill="none" xmlns="http://www.w3.org/2000/svg">
<path d="M15.1869 29.7702L14.783 30.3769C14.8928 30.45 15.0203 30.4919 15.1521 30.4982C15.2838 30.5045 15.4148 30.475 15.5311 30.4127C15.6474 30.3504 15.7446 30.2578 15.8124 30.1447C15.8802 30.0315 15.916 29.9021 15.9161 29.7702H15.1869ZM10.8119 26.8536L11.2159 26.2469C11.0962 26.1673 10.9557 26.1248 10.8119 26.1248C10.6682 26.1248 10.5276 26.1673 10.408 26.2469L10.8119 26.8536ZM6.43691 29.7702H5.70774C5.70781 29.9021 5.74365 30.0315 5.81145 30.1447C5.87925 30.2578 5.97646 30.3504 6.09274 30.4127C6.20902 30.475 6.34001 30.5045 6.47175 30.4982C6.6035 30.4919 6.73106 30.45 6.84087 30.3769L6.43691 29.7702ZM15.5909 29.1636L11.2159 26.2469L10.408 27.4602L14.783 30.3769L15.5909 29.1636ZM10.408 26.2469L6.03295 29.1636L6.84087 30.3769L11.2159 27.4602L10.408 26.2469ZM12.4788 2.22816L12.54 2.30108L13.6498 1.35608L13.5886 1.28316L12.4788 2.22816ZM15.6084 3.57274L15.7032 3.56399L15.5865 2.11149L15.4917 2.11879L15.6084 3.57274ZM18.0584 5.92066L18.0525 6.01545L19.505 6.13212L19.5123 6.03733L18.0584 5.92066ZM19.3227 9.08379L19.3957 9.14649L20.3407 8.03524L20.2677 7.97399L19.3227 9.08379ZM19.3957 12.4788L19.3227 12.54L20.2677 13.6498L20.3407 13.5886L19.3957 12.4788ZM18.0525 15.6084L18.0598 15.7032L19.5123 15.5865L19.505 15.4917L18.0525 15.6084ZM15.7046 18.0584L15.6084 18.0511L15.4917 19.505L15.5865 19.5123L15.7046 18.0584ZM12.54 19.3227L12.4773 19.3957L13.5886 20.3407L13.6498 20.2677L12.54 19.3227ZM9.14649 19.3957L9.08379 19.3227L7.97399 20.2677L8.03524 20.3407L9.14649 19.3957ZM6.01545 18.0525L5.92066 18.0598L6.03733 19.5123L6.13212 19.505L6.01545 18.0525ZM3.56545 15.7046L3.57274 15.6084L2.11879 15.4917L2.11149 15.5865L3.56545 15.7046ZM2.30108 12.54L2.22816 12.4773L1.28316 13.5886L1.35608 13.6498L2.30108 12.54ZM2.22816 9.14649L2.30108 9.08379L1.35608 7.97399L1.28316 8.03524L2.22816 9.14649ZM3.57274 6.01545L3.56399 5.92066L2.11149 6.03733L2.11879 6.13212L3.57274 6.01545ZM5.92066 3.56545L6.01545 3.57274L6.13212 2.11879L6.03733 2.11149L5.92066 3.56545ZM9.08524 2.30108L9.14504 2.22816L8.03524 1.28316L7.97399 1.35608L9.08524 2.30108ZM6.01545 3.57274C6.59129 3.61915 7.16992 3.52805 7.70364 3.30696C8.23736 3.08586 8.71091 2.7411 9.08524 2.30108L7.97399 1.35608C7.74936 1.62004 7.46522 1.82684 7.14499 1.95945C6.82476 2.09205 6.4776 2.14667 6.13212 2.11879L6.01545 3.57274ZM3.56399 5.92066C3.5385 5.60496 3.58333 5.28749 3.69256 4.9902C3.80179 4.6929 3.97428 4.42287 4.1981 4.19878C4.42192 3.97468 4.69174 3.80186 4.9889 3.69226C5.28606 3.58266 5.60347 3.5389 5.9192 3.56399L6.03733 2.11149C5.51105 2.06925 4.98042 2.14182 4.48495 2.32417C3.98947 2.50653 3.53952 2.79432 3.16619 3.16765C2.79286 3.54098 2.50507 3.99093 2.32271 4.48641C2.14036 4.98188 2.06925 5.51105 2.11149 6.03733L3.56399 5.92066ZM2.30108 9.08379C2.7411 8.70945 3.08586 8.23736 3.30696 7.70364C3.52805 7.16992 3.61915 6.59129 3.57274 6.01545L2.11879 6.13212C2.14667 6.4776 2.09205 6.82476 1.95945 7.14499C1.82684 7.46522 1.62004 7.74936 1.35608 7.97399L2.30108 9.08379ZM2.22816 12.4773C1.98702 12.272 1.79335 12.0167 1.66054 11.7291C1.52773 11.4416 1.45895 11.1286 1.45895 10.8119C1.45895 10.4952 1.52773 10.1822 1.66054 9.89467C1.79335 9.60713 1.98702 9.35185 2.22816 9.14649L1.28316 8.03524C0.880926 8.37751 0.557855 8.80307 0.336301 9.2825C0.114747 9.76193 0 10.2838 0 10.8119C0 11.3401 0.114747 11.8619 0.336301 12.3413C0.557855 12.8207 0.880926 13.2463 1.28316 13.5886L2.22816 12.4773ZM3.57274 15.6084C3.61892 15.0328 3.5277 14.4544 3.30661 13.921C3.08553 13.3875 2.74089 12.9142 2.30108 12.54L1.35608 13.6498C1.62004 13.8745 1.82684 14.1586 1.95945 14.4788C2.09205 14.7991 2.14667 15.1462 2.11879 15.4917L3.57274 15.6084ZM5.92066 18.0584C5.60483 18.0839 5.28723 18.0405 4.98982 17.9312C4.69241 17.8219 4.4223 17.6492 4.19818 17.4252C3.97406 17.2013 3.80127 16.9313 3.69177 16.6339C3.58227 16.3366 3.53867 16.019 3.56399 15.7032L2.11149 15.5865C2.06903 16.1129 2.14143 16.6422 2.32368 17.1379C2.50594 17.6335 2.7937 18.0837 3.16705 18.4572C3.5404 18.8307 3.99044 19.1186 4.48603 19.301C4.98162 19.4835 5.51092 19.5561 6.03733 19.5138L5.92066 18.0584ZM12.4773 19.3957C12.272 19.6368 12.0167 19.8305 11.7291 19.9633C11.4416 20.0961 11.1286 20.1649 10.8119 20.1649C10.4952 20.1649 10.1822 20.0961 9.89467 19.9633C9.60713 19.8305 9.35185 19.6368 9.14649 19.3957L8.03524 20.3407C8.37751 20.7429 8.80307 21.066 9.2825 21.2875C9.76193 21.5091 10.2838 21.6238 10.8119 21.6238C11.3401 21.6238 11.8619 21.5091 12.3413 21.2875C12.8207 21.066 13.2463 20.7429 13.5886 20.3407L12.4773 19.3957ZM18.0598 15.7032C18.0854 16.0191 18.0419 16.3369 17.9325 16.6344C17.8231 16.9319 17.6504 17.2021 17.4262 17.4262C17.2021 17.6504 16.9319 17.8231 16.6344 17.9325C16.3369 18.0419 16.0191 18.0854 15.7032 18.0598L15.5865 19.5123C16.1129 19.5548 16.6422 19.4824 17.1379 19.3001C17.6335 19.1179 18.0837 18.8301 18.4572 18.4568C18.8307 18.0834 19.1186 17.6334 19.301 17.1378C19.4835 16.6422 19.5546 16.1129 19.5123 15.5865L18.0598 15.7032ZM19.3227 12.5386C18.883 12.9131 18.5385 13.3867 18.3177 13.9204C18.0968 14.4541 18.006 15.0326 18.0525 15.6084L19.505 15.4917C19.4772 15.1462 19.5318 14.7991 19.6644 14.4788C19.797 14.1586 20.0038 13.8745 20.2677 13.6498L19.3227 12.5386ZM19.3957 9.14649C19.6368 9.35185 19.8305 9.60713 19.9633 9.89467C20.0961 10.1822 20.1649 10.4952 20.1649 10.8119C20.1649 11.1286 20.0961 11.4416 19.9633 11.7291C19.8305 12.0167 19.6368 12.2734 19.3957 12.4788L20.3407 13.5886C20.7429 13.2463 21.066 12.8207 21.2875 12.3413C21.5091 11.8619 21.6238 11.3401 21.6238 10.8119C21.6238 10.2838 21.5091 9.76193 21.2875 9.2825C21.066 8.80307 20.7429 8.37751 20.3407 8.03524L19.3957 9.14649ZM18.0525 6.01545C18.0062 6.59093 18.0972 7.1692 18.318 7.70264C18.5388 8.23608 18.8832 8.70945 19.3227 9.08379L20.2677 7.97399C20.0038 7.74936 19.797 7.46522 19.6644 7.14499C19.5318 6.82476 19.4772 6.4776 19.505 6.13212L18.0525 6.01545ZM15.7046 3.56545C16.0203 3.54016 16.3378 3.58372 16.635 3.69314C16.9322 3.80256 17.2022 3.97521 17.4261 4.19917C17.6501 4.42313 17.8227 4.69305 17.9321 4.99028C18.0416 5.2875 18.0837 5.60495 18.0584 5.92066L19.5123 6.03733C19.5546 5.51092 19.4835 4.98162 19.301 4.48603C19.1186 3.99044 18.8307 3.5404 18.4572 3.16705C18.0837 2.7937 17.6335 2.50594 17.1379 2.32368C16.6422 2.14143 16.1129 2.06903 15.5865 2.11149L15.7046 3.56545ZM12.54 2.30108C12.9142 2.74089 13.3875 3.08553 13.921 3.30661C14.4544 3.5277 15.0328 3.61892 15.6084 3.57274L15.4917 2.11879C15.1462 2.14667 14.7991 2.09205 14.4788 1.95945C14.1586 1.82684 13.8745 1.62004 13.6498 1.35608L12.54 2.30108ZM13.5886 1.28316C13.2463 0.880926 12.8207 0.557855 12.3413 0.336301C11.8619 0.114747 11.3401 0 10.8119 0C10.2838 0 9.76193 0.114747 9.2825 0.336301C8.80307 0.557855 8.37751 0.880926 8.03524 1.28316L9.14504 2.22816C9.35039 1.98702 9.60713 1.79335 9.89467 1.66054C10.1822 1.52773 10.4952 1.45895 10.8119 1.45895C11.1286 1.45895 11.4416 1.52773 11.7291 1.66054C12.0167 1.79335 12.2734 1.98702 12.4788 2.22816L13.5886 1.28316ZM9.08524 19.3227C8.76045 18.9412 8.3605 18.6308 7.91036 18.4107C7.46022 18.1907 6.96956 18.0643 6.46899 18.0423L6.40483 19.5007C6.70504 19.5139 6.99932 19.5888 7.26929 19.7208C7.53927 19.8528 7.77916 20.039 7.97399 20.2677L9.08524 19.3227ZM6.46899 18.0423C6.31779 18.0369 6.16641 18.0408 6.01545 18.0511L6.13212 19.505C6.22351 19.4973 6.31441 19.4958 6.40483 19.5007L6.46899 18.0423ZM7.16608 29.7702V18.7715H5.70774V29.7702H7.16608ZM15.6098 18.0511C15.4584 18.0408 15.3065 18.0383 15.1548 18.0438L15.219 19.5007C15.3094 19.4958 15.4003 19.4973 15.4917 19.505L15.6098 18.0511ZM15.1548 18.0438C14.6545 18.0659 14.1641 18.1909 13.7143 18.411C13.2644 18.631 12.8647 18.9414 12.54 19.3227L13.6498 20.2677C13.8447 20.039 14.0846 19.8528 14.3545 19.7208C14.6245 19.5888 14.9188 19.5139 15.219 19.5007L15.1548 18.0438ZM14.4577 18.773V29.7702H15.9161V18.7715L14.4577 18.773Z" fill="black"/>
</svg>
