<svg width="17" height="23" viewBox="0 0 17 23" fill="none" xmlns="http://www.w3.org/2000/svg">
<path d="M11.9395 22.4504L11.6219 22.9079C11.7082 22.963 11.8085 22.9946 11.9121 22.9994C12.0157 23.0041 12.1187 22.9818 12.2101 22.9349C12.3015 22.8879 12.3779 22.8181 12.4312 22.7328C12.4845 22.6475 12.5127 22.5499 12.5127 22.4504H11.9395ZM8.5 20.2509L8.81758 19.7934C8.7235 19.7333 8.61301 19.7013 8.5 19.7013C8.38699 19.7013 8.2765 19.7333 8.18242 19.7934L8.5 20.2509ZM5.06051 22.4504H4.48726C4.48731 22.5499 4.51549 22.6475 4.56879 22.7328C4.62209 22.8181 4.69852 22.8879 4.78993 22.9349C4.88135 22.9818 4.98432 23.0041 5.0879 22.9994C5.19147 22.9946 5.29176 22.963 5.37809 22.9079L5.06051 22.4504ZM12.2571 21.9929L8.81758 19.7934L8.18242 20.7084L11.6219 22.9079L12.2571 21.9929ZM8.18242 19.7934L4.74293 21.9929L5.37809 22.9079L8.81758 20.7084L8.18242 19.7934ZM9.81045 1.68031L9.8586 1.73529L10.7311 1.02265L10.6829 0.96766L9.81045 1.68031ZM12.2708 2.69429L12.3454 2.68769L12.2536 1.59232L12.1791 1.59782L12.2708 2.69429ZM14.1969 4.4649L14.1924 4.53639L15.3343 4.62437L15.34 4.55288L14.1969 4.4649ZM15.191 6.85029L15.2483 6.89757L15.9912 6.05956L15.9339 6.01337L15.191 6.85029ZM15.2483 9.41053L15.191 9.45672L15.9339 10.2936L15.9912 10.2474L15.2483 9.41053ZM14.1924 11.7706L14.1981 11.8421L15.34 11.7541L15.3343 11.6826L14.1924 11.7706ZM12.3465 13.6182L12.2708 13.6127L12.1791 14.7092L12.2536 14.7147L12.3465 13.6182ZM9.8586 14.5717L9.8093 14.6267L10.6829 15.3393L10.7311 15.2844L9.8586 14.5717ZM7.1907 14.6267L7.1414 14.5717L6.26891 15.2844L6.31707 15.3393L7.1907 14.6267ZM4.72917 13.6138L4.65465 13.6193L4.74637 14.7147L4.82089 14.7092L4.72917 13.6138ZM2.80305 11.8432L2.80878 11.7706L1.66573 11.6826L1.65999 11.7541L2.80305 11.8432ZM1.80904 9.45672L1.75171 9.40943L1.00878 10.2474L1.06611 10.2936L1.80904 9.45672ZM1.75171 6.89757L1.80904 6.85029L1.06611 6.01337L1.00878 6.05956L1.75171 6.89757ZM2.80878 4.53639L2.80191 4.4649L1.65999 4.55288L1.66573 4.62437L2.80878 4.53639ZM4.65465 2.68879L4.72917 2.69429L4.82089 1.59782L4.74637 1.59232L4.65465 2.68879ZM7.14255 1.73529L7.18955 1.68031L6.31707 0.96766L6.26891 1.02265L7.14255 1.73529ZM4.72917 2.69429C5.18188 2.72928 5.63677 2.66058 6.05637 2.49385C6.47597 2.32712 6.84825 2.06712 7.14255 1.73529L6.26891 1.02265C6.09232 1.22171 5.86894 1.37766 5.61718 1.47766C5.36542 1.57766 5.09249 1.61885 4.82089 1.59782L4.72917 2.69429ZM2.80191 4.4649C2.78187 4.22683 2.81711 3.98742 2.90298 3.76322C2.98886 3.53902 3.12446 3.33539 3.30042 3.16639C3.47638 2.99739 3.6885 2.86707 3.92212 2.78441C4.15574 2.70176 4.40528 2.66876 4.6535 2.68769L4.74637 1.59232C4.33262 1.56047 3.91546 1.61519 3.52593 1.75271C3.13641 1.89023 2.78266 2.10726 2.48916 2.38879C2.19566 2.67033 1.96941 3.00965 1.82605 3.3833C1.68269 3.75695 1.62678 4.15601 1.65999 4.55288L2.80191 4.4649ZM1.80904 6.85029C2.15497 6.56799 2.42601 6.21198 2.59983 5.80949C2.77365 5.40699 2.84527 4.97064 2.80878 4.53639L1.66573 4.62437C1.68764 4.8849 1.64471 5.1467 1.54046 5.3882C1.43621 5.62969 1.27362 5.84397 1.06611 6.01337L1.80904 6.85029ZM1.75171 9.40943C1.56213 9.25456 1.40988 9.06206 1.30547 8.84521C1.20106 8.62837 1.14698 8.39236 1.14698 8.1535C1.14698 7.91465 1.20106 7.67864 1.30547 7.46179C1.40988 7.24495 1.56213 7.05244 1.75171 6.89757L1.00878 6.05956C0.692557 6.31766 0.438569 6.63859 0.264389 7.00014C0.0902103 7.36169 0 7.75522 0 8.1535C0 8.55179 0.0902103 8.94532 0.264389 9.30686C0.438569 9.66841 0.692557 9.98934 1.00878 10.2474L1.75171 9.40943ZM2.80878 11.7706C2.84508 11.3365 2.77337 10.9004 2.59956 10.4981C2.42575 10.0958 2.1548 9.7389 1.80904 9.45672L1.06611 10.2936C1.27362 10.463 1.43621 10.6773 1.54046 10.9188C1.64471 11.1603 1.68764 11.4221 1.66573 11.6826L2.80878 11.7706ZM4.65465 13.6182C4.40635 13.6375 4.15666 13.6047 3.92285 13.5223C3.68903 13.4399 3.47668 13.3097 3.30048 13.1408C3.12428 12.9719 2.98844 12.7682 2.90236 12.544C2.81627 12.3198 2.782 12.0803 2.80191 11.8421L1.65999 11.7541C1.62661 12.1511 1.68353 12.5503 1.82681 12.9241C1.97009 13.2978 2.19632 13.6373 2.48984 13.919C2.78336 14.2006 3.13717 14.4177 3.52678 14.5553C3.9164 14.6929 4.33252 14.7477 4.74637 14.7158L4.65465 13.6182ZM9.8093 14.6267C9.64785 14.8085 9.44716 14.9546 9.2211 15.0548C8.99504 15.1549 8.74901 15.2068 8.5 15.2068C8.25099 15.2068 8.00496 15.1549 7.7789 15.0548C7.55284 14.9546 7.35215 14.8085 7.1907 14.6267L6.31707 15.3393C6.58614 15.6427 6.92071 15.8863 7.29762 16.0534C7.67453 16.2205 8.08479 16.307 8.5 16.307C8.91521 16.307 9.32547 16.2205 9.70238 16.0534C10.0793 15.8863 10.4139 15.6427 10.6829 15.3393L9.8093 14.6267ZM14.1981 11.8421C14.2182 12.0804 14.184 12.32 14.098 12.5444C14.012 12.7687 13.8762 12.9725 13.7 13.1415C13.5238 13.3105 13.3114 13.4408 13.0775 13.5233C12.8436 13.6058 12.5938 13.6386 12.3454 13.6193L12.2536 14.7147C12.6675 14.7467 13.0836 14.6921 13.4733 14.5547C13.8629 14.4172 14.2168 14.2002 14.5105 13.9187C14.8041 13.6371 15.0305 13.2977 15.1739 12.924C15.3173 12.5503 15.3732 12.1511 15.34 11.7541L14.1981 11.8421ZM15.191 9.45562C14.8452 9.73803 14.5744 10.0952 14.4008 10.4977C14.2272 10.9002 14.1557 11.3365 14.1924 11.7706L15.3343 11.6826C15.3124 11.4221 15.3553 11.1603 15.4595 10.9188C15.5638 10.6773 15.7264 10.463 15.9339 10.2936L15.191 9.45562ZM15.2483 6.89757C15.4379 7.05244 15.5901 7.24495 15.6945 7.46179C15.7989 7.67864 15.853 7.91465 15.853 8.1535C15.853 8.39236 15.7989 8.62837 15.6945 8.84521C15.5901 9.06206 15.4379 9.25566 15.2483 9.41053L15.9912 10.2474C16.3074 9.98934 16.5614 9.66841 16.7356 9.30686C16.9098 8.94532 17 8.55179 17 8.1535C17 7.75522 16.9098 7.36169 16.7356 7.00014C16.5614 6.63859 16.3074 6.31766 15.9912 6.05956L15.2483 6.89757ZM14.1924 4.53639C14.1559 4.97037 14.2275 5.40645 14.4011 5.80873C14.5747 6.21101 14.8454 6.56799 15.191 6.85029L15.9339 6.01337C15.7264 5.84397 15.5638 5.62969 15.4595 5.3882C15.3553 5.1467 15.3124 4.8849 15.3343 4.62437L14.1924 4.53639ZM12.3465 2.68879C12.5947 2.66971 12.8443 2.70257 13.0779 2.78508C13.3116 2.86759 13.5238 2.99779 13.6999 3.16669C13.876 3.33558 14.0117 3.53913 14.0977 3.76328C14.1837 3.98742 14.2168 4.22681 14.1969 4.4649L15.34 4.55288C15.3732 4.15591 15.3173 3.75675 15.1739 3.38301C15.0305 3.00928 14.8041 2.6699 14.5105 2.38834C14.2168 2.10679 13.8629 1.88978 13.4733 1.75234C13.0836 1.6149 12.6675 1.5603 12.2536 1.59232L12.3465 2.68879ZM9.8586 1.73529C10.1528 2.06696 10.5249 2.32686 10.9443 2.49359C11.3636 2.66032 11.8183 2.7291 12.2708 2.69429L12.1791 1.59782C11.9075 1.61885 11.6346 1.57766 11.3828 1.47766C11.1311 1.37766 10.9077 1.22171 10.7311 1.02265L9.8586 1.73529ZM10.6829 0.96766C10.4139 0.664326 10.0793 0.420691 9.70238 0.253612C9.32547 0.0865332 8.91521 0 8.5 0C8.08479 0 7.67453 0.0865332 7.29762 0.253612C6.92071 0.420691 6.58614 0.664326 6.31707 0.96766L7.18955 1.68031C7.351 1.49846 7.55284 1.35241 7.7789 1.25225C8.00496 1.1521 8.25099 1.10023 8.5 1.10023C8.74901 1.10023 8.99504 1.1521 9.2211 1.25225C9.44716 1.35241 9.649 1.49846 9.81045 1.68031L10.6829 0.96766ZM7.14255 14.5717C6.8872 14.284 6.57277 14.0499 6.21889 13.8839C5.865 13.718 5.47926 13.6227 5.08573 13.6061L5.03528 14.7059C5.2713 14.7159 5.50265 14.7724 5.7149 14.8719C5.92715 14.9714 6.11574 15.1118 6.26891 15.2844L7.14255 14.5717ZM5.08573 13.6061C4.96686 13.602 4.84784 13.605 4.72917 13.6127L4.82089 14.7092C4.89274 14.7033 4.9642 14.7022 5.03528 14.7059L5.08573 13.6061ZM5.63375 22.4504V14.156H4.48726V22.4504H5.63375ZM12.272 13.6127C12.1529 13.6049 12.0335 13.6031 11.9143 13.6072L11.9647 14.7059C12.0358 14.7022 12.1073 14.7033 12.1791 14.7092L12.272 13.6127ZM11.9143 13.6072C11.5209 13.6239 11.1354 13.7182 10.7817 13.8841C10.4281 14.0501 10.1138 14.2841 9.8586 14.5717L10.7311 15.2844C10.8843 15.1118 11.0729 14.9714 11.2851 14.8719C11.4973 14.7724 11.7287 14.7159 11.9647 14.7059L11.9143 13.6072ZM11.3662 14.1571V22.4504H12.5127V14.156L11.3662 14.1571Z" fill="#FFF8E7"/>
</svg>
