<svg width="169" height="167" viewBox="0 0 169 167" fill="none" xmlns="http://www.w3.org/2000/svg">
<g clip-path="url(#clip0_13_11)">
<path d="M86.1386 166.52C131.459 166.52 168.199 129.673 168.199 84.2202C168.199 38.7671 131.459 1.92 86.1386 1.92C40.8179 1.92 4.07812 38.7671 4.07812 84.2202C4.07812 129.673 40.8179 166.52 86.1386 166.52Z" fill="#4F2110"/>
<path d="M82.0605 0.5C127.104 0.500033 163.621 37.1216 163.621 82.2998C163.621 127.478 127.104 164.101 82.0605 164.101C37.0173 164.101 0.5 127.478 0.5 82.2998C0.500234 37.1216 37.0175 0.5 82.0605 0.5Z" fill="white" stroke="#4F2110"/>
<path d="M52.9741 99.754L52.1348 100.617L62.8188 113.649L64.2252 112.285L104.364 71.9532L105.09 71.2375L101.097 58.7402L92.557 58.6152L91.7178 59.2969L52.9741 99.754Z" fill="#1A1409"/>
<path d="M110.942 36.6319C110.863 36.9273 110.727 37.1886 110.534 37.4272L104.704 43.2101C102.572 45.4141 102.413 47.1637 103.717 49.9018L103.853 50.538C105.169 53.2533 105.6 53.117 107.608 55.1279C109.615 57.1388 112.451 61.422 115.604 58.4681C118.031 56.1959 120.276 53.5374 122.602 51.1515C123.6 50.1404 124.847 48.7202 125.936 47.8909C126.015 47.959 126.083 48.0386 126.152 48.1294C126.503 48.6521 126.31 51.1288 126.22 51.9127C125.119 61.8878 115.638 70.0906 105.521 68.7727C104.171 68.6023 102.719 68.375 101.642 67.5116C99.0332 64.9099 96.2771 62.4104 93.7252 59.7178C91.1053 50.3108 95.9936 40.2107 105.509 37.1773C106.507 36.8592 109.899 36.0412 110.67 36.4388C110.761 36.4842 110.851 36.5524 110.942 36.6206V36.6319Z" fill="#B0AEAD"/>
<path d="M101.631 67.5114C114.175 72.3172 127.411 60.8992 125.936 47.9021C126.912 47.1522 127.468 47.2658 127.785 48.4815C128.681 51.8217 128.239 56.6729 127.003 59.8995C123.804 68.3294 114.753 73.3511 105.873 71.681C105.703 71.6469 105.612 71.6015 105.464 71.5333C104.739 71.1584 102.436 68.3181 101.631 67.5114Z" fill="#595755"/>
<path d="M112.191 35.2341C112.724 35.6204 111.42 36.8247 110.944 36.6202C102.744 36.552 95.5642 42.3917 93.7608 50.3672C93.103 53.2643 93.2278 55.5252 93.6928 58.4109C93.7495 58.7631 93.931 59.4221 93.7155 59.7061C93.2164 59.1721 92.4565 58.7177 92.1616 58.0019C91.9008 57.377 91.81 55.9796 91.776 55.2639C91.1522 43.3801 100.362 34.4616 112.191 35.2341Z" fill="#FDFDFD"/>
<path d="M112.19 35.2344C112.803 35.2798 113.982 35.4275 114.583 35.5525C114.923 35.6207 115.491 35.7002 115.627 36.0297C116.16 37.2907 114.515 38.2337 113.778 38.9949C111.067 41.8352 107.994 44.5846 105.385 47.4022C104.466 48.3906 103.967 49.1404 103.854 50.5379C103.843 50.5038 101.234 46.357 104.217 43.3235C106.349 41.1535 108.765 38.8359 110.943 36.6318C111.351 36.2228 112.043 35.8365 112.19 35.2457V35.2344Z" fill="#595755"/>
<path d="M101.926 69.3055L102.13 69.6463C99.2949 72.3503 96.4708 75.0883 93.6467 77.8604L93.1817 78.0649C92.6486 78.6103 91.832 78.0081 91.9341 77.3719L92.0702 76.8379C93.193 75.7586 94.2705 74.6566 95.3139 73.5091L95.8243 73.3387L95.7903 72.9297C97.1286 71.2823 97.2421 69.1123 95.5861 67.6354L95.5408 67.215L95.1438 67.2491C93.5786 66.0789 91.367 66.0562 89.8245 67.2832L61.5947 95.5498C59.6552 98.356 61.1637 101.378 64.3507 102.071L64.5776 102.389L64.8498 102.139C65.7004 102.253 66.5284 102.117 67.2429 101.617C72.7437 95.9247 78.3806 90.3804 84.1536 84.9953C84.0969 84.768 84.1989 84.6658 84.4258 84.7226C84.7434 83.9841 85.4125 83.1547 86.2291 83.0525C86.989 82.7117 86.9777 84.5635 86.5013 84.8589C86.0363 85.5633 85.5146 86.2223 84.9475 86.8471C77.598 93.9933 70.5094 101.208 63.7043 108.467C63.398 108.786 63.2506 108.74 63.0351 108.365C61.9236 105.854 60.1996 103.878 58.0333 102.242C56.9332 101.412 55.4474 100.469 54.1431 100.015L54.041 99.7193C66.9707 86.7222 79.9117 73.7136 92.8528 60.7051L93.1703 60.7732C96.0625 63.6249 99.0341 66.397 101.915 69.26L101.926 69.3055Z" fill="#FABD04"/>
<path d="M93.3182 83.2127C92.9326 83.599 92.1273 84.417 92.0706 84.4624L64.2264 112.286C63.9315 110.957 63.6026 109.639 63.0469 108.389C63.3304 108.639 63.5686 108.219 63.7501 108.048C64.8956 106.889 65.9504 105.594 67.0732 104.424C73.4473 97.8118 80.139 91.4836 86.5131 84.8828C86.7853 84.0989 87.4658 83.5081 88.135 82.9514C88.8155 82.1107 89.5641 81.3268 90.3693 80.611C90.7323 80.5656 90.9024 80.3838 90.8911 80.0884C91.5262 79.509 92.116 78.8955 92.6604 78.2252L93.1821 78.0775C95.8701 75.3735 98.7283 72.3742 101.564 69.8406C101.745 69.6816 101.949 69.6248 101.938 69.3066C102.516 69.8747 103.685 70.8631 104.093 71.3857C104.195 71.5221 104.456 71.7606 104.377 71.9424C102.687 73.6352 100.974 75.3053 99.2954 77.0095C97.3105 79.0318 95.303 81.2245 93.3296 83.2013L93.3182 83.2127Z" fill="#CF7407"/>
<path d="M93.1833 60.8183L54.156 100.048C53.7477 99.9007 52.9765 99.7644 52.4888 99.6281L52.3867 99.3327C65.4071 86.29 78.8699 72.8043 91.8903 59.7617L92.2079 59.8412C92.5595 60.1594 92.843 60.4888 93.1833 60.8183Z" fill="#FABD04"/>
<path d="M92.2072 59.8426L52.4881 99.6294C52.2386 99.5612 51.955 99.493 51.6602 99.4249C56.4691 94.6759 61.1873 89.8133 65.9622 85.0303C66.2798 84.7122 66.5747 84.4963 66.8015 84.2804L91.7195 59.3086C91.8329 59.3086 92.1051 59.763 92.2072 59.8653V59.8426Z" fill="#F2BC13"/>
<path d="M94.2841 67.7724C95.5544 67.7383 96.1669 69.6243 96.2009 70.7263C96.2236 71.3057 96.1669 72.5327 95.5317 72.635L95.4183 73.1235L91.1651 77.2022C91.3353 77.2703 91.4373 77.4067 91.494 77.6339C91.5508 77.9634 91.4033 78.1111 91.0744 78.0543C90.4393 78.2247 90.065 78.7132 89.8268 79.304C89.8835 79.6335 89.7361 79.7811 89.4072 79.7243C89.203 79.8607 89.0669 79.7698 88.9988 79.4517C88.2503 79.9516 87.6151 80.4628 87.7399 81.3944C87.7966 81.5194 87.7399 81.5535 87.6038 81.5308C87.2862 81.8148 87.1274 81.7921 87.0027 81.3831H86.7645C86.2768 82.0193 85.7211 82.6214 85.0859 83.2122C85.0065 83.8484 84.7797 84.2234 84.4054 84.3256C84.0727 84.2953 84.0727 84.2953 84.4054 84.3256C84.6209 84.2915 84.6209 84.4392 84.4054 84.746C84.3147 84.8369 84.2239 84.9278 84.1332 85.0186C83.7022 85.28 83.3052 85.5072 82.7949 85.5526L67.8577 100.663C67.0864 101.345 65.4986 102.276 64.6933 101.436C64.3871 101.89 63.6158 101.436 63.2189 101.208C61.5403 100.209 60.9051 98.0045 61.9826 96.323C71.4984 86.6887 81.0596 77.1681 90.6661 67.7497C91.1311 67.1589 91.8116 67.068 92.4808 67.0566C93.0139 67.0566 94.2841 67.1475 94.2728 67.7724H94.2841Z" fill="#EF982D"/>
<path d="M95.5421 67.2167C95.905 67.7734 94.7481 67.9665 94.2945 67.7734C93.5005 67.3189 92.1962 67.194 91.3456 67.5348C86.0603 72.2042 81.3761 77.6121 76.2383 82.4634C75.6145 83.0428 74.9907 83.554 74.3102 84.2698C70.3292 88.3939 66.2801 92.4498 62.2198 96.4944C60.9608 98.5508 62.3786 101.118 64.715 101.437C65.1233 101.539 64.9872 102.379 64.5789 102.414C61.0742 101.902 59.1915 98.3804 61.3805 95.3924L89.6443 67.0917C91.3569 65.7056 93.8862 65.7965 95.5421 67.228V67.2167Z" fill="#B84601"/>
<path d="M84.891 84.2805C79.3108 89.8815 73.0161 96.2665 67.4132 101.856C66.4832 102.504 65.6099 102.572 64.5664 102.413L64.7025 101.436C66.0408 101.618 66.71 101.265 67.6854 100.459L84.891 83.0762V84.2805Z" fill="#CC7708"/>
<path d="M91.9236 77.3724C92.3773 77.7359 92.4453 78.179 93.1712 78.0654C92.4453 78.7925 91.8102 79.5878 90.9482 80.3603C90.8234 80.4967 90.7327 80.6216 90.4945 80.8489C90.177 81.1329 88.7706 82.6894 88.3282 83.1552C88.0447 83.4506 87.4663 83.9505 87.1487 84.2572C86.9786 84.4163 86.9672 84.3936 86.5136 84.8934C86.4115 84.3368 86.7744 83.4051 86.2413 83.087C85.9465 82.8257 86.1393 82.5417 86.5136 82.6667C86.5476 82.4054 86.6383 82.3145 86.7858 82.394C86.8651 81.9282 87.1487 81.6442 87.6137 81.5646C87.6591 81.5192 87.7044 81.4737 87.7498 81.4283C88.0674 80.6217 88.6118 80.0763 89.4171 79.7582C89.5532 79.6219 89.7006 79.4855 89.8367 79.3378C90.0409 78.7243 90.4605 78.2585 91.0843 78.0881C91.2204 77.9518 91.3679 77.8154 91.504 77.6677C91.3679 77.2815 91.6174 77.1338 91.9236 77.3951V77.3724Z" fill="#F2B915"/>
<path d="M95.8167 73.3385C95.2836 73.7248 95.1702 73.0658 95.5445 72.6455C96.3157 70.9981 95.9641 68.7372 94.2969 67.7715C94.6825 67.5102 95.3517 67.5898 95.5445 67.2148C97.6541 69.0326 97.4839 71.3276 95.8167 73.3385Z" fill="#CB5901"/>
<path d="M95.8146 73.3392C94.7031 74.6798 93.1719 76.1113 91.9243 77.3724C91.8223 77.4746 91.6068 77.5428 91.5047 77.645L90.5293 77.4405L95.531 72.6348C95.5084 72.8961 95.497 73.2369 95.8032 73.3278L95.8146 73.3392Z" fill="#CD7609"/>
<path d="M87.8279 81.3384C87.6578 81.5656 86.3308 82.9744 86.2287 83.0767C85.6616 83.6447 84.9924 84.1787 84.4253 84.7467C84.4253 84.6104 84.414 84.4627 84.4253 84.3264C84.0851 84.724 83.7562 85.0649 83.1777 85.0194C83.3138 84.7808 84.1985 83.7015 84.3573 83.6333C84.7089 83.4743 84.4367 84.1787 84.4253 84.3264C84.8904 83.781 84.5614 83.6333 84.8336 83.1335C85.0718 82.7017 87.9186 80.0546 88.4063 79.5547C88.7579 79.6569 88.1795 80.9862 87.8392 81.3384H87.8279Z" fill="#CC7708"/>
<path d="M87.7623 81.4065C86.7869 80.4976 90.0647 78.1231 90.5411 77.4414L91.5165 77.6459C90.9607 78.2026 88.3181 80.8498 87.7623 81.4065Z" fill="#CF7509"/>
<path d="M41.0566 123.964C41.1927 123.692 41.5217 123.885 41.7031 123.942C45.5593 125.225 48.8825 125.066 52.5119 123.237C59.0221 119.954 62.0163 112.274 59.9521 105.207C64.3868 110.535 64.0125 118.375 59.0902 123.26C54.1678 128.145 46.3419 128.452 41.0566 123.964Z" fill="#CE7305"/>
<path d="M54.8238 101.413L52.3966 101.14C41.2136 100.709 34.726 111.729 39.5577 121.727C39.8979 122.431 40.7372 123.556 40.3743 123.329C40.2949 123.226 39.3762 122.238 39.2855 122.136C39.07 121.897 38.9792 121.795 38.639 121.261C38.5482 121.125 38.4575 120.988 38.3668 120.841C35.2931 115.91 35.7468 109.536 39.5123 105.105C43.2664 100.663 49.4591 99.1748 54.8238 101.413Z" fill="#F9BC03"/>
<path d="M60.8359 108.661C60.7565 107.446 60.6317 106.241 59.9512 105.196C59.2253 104.333 58.4087 103.56 57.49 102.901C56.6621 102.299 55.7661 101.799 54.8247 101.413C45.4223 98.8112 36.7912 106.559 37.7212 116.273C37.8233 117.353 38.5265 121.022 39.2751 121.579C39.3545 121.636 39.4565 121.681 39.5473 121.727C39.6947 122.227 39.9102 122.704 40.1938 123.169C40.466 123.454 40.7609 123.715 41.0557 123.976C51.3088 128.134 61.5731 119.488 60.8359 108.673V108.661ZM51.8191 120.579L44.6171 118.795L44.2541 118.602L41.9517 111.013L42.0198 110.661L47.5092 105.48L54.6092 107.662L54.9155 107.911L56.9683 115.398L51.7965 120.579H51.8191Z" fill="#F9BC03"/>
<path d="M51.8991 120.862L44.4928 119.022L44.0392 118.772L41.6914 111.024L41.7935 110.535L47.4531 105.195L54.7799 107.468L55.1428 107.774L57.2637 115.489L51.8877 120.874L51.8991 120.862ZM44.7083 118.567L51.7403 120.306L56.708 115.329L54.7118 108.058L54.5077 107.888L47.5892 105.763L42.2585 110.785L42.2131 111.001L44.4588 118.431L44.697 118.567H44.7083Z" fill="#1A1409"/>
<path d="M52.9741 99.754L52.1348 100.617L62.8188 113.649L64.2252 112.285L104.364 71.9532L105.09 71.2375L101.097 58.7402L92.557 58.6152L91.7178 59.2969L52.9741 99.754Z" fill="#1A1409"/>
<path d="M110.942 36.6319C110.863 36.9273 110.727 37.1886 110.534 37.4272L104.704 43.2101C102.572 45.4141 102.413 47.1637 103.717 49.9018L103.853 50.538C105.169 53.2533 105.6 53.117 107.608 55.1279C109.615 57.1388 112.451 61.422 115.604 58.4681C118.031 56.1959 120.276 53.5374 122.602 51.1515C123.6 50.1404 124.847 48.7202 125.936 47.8909C126.015 47.959 126.083 48.0386 126.152 48.1294C126.503 48.6521 126.31 51.1288 126.22 51.9127C125.119 61.8878 115.638 70.0906 105.521 68.7727C104.171 68.6023 102.719 68.375 101.642 67.5116C99.0332 64.9099 96.2771 62.4104 93.7252 59.7178C91.1053 50.3108 95.9936 40.2107 105.509 37.1773C106.507 36.8592 109.899 36.0412 110.67 36.4388C110.761 36.4842 110.851 36.5524 110.942 36.6206V36.6319Z" fill="#B0AEAD"/>
<path d="M101.631 67.5114C114.175 72.3172 127.411 60.8992 125.936 47.9021C126.912 47.1522 127.468 47.2658 127.785 48.4815C128.681 51.8217 128.239 56.6729 127.003 59.8995C123.804 68.3294 114.753 73.3511 105.873 71.681C105.703 71.6469 105.612 71.6015 105.464 71.5333C104.739 71.1584 102.436 68.3181 101.631 67.5114Z" fill="#595755"/>
<path d="M112.191 35.2341C112.724 35.6204 111.42 36.8247 110.944 36.6202C102.744 36.552 95.5642 42.3917 93.7608 50.3672C93.103 53.2643 93.2278 55.5252 93.6928 58.4109C93.7495 58.7631 93.931 59.4221 93.7155 59.7061C93.2164 59.1721 92.4565 58.7177 92.1616 58.0019C91.9008 57.377 91.81 55.9796 91.776 55.2639C91.1522 43.3801 100.362 34.4616 112.191 35.2341Z" fill="#FDFDFD"/>
<path d="M112.19 35.2344C112.803 35.2798 113.982 35.4275 114.583 35.5525C114.923 35.6207 115.491 35.7002 115.627 36.0297C116.16 37.2907 114.515 38.2337 113.778 38.9949C111.067 41.8352 107.994 44.5846 105.385 47.4022C104.466 48.3906 103.967 49.1404 103.854 50.5379C103.843 50.5038 101.234 46.357 104.217 43.3235C106.349 41.1535 108.765 38.8359 110.943 36.6318C111.351 36.2228 112.043 35.8365 112.19 35.2457V35.2344Z" fill="#595755"/>
<path d="M101.926 69.3055L102.13 69.6463C99.2949 72.3503 96.4708 75.0883 93.6467 77.8604L93.1817 78.0649C92.6486 78.6103 91.832 78.0081 91.9341 77.3719L92.0702 76.8379C93.193 75.7586 94.2705 74.6566 95.3139 73.5091L95.8243 73.3387L95.7903 72.9297C97.1286 71.2823 97.2421 69.1123 95.5861 67.6354L95.5408 67.215L95.1438 67.2491C93.5786 66.0789 91.367 66.0562 89.8245 67.2832L61.5947 95.5498C59.6552 98.356 61.1637 101.378 64.3507 102.071L64.5776 102.389L64.8498 102.139C65.7004 102.253 66.5284 102.117 67.2429 101.617C72.7437 95.9247 78.3806 90.3804 84.1536 84.9953C84.0969 84.768 84.1989 84.6658 84.4258 84.7226C84.7434 83.9841 85.4125 83.1547 86.2291 83.0525C86.989 82.7117 86.9777 84.5635 86.5013 84.8589C86.0363 85.5633 85.5146 86.2223 84.9475 86.8471C77.598 93.9933 70.5094 101.208 63.7043 108.467C63.398 108.786 63.2506 108.74 63.0351 108.365C61.9236 105.854 60.1996 103.878 58.0333 102.242C56.9332 101.412 55.4474 100.469 54.1431 100.015L54.041 99.7193C66.9707 86.7222 79.9117 73.7136 92.8528 60.7051L93.1703 60.7732C96.0625 63.6249 99.0341 66.397 101.915 69.26L101.926 69.3055Z" fill="#FABD04"/>
<path d="M93.3182 83.2127C92.9326 83.599 92.1273 84.417 92.0706 84.4624L64.2264 112.286C63.9315 110.957 63.6026 109.639 63.0469 108.389C63.3304 108.639 63.5686 108.219 63.7501 108.048C64.8956 106.889 65.9504 105.594 67.0732 104.424C73.4473 97.8118 80.139 91.4836 86.5131 84.8828C86.7853 84.0989 87.4658 83.5081 88.135 82.9514C88.8155 82.1107 89.5641 81.3268 90.3693 80.611C90.7323 80.5656 90.9024 80.3838 90.8911 80.0884C91.5262 79.509 92.116 78.8955 92.6604 78.2252L93.1821 78.0775C95.8701 75.3735 98.7283 72.3742 101.564 69.8406C101.745 69.6816 101.949 69.6248 101.938 69.3066C102.516 69.8747 103.685 70.8631 104.093 71.3857C104.195 71.5221 104.456 71.7606 104.377 71.9424C102.687 73.6352 100.974 75.3053 99.2954 77.0095C97.3105 79.0318 95.303 81.2245 93.3296 83.2013L93.3182 83.2127Z" fill="#CF7407"/>
<path d="M93.1833 60.8183L54.156 100.048C53.7477 99.9007 52.9765 99.7644 52.4888 99.6281L52.3867 99.3327C65.4071 86.29 78.8699 72.8043 91.8903 59.7617L92.2079 59.8412C92.5595 60.1594 92.843 60.4888 93.1833 60.8183Z" fill="#FABD04"/>
<path d="M92.2072 59.8426L52.4881 99.6294C52.2386 99.5612 51.955 99.493 51.6602 99.4249C56.4691 94.6759 61.1873 89.8133 65.9622 85.0303C66.2798 84.7122 66.5747 84.4963 66.8015 84.2804L91.7195 59.3086C91.8329 59.3086 92.1051 59.763 92.2072 59.8653V59.8426Z" fill="#F2BC13"/>
<path d="M94.2841 67.7724C95.5544 67.7383 96.1669 69.6243 96.2009 70.7263C96.2236 71.3057 96.1669 72.5327 95.5317 72.635L95.4183 73.1235L91.1651 77.2022C91.3353 77.2703 91.4373 77.4067 91.494 77.6339C91.5508 77.9634 91.4033 78.1111 91.0744 78.0543C90.4393 78.2247 90.065 78.7132 89.8268 79.304C89.8835 79.6335 89.7361 79.7811 89.4072 79.7243C89.203 79.8607 89.0669 79.7698 88.9988 79.4517C88.2503 79.9516 87.6151 80.4628 87.7399 81.3944C87.7966 81.5194 87.7399 81.5535 87.6038 81.5308C87.2862 81.8148 87.1274 81.7921 87.0027 81.3831H86.7645C86.2768 82.0193 85.7211 82.6214 85.0859 83.2122C85.0065 83.8484 84.7797 84.2234 84.4054 84.3256C84.0727 84.2953 84.0727 84.2953 84.4054 84.3256C84.6209 84.2915 84.6209 84.4392 84.4054 84.746C84.3147 84.8369 84.2239 84.9278 84.1332 85.0186C83.7022 85.28 83.3052 85.5072 82.7949 85.5526L67.8577 100.663C67.0864 101.345 65.4986 102.276 64.6933 101.436C64.3871 101.89 63.6158 101.436 63.2189 101.208C61.5403 100.209 60.9051 98.0045 61.9826 96.323C71.4984 86.6887 81.0596 77.1681 90.6661 67.7497C91.1311 67.1589 91.8116 67.068 92.4808 67.0566C93.0139 67.0566 94.2841 67.1475 94.2728 67.7724H94.2841Z" fill="#EF982D"/>
<path d="M95.5421 67.2167C95.905 67.7734 94.7481 67.9665 94.2945 67.7734C93.5005 67.3189 92.1962 67.194 91.3456 67.5348C86.0603 72.2042 81.3761 77.6121 76.2383 82.4634C75.6145 83.0428 74.9907 83.554 74.3102 84.2698C70.3292 88.3939 66.2801 92.4498 62.2198 96.4944C60.9608 98.5508 62.3786 101.118 64.715 101.437C65.1233 101.539 64.9872 102.379 64.5789 102.414C61.0742 101.902 59.1915 98.3804 61.3805 95.3924L89.6443 67.0917C91.3569 65.7056 93.8862 65.7965 95.5421 67.228V67.2167Z" fill="#B84601"/>
<path d="M84.891 84.2805C79.3108 89.8815 73.0161 96.2665 67.4132 101.856C66.4832 102.504 65.6099 102.572 64.5664 102.413L64.7025 101.436C66.0408 101.618 66.71 101.265 67.6854 100.459L84.891 83.0762V84.2805Z" fill="#CC7708"/>
<path d="M91.9236 77.3724C92.3773 77.7359 92.4453 78.179 93.1712 78.0654C92.4453 78.7925 91.8102 79.5878 90.9482 80.3603C90.8234 80.4967 90.7327 80.6216 90.4945 80.8489C90.177 81.1329 88.7706 82.6894 88.3282 83.1552C88.0447 83.4506 87.4663 83.9505 87.1487 84.2572C86.9786 84.4163 86.9672 84.3936 86.5136 84.8934C86.4115 84.3368 86.7744 83.4051 86.2413 83.087C85.9465 82.8257 86.1393 82.5417 86.5136 82.6667C86.5476 82.4054 86.6383 82.3145 86.7858 82.394C86.8651 81.9282 87.1487 81.6442 87.6137 81.5646C87.6591 81.5192 87.7044 81.4737 87.7498 81.4283C88.0674 80.6217 88.6118 80.0763 89.4171 79.7582C89.5532 79.6219 89.7006 79.4855 89.8367 79.3378C90.0409 78.7243 90.4605 78.2585 91.0843 78.0881C91.2204 77.9518 91.3679 77.8154 91.504 77.6677C91.3679 77.2815 91.6174 77.1338 91.9236 77.3951V77.3724Z" fill="#F2B915"/>
<path d="M95.8167 73.3385C95.2836 73.7248 95.1702 73.0658 95.5445 72.6455C96.3157 70.9981 95.9641 68.7372 94.2969 67.7715C94.6825 67.5102 95.3517 67.5898 95.5445 67.2148C97.6541 69.0326 97.4839 71.3276 95.8167 73.3385Z" fill="#CB5901"/>
<path d="M95.8146 73.3392C94.7031 74.6798 93.1719 76.1113 91.9243 77.3724C91.8223 77.4746 91.6068 77.5428 91.5047 77.645L90.5293 77.4405L95.531 72.6348C95.5084 72.8961 95.497 73.2369 95.8032 73.3278L95.8146 73.3392Z" fill="#CD7609"/>
<path d="M87.8279 81.3384C87.6578 81.5656 86.3308 82.9744 86.2287 83.0767C85.6616 83.6447 84.9924 84.1787 84.4253 84.7467C84.4253 84.6104 84.414 84.4627 84.4253 84.3264C84.0851 84.724 83.7562 85.0649 83.1777 85.0194C83.3138 84.7808 84.1985 83.7015 84.3573 83.6333C84.7089 83.4743 84.4367 84.1787 84.4253 84.3264C84.8904 83.781 84.5614 83.6333 84.8336 83.1335C85.0718 82.7017 87.9186 80.0546 88.4063 79.5547C88.7579 79.6569 88.1795 80.9862 87.8392 81.3384H87.8279Z" fill="#CC7708"/>
<path d="M87.7623 81.4065C86.7869 80.4976 90.0647 78.1231 90.5411 77.4414L91.5165 77.6459C90.9607 78.2026 88.3181 80.8498 87.7623 81.4065Z" fill="#CF7509"/>
<path d="M41.0566 123.964C41.1927 123.692 41.5217 123.885 41.7031 123.942C45.5593 125.225 48.8825 125.066 52.5119 123.237C59.0221 119.954 62.0163 112.274 59.9521 105.207C64.3868 110.535 64.0125 118.375 59.0902 123.26C54.1678 128.145 46.3419 128.452 41.0566 123.964Z" fill="#CE7305"/>
<path d="M54.8238 101.413L52.3966 101.14C41.2136 100.709 34.726 111.729 39.5577 121.727C39.8979 122.431 40.7372 123.556 40.3743 123.329C40.2949 123.226 39.3762 122.238 39.2855 122.136C39.07 121.897 38.9792 121.795 38.639 121.261C38.5482 121.125 38.4575 120.988 38.3668 120.841C35.2931 115.91 35.7468 109.536 39.5123 105.105C43.2664 100.663 49.4591 99.1748 54.8238 101.413Z" fill="#F9BC03"/>
<path d="M60.8359 108.661C60.7565 107.446 60.6317 106.241 59.9512 105.196C59.2253 104.333 58.4087 103.56 57.49 102.901C56.6621 102.299 55.7661 101.799 54.8247 101.413C45.4223 98.8112 36.7912 106.559 37.7212 116.273C37.8233 117.353 38.5265 121.022 39.2751 121.579C39.3545 121.636 39.4565 121.681 39.5473 121.727C39.6947 122.227 39.9102 122.704 40.1938 123.169C40.466 123.454 40.7609 123.715 41.0557 123.976C51.3088 128.134 61.5731 119.488 60.8359 108.673V108.661ZM51.8191 120.579L44.6171 118.795L44.2541 118.602L41.9517 111.013L42.0198 110.661L47.5092 105.48L54.6092 107.662L54.9155 107.911L56.9683 115.398L51.7965 120.579H51.8191Z" fill="#F9BC03"/>
<path d="M51.8991 120.862L44.4928 119.022L44.0392 118.772L41.6914 111.024L41.7935 110.535L47.4531 105.195L54.7799 107.468L55.1428 107.774L57.2637 115.489L51.8877 120.874L51.8991 120.862ZM44.7083 118.567L51.7403 120.306L56.708 115.329L54.7118 108.058L54.5077 107.888L47.5892 105.763L42.2585 110.785L42.2131 111.001L44.4588 118.431L44.697 118.567H44.7083Z" fill="#1A1409"/>
<path d="M129.116 49.4929C128.782 48.2822 128.229 48.1691 127.238 48.9158C126.131 49.7418 124.851 51.1561 123.848 52.1631C121.474 54.5279 119.191 57.1868 116.736 59.4497C113.532 62.3915 110.673 58.1372 108.609 56.1232C106.569 54.1206 106.143 54.2563 104.794 51.5521C104.909 50.1604 105.416 49.4137 106.35 48.4293C109.001 45.6233 112.137 42.8852 114.88 40.0565C115.63 39.2984 117.289 38.3593 116.759 37.1034C116.621 36.7753 116.045 36.6961 115.699 36.6282C115.088 36.5037 113.889 36.3566 113.266 36.3114C101.255 35.5307 91.8834 44.4239 92.5174 56.259C92.552 56.9718 92.6442 58.3635 92.9094 58.9858C93.0016 59.2121 93.1514 59.4045 93.3128 59.5968L92.4598 60.2644L66.9385 85.3149C66.7425 85.4846 66.5119 85.6543 66.2699 85.8919C63.4803 88.6301 60.7022 91.4022 57.9241 94.1516L51.734 100.228L50.8003 101.235C46.5352 100.906 42.2586 102.57 39.3768 105.896C35.5613 110.32 35.0887 116.656 38.2125 121.567C38.3048 121.703 38.397 121.85 38.4892 121.986C38.8235 122.506 38.9272 122.608 39.1463 122.857C39.2039 122.936 39.7457 123.513 40.0454 123.83C40.0454 123.841 40.0569 123.864 40.0684 123.875C40.103 123.909 40.1491 123.943 40.1837 123.977C40.2068 124.011 40.2298 124.033 40.2413 124.045C40.2413 124.045 40.2644 124.045 40.2644 124.056C40.4834 124.271 40.714 124.475 40.9445 124.678C46.3162 129.148 54.27 128.842 59.2728 123.977C62.0163 121.307 63.3535 117.743 63.2728 114.201L64.4832 113.047L92.7826 85.3375C92.8402 85.2923 93.6586 84.4776 94.0506 84.0929C95.6759 82.4976 97.3243 80.7664 98.9612 79.0919L105.278 72.8688L106.016 72.1673C106.166 72.3031 106.304 72.3936 106.408 72.4502C106.558 72.5181 106.65 72.5633 106.823 72.5973C115.86 74.2605 125.047 69.2595 128.298 60.8641C129.543 57.6394 130.004 52.8194 129.093 49.4929H129.116Z" stroke="#1A1409" stroke-miterlimit="10"/>
</g>
<defs>
<clipPath id="clip0_13_11">
<rect width="169" height="167" fill="white"/>
</clipPath>
</defs>
</svg>
