<svg width="20" height="22" viewBox="0 0 20 22" fill="none" xmlns="http://www.w3.org/2000/svg">
<path d="M3.3103 4.24877C3.3103 4.10179 3.3757 3.96083 3.4921 3.8569C3.6085 3.75297 3.76638 3.69458 3.93099 3.69458H10.5517C10.7163 3.69458 10.8742 3.75297 10.9906 3.8569C11.107 3.96083 11.1724 4.10179 11.1724 4.24877C11.1724 4.39575 11.107 4.53671 10.9906 4.64064C10.8742 4.74457 10.7163 4.80295 10.5517 4.80295H3.93099C3.76638 4.80295 3.6085 4.74457 3.4921 4.64064C3.3757 4.53671 3.3103 4.39575 3.3103 4.24877ZM3.93099 6.28079C3.76638 6.28079 3.6085 6.33917 3.4921 6.4431C3.3757 6.54703 3.3103 6.68799 3.3103 6.83497C3.3103 6.98195 3.3757 7.12291 3.4921 7.22684C3.6085 7.33077 3.76638 7.38916 3.93099 7.38916H8.06892C8.23354 7.38916 8.39142 7.33077 8.50782 7.22684C8.62422 7.12291 8.68961 6.98195 8.68961 6.83497C8.68961 6.68799 8.62422 6.54703 8.50782 6.4431C8.39142 6.33917 8.23354 6.28079 8.06892 6.28079H3.93099Z" fill="#4F2110"/>
<path fill-rule="evenodd" clip-rule="evenodd" d="M7.47349 0C5.94753 0 4.71628 -1.48517e-08 3.74846 0.116611C2.74381 0.236213 1.89767 0.495349 1.22567 1.09435C0.553674 1.69435 0.265675 2.44983 0.130605 3.34684C1.16437e-07 4.21096 0 5.3103 0 6.67276V14.7558C0 16.1183 1.16437e-07 17.2176 0.130605 18.0817C0.264558 18.9787 0.554791 19.7342 1.22567 20.3342C1.89767 20.9342 2.74381 21.1914 3.74846 21.313C4.71628 21.4286 5.94753 21.4286 7.47349 21.4286H12.0614C13.5873 21.4286 14.8186 21.4286 15.7864 21.313C16.7911 21.1914 17.6372 20.9342 18.3092 20.3342C18.9812 19.7342 19.2692 18.9787 19.4054 18.0817C19.5349 17.2176 19.5349 16.1183 19.5349 14.7558V6.67276C19.5349 5.3103 19.5349 4.21096 19.4054 3.34684C19.2692 2.44983 18.9812 1.69435 18.3092 1.09435C17.6372 0.494352 16.7911 0.237209 15.7864 0.116611C14.8186 -1.48517e-08 13.5873 0 12.0614 0H7.47349ZM2.41116 2.15183C2.72037 1.87575 3.15349 1.69635 3.97395 1.59767C4.81563 1.49701 5.93414 1.49502 7.536 1.49502H12.0011C13.603 1.49502 14.7204 1.49701 15.5643 1.59767C16.3836 1.69635 16.8167 1.87674 17.126 2.15183C17.4352 2.42791 17.6361 2.81462 17.7466 3.54718C17.8593 4.29867 17.8616 5.29734 17.8616 6.72757V13.9535H5.05898C4.14586 13.9535 3.52298 13.9535 2.98828 14.0811C2.51848 14.1945 2.07404 14.3792 1.67442 14.6272V6.72757C1.67442 5.29734 1.67665 4.29867 1.7894 3.54618C1.89991 2.81462 2.10307 2.42791 2.41116 2.15183ZM1.70456 16.9425C1.7213 17.2953 1.74809 17.6053 1.7894 17.8824C1.89991 18.614 2.10195 19.0007 2.41005 19.2767C2.71926 19.5528 3.15237 19.7322 3.97284 19.8309C4.81451 19.9316 5.93302 19.9336 7.53488 19.9336H12C13.6019 19.9336 14.7193 19.9316 15.5632 19.8309C16.3825 19.7322 16.8156 19.5518 17.1248 19.2767C17.434 19.0007 17.635 18.614 17.7455 17.8814C17.8381 17.2684 17.856 16.491 17.8593 15.4485H5.18846C4.09674 15.4485 3.71498 15.4545 3.4214 15.5252C3.02796 15.6195 2.66609 15.7977 2.367 16.0446C2.0679 16.2915 1.84055 16.5997 1.70456 16.9425Z" fill="#4F2110"/>
</svg>
