<svg width="17" height="18" viewBox="0 0 17 18" fill="none" xmlns="http://www.w3.org/2000/svg">
<path d="M2.73657 3.51233C2.73657 3.39082 2.79063 3.2743 2.88686 3.18838C2.98308 3.10247 3.11359 3.0542 3.24968 3.0542H8.72278C8.85886 3.0542 8.98937 3.10247 9.0856 3.18838C9.18182 3.2743 9.23588 3.39082 9.23588 3.51233C9.23588 3.63383 9.18182 3.75036 9.0856 3.83627C8.98937 3.92219 8.85886 3.97045 8.72278 3.97045H3.24968C3.11359 3.97045 2.98308 3.92219 2.88686 3.83627C2.79063 3.75036 2.73657 3.63383 2.73657 3.51233ZM3.24968 5.19213C3.11359 5.19213 2.98308 5.2404 2.88686 5.32631C2.79063 5.41223 2.73657 5.52875 2.73657 5.65026C2.73657 5.77176 2.79063 5.88829 2.88686 5.9742C2.98308 6.06012 3.11359 6.10838 3.24968 6.10838H6.67036C6.80645 6.10838 6.93696 6.06012 7.03318 5.9742C7.12941 5.88829 7.18347 5.77176 7.18347 5.65026C7.18347 5.52875 7.12941 5.41223 7.03318 5.32631C6.93696 5.2404 6.80645 5.19213 6.67036 5.19213H3.24968Z" fill="#BD9F94"/>
<path fill-rule="evenodd" clip-rule="evenodd" d="M6.17808 0C4.91663 0 3.89879 -1.22774e-08 3.09873 0.0963986C2.26822 0.195269 1.56874 0.409488 1.01322 0.904664C0.457704 1.40066 0.219624 2.02519 0.107967 2.76672C9.62545e-08 3.48106 0 4.38985 0 5.51614V12.1981C0 13.3244 9.62545e-08 14.2332 0.107967 14.9476C0.218701 15.6891 0.458627 16.3136 1.01322 16.8096C1.56874 17.3056 2.26822 17.5182 3.09873 17.6187C3.89879 17.7143 4.91663 17.7143 6.17808 17.7143H9.97075C11.2322 17.7143 12.25 17.7143 13.0501 17.6187C13.8806 17.5182 14.5801 17.3056 15.1356 16.8096C15.6911 16.3136 15.9292 15.6891 16.0418 14.9476C16.1488 14.2332 16.1488 13.3244 16.1488 12.1981V5.51614C16.1488 4.38985 16.1488 3.48106 16.0418 2.76672C15.9292 2.02519 15.6911 1.40066 15.1356 0.904664C14.5801 0.408664 13.8806 0.196093 13.0501 0.0963986C12.25 -1.22774e-08 11.2322 0 9.97075 0H6.17808ZM1.99323 1.77884C2.24884 1.55062 2.60688 1.40231 3.28513 1.32074C3.98092 1.23753 4.90555 1.23588 6.22976 1.23588H9.92092C11.2451 1.23588 12.1688 1.23753 12.8665 1.32074C13.5438 1.40231 13.9018 1.55144 14.1574 1.77884C14.4131 2.00707 14.5792 2.32675 14.6705 2.93233C14.7637 3.55357 14.7656 4.37913 14.7656 5.56146V11.5349H4.18209C3.42724 11.5349 2.91233 11.5349 2.47031 11.6403C2.08194 11.7341 1.71454 11.8868 1.38419 12.0918V5.56146C1.38419 4.37913 1.38603 3.55357 1.47923 2.93151C1.57059 2.32675 1.73854 2.00707 1.99323 1.77884ZM1.4091 14.0058C1.42294 14.2975 1.44509 14.5537 1.47923 14.7828C1.57059 15.3875 1.73761 15.7072 1.9923 15.9354C2.24792 16.1637 2.60596 16.312 3.28421 16.3935C3.97999 16.4767 4.90463 16.4784 6.22883 16.4784H9.92C11.2442 16.4784 12.1679 16.4767 12.8655 16.3935C13.5429 16.312 13.9009 16.1628 14.1565 15.9354C14.4121 15.7072 14.5782 15.3875 14.6696 14.7819C14.7462 14.2752 14.761 13.6326 14.7637 12.7708H4.28913C3.38664 12.7708 3.07105 12.7757 2.82835 12.8342C2.50311 12.9121 2.20397 13.0594 1.95672 13.2636C1.70946 13.4677 1.52152 13.7224 1.4091 14.0058Z" fill="#BD9F94"/>
</svg>
