<svg width="40" height="38" viewBox="0 0 40 38" fill="none" xmlns="http://www.w3.org/2000/svg">
<ellipse cx="21.3305" cy="19.2715" rx="18.5786" ry="18.5703" fill="#4F2110"/>
<path d="M20.4062 0.388672C30.5998 0.388672 38.8633 8.64897 38.8633 18.8379C38.8633 29.0268 30.5998 37.2871 20.4062 37.2871C10.2129 37.2869 1.94922 29.0267 1.94922 18.8379C1.94922 8.64911 10.2129 0.388907 20.4062 0.388672Z" fill="#FFEAB3" stroke="#4F2110" stroke-width="0.243094"/>
<path d="M13.8228 22.7767L13.6328 22.9716L16.0517 25.912L16.3701 25.6043L25.4575 16.5037L25.6219 16.3422L24.718 13.5223L22.7844 13.4941L22.5944 13.648L13.8228 22.7767Z" fill="#1A1409"/>
<path d="M26.9455 8.53252C26.9275 8.59917 26.8967 8.65813 26.853 8.71196L25.5332 10.0168C25.0504 10.5141 25.0145 10.9089 25.3098 11.5267L25.3406 11.6703C25.6385 12.283 25.736 12.2522 26.1905 12.706C26.645 13.1597 27.287 14.1262 28.0008 13.4597C28.5504 12.9469 29.0588 12.3471 29.5852 11.8087C29.8111 11.5806 30.0936 11.2601 30.3401 11.073C30.3581 11.0884 30.3735 11.1063 30.3889 11.1268C30.4685 11.2447 30.4248 11.8036 30.4043 11.9805C30.1552 14.2313 28.0085 16.0822 25.7181 15.7848C25.4125 15.7463 25.0838 15.6951 24.8399 15.5002C24.2493 14.9132 23.6253 14.3492 23.0476 13.7416C22.4544 11.619 23.5611 9.34003 25.7155 8.65557C25.9415 8.58379 26.7092 8.39921 26.8838 8.48894C26.9044 8.49919 26.9249 8.51457 26.9455 8.52995V8.53252Z" fill="#B0AEAD"/>
<path d="M24.8379 15.5015C27.6779 16.5859 30.6745 14.0095 30.3407 11.0768C30.5615 10.9077 30.6873 10.9333 30.7592 11.2076C30.9621 11.9613 30.8619 13.0559 30.5821 13.784C29.8579 15.6861 27.8088 16.8192 25.7982 16.4423C25.7597 16.4347 25.7392 16.4244 25.7058 16.409C25.5415 16.3244 25.0202 15.6835 24.8379 15.5015Z" fill="#595755"/>
<path d="M27.2284 8.21755C27.3491 8.30471 27.0538 8.57645 26.946 8.5303C25.0894 8.51492 23.464 9.83259 23.0557 11.6322C22.9068 12.2859 22.9351 12.796 23.0403 13.4472C23.0532 13.5267 23.0943 13.6753 23.0455 13.7394C22.9325 13.6189 22.7604 13.5164 22.6937 13.3549C22.6346 13.2139 22.6141 12.8986 22.6064 12.7371C22.4652 10.0556 24.5502 8.04323 27.2284 8.21755Z" fill="#FDFDFD"/>
<path d="M27.2285 8.21875C27.3671 8.229 27.6342 8.26233 27.7703 8.29053C27.8473 8.30591 27.9757 8.32386 28.0065 8.3982C28.1272 8.68275 27.7549 8.89553 27.5879 9.06728C26.9742 9.70817 26.2784 10.3285 25.6878 10.9643C25.4798 11.1873 25.3668 11.3565 25.3411 11.6718C25.3386 11.6642 24.748 10.7285 25.4233 10.044C25.906 9.55436 26.453 9.03139 26.946 8.53407C27.0384 8.44178 27.1951 8.35462 27.2285 8.22131V8.21875Z" fill="#595755"/>
<path d="M24.9057 15.9054L24.9519 15.9824C24.31 16.5925 23.6706 17.2103 23.0312 17.8358L22.9259 17.8819C22.8052 18.005 22.6204 17.8691 22.6435 17.7256L22.6743 17.6051C22.9285 17.3615 23.1724 17.1129 23.4087 16.854L23.5242 16.8155L23.5165 16.7232C23.8195 16.3515 23.8452 15.8619 23.4703 15.5286L23.46 15.4338L23.3702 15.4414C23.0158 15.1774 22.5151 15.1723 22.1659 15.4491L15.7746 21.8272C15.3355 22.4604 15.677 23.1423 16.3986 23.2987L16.4499 23.3705L16.5116 23.3141C16.7042 23.3397 16.8916 23.309 17.0534 23.1962C18.2988 21.9118 19.575 20.6608 20.882 19.4457C20.8691 19.3944 20.8922 19.3714 20.9436 19.3842C21.0155 19.2175 21.167 19.0304 21.3519 19.0073C21.5239 18.9304 21.5213 19.3483 21.4135 19.4149C21.3082 19.5739 21.1901 19.7226 21.0617 19.8636C19.3978 21.476 17.7929 23.1039 16.2522 24.742C16.1829 24.8138 16.1495 24.8035 16.1007 24.7189C15.8491 24.1524 15.4588 23.7063 14.9683 23.3372C14.7192 23.15 14.3829 22.9373 14.0876 22.8347L14.0645 22.7681C16.9917 19.8354 19.9216 16.9001 22.8515 13.9648L22.9234 13.9802C23.5781 14.6237 24.2509 15.2492 24.9031 15.8952L24.9057 15.9054Z" fill="#FABD04"/>
<path d="M22.957 19.044C22.8697 19.1312 22.6874 19.3158 22.6745 19.326L16.3706 25.6041C16.3038 25.3042 16.2293 25.0068 16.1035 24.7248C16.1677 24.7812 16.2216 24.6864 16.2627 24.6479C16.5221 24.3865 16.7609 24.0942 17.0151 23.8302C18.4582 22.3382 19.9732 20.9103 21.4163 19.4209C21.4779 19.244 21.632 19.1107 21.7835 18.9851C21.9376 18.7954 22.107 18.6185 22.2893 18.457C22.3715 18.4467 22.41 18.4057 22.4075 18.3391C22.5513 18.2083 22.6848 18.0699 22.808 17.9186L22.9262 17.8853C23.5347 17.2752 24.1818 16.5984 24.8238 16.0267C24.8648 15.9908 24.9111 15.978 24.9085 15.9062C25.0395 16.0344 25.3039 16.2575 25.3964 16.3754C25.4195 16.4061 25.4786 16.46 25.4606 16.501C25.078 16.883 24.6902 17.2598 24.3102 17.6443C23.8608 18.1006 23.4063 18.5954 22.9595 19.0415L22.957 19.044Z" fill="#CF7407"/>
<path d="M22.9258 13.9904L14.09 22.8423C13.9976 22.809 13.823 22.7782 13.7126 22.7474L13.6895 22.6808C16.6373 19.7378 19.6853 16.6949 22.6331 13.752L22.705 13.7699C22.7846 13.8417 22.8488 13.916 22.9258 13.9904Z" fill="#FABD04"/>
<path d="M22.7053 13.7709L13.7128 22.7484C13.6563 22.733 13.5922 22.7177 13.5254 22.7023C14.6141 21.6307 15.6823 20.5335 16.7634 19.4543C16.8353 19.3825 16.902 19.3338 16.9534 19.2851L22.5949 13.6504C22.6205 13.6504 22.6822 13.7529 22.7053 13.776V13.7709Z" fill="#F2BC13"/>
<path d="M23.1736 15.5599C23.4612 15.5523 23.5999 15.9778 23.6076 16.2265C23.6127 16.3572 23.5999 16.6341 23.4561 16.6571L23.4304 16.7674L22.4675 17.6877C22.506 17.7031 22.5291 17.7338 22.542 17.7851C22.5548 17.8594 22.5214 17.8928 22.447 17.8799C22.3032 17.9184 22.2184 18.0286 22.1645 18.1619C22.1773 18.2363 22.144 18.2696 22.0695 18.2568C22.0233 18.2876 21.9925 18.267 21.977 18.1953C21.8076 18.3081 21.6638 18.4234 21.692 18.6336C21.7049 18.6618 21.692 18.6695 21.6612 18.6644C21.5893 18.7285 21.5534 18.7234 21.5251 18.6311H21.4712C21.3608 18.7746 21.235 18.9105 21.0912 19.0438C21.0732 19.1874 21.0218 19.272 20.9371 19.295C20.8618 19.2882 20.8618 19.2882 20.9371 19.295C20.9859 19.2873 20.9859 19.3207 20.9371 19.3899C20.9165 19.4104 20.896 19.4309 20.8755 19.4514C20.7779 19.5104 20.688 19.5616 20.5725 19.5719L17.1907 22.9814C17.0161 23.1352 16.6566 23.3454 16.4743 23.1557C16.4049 23.2583 16.2303 23.1557 16.1404 23.1045C15.7604 22.8789 15.6166 22.3815 15.8606 22.0021C18.0149 19.8282 20.1796 17.68 22.3545 15.5548C22.4598 15.4215 22.6139 15.401 22.7654 15.3984C22.8861 15.3984 23.1736 15.4189 23.1711 15.5599H23.1736Z" fill="#EF982D"/>
<path d="M23.46 15.4333C23.5422 15.5589 23.2803 15.6024 23.1776 15.5589C22.9978 15.4563 22.7025 15.4281 22.51 15.505C21.3134 16.5587 20.2529 17.7789 19.0897 18.8735C18.9484 19.0043 18.8072 19.1196 18.6531 19.2811C17.7518 20.2117 16.8351 21.1269 15.9159 22.0395C15.6308 22.5035 15.9518 23.0829 16.4808 23.1547C16.5732 23.1777 16.5424 23.3674 16.45 23.3751C15.6565 23.2598 15.2302 22.4651 15.7258 21.7908L22.1248 15.4051C22.5125 15.0923 23.0851 15.1128 23.46 15.4358V15.4333Z" fill="#B84601"/>
<path d="M21.0488 19.2854C19.7854 20.5492 18.3603 21.9899 17.0918 23.2512C16.8812 23.3973 16.6835 23.4127 16.4473 23.3768L16.4781 23.1564C16.7811 23.1974 16.9326 23.1179 17.1534 22.9359L21.0488 19.0137V19.2854Z" fill="#CC7708"/>
<path d="M22.6393 17.7257C22.742 17.8077 22.7574 17.9077 22.9218 17.8821C22.7574 18.0461 22.6136 18.2256 22.4185 18.3999C22.3902 18.4307 22.3697 18.4589 22.3158 18.5101C22.2439 18.5742 21.9255 18.9254 21.8253 19.0305C21.7611 19.0972 21.6302 19.21 21.5583 19.2792C21.5198 19.3151 21.5172 19.31 21.4145 19.4228C21.3914 19.2971 21.4735 19.0869 21.3528 19.0152C21.2861 18.9562 21.3297 18.8921 21.4145 18.9203C21.4222 18.8613 21.4427 18.8408 21.4761 18.8588C21.4941 18.7537 21.5583 18.6896 21.6635 18.6716C21.6738 18.6614 21.6841 18.6511 21.6944 18.6409C21.7663 18.4589 21.8895 18.3358 22.0718 18.264C22.1026 18.2333 22.136 18.2025 22.1668 18.1692C22.2131 18.0308 22.3081 17.9257 22.4493 17.8872C22.4801 17.8564 22.5135 17.8257 22.5443 17.7923C22.5135 17.7052 22.57 17.6719 22.6393 17.7308V17.7257Z" fill="#F2B915"/>
<path d="M23.5199 16.8153C23.3992 16.9025 23.3735 16.7538 23.4582 16.659C23.6329 16.2873 23.5532 15.7771 23.1758 15.5592C23.2631 15.5002 23.4146 15.5182 23.4582 15.4336C23.9359 15.8438 23.8973 16.3616 23.5199 16.8153Z" fill="#CB5901"/>
<path d="M23.5208 16.8152C23.2692 17.1177 22.9225 17.4407 22.6401 17.7252C22.6169 17.7483 22.5682 17.7637 22.545 17.7868L22.3242 17.7406L23.4566 16.6562C23.4515 16.7152 23.4489 16.7921 23.5182 16.8126L23.5208 16.8152Z" fill="#CD7609"/>
<path d="M21.713 18.6212C21.6744 18.6725 21.374 18.9904 21.3509 19.0134C21.2225 19.1416 21.071 19.2621 20.9426 19.3903C20.9426 19.3595 20.94 19.3262 20.9426 19.2954C20.8656 19.3852 20.7911 19.4621 20.6602 19.4518C20.691 19.398 20.8913 19.1544 20.9272 19.1391C21.0068 19.1032 20.9452 19.2621 20.9426 19.2954C21.0479 19.1724 20.9734 19.1391 21.0351 19.0263C21.089 18.9289 21.7335 18.3315 21.8439 18.2188C21.9235 18.2418 21.7926 18.5418 21.7155 18.6212H21.713Z" fill="#CC7708"/>
<path d="M21.699 18.6369C21.4782 18.4318 22.2203 17.896 22.3281 17.7422L22.549 17.7883C22.4231 17.9139 21.8248 18.5113 21.699 18.6369Z" fill="#CF7509"/>
<path d="M11.123 28.2383C11.1539 28.1767 11.2283 28.2203 11.2694 28.2331C12.1425 28.5228 12.8948 28.4869 13.7165 28.0742C15.1904 27.3333 15.8683 25.6004 15.401 24.0059C16.405 25.2082 16.3203 26.977 15.2058 28.0793C14.0914 29.1817 12.3196 29.2509 11.123 28.2383Z" fill="#CE7305"/>
<path d="M14.2414 23.1504L13.6919 23.0889C11.1601 22.9915 9.69127 25.4781 10.7852 27.734C10.8622 27.893 11.0522 28.1468 10.97 28.0955C10.9521 28.0724 10.7441 27.8494 10.7235 27.8263C10.6747 27.7725 10.6542 27.7494 10.5772 27.6289C10.5566 27.5982 10.5361 27.5674 10.5155 27.5341C9.81966 26.4215 9.92238 24.9833 10.7749 23.9836C11.6248 22.9812 13.0268 22.6454 14.2414 23.1504Z" fill="#F9BC03"/>
<path d="M15.6003 24.7855C15.5824 24.5112 15.5541 24.2394 15.4 24.0036C15.2357 23.8087 15.0508 23.6344 14.8428 23.4857C14.6554 23.3499 14.4525 23.2371 14.2394 23.1499C12.1107 22.5629 10.1566 24.3112 10.3672 26.503C10.3903 26.7466 10.5495 27.5746 10.7189 27.7002C10.7369 27.713 10.76 27.7233 10.7806 27.7335C10.814 27.8463 10.8627 27.954 10.9269 28.0591C10.9886 28.1232 11.0553 28.1821 11.1221 28.2411C13.4434 29.1794 15.7672 27.2285 15.6003 24.788V24.7855ZM13.5589 27.4746L11.9284 27.0721L11.8462 27.0286L11.3249 25.3161L11.3404 25.2366L12.5832 24.0677L14.1906 24.5599L14.2599 24.6163L14.7247 26.3056L13.5538 27.4746H13.5589Z" fill="#F9BC03"/>
<path d="M13.5766 27.539L11.8999 27.1237L11.7972 27.0673L11.2656 25.319L11.2887 25.2088L12.5701 24.0039L14.2289 24.5166L14.311 24.5858L14.7912 26.3265L13.5741 27.5416L13.5766 27.539ZM11.9487 27.0212L13.5407 27.4134L14.6654 26.2906L14.2135 24.6499L14.1672 24.6115L12.6009 24.1321L11.394 25.2652L11.3837 25.3139L11.8922 26.9904L11.9461 27.0212H11.9487Z" fill="#1A1409"/>
<path d="M13.8228 22.7767L13.6328 22.9716L16.0517 25.912L16.3701 25.6043L25.4575 16.5037L25.6219 16.3422L24.718 13.5223L22.7844 13.4941L22.5944 13.648L13.8228 22.7767Z" fill="#1A1409"/>
<path d="M26.9455 8.53252C26.9275 8.59917 26.8967 8.65813 26.853 8.71196L25.5332 10.0168C25.0504 10.5141 25.0145 10.9089 25.3098 11.5267L25.3406 11.6703C25.6385 12.283 25.736 12.2522 26.1905 12.706C26.645 13.1597 27.287 14.1262 28.0008 13.4597C28.5504 12.9469 29.0588 12.3471 29.5852 11.8087C29.8111 11.5806 30.0936 11.2601 30.3401 11.073C30.3581 11.0884 30.3735 11.1063 30.3889 11.1268C30.4685 11.2447 30.4248 11.8036 30.4043 11.9805C30.1552 14.2313 28.0085 16.0822 25.7181 15.7848C25.4125 15.7463 25.0838 15.6951 24.8399 15.5002C24.2493 14.9132 23.6253 14.3492 23.0476 13.7416C22.4544 11.619 23.5611 9.34003 25.7155 8.65557C25.9415 8.58379 26.7092 8.39921 26.8838 8.48894C26.9044 8.49919 26.9249 8.51457 26.9455 8.52995V8.53252Z" fill="#B0AEAD"/>
<path d="M24.8379 15.5015C27.6779 16.5859 30.6745 14.0095 30.3407 11.0768C30.5615 10.9077 30.6873 10.9333 30.7592 11.2076C30.9621 11.9613 30.8619 13.0559 30.5821 13.784C29.8579 15.6861 27.8088 16.8192 25.7982 16.4423C25.7597 16.4347 25.7392 16.4244 25.7058 16.409C25.5415 16.3244 25.0202 15.6835 24.8379 15.5015Z" fill="#595755"/>
<path d="M27.2284 8.21755C27.3491 8.30471 27.0538 8.57645 26.946 8.5303C25.0894 8.51492 23.464 9.83259 23.0557 11.6322C22.9068 12.2859 22.9351 12.796 23.0403 13.4472C23.0532 13.5267 23.0943 13.6753 23.0455 13.7394C22.9325 13.6189 22.7604 13.5164 22.6937 13.3549C22.6346 13.2139 22.6141 12.8986 22.6064 12.7371C22.4652 10.0556 24.5502 8.04323 27.2284 8.21755Z" fill="#FDFDFD"/>
<path d="M27.2285 8.21875C27.3671 8.229 27.6342 8.26233 27.7703 8.29053C27.8473 8.30591 27.9757 8.32386 28.0065 8.3982C28.1272 8.68275 27.7549 8.89553 27.5879 9.06728C26.9742 9.70817 26.2784 10.3285 25.6878 10.9643C25.4798 11.1873 25.3668 11.3565 25.3411 11.6718C25.3386 11.6642 24.748 10.7285 25.4233 10.044C25.906 9.55436 26.453 9.03139 26.946 8.53407C27.0384 8.44178 27.1951 8.35462 27.2285 8.22131V8.21875Z" fill="#595755"/>
<path d="M24.9057 15.9054L24.9519 15.9824C24.31 16.5925 23.6706 17.2103 23.0312 17.8358L22.9259 17.8819C22.8052 18.005 22.6204 17.8691 22.6435 17.7256L22.6743 17.6051C22.9285 17.3615 23.1724 17.1129 23.4087 16.854L23.5242 16.8155L23.5165 16.7232C23.8195 16.3515 23.8452 15.8619 23.4703 15.5286L23.46 15.4338L23.3702 15.4414C23.0158 15.1774 22.5151 15.1723 22.1659 15.4491L15.7746 21.8272C15.3355 22.4604 15.677 23.1423 16.3986 23.2987L16.4499 23.3705L16.5116 23.3141C16.7042 23.3397 16.8916 23.309 17.0534 23.1962C18.2988 21.9118 19.575 20.6608 20.882 19.4457C20.8691 19.3944 20.8922 19.3714 20.9436 19.3842C21.0155 19.2175 21.167 19.0304 21.3519 19.0073C21.5239 18.9304 21.5213 19.3483 21.4135 19.4149C21.3082 19.5739 21.1901 19.7226 21.0617 19.8636C19.3978 21.476 17.7929 23.1039 16.2522 24.742C16.1829 24.8138 16.1495 24.8035 16.1007 24.7189C15.8491 24.1524 15.4588 23.7063 14.9683 23.3372C14.7192 23.15 14.3829 22.9373 14.0876 22.8347L14.0645 22.7681C16.9917 19.8354 19.9216 16.9001 22.8515 13.9648L22.9234 13.9802C23.5781 14.6237 24.2509 15.2492 24.9031 15.8952L24.9057 15.9054Z" fill="#FABD04"/>
<path d="M22.957 19.044C22.8697 19.1312 22.6874 19.3158 22.6745 19.326L16.3706 25.6041C16.3038 25.3042 16.2293 25.0068 16.1035 24.7248C16.1677 24.7812 16.2216 24.6864 16.2627 24.6479C16.5221 24.3865 16.7609 24.0942 17.0151 23.8302C18.4582 22.3382 19.9732 20.9103 21.4163 19.4209C21.4779 19.244 21.632 19.1107 21.7835 18.9851C21.9376 18.7954 22.107 18.6185 22.2893 18.457C22.3715 18.4467 22.41 18.4057 22.4075 18.3391C22.5513 18.2083 22.6848 18.0699 22.808 17.9186L22.9262 17.8853C23.5347 17.2752 24.1818 16.5984 24.8238 16.0267C24.8648 15.9908 24.9111 15.978 24.9085 15.9062C25.0395 16.0344 25.3039 16.2575 25.3964 16.3754C25.4195 16.4061 25.4786 16.46 25.4606 16.501C25.078 16.883 24.6902 17.2598 24.3102 17.6443C23.8608 18.1006 23.4063 18.5954 22.9595 19.0415L22.957 19.044Z" fill="#CF7407"/>
<path d="M22.9258 13.9904L14.09 22.8423C13.9976 22.809 13.823 22.7782 13.7126 22.7474L13.6895 22.6808C16.6373 19.7378 19.6853 16.6949 22.6331 13.752L22.705 13.7699C22.7846 13.8417 22.8488 13.916 22.9258 13.9904Z" fill="#FABD04"/>
<path d="M22.7053 13.7709L13.7128 22.7484C13.6563 22.733 13.5922 22.7177 13.5254 22.7023C14.6141 21.6307 15.6823 20.5335 16.7634 19.4543C16.8353 19.3825 16.902 19.3338 16.9534 19.2851L22.5949 13.6504C22.6205 13.6504 22.6822 13.7529 22.7053 13.776V13.7709Z" fill="#F2BC13"/>
<path d="M23.1736 15.5599C23.4612 15.5523 23.5999 15.9778 23.6076 16.2265C23.6127 16.3572 23.5999 16.6341 23.4561 16.6571L23.4304 16.7674L22.4675 17.6877C22.506 17.7031 22.5291 17.7338 22.542 17.7851C22.5548 17.8594 22.5214 17.8928 22.447 17.8799C22.3032 17.9184 22.2184 18.0286 22.1645 18.1619C22.1773 18.2363 22.144 18.2696 22.0695 18.2568C22.0233 18.2876 21.9925 18.267 21.977 18.1953C21.8076 18.3081 21.6638 18.4234 21.692 18.6336C21.7049 18.6618 21.692 18.6695 21.6612 18.6644C21.5893 18.7285 21.5534 18.7234 21.5251 18.6311H21.4712C21.3608 18.7746 21.235 18.9105 21.0912 19.0438C21.0732 19.1874 21.0218 19.272 20.9371 19.295C20.8618 19.2882 20.8618 19.2882 20.9371 19.295C20.9859 19.2873 20.9859 19.3207 20.9371 19.3899C20.9165 19.4104 20.896 19.4309 20.8755 19.4514C20.7779 19.5104 20.688 19.5616 20.5725 19.5719L17.1907 22.9814C17.0161 23.1352 16.6566 23.3454 16.4743 23.1557C16.4049 23.2583 16.2303 23.1557 16.1404 23.1045C15.7604 22.8789 15.6166 22.3815 15.8606 22.0021C18.0149 19.8282 20.1796 17.68 22.3545 15.5548C22.4598 15.4215 22.6139 15.401 22.7654 15.3984C22.8861 15.3984 23.1736 15.4189 23.1711 15.5599H23.1736Z" fill="#EF982D"/>
<path d="M23.46 15.4333C23.5422 15.5589 23.2803 15.6024 23.1776 15.5589C22.9978 15.4563 22.7025 15.4281 22.51 15.505C21.3134 16.5587 20.2529 17.7789 19.0897 18.8735C18.9484 19.0043 18.8072 19.1196 18.6531 19.2811C17.7518 20.2117 16.8351 21.1269 15.9159 22.0395C15.6308 22.5035 15.9518 23.0829 16.4808 23.1547C16.5732 23.1777 16.5424 23.3674 16.45 23.3751C15.6565 23.2598 15.2302 22.4651 15.7258 21.7908L22.1248 15.4051C22.5125 15.0923 23.0851 15.1128 23.46 15.4358V15.4333Z" fill="#B84601"/>
<path d="M21.0488 19.2854C19.7854 20.5492 18.3603 21.9899 17.0918 23.2512C16.8812 23.3973 16.6835 23.4127 16.4473 23.3768L16.4781 23.1564C16.7811 23.1974 16.9326 23.1179 17.1534 22.9359L21.0488 19.0137V19.2854Z" fill="#CC7708"/>
<path d="M22.6393 17.7257C22.742 17.8077 22.7574 17.9077 22.9218 17.8821C22.7574 18.0461 22.6136 18.2256 22.4185 18.3999C22.3902 18.4307 22.3697 18.4589 22.3158 18.5101C22.2439 18.5742 21.9255 18.9254 21.8253 19.0305C21.7611 19.0972 21.6302 19.21 21.5583 19.2792C21.5198 19.3151 21.5172 19.31 21.4145 19.4228C21.3914 19.2971 21.4735 19.0869 21.3528 19.0152C21.2861 18.9562 21.3297 18.8921 21.4145 18.9203C21.4222 18.8613 21.4427 18.8408 21.4761 18.8588C21.4941 18.7537 21.5583 18.6896 21.6635 18.6716C21.6738 18.6614 21.6841 18.6511 21.6944 18.6409C21.7663 18.4589 21.8895 18.3358 22.0718 18.264C22.1026 18.2333 22.136 18.2025 22.1668 18.1692C22.2131 18.0308 22.3081 17.9257 22.4493 17.8872C22.4801 17.8564 22.5135 17.8257 22.5443 17.7923C22.5135 17.7052 22.57 17.6719 22.6393 17.7308V17.7257Z" fill="#F2B915"/>
<path d="M23.5199 16.8153C23.3992 16.9025 23.3735 16.7538 23.4582 16.659C23.6329 16.2873 23.5532 15.7771 23.1758 15.5592C23.2631 15.5002 23.4146 15.5182 23.4582 15.4336C23.9359 15.8438 23.8973 16.3616 23.5199 16.8153Z" fill="#CB5901"/>
<path d="M23.5208 16.8152C23.2692 17.1177 22.9225 17.4407 22.6401 17.7252C22.6169 17.7483 22.5682 17.7637 22.545 17.7868L22.3242 17.7406L23.4566 16.6562C23.4515 16.7152 23.4489 16.7921 23.5182 16.8126L23.5208 16.8152Z" fill="#CD7609"/>
<path d="M21.713 18.6212C21.6744 18.6725 21.374 18.9904 21.3509 19.0134C21.2225 19.1416 21.071 19.2621 20.9426 19.3903C20.9426 19.3595 20.94 19.3262 20.9426 19.2954C20.8656 19.3852 20.7911 19.4621 20.6602 19.4518C20.691 19.398 20.8913 19.1544 20.9272 19.1391C21.0068 19.1032 20.9452 19.2621 20.9426 19.2954C21.0479 19.1724 20.9734 19.1391 21.0351 19.0263C21.089 18.9289 21.7335 18.3315 21.8439 18.2188C21.9235 18.2418 21.7926 18.5418 21.7155 18.6212H21.713Z" fill="#CC7708"/>
<path d="M21.699 18.6369C21.4782 18.4318 22.2203 17.896 22.3281 17.7422L22.549 17.7883C22.4231 17.9139 21.8248 18.5113 21.699 18.6369Z" fill="#CF7509"/>
<path d="M11.123 28.2383C11.1539 28.1767 11.2283 28.2203 11.2694 28.2331C12.1425 28.5228 12.8948 28.4869 13.7165 28.0742C15.1904 27.3333 15.8683 25.6004 15.401 24.0059C16.405 25.2082 16.3203 26.977 15.2058 28.0793C14.0914 29.1817 12.3196 29.2509 11.123 28.2383Z" fill="#CE7305"/>
<path d="M14.2414 23.1504L13.6919 23.0889C11.1601 22.9915 9.69127 25.4781 10.7852 27.734C10.8622 27.893 11.0522 28.1468 10.97 28.0955C10.9521 28.0724 10.7441 27.8494 10.7235 27.8263C10.6747 27.7725 10.6542 27.7494 10.5772 27.6289C10.5566 27.5982 10.5361 27.5674 10.5155 27.5341C9.81966 26.4215 9.92238 24.9833 10.7749 23.9836C11.6248 22.9812 13.0268 22.6454 14.2414 23.1504Z" fill="#F9BC03"/>
<path d="M15.6003 24.7855C15.5824 24.5112 15.5541 24.2394 15.4 24.0036C15.2357 23.8087 15.0508 23.6344 14.8428 23.4857C14.6554 23.3499 14.4525 23.2371 14.2394 23.1499C12.1107 22.5629 10.1566 24.3112 10.3672 26.503C10.3903 26.7466 10.5495 27.5746 10.7189 27.7002C10.7369 27.713 10.76 27.7233 10.7806 27.7335C10.814 27.8463 10.8627 27.954 10.9269 28.0591C10.9886 28.1232 11.0553 28.1821 11.1221 28.2411C13.4434 29.1794 15.7672 27.2285 15.6003 24.788V24.7855ZM13.5589 27.4746L11.9284 27.0721L11.8462 27.0286L11.3249 25.3161L11.3404 25.2366L12.5832 24.0677L14.1906 24.5599L14.2599 24.6163L14.7247 26.3056L13.5538 27.4746H13.5589Z" fill="#F9BC03"/>
<path d="M13.5766 27.539L11.8999 27.1237L11.7972 27.0673L11.2656 25.319L11.2887 25.2088L12.5701 24.0039L14.2289 24.5166L14.311 24.5858L14.7912 26.3265L13.5741 27.5416L13.5766 27.539ZM11.9487 27.0212L13.5407 27.4134L14.6654 26.2906L14.2135 24.6499L14.1672 24.6115L12.6009 24.1321L11.394 25.2652L11.3837 25.3139L11.8922 26.9904L11.9461 27.0212H11.9487Z" fill="#1A1409"/>
<path d="M31.0599 11.4362C30.9843 11.163 30.859 11.1375 30.6345 11.306C30.384 11.4924 30.0943 11.8115 29.8673 12.0387C29.3297 12.5723 28.8129 13.1723 28.257 13.6829C27.5315 14.3467 26.8843 13.3867 26.4171 12.9323C25.9552 12.4804 25.8586 12.5111 25.5533 11.9009C25.5794 11.5869 25.6942 11.4184 25.9056 11.1962C26.5059 10.5631 27.2157 9.94525 27.8369 9.30699C28.0065 9.13594 28.3823 8.92404 28.2623 8.64065C28.2309 8.56661 28.1004 8.54874 28.0222 8.53342C27.8838 8.50534 27.6124 8.47215 27.4715 8.46194C24.7521 8.28578 22.6303 10.2925 22.7739 12.9629C22.7817 13.1238 22.8026 13.4378 22.8626 13.5782C22.8835 13.6293 22.9174 13.6727 22.954 13.7161L22.7608 13.8667L16.9828 19.5191C16.9384 19.5574 16.8862 19.5957 16.8314 19.6493C16.1999 20.2672 15.5709 20.8927 14.9419 21.5131L13.5405 22.884L13.3291 23.1113C12.3635 23.0372 11.3953 23.4125 10.7428 24.1631C9.87897 25.1614 9.77197 26.5911 10.4792 27.6991C10.5001 27.7297 10.521 27.7629 10.5419 27.7935C10.6175 27.911 10.641 27.9339 10.6906 27.9901C10.7037 28.008 10.8263 28.1382 10.8942 28.2097C10.8942 28.2122 10.8968 28.2173 10.8994 28.2199C10.9072 28.2275 10.9177 28.2352 10.9255 28.2429C10.9307 28.2505 10.9359 28.2556 10.9385 28.2582C10.9385 28.2582 10.9438 28.2582 10.9438 28.2607C10.9933 28.3092 11.0455 28.3552 11.0977 28.4012C12.3139 29.4096 14.1146 29.3407 15.2473 28.2429C15.8684 27.6404 16.1711 26.8361 16.1529 26.037L16.4269 25.7766L22.8339 19.5242C22.847 19.514 23.0323 19.3302 23.121 19.2434C23.489 18.8834 23.8622 18.4928 24.2328 18.115L25.6629 16.7108L25.8299 16.5525C25.8639 16.5831 25.8952 16.6036 25.9187 16.6163C25.9526 16.6317 25.9735 16.6419 26.0126 16.6495C28.0587 17.0248 30.1387 15.8964 30.8746 14.002C31.1565 13.2744 31.2609 12.1868 31.0547 11.4362H31.0599Z" stroke="#1A1409" stroke-width="0.243094" stroke-miterlimit="10"/>
</svg>
