<svg width="14" height="14" viewBox="0 0 14 14" fill="none" xmlns="http://www.w3.org/2000/svg">
<path fill-rule="evenodd" clip-rule="evenodd" d="M4.08268 4.08268C4.08268 2.47152 5.38818 1.16602 6.99935 1.16602C8.61052 1.16602 9.91602 2.47152 9.91602 4.08268V5.83268H10.1493C10.6627 5.83268 11.0827 6.25268 11.0827 6.76602V10.8493C11.0827 11.6193 10.4527 12.2493 9.68268 12.2493H4.31602C3.54602 12.2493 2.91602 11.6193 2.91602 10.8493V6.76602C2.91602 6.25268 3.33602 5.83268 3.84935 5.83268H4.08268V4.08268ZM8.74935 4.08268V5.83268H5.24935V4.08268C5.24935 3.11552 6.03218 2.33268 6.99935 2.33268C7.96652 2.33268 8.74935 3.11552 8.74935 4.08268ZM6.99935 7.14518C6.76738 7.14494 6.54225 7.22371 6.36103 7.36852C6.17981 7.51333 6.05331 7.71554 6.00237 7.94184C5.95143 8.16815 5.97909 8.40506 6.08078 8.61355C6.18248 8.82204 6.35215 8.98967 6.56185 9.08885V10.4993C6.56185 10.6154 6.60794 10.7267 6.68999 10.8087C6.77204 10.8908 6.88332 10.9368 6.99935 10.9368C7.11538 10.9368 7.22666 10.8908 7.30871 10.8087C7.39076 10.7267 7.43685 10.6154 7.43685 10.4993V9.08885C7.64655 8.98967 7.81622 8.82204 7.91791 8.61355C8.01961 8.40506 8.04727 8.16815 7.99633 7.94184C7.94539 7.71554 7.81889 7.51333 7.63767 7.36852C7.45645 7.22371 7.23132 7.14494 6.99935 7.14518Z" fill="#2F130A"/>
</svg>
