<svg width="14" height="19" viewBox="0 0 14 19" fill="none" xmlns="http://www.w3.org/2000/svg">
<path fill-rule="evenodd" clip-rule="evenodd" d="M2 5C2 2.238 4.238 0 7 0C9.762 0 12 2.238 12 5V8H12.4C13.28 8 14 8.72 14 9.6V16.6C14 17.92 12.92 19 11.6 19H2.4C1.08 19 0 17.92 0 16.6V9.6C0 8.72 0.72 8 1.6 8H2V5ZM10 5V8H4V5C4 3.342 5.342 2 7 2C8.658 2 10 3.342 10 5ZM7 10.25C6.60234 10.2496 6.21639 10.3846 5.90573 10.6329C5.59507 10.8811 5.37822 11.2278 5.2909 11.6157C5.20357 12.0037 5.25098 12.4098 5.42531 12.7672C5.59965 13.1246 5.89051 13.412 6.25 13.582V16C6.25 16.1989 6.32902 16.3897 6.46967 16.5303C6.61032 16.671 6.80109 16.75 7 16.75C7.19891 16.75 7.38968 16.671 7.53033 16.5303C7.67098 16.3897 7.75 16.1989 7.75 16V13.582C8.10949 13.412 8.40035 13.1246 8.57469 12.7672C8.74902 12.4098 8.79643 12.0037 8.7091 11.6157C8.62178 11.2278 8.40493 10.8811 8.09427 10.6329C7.78361 10.3846 7.39766 10.2496 7 10.25Z" fill="#FE4D13"/>
</svg>
