<svg width="29" height="52" viewBox="0 0 29 52" fill="none" xmlns="http://www.w3.org/2000/svg">
<g clip-path="url(#clip0_2136_4666)">
<path d="M22.9456 28.2749V21.8622C22.9456 21.4124 22.5797 21.0459 22.1293 21.0459H6.56047C6.11065 21.0459 5.74424 21.4118 5.74424 21.8622V28.2749L4.40039 29.6187V21.8627C4.40039 20.6719 5.36913 19.7031 6.56047 19.7031H22.1293C23.3202 19.7031 24.2894 20.6719 24.2894 21.8627V29.6187L22.9456 28.2749Z" fill="#D3A148"/>
<path d="M21.6471 0H7.04337C6.70336 0 6.42773 0.275627 6.42773 0.61563V20.9488C6.42773 21.2888 6.70336 21.5645 7.04337 21.5645H21.6471C21.9871 21.5645 22.2627 21.2888 22.2627 20.9488V0.61563C22.2627 0.275627 21.9871 0 21.6471 0Z" fill="#BA4242"/>
<path d="M20.4899 0H8.19727V21.5645H20.4899V0Z" fill="#E52E2E"/>
<path d="M14.3468 51.2248C22.2703 51.2248 28.6936 44.8016 28.6936 36.878C28.6936 28.9545 22.2703 22.5312 14.3468 22.5312C6.42328 22.5312 0 28.9545 0 36.878C0 44.8016 6.42328 51.2248 14.3468 51.2248Z" fill="#EFB04B"/>
<path d="M14.3433 47.966C20.4668 47.966 25.4308 43.002 25.4308 36.8785C25.4308 30.7551 20.4668 25.791 14.3433 25.791C8.2199 25.791 3.25586 30.7551 3.25586 36.8785C3.25586 43.002 8.2199 47.966 14.3433 47.966Z" fill="#F7C452"/>
</g>
<defs>
<clipPath id="clip0_2136_4666">
<rect width="28.6931" height="51.2253" fill="white"/>
</clipPath>
</defs>
</svg>
