<svg width="24" height="24" viewBox="0 0 24 24" fill="none" xmlns="http://www.w3.org/2000/svg">
<path d="M1.0007 19L0.0707047 18.63C0.0042539 18.7972 -0.0158572 18.9792 0.0124913 19.1569C0.0408397 19.3346 0.116598 19.5013 0.231779 19.6395C0.346961 19.7777 0.497299 19.8823 0.666946 19.9422C0.836593 20.0022 1.01926 20.0152 1.1957 19.98L1.0007 19ZM5.70671 18.064L6.18071 17.183L5.8637 17.013L5.5117 17.083L5.70671 18.064ZM2.6247 14.917L3.5547 15.287L3.7177 14.873L3.5217 14.474L2.6247 14.917ZM16.0007 12C16.0007 15.246 13.1477 18 9.47071 18V20C14.1117 20 18.0007 16.486 18.0007 12H16.0007ZM2.9417 12C2.9417 8.754 5.7957 6 9.4717 6V4C4.8307 4 0.940705 7.514 0.940705 12H2.9417ZM9.4717 6C13.1477 6 16.0007 8.754 16.0007 12H18.0007C18.0007 7.514 14.1127 4 9.4717 4V6ZM9.47071 18C8.26571 18 7.1437 17.7 6.18071 17.183L5.23271 18.944C6.53603 19.6427 7.99192 20.0056 9.47071 20V18ZM1.1957 19.98L5.9017 19.044L5.5117 17.083L0.805705 18.019L1.1957 19.981V19.98ZM3.5217 14.474C3.14101 13.7048 2.94322 12.8583 2.9417 12H0.940705C0.940705 13.2 1.2227 14.338 1.7267 15.36L3.5217 14.474ZM1.6957 14.547L0.0707047 18.631L1.9287 19.369L3.5527 15.286L1.6947 14.547H1.6957Z" fill="black"/>
<path d="M6.00098 13C6.55326 13 7.00098 12.5523 7.00098 12C7.00098 11.4477 6.55326 11 6.00098 11C5.44869 11 5.00098 11.4477 5.00098 12C5.00098 12.5523 5.44869 13 6.00098 13Z" fill="black"/>
<path d="M9.50098 13C10.0533 13 10.501 12.5523 10.501 12C10.501 11.4477 10.0533 11 9.50098 11C8.94869 11 8.50098 11.4477 8.50098 12C8.50098 12.5523 8.94869 13 9.50098 13Z" fill="black"/>
<path d="M13.001 13C13.5533 13 14.001 12.5523 14.001 12C14.001 11.4477 13.5533 11 13.001 11C12.4487 11 12.001 11.4477 12.001 12C12.001 12.5523 12.4487 13 13.001 13Z" fill="black"/>
</svg>
