<svg width="24" height="24" viewBox="0 0 24 24" fill="none" xmlns="http://www.w3.org/2000/svg">
<g clip-path="url(#clip0_671_11743)">
<path d="M21.9001 18.7531L21.6734 18.5531C21.0306 17.98 20.4677 17.323 20.0001 16.5998C19.4891 15.6017 19.1831 14.5114 19.1001 13.3931V10.0998C19.1045 8.34351 18.4675 6.64609 17.3086 5.32642C16.1498 4.00675 14.5489 3.15568 12.8068 2.93311V2.07311C12.8068 1.83706 12.713 1.61069 12.5461 1.44378C12.3792 1.27687 12.1528 1.18311 11.9168 1.18311C11.6807 1.18311 11.4544 1.27687 11.2875 1.44378C11.1205 1.61069 11.0268 1.83706 11.0268 2.07311V2.94644C9.30029 3.18506 7.71876 4.04128 6.57513 5.35651C5.4315 6.67174 4.80327 8.35687 4.80678 10.0998V13.3931C4.72382 14.5114 4.4178 15.6017 3.90678 16.5998C3.44737 17.3213 2.89358 17.9783 2.26011 18.5531L2.03345 18.7531V20.6331H21.9001V18.7531Z" fill="#FFBA0A"/>
<path d="M10.2134 21.3335C10.2718 21.7561 10.4812 22.1432 10.8029 22.4235C11.1246 22.7037 11.5368 22.8581 11.9634 22.8581C12.39 22.8581 12.8022 22.7037 13.1239 22.4235C13.4455 22.1432 13.6549 21.7561 13.7134 21.3335H10.2134Z" fill="#FFBA0A"/>
</g>
<defs>
<clipPath id="clip0_671_11743">
<rect width="24" height="24" fill="white"/>
</clipPath>
</defs>
</svg>
