<svg width="42" height="49" viewBox="0 0 42 49" fill="none" xmlns="http://www.w3.org/2000/svg">
<path fill-rule="evenodd" clip-rule="evenodd" d="M41.475 12.04L29.995 0.49L28.77 0H1.75L0 1.75V21H3.5V3.5H24.5V15.75L26.25 17.5H38.5V21H42V13.3L41.475 12.04ZM28 14V3.5L38.5 14H28ZM1.75 24.5L0 26.25V47.25L1.75 49H40.25L42 47.25V26.25L40.25 24.5H1.75ZM38.5 42V45.5H3.5V28H38.5V42ZM10.5 38.5H9.38V42H7V31.5H10.71C13.335 31.5 14.665 32.76 14.665 35C14.6718 35.4761 14.5751 35.9479 14.3818 36.383C14.1884 36.8181 13.9029 37.206 13.545 37.52C12.6776 38.1961 11.5989 38.5433 10.5 38.5ZM10.29 33.425H9.38V36.68H10.29C11.55 36.68 12.18 36.12 12.18 35.035C12.18 33.95 11.55 33.425 10.29 33.425ZM24.5 40.53C25.0169 40.0209 25.4211 39.4089 25.6864 38.7336C25.9517 38.0583 26.0721 37.3348 26.04 36.61C26.04 33.11 24.185 31.5 20.44 31.5H16.73V42H20.44C21.1803 42.0359 21.9204 41.9244 22.6174 41.672C23.3143 41.4197 23.9542 41.0315 24.5 40.53ZM19.075 40.075V33.425H20.23C20.6764 33.3966 21.1239 33.4596 21.5452 33.61C21.9664 33.7605 22.3526 33.9953 22.68 34.3C22.9783 34.6103 23.2099 34.9785 23.3604 35.3819C23.5109 35.7852 23.5771 36.2151 23.555 36.645C23.6074 37.5676 23.2929 38.4734 22.68 39.165C22.3596 39.4716 21.9805 39.7103 21.5655 39.8667C21.1504 40.0231 20.7081 40.0939 20.265 40.075H19.075ZM34.65 37.94H31.255V42H28.875V31.5H34.965V33.425H31.255V36.015H34.65V37.94Z" fill="#6F2E17"/>
</svg>
