<svg width="18" height="20" viewBox="0 0 18 20" fill="none" xmlns="http://www.w3.org/2000/svg">
<path d="M15.3612 8.94194C15.3612 8.19174 15.3612 7.50208 15.2218 7.1655C15.0824 6.82893 14.8173 6.56297 14.2863 6.03288L9.94293 1.68947C9.48529 1.23183 9.25693 1.00347 8.97263 0.867741C8.91379 0.839476 8.85348 0.814373 8.79196 0.792538C8.49573 0.687988 8.172 0.687988 7.52544 0.687988C4.54943 0.687988 3.06097 0.687988 2.05307 1.50054C1.84955 1.66465 1.66416 1.85004 1.50006 2.05356C0.6875 3.06329 0.6875 4.54992 0.6875 7.52593V11.6933C0.6875 15.1517 0.6875 16.8813 1.76235 17.9552C2.83719 19.0292 4.56594 19.0301 8.02434 19.0301H15.3612M8.94145 1.14654V1.60509C8.94145 4.19867 8.94145 5.49637 9.74758 6.30159C10.5528 7.10773 11.8505 7.10773 14.4441 7.10773H14.9026" stroke="black" stroke-width="1.37566" stroke-linecap="round" stroke-linejoin="round"/>
<path d="M17.1949 11.6934H15.3607C15.1175 11.6934 14.8842 11.79 14.7122 11.962C14.5402 12.134 14.4436 12.3672 14.4436 12.6105V13.9861M14.4436 13.9861V16.2789M14.4436 13.9861H16.7364M4.35547 16.2789V14.4447M4.35547 14.4447V11.6934H5.73113C6.09597 11.6934 6.44588 11.8383 6.70386 12.0963C6.96185 12.3543 7.10678 12.7042 7.10678 13.069C7.10678 13.4339 6.96185 13.7838 6.70386 14.0418C6.44588 14.2997 6.09597 14.4447 5.73113 14.4447H4.35547ZM9.39955 11.6934H10.5789C11.4474 11.6934 12.1509 12.3775 12.1509 13.2222V14.7501C12.1509 15.5938 11.4465 16.2789 10.5789 16.2789H9.39955V11.6934Z" stroke="black" stroke-width="1.37566" stroke-linecap="round" stroke-linejoin="round"/>
</svg>
