<svg width="14" height="14" viewBox="0 0 14 14" fill="none" xmlns="http://www.w3.org/2000/svg">
<path d="M12.3336 12.3336L9.46484 9.46484M9.46484 9.46484C9.92528 9.00439 10.2905 8.45776 10.5397 7.85615C10.7889 7.25455 10.9172 6.60976 10.9172 5.95859C10.9172 5.30742 10.7889 4.66262 10.5397 4.06102C10.2905 3.45941 9.92528 2.91278 9.46484 2.45234C9.00439 1.99189 8.45776 1.62664 7.85615 1.37745C7.25455 1.12826 6.60976 1 5.95859 1C5.30742 1 4.66262 1.12826 4.06102 1.37745C3.45941 1.62664 2.91278 1.99189 2.45234 2.45234C1.52242 3.38225 1 4.64349 1 5.95859C1 7.27369 1.52242 8.53492 2.45234 9.46484C3.38225 10.3948 4.64349 10.9172 5.95859 10.9172C7.27369 10.9172 8.53492 10.3948 9.46484 9.46484Z" stroke="#8D9CE2" stroke-width="2" stroke-linecap="round" stroke-linejoin="round"/>
</svg>
