<svg width="33" height="34" viewBox="0 0 33 34" fill="none" xmlns="http://www.w3.org/2000/svg">
<path d="M30.0724 17.7689C29.8052 17.4648 29.6579 17.0738 29.6579 16.6689C29.6579 16.2641 29.8052 15.8731 30.0724 15.5689L32.2058 13.1689C32.4408 12.9067 32.5868 12.5768 32.6227 12.2264C32.6587 11.8761 32.5827 11.5234 32.4058 11.2189L29.0724 5.45227C28.8973 5.14814 28.6306 4.90706 28.3103 4.76341C27.9901 4.61976 27.6327 4.58086 27.2891 4.65227L24.1558 5.2856C23.7571 5.36798 23.342 5.30158 22.9889 5.09893C22.6358 4.89629 22.3691 4.57141 22.2391 4.1856L21.2224 1.1356C21.1106 0.804565 20.8976 0.517042 20.6135 0.31367C20.3293 0.110298 19.9885 0.00136466 19.6391 0.0022666H12.9724C12.609 -0.0167035 12.2493 0.0838105 11.9484 0.288457C11.6474 0.493103 11.4217 0.790632 11.3058 1.1356L10.3724 4.1856C10.2424 4.57141 9.97571 4.89629 9.62261 5.09893C9.26951 5.30158 8.85445 5.36798 8.45575 5.2856L5.23908 4.65227C4.91334 4.60623 4.58125 4.65764 4.28466 4.8C3.98808 4.94236 3.74025 5.16931 3.57242 5.45227L0.239085 11.2189C0.057685 11.52 -0.0238782 11.8707 0.00605591 12.221C0.03599 12.5712 0.175889 12.903 0.405751 13.1689L2.52242 15.5689C2.78962 15.8731 2.93698 16.2641 2.93698 16.6689C2.93698 17.0738 2.78962 17.4648 2.52242 17.7689L0.405751 20.1689C0.175889 20.4349 0.03599 20.7667 0.00605591 21.1169C-0.0238782 21.4671 0.057685 21.8179 0.239085 22.1189L3.57242 27.8856C3.74758 28.1897 4.01428 28.4308 4.33451 28.5745C4.65473 28.7181 5.01213 28.757 5.35575 28.6856L8.48908 28.0523C8.88778 27.9699 9.30284 28.0363 9.65594 28.2389C10.009 28.4416 10.2758 28.7665 10.4058 29.1523L11.4224 32.2023C11.5384 32.5472 11.7641 32.8448 12.065 33.0494C12.366 33.2541 12.7256 33.3546 13.0891 33.3356H19.7558C20.1052 33.3365 20.446 33.2276 20.7301 33.0242C21.0143 32.8208 21.2273 32.5333 21.3391 32.2023L22.3558 29.1523C22.4858 28.7665 22.7525 28.4416 23.1056 28.2389C23.4587 28.0363 23.8737 27.9699 24.2724 28.0523L27.4058 28.6856C27.7494 28.757 28.1068 28.7181 28.427 28.5745C28.7472 28.4308 29.0139 28.1897 29.1891 27.8856L32.5224 22.1189C32.6994 21.8145 32.7753 21.4618 32.7394 21.1114C32.7035 20.7611 32.5575 20.4312 32.3224 20.1689L30.0724 17.7689ZM27.5891 20.0023L28.9224 21.5023L26.7891 25.2023L24.8224 24.8023C23.622 24.5569 22.3734 24.7608 21.3134 25.3753C20.2534 25.9897 19.456 26.972 19.0724 28.1356L18.4391 30.0023H14.1724L13.5724 28.1023C13.1888 26.9387 12.3914 25.9564 11.3314 25.3419C10.2715 24.7275 9.02279 24.5236 7.82242 24.7689L5.85575 25.1689L3.68909 21.4856L5.02242 19.9856C5.84234 19.0689 6.29564 17.8822 6.29564 16.6523C6.29564 15.4224 5.84234 14.2356 5.02242 13.3189L3.68909 11.8189L5.82242 8.15227L7.78908 8.55227C8.98945 8.79764 10.2381 8.59373 11.2981 7.97926C12.3581 7.36479 13.1555 6.38253 13.5391 5.21893L14.1724 3.3356H18.4391L19.0724 5.2356C19.456 6.3992 20.2534 7.38146 21.3134 7.99593C22.3734 8.6104 23.622 8.8143 24.8224 8.56893L26.7891 8.16893L28.9224 11.8689L27.5891 13.3689C26.7784 14.2835 26.3307 15.4634 26.3307 16.6856C26.3307 17.9078 26.7784 19.0877 27.5891 20.0023ZM16.3058 10.0023C14.9872 10.0023 13.6983 10.3933 12.6019 11.1258C11.5056 11.8583 10.6511 12.8995 10.1466 14.1177C9.64197 15.3359 9.50995 16.6763 9.76718 17.9695C10.0244 19.2627 10.6594 20.4506 11.5917 21.383C12.5241 22.3153 13.7119 22.9503 15.0051 23.2075C16.2984 23.4647 17.6388 23.3327 18.857 22.8281C20.0751 22.3235 21.1163 21.4691 21.8489 20.3727C22.5814 19.2764 22.9724 17.9875 22.9724 16.6689C22.9724 14.9008 22.27 13.2051 21.0198 11.9549C19.7696 10.7046 18.0739 10.0023 16.3058 10.0023ZM16.3058 20.0023C15.6465 20.0023 15.002 19.8068 14.4538 19.4405C13.9057 19.0742 13.4784 18.5536 13.2262 17.9445C12.9739 17.3355 12.9078 16.6652 13.0365 16.0186C13.1651 15.372 13.4826 14.7781 13.9487 14.3119C14.4149 13.8457 15.0088 13.5283 15.6555 13.3996C16.3021 13.271 16.9723 13.337 17.5814 13.5893C18.1904 13.8416 18.711 14.2689 19.0773 14.817C19.4436 15.3652 19.6391 16.0097 19.6391 16.6689C19.6391 17.553 19.2879 18.4008 18.6628 19.026C18.0377 19.6511 17.1898 20.0023 16.3058 20.0023Z" fill="#6F2E17"/>
</svg>
