<svg width="16" height="16" viewBox="0 0 16 16" fill="none" xmlns="http://www.w3.org/2000/svg">
<path d="M7.5 1.99999C7.63261 1.99999 7.75979 2.05266 7.85355 2.14643C7.94732 2.2402 8 2.36738 8 2.49999C8 2.63259 7.94732 2.75977 7.85355 2.85354C7.75979 2.94731 7.63261 2.99999 7.5 2.99999H4.5C4.10218 2.99999 3.72064 3.15802 3.43934 3.43933C3.15804 3.72063 3 4.10216 3 4.49999V11.5C3 11.8978 3.15804 12.2793 3.43934 12.5606C3.72064 12.842 4.10218 13 4.5 13H11.5C11.8978 13 12.2794 12.842 12.5607 12.5606C12.842 12.2793 13 11.8978 13 11.5V9.49999C13 9.36738 13.0527 9.2402 13.1464 9.14643C13.2402 9.05266 13.3674 8.99999 13.5 8.99999C13.6326 8.99999 13.7598 9.05266 13.8536 9.14643C13.9473 9.2402 14 9.36738 14 9.49999V11.5C14 12.163 13.7366 12.7989 13.2678 13.2678C12.7989 13.7366 12.163 14 11.5 14H4.5C3.83696 14 3.20107 13.7366 2.73223 13.2678C2.26339 12.7989 2 12.163 2 11.5V4.49999C2 3.83694 2.26339 3.20106 2.73223 2.73222C3.20107 2.26338 3.83696 1.99999 4.5 1.99999H7.5ZM10.78 1.04999C10.8642 1.00886 10.9582 0.992214 11.0514 1.00194C11.1446 1.01166 11.2331 1.04737 11.307 1.10499L15.807 4.60499C15.8672 4.65172 15.916 4.71161 15.9495 4.78007C15.983 4.84853 16.0004 4.92376 16.0004 4.99999C16.0004 5.07622 15.983 5.15144 15.9495 5.2199C15.916 5.28836 15.8672 5.34825 15.807 5.39499L11.307 8.89499C11.2331 8.95248 11.1445 8.98806 11.0514 8.99768C10.9583 9.00731 10.8643 8.99059 10.7802 8.94942C10.6961 8.90826 10.6252 8.84431 10.5757 8.76485C10.5262 8.68539 10.4999 8.59362 10.5 8.49999V7.02499C8.268 7.25499 6.876 8.99799 6.104 10.424L5.947 10.724C5.89655 10.8246 5.81361 10.9053 5.7116 10.953C5.60958 11.0006 5.49448 11.0124 5.38491 10.9865C5.27534 10.9606 5.17773 10.8985 5.10787 10.8102C5.03802 10.7219 5.00001 10.6126 5 10.5C5 8.42399 5.518 6.55899 6.537 5.19999C7.475 3.94999 8.823 3.15299 10.5 3.02099V1.49999C10.4998 1.40628 10.526 1.3144 10.5755 1.23483C10.625 1.15527 10.6958 1.09122 10.78 1.04999ZM11.5 3.49999C11.5 3.63259 11.4473 3.75977 11.3536 3.85354C11.2598 3.94731 11.1326 3.99999 11 3.99999C9.41 3.99999 8.183 4.67299 7.338 5.79999C6.801 6.51599 6.41 7.42599 6.194 8.47999C7.222 7.19799 8.775 5.99999 11 5.99999C11.1326 5.99999 11.2598 6.05266 11.3536 6.14643C11.4473 6.2402 11.5 6.36738 11.5 6.49999V7.47799L14.685 4.99999L11.5 2.52099V3.49999Z" fill="#6F2E17"/>
</svg>
