<svg width="107" height="101" viewBox="0 0 107 101" fill="none" xmlns="http://www.w3.org/2000/svg">
<path d="M89.4458 35.9999L88.2036 38.8581C88.0094 39.3235 87.6819 39.721 87.2623 40.0007C86.8426 40.2803 86.3496 40.4295 85.8453 40.4295C85.3411 40.4295 84.8481 40.2803 84.4284 40.0007C84.0088 39.721 83.6813 39.3235 83.4871 38.8581L82.2449 35.9999C80.0608 30.9437 76.0609 26.8898 71.0345 24.638L67.2018 22.9262C66.7368 22.7123 66.3429 22.3695 66.0667 21.9386C65.7906 21.5076 65.6439 21.0065 65.6439 20.4947C65.6439 19.9829 65.7906 19.4818 66.0667 19.0509C66.3429 18.6199 66.7368 18.2772 67.2018 18.0633L70.8224 16.4524C75.9752 14.1365 80.0435 9.93262 82.1893 4.70676L83.4669 1.62137C83.6546 1.14343 83.9818 0.733115 84.4061 0.443902C84.8304 0.154689 85.3319 0 85.8453 0C86.3588 0 86.8604 0.154689 87.2846 0.443902C87.7089 0.733115 88.0361 1.14343 88.2238 1.62137L89.5014 4.7017C91.6449 9.92856 95.7115 14.1343 100.863 16.4524L104.489 18.0683C104.953 18.2828 105.345 18.6255 105.62 19.0559C105.895 19.4863 106.041 19.9865 106.041 20.4973C106.041 21.008 105.895 21.5082 105.62 21.9386C105.345 22.369 104.953 22.7117 104.489 22.9262L100.651 24.633C95.6257 26.887 91.6276 30.9427 89.4458 35.9999ZM105.539 101L83.3205 45.453H73.221L51.0073 101H61.8844L67.939 85.8508H88.5924L94.6571 101H105.539ZM71.9738 75.7514L78.2708 60.0215L84.5577 75.7514H71.9738ZM28.0108 57.0876C22.2571 50.551 17.4561 43.2339 13.7504 35.3535H25.0618C27.9196 40.608 31.3416 45.5354 35.2673 50.0483C41.8419 42.8065 47.0009 34.3966 50.4771 25.2541H0V15.1546H30.2984V5.05519H40.3978V15.1546H63.879C63.438 17.326 62.9179 19.4671 62.3187 21.5779C58.547 34.8681 51.7119 47.0889 42.3622 57.2593C46.0059 60.5368 49.935 63.4824 54.1028 66.0609L50.3003 75.5645C44.8619 72.3407 39.7687 68.5673 35.1007 64.3036C26.0406 72.1549 15.4778 78.0806 4.05493 81.7201L0.994796 72.0954C10.9081 68.938 20.0924 63.836 28.0108 57.0876Z" fill="#FE4D13"/>
</svg>
