<svg width="18" height="18" viewBox="0 0 18 18" fill="none" xmlns="http://www.w3.org/2000/svg">
<path fill-rule="evenodd" clip-rule="evenodd" d="M9.20927 1.32614C8.82415 1.26084 8.29838 1.25581 7.35067 1.25581C5.74574 1.25581 4.60463 1.25749 3.74064 1.37302C2.89338 1.48605 2.40697 1.69953 2.05283 2.05284C1.69869 2.40614 1.48604 2.89256 1.37302 3.73479C1.25748 4.59544 1.25581 5.72902 1.25581 7.32642V10.6753C1.25581 12.271 1.25748 13.4046 1.37302 14.2652C1.48604 15.1074 1.69869 15.593 2.05283 15.948C2.40697 16.3013 2.89255 16.514 3.73478 16.627C4.59542 16.7433 5.729 16.7442 7.32555 16.7442H10.6744C12.2709 16.7442 13.4053 16.7425 14.266 16.627C15.1074 16.514 15.593 16.3013 15.9471 15.9472C16.3012 15.593 16.5139 15.1074 16.6269 14.2652C16.7424 13.4054 16.7441 12.271 16.7441 10.6744V10.3086C16.7441 9.0226 16.7357 8.41312 16.5984 7.95349H13.978C13.0294 7.95349 12.255 7.95349 11.6422 7.87144C11.0034 7.78521 10.4492 7.59935 10.0063 7.15647C9.5634 6.71358 9.37754 6.16019 9.29131 5.51972C9.20926 4.90856 9.20927 4.1333 9.20927 3.18391V1.32614ZM10.4651 1.97581V3.13953C10.4651 4.14419 10.4667 4.83405 10.5362 5.35228C10.6032 5.85293 10.7238 6.09823 10.8946 6.26819C11.0654 6.43814 11.3098 6.55953 11.8105 6.62651C12.3287 6.696 13.0186 6.69767 14.0232 6.69767H15.7144C15.3931 6.39178 15.0665 6.09145 14.7348 5.79684L11.4203 2.81386C11.1077 2.52801 10.7892 2.2486 10.4651 1.97581ZM7.47206 0C8.63159 0 9.38089 4.99016e-08 10.0699 0.263721C10.7589 0.528279 11.3132 1.02726 12.1713 1.8L12.2609 1.88037L15.5745 4.86335L15.6792 4.95712C16.6704 5.84874 17.3117 6.42558 17.6558 7.19916C17.9999 7.97274 18.0008 8.83507 17.9999 10.1679V10.7213C17.9999 12.2601 17.9999 13.4791 17.8718 14.4327C17.7396 15.4139 17.4616 16.2084 16.8354 16.8354C16.2083 17.4617 15.4138 17.7396 14.4326 17.8719C13.4782 18 12.26 18 10.7213 18H7.27867C5.73988 18 4.52091 18 3.56733 17.8719C2.58613 17.7396 1.79162 17.4617 1.16455 16.8354C0.538323 16.2084 0.260371 15.4139 0.128093 14.4327C0 13.4782 0 12.2601 0 10.7213V7.27953C0 5.74074 0 4.52177 0.128093 3.56819C0.260371 2.58698 0.538323 1.79247 1.16455 1.1654C1.79246 0.538326 2.58864 0.261209 3.57403 0.12893C4.5318 0.000837248 5.75663 0.000837248 7.30378 0.000837248H7.4729" fill="#BD9F94"/>
</svg>
