<svg width="38" height="48" viewBox="0 0 38 48" fill="none" xmlns="http://www.w3.org/2000/svg">
<path d="M9.33333 29.3327C8.97971 29.3327 8.64057 29.1922 8.39052 28.9422C8.14048 28.6921 8 28.353 8 27.9993C8 27.6457 8.14048 27.3066 8.39052 27.0565C8.64057 26.8065 8.97971 26.666 9.33333 26.666H28C28.3536 26.666 28.6928 26.8065 28.9428 27.0565C29.1929 27.3066 29.3333 27.6457 29.3333 27.9993C29.3333 28.353 29.1929 28.6921 28.9428 28.9422C28.6928 29.1922 28.3536 29.3327 28 29.3327H9.33333ZM9.33333 37.3327C8.97971 37.3327 8.64057 37.1922 8.39052 36.9422C8.14048 36.6921 8 36.353 8 35.9993C8 35.6457 8.14048 35.3066 8.39052 35.0565C8.64057 34.8065 8.97971 34.666 9.33333 34.666H28C28.3536 34.666 28.6928 34.8065 28.9428 35.0565C29.1929 35.3066 29.3333 35.6457 29.3333 35.9993C29.3333 36.353 29.1929 36.6921 28.9428 36.9422C28.6928 37.1922 28.3536 37.3327 28 37.3327H9.33333Z" fill="#FE4D13"/>
<path fill-rule="evenodd" clip-rule="evenodd" d="M21.8267 3.72645e-07H4C2.93913 3.72645e-07 1.92172 0.421428 1.17157 1.17157C0.421427 1.92172 0 2.93913 0 4V44C0 45.0609 0.421427 46.0783 1.17157 46.8284C1.92172 47.5786 2.93913 48 4 48H33.3333C34.3942 48 35.4116 47.5786 36.1618 46.8284C36.9119 46.0783 37.3333 45.0609 37.3333 44V16.5387C37.3331 15.5373 36.9572 14.5724 36.28 13.8347L24.776 1.296C24.4011 0.887321 23.9453 0.561068 23.4376 0.337959C22.9298 0.11485 22.3813 -0.000239003 21.8267 3.72645e-07ZM2.66667 4C2.66667 3.64638 2.80714 3.30724 3.05719 3.05719C3.30724 2.80714 3.64638 2.66667 4 2.66667H21.8267C22.0117 2.66646 22.1947 2.70477 22.3641 2.77914C22.5335 2.85351 22.6856 2.96233 22.8107 3.09867L34.3147 15.6373C34.5407 15.8831 34.6663 16.2047 34.6667 16.5387V44C34.6667 44.3536 34.5262 44.6928 34.2761 44.9428C34.0261 45.1929 33.687 45.3333 33.3333 45.3333H4C3.64638 45.3333 3.30724 45.1929 3.05719 44.9428C2.80714 44.6928 2.66667 44.3536 2.66667 44V4Z" fill="#FE4D13"/>
<path d="M21.3332 16H35.9998C36.3535 16 36.6926 16.1405 36.9426 16.3905C37.1927 16.6406 37.3332 16.9797 37.3332 17.3333C37.3332 17.687 37.1927 18.0261 36.9426 18.2761C36.6926 18.5262 36.3535 18.6667 35.9998 18.6667H19.9998C19.6462 18.6667 19.3071 18.5262 19.057 18.2761C18.807 18.0261 18.6665 17.687 18.6665 17.3333V1.33333C18.6665 0.979711 18.807 0.640573 19.057 0.390524C19.3071 0.140476 19.6462 0 19.9998 0C20.3535 0 20.6926 0.140476 20.9426 0.390524C21.1927 0.640573 21.3332 0.979711 21.3332 1.33333V16Z" fill="#FE4D13"/>
</svg>
