<?xml version="1.0" encoding="UTF-8"?>
<svg id="Layer_2" data-name="Layer 2" xmlns="http://www.w3.org/2000/svg" viewBox="0 0 113.65 54.15">
  <defs>
    <style>
      .cls-1 {
        fill: #001244;
      }

      .cls-2 {
        fill: #eaeaea;
      }
    </style>
  </defs>
  <g id="Layer_1-2" data-name="Layer 1">
    <g>
      <g>
        <rect class="cls-2" x="78.05" y="38.41" width="35.6" height="11.73" rx="3.16" ry="3.16"/>
        <g>
          <path d="M90.54,46.74c-.5-.66-.89-1.18-1.22-1.55-.2.4-.41.86-.66,1.46-.06.15-.15.17-.27.05-.09-.1-.15-.23-.15-.43,0-.11.02-.26.06-.41.2-.71.92-2.18,1.63-3.3-.27-.05-.38-.16-.48-.33-.07-.11-.02-.18.15-.2.32-.05.63-.14.93-.24.31-.1.59-.18.89-.2.43-.02.83.16,1.03.67.22.54.05,1.01-.25,1.42-.41.56-1.25,1.05-2.13,1.28.29.35.57.74.72,1.04.07.14.11.29.11.42,0,.1-.03.2-.08.28-.09.14-.18.15-.28.02ZM90.61,42.52c0,.23-.11.51-.31.89-.22.41-.42.75-.57,1,1.62-.41,2.42-1.49,2.21-2.02-.05-.13-.14-.17-.26-.17-.19,0-.49.11-.75.19l-.32.11Z"/>
          <path d="M94.35,45.05c-.17.67-.69,1.47-1.31,1.68-.07.03-.17.05-.29.05-.27,0-.57-.11-.8-.41-.15-.2-.23-.45-.23-.71,0-.36.13-.75.34-1.14.36-.65.88-1.05,1.41-1.05.24,0,.38.09.54.3.23.27.45.33.38,1.02.21,0,.23.07.16.15-.06.06-.12.1-.21.11ZM92.56,46.36c.21,0,.54-.3.84-.85.12-.21.22-.41.27-.58-.26-.16-.43-.37-.49-.66-.17.16-.33.36-.46.61-.21.39-.34.84-.34,1.14,0,.24.07.34.19.34ZM93.91,44.13c0-.12-.06-.17-.12-.17-.05,0-.12.06-.12.2,0,.15.04.36.13.46.08-.19.11-.38.11-.49Z"/>
          <path d="M97.09,43.96c.12.27,0,.57-.16.89-.07.12-.11.24-.15.33-.06.15-.13.17-.29.09-.15-.09-.28-.24-.28-.46,0-.11.04-.27.19-.6.08-.16.14-.31.11-.34-.1-.08-.63.45-.95,1.1-.16.33-.24.66-.24.91,0,.36.15.57.37.58.61,0,1.17-.62,1.49-1.1.07-.12.19-.15.24-.02.04.11.04.32-.11.54-.31.49-.97.88-1.6.89-.75,0-1.16-.47-1.16-1.12,0-.29.08-.62.25-.94.41-.84,1.05-1.27,1.53-1.27.3,0,.64.28.77.52Z"/>
          <path d="M98.84,43.57c.15-.11.28-.16.42-.21.37-.13.58,0,.76.37.07.12.1.25.1.39,0,.19-.08.4-.28.59-.26.25-.59.48-1.07.64.03.61.23,1.06.47,1.06.28,0,.72-.57.95-1.04.1-.2.2-.21.28,0,.04.1.02.31-.1.52-.15.28-.57.87-1.26.86-.6,0-1.09-.48-1.09-1.62-.22.39-.44.88-.7,1.49-.06.11-.19.15-.28.03-.08-.09-.13-.2-.13-.37,0-.13.02-.31.11-.54.37-1.04,1.53-3.33,2.25-4.31.13-.16.26-.16.35,0,.05.1.08.2.08.32,0,.32-.37.93-.85,1.82ZM98.85,44.04c-.28.21-.5.5-.75.91.24-.08.8-.33,1.07-.55.32-.27.47-.54.4-.64-.06-.1-.35,0-.72.28Z"/>
          <path d="M103.32,45.86c-.32.5-.86.8-1.53,1.07-.45,1.07-1,2.37-1.7,2.64-.19.07-.36.07-.55-.19-.12-.17-.24-.41-.24-.67,0-.1.02-.24.07-.38.25-.7.91-1.19,1.7-1.51l.12-.28c-.21.15-.42.23-.67.23-.41,0-.58-.31-.58-.65,0-.17.03-.37.11-.57.19-.51.58-1.33,1.09-2.02.11-.14.23-.15.32-.02.08.11.15.26.15.39,0,.2-.1.44-.28.74-.28.44-.45.77-.6,1.15-.11.29-.19.62.02.62s.58-.48.97-1.15c.54-.92.76-1.41.96-1.71.11-.15.22-.16.31-.07.12.12.15.24.15.41s-.04.34-.15.54c-.24.45-.66,1.24-.99,2.01.49-.3.92-.71,1.18-1.08.11-.15.23-.16.26-.06.04.13.02.34-.11.55ZM100.02,48.28c-.2.38-.26.72-.18.79.06.05.23-.19.45-.58.17-.3.37-.7.56-1.14-.39.27-.67.62-.84.93Z"/>
        </g>
      </g>
      <path d="M109.23,51.68h-29.27c-2.02,0-3.66-1.64-3.66-3.66v-5.4c0-2.02,1.64-3.67,3.66-3.67h29.27c2.02,0,3.66,1.64,3.66,3.67v5.4c0,2.02-1.64,3.66-3.66,3.66ZM79.96,39.95c-1.47,0-2.66,1.2-2.66,2.67v5.4c0,1.47,1.2,2.66,2.66,2.66h29.27c1.47,0,2.66-1.2,2.66-2.66v-5.4c0-1.47-1.2-2.67-2.66-2.67h-29.27Z"/>
      <g>
        <path class="cls-2" d="M47.98,42.15l.98.34c-.4-.2-.81-.43-1.23-.72l.25.38Z"/>
        <path class="cls-2" d="M52.01,23.19c-7.79.45-13.92-2.48-18.2-5.65,7.97,11.89,16.62,25.46,16.62,25.46,0,0,8.64-13.54,16.6-25.42-3.66,2.75-8.66,5.24-15.03,5.61Z"/>
        <path class="cls-1" d="M79.93.02c-1.13.38-6.81,8.49-12.89,17.57-7.96,11.89-16.6,25.42-16.6,25.42,6.89-1.26,16.26-19.66,17.36-18.47,1.07,1.16,5.95,5.84,7.11,6.74,3.89,3.04,7.63-32.13,5.02-31.26Z"/>
        <path class="cls-1" d="M20.95.02c-2.61-.87,1.13,34.3,5.02,31.26,1.16-.9,6.04-5.58,7.11-6.74.96-1.04,8.22,12.86,14.64,17.24.41.28.82.52,1.23.72.51.25,1,.43,1.49.52,0,0-8.66-13.57-16.62-25.46C27.75,8.49,22.08.39,20.95.02Z"/>
      </g>
      <path d="M49.57,44.02l-.09-.02c-.51-.09-1.03-.28-1.62-.56l-1.37-.81c-3.81-2.65-7.83-8.43-10.77-12.66-1.28-1.85-2.73-3.93-3.31-4.41-1.32,1.38-5.86,5.72-7,6.61-.53.42-1.15.39-1.69-.08-3.35-2.89-6.27-28.47-4.49-31.6.35-.61.86-.5,1-.46.48.16,1.6.54,13.07,17.66,5.45,4.02,11.44,5.87,17.8,5.5,5.31-.31,10.26-2.14,14.69-5.46C77.3.57,78.42.2,78.9.04h0c.15-.05.65-.16,1,.46,1.78,3.13-1.14,28.71-4.49,31.6-.54.47-1.15.49-1.69.08-1.14-.89-5.68-5.23-7-6.61-.59.48-2.03,2.56-3.31,4.41-3.64,5.25-9.15,13.19-13.76,14.03l-.09.02ZM48.25,42.52c.51.25.94.4,1.32.48,4.19-.86,9.5-8.52,13.03-13.6,2.51-3.61,3.41-4.86,4.15-4.92.21,0,.4.06.54.21,1.02,1.1,5.88,5.77,7.05,6.69.11.08.23.18.54-.16,1.33-1.46,2.82-7.68,3.8-15.83.97-8.11.86-13.32.41-14.31-.67.51-3.19,3.38-12.5,17.29l-.12.12c-4.61,3.47-9.76,5.39-15.3,5.71-6.61.4-12.85-1.55-18.52-5.74l-.12-.12C23.24,4.45,20.74,1.59,20.06,1.07c-1.03,2.31.94,26.56,4.2,30.15.31.34.42.25.54.16,1.17-.92,6.04-5.58,7.05-6.69.14-.15.34-.22.54-.21.74.05,1.65,1.3,4.15,4.91,2.91,4.2,6.9,9.95,10.59,12.46l1.11.66Z"/>
      <path class="cls-1" d="M20.09,43.94v-6.45c0-1.51-1.22-2.73-2.73-2.73H4.46c-1.51,0-2.73,1.22-2.73,2.73v6.45c.14,4.9,3.93,8.84,8.46,9.18,5.01.38,9.71-3.73,9.9-9.18Z"/>
      <path d="M9.59,54.15c-.23,0-.45,0-.67-.03-4.86-.37-8.77-4.62-8.92-9.67v-6.46c0-1.78,1.45-3.23,3.23-3.23h12.9c1.78,0,3.23,1.45,3.23,3.23v6.47c-.1,2.78-1.29,5.34-3.37,7.2-1.79,1.61-4.09,2.5-6.39,2.5ZM3.23,35.77c-1.23,0-2.23,1-2.23,2.23v6.45c.13,4.53,3.64,8.35,8,8.68,2.25.18,4.55-.63,6.32-2.22,1.87-1.67,2.95-3.97,3.04-6.48v-6.44c0-1.23-1-2.23-2.23-2.23H3.23Z"/>
    </g>
  </g>
</svg>