<?xml version="1.0" encoding="UTF-8"?>
<svg id="Layer_2" data-name="Layer 2" xmlns="http://www.w3.org/2000/svg" viewBox="0 0 131.56 66.41">
  <defs>
    <style>
      .cls-1 {
        fill: #d6ff00;
      }

      .cls-2 {
        fill: #caceaf;
      }
    </style>
  </defs>
  <g id="Layer_1-2" data-name="Layer 1">
    <g>
      <g>
        <g>
          <path class="cls-1" d="M11.8,2.66C15.35,1.52,36.66-.09,38.79.71c2.13.8,15.68,26.28,19.21,27.26,3.53.98,2.87,31.65,0,33.79-2.87,2.14-8.91,3.94-16.72,4.1-7.81.16-37.5,0-37.5-1.47s.2-31.96,1.08-33.04,8.23-1.49,8.08-11.62c-.15-10.13-1.14-17.07-1.14-17.07Z"/>
          <path class="cls-2" d="M60.17,36.1c-.07-.91-.16-1.78-.26-2.62-9.69.44-19.28.87-28.88,1.3-.93-11.33-1.86-22.66-2.79-33.99-.86.05-1.73.11-2.61.18-.8.06-1.59.12-2.38.19l2.77,33.85c-7.2.32-14.41.65-21.68.97-.06,1.16-.11,2.32-.15,3.5-.02.51-.03,1.01-.05,1.51,18.72-.84,37.43-1.68,56.15-2.52-.03-.76-.07-1.55-.13-2.37Z"/>
          <path class="cls-2" d="M3.85,56.26c0-.4,0-.8,0-1.2.01-1.28.03-2.55.06-3.81,18.79-.9,37.58-1.81,56.36-2.71-.03.82-.08,1.65-.14,2.5-.06.84-.12,1.67-.2,2.47-18.7.91-37.4,1.83-56.1,2.74Z"/>
        </g>
        <g>
          <path class="cls-1" d="M123.54,2.66c-3.55-1.14-24.86-2.75-27-1.95s-15.68,26.28-19.21,27.26-2.87,31.65,0,33.79c2.87,2.14,8.91,3.94,16.72,4.1,7.81.16,37.5,0,37.5-1.47s-.2-31.96-1.08-33.04c-.88-1.08-8.23-1.49-8.08-11.62s1.14-17.07,1.14-17.07Z"/>
          <path class="cls-2" d="M75.17,36.1c.07-.91.16-1.78.26-2.62,9.69.44,19.28.87,28.88,1.3.93-11.33,1.86-22.66,2.79-33.99.86.05,1.73.11,2.61.18.8.06,1.59.12,2.38.19l-2.77,33.85c7.2.32,14.41.65,21.68.97.06,1.16.11,2.32.15,3.5.02.51.03,1.01.05,1.51-18.72-.84-37.43-1.68-56.15-2.52.03-.76.07-1.55.13-2.37Z"/>
          <path class="cls-2" d="M131.49,56.26c0-.4,0-.8,0-1.2-.01-1.28-.03-2.55-.06-3.81-18.79-.9-37.58-1.81-56.36-2.71.03.82.08,1.65.14,2.5.06.84.12,1.67.2,2.47,18.7.91,37.4,1.83,56.1,2.74Z"/>
        </g>
      </g>
      <g>
        <path d="M31.42,66.41c-10.61,0-29.87-.22-31.22-1.54-.13-.13-.2-.29-.2-.46,0-1.09.08-13.72.36-22.95l.08-2.51c.03-.9.07-1.74.11-2.53l.04-.7c.23-4.21.44-4.47.6-4.67.26-.32.77-.53,1.46-.83,2.31-.97,6.62-2.79,6.5-10.47-.14-9.98-1.12-16.94-1.13-17.01l-.06-.42.4-.13c1.44-.46,5.76-1.03,11.57-1.52l.15.49-.04-.5c.73-.06,1.46-.12,2.18-.17h.11c.89-.07,1.73-.13,2.56-.18,3.53-.22,9.55-.52,10.8-.05.97.37,2.95,3.45,7.57,10.94,4.12,6.67,9.76,15.8,11.59,16.31.68.19,1.65,1.01,2.27,5.93.1.81.18,1.56.24,2.36l.03.29c0,.12.02.24.02.36v.25c.61,8.88-.16,23.83-2.39,25.5-3.27,2.44-9.78,4.05-17.01,4.2-.82.02-3.29.04-6.59.04ZM1,64.2c2.4,1.06,27.22,1.38,36.99,1.17,8.4-.17,13.99-2.18,16.43-4,1.59-1.19,2.68-14.54,2-24.63v-.27c-.02-.11-.02-.21-.03-.33l-.03-.28c-.06-.78-.14-1.52-.22-2.22-.6-4.79-1.46-5.16-1.55-5.19-2.05-.57-6.34-7.3-12.17-16.75-2.94-4.77-6.28-10.17-7.08-10.53-.56-.21-3.61-.31-10.34.11-.87.05-1.71.11-2.56.18l-.17-.49.04.5c-.74.06-1.47.11-2.19.17h-.1c-5.18.45-9.27.96-10.95,1.38.21,1.68.96,8.08,1.08,16.7.12,8.35-4.77,10.41-7.12,11.4-.46.19-.97.41-1.08.54-.02.06-.2.7-.39,4.34l-.02.44c-.04.78-.07,1.62-.11,2.52l-.07,2.05c-.28,8.86-.37,21.18-.38,23.18Z"/>
        <path d="M97.05,66.41c-3.31,0-5.77-.02-6.59-.04-7.22-.15-13.74-1.76-17.01-4.2-2.23-1.66-3-16.61-2.4-25.5v-.25c.02-.12.02-.23.03-.36l.03-.29c.06-.8.14-1.55.23-2.26.63-5.02,1.6-5.84,2.28-6.03,1.83-.51,7.47-9.64,11.59-16.31,4.62-7.48,6.6-10.57,7.58-10.94,1.25-.47,7.27-.17,10.76.05.87.05,1.72.11,2.57.18h.14c.73.07,1.46.12,2.19.19l.06.51.04-.5c5.81.49,10.14,1.06,11.57,1.52l.4.13-.06.42c0,.07-.99,7.03-1.13,17.01-.11,7.68,4.19,9.49,6.5,10.47.7.29,1.2.51,1.46.83.16.19.37.46.6,4.67h0s.03.7.03.7c.04.78.07,1.63.11,2.53l.09,2.57h0c.28,9.22.36,21.81.36,22.9,0,.17-.07.33-.2.46-1.35,1.32-20.61,1.54-31.22,1.54ZM95.94,1c-1.65,0-2.54.08-2.82.18-.8.36-4.13,5.76-7.08,10.53-5.83,9.45-10.12,16.18-12.17,16.75-.1.03-.96.4-1.54,5.09-.1.79-.17,1.53-.23,2.31l-.03.28c0,.11-.01.22-.02.33v.27c-.69,10.09.4,23.44,1.99,24.63,2.44,1.82,8.03,3.82,16.43,4,9.78.21,34.6-.11,36.99-1.17,0-2-.1-14.32-.38-23.18l-.02-.52h0l-.06-1.53c-.03-.89-.07-1.74-.11-2.51l-.02-.44c-.19-3.63-.37-4.27-.42-4.38-.07-.08-.59-.3-1.05-.49-2.35-.99-7.24-3.05-7.12-11.4.12-8.63.87-15.02,1.08-16.7-1.68-.42-5.77-.93-10.95-1.37h-.1c-.72-.07-1.45-.13-2.17-.18h-.12c-.86-.07-1.7-.13-2.53-.18-3.42-.22-5.89-.3-7.57-.3Z"/>
      </g>
    </g>
  </g>
</svg>