<?xml version="1.0" encoding="UTF-8"?>
<svg id="Layer_2" data-name="Layer 2" xmlns="http://www.w3.org/2000/svg" viewBox="0 0 268.02 212.97">
  <defs>
    <style>
      .cls-1 {
        fill: #ffba0a;
      }
    </style>
  </defs>
  <g id="Layer_1-2" data-name="Layer 1">
    <g>
      <g>
        <path class="cls-1" d="M251.14,136.16c-8.37,34.51-9.73,34.11-22.97,43.89-20.09,14.84-64.21,7.18-91.3,3.42-27.79-3.86-62.44,3.2-80.07-8.56-29.12-19.43-29.89-38.94-20.46-81.23,6.11-27.41,14.18-32.67,33.63-49.69,16.06-14.05,35.97-34.31,59.02-39.61,7.93-1.82,48.32,1.21,75.49,21.6,3.93,2.95,10.83,8.76,28.14,30.97,16.24,20.83,26.66,45.7,18.53,79.21Z"/>
        <path d="M267.49,112.15c-1-4.76-7.49-20.11-28.08-19.62-3.09-13.29-9.57-26.1-19.57-38.92-16.41-21.05-23.57-27.61-28.42-31.24C163.69,1.55,123.19-1.45,114.7.5c-20.34,4.68-38.47,20.95-53.03,34.03-2.28,2.05-4.5,4.04-6.64,5.91-1.42,1.24-2.77,2.42-4.07,3.54-16.66,14.46-24.26,21.05-30.03,46.95-.18.79-.34,1.55-.51,2.33-14.19,3.06-19.05,14.83-19.9,18.89-1.49,7.1.2,14.46,5.01,21.88,3.47,5.34,7.2,9.52,11.06,12.85.86.74,1.72,1.43,2.59,2.09,3.92,9.27,11.18,16.99,22.84,24.77,11.53,7.7,29.58,7.61,48.69,7.51,4.92-.03,9.91-.04,14.85.07,1.31,9.42,2.16,17.94,1.64,19.02-.89,1.46-5.82,1.87-9.08,1.16-1.2-.26-2.93-.87-4.95-1.58-4.29-1.51-9.63-3.38-13.95-3.38-2.32,0-4.3,1.14-5.56,3.2-1.94,3.16-1.94,8.06.02,11.91.41.81,1.2,1.32,2.06,1.32h38.99c1.09,0,1.97-.94,1.97-2.09v-28.99c2.03.17,4.05.38,6.01.65,1.95.27,3.98.56,6.09.86,5.48.78,11.35,1.62,17.4,2.36v25.12c0,1.15.88,2.09,1.97,2.09h38.99c.86,0,1.65-.5,2.06-1.32,1.95-3.86,1.96-8.75.02-11.91-1.27-2.06-3.24-3.2-5.56-3.2-4.32,0-9.66,1.87-13.95,3.38-2.01.71-3.75,1.32-4.95,1.58-3.27.71-8.2.3-9.08-1.15-.42-.86.04-6.45.9-13.45,6.72.63,13.49,1.05,20.05,1.05,15.16,0,29.14-2.22,38.46-9.1l1.78-1.31c8.01-5.87,11.43-8.39,15.32-19.76,6.35-2.3,12.95-5.48,19.21-10.89,3.86-3.33,7.59-7.51,11.06-12.85,4.81-7.42,6.5-14.78,5.01-21.88ZM261.44,133.35c-3.96,7.22-9.05,11.28-12.91,14.28-5.2,4.04-10.58,6.66-15.82,8.63-1.2.45-2.39.86-3.57,1.25-1.22.41-2.43.79-3.63,1.15-1.44.44-2.76.67-3.98.73-3.83-7.03,8.76-16.86,8.89-16.96l-.76-.98c-.55.42-12.93,10.1-9.51,17.94-3.05-.18-5.36-1.5-7.22-3.32-3.75-7.02,8.78-16.81,8.91-16.91l-.76-.98c-.5.38-10.66,8.32-10.09,15.64-1.27-1.73-2.28-3.63-3.2-5.34-.19-.36-.38-.7-.56-1.04-4.18-7.67,4.16-16.1,7.94-19.36,5.9-5.09,19.32-13.17,23.31-15.54.7-.42,1.12-.66,1.15-.68l-.62-1.07s-.2.12-.52.3c-2.95,1.74-17.79,10.57-24.13,16.05-8.47,7.32-11.47,14.94-8.22,20.9.18.33.37.68.55,1.03,1.31,2.45,2.91,5.43,5.22,7.76.08.08.16.16.24.24,3.05,2.95,7.31,4.73,13.71,2.79.9-.27,1.8-.56,2.72-.85-3.29,8.63-6.51,11.01-13.48,16.12l-1.79,1.31c-12.43,9.18-34.95,9.42-56.35,7.46-.5-.05-1-.1-1.5-.14-.13.99-.26,2-.39,3.01-.82,6.59-1.41,13.17-.69,14.36,1.56,2.57,7.83,2.47,10.68,1.85,1.29-.28,3.07-.9,5.13-1.63,4.18-1.47,9.39-3.3,13.45-3.3,2.28,0,3.59,1.35,4.29,2.48,1.68,2.74,1.65,7.04-.08,10.45-.15.3-.43.49-.72.49h-38.99c-.25,0-.47-.27-.47-.59v-27.97c-.5-.06-1-.12-1.5-.18-6-.73-11.76-1.55-16.97-2.29-2.11-.3-4.15-.59-6.1-.86-2.11-.29-4.25-.52-6.43-.7-.5-.04-1-.07-1.5-.11v32.12c0,.32-.21.59-.47.59h-38.99c-.29,0-.57-.19-.72-.49-1.73-3.41-1.76-7.71-.08-10.45.7-1.13,2.01-2.48,4.29-2.48,4.06,0,9.27,1.83,13.45,3.3,2.06.72,3.84,1.35,5.13,1.63,2.86.62,9.13.72,10.68-1.85.92-1.52-.3-11.87-1.4-19.76-.15-1.06-.29-2.07-.43-3.01-.51-.01-1.02-.02-1.52-.03-2.7-.06-5.41-.08-8.12-.08-2.12,0-4.23,0-6.32.02-18.64.09-36.24.18-47.01-7.01-9.09-6.07-15.3-12.04-19.28-18.76,5.98,3.54,12.05,5.64,17.73,7.37,6.4,1.94,10.66.15,13.71-2.79.08-.08.16-.16.24-.24,2.31-2.33,3.91-5.32,5.22-7.76.19-.35.37-.7.55-1.03,3.25-5.96.25-13.58-8.22-20.9-7.02-6.07-24.47-16.25-24.65-16.35l-.62,1.07c.17.1,17.53,10.23,24.46,16.22,3.78,3.27,12.12,11.69,7.94,19.36-.18.33-.37.68-.56,1.04-.92,1.71-1.93,3.61-3.2,5.34.57-7.32-9.59-15.26-10.09-15.64l-.76.98c.13.1,12.66,9.89,8.91,16.91-1.85,1.82-4.17,3.13-7.22,3.32,3.42-7.85-8.96-17.52-9.51-17.94l-.76.98c.13.1,12.72,9.93,8.89,16.96-1.21-.06-2.54-.29-3.98-.73-6.18-1.87-12.84-4.21-19.32-8.42-1.24-.8-2.47-1.67-3.69-2.61-.38-.3-.78-.61-1.18-.93-3.68-2.91-8.15-6.85-11.72-13.36-2.44-4.44-7.43-13.53-4.09-23.18,2-5.77,6.05-9.1,7.71-10.42,3.12-2.5,6.54-4.01,9.87-4.88,1.08-.28,2.16-.5,3.21-.65.11-.49.21-.98.32-1.47.09-.39.17-.77.26-1.17,5.56-24.93,12.44-30.9,29.07-45.33,1.3-1.13,2.66-2.31,4.08-3.55,2.15-1.88,4.38-3.88,6.67-5.94,15.05-13.51,32.12-28.83,51.7-33.34,7.2-1.66,47.22,1.05,74.25,21.34,2.84,2.13,9.48,7.11,27.85,30.69,9.58,12.29,15.83,24.56,18.87,37.27.1.41.19.81.28,1.22.96-.07,1.99-.11,3.07-.11,5.48.03,12.29,1.25,18.12,5.91,1.65,1.32,5.71,4.65,7.71,10.42,3.34,9.65-1.65,18.73-4.09,23.18Z"/>
      </g>
      <path d="M147.1,125.18c-.15,0-.31,0-.46,0-7-.1-9.24-2.52-9.9-4.54-.34-1.05.24-2.18,1.29-2.52,1.05-.34,2.18.24,2.52,1.29.19.58,1.72,1.7,6.15,1.77,4.33.06,9.77-.9,15.35-2.7,5.58-1.81,10.55-4.22,14.02-6.81,3.55-2.65,4.13-4.46,3.94-5.04-.34-1.05.24-2.18,1.29-2.52,1.05-.34,2.18.24,2.52,1.29.65,2.01.25,5.29-5.36,9.48-3.81,2.84-9.2,5.47-15.18,7.41-5.79,1.88-11.51,2.9-16.18,2.9Z"/>
      <path d="M161.72,57.56l-10.93.73c-.09,0-.18.03-.27.05-3.33.33-5.97,4.62-5.97,9.89s2.86,9.92,6.38,9.92,6.38-4.44,6.38-9.92c0-2.38-.54-4.56-1.43-6.26l6.12-.41c1.1-.07,1.94-1.03,1.86-2.13-.07-1.1-1.02-1.94-2.13-1.86Z"/>
      <path d="M186.07,57.56l-10.93.73c-.09,0-.18.03-.27.05-3.33.33-5.97,4.62-5.97,9.89s2.86,9.92,6.38,9.92,6.38-4.44,6.38-9.92c0-2.38-.54-4.56-1.43-6.26l6.12-.41c1.1-.07,1.94-1.03,1.86-2.13-.07-1.1-1.02-1.94-2.13-1.86Z"/>
    </g>
  </g>
</svg>