<?xml version="1.0" encoding="UTF-8"?>
<svg id="Layer_2" data-name="Layer 2" xmlns="http://www.w3.org/2000/svg" viewBox="0 0 236.59 212.97">
  <defs>
    <style>
      .cls-1 {
        fill: #ffba0a;
      }
    </style>
  </defs>
  <g id="Layer_1-2" data-name="Layer 1">
    <g>
      <g>
        <path class="cls-1" d="M233.77,133.75c-8.37,34.51-9.73,34.11-22.97,43.89-20.09,14.84-64.21,7.18-91.3,3.42-27.79-3.86-62.44,3.2-80.07-8.56-29.12-19.43-29.89-38.94-20.46-81.23,6.11-27.41,14.18-32.67,33.63-49.69C68.65,27.52,88.57,7.27,111.61,1.96c7.93-1.82,48.32,1.21,75.49,21.6,3.93,2.95,10.83,8.76,28.14,30.97,16.24,20.83,26.66,45.7,18.53,79.21Z"/>
        <path d="M204.33,53.61c-16.41-21.05-23.57-27.61-28.42-31.24C148.18,1.55,107.67-1.45,99.19.5c-20.34,4.68-38.47,20.95-53.03,34.03-2.28,2.05-4.5,4.04-6.64,5.91-1.42,1.24-2.77,2.42-4.07,3.54-16.66,14.46-24.26,21.05-30.03,46.95-9.85,44.15-8.14,63.29,21.09,82.8,11.53,7.7,29.58,7.61,48.69,7.51,4.92-.03,9.91-.04,14.85.07,1.31,9.42,2.16,17.94,1.64,19.02-.89,1.46-5.82,1.87-9.08,1.16-1.2-.26-2.93-.87-4.95-1.58-4.29-1.51-9.63-3.38-13.95-3.38-2.32,0-4.3,1.14-5.56,3.2-1.94,3.16-1.94,8.06.02,11.91.41.81,1.2,1.32,2.06,1.32h38.99c1.09,0,1.97-.94,1.97-2.09v-28.99c2.03.17,4.05.38,6.01.65,1.95.27,3.98.56,6.09.86,5.48.78,11.35,1.62,17.4,2.36v25.12c0,1.15.88,2.09,1.97,2.09h38.99c.86,0,1.65-.5,2.06-1.32,1.95-3.86,1.96-8.75.02-11.91-1.27-2.06-3.24-3.2-5.56-3.2-4.32,0-9.66,1.87-13.95,3.38-2.01.71-3.75,1.32-4.95,1.58-3.27.71-8.2.3-9.08-1.15-.42-.86.04-6.45.9-13.45,6.72.63,13.49,1.05,20.05,1.05,15.16,0,29.14-2.22,38.46-9.1l1.78-1.31c11.83-8.68,13.65-10.01,21.76-43.44,7.12-29.33,1.14-54.9-18.8-80.49ZM141.47,183.89c-.5-.05-1-.1-1.5-.14-.13.99-.26,2-.39,3.01-.82,6.59-1.41,13.17-.69,14.36,1.56,2.57,7.83,2.47,10.68,1.85,1.29-.28,3.07-.9,5.13-1.63,4.18-1.47,9.39-3.3,13.45-3.3,2.28,0,3.59,1.35,4.29,2.48,1.68,2.74,1.65,7.04-.08,10.45-.15.3-.43.49-.72.49h-38.99c-.25,0-.47-.27-.47-.59v-27.97c-.5-.06-1-.12-1.5-.18-6-.73-11.76-1.55-16.97-2.29-2.11-.3-4.15-.59-6.1-.86-2.11-.29-4.25-.52-6.43-.7-.5-.04-1-.07-1.5-.11v32.12c0,.32-.21.59-.47.59h-38.99c-.29,0-.57-.19-.72-.49-1.73-3.41-1.76-7.71-.08-10.45.7-1.13,2.01-2.48,4.29-2.48,4.06,0,9.27,1.83,13.45,3.3,2.06.72,3.84,1.35,5.13,1.63,2.86.62,9.13.72,10.68-1.85.92-1.52-.3-11.87-1.4-19.76-.15-1.06-.29-2.07-.43-3.01-.51-.01-1.02-.02-1.52-.03-2.7-.06-5.41-.08-8.12-.08-2.12,0-4.23,0-6.32.02-3.85.02-7.64.03-11.35-.01,5.72-2.13,12.09-5.71,19.08-9.65,7.29-4.11,15.34-8.63,23.99-12.21.61.55,1.22,1.09,1.83,1.64,12.73,11.42,25.89,23.24,39.54,23.59,5.85.15,11.11.44,15.75.7,5.12.28,9.67.53,13.84.53,1.96,0,3.83-.06,5.63-.19-12.12,2.91-27.34,2.6-42.03,1.25ZM220.22,133.39c-7.85,32.36-9.31,33.43-20.62,41.72l-1.79,1.31c-1.52,1.12-3.18,2.1-4.98,2.97-7.97,2.53-16.78,2.06-28.73,1.4-4.65-.26-9.92-.55-15.79-.7-13.1-.33-26.05-11.96-38.58-23.2-.43-.38-.86-.77-1.29-1.15,11.55-4.59,24.16-7.4,37.51-5.25,20.29,3.28,25.25-4.12,26.41-8.82,2.15-8.77-5.6-21.02-15.36-24.27-7.35-2.45-21.23-1.64-38.71,1.76-21.17-10.9-38.5-18.72-52.69-12.7-7.48,3.17-12.03,9.34-11.31,15.34.61,5.14,5.01,9.22,12.32,11.66-8.26,2.85-16.67,5.99-25.07,9.41l.56,1.39c9.01-3.66,18.09-7.03,27.01-10.05.91-.31,1.81-.6,2.71-.91,37.72-12.52,72.02-18.7,84.7-14.47,8.94,2.98,16.33,14.54,14.38,22.49-1.78,7.25-10.55,9.98-24.71,7.7-13.96-2.25-27.06.77-39,5.61-.52.21-1.03.42-1.54.64-8.46,3.57-16.32,8-23.47,12.02-8.75,4.92-16.49,9.28-23.07,10.86-12.35-.38-23.35-1.83-30.94-6.9-14.27-9.52-21.46-18.83-24.05-31.1-2.66-12.64-.24-28.55,4.22-48.55,5.56-24.93,12.44-30.9,29.07-45.33,1.3-1.13,2.66-2.31,4.08-3.55,2.15-1.88,4.38-3.88,6.67-5.94C63.21,23.25,80.27,7.93,99.86,3.43c7.2-1.66,47.22,1.05,74.25,21.34,2.84,2.13,9.48,7.11,27.85,30.69,19.34,24.81,25.14,49.57,18.25,77.94ZM55.85,119.17c.3-1.95,1.22-3.89,2.64-5.66,1.79-.24,11.41-1.27,18.52,2.95l.77-1.29c-6.27-3.72-14.07-3.63-17.75-3.33,1.67-1.59,3.76-2.97,6.16-3.99,13.22-5.61,29.69,1.53,49.74,11.79-13.97,2.85-30.08,7.28-46.9,12.99-7.89-2.16-12.65-6.04-13.24-11.01-.04-.31-.06-.63-.06-.95,7.66.23,16.2,3.84,16.29,3.88l.59-1.38c-.37-.16-8.84-3.74-16.76-4Z"/>
      </g>
      <path d="M128.85,99.09h0c.85,0,1.58.65,1.63,1.51.47,7.25,4.3,13.12,8.77,13.12s8.3-5.87,8.77-13.12c.06-.85.78-1.51,1.63-1.51h0c.96,0,1.7.82,1.64,1.78-.58,9.18-5.67,16.14-12.05,16.14s-11.46-6.96-12.05-16.14c-.06-.96.68-1.78,1.64-1.78Z"/>
      <ellipse cx="134.29" cy="70.16" rx="7.09" ry="11.02"/>
      <path d="M172.71,66.15c-1.74-1.62-6.37-5.07-12.35-2.61-5.69,2.33-7.26,6.7-7.69,8.83-.12.57.21,1.11.67,1.23.03,0,.06.02.09.03.02,0,.04.02.06.02.03,0,.06-.01.1-.02.06,0,.12-.01.18-.03.01,0,.03-.01.04-.02.14-.05.27-.13.37-.26.71-.87,2.44-2.4,6.03-2.7,3.71-.31,5.79,1.73,6.64,2.83.28.37.74.45,1.09.19h.02c.46-.35.55-1.1.18-1.58-1.09-1.43-3.64-3.89-8.05-3.53-1.88.16-3.33.64-4.46,1.22.95-1.51,2.57-3.13,5.31-4.26,5.21-2.14,9.25.91,10.71,2.28.35.33.85.29,1.16-.09h0c.37-.45.32-1.17-.09-1.56Z"/>
    </g>
  </g>
</svg>