<?xml version="1.0" encoding="UTF-8"?>
<svg id="Layer_2" data-name="Layer 2" xmlns="http://www.w3.org/2000/svg" viewBox="0 0 253.03 212.97">
  <defs>
    <style>
      .cls-1 {
        fill: #ffba0a;
      }
    </style>
  </defs>
  <g id="Layer_1-2" data-name="Layer 1">
    <g>
      <g>
        <path class="cls-1" d="M250.21,136.15c-8.37,34.51-9.73,34.11-22.97,43.89-20.09,14.84-64.21,7.18-91.3,3.42-27.79-3.86-62.44,3.2-80.07-8.56-29.12-19.43-29.89-38.94-20.46-81.23,6.11-27.41,14.18-32.67,33.63-49.69,16.06-14.05,35.97-34.31,59.02-39.61,7.93-1.82,48.32,1.21,75.49,21.6,3.93,2.95,10.83,8.76,28.14,30.97,16.24,20.83,26.66,45.7,18.53,79.21Z"/>
        <path d="M222.09,53.61c-16.41-21.05-23.57-27.61-28.42-31.24C165.94,1.55,125.44-1.45,116.95.5c-20.34,4.68-38.47,20.95-53.03,34.03-2.28,2.05-4.5,4.04-6.64,5.91-1.42,1.24-2.77,2.42-4.07,3.54-16.66,14.46-24.26,21.05-30.03,46.95-2.15,9.62-3.74,18.04-4.62,25.55C1.26,127.99.58,137.67.24,142.66c-.04.58-.07,1.08-.13,1.52-.38,3.04.17,8.02,2.87,12.89,3.51,6.34,9.6,10.81,18.09,13.28,6.11,1.77,11.67,2.5,16.77,2.5,1.65,0,3.25-.08,4.8-.22.54.37,1.06.74,1.62,1.11,11.53,7.7,29.58,7.61,48.69,7.51,4.92-.03,9.91-.04,14.85.07,1.31,9.42,2.16,17.94,1.64,19.02-.89,1.46-5.82,1.87-9.08,1.16-1.2-.26-2.93-.87-4.95-1.58-4.29-1.51-9.63-3.38-13.95-3.38-2.32,0-4.3,1.14-5.56,3.2-1.94,3.16-1.94,8.06.02,11.91.41.81,1.2,1.32,2.06,1.32h38.99c1.09,0,1.97-.94,1.97-2.09v-28.99c2.03.17,4.05.38,6.01.65,1.95.27,3.98.56,6.09.86,5.48.78,11.35,1.62,17.4,2.36v25.12c0,1.15.88,2.09,1.97,2.09h38.99c.86,0,1.65-.5,2.06-1.32,1.95-3.86,1.96-8.75.02-11.91-1.27-2.06-3.24-3.2-5.56-3.2-4.32,0-9.66,1.87-13.95,3.38-2.01.71-3.75,1.32-4.95,1.58-3.27.71-8.2.3-9.08-1.15-.42-.86.04-6.45.9-13.45,6.72.63,13.49,1.05,20.05,1.05,15.16,0,29.14-2.22,38.46-9.1l1.78-1.31c11.83-8.68,13.65-10.01,21.76-43.44,7.12-29.33,1.14-54.9-18.8-80.49ZM237.98,133.39c-.37,1.51-.72,2.94-1.06,4.32.72-6.72-.87-15.73-2.8-26.62l-.1-.56c-1.04-5.88-6.02-9.04-11.84-10.36.06-.34.11-.66.17-1.01.82-4.6,1.75-9.82-1.52-12.85-1.84-1.7-4.71-2.47-8.78-2.33-5.03.17-8.26,1.13-9.9,2.94-1.91,2.12-1.1,4.81-.51,6.77.1.32.19.62.26.9.52,2.02,1.11,4.86,1.45,6.61-7.6,2.4-13.82,7.08-14.58,13.4-.2,1.67-.44,3.34-.69,5-2.11,14.52-4.11,28.23,23.21,31.2,2.65.29,5.07.44,7.26.44,6.37,0,10.84-1.23,13.84-3.76,1.36-1.15,2.37-2.55,3.11-4.18-5.85,22.78-8.14,24.48-18.16,31.83l-1.79,1.31c-12.43,9.18-34.95,9.42-56.35,7.46-.5-.05-1-.1-1.5-.14-.13.99-.26,2-.39,3.01-.82,6.59-1.41,13.17-.69,14.36,1.56,2.57,7.83,2.47,10.68,1.85,1.29-.28,3.07-.9,5.13-1.63,4.18-1.47,9.39-3.3,13.45-3.3,2.28,0,3.59,1.35,4.29,2.48,1.68,2.74,1.65,7.04-.08,10.45-.15.3-.43.49-.72.49h-38.99c-.25,0-.47-.27-.47-.59v-27.97c-.5-.06-1-.12-1.5-.18-6-.73-11.76-1.55-16.97-2.29-2.11-.3-4.15-.59-6.1-.86-2.11-.29-4.25-.52-6.43-.7-.5-.04-1-.07-1.5-.11v32.12c0,.32-.21.59-.47.59h-38.99c-.29,0-.57-.19-.72-.49-1.73-3.41-1.76-7.71-.08-10.45.7-1.13,2.01-2.48,4.29-2.48,4.06,0,9.27,1.83,13.45,3.3,2.06.72,3.84,1.35,5.13,1.63,2.86.62,9.13.72,10.68-1.85.92-1.52-.3-11.87-1.4-19.76-.15-1.06-.29-2.07-.43-3.01-.51-.01-1.02-.02-1.52-.03-2.7-.06-5.41-.08-8.12-.08-2.12,0-4.23,0-6.32.02-17.92.09-34.87.16-45.72-6.23,6.93-1.22,12.96-3.62,18.43-6.05,6.11-2.72,8.17-6.85,8.55-11.08h.08c-.02-.12-.04-.23-.06-.34.23-3.27-.52-6.58-1.12-9.29-.09-.39-.17-.77-.25-1.14-1.44-6.63-8.69-10.44-19.89-10.44-9.28,0-29.14,3.7-29.34,3.74l.23,1.22c.2-.04,19.95-3.72,29.11-3.72,4.99,0,16.81.92,18.67,9.46.08.37.17.76.26,1.15.43,1.89.9,4,1.07,6.14-4.35-5.91-17.23-5.28-17.86-5.24l.07,1.24c.16,0,16.05-.79,17.8,6.97-.22,2.58-1.11,5.1-3.29,7.23-2.54-8.17-18.23-7.4-18.93-7.36l.07,1.24c.16,0,16.12-.8,17.81,7.03-.96.75-2.11,1.44-3.49,2.05-5.76,2.56-12.13,5.08-19.55,6.18-1.48.22-3,.38-4.56.48-5.86.36-12.34-.22-19.62-2.34C-.69,162.73,1.32,144.52,1.34,144.33c.06-.47.1-1.02.14-1.59.33-4.69.97-13.73,16.9-24.63,1.02-.7,2.1-1.4,3.24-2.11.06-.52.14-1.05.21-1.58.93-6.95,2.42-14.53,4.27-22.82,5.56-24.93,12.44-30.9,29.07-45.33,1.3-1.13,2.66-2.31,4.08-3.55,2.15-1.88,4.38-3.88,6.67-5.94,15.05-13.51,32.12-28.83,51.7-33.34,7.2-1.66,47.22,1.05,74.25,21.34,2.84,2.13,9.48,7.11,27.85,30.69,19.34,24.81,25.14,49.57,18.25,77.94ZM188.71,126.29c.21-2.12.53-4.31.86-6.55.05-.32.09-.65.14-.97,6.8-2.11,17.68-.75,17.79-.74l.22-1.2c-.45-.06-10.68-1.33-17.82.6.13-.9.25-1.8.36-2.71.69-5.75,6.36-10.04,13.36-12.3.46-.15.93-.29,1.4-.42,3.02-.84,6.24-1.31,9.37-1.37.22,0,.44,0,.66,0,1.12,0,2.26.06,3.39.18,1.21.13,2.4.32,3.56.6,5.23,1.25,9.67,4.1,10.59,9.32l.1.56c3.07,17.3,5.28,29.79-1.31,35.35-3.68,3.1-9.99,4.04-19.86,2.97-21.01-2.29-23.76-10.97-22.92-21.92,6.81-2.75,18.75-.78,18.88-.76l.29-1.19c-.5-.08-11.74-1.94-19.05.57ZM203.35,94.34c-.07-.29-.17-.61-.27-.94-.55-1.82-1.23-4.09.26-5.75,1.33-1.48,4.29-2.3,8.78-2.45,3.6-.11,6.1.51,7.63,1.93,2.81,2.6,1.94,7.52,1.16,11.85-.05.31-.1.6-.16.9-2.11-.37-4.29-.51-6.41-.47-3.2.06-6.48.54-9.57,1.39-.35-1.77-.92-4.49-1.42-6.45Z"/>
      </g>
      <path d="M146.3,107.27h0c.85,0,1.58.65,1.63,1.51.47,7.25,4.3,13.12,8.77,13.12s8.3-5.87,8.77-13.12c.06-.85.78-1.51,1.63-1.51h0c.96,0,1.7.82,1.64,1.78-.58,9.18-5.67,16.14-12.05,16.14s-11.46-6.96-12.05-16.14c-.06-.96.68-1.78,1.64-1.78Z"/>
      <path d="M185.34,70.16h0c-.52,0-.96-.4-.99-.92-.29-4.42-2.62-8-5.35-8s-5.06,3.58-5.35,8c-.03.52-.47.92-.99.92h0c-.58,0-1.04-.5-1-1.08.36-5.6,3.45-9.84,7.34-9.84s6.99,4.24,7.34,9.84c.04.58-.42,1.08-1,1.08Z"/>
      <path d="M158.34,70.16h0c-.52,0-.96-.4-.99-.92-.29-4.42-2.62-8-5.35-8s-5.06,3.58-5.35,8c-.03.52-.47.92-.99.92h0c-.58,0-1.04-.5-1-1.08.36-5.6,3.45-9.84,7.34-9.84s6.99,4.24,7.34,9.84c.04.58-.42,1.08-1,1.08Z"/>
    </g>
  </g>
</svg>