<?xml version="1.0" encoding="UTF-8"?>
<svg id="Layer_2" data-name="Layer 2" xmlns="http://www.w3.org/2000/svg" viewBox="0 0 286.86 217.17">
  <defs>
    <style>
      .cls-1 {
        fill: #ffba0a;
      }
    </style>
  </defs>
  <g id="Layer_1-2" data-name="Layer 1">
    <g>
      <g>
        <path class="cls-1" d="M257.48,140.04c-8.37,34.51-9.73,34.11-22.97,43.89-20.09,14.84-64.21,7.18-91.3,3.42-27.79-3.86-62.44,3.2-80.07-8.56-29.12-19.43-29.89-38.94-20.46-81.23,6.11-27.41,14.18-32.67,33.63-49.69,16.06-14.05,35.97-34.31,59.02-39.61,7.93-1.82,48.32,1.21,75.49,21.6,3.93,2.95,10.83,8.76,28.14,30.97,16.24,20.83,26.66,45.7,18.53,79.21Z"/>
        <path d="M286.57,26.02c-.93-7.21-4.07-12.58-9.33-15.99-9.35-6.05-16.29-7.91-21.21-5.67-6.78,3.07-8.29,13.32-9.63,22.37-.43,2.9-.83,5.65-1.39,8.07-2.1,9.24-7.74,20.6-13.24,28.22-1.23-1.74-2.51-3.48-3.87-5.22-16.41-21.05-23.57-27.61-28.42-31.24C171.74,5.75,131.24,2.75,122.75,4.7c-20.34,4.68-38.47,20.95-53.03,34.03-2.28,2.05-4.5,4.04-6.64,5.91-1.42,1.24-2.77,2.42-4.07,3.54-2.63,2.28-5.03,4.37-7.24,6.36-4.31-7.1-8.24-15.82-9.91-23.19-.55-2.43-.96-5.17-1.39-8.07-1.34-9.05-2.86-19.31-9.63-22.37-4.93-2.23-11.86-.37-21.21,5.67C4.37,9.99,1.23,15.37.3,22.57c-2.7,20.95,13.45,53.28,27.91,76.06-8.97,41.67-6.59,60.31,21.86,79.3,11.53,7.7,29.58,7.61,48.69,7.51,4.92-.03,9.91-.04,14.85.07,1.31,9.42,2.16,17.94,1.64,19.02-.89,1.46-5.82,1.87-9.08,1.16-1.2-.26-2.93-.87-4.95-1.58-4.29-1.51-9.63-3.38-13.95-3.38-2.32,0-4.3,1.14-5.56,3.2-1.94,3.16-1.94,8.06.02,11.91.41.81,1.2,1.32,2.06,1.32h38.99c1.09,0,1.97-.94,1.97-2.09v-28.99c2.03.17,4.05.38,6.01.65,1.95.27,3.98.56,6.09.86,5.48.78,11.35,1.62,17.4,2.36v25.12c0,1.15.88,2.09,1.97,2.09h38.99c.86,0,1.65-.5,2.06-1.32,1.95-3.86,1.96-8.75.02-11.91-1.27-2.06-3.24-3.2-5.56-3.2-4.32,0-9.66,1.87-13.95,3.38-2.01.71-3.75,1.32-4.95,1.58-3.27.71-8.2.3-9.08-1.15-.42-.86.04-6.45.9-13.45,6.72.63,13.49,1.05,20.05,1.05,15.16,0,29.14-2.22,38.46-9.1l1.78-1.31c11.83-8.68,13.65-10.01,21.76-43.44,1.9-7.85,2.86-15.42,2.87-22.8,15.54-21.43,40.29-63.93,36.99-89.48ZM269.03,81.21c-6.21,11.86-13.35,23.2-19.48,31.81-1.03,1.44-2.03,2.81-2.99,4.09-2.33,3.09-4.44,5.69-6.21,7.62l1.11,1.01c1.39-1.52,3.09-3.58,5.01-6.07-.29,5.83-1.19,11.79-2.67,17.92-7.85,32.36-9.31,33.43-20.62,41.72l-1.79,1.31c-12.43,9.18-34.95,9.42-56.35,7.46-.5-.05-1-.1-1.5-.14-.13.99-.26,2-.39,3.01-.82,6.59-1.41,13.17-.69,14.36,1.56,2.57,7.83,2.47,10.68,1.85,1.29-.28,3.07-.9,5.13-1.63,4.18-1.47,9.39-3.3,13.45-3.3,2.28,0,3.59,1.35,4.29,2.48,1.68,2.74,1.65,7.04-.08,10.45-.15.3-.43.49-.72.49h-38.99c-.25,0-.47-.27-.47-.59v-27.97c-.5-.06-1-.12-1.5-.18-6-.73-11.76-1.55-16.97-2.29-2.11-.3-4.15-.59-6.1-.86-2.11-.29-4.25-.52-6.43-.7-.5-.04-1-.07-1.5-.11v32.12c0,.32-.21.59-.47.59h-38.99c-.29,0-.57-.19-.72-.49-1.73-3.41-1.76-7.71-.08-10.45.7-1.13,2.01-2.48,4.29-2.48,4.06,0,9.27,1.83,13.45,3.3,2.06.72,3.84,1.35,5.13,1.63,2.86.62,9.13.72,10.68-1.85.92-1.52-.3-11.87-1.4-19.76-.15-1.06-.29-2.07-.43-3.01-.51-.01-1.02-.02-1.52-.03-2.7-.06-5.41-.08-8.12-.08-2.12,0-4.23,0-6.32.02-18.64.09-36.24.18-47.01-7.01-14.27-9.52-21.46-18.83-24.05-31.1-2.37-11.25-.7-25.1,2.84-42.12,5.95,9.07,11.41,16.28,14.89,20.09l1.11-1.01c-3.95-4.32-9.61-11.9-15.57-21.11-.76-1.17-1.52-2.37-2.29-3.59-3.67-5.87-7.39-12.26-10.83-18.82C9.36,61.59-.3,38.92,1.79,22.77c.78-6.09,3.25-10.75,7.3-13.93-.31,3.15-.66,9.81,1.49,13.71l1.31-.72c-2.31-4.2-1.38-12.45-1.16-14.16,2.84-1.82,5.43-3.23,7.78-4.24-.36,2.87-.86,9.79,1.98,14.45l1.28-.78c-2.89-4.75-1.93-12.49-1.66-14.31,4.14-1.52,7.48-1.69,10.1-.5,6.03,2.73,7.49,12.56,8.77,21.23.43,2.93.84,5.71,1.41,8.19,1.68,7.37,5.69,16.46,10.24,23.89.54.88,1.09,1.74,1.64,2.57,4.4,6.62,9.09,11.4,12.53,11.44l.02-1.5c-2.84-.03-7.2-4.58-11.41-10.98,2.28-2.07,4.79-4.25,7.58-6.67,1.3-1.13,2.66-2.31,4.08-3.55,2.15-1.88,4.38-3.88,6.67-5.94,15.05-13.51,32.12-28.83,51.7-33.34,7.2-1.66,47.22,1.05,74.25,21.34,2.84,2.13,9.48,7.11,27.85,30.69,1.53,1.96,2.96,3.92,4.32,5.88-2.97,3.66-5.78,5.99-7.8,6.01l.02,1.5c2.44-.03,5.52-2.46,8.67-6.23.65-.77,1.29-1.6,1.94-2.48,5.9-7.99,11.69-19.95,13.79-29.2.56-2.48.97-5.25,1.41-8.19,1.28-8.67,2.74-18.5,8.77-21.23,2.62-1.19,5.97-1.02,10.1.5.28,1.83,1.23,9.57-1.66,14.31l1.28.78c2.84-4.66,2.34-11.58,1.98-14.45,2.35,1.01,4.94,2.42,7.78,4.25.22,1.71,1.15,9.96-1.15,14.16l1.31.72c2.14-3.9,1.8-10.56,1.49-13.71,4.05,3.17,6.51,7.84,7.3,13.93,2.08,16.15-7.58,38.83-16.05,55Z"/>
      </g>
      <path d="M197.5,66.5c-1.74-1.62-6.37-5.07-12.35-2.61-5.69,2.33-7.26,6.7-7.69,8.83-.12.57.21,1.11.67,1.23.03,0,.06.02.09.03.02,0,.04.02.06.02.03,0,.06-.01.1-.02.06,0,.12-.01.18-.03.01,0,.03-.01.04-.02.14-.05.27-.13.37-.26.71-.87,2.44-2.4,6.03-2.7,3.71-.31,5.79,1.73,6.64,2.83.28.37.74.45,1.09.19h.02c.46-.35.55-1.1.18-1.58-1.09-1.43-3.64-3.89-8.05-3.53-1.88.16-3.33.64-4.46,1.22.95-1.51,2.57-3.13,5.31-4.26,5.21-2.14,9.25.91,10.71,2.28.35.33.85.29,1.16-.09h0c.37-.45.32-1.17-.09-1.56Z"/>
      <path d="M145.06,66.5c1.74-1.62,6.37-5.07,12.35-2.61,5.69,2.33,7.26,6.7,7.69,8.83.12.57-.21,1.11-.67,1.23-.03,0-.06.02-.09.03-.02,0-.04.02-.06.02-.03,0-.06-.01-.1-.02-.06,0-.12-.01-.18-.03-.01,0-.03-.01-.04-.02-.14-.05-.27-.13-.37-.26-.71-.87-2.44-2.4-6.03-2.7-3.71-.31-5.79,1.73-6.64,2.83-.28.37-.74.45-1.09.19h-.02c-.46-.35-.55-1.1-.18-1.58,1.09-1.43,3.64-3.89,8.05-3.53,1.88.16,3.33.64,4.46,1.22-.95-1.51-2.57-3.13-5.31-4.26-5.21-2.14-9.25.91-10.71,2.28-.35.33-.85.29-1.16-.09h0c-.37-.45-.32-1.17.09-1.56Z"/>
      <ellipse cx="162.39" cy="113.18" rx="12.05" ry="16.34"/>
    </g>
  </g>
</svg>