<?xml version="1.0" encoding="UTF-8"?>
<svg id="Layer_2" data-name="Layer 2" xmlns="http://www.w3.org/2000/svg" viewBox="0 0 92.94 50.75">
  <defs>
    <style>
      .cls-1 {
        fill: #5b3319;
      }

      .cls-2 {
        fill: #512e14;
      }
    </style>
  </defs>
  <g id="Layer_1-2" data-name="Layer 1">
    <g>
      <g>
        <path class="cls-1" d="M74.49,25.89c1.15-.49,2.1-1.34,2.85-2.41-11.78-.88-29.61-19.81-44.92-18.38-4.39.41-7.94,1.75-10.79,3.63,1.19-.29,2.44-.51,3.79-.63,17.24-1.6,37.68,22.62,49.07,17.79Z"/>
        <path class="cls-2" d="M83.78,6.5c-14.59-14.43-6.43,2.46-5.12,6.41,1.16,3.48.63,7.79-1.32,10.58-.75,1.07-1.7,1.92-2.85,2.41-11.39,4.83-31.83-19.4-49.07-17.79-1.34.12-2.6.35-3.79.63C7.54,12.15,3.87,26.23,4.93,32.14c1.19,6.62,11.92,15.34,27.25,14.43,17.27-1.03,21.1,6.41,42.31,2.06,21.22-4.35,23.87-27.71,9.28-42.13Z"/>
      </g>
      <path d="M58.26,50.75c-5.3,0-9.3-.88-13.22-1.74-4.73-1.04-9.62-2.12-16.81-1.69C12.11,48.28,1.41,39.03.19,32.27-.97,25.79,2.96,11.59,17.33,8.03c3.15-2.06,6.86-3.3,11.02-3.68,8.92-.83,18.71,5.09,27.35,10.31,6.37,3.85,12.4,7.49,17.26,8.04,1.61-2.59,2.02-6.44.98-9.55-.18-.54-.5-1.36-.88-2.31-2.16-5.47-3.56-9.43-1.85-10.57,1.04-.69,2.85-.47,9.08,5.69h0c7.97,7.88,11.2,18.58,8.42,27.91-2.37,7.98-8.96,13.62-18.08,15.49-4.9,1-8.92,1.38-12.38,1.38ZM31.43,45.72c5.66,0,9.85.92,13.93,1.82,6.63,1.46,12.89,2.83,24.98.36,8.69-1.78,14.71-6.91,16.95-14.45,2.58-8.67-.58-19.04-8.04-26.42h0c-5.87-5.8-7.09-5.55-7.21-5.5-.73.79,1.65,6.79,2.42,8.76.38.97.71,1.8.91,2.39,1.25,3.73.68,8.25-1.41,11.24l-.24.35-.43-.03c-5.28-.39-11.63-4.23-18.35-8.29-8.44-5.1-18-10.88-26.44-10.1-3.96.37-7.47,1.55-10.44,3.51l-.24.1C4.02,12.8.72,26.75,1.67,32.01c1.15,6.36,11.77,14.69,26.46,13.81,1.15-.07,2.25-.1,3.29-.1Z"/>
    </g>
  </g>
</svg>