<?xml version="1.0" encoding="UTF-8"?>
<svg id="Layer_2" data-name="Layer 2" xmlns="http://www.w3.org/2000/svg" viewBox="0 0 82.96 81.1">
  <defs>
    <style>
      .cls-1 {
        fill: #5b3319;
      }

      .cls-2 {
        fill: #512e14;
      }
    </style>
  </defs>
  <g id="Layer_1-2" data-name="Layer 1">
    <g>
      <g>
        <path class="cls-1" d="M21.32,55.21c-.05-6.05,1.44-9.41,10.46-28.66-2.49-9.71-2.74-14.85-5.09-15.14-2.04-.25-3.72,3.36-11.34,19.64-8.36,17.83-9.69,20.64-9.64,25.93.03,3.25.12,13.65,7.53,18.5,6.01,3.93,13.23,1.86,14.91,1.38.38-.11.78-.27,1.17-.4-7.83-6-7.96-17.54-7.99-21.24Z"/>
        <path class="cls-1" d="M73.31,31.05c-7.63-16.28-9.3-19.89-11.34-19.64-2.55.31-2.59,6.29-5.75,17.7-.16.59-.33,1.13-.5,1.69,6.36,18.49,12.45,23.72,9.28,32.89-1.64,4.76-5.09,8.57-9.05,11.28,1.51.81,3.06,1.46,4.57,1.89,1.68.48,8.9,2.55,14.91-1.38,7.41-4.85,7.5-15.25,7.53-18.5.05-5.29-1.29-8.09-9.64-25.93Z"/>
        <path class="cls-2" d="M65,63.7c3.17-9.18-2.92-14.4-9.28-32.89-.9-2.6-1.8-5.47-2.68-8.65-3.76-13.54-3.8-20.62-6.83-20.99-2.42-.3-4.41,3.98-13.46,23.29-.35.74-.66,1.4-.98,2.1-9.02,19.25-10.51,22.61-10.46,28.66.03,3.71.16,15.25,7.99,21.24.31.24.61.48.94.7,7.13,4.67,15.69,2.21,17.69,1.64,2.66-.76,5.44-2.07,8.01-3.82,3.96-2.71,7.41-6.52,9.05-11.28Z"/>
      </g>
      <path d="M35.7,81.1c-4.82,0-8.31-1.47-10.63-2.99-.18-.12-.35-.24-.52-.37-.22.08-.43.15-.65.21-7.77,2.23-12.91.4-15.85-1.52C.13,71.25.03,60.52,0,56.99c-.05-5.51,1.23-8.24,9.55-26.01l.37-.79c8.23-17.57,9.52-20.29,12.34-19.92,2.49.31,3.13,3.2,4.4,8.95.27,1.2.55,2.49.88,3.91C37.1,2.78,38.59-.36,41.79.03c2.8.34,3.53,3.68,5,10.33.68,3.08,1.52,6.92,2.79,11.49.48,1.73.97,3.4,1.5,5.05.79-3.02,1.36-5.61,1.84-7.77,1.25-5.69,1.88-8.55,4.36-8.85,2.85-.38,4.11,2.35,12.35,19.94l.35.75c8.33,17.78,9.61,20.51,9.56,26.02-.03,3.53-.13,14.26-8.05,19.44-2.94,1.92-8.07,3.75-15.85,1.52-1.38-.4-2.79-.95-4.18-1.66-2.46,1.6-5.14,2.84-7.77,3.6-2.99.86-5.65,1.21-8,1.21ZM24.96,75.18l.7.54c.21.17.43.34.66.49,3.05,2,8.44,3.88,16.75,1.5,2.61-.75,5.26-2.01,7.68-3.67l.57-.39.61.33c1.45.78,2.91,1.38,4.34,1.79,6.94,1.99,11.43.42,13.97-1.24,6.9-4.52,6.99-14.33,7.02-17.55.04-4.99-1.21-7.66-9.35-25.03l-.35-.75c-6.05-12.91-8.82-18.73-10.01-18.64-.89.11-1.6,3.34-2.42,7.08-.58,2.62-1.29,5.89-2.38,9.79-.11.38-.21.74-.32,1.1l-1.19,4.05-1.17-3.39c-.98-2.85-1.87-5.7-2.7-8.72-1.28-4.63-2.13-8.5-2.82-11.61-1.07-4.88-1.85-8.41-3.05-8.56-.02,0-.05,0-.07,0-1.6,0-4.69,6.6-12.02,22.23l-2.53,5.4-.79-3.08c-.7-2.74-1.21-5.06-1.67-7.11-.84-3.79-1.56-7.07-2.45-7.18-1.18-.08-3.96,5.73-10,18.62l-.37.79C3.49,49.31,2.24,51.98,2.28,56.97c.03,3.23.12,13.04,7.02,17.56,2.54,1.67,7.03,3.23,13.97,1.24.24-.07.49-.16.74-.25l.95-.34Z"/>
    </g>
  </g>
</svg>