<?xml version="1.0" encoding="UTF-8"?>
<svg id="Layer_2" data-name="Layer 2" xmlns="http://www.w3.org/2000/svg" viewBox="0 0 90.5 49">
  <defs>
    <style>
      .cls-1 {
        fill: #512e14;
      }
    </style>
  </defs>
  <g id="Layer_1-2" data-name="Layer 1">
    <g>
      <path class="cls-1" d="M80.22,17.33c.17-.76.28-1.54.28-2.33,0-8.01-8.95-14.5-20-14.5-4.97,0-9.5,1.32-13,3.49-3.5-2.17-8.03-3.49-13-3.49C23.45.5,14.5,6.99,14.5,15c0,2.07.61,4.04,1.69,5.82-6.89,2.29-11.69,7.32-11.69,13.18,0,8.01,8.95,14.5,20,14.5,5.73,0,10.89-1.76,14.54-4.56,1.74.36,3.57.56,5.46.56,4.97,0,9.5-1.32,13-3.49,3.5,2.17,8.03,3.49,13,3.49,11.05,0,20-6.49,20-14.5,0-5.45-4.15-10.19-10.28-12.67Z"/>
      <path d="M20.5,49c-11.3,0-20.5-6.73-20.5-15,0-5.71,4.48-10.94,11.46-13.45-.97-1.77-1.46-3.64-1.46-5.55C10,6.73,19.2,0,30.5,0c4.74,0,9.34,1.21,13,3.41,3.66-2.2,8.26-3.41,13-3.41,11.3,0,20.5,6.73,20.5,15,0,.64-.07,1.31-.21,2.03,6.31,2.68,10.21,7.62,10.21,12.97,0,8.27-9.2,15-20.5,15-4.74,0-9.34-1.21-13-3.41-5.03,3.02-11.83,4.17-18.34,2.88-3.9,2.92-9.09,4.53-14.66,4.53ZM30.5,1c-10.75,0-19.5,6.28-19.5,14,0,1.92.54,3.79,1.62,5.56l.32.54-.59.2c-6.89,2.29-11.35,7.28-11.35,12.7,0,7.72,8.75,14,19.5,14,5.44,0,10.49-1.58,14.23-4.46l.18-.14.22.05c6.45,1.33,13.2.18,18.1-2.87l.26-.16.26.16c3.55,2.21,8.07,3.42,12.74,3.42,10.75,0,19.5-6.28,19.5-14,0-5.04-3.82-9.72-9.97-12.2l-.39-.16.09-.41c.18-.81.27-1.54.27-2.22,0-7.72-8.75-14-19.5-14-4.67,0-9.19,1.21-12.74,3.42l-.26.16-.26-.16c-3.55-2.21-8.07-3.42-12.74-3.42Z"/>
    </g>
  </g>
</svg>