<?xml version="1.0" encoding="UTF-8"?>
<svg id="Layer_2" data-name="Layer 2" xmlns="http://www.w3.org/2000/svg" viewBox="0 0 155.04 115.14">
  <defs>
    <style>
      .cls-1 {
        fill: #5b3319;
      }

      .cls-2 {
        fill: #512e14;
      }
    </style>
  </defs>
  <g id="Layer_1-2" data-name="Layer 1">
    <g>
      <g>
        <path class="cls-2" d="M78.01,26.77c.29.08.56.23.8.42.62-.27,1.26-.42,1.9-.42.45,0,1.01.19,1.64.56.28-.26.59-.45.95-.56,7.27-2.08,19.1.53,31.08,7.25,2.63-3.96,3.94-9.24.65-16.5-6.61-14.54-17.19-10.58-21.15-11.9S88.59.33,81.98.33s-9.25,2.64-11.9,3.97c-2.64,1.32-7.93-1.32-19.83,7.8-10.11,7.75-3.04,17.69-.69,20.51,11.06-5.67,21.72-7.76,28.45-5.83Z"/>
        <path class="cls-1" d="M56.86,91.55c.38-6.64,1.32-10.58,1.32-10.58,5.36-22.31,12.05-50.11,20.63-53.78-.24-.19-.51-.33-.8-.42-6.73-1.92-17.39.17-28.45,5.83C27.15,44.08,3.08,70.24,6.62,107.41c1,10.53,29.08,6.61,46.27-6.61,1.3-1,2.6-2.26,3.89-3.73-.06-1.56-.05-3.39.08-5.52Z"/>
        <path class="cls-1" d="M114.38,34.02c-11.98-6.72-23.82-9.32-31.08-7.25-.36.1-.67.3-.95.56,5.64,3.28,17.48,21.39,19.46,57.61.18,3.31.21,6.31.16,8.92,2.11,2.9,4.28,5.28,6.45,6.95,17.19,13.22,45.27,17.14,46.27,6.61,3.4-35.72-18.69-61.27-40.31-73.4Z"/>
        <path class="cls-2" d="M101.81,84.94c-1.98-36.22-13.82-54.34-19.46-57.61-.63-.37-1.19-.56-1.64-.56-.64,0-1.28.15-1.9.42-8.58,3.67-15.27,31.47-20.63,53.78,0,0-.95,3.94-1.32,10.58-.12,2.13-.14,3.96-.08,5.52.26,6.81,1.94,8.63,2.54,9.2,1.86,1.8,4.27,2.31,5.92,2.46h26.14c5.73,0,10.42-4.69,10.42-10.42.07-1.32.13-2.81.16-4.46.05-2.61.02-5.61-.16-8.92Z"/>
      </g>
      <path d="M110.48,34.33c2.91-4.97,2.96-10.4.16-16.56-5.37-11.82-13.56-12.01-18.45-12.12-1.36-.03-2.54-.06-3.29-.31-1.3-.43-2.33-1.22-3.41-2.05-2.01-1.54-4.29-3.29-8.8-3.29-5.51,0-8.4,1.75-10.73,3.15-.56.34-1.09.66-1.62.92-.54.27-1.37.33-2.43.41-3.23.24-8.64.65-17.56,7.49-3.34,2.56-5.22,5.6-5.61,9.05-.55,4.96,2.19,9.51,4,11.92C20.74,44.66-3.18,71.11.35,108.17c.24,2.49,1.79,4.42,4.48,5.6,10.23,4.45,31.72-2.54,43.38-11.51.8-.62,1.62-1.35,2.45-2.17.37,3.66,1.27,6.2,2.68,7.57,1.61,1.56,3.8,2.48,6.61,2.74h26.14c6.29,0,11.41-5.12,11.41-11.36.03-.54.06-1.11.08-1.71,1.67,2.04,3.32,3.69,4.93,4.93,9.18,7.06,24.44,12.89,35.51,12.89,3,0,5.69-.43,7.87-1.38,2.69-1.17,4.24-3.11,4.48-5.6,3.38-35.53-18.23-61.31-39.91-73.84ZM40.72,21.24c.32-2.89,1.95-5.48,4.84-7.7,8.45-6.48,13.49-6.86,16.51-7.09,1.27-.1,2.28-.17,3.16-.61.57-.29,1.14-.63,1.75-1,2.22-1.34,4.74-2.86,9.7-2.86,3.84,0,5.66,1.4,7.59,2.88,1.17.89,2.37,1.82,3.99,2.36,1.04.35,2.35.38,3.88.41,4.99.11,11.83.27,16.69,10.96,2.52,5.54,2.46,10.37-.12,14.76-7.55-5.61-17.05-7.79-26.06-9.23-19.32-3.1-32.02,4.14-38.02,8.04-1.61-2.03-4.43-6.33-3.93-10.91ZM148.41,107.98c-.17,1.75-1.28,3.09-3.3,3.97-7.9,3.43-27.7-.74-41.38-11.27-2.01-1.54-4.11-3.81-6.25-6.74l-1.74-2.38-.05,2.95c-.03,1.63-.09,3.12-.16,4.48,0,5.2-4.23,9.43-9.43,9.43h-26.05c-2.26-.21-4.05-.95-5.33-2.19-1.64-1.59-2.12-5.51-2.24-8.53l-.1-2.49-1.64,1.87c-1.28,1.46-2.54,2.67-3.75,3.6-13.69,10.53-33.48,14.7-41.38,11.27-2.02-.88-3.13-2.21-3.3-3.97C-1.17,71.3,22.98,45.29,44.73,34.15l1.05-.63c5.64-3.7,17.45-9.93,36.58-7.44,15.96,2.08,25.34,8.95,25.34,8.95l.92.52c21.43,12.02,43.14,37.37,39.8,72.44Z"/>
    </g>
  </g>
</svg>