<?xml version="1.0" encoding="UTF-8"?>
<svg id="Layer_2" data-name="Layer 2" xmlns="http://www.w3.org/2000/svg" viewBox="0 0 208.53 254.53">
  <defs>
    <style>
      .cls-1 {
        fill: #ffba0a;
      }
    </style>
  </defs>
  <g id="Layer_1-2" data-name="Layer 1">
    <g>
      <g>
        <path class="cls-1" d="M110.94,0c20.15,0,53.33,24.89,61.63,37.92,8.3,13.04,43.85,55.7,34.37,77.03-9.48,21.33-20.15,88.88-22.52,97.18-2.37,8.3-23.7,11.85-34.37,15.41-10.67,3.56-17.78,7.11-29.63,7.11s-60.44-10.67-73.48-18.96c-13.04-8.3-33.18-37.92-29.63-54.51,3.56-16.59,18.96-50.96,27.26-58.07,8.3-7.11,11.85-22.52,10.67-39.11-1.19-16.59,7.11-48.59,17.78-54.51C83.68,3.56,110.94,0,110.94,0Z"/>
        <path d="M170.4,47.76c-2.57-3.59-4.78-6.69-6.16-8.86C155.93,25.85,122.31.28,101.34.28h-.19c-1.12.16-27.67,3.67-38.46,9.67-11.55,6.42-19.73,39.4-18.54,55.93,1.21,16.95-2.68,31.46-10.15,37.86-5.98,5.12-15.3,23.39-21.65,39.76C1.08,152.97.54,160.77.24,165.07c-.04.58-.07,1.08-.13,1.52-.38,3.04.17,8.02,2.87,12.89,2.15,3.88,5.27,7.06,9.31,9.5,6.62,12.89,16.94,25.09,24.25,29.75,7.66,4.87,26.86,10.44,44.17,14.32.5,4.73.7,8.18.38,8.84-.89,1.46-5.82,1.87-9.08,1.16-1.2-.26-2.93-.87-4.95-1.57-4.29-1.51-9.63-3.38-13.95-3.38-2.32,0-4.3,1.14-5.56,3.2-1.94,3.16-1.94,8.06.02,11.91.41.81,1.2,1.32,2.06,1.32h38.99c1.09,0,1.97-.94,1.97-2.09v-17.31c8.89,1.73,16.4,2.8,20.24,2.8,3.41,0,6.43-.29,9.26-.79v15.29c0,1.15.88,2.09,1.97,2.09h38.99c.86,0,1.65-.5,2.06-1.32,1.95-3.85,1.96-8.75.02-11.91-1.27-2.06-3.24-3.2-5.56-3.2-4.32,0-9.66,1.87-13.95,3.38-2.01.71-3.75,1.32-4.95,1.58-3.26.71-8.2.3-9.08-1.15-.29-.59-.16-3.37.22-7.29,1.73-.57,3.47-1.19,5.26-1.83,1.86-.66,3.79-1.35,5.86-2.04,2.38-.79,5.33-1.6,8.47-2.45,11.35-3.08,24.17-6.57,26.7-13.46,3.84-.5,6.78-1.64,8.94-3.45,7.1-5.99,4.84-18.74,1.71-36.38l-.1-.56c-.29-1.62-.88-3.02-1.7-4.25,4.11-20.4,9.1-42.37,13.76-52.85,8.22-18.5-14.65-50.48-28.31-69.59ZM185.19,174.62l.1.56c3.07,17.3,5.28,29.79-1.31,35.35-1.82,1.54-4.29,2.54-7.52,3.03-1,.15-2.07.25-3.22.31-2.63.13-5.65,0-9.13-.37-21.01-2.29-23.76-10.97-22.92-21.92,6.81-2.75,18.75-.78,18.88-.76l.29-1.19c-.5-.08-11.74-1.94-19.05.57.21-2.12.53-4.31.86-6.55.05-.32.09-.65.14-.97,6.8-2.11,17.68-.75,17.79-.74l.22-1.2c-.45-.06-10.68-1.33-17.82.6.13-.9.25-1.8.36-2.71.69-5.75,6.36-10.04,13.36-12.3.46-.15.93-.29,1.4-.42,3.02-.84,6.24-1.31,9.37-1.37.22,0,.44,0,.66,0,1.12,0,2.26.06,3.39.18,1.21.13,2.4.32,3.56.6,2.91.69,5.58,1.89,7.53,3.71,1.01.94,1.82,2.06,2.38,3.36.3.7.54,1.44.68,2.25ZM155.96,158.24c-.07-.29-.17-.61-.27-.94-.55-1.82-1.23-4.09.26-5.75,1.33-1.48,4.29-2.3,8.78-2.45,3.6-.12,6.1.51,7.63,1.93,2.81,2.6,1.94,7.52,1.16,11.85-.05.31-.1.6-.16.9-2.11-.37-4.29-.51-6.41-.47-3.2.06-6.48.54-9.57,1.39-.35-1.77-.92-4.49-1.42-6.45ZM195.96,116.13c-4.6,10.35-9.47,31.41-13.53,51.36-2.09-1.66-4.76-2.76-7.63-3.41.06-.34.11-.66.17-1.01.82-4.6,1.75-9.82-1.52-12.85-1.84-1.7-4.71-2.47-8.78-2.33-5.03.17-8.26,1.13-9.9,2.94-1.91,2.12-1.1,4.81-.51,6.77.1.32.19.62.26.9.52,2.02,1.11,4.86,1.45,6.61-7.6,2.4-13.82,7.08-14.58,13.4-.2,1.67-.44,3.34-.69,5-2.11,14.52-4.11,28.23,23.21,31.2,2.65.29,5.07.44,7.26.44.48,0,.92-.02,1.38-.03-3.4,4.71-15.15,7.9-23.96,10.3-3.17.86-6.17,1.68-8.63,2.5-2.09.7-4.04,1.39-5.92,2.06-1.34.48-2.64.94-3.91,1.38-.53.18-1.06.36-1.58.53-.12,1.12-.23,2.22-.32,3.25-.33,3.79-.41,6.79.05,7.55,1.55,2.57,7.83,2.47,10.68,1.85,1.29-.28,3.07-.9,5.13-1.63,4.18-1.47,9.39-3.3,13.45-3.3,2.28,0,3.59,1.35,4.29,2.49,1.68,2.74,1.65,7.04-.08,10.45-.15.3-.43.49-.72.49h-38.99c-.25,0-.47-.27-.47-.59v-18.63c-.49.11-.99.21-1.5.3-2.82.52-5.83.82-9.26.82-3.73,0-11.29-1.11-20.24-2.87-.5-.1-.99-.2-1.5-.3v20.68c0,.32-.21.59-.47.59h-38.99c-.29,0-.57-.19-.72-.49-1.73-3.41-1.76-7.71-.08-10.45.7-1.13,2.01-2.49,4.29-2.49,4.06,0,9.27,1.83,13.46,3.3,2.06.72,3.84,1.35,5.13,1.63,2.86.62,9.13.72,10.68-1.85.53-.88.35-4.69-.11-9.27-.1-1.03-.22-2.09-.35-3.17-.52-.12-1.04-.23-1.56-.35-16.76-3.81-35.07-9.14-42.21-13.68-6.74-4.29-15.13-14.2-21.21-24.89,1.31.54,2.68,1.02,4.13,1.44,6.11,1.77,11.67,2.5,16.77,2.5,11.07,0,20-3.41,27.81-6.88,6.11-2.72,8.17-6.85,8.55-11.08h.08c-.02-.12-.04-.23-.06-.34.23-3.27-.52-6.58-1.12-9.29-.09-.39-.17-.77-.25-1.14-1.44-6.63-8.69-10.44-19.89-10.44-9.28,0-29.14,3.7-29.34,3.74l.23,1.22c.2-.04,19.95-3.72,29.11-3.72,4.99,0,16.81.92,18.67,9.46.08.37.17.76.26,1.15.43,1.89.9,4,1.07,6.14-4.35-5.91-17.23-5.28-17.86-5.24l.07,1.24c.16,0,16.05-.79,17.8,6.97-.22,2.59-1.11,5.1-3.29,7.23-2.54-8.17-18.23-7.4-18.93-7.36l.07,1.24c.16,0,16.12-.8,17.81,7.03-.96.75-2.11,1.44-3.49,2.05-11.21,4.98-24.75,9.83-43.73,4.32-2.02-.59-3.83-1.27-5.47-2.03-1.79-.83-3.37-1.76-4.75-2.74C0,178.83,1.32,166.89,1.34,166.75c.06-.47.1-1.02.14-1.59.27-3.88.76-10.73,9.92-19.15,1.38-1.26,2.94-2.56,4.74-3.89.29-.72.58-1.44.88-2.17,6.02-14.59,13.88-29.59,18.93-33.92,8.3-7.12,12.48-22.2,11.19-40.35-1.21-16.96,7.54-47.84,17.01-53.1,9.98-5.55,35.51-9.05,37.29-9.29,19.71.08,52.47,24.99,60.26,37.23,1.43,2.24,3.66,5.37,6.25,8.99,12.42,17.37,35.53,49.69,28.01,66.62Z"/>
      </g>
      <path d="M106.59,141.12h0c.86,0,1.58.66,1.63,1.52.48,7.25,4.3,13.11,8.77,13.11s8.3-5.86,8.77-13.11c.06-.86.77-1.52,1.63-1.52h0c.96,0,1.7.79,1.64,1.75-.58,9.19-5.66,16.16-12.05,16.16s-11.47-6.97-12.05-16.16c-.06-.96.68-1.75,1.64-1.75Z"/>
      <path d="M145.63,104.01h0c-.52,0-.96-.4-.99-.92-.29-4.42-2.62-8-5.35-8s-5.06,3.58-5.35,8c-.03.52-.47.92-.99.92h0c-.58,0-1.04-.5-1-1.08.36-5.6,3.45-9.84,7.34-9.84s6.99,4.24,7.34,9.84c.04.58-.42,1.08-1,1.08Z"/>
      <path d="M118.63,104.01h0c-.52,0-.96-.4-.99-.92-.29-4.42-2.62-8-5.35-8s-5.06,3.58-5.35,8c-.03.52-.47.92-.99.92h0c-.58,0-1.04-.5-1-1.08.36-5.6,3.45-9.84,7.34-9.84s6.99,4.24,7.34,9.84c.04.58-.42,1.08-1,1.08Z"/>
    </g>
  </g>
</svg>