<?xml version="1.0" encoding="UTF-8"?>
<svg id="Layer_2" data-name="Layer 2" xmlns="http://www.w3.org/2000/svg" viewBox="0 0 202.72 254.53">
  <defs>
    <style>
      .cls-1 {
        fill: #ffba0a;
      }
    </style>
  </defs>
  <g id="Layer_1-2" data-name="Layer 1">
    <g>
      <g>
        <path class="cls-1" d="M105.13,0c20.15,0,53.33,24.89,61.63,37.92,8.3,13.04,43.85,55.7,34.37,77.03-9.48,21.33-20.15,88.88-22.52,97.18-2.37,8.3-23.7,11.85-34.37,15.41-10.67,3.56-17.78,7.11-29.63,7.11s-60.44-10.67-73.48-18.96c-13.04-8.3-33.18-37.92-29.63-54.51,3.56-16.59,18.96-50.96,27.26-58.07,8.3-7.11,11.85-22.52,10.67-39.11-1.19-16.59,7.11-48.59,17.78-54.51C77.87,3.56,105.13,0,105.13,0Z"/>
        <path d="M164.59,47.76c-2.57-3.59-4.78-6.69-6.16-8.86C150.12,25.85,116.5.28,95.53.28h-.19c-1.12.16-27.67,3.67-38.46,9.67-11.55,6.42-19.73,39.4-18.54,55.93,1.21,16.95-2.68,31.46-10.15,37.86-8.59,7.36-24.11,41.91-27.75,58.89-3.52,16.42,14.67,43.66,27.37,53.96.52.42,1.03.82,1.53,1.18.47.34.94.67,1.39.95,7.66,4.87,26.86,10.44,44.17,14.32.5,4.73.7,8.18.38,8.84-.89,1.46-5.82,1.87-9.08,1.16-1.2-.26-2.93-.87-4.95-1.57-4.29-1.51-9.63-3.38-13.95-3.38-2.32,0-4.3,1.14-5.56,3.2-1.94,3.16-1.94,8.06.02,11.91.41.81,1.2,1.32,2.06,1.32h38.99c1.09,0,1.97-.94,1.97-2.09v-17.31c8.89,1.73,16.4,2.8,20.24,2.8,3.41,0,6.43-.29,9.26-.79v15.29c0,1.15.88,2.09,1.97,2.09h38.99c.86,0,1.65-.5,2.06-1.32,1.95-3.85,1.96-8.75.02-11.91-1.27-2.06-3.24-3.2-5.56-3.2-4.32,0-9.66,1.87-13.95,3.38-2.01.71-3.75,1.32-4.95,1.58-3.26.71-8.2.3-9.08-1.15-.29-.59-.16-3.37.22-7.29,1.73-.57,3.47-1.19,5.26-1.83,1.86-.66,3.79-1.35,5.86-2.04,2.38-.79,5.33-1.6,8.47-2.45,10.66-2.9,22.62-6.15,26.13-12.25.09-.15.17-.3.25-.45.2-.41.37-.83.49-1.27.68-2.37,1.95-9.12,3.72-18.46,4.47-23.66,11.95-63.26,18.73-78.52,8.22-18.5-14.65-50.48-28.31-69.59ZM142.8,225.4c-3.17.86-6.17,1.68-8.63,2.5-2.09.7-4.04,1.39-5.92,2.06-1.34.48-2.64.94-3.91,1.38-.53.18-1.06.36-1.58.53-.12,1.12-.23,2.22-.32,3.25-.33,3.79-.41,6.79.05,7.55,1.55,2.57,7.83,2.47,10.68,1.85,1.29-.28,3.07-.9,5.13-1.63,4.18-1.47,9.39-3.3,13.45-3.3,2.28,0,3.59,1.35,4.29,2.49,1.68,2.74,1.65,7.04-.08,10.45-.15.3-.43.49-.72.49h-38.99c-.25,0-.47-.27-.47-.59v-18.63c-.49.11-.99.21-1.5.3-2.82.52-5.83.82-9.26.82-3.73,0-11.29-1.11-20.24-2.87-.5-.1-.99-.2-1.5-.3v20.68c0,.32-.21.59-.47.59h-38.99c-.29,0-.57-.19-.72-.49-1.73-3.41-1.76-7.71-.08-10.45.7-1.13,2.01-2.49,4.29-2.49,4.06,0,9.27,1.83,13.46,3.3,2.06.72,3.84,1.35,5.13,1.63,2.86.62,9.13.72,10.68-1.85.53-.88.35-4.69-.11-9.27-.1-1.03-.22-2.09-.35-3.17-.52-.12-1.04-.23-1.56-.35-16.24-3.69-33.94-8.81-41.51-13.26,5.81-2.12,12.29-5.76,19.42-9.78,7.29-4.11,15.34-8.63,23.99-12.21.61.55,1.22,1.09,1.83,1.64,12.73,11.42,25.89,23.24,39.54,23.59,5.85.15,11.11.44,15.75.7,5.12.28,9.67.53,13.84.53,4.44,0,8.44-.29,12.22-1.12-5,2.22-11.46,3.97-16.83,5.43ZM190.16,116.13c-6.92,15.57-14.44,55.39-18.94,79.18-1.68,8.92-3.01,15.96-3.65,18.2-.31,1.08-1.06,2.09-2.14,3.03-8.79,3.79-18.29,3.27-31.78,2.52-4.65-.26-9.92-.55-15.79-.7-13.1-.33-26.05-11.96-38.58-23.2-.43-.38-.86-.77-1.29-1.15,11.55-4.59,24.16-7.4,37.51-5.25,20.29,3.28,25.25-4.12,26.41-8.82,2.15-8.77-5.6-21.02-15.36-24.27-7.35-2.45-21.23-1.64-38.71,1.76-21.17-10.9-38.5-18.72-52.69-12.7-7.48,3.17-12.03,9.34-11.31,15.34.61,5.14,5.01,9.22,12.32,11.66-8.26,2.85-16.67,5.99-25.07,9.41l.56,1.39c9.01-3.66,18.09-7.03,27.01-10.05.91-.31,1.81-.6,2.71-.91,37.72-12.52,72.02-18.7,84.7-14.47,8.94,2.98,16.33,14.54,14.38,22.49-1.78,7.25-10.55,9.98-24.71,7.7-13.96-2.25-27.06.77-39,5.61-.52.21-1.03.42-1.54.64-8.46,3.57-16.32,8-23.47,12.02-7.54,4.25-14.33,8.06-20.28,10.05C18.45,206.58.16,178.28,3.38,163.27c3.47-16.21,18.7-50.33,26.77-57.25,8.3-7.12,12.48-22.2,11.19-40.35-1.21-16.96,7.54-47.84,17.01-53.1,9.98-5.55,35.51-9.05,37.29-9.29,19.71.08,52.47,24.99,60.26,37.23,1.43,2.24,3.66,5.37,6.25,8.99,12.42,17.37,35.53,49.69,28.01,66.62ZM25.4,157.44c.3-1.95,1.22-3.89,2.64-5.66,1.79-.24,11.41-1.27,18.52,2.95l.77-1.29c-6.27-3.72-14.07-3.63-17.75-3.33,1.67-1.59,3.76-2.97,6.16-3.99,13.22-5.61,29.69,1.53,49.74,11.79-13.97,2.85-30.08,7.28-46.9,12.99-7.89-2.16-12.65-6.04-13.24-11.01-.04-.31-.06-.63-.06-.95,7.66.23,16.2,3.84,16.29,3.88l.59-1.38c-.37-.16-8.84-3.74-16.76-4Z"/>
      </g>
      <path d="M100.78,137.5h0c.85,0,1.58.65,1.63,1.51.47,7.25,4.3,13.12,8.77,13.12s8.3-5.87,8.77-13.12c.06-.85.78-1.51,1.63-1.51h0c.96,0,1.7.82,1.64,1.78-.58,9.18-5.67,16.14-12.05,16.14s-11.46-6.96-12.05-16.14c-.06-.96.68-1.78,1.64-1.78Z"/>
      <ellipse cx="106.51" cy="104.25" rx="7.09" ry="11.02"/>
      <path d="M144.93,100.24c-1.74-1.62-6.37-5.07-12.35-2.61-5.69,2.33-7.26,6.7-7.69,8.83-.12.57.21,1.11.67,1.23.03,0,.06.02.09.03.02,0,.04.02.06.02.03,0,.06-.01.1-.02.06,0,.12-.01.18-.03.01,0,.03-.01.04-.02.14-.05.27-.13.37-.26.71-.87,2.44-2.4,6.03-2.7,3.71-.31,5.79,1.73,6.64,2.83.28.37.74.45,1.09.19h.02c.46-.35.55-1.1.18-1.58-1.09-1.43-3.64-3.89-8.05-3.53-1.88.16-3.33.64-4.46,1.22.95-1.51,2.57-3.13,5.31-4.26,5.21-2.14,9.25.91,10.71,2.28.35.33.85.29,1.16-.09h0c.37-.45.32-1.17-.09-1.56Z"/>
    </g>
  </g>
</svg>