<?xml version="1.0" encoding="UTF-8"?>
<svg id="Layer_2" data-name="Layer 2" xmlns="http://www.w3.org/2000/svg" viewBox="0 0 230.53 254.53">
  <defs>
    <style>
      .cls-1 {
        fill: #ffba0a;
      }
    </style>
  </defs>
  <g id="Layer_1-2" data-name="Layer 1">
    <g>
      <g>
        <path class="cls-1" d="M117.92,0c20.15,0,53.33,24.89,61.63,37.92,8.3,13.04,43.85,55.7,34.37,77.03-9.48,21.33-20.15,88.88-22.52,97.18-2.37,8.3-23.7,11.85-34.37,15.41-10.67,3.56-17.78,7.11-29.63,7.11s-60.44-10.67-73.48-18.96c-13.04-8.3-33.18-37.92-29.63-54.51,3.56-16.59,18.96-50.96,27.26-58.07,8.3-7.11,11.85-22.52,10.67-39.11-1.19-16.59,7.11-48.59,17.78-54.51C90.66,3.56,117.92,0,117.92,0Z"/>
        <path d="M230.23,56.28c-.93-7.21-4.07-12.58-9.33-15.99-9.35-6.05-16.29-7.91-21.21-5.67-6.78,3.07-8.29,13.32-9.63,22.37-.38,2.6-.75,5.05-1.22,7.28-3.97-6.04-8.01-11.69-11.46-16.51-2.57-3.59-4.78-6.69-6.16-8.86C162.91,25.85,129.29.28,108.32.28h-.19c-1.12.16-27.67,3.67-38.46,9.67-11.55,6.42-19.73,39.4-18.54,55.93.43,6,.21,11.68-.57,16.82-3.82-6.67-7.17-14.43-8.69-21.09-.55-2.43-.96-5.17-1.39-8.07-1.34-9.05-2.86-19.31-9.63-22.37-4.93-2.23-11.86-.37-21.21,5.67-5.26,3.4-8.4,8.78-9.33,15.99-2.61,20.22,12.35,51.06,26.41,73.67-5.99,12.44-11.5,26.89-13.48,36.14-3.8,17.73,17.71,48.09,30.29,56.09,7.66,4.87,26.86,10.44,44.17,14.32.5,4.73.7,8.18.38,8.84-.89,1.46-5.82,1.87-9.08,1.16-1.2-.26-2.93-.87-4.95-1.57-4.29-1.51-9.63-3.38-13.95-3.38-2.32,0-4.3,1.14-5.56,3.2-1.94,3.16-1.94,8.06.02,11.91.41.81,1.2,1.32,2.06,1.32h38.99c1.09,0,1.97-.94,1.97-2.09v-17.31c8.89,1.73,16.4,2.8,20.24,2.8,3.41,0,6.43-.29,9.26-.79v15.29c0,1.15.88,2.09,1.97,2.09h38.99c.86,0,1.65-.5,2.06-1.32,1.95-3.85,1.96-8.75.02-11.91-1.27-2.06-3.24-3.2-5.56-3.2-4.32,0-9.66,1.87-13.95,3.38-2.01.71-3.75,1.32-4.95,1.58-3.26.71-8.2.3-9.08-1.15-.29-.59-.16-3.37.22-7.29,1.73-.57,3.47-1.19,5.26-1.83,1.86-.66,3.79-1.35,5.86-2.04,2.38-.79,5.33-1.6,8.47-2.45,11.63-3.16,24.8-6.74,26.87-13.97.68-2.37,1.95-9.12,3.72-18.46,3.12-16.5,7.69-40.73,12.48-59.07,15.1-22.84,33.68-58.16,30.8-80.52ZM212.69,111.47c-3.8,7.26-7.95,14.33-12.01,20.69-1.74,2.74-3.47,5.35-5.14,7.78-.79,1.15-1.57,2.26-2.33,3.33-1.03,1.44-2.03,2.81-2.99,4.09-2.33,3.09-4.44,5.69-6.21,7.62l1.11,1.01c1.39-1.52,3.09-3.58,5.01-6.07l3.12-4.18c.44-.6.89-1.23,1.34-1.87-4.09,17.11-7.88,37.15-10.57,51.42-1.68,8.92-3.01,15.96-3.65,18.2-1.6,5.6-14.99,9.24-24.77,11.9-3.17.86-6.17,1.68-8.63,2.5-2.09.7-4.04,1.39-5.92,2.06-1.34.48-2.64.94-3.91,1.38-.53.18-1.06.36-1.58.53-.12,1.12-.23,2.22-.32,3.25-.33,3.79-.41,6.79.05,7.55,1.55,2.57,7.83,2.47,10.68,1.85,1.29-.28,3.07-.9,5.13-1.63,4.18-1.47,9.39-3.3,13.45-3.3,2.28,0,3.59,1.35,4.29,2.49,1.68,2.74,1.65,7.04-.08,10.45-.15.3-.43.49-.72.49h-38.99c-.25,0-.47-.27-.47-.59v-18.63c-.49.11-.99.21-1.5.3-2.82.52-5.83.82-9.26.82-3.73,0-11.29-1.11-20.24-2.87-.5-.1-.99-.2-1.5-.3v20.68c0,.32-.21.59-.47.59h-38.99c-.29,0-.57-.19-.72-.49-1.73-3.41-1.76-7.71-.08-10.45.7-1.13,2.01-2.49,4.29-2.49,4.06,0,9.27,1.83,13.46,3.3,2.06.72,3.84,1.35,5.13,1.63,2.86.62,9.13.72,10.68-1.85.53-.88.35-4.69-.11-9.27-.1-1.03-.22-2.09-.35-3.17-.52-.12-1.04-.23-1.56-.35-16.76-3.81-35.07-9.14-42.21-13.68-13.03-8.29-32.26-37.58-28.97-52.93,1.82-8.5,6.88-21.93,12.44-33.78l1.92,2.98c5.95,9.07,11.41,16.28,14.89,20.09l1.11-1.01c-3.95-4.32-9.61-11.9-15.57-21.11-.53-.82-1.07-1.67-1.6-2.52-.23-.36-.46-.71-.69-1.08-.39-.63-.79-1.29-1.18-1.93-3.28-5.33-6.58-11.04-9.64-16.89C9.36,91.85-.3,69.18,1.79,53.02c.78-6.09,3.25-10.75,7.3-13.93-.31,3.15-.66,9.81,1.49,13.71l1.31-.72c-2.31-4.2-1.38-12.45-1.16-14.16,2.84-1.82,5.43-3.23,7.78-4.24-.36,2.87-.86,9.79,1.98,14.45l1.28-.78c-2.89-4.75-1.93-12.49-1.66-14.31,4.14-1.52,7.48-1.69,10.1-.5,6.03,2.73,7.49,12.56,8.77,21.23.43,2.93.84,5.71,1.41,8.19,1.61,7.11,5.41,15.79,9.75,23.07.16.27.32.56.49.83.54.88,1.09,1.74,1.64,2.57.06.09.12.17.18.26,4.35,6.49,8.96,11.14,12.35,11.18l.02-1.5c-2.84-.03-7.2-4.58-11.41-10.98l-.48-.76c1.3-6.2,1.74-13.29,1.19-20.95-1.21-16.96,7.54-47.84,17.01-53.1,9.98-5.55,35.51-9.05,37.29-9.29,19.71.08,52.47,24.99,60.26,37.23,1.43,2.24,3.66,5.37,6.25,8.99,3.71,5.19,8.37,11.71,12.89,18.76-2.53,8.55-7.51,18.26-12.39,25.02l-1.91,2.5c-2.97,3.66-5.78,5.99-7.8,6.01l.02,1.5c2.44-.03,5.52-2.46,8.67-6.23.65-.77,1.29-1.6,1.94-2.48,4.98-6.74,9.86-16.29,12.54-24.67.43-1.34.8-2.64,1.1-3.9.05-.21.11-.42.16-.63.56-2.48.97-5.25,1.41-8.19,1.28-8.67,2.74-18.5,8.77-21.23,2.62-1.19,5.97-1.02,10.1.5.28,1.83,1.23,9.57-1.66,14.31l1.28.78c2.84-4.66,2.34-11.58,1.98-14.45,2.35,1.01,4.94,2.42,7.78,4.25.22,1.71,1.15,9.96-1.15,14.16l1.31.72c2.14-3.9,1.8-10.56,1.49-13.71,4.05,3.17,6.51,7.84,7.3,13.93,2.08,16.15-7.58,38.83-16.05,55Z"/>
      </g>
      <path d="M159.12,96.15c-1.74-1.62-6.37-5.07-12.35-2.61-5.69,2.33-7.26,6.7-7.69,8.83-.12.57.21,1.11.67,1.23.03,0,.06.02.09.03.02,0,.04.02.06.02.03,0,.06-.01.1-.02.06,0,.12-.01.18-.03.01,0,.03-.01.04-.02.14-.05.27-.13.37-.26.71-.87,2.44-2.4,6.03-2.7,3.71-.31,5.79,1.73,6.64,2.83.28.37.74.45,1.09.19h.02c.46-.35.55-1.1.18-1.58-1.09-1.43-3.64-3.89-8.05-3.53-1.88.16-3.33.64-4.46,1.22.95-1.51,2.57-3.13,5.31-4.26,5.21-2.14,9.25.91,10.71,2.28.35.33.85.29,1.16-.09h0c.37-.45.32-1.17-.09-1.56Z"/>
      <path d="M106.68,96.15c1.74-1.62,6.37-5.07,12.35-2.61,5.69,2.33,7.26,6.7,7.69,8.83.12.57-.21,1.11-.67,1.23-.03,0-.06.02-.09.03-.02,0-.04.02-.06.02-.03,0-.06-.01-.1-.02-.06,0-.12-.01-.18-.03-.01,0-.03-.01-.04-.02-.14-.05-.27-.13-.37-.26-.71-.87-2.44-2.4-6.03-2.7-3.71-.31-5.79,1.73-6.64,2.83-.28.37-.74.45-1.09.19h-.02c-.46-.35-.55-1.1-.18-1.58,1.09-1.43,3.64-3.89,8.05-3.53,1.88.16,3.33.64,4.46,1.22-.95-1.51-2.57-3.13-5.31-4.26-5.21-2.14-9.25.91-10.71,2.28-.35.33-.85.29-1.16-.09h0c-.37-.45-.32-1.17.09-1.56Z"/>
      <ellipse cx="124.01" cy="142.84" rx="12.05" ry="16.34"/>
    </g>
  </g>
</svg>