<?xml version="1.0" encoding="UTF-8"?>
<svg id="Layer_2" data-name="Layer 2" xmlns="http://www.w3.org/2000/svg" viewBox="0 0 233.16 254.53">
  <defs>
    <style>
      .cls-1 {
        fill: #ffba0a;
      }
    </style>
  </defs>
  <g id="Layer_1-2" data-name="Layer 1">
    <g>
      <g>
        <path class="cls-1" d="M119.86,0c20.15,0,53.33,24.89,61.63,37.92,8.3,13.04,43.85,55.7,34.37,77.03-9.48,21.33-20.15,88.88-22.52,97.18-2.37,8.3-23.7,11.85-34.37,15.41-10.67,3.56-17.78,7.11-29.63,7.11s-60.44-10.67-73.48-18.96c-13.04-8.3-33.18-37.92-29.63-54.51s18.96-50.96,27.26-58.07c8.3-7.11,11.85-22.52,10.67-39.11-1.19-16.59,7.11-48.59,17.78-54.51C92.6,3.56,119.86,0,119.86,0Z"/>
        <path d="M233.09,162.39c-.4-5.55-2.66-10.03-4.64-12.37-.29-.34-.59-.74-.94-1.21-2.84-3.75-8.21-10.83-26.19-11.8,2.1-8.06,4.23-15,6.31-19.67,8.22-18.5-14.65-50.48-28.31-69.59-2.57-3.59-4.78-6.69-6.16-8.86C164.85,25.85,131.24.28,110.27.28h-.19c-1.12.16-27.67,3.67-38.46,9.67-11.55,6.42-19.73,39.4-18.54,55.93,1.21,16.95-2.68,31.46-10.15,37.86-5.32,4.56-13.28,19.52-19.44,34.29-11.43,2.33-15.49,7.69-17.83,10.78-.35.46-.65.87-.94,1.21-1.98,2.34-4.24,6.82-4.64,12.37-.52,7.23,2.13,14.3,7.9,21.01,4.15,4.83,8.41,8.47,12.68,11.25,1.93,1.26,3.86,2.34,5.79,3.28,6.11,9.3,13.45,17.26,19.03,20.81,7.66,4.87,26.86,10.44,44.17,14.32.5,4.73.7,8.18.38,8.84-.89,1.46-5.82,1.87-9.08,1.16-1.2-.26-2.93-.87-4.95-1.57-4.29-1.51-9.63-3.38-13.95-3.38-2.32,0-4.3,1.14-5.56,3.2-1.94,3.16-1.94,8.06.02,11.91.41.81,1.2,1.32,2.06,1.32h38.99c1.09,0,1.97-.94,1.97-2.09v-17.31c8.89,1.73,16.4,2.8,20.24,2.8,3.41,0,6.43-.29,9.26-.79v15.29c0,1.15.88,2.09,1.97,2.09h38.99c.86,0,1.65-.5,2.06-1.32,1.95-3.85,1.96-8.75.02-11.91-1.27-2.06-3.24-3.2-5.56-3.2-4.32,0-9.66,1.87-13.95,3.38-2.01.71-3.75,1.32-4.95,1.58-3.26.71-8.2.3-9.08-1.15-.29-.59-.16-3.37.22-7.29,1.73-.57,3.47-1.19,5.27-1.83,1.86-.66,3.79-1.35,5.86-2.04,2.38-.79,5.33-1.6,8.47-2.45,11.63-3.16,24.8-6.74,26.87-13.97.47-1.63,1.22-5.35,2.22-10.57,7.92-1.37,16.54-3.52,25.11-9.11,4.27-2.79,8.53-6.43,12.68-11.25,5.77-6.7,8.42-13.77,7.9-21.01ZM224.25,182.58c-12.04,14-25.06,17.83-36.59,19.87-.8.14-1.6.28-2.39.4-.26.04-.51.07-.76.1-1.18.15-2.28.17-3.28.09-1.58-4.15,1.95-8.47,5.44-11.51,1.29-1.12,2.56-2.07,3.58-2.77,1.19-.83,2.02-1.31,2.06-1.33l-.62-1.08c-.09.05-.5.29-1.11.68-.87.56-2.15,1.43-3.54,2.54-3.91,3.13-8.64,8.15-7.19,13.28-2.99-.59-5.11-2.21-6.71-4.25-2.78-7.46,10.96-15.48,11.1-15.57l-.62-1.08c-.55.31-11.68,6.82-12.09,14.15-1.02-1.89-1.78-3.91-2.45-5.72-.14-.38-.28-.75-.41-1.1-3.11-8.17,6.28-15.4,10.47-18.12,3.14-2.05,8.09-4.54,12.87-6.79,1.15-.54,2.29-1.06,3.39-1.57,5.51-2.51,10.06-4.4,10.16-4.44l-.48-1.15c-.09.04-4.21,1.75-9.36,4.08-1.09.49-2.23,1.02-3.39,1.55-5.07,2.36-10.49,5.07-13.87,7.27-9.38,6.12-13.37,13.26-10.95,19.61.14.35.27.72.41,1.1.97,2.6,2.15,5.77,4.13,8.39.04.1.08.2.13.3l.08-.03c2.46,3.12,6.12,5.37,12.01,4.77-.87,4.51-1.55,7.85-1.95,9.26-1.6,5.6-14.99,9.24-24.77,11.9-3.17.86-6.17,1.68-8.63,2.5-2.09.7-4.04,1.39-5.92,2.06-1.35.48-2.64.94-3.91,1.38-.53.18-1.06.36-1.58.53-.12,1.12-.23,2.22-.32,3.25-.33,3.79-.41,6.79.05,7.55,1.55,2.57,7.83,2.47,10.68,1.85,1.29-.28,3.07-.9,5.13-1.63,4.18-1.47,9.39-3.3,13.45-3.3,2.28,0,3.59,1.35,4.29,2.49,1.68,2.74,1.65,7.04-.08,10.45-.15.3-.43.49-.72.49h-38.99c-.25,0-.47-.27-.47-.59v-18.63c-.49.11-1,.21-1.5.3-2.82.52-5.83.82-9.26.82-3.73,0-11.29-1.11-20.24-2.87-.5-.1-.99-.2-1.5-.3v20.68c0,.32-.21.59-.47.59h-38.99c-.29,0-.57-.19-.72-.49-1.73-3.41-1.76-7.71-.08-10.45.7-1.13,2.01-2.49,4.29-2.49,4.06,0,9.27,1.83,13.46,3.3,2.06.72,3.84,1.35,5.13,1.63,2.86.62,9.13.72,10.68-1.85.53-.88.35-4.69-.11-9.27-.1-1.03-.22-2.09-.35-3.17-.52-.12-1.04-.23-1.56-.35-16.76-3.81-35.07-9.14-42.21-13.68-4.83-3.08-10.52-9.04-15.59-16.12,5.59,2.08,11.07,3.16,16.21,3.99,6.6,1.06,10.59-1.28,13.21-4.61l.08.03c.05-.1.09-.2.13-.3,1.98-2.62,3.16-5.79,4.13-8.39.14-.38.28-.74.41-1.1,2.42-6.34-1.57-13.49-10.95-19.61-7.77-5.07-26.43-12.82-26.62-12.9l-.48,1.15c.19.08,18.74,7.78,26.42,12.79,4.18,2.73,13.58,9.96,10.47,18.12-.14.36-.27.73-.41,1.1-.68,1.82-1.43,3.84-2.45,5.72-.41-7.33-11.54-13.84-12.09-14.15l-.62,1.08c.14.08,13.88,8.1,11.1,15.57-1.59,2.05-3.71,3.67-6.71,4.25,2.33-8.23-11.23-16.16-11.83-16.5l-.62,1.08c.14.08,13.94,8.14,11.08,15.62-1.21.1-2.55.05-4.04-.19-5.6-.9-11.6-2.1-17.7-4.61-1.69-.69-3.39-1.49-5.09-2.4-5.45-2.93-10.91-7.12-16.19-13.26-15.01-17.46-3.37-31.62-3.25-31.76.31-.36.64-.8.98-1.26,2.18-2.88,5.91-7.81,16.26-10.14,1.1-.25,2.27-.46,3.52-.64.19-.45.37-.89.56-1.34,5.86-13.77,13.12-27.34,17.89-31.43,8.3-7.12,12.48-22.2,11.19-40.35-1.21-16.96,7.54-47.84,17.01-53.1,9.98-5.55,35.51-9.05,37.29-9.29,19.71.08,52.47,24.99,60.26,37.23,1.43,2.24,3.66,5.37,6.25,8.99,12.42,17.37,35.53,49.69,28.01,66.62-2.19,4.93-4.44,12.28-6.63,20.78-.11.41-.21.82-.32,1.24,1.06.01,2.08.04,3.07.09,17.6.89,22.78,7.71,25.51,11.32.35.46.68.89.98,1.26.12.14,11.76,14.3-3.25,31.76Z"/>
      </g>
      <path d="M118.74,160.1c-.15,0-.31,0-.46,0-7-.1-9.24-2.52-9.9-4.54-.34-1.05.24-2.18,1.29-2.52,1.05-.34,2.18.24,2.52,1.29.19.58,1.72,1.7,6.15,1.77,4.33.06,9.77-.9,15.35-2.7,5.58-1.81,10.55-4.22,14.02-6.81,3.55-2.65,4.13-4.46,3.94-5.04-.34-1.05.24-2.18,1.29-2.52,1.05-.34,2.18.24,2.52,1.29.65,2.01.25,5.29-5.36,9.48-3.81,2.84-9.2,5.47-15.18,7.41-5.79,1.88-11.51,2.9-16.18,2.9Z"/>
      <path d="M133.36,92.47l-10.93.73c-.09,0-.18.03-.27.05-3.33.33-5.97,4.62-5.97,9.89s2.86,9.92,6.38,9.92,6.38-4.44,6.38-9.92c0-2.38-.54-4.56-1.43-6.26l6.12-.41c1.1-.07,1.94-1.03,1.86-2.13-.07-1.1-1.02-1.94-2.13-1.86Z"/>
      <path d="M157.71,92.47l-10.93.73c-.09,0-.18.03-.27.05-3.33.33-5.97,4.62-5.97,9.89s2.86,9.92,6.38,9.92,6.38-4.44,6.38-9.92c0-2.38-.54-4.56-1.43-6.26l6.12-.41c1.1-.07,1.94-1.03,1.86-2.13-.07-1.1-1.02-1.94-2.13-1.86Z"/>
    </g>
  </g>
</svg>