<?xml version="1.0" encoding="UTF-8"?>
<svg id="Layer_2" data-name="Layer 2" xmlns="http://www.w3.org/2000/svg" viewBox="0 0 234.99 247.96">
  <defs>
    <style>
      .cls-1 {
        fill: #ffba0a;
      }
    </style>
  </defs>
  <g id="Layer_1-2" data-name="Layer 1">
    <g>
      <path class="cls-1" d="M121.82,4.14c17.11-2.28,48.74,18.16,64.24,42.01,15.5,23.85,52.96,72.95,36.17,117.84-16.79,44.89-81.38,50.5-118.84,49.1s-60.71,2.81-71.04-19.64c-10.33-22.45-27.13-40.68-3.88-78.56,23.25-37.88,24.14-56.93,38.35-66.75,14.21-9.82,20.42-6.9,27.52-13.21,5.83-5.18,12.48-28.79,27.48-30.79Z"/>
      <g>
        <path d="M205.93,99.95c8.5,20.03,12.92,42.22,4.96,63.51-10.8,28.86-41.77,40.85-70.83,45.53-.36.06-.73.12-1.09.18-.13.83-.29,1.88-.47,3.09-1.16,7.82-3.08,22.03-1.99,23.84,1.55,2.57,7.83,2.47,10.68,1.85,1.29-.28,3.07-.9,5.13-1.63,4.18-1.47,9.39-3.3,13.45-3.3,2.28,0,3.59,1.35,4.29,2.48,1.68,2.74,1.65,7.04-.08,10.45-.15.3-.43.49-.72.49h-38.99c-.25,0-.47-.27-.47-.59v-35.49c-.5.05-1,.11-1.5.16-11.04,1.13-21.32,1.33-29.5,1.19-.51,0-1.01-.02-1.5-.03v34.17c0,.32-.21.59-.47.59h-38.99c-.29,0-.57-.19-.72-.49-1.73-3.41-1.76-7.71-.08-10.45.7-1.13,2.01-2.48,4.29-2.48,4.06,0,9.27,1.83,13.45,3.3,2.06.72,3.84,1.35,5.13,1.63,2.86.62,9.13.71,10.68-1.85,1-1.65-.52-13.64-1.67-21.66-.16-1.09-.31-2.1-.44-3.01-.51-.01-1.01-.02-1.52-.04-3.86-.09-7.57-.14-11.18-.19-27.31-.36-43.79-.57-51.99-18.38-1.53-3.33-3.22-6.59-4.85-9.75-9.52-18.41-18.5-35.8.89-67.4,3.14-5.12,5.87-9.88,8.28-14.32-.61-.96-1.22-1.94-1.83-2.93-2.58,4.82-5.53,10.03-9,15.68-20.28,33.04-10.48,52.01-1,70.35,1.62,3.13,3.29,6.36,4.79,9.62,8.99,19.53,27.17,19.77,54.68,20.13,3.77.05,7.63.1,11.66.2,1.45,10.14,2.47,19.77,1.91,20.92-.89,1.46-5.82,1.87-9.08,1.16-1.2-.26-2.93-.87-4.95-1.58-4.29-1.51-9.63-3.38-13.95-3.38-2.32,0-4.3,1.14-5.56,3.2-1.94,3.16-1.94,8.06.02,11.91.41.81,1.2,1.32,2.06,1.32h38.99c1.09,0,1.97-.94,1.97-2.09v-31.14c1.44.02,2.92.04,4.48.04,7.33,0,15.91-.3,25.02-1.23v32.33c0,1.15.88,2.09,1.97,2.09h38.99c.86,0,1.65-.5,2.06-1.32,1.95-3.86,1.96-8.75.02-11.91-1.27-2.06-3.24-3.2-5.56-3.2-4.32,0-9.66,1.87-13.95,3.38-2.01.71-3.75,1.32-4.95,1.58-3.27.71-8.2.3-9.08-1.15-.61-1.25.62-12.34,2.25-23.32,30.01-4.78,62.31-17.2,73.65-47.51,8.56-22.89,3.45-46.57-5.82-67.64-.65,1.04-1.3,2.07-1.95,3.08Z"/>
        <path d="M57.74,49.37c7.41-5.12,12.45-6.64,16.89-7.99,3.88-1.17,7.23-2.19,10.78-5.34,2.03-1.81,4.02-5.4,6.32-9.56,4.83-8.73,10.84-19.59,20.35-20.86,16.69-2.25,47.77,18.25,62.78,41.34,1.39,2.14,2.96,4.49,4.66,7.02.67,1.01,1.37,2.05,2.07,3.11.59-.89,1.17-1.82,1.75-2.78-.45-.67-.9-1.34-1.33-1.99-1.68-2.52-3.25-4.85-4.63-6.99C161.57,21,129.63.26,111.69,2.65c-11.01,1.47-17.7,13.56-22.58,22.38-2.17,3.92-4.04,7.3-5.69,8.77-3.05,2.71-5.97,3.59-9.66,4.71-4.42,1.34-9.92,3-17.72,8.39-2.6,1.79-4.76,3.87-6.69,6.28.52.98,1.06,1.93,1.6,2.86,1.96-2.63,4.14-4.85,6.79-6.68Z"/>
        <path d="M30.52,105.13c5.95,9.07,11.41,16.28,14.89,20.09l1.11-1.01c-3.95-4.32-9.61-11.9-15.57-21.11-.68-1.05-1.37-2.13-2.06-3.23-.27.5-.53.99-.8,1.49.04.06.08.13.12.19l2.31,3.58Z"/>
        <path d="M17.84,80.68C9.36,64.5-.3,41.83,1.79,25.68c.78-6.09,3.25-10.75,7.3-13.93-.31,3.15-.66,9.81,1.49,13.71l1.31-.72c-2.31-4.2-1.38-12.45-1.16-14.16,2.84-1.82,5.43-3.23,7.78-4.24-.36,2.87-.86,9.79,1.98,14.45l1.28-.78c-2.89-4.75-1.93-12.49-1.66-14.31,4.14-1.52,7.48-1.69,10.1-.5,6.03,2.73,7.49,12.56,8.77,21.23.43,2.93.84,5.71,1.41,8.19,1.39,6.1,4.38,13.36,7.95,19.9.33-.45.66-.89,1-1.32-3.31-6.15-6.14-12.97-7.49-18.92-.55-2.43-.96-5.17-1.39-8.07-1.34-9.05-2.86-19.31-9.63-22.37-4.93-2.23-11.86-.37-21.21,5.67C4.37,12.9,1.23,18.28.3,25.49c-2.58,20.01,12.04,50.4,25.96,72.94.27-.51.55-1.02.81-1.52-3.15-5.15-6.3-10.62-9.23-16.23Z"/>
        <path d="M52.27,61.07c4.4,6.62,9.09,11.4,12.53,11.44l.02-1.5c-2.84-.03-7.2-4.58-11.41-10.98l-1.63-2.57c-.28-.46-.55-.94-.82-1.41-.33.44-.65.89-.96,1.35.22.36.43.74.64,1.1.54.88,1.09,1.74,1.64,2.57Z"/>
        <path d="M177.97,62.09c-2.97,3.66-5.78,5.99-7.8,6.01l.02,1.5c2.44-.03,5.52-2.46,8.67-6.23.65-.77,1.29-1.6,1.94-2.48.57-.77,1.14-1.6,1.71-2.44-.31-.46-.61-.91-.91-1.36-.57.86-1.14,1.7-1.71,2.49l-1.91,2.5Z"/>
        <path d="M194.59,31.69c.56-2.48.97-5.25,1.41-8.19,1.28-8.67,2.74-18.5,8.77-21.23,2.62-1.19,5.97-1.02,10.1.5.28,1.82,1.23,9.57-1.66,14.31l1.28.78c2.84-4.66,2.34-11.58,1.98-14.45,2.35,1.01,4.94,2.42,7.78,4.25.22,1.71,1.15,9.96-1.16,14.16l1.31.72c2.14-3.9,1.8-10.56,1.49-13.71,4.05,3.17,6.51,7.84,7.3,13.93,2.08,16.15-7.58,38.83-16.05,55-3.18,6.06-6.59,11.99-9.99,17.48.24.54.49,1.08.73,1.63,14.17-22.66,29.44-53.89,26.81-74.3-.93-7.21-4.07-12.58-9.33-15.99-9.35-6.05-16.29-7.91-21.21-5.67-6.78,3.07-8.29,13.32-9.63,22.37-.43,2.9-.83,5.65-1.39,8.07-1.66,7.29-5.52,15.9-9.78,22.95.31.46.62.92.93,1.39,4.58-7.45,8.63-16.6,10.31-24.01Z"/>
        <path d="M197.67,109.58c-1.03,1.44-2.03,2.81-2.99,4.09-2.33,3.09-4.44,5.69-6.21,7.62l1.11,1.01c1.39-1.52,3.09-3.58,5.01-6.07l3.12-4.18c2.55-3.52,5.35-7.61,8.23-12.1-.23-.55-.47-1.09-.7-1.63-2.6,4.08-5.16,7.88-7.56,11.26Z"/>
        <path d="M49.99,57.4c.32-.46.64-.91.96-1.35-.55-.93-1.08-1.89-1.6-2.86-.34.43-.68.87-1,1.32.54.99,1.09,1.95,1.65,2.9Z"/>
        <path d="M182.51,58.46c.6-.89,1.19-1.8,1.77-2.75-.31-.47-.62-.93-.93-1.39-.58.96-1.16,1.89-1.75,2.78.3.45.6.91.91,1.36Z"/>
        <path d="M28.89,99.86c-.08-.12-.15-.24-.23-.37-.53-.85-1.06-1.72-1.59-2.59-.26.5-.54,1.01-.81,1.52.61.99,1.22,1.97,1.83,2.93.27-.5.54-1,.8-1.49Z"/>
        <path d="M205.23,98.32c.24.54.47,1.09.7,1.63.65-1.01,1.3-2.03,1.95-3.08-.24-.54-.48-1.09-.73-1.63-.64,1.04-1.29,2.06-1.93,3.07Z"/>
      </g>
      <path d="M170.99,95.17c-1.74-1.62-6.37-5.07-12.35-2.61-5.69,2.33-7.26,6.7-7.69,8.83-.12.57.21,1.11.67,1.23.03,0,.06.02.09.03.02,0,.04.02.06.02.03,0,.06-.01.1-.02.06,0,.12-.01.18-.03.01,0,.03-.01.04-.02.14-.05.27-.13.37-.26.71-.87,2.44-2.4,6.03-2.7,3.71-.31,5.79,1.73,6.64,2.83.28.37.74.45,1.09.19h.02c.46-.35.55-1.1.18-1.58-1.09-1.43-3.64-3.89-8.05-3.53-1.88.16-3.33.64-4.46,1.22.95-1.51,2.57-3.13,5.31-4.26,5.21-2.14,9.25.91,10.71,2.28.35.33.85.29,1.16-.09h0c.37-.45.32-1.17-.09-1.56Z"/>
      <path d="M118.56,95.17c1.74-1.62,6.37-5.07,12.35-2.61,5.69,2.33,7.26,6.7,7.69,8.83.12.57-.21,1.11-.67,1.23-.03,0-.06.02-.09.03-.02,0-.04.02-.06.02-.03,0-.06-.01-.1-.02-.06,0-.12-.01-.18-.03-.01,0-.03-.01-.04-.02-.14-.05-.27-.13-.37-.26-.71-.87-2.44-2.4-6.03-2.7-3.71-.31-5.79,1.73-6.64,2.83-.28.37-.74.45-1.09.19h-.02c-.46-.35-.55-1.1-.18-1.58,1.09-1.43,3.64-3.89,8.05-3.53,1.88.16,3.33.64,4.46,1.22-.95-1.51-2.57-3.13-5.31-4.26-5.21-2.14-9.25.91-10.71,2.28-.35.33-.85.29-1.16-.09h0c-.37-.45-.32-1.17.09-1.56Z"/>
      <ellipse cx="135.89" cy="141.85" rx="12.05" ry="16.34"/>
    </g>
  </g>
</svg>