<?xml version="1.0" encoding="UTF-8"?>
<svg id="Layer_2" data-name="Layer 2" xmlns="http://www.w3.org/2000/svg" viewBox="0 0 258.71 245.5">
  <defs>
    <style>
      .cls-1 {
        fill: #ffba0a;
      }
    </style>
  </defs>
  <g id="Layer_1-2" data-name="Layer 1">
    <g>
      <path class="cls-1" d="M137.51,1.67c17.11-2.28,48.74,18.16,64.24,42.01s52.96,72.95,36.17,117.84c-16.79,44.89-81.38,50.5-118.84,49.1-37.46-1.4-60.71,2.81-71.04-19.64-10.33-22.45-27.13-40.68-3.88-78.56,23.25-37.88,24.14-56.93,38.35-66.75,14.21-9.82,20.42-6.9,27.52-13.21,5.83-5.18,12.48-28.79,27.48-30.79Z"/>
      <path d="M258.49,138.79c-.76-5.51-3.3-9.84-5.42-12.04-.31-.32-.64-.7-1.02-1.14-2.71-3.15-7.57-8.76-21.07-9.9-6.34-25.6-22.16-49.24-33.27-65.85-1.68-2.52-3.25-4.85-4.63-6.99C177.26,18.53,145.32-2.2,127.39.19c-11.01,1.47-17.7,13.56-22.58,22.38-2.17,3.92-4.04,7.3-5.69,8.77-3.05,2.71-5.97,3.59-9.66,4.71-4.42,1.34-9.92,3-17.72,8.39-8.28,5.72-12.17,14.33-18.07,27.36-4.67,10.33-10.49,23.18-20.71,39.83-.81,1.32-1.56,2.62-2.28,3.89-15.76.52-21.11,6.71-24.01,10.07-.38.44-.71.82-1.02,1.14-2.13,2.21-4.67,6.53-5.42,12.04-.99,7.19,1.21,14.41,6.54,21.47,3.83,5.08,7.85,8.99,11.93,12.04,3.87,2.89,7.8,5.02,11.7,6.66.52,1.01,1.03,2.02,1.55,3.02,1.62,3.13,3.29,6.36,4.79,9.62,8.99,19.53,27.17,19.77,54.68,20.13,3.77.05,7.63.1,11.66.2,1.45,10.14,2.47,19.77,1.91,20.92-.89,1.46-5.82,1.87-9.08,1.16-1.2-.26-2.93-.87-4.95-1.58-4.29-1.51-9.63-3.38-13.95-3.38-2.32,0-4.3,1.14-5.56,3.2-1.94,3.16-1.94,8.06.02,11.91.41.81,1.2,1.32,2.06,1.32h38.99c1.09,0,1.97-.94,1.97-2.09v-31.14c1.44.02,2.92.04,4.48.04,7.33,0,15.91-.3,25.02-1.23v32.33c0,1.15.88,2.09,1.97,2.09h38.99c.86,0,1.65-.5,2.06-1.32,1.95-3.86,1.96-8.75.02-11.91-1.27-2.06-3.24-3.2-5.56-3.2-4.32,0-9.66,1.87-13.95,3.38-2.01.71-3.75,1.32-4.95,1.58-3.27.71-8.2.3-9.08-1.15-.61-1.25.62-12.34,2.25-23.32,21.91-3.49,45.03-11.06,60.33-26.69,7.66-1.87,15.93-4.58,23.93-10.56,4.09-3.05,8.1-6.96,11.93-12.04,5.32-7.06,7.52-14.28,6.54-21.47ZM250.95,159.51c-10.48,13.9-22.41,18.83-33.28,21.67-1.46.38-2.91.73-4.33,1.05-.38.09-.76.16-1.12.22-1.03.17-2,.25-2.89.23-3.33-7.28,9.92-16.2,10.06-16.29l-.69-1.04c-.58.38-13.61,9.16-10.75,17.23-3.03-.39-5.25-1.87-6.97-3.81-3.25-7.27,9.94-16.15,10.08-16.24l-.69-1.04c-.53.35-11.22,7.55-11.16,14.89-1.14-1.82-2.02-3.79-2.82-5.56-.17-.37-.33-.73-.48-1.08-3.63-7.95,5.29-15.77,9.29-18.76,7.34-5.49,25.36-14.37,25.54-14.46l-.55-1.12c-.18.09-18.31,9.02-25.74,14.58-8.97,6.7-12.49,14.09-9.67,20.27.16.34.32.7.48,1.07,1.13,2.53,2.52,5.62,4.66,8.11.05.1.1.2.15.29l.07-.04c2.38,2.65,5.67,4.53,10.52,4.19-14.58,12.91-35.18,19.46-54.91,22.64-.36.06-.73.12-1.09.18-.13.83-.29,1.88-.47,3.09-1.16,7.81-3.08,22.03-1.99,23.84,1.55,2.57,7.83,2.47,10.68,1.85,1.29-.28,3.07-.9,5.13-1.63,4.18-1.47,9.39-3.3,13.45-3.3,2.28,0,3.59,1.35,4.29,2.48,1.68,2.74,1.65,7.04-.08,10.45-.15.3-.43.49-.72.49h-38.99c-.25,0-.47-.27-.47-.59v-35.49c-.5.05-1,.11-1.5.16-11.04,1.13-21.32,1.33-29.5,1.19-.51,0-1.01-.02-1.5-.03v34.17c0,.32-.21.59-.47.59h-38.99c-.29,0-.57-.19-.72-.49-1.73-3.41-1.76-7.71-.08-10.45.7-1.13,2.01-2.48,4.29-2.48,4.06,0,9.27,1.83,13.45,3.3,2.06.72,3.84,1.35,5.13,1.63,2.86.62,9.13.71,10.68-1.85,1-1.65-.52-13.64-1.67-21.66-.16-1.09-.31-2.1-.44-3.01-.51-.01-1.01-.02-1.52-.04-3.86-.09-7.57-.14-11.18-.19-27.31-.36-43.79-.57-51.99-18.38-1.53-3.33-3.22-6.59-4.85-9.75,0-.02-.02-.04-.03-.05,3.59,1.23,7.12,2.12,10.5,2.9,6.52,1.48,10.65-.6,13.48-3.75l.07.04c.05-.1.1-.2.15-.29,2.14-2.49,3.53-5.58,4.66-8.11.16-.37.32-.72.48-1.07,2.82-6.18-.71-13.56-9.67-20.27-7.43-5.56-25.56-14.49-25.74-14.58l-.55,1.12c.18.09,18.2,8.97,25.54,14.46,4,2.99,12.91,10.81,9.29,18.76-.16.35-.32.71-.48,1.08-.79,1.77-1.67,3.74-2.82,5.56.06-7.34-10.64-14.55-11.16-14.89l-.69,1.04c.14.09,13.33,8.97,10.08,16.24-1.72,1.94-3.94,3.42-6.97,3.81,2.86-8.07-10.17-16.84-10.75-17.23l-.69,1.04c.13.09,13.39,9.01,10.06,16.29-1.22.02-2.55-.11-4.02-.45-3.73-.85-7.64-1.85-11.61-3.29-1.41-.51-2.83-1.09-4.25-1.73-7.4-3.34-14.89-8.6-21.75-17.7-13.86-18.38-1.34-31.77-1.21-31.9.33-.34.69-.76,1.06-1.19,2.73-3.17,7.72-8.94,22.36-9.61,1.1-.05,2.25-.07,3.46-.06.23-.41.47-.82.71-1.23.44-.76.89-1.53,1.37-2.31,10.32-16.81,16.18-29.76,20.89-40.17,5.69-12.58,9.45-20.89,17.04-26.13,7.41-5.12,12.45-6.64,16.89-7.99,3.88-1.17,7.23-2.19,10.78-5.34,2.03-1.81,4.02-5.4,6.32-9.56,4.83-8.73,10.84-19.59,20.35-20.86,16.69-2.25,47.77,18.25,62.78,41.34,1.39,2.14,2.96,4.49,4.66,7.02,10.84,16.2,26.24,39.22,32.61,64,.11.42.21.84.31,1.26,1.1.04,2.15.1,3.15.2,12.69,1.18,17.25,6.46,19.82,9.44.38.44.73.85,1.06,1.19.13.13,12.65,13.52-1.21,31.9Z"/>
      <path d="M144.43,156.57c-.15,0-.31,0-.46,0-7-.1-9.24-2.52-9.9-4.54-.34-1.05.24-2.18,1.29-2.52,1.05-.34,2.18.24,2.52,1.29.19.58,1.72,1.7,6.15,1.77,4.33.06,9.77-.9,15.35-2.7,5.58-1.81,10.55-4.22,14.02-6.81,3.55-2.65,4.13-4.46,3.94-5.04-.34-1.05.24-2.18,1.29-2.52,1.05-.34,2.18.24,2.52,1.29.65,2.01.25,5.29-5.36,9.48-3.81,2.84-9.2,5.47-15.18,7.41-5.79,1.88-11.51,2.9-16.18,2.9Z"/>
      <path d="M159.05,88.94l-10.93.73c-.09,0-.18.03-.27.05-3.33.33-5.97,4.62-5.97,9.89s2.86,9.92,6.38,9.92,6.38-4.44,6.38-9.92c0-2.38-.54-4.56-1.43-6.26l6.12-.41c1.1-.07,1.94-1.03,1.86-2.13-.07-1.1-1.02-1.94-2.13-1.86Z"/>
      <path d="M183.4,88.94l-10.93.73c-.09,0-.18.03-.27.05-3.33.33-5.97,4.62-5.97,9.89s2.86,9.92,6.38,9.92,6.38-4.44,6.38-9.92c0-2.38-.54-4.56-1.43-6.26l6.12-.41c1.1-.07,1.94-1.03,1.86-2.13-.07-1.1-1.02-1.94-2.13-1.86Z"/>
    </g>
  </g>
</svg>