<?xml version="1.0" encoding="UTF-8"?>
<svg id="Layer_2" data-name="Layer 2" xmlns="http://www.w3.org/2000/svg" viewBox="0 0 248.47 295.66">
  <defs>
    <style>
      .cls-1 {
        fill: #ffba0a;
      }
    </style>
  </defs>
  <g id="Layer_1-2" data-name="Layer 1">
    <g>
      <g>
        <path class="cls-1" d="M29.14,184.79c-.17,1.35-.73,5.51-.7,11.1.03,5.77.67,10.3.94,11.91,2.25,13.46,12.75,25.7,13.76,27.09,11.48,15.75,33,21.91,39.63,23.1,6.63,1.19,68.94,1.4,79.57,0,15.93-2.1,31.26-9.54,39.79-15.51,17.41-12.18,22.95-30.18,25.18-36.6,10.77-30.96.18-59.19-3.87-70-7.69-20.52-12.62-16.97-21-38-13.07-32.79-2.08-43.91-15.47-66.51-2.36-3.98-16.43-27.73-41.68-31.01-22.86-2.97-40.85,12.68-45.47,16.7-15.18,13.21-12.96,22.75-31.38,51.83-19.07,30.11-23.17,22.59-30,40-9.83,25.07-6.48,53.74-9.3,75.9Z"/>
        <path d="M245.57,176.84c-.24-.38-.48-.82-.76-1.33-2.28-4.11-6.59-11.88-24.23-15.38-1.97-9.93-4.91-17.79-6.63-22.4-3.96-10.57-7.31-15.01-10.55-19.31-3.14-4.17-6.39-8.49-10.46-18.71-6.32-15.85-6.93-26.58-7.48-36.04-.58-10.11-1.08-18.85-8.09-30.68-5.05-8.53-19.33-28.69-42.78-31.73-19.47-2.53-36.1,7.88-46.65,17.05-8.99,7.82-12,14.3-16.56,24.11-3.27,7.04-7.35,15.8-15.1,28.05-9.66,15.25-15.43,20.74-19.65,24.76-4.23,4.02-7.02,6.68-10.48,15.5-6.62,16.87-7.35,35.58-7.92,52.2-9.74,3.9-12.78,9.38-14.57,12.61-.28.51-.53.95-.76,1.33-1.63,2.6-3.23,7.35-2.84,12.9.51,7.24,4.14,13.86,10.79,19.68,2.41,2.11,4.81,3.92,7.19,5.47,2.07,7.11,6.26,14.71,12.53,22.65.22.28.38.48.47.6,10.88,14.92,31.3,22.02,40.58,23.69,2.14.39,10.58.68,21.26.84,1.41,9.93,2.38,19.22,1.83,20.35-.88,1.46-5.82,1.87-9.08,1.16-1.2-.26-2.93-.87-4.95-1.58-4.29-1.51-9.63-3.38-13.95-3.38-2.32,0-4.3,1.14-5.56,3.2-1.94,3.16-1.93,8.06.02,11.91.41.81,1.2,1.32,2.06,1.32h38.99c1.09,0,1.97-.94,1.97-2.09v-30.77c2.96.02,5.98.03,9,.03,7.17,0,14.29-.05,20.5-.17v30.91c0,1.15.88,2.09,1.97,2.09h38.99c.86,0,1.65-.5,2.06-1.32,1.95-3.85,1.96-8.75.02-11.91-1.27-2.06-3.24-3.2-5.56-3.2-4.32,0-9.66,1.87-13.95,3.38-2.01.71-3.75,1.32-4.95,1.57-3.27.71-8.2.3-9.08-1.15-.56-1.15.44-10.65,1.87-20.71,2.89-.13,5.16-.29,6.58-.48,16.29-2.15,31.97-9.83,40.45-15.76,10.06-7.04,16.23-15.92,20.11-23.51,3.67-.81,7.43-2.01,11.27-3.8,4.62-2.15,9.35-5.16,14.14-9.35,6.66-5.82,10.29-12.44,10.79-19.68.39-5.55-1.21-10.3-2.84-12.9ZM236.8,208.48c-8.21,7.18-16.25,10.8-23.87,12.64-1.27.31-2.52.56-3.76.78-4.82.84-9.46,1.06-13.83,1.14-1.5.03-2.84-.11-4.02-.38-1.77-7.81,13.03-13.83,13.18-13.89l-.46-1.15c-.65.26-15.2,6.18-14.05,14.66-2.88-1.01-4.75-2.91-6.04-5.16-1.69-7.78,13.04-13.78,13.19-13.84l-.46-1.15c-.59.23-12.53,5.1-13.97,12.29-.75-2.01-1.21-4.12-1.62-6.01-.09-.4-.17-.78-.25-1.15-1.92-8.52,8.4-14.35,12.93-16.46,6.66-3.1,20.47-6.93,25.8-8.36,1.32-.35,2.12-.56,2.16-.57l-.31-1.2s-.71.18-1.83.48c-5.08,1.35-19.46,5.31-26.35,8.52-10.15,4.73-15.11,11.24-13.62,17.86.08.37.17.75.25,1.14.59,2.71,1.31,6.02,2.9,8.89.03.11.05.21.08.32l.08-.02c2.13,3.67,5.74,6.55,12.43,6.43,4.14-.07,8.51-.28,13.06-.99-3.75,6.77-9.4,14.29-18.05,20.34-8.2,5.74-23.36,13.17-39.12,15.25-1.28.17-3.25.31-5.74.44-.49.02-1,.05-1.53.07-.14.91-.29,1.93-.44,3.01-1.15,8.02-2.62,19.78-1.63,21.41,1.55,2.57,7.83,2.47,10.68,1.85,1.29-.28,3.07-.9,5.13-1.63,4.18-1.47,9.39-3.3,13.46-3.3,2.28,0,3.59,1.35,4.29,2.49,1.68,2.74,1.65,7.04-.08,10.45-.15.3-.43.49-.72.49h-38.99c-.25,0-.47-.27-.47-.59v-33.92c-.49.01-.99.02-1.5.03-8.81.17-19.49.21-29.5.15-.5,0-1,0-1.5-.01v33.76c0,.32-.21.59-.47.59h-38.99c-.29,0-.57-.19-.72-.49-1.73-3.41-1.76-7.71-.08-10.45.7-1.13,2.01-2.49,4.29-2.49,4.06,0,9.27,1.83,13.45,3.3,2.06.72,3.84,1.35,5.13,1.63,2.85.62,9.13.72,10.68-1.85.98-1.61-.45-13.09-1.59-21.1-.15-1.07-.3-2.07-.43-2.98-.51,0-1.02-.01-1.52-.02-10.22-.16-18.23-.44-20.3-.81-8.87-1.59-28.37-8.35-38.68-22.51-.1-.14-.28-.37-.54-.69-5.09-6.45-8.75-12.63-10.94-18.45,1.01.55,2.01,1.06,3.01,1.53,10.04,4.68,19.57,5.36,28.11,5.51,6.68.12,10.3-2.76,12.43-6.43l.08.02c.03-.11.06-.21.08-.32,1.59-2.87,2.31-6.18,2.9-8.89.09-.39.17-.77.25-1.14,1.49-6.62-3.47-13.13-13.62-17.86-8.41-3.92-27.98-8.95-28.18-9l-.31,1.2c.2.05,19.65,5.05,27.96,8.93,4.53,2.11,14.85,7.94,12.93,16.46-.08.37-.17.76-.25,1.15-.41,1.9-.87,4-1.62,6.01-1.44-7.2-13.39-12.06-13.97-12.29l-.46,1.15c.15.06,14.88,6.06,13.19,13.84-1.29,2.25-3.16,4.15-6.04,5.16,1.15-8.48-13.4-14.41-14.05-14.66l-.46,1.15c.15.06,14.95,6.09,13.18,13.89-1.19.27-2.52.41-4.02.38-9.57-.17-20.41-1.02-31.77-7.57-1.26-.73-2.53-1.53-3.8-2.4-1.95-1.34-3.91-2.85-5.89-4.58-17.33-15.16-7.81-30.82-7.71-30.98.25-.4.52-.88.8-1.39,1.67-3.03,4.49-8.11,13.43-11.84.94-.39,1.96-.77,3.04-1.13.01-.44.03-.88.05-1.32.57-16.76,1.38-33.99,7.67-50.01,3.22-8.2,5.68-10.54,9.76-14.42,4.33-4.12,10.26-9.77,20.12-25.32,7.86-12.41,11.98-21.27,15.29-28.39,4.4-9.46,7.31-15.71,15.81-23.11,9.05-7.87,22.76-16.7,38.75-16.7,1.82,0,3.67.11,5.54.36,22.13,2.87,35.75,22.14,40.58,30.29,6.64,11.21,7.12,19.6,7.68,29.32.56,9.69,1.19,20.68,7.68,36.98,4.22,10.6,7.59,15.08,10.86,19.41,3.25,4.32,6.32,8.4,10.13,18.57,1.62,4.33,4.35,11.61,6.26,20.78.09.43.18.87.26,1.3,1.1.18,2.16.37,3.17.57,16.67,3.44,20.72,10.77,22.88,14.67.28.5.54.98.8,1.39.1.16,9.62,15.82-7.71,30.98Z"/>
      </g>
      <path d="M124.64,180.1c-.15,0-.31,0-.46,0-7-.1-9.24-2.52-9.9-4.54-.34-1.05.24-2.18,1.29-2.52,1.05-.34,2.18.24,2.52,1.29.19.58,1.72,1.7,6.15,1.77,4.33.06,9.77-.9,15.35-2.7,5.58-1.81,10.55-4.22,14.02-6.81,3.55-2.65,4.13-4.46,3.94-5.04-.34-1.05.24-2.18,1.29-2.52,1.05-.34,2.18.24,2.52,1.29.65,2.01.25,5.29-5.36,9.48-3.81,2.84-9.2,5.47-15.18,7.41-5.79,1.88-11.51,2.9-16.18,2.9Z"/>
      <path d="M139.26,112.47l-10.93.73c-.09,0-.18.03-.27.05-3.33.33-5.97,4.62-5.97,9.89s2.86,9.92,6.38,9.92,6.38-4.44,6.38-9.92c0-2.38-.54-4.56-1.43-6.26l6.12-.41c1.1-.07,1.94-1.03,1.86-2.13-.07-1.1-1.02-1.94-2.13-1.86Z"/>
      <path d="M163.61,112.47l-10.93.73c-.09,0-.18.03-.27.05-3.33.33-5.97,4.62-5.97,9.89s2.86,9.92,6.38,9.92,6.38-4.44,6.38-9.92c0-2.38-.54-4.56-1.43-6.26l6.12-.41c1.1-.07,1.94-1.03,1.86-2.13-.07-1.1-1.02-1.94-2.13-1.86Z"/>
    </g>
  </g>
</svg>