<?xml version="1.0" encoding="UTF-8"?>
<svg id="Layer_2" data-name="Layer 2" xmlns="http://www.w3.org/2000/svg" viewBox="0 0 221.1 245.5">
  <defs>
    <style>
      .cls-1 {
        fill: #ffba0a;
      }
    </style>
  </defs>
  <g id="Layer_1-2" data-name="Layer 1">
    <g>
      <path class="cls-1" d="M116.46,1.67c17.11-2.28,48.74,18.16,64.24,42.01,15.5,23.85,52.96,72.95,36.17,117.84-16.79,44.89-81.38,50.5-118.84,49.1s-60.71,2.81-71.04-19.64c-10.33-22.45-27.13-40.68-3.88-78.56,23.25-37.88,24.14-56.93,38.35-66.75,14.21-9.82,20.42-6.9,27.52-13.21,5.83-5.18,12.48-28.79,27.48-30.79Z"/>
      <path d="M176.65,49.85c-1.68-2.52-3.25-4.85-4.63-6.99C156.2,18.53,124.26-2.2,106.33.19c-11.01,1.47-17.7,13.56-22.58,22.38-2.17,3.92-4.04,7.3-5.69,8.77-3.05,2.71-5.97,3.59-9.66,4.71-4.42,1.34-9.92,3-17.72,8.39-8.28,5.72-12.17,14.33-18.07,27.36-4.67,10.33-10.49,23.18-20.71,39.83-20.28,33.04-10.48,52.01-1,70.35,1.62,3.13,3.29,6.36,4.79,9.62,8.99,19.53,27.17,19.77,54.68,20.13,3.77.05,7.63.1,11.67.2,1.45,10.14,2.47,19.77,1.91,20.92-.89,1.46-5.82,1.87-9.08,1.16-1.2-.26-2.93-.87-4.95-1.58-4.29-1.51-9.63-3.38-13.95-3.38-2.32,0-4.3,1.14-5.56,3.2-1.94,3.16-1.94,8.06.02,11.91.41.81,1.2,1.32,2.06,1.32h38.99c1.09,0,1.97-.94,1.97-2.09v-31.14c1.44.02,2.92.04,4.48.04,7.33,0,15.91-.3,25.02-1.23v32.33c0,1.15.88,2.09,1.97,2.09h38.99c.86,0,1.65-.5,2.06-1.32,1.95-3.86,1.96-8.75.02-11.91-1.27-2.06-3.24-3.2-5.56-3.2-4.32,0-9.66,1.87-13.95,3.38-2.01.71-3.75,1.32-4.95,1.58-3.27.71-8.2.3-9.08-1.15-.61-1.25.62-12.34,2.25-23.32,1.38-.22,2.76-.46,4.15-.71.93-.17,1.87-.35,2.8-.53,27.9-5.55,56.23-18.28,66.7-46.26,15.56-41.59-14.02-85.79-31.68-112.19ZM133.6,206.71c-.13.83-.29,1.88-.47,3.09-1.16,7.82-3.08,22.03-1.99,23.84,1.55,2.57,7.83,2.47,10.68,1.85,1.29-.28,3.07-.9,5.13-1.63,4.18-1.47,9.39-3.3,13.45-3.3,2.28,0,3.59,1.35,4.29,2.48,1.68,2.74,1.65,7.04-.08,10.45-.15.3-.43.49-.72.49h-38.99c-.25,0-.47-.27-.47-.59v-35.49c-.5.05-1,.11-1.5.16-11.04,1.13-21.32,1.33-29.5,1.19-.51,0-1.01-.02-1.5-.03v34.17c0,.32-.21.59-.47.59h-38.99c-.29,0-.57-.19-.72-.49-1.73-3.41-1.76-7.71-.08-10.45.7-1.13,2.01-2.48,4.29-2.48,4.06,0,9.27,1.83,13.45,3.3,2.06.72,3.84,1.35,5.13,1.63,2.86.62,9.13.71,10.68-1.85,1-1.65-.52-13.64-1.67-21.66-.16-1.09-.31-2.1-.44-3.01-.51-.01-1.01-.02-1.52-.04-3.86-.09-7.57-.14-11.18-.19-2.42-.03-4.76-.06-7.01-.1,6.18-2,13.16-5.92,20.92-10.29,7.29-4.11,15.34-8.63,23.99-12.21.61.55,1.22,1.09,1.83,1.64,7.87,7.07,15.91,14.28,24.13,18.84-.22.04-.44.07-.65.11ZM205.52,161c-10.55,28.2-40.37,40.28-68.83,45.2-8.65-4.37-17.2-12.04-25.57-19.54-.43-.38-.86-.77-1.29-1.15,11.55-4.59,24.16-7.4,37.51-5.25,20.29,3.28,25.25-4.12,26.41-8.82,2.15-8.77-5.6-21.02-15.36-24.27-7.35-2.45-21.23-1.64-38.71,1.76-21.17-10.9-38.5-18.72-52.69-12.7-7.48,3.17-12.03,9.34-11.31,15.34.61,5.14,5.01,9.22,12.32,11.66-8.26,2.85-16.67,5.99-25.07,9.41l.56,1.39c9.01-3.66,18.09-7.03,27.01-10.05.91-.31,1.81-.6,2.71-.91,37.72-12.52,72.02-18.7,84.7-14.47,8.94,2.98,16.33,14.54,14.38,22.49-1.78,7.25-10.55,9.98-24.71,7.7-13.96-2.25-27.06.77-39,5.61-.52.21-1.03.42-1.54.64-8.46,3.57-16.32,8-23.47,12.02-10.32,5.81-19.24,10.83-26.5,11.43-19.48-.7-31.89-3.41-38.66-18.11-1.53-3.33-3.22-6.59-4.85-9.75-9.52-18.41-18.5-35.8.89-67.4,10.32-16.81,16.18-29.76,20.89-40.17,5.69-12.58,9.45-20.89,17.04-26.13,7.41-5.12,12.45-6.64,16.89-7.99,3.88-1.17,7.23-2.19,10.78-5.34,2.03-1.81,4.02-5.4,6.32-9.56,4.83-8.73,10.84-19.59,20.35-20.86,16.69-2.25,47.77,18.25,62.78,41.34,1.39,2.14,2.96,4.49,4.66,7.02,17.35,25.93,46.38,69.33,31.37,109.48ZM57.24,148.92c.3-1.95,1.22-3.89,2.64-5.66,1.79-.24,11.41-1.27,18.52,2.95l.77-1.29c-6.27-3.72-14.07-3.63-17.75-3.33,1.67-1.59,3.76-2.97,6.16-3.99,13.22-5.61,29.69,1.53,49.74,11.79-13.97,2.85-30.07,7.28-46.9,12.99-7.89-2.16-12.65-6.04-13.24-11.01-.04-.31-.06-.63-.06-.95,7.66.23,16.2,3.84,16.29,3.88l.59-1.38c-.37-.16-8.84-3.74-16.76-4Z"/>
      <path d="M119.51,131.09h0c.85,0,1.58.65,1.63,1.51.47,7.25,4.3,13.12,8.77,13.12s8.3-5.87,8.77-13.12c.06-.85.78-1.51,1.63-1.51h0c.96,0,1.7.82,1.64,1.78-.58,9.18-5.67,16.14-12.05,16.14s-11.46-6.96-12.05-16.14c-.06-.96.68-1.78,1.64-1.78Z"/>
      <ellipse cx="124.95" cy="100.7" rx="7.09" ry="11.02"/>
      <path d="M163.37,96.68c-1.74-1.62-6.37-5.07-12.35-2.61-5.69,2.33-7.26,6.7-7.69,8.83-.12.57.21,1.11.67,1.23.03,0,.06.02.09.03.02,0,.04.02.06.02.03,0,.06-.01.1-.02.06,0,.12-.01.18-.03.01,0,.03-.01.04-.02.14-.05.27-.13.37-.26.71-.87,2.44-2.4,6.03-2.7,3.71-.31,5.79,1.73,6.64,2.83.28.37.74.45,1.09.19h.02c.46-.35.55-1.1.18-1.58-1.09-1.43-3.64-3.89-8.05-3.53-1.88.16-3.33.64-4.46,1.22.95-1.51,2.57-3.13,5.31-4.26,5.21-2.14,9.25.91,10.71,2.28.35.33.85.29,1.16-.09h0c.37-.45.32-1.17-.09-1.56Z"/>
    </g>
  </g>
</svg>