<?xml version="1.0" encoding="UTF-8"?>
<svg id="Layer_2" data-name="Layer 2" xmlns="http://www.w3.org/2000/svg" viewBox="0 0 222.95 295.66">
  <defs>
    <style>
      .cls-1 {
        fill: #ffba0a;
      }
    </style>
  </defs>
  <g id="Layer_1-2" data-name="Layer 1">
    <g>
      <g>
        <path class="cls-1" d="M20.09,184.79c-.17,1.35-.73,5.51-.7,11.1.03,5.77.67,10.3.94,11.91,2.25,13.46,12.75,25.7,13.76,27.09,11.48,15.75,33,21.91,39.63,23.1,6.63,1.19,68.94,1.4,79.57,0,15.93-2.1,31.26-9.54,39.79-15.51,17.41-12.18,22.95-30.18,25.18-36.6,10.77-30.96.18-59.19-3.87-70-7.69-20.52-12.62-16.97-21-38-13.07-32.79-2.08-43.91-15.47-66.51-2.36-3.98-16.43-27.73-41.68-31.01-22.86-2.97-40.85,12.68-45.47,16.7-15.18,13.21-12.96,22.75-31.38,51.83-19.07,30.11-23.17,22.59-30,40-9.83,25.07-6.48,53.74-9.3,75.9Z"/>
        <path d="M204.89,137.73c-3.96-10.57-7.31-15.01-10.55-19.31-3.14-4.17-6.39-8.49-10.46-18.71-6.32-15.85-6.93-26.58-7.48-36.04-.58-10.11-1.08-18.85-8.09-30.68-5.05-8.53-19.33-28.69-42.78-31.73-19.47-2.53-36.1,7.88-46.65,17.05-8.99,7.82-12,14.3-16.56,24.11-3.27,7.04-7.35,15.8-15.1,28.05-9.66,15.25-15.43,20.74-19.65,24.76-4.23,4.02-7.02,6.68-10.48,15.5-6.74,17.17-7.38,36.26-7.95,53.1-.28,8.24-.54,16.03-1.45,23.16l-.02.13c-.03.2-.06.44-.09.73-6.68,7.39-7.1,13.42-7.35,17.01-.04.58-.07,1.08-.13,1.52-.38,3.04.17,8.02,2.87,12.89,2.89,5.22,7.53,9.16,13.8,11.77,1.42,2.15,2.99,4.32,4.73,6.52.22.28.38.48.47.6,10.88,14.92,31.3,22.02,40.58,23.69,2.14.39,10.58.68,21.26.84,1.41,9.93,2.38,19.22,1.83,20.35-.88,1.46-5.82,1.87-9.08,1.16-1.2-.26-2.93-.87-4.95-1.58-4.29-1.51-9.63-3.38-13.95-3.38-2.32,0-4.3,1.14-5.56,3.2-1.94,3.16-1.93,8.06.02,11.91.41.81,1.2,1.32,2.06,1.32h38.99c1.09,0,1.97-.94,1.97-2.09v-30.77c2.96.02,5.98.03,9,.03,7.17,0,14.29-.05,20.5-.17v30.91c0,1.15.88,2.09,1.97,2.09h38.99c.86,0,1.65-.5,2.06-1.32,1.95-3.85,1.96-8.75.02-11.91-1.27-2.06-3.24-3.2-5.56-3.2-4.32,0-9.66,1.87-13.95,3.38-2.01.71-3.75,1.32-4.95,1.57-3.27.71-8.2.3-9.08-1.15-.56-1.15.44-10.65,1.87-20.71,2.89-.13,5.16-.29,6.58-.48,16.29-2.15,31.97-9.83,40.45-15.76,3.63-2.54,6.74-5.31,9.43-8.18.19,0,.39,0,.58,0,6.37,0,10.84-1.23,13.84-3.76,6.05-5.1,5.3-15.14,3.01-28.91,9.01-30.08-1.1-57.1-5.01-67.51ZM205.85,233.3c-2.63,2.22-6.61,3.32-12.27,3.39-1.25.01-2.58-.02-4-.11-1.14-.07-2.34-.17-3.59-.31-21.01-2.29-23.76-10.97-22.92-21.92,6.81-2.75,18.75-.78,18.88-.76l.29-1.19c-.5-.08-11.74-1.94-19.05.57.21-2.12.53-4.31.86-6.55.05-.32.09-.65.14-.97,6.8-2.11,17.68-.75,17.79-.74l.22-1.2c-.45-.06-10.68-1.33-17.82.6.13-.9.25-1.8.36-2.71.69-5.75,6.36-10.04,13.36-12.3.46-.15.93-.29,1.4-.42,3.02-.84,6.24-1.31,9.37-1.37.22,0,.44,0,.66,0,1.12,0,2.26.06,3.39.18,1.21.13,2.4.32,3.56.6,5.23,1.24,9.67,4.1,10.59,9.32l.1.56c.22,1.25.44,2.47.65,3.67.41,2.34.78,4.57,1.11,6.7,1.84,11.93,2.12,20.61-3.07,24.98ZM177.83,181.02c-.07-.29-.17-.61-.27-.94-.55-1.82-1.23-4.09.26-5.75,1.33-1.48,4.29-2.3,8.78-2.45,3.6-.11,6.1.51,7.63,1.93,2.81,2.6,1.94,7.52,1.16,11.85-.05.31-.1.6-.16.9-2.11-.37-4.29-.51-6.41-.47-3.2.06-6.48.54-9.57,1.39-.35-1.77-.92-4.49-1.42-6.45ZM208.6,197.78l-.1-.56c-1.04-5.88-6.02-9.04-11.84-10.36.06-.34.11-.66.17-1.01.82-4.6,1.75-9.82-1.52-12.85-1.84-1.7-4.71-2.47-8.78-2.33-5.03.17-8.26,1.13-9.9,2.94-1.91,2.12-1.1,4.81-.51,6.77.1.32.19.62.26.9.52,2.02,1.11,4.86,1.45,6.61-7.6,2.4-13.82,7.08-14.58,13.4-.2,1.67-.44,3.34-.69,5-2.11,14.52-4.11,28.23,23.21,31.2.91.1,1.79.18,2.65.24-2.12,2.06-4.48,4.05-7.12,5.91-8.2,5.74-23.36,13.17-39.12,15.25-1.28.17-3.25.31-5.74.44-.49.02-1,.05-1.53.07-.14.91-.29,1.93-.44,3.01-1.15,8.02-2.62,19.78-1.63,21.41,1.55,2.57,7.83,2.47,10.68,1.85,1.29-.28,3.07-.9,5.13-1.63,4.18-1.47,9.39-3.3,13.46-3.3,2.28,0,3.59,1.35,4.29,2.49,1.68,2.74,1.65,7.04-.08,10.45-.15.3-.43.49-.72.49h-38.99c-.25,0-.47-.27-.47-.59v-33.92c-.49.01-.99.02-1.5.03-8.81.17-19.49.21-29.5.15-.5,0-1,0-1.5-.01v33.76c0,.32-.21.59-.47.59h-38.99c-.29,0-.57-.19-.72-.49-1.73-3.41-1.76-7.71-.08-10.45.7-1.13,2.01-2.49,4.29-2.49,4.06,0,9.27,1.83,13.45,3.3,2.06.72,3.84,1.35,5.13,1.63,2.85.62,9.13.72,10.68-1.85.98-1.61-.45-13.09-1.59-21.1-.15-1.07-.3-2.07-.43-2.98-.51,0-1.02-.01-1.52-.02-10.22-.16-18.23-.44-20.3-.81-8.87-1.59-28.37-8.35-38.68-22.51-.1-.14-.28-.37-.54-.69-.8-1.02-1.56-2.02-2.29-3.02,5.91,1.67,11.31,2.36,16.27,2.36,11.07,0,20-3.41,27.81-6.88,6.11-2.72,8.17-6.85,8.55-11.08h.08c-.02-.12-.04-.23-.06-.34.23-3.28-.52-6.58-1.12-9.29-.09-.39-.17-.77-.25-1.14-1.44-6.63-8.69-10.44-19.89-10.44-9.28,0-29.14,3.7-29.34,3.74l.23,1.22c.2-.04,19.95-3.72,29.11-3.72,4.99,0,16.81.92,18.67,9.46.08.37.17.76.26,1.15.43,1.89.9,4,1.07,6.14-4.35-5.91-17.23-5.28-17.86-5.24l.07,1.24c.16,0,16.05-.79,17.8,6.97-.22,2.59-1.11,5.1-3.29,7.23-2.54-8.17-18.23-7.4-18.93-7.36l.07,1.24c.16,0,16.12-.8,17.81,7.03-.96.75-2.11,1.44-3.49,2.05-11.21,4.98-24.75,9.83-43.73,4.32-.35-.1-.68-.22-1.02-.33-1.77-.56-3.38-1.2-4.84-1.9-15.86-7.62-14.23-22.43-14.21-22.6.06-.47.1-1.02.14-1.59.22-3.2.59-8.43,5.87-14.9.97-1.19,2.11-2.42,3.44-3.69.07-.63.15-1.26.22-1.89.66-6.44.9-13.31,1.14-20.53.59-17.41,1.19-35.41,7.74-52.1,3.22-8.2,5.68-10.54,9.76-14.42,4.33-4.12,10.26-9.77,20.12-25.32,7.86-12.41,11.98-21.27,15.29-28.39,4.4-9.46,7.31-15.71,15.81-23.11,9.05-7.87,22.76-16.7,38.75-16.7,1.82,0,3.67.11,5.54.36,22.13,2.87,35.75,22.14,40.58,30.29,6.64,11.21,7.12,19.6,7.68,29.32.56,9.69,1.19,20.68,7.68,36.98,4.22,10.6,7.59,15.08,10.86,19.41,3.25,4.32,6.32,8.4,10.13,18.57,3.53,9.4,12.24,32.71,6.57,59.24-.02-.09-.03-.17-.04-.25Z"/>
      </g>
      <path d="M112.42,160.77h0c.85,0,1.58.65,1.63,1.51.47,7.25,4.3,13.12,8.77,13.12s8.3-5.87,8.77-13.12c.06-.85.78-1.51,1.63-1.51h0c.96,0,1.7.82,1.64,1.78-.58,9.18-5.67,16.14-12.05,16.14s-11.46-6.96-12.05-16.14c-.06-.96.68-1.78,1.64-1.78Z"/>
      <path d="M151.46,123.66h0c-.52,0-.96-.4-.99-.92-.29-4.42-2.62-8-5.35-8s-5.06,3.58-5.35,8c-.03.52-.47.92-.99.92h0c-.58,0-1.04-.5-1-1.08.36-5.6,3.45-9.84,7.34-9.84s6.99,4.24,7.34,9.84c.04.58-.42,1.08-1,1.08Z"/>
      <path d="M124.46,123.66h0c-.52,0-.96-.4-.99-.92-.29-4.42-2.62-8-5.35-8s-5.06,3.58-5.35,8c-.03.52-.47.92-.99.92h0c-.58,0-1.04-.5-1-1.08.36-5.6,3.45-9.84,7.34-9.84s6.99,4.24,7.34,9.84c.04.58-.42,1.08-1,1.08Z"/>
    </g>
  </g>
</svg>