<?xml version="1.0" encoding="UTF-8"?>
<svg id="Layer_2" data-name="Layer 2" xmlns="http://www.w3.org/2000/svg" viewBox="0 0 228.18 245.5">
  <defs>
    <style>
      .cls-1 {
        fill: #ffba0a;
      }
    </style>
  </defs>
  <g id="Layer_1-2" data-name="Layer 1">
    <g>
      <g>
        <path class="cls-1" d="M123.53,1.67c17.11-2.28,48.74,18.16,64.24,42.01,15.5,23.85,52.96,72.95,36.17,117.84-16.79,44.89-81.38,50.5-118.84,49.1-37.46-1.4-60.71,2.81-71.04-19.64-10.33-22.45-27.13-40.68-3.88-78.56,23.25-37.88,24.14-56.93,38.35-66.75,14.21-9.82,20.42-6.9,27.52-13.21,5.83-5.18,12.48-28.79,27.48-30.79Z"/>
        <path d="M183.73,49.85c-1.68-2.52-3.25-4.85-4.63-6.99C163.28,18.53,131.34-2.2,113.4.19c-11.01,1.47-17.7,13.56-22.58,22.38-2.17,3.92-4.04,7.3-5.69,8.77-3.05,2.71-5.97,3.59-9.66,4.71-4.42,1.34-9.92,3-17.72,8.39-8.28,5.72-12.17,14.33-18.07,27.36-4.67,10.33-10.49,23.18-20.71,39.83-7.82,12.74-11.16,23.39-11.77,32.72-6.3,7.19-6.72,13.05-6.96,16.56-.04.58-.07,1.08-.13,1.52-.38,3.04.17,8.02,2.87,12.89,3.51,6.34,9.6,10.81,18.09,13.28.1.03.2.05.3.08.47.97.94,1.94,1.39,2.91,8.99,19.53,27.17,19.77,54.68,20.13,3.77.05,7.63.1,11.66.2,1.45,10.14,2.47,19.77,1.91,20.92-.89,1.46-5.82,1.87-9.08,1.16-1.2-.26-2.93-.87-4.95-1.58-4.29-1.51-9.63-3.38-13.95-3.38-2.32,0-4.3,1.14-5.56,3.2-1.94,3.16-1.94,8.06.02,11.91.41.81,1.2,1.32,2.06,1.32h38.99c1.09,0,1.97-.94,1.97-2.09v-31.14c1.44.02,2.92.04,4.48.04,7.33,0,15.91-.3,25.02-1.23v32.33c0,1.15.88,2.09,1.97,2.09h38.99c.86,0,1.65-.5,2.06-1.32,1.95-3.86,1.96-8.75.02-11.91-1.27-2.06-3.24-3.2-5.56-3.2-4.32,0-9.66,1.87-13.95,3.38-2.01.71-3.75,1.32-4.95,1.58-3.27.71-8.2.3-9.08-1.15-.61-1.25.62-12.34,2.25-23.32,22.04-3.51,45.3-11.15,60.6-26.96,5.58-.18,9.6-1.4,12.36-3.72,5.65-4.76,5.37-13.82,3.44-26.21,8.43-38.73-18.1-78.38-34.44-102.81ZM213.68,178.02c-2.28,1.92-5.58,3.01-10.11,3.31-1.3.08-2.7.1-4.21.06-1.71-.05-3.55-.18-5.54-.4-21.01-2.29-23.76-10.97-22.92-21.92,6.81-2.75,18.75-.78,18.88-.76l.29-1.19c-.5-.08-11.74-1.94-19.05.57.21-2.12.53-4.31.86-6.55.05-.32.09-.65.14-.97,6.8-2.11,17.68-.75,17.79-.74l.22-1.2c-.45-.06-10.68-1.33-17.82.6.13-.9.25-1.8.36-2.71.69-5.75,6.36-10.04,13.36-12.3.46-.15.93-.29,1.4-.42,3.02-.84,6.24-1.31,9.37-1.37.22,0,.44,0,.66,0,1.12,0,2.26.06,3.39.18,1.21.13,2.4.32,3.56.6,5.23,1.25,9.67,4.1,10.59,9.32l.1.56c.34,1.89.66,3.72.96,5.5.5,2.92.94,5.68,1.29,8.26,1.35,10.18,1.12,17.64-3.56,21.59ZM185.66,125.74c-.07-.29-.17-.61-.27-.94-.55-1.82-1.23-4.09.26-5.75,1.33-1.48,4.29-2.3,8.78-2.45,3.6-.11,6.1.51,7.63,1.93,2.81,2.6,1.94,7.52,1.16,11.85-.05.31-.1.6-.16.9-2.11-.37-4.29-.51-6.41-.47-3.2.06-6.48.54-9.57,1.39-.35-1.77-.92-4.49-1.42-6.45ZM10.52,140.97c1.15-8.02,4.45-17.08,11.01-27.76,10.32-16.81,16.18-29.76,20.89-40.17,5.69-12.58,9.45-20.89,17.04-26.13,7.41-5.12,12.45-6.64,16.89-7.99,3.88-1.17,7.23-2.19,10.78-5.34,2.03-1.81,4.02-5.4,6.32-9.56,4.83-8.73,10.84-19.59,20.35-20.86,16.69-2.25,47.77,18.25,62.78,41.34,1.39,2.14,2.96,4.49,4.66,7.02,14.79,22.11,38.07,56.91,35.31,91.57-.04-.2-.07-.39-.1-.59l-.1-.56c-1.04-5.88-6.02-9.04-11.84-10.36.06-.34.11-.66.17-1.01.82-4.6,1.75-9.82-1.52-12.85-1.84-1.7-4.71-2.47-8.78-2.33-5.03.17-8.26,1.13-9.9,2.94-1.91,2.12-1.1,4.81-.51,6.77.1.32.19.62.26.9.52,2.02,1.11,4.86,1.45,6.61-7.6,2.4-13.82,7.08-14.58,13.4-.2,1.67-.44,3.34-.69,5-2.11,14.52-4.11,28.23,23.21,31.2,1.59.17,3.09.29,4.51.36-14.64,13.79-35.97,20.69-56.37,23.98-.36.06-.73.12-1.09.18-.13.83-.29,1.88-.47,3.09-1.16,7.82-3.08,22.03-1.99,23.84,1.55,2.57,7.83,2.47,10.68,1.85,1.29-.28,3.07-.9,5.13-1.63,4.18-1.47,9.39-3.3,13.45-3.3,2.28,0,3.59,1.35,4.29,2.48,1.68,2.74,1.65,7.04-.08,10.45-.15.3-.43.49-.72.49h-38.99c-.25,0-.47-.27-.47-.59v-35.49c-.5.05-1,.11-1.5.16-11.04,1.13-21.32,1.33-29.5,1.19-.51,0-1.01-.02-1.5-.03v34.17c0,.32-.21.59-.47.59h-38.99c-.29,0-.57-.19-.72-.49-1.73-3.41-1.76-7.71-.08-10.45.7-1.13,2.01-2.48,4.29-2.48,4.06,0,9.27,1.83,13.45,3.3,2.06.72,3.84,1.35,5.13,1.63,2.86.62,9.13.71,10.68-1.85,1-1.65-.52-13.64-1.67-21.66-.16-1.09-.31-2.1-.44-3.01-.51-.01-1.01-.02-1.52-.04-3.86-.09-7.57-.14-11.18-.19-27.31-.36-43.79-.57-51.99-18.38-.11-.23-.22-.46-.33-.7,4.53,1.01,8.74,1.45,12.68,1.45,11.07,0,20-3.41,27.81-6.88,6.11-2.72,8.17-6.85,8.55-11.08h.08c-.02-.12-.04-.23-.06-.34.23-3.27-.52-6.58-1.12-9.29-.09-.39-.17-.77-.25-1.14-1.44-6.63-8.69-10.44-19.89-10.44-9.28,0-29.14,3.7-29.34,3.74l.23,1.22c.2-.04,19.95-3.72,29.11-3.72,4.99,0,16.81.92,18.67,9.46.08.37.17.76.26,1.15.43,1.89.9,4,1.07,6.14-4.35-5.91-17.23-5.28-17.86-5.24l.07,1.24c.16,0,16.05-.79,17.8,6.97-.22,2.58-1.11,5.1-3.29,7.23-2.54-8.17-18.23-7.4-18.93-7.36l.07,1.24c.16,0,16.12-.8,17.81,7.03-.96.75-2.11,1.44-3.49,2.05-10.59,4.71-23.28,9.3-40.67,5.13-1.01-.24-2.02-.51-3.06-.81-.28-.08-.53-.17-.8-.25C-.63,180.54,1.32,162.78,1.34,162.6c.06-.47.1-1.02.14-1.59.22-3.15.58-8.27,5.62-14.59.9-1.13,1.96-2.3,3.18-3.51l.23-1.94Z"/>
      </g>
      <path d="M127.24,137.81h0c.85,0,1.58.65,1.63,1.51.47,7.25,4.3,13.12,8.77,13.12s8.3-5.87,8.77-13.12c.06-.85.78-1.51,1.63-1.51h0c.96,0,1.7.82,1.64,1.78-.58,9.18-5.67,16.14-12.05,16.14s-11.46-6.96-12.05-16.14c-.06-.96.68-1.78,1.64-1.78Z"/>
      <path d="M166.28,100.7h0c-.52,0-.96-.4-.99-.92-.29-4.42-2.62-8-5.35-8s-5.06,3.58-5.35,8c-.03.52-.47.92-.99.92h0c-.58,0-1.04-.5-1-1.08.36-5.6,3.45-9.84,7.34-9.84s6.99,4.24,7.34,9.84c.04.58-.42,1.08-1,1.08Z"/>
      <path d="M139.28,100.7h0c-.52,0-.96-.4-.99-.92-.29-4.42-2.62-8-5.35-8s-5.06,3.58-5.35,8c-.03.52-.47.92-.99.92h0c-.58,0-1.04-.5-1-1.08.36-5.6,3.45-9.84,7.34-9.84s6.99,4.24,7.34,9.84c.04.58-.42,1.08-1,1.08Z"/>
    </g>
  </g>
</svg>