<svg width="402" height="313" viewBox="0 0 402 313" fill="none" xmlns="http://www.w3.org/2000/svg">
<g clip-path="url(#clip0_12_2)">
<path d="M72 0H-40C-48.2843 0 -55 6.71573 -55 15V39C-55 47.2843 -48.2843 54 -40 54H72C80.2843 54 87 47.2843 87 39V15C87 6.71573 80.2843 0 72 0Z" fill="#FFDF8E"/>
<path d="M119 62H7C-1.28427 62 -8 68.7157 -8 77V101C-8 109.284 -1.28427 116 7 116H119C127.284 116 134 109.284 134 101V77C134 68.7157 127.284 62 119 62Z" fill="#FFDF8E"/>
<path d="M355 42H243C234.716 42 228 48.7157 228 57V81C228 89.2843 234.716 96 243 96H355C363.284 96 370 89.2843 370 81V57C370 48.7157 363.284 42 355 42Z" fill="#FFDF8E"/>
<path d="M278 107H166C157.716 107 151 113.716 151 122V146C151 154.284 157.716 161 166 161H278C286.284 161 293 154.284 293 146V122C293 113.716 286.284 107 278 107Z" fill="#FFDF8E"/>
<path d="M157 185H45C36.7157 185 30 191.716 30 200V224C30 232.284 36.7157 239 45 239H157C165.284 239 172 232.284 172 224V200C172 191.716 165.284 185 157 185Z" fill="#FFDF8E"/>
<path d="M431 107H319C310.716 107 304 113.716 304 122V146C304 154.284 310.716 161 319 161H431C439.284 161 446 154.284 446 146V122C446 113.716 439.284 107 431 107Z" fill="#FFDF8E"/>
<path d="M422 259H310C301.716 259 295 265.716 295 274V298C295 306.284 301.716 313 310 313H422C430.284 313 437 306.284 437 298V274C437 265.716 430.284 259 422 259Z" fill="#FFDF8E"/>
</g>
<defs>
<clipPath id="clip0_12_2">
<rect width="402" height="313" fill="white"/>
</clipPath>
</defs>
</svg>
