<svg width="212" height="118" viewBox="0 0 212 118" fill="none" xmlns="http://www.w3.org/2000/svg">
<g clip-path="url(#clip0_8_105)">
<mask id="mask0_8_105" style="mask-type:luminance" maskUnits="userSpaceOnUse" x="33" y="7" width="78" height="68">
<path d="M111 7H33V75H111V7Z" fill="white"/>
</mask>
<g mask="url(#mask0_8_105)">
<path d="M47.4809 21.5673C52.6703 16.7168 61.3226 8.71904 65.9364 7.74134C70.5503 6.76365 92.2747 15.5422 96.8885 20.2234C101.502 24.9046 101.693 27.2435 103.042 31.3408C104.39 35.4381 104.771 38.1674 105.541 40.8967C106.31 43.6259 99.7726 52.4045 98.6217 54.7468C97.4708 57.0891 97.4674 58.4537 95.9317 59.8184C94.396 61.183 81.3205 62.3541 77.4762 63.5253C73.6319 64.6965 74.0167 64.3061 71.708 64.3061C69.3994 64.3061 67.0942 62.5511 64.5948 62.5511C62.0955 62.5511 55.442 64.769 52.3264 63.052C49.5819 61.5354 49.9837 56.8956 47.4843 54.7502C44.985 52.6048 44.6003 52.2144 43.4459 48.314C42.2916 44.4136 43.8307 29.5892 44.985 26.663C46.1393 23.7369 47.4843 21.5707 47.4843 21.5707L47.4809 21.5673Z" fill="#888376"/>
<path d="M93.4601 20.006C93.3851 19.9265 93.3068 19.847 93.2285 19.7676C93.2387 19.8678 93.2455 19.9645 93.266 20.0612C93.3239 20.044 93.392 20.0232 93.4601 20.0025V20.006Z" fill="black"/>
<path d="M41.3693 26.6976C42.3909 24.11 43.5758 22.1028 43.7937 21.7435C48.2306 17.5943 57.3698 9.06105 61.953 8.09026C66.3455 7.16439 87.9984 15.9291 92.4386 20.4341C92.7212 20.7209 92.98 20.9938 93.2286 21.2633C92.9051 20.6518 92.7485 20.0092 92.7621 19.3251C87.3446 14.485 66.3251 6.10377 61.7453 7.07802C56.8658 8.11099 47.8764 16.513 43.048 21.0318L42.997 21.0801L42.9595 21.1389C42.905 21.2287 41.577 23.381 40.4193 26.3176C39.6974 28.1486 38.9007 33.9595 38.584 39.2764C38.9177 39.0345 39.2752 38.7892 39.6498 38.5439C39.9869 33.5795 40.719 28.3524 41.3659 26.7045L41.3693 26.6976Z" fill="black"/>
<path d="M100.961 40.883C101.458 42.6518 98.0154 48.0378 95.9587 51.2576C95.087 52.6222 94.3958 53.7036 94.0723 54.36C93.6739 55.1718 93.4083 55.8662 93.1768 56.4777C92.741 57.6247 92.4277 58.4504 91.5015 59.2726C90.7183 59.967 85.5869 60.7444 81.4634 61.3731C79.9787 61.5977 78.5282 61.8188 77.2308 62.0364C77.1764 62.3957 77.1253 62.755 77.0742 63.1143C78.4431 62.8794 80.006 62.641 81.6132 62.3992C87.5584 61.4975 91.2359 60.8895 92.1723 60.0534C93.2858 59.0653 93.6569 58.0877 94.1268 56.8508C94.3516 56.2601 94.6069 55.5899 94.9849 54.8229C95.2845 54.2183 95.9928 53.1093 96.8134 51.8207C99.9597 46.8977 102.517 42.6518 101.938 40.5997C101.836 40.2335 101.741 39.8638 101.645 39.4941C101.298 39.6185 100.971 39.7325 100.671 39.8154C100.76 40.1713 100.852 40.5271 100.954 40.883H100.961Z" fill="black"/>
<path d="M68.8921 63.6668C68.5653 63.6495 68.16 63.6288 67.6152 63.6288C66.5767 63.6288 65.5075 63.2315 64.377 62.81C63.9582 62.6545 63.5326 62.4956 63.1035 62.3574V63.4491C63.4134 63.5562 63.7198 63.6702 64.0263 63.7842C65.1908 64.2195 66.3962 64.6687 67.6152 64.6687C68.1328 64.6687 68.5074 64.6894 68.8377 64.7067C69.0964 64.7205 69.3246 64.7343 69.5527 64.7343C70.3018 64.7343 71.0748 64.603 73.1485 63.9846V62.9033C70.3563 63.7497 69.9477 63.729 68.8921 63.6737V63.6668Z" fill="black"/>
<path d="M57.1485 62.3326C54.3325 62.8405 50.478 63.5383 48.4792 62.4363C47.2023 61.7315 46.6711 60.1734 46.1092 58.5255C46.0752 58.4253 46.0411 58.3251 46.0071 58.2249C45.9662 58.2249 45.9254 58.2249 45.8845 58.2249C45.5678 58.2249 45.2409 58.2145 44.9141 58.1973C44.9924 58.4184 45.0707 58.6395 45.1456 58.864C45.7449 60.626 46.368 62.4501 47.9922 63.3449C50.3043 64.6197 54.1997 63.9183 57.329 63.3518C57.9998 63.2308 58.6263 63.1168 59.1711 63.0374C59.1234 62.6954 59.0724 62.3533 59.0213 62.0113C58.456 62.0942 57.8261 62.2082 57.1485 62.3326Z" fill="black"/>
<path d="M98.6936 28.6464C98.1624 26.9432 97.6278 25.4438 96.5007 23.7165C95.8401 23.485 95.1659 23.2466 94.6211 22.877C96.5416 25.3091 97.1613 27.1367 97.8525 29.3857C98.1556 29.1681 98.445 28.9228 98.6936 28.6464Z" fill="black"/>
<path d="M58.2639 52.0248H58.2911C58.2843 51.9833 58.2775 51.9453 58.2707 51.9073C58.349 50.7742 58.0936 49.6341 57.8893 48.6979C57.8587 48.5631 57.8314 48.4319 57.8042 48.304C57.3139 46.0135 54.8452 44.6973 51.0315 44.6973C47.8716 44.6973 41.1091 45.9755 41.041 45.9893L41.1193 46.4108C41.1874 46.397 47.9125 45.1257 51.0315 45.1257C52.7306 45.1257 56.7554 45.4435 57.3888 48.3939C57.416 48.5217 57.4467 48.6564 57.4773 48.7912C57.6237 49.4441 57.7838 50.1731 57.8416 50.9124C56.3604 48.8706 51.9747 49.0883 51.7602 49.1021L51.784 49.5305C51.8385 49.5305 57.2492 49.2575 57.845 51.9384C57.7701 52.8332 57.4671 53.7004 56.7248 54.4362C55.8599 51.6137 50.5173 51.8797 50.279 51.8935L50.3028 52.3219C50.3573 52.3219 55.7918 52.0455 56.3672 54.7506C56.0404 55.0097 55.6488 55.2446 55.1789 55.4588C52.5604 56.6404 49.5639 57.8012 45.8524 57.7943C45.9035 57.9394 45.9545 58.081 46.0022 58.2261C49.7171 58.2019 52.7204 57.0377 55.3491 55.8527C57.4296 54.913 58.1311 53.4862 58.2605 52.0248H58.2639Z" fill="black"/>
<path d="M98.3555 20.5892L98.4951 20.1746C98.427 20.1504 96.8232 19.5977 95.7165 19.5977C94.9913 19.5977 94.0481 19.8326 93.459 20.0053C93.5782 20.1262 93.6905 20.2471 93.8029 20.3646C94.3647 20.2126 95.1343 20.0364 95.7165 20.0364C96.7483 20.0364 98.3385 20.5823 98.3555 20.5892Z" fill="black"/>
<path d="M99.508 26.5317C99.5659 27.3677 99.2186 28.0691 98.6976 28.646C98.7453 28.8049 98.7964 28.9638 98.8475 29.1228C99.634 28.3385 100.009 27.4472 99.9439 26.5006C99.7975 24.407 98.1256 23.8197 96.6478 23.3015C96.4571 23.2358 96.2698 23.1668 96.0859 23.0977C96.2358 23.3084 96.3754 23.5122 96.5082 23.7161C97.9894 24.2377 99.3855 24.7283 99.5114 26.5317H99.508Z" fill="black"/>
<path d="M94.6217 22.8766C94.2199 22.3687 93.7602 21.8333 93.2324 21.2598C93.4606 21.6882 93.767 22.0993 94.1586 22.4966C94.2982 22.6382 94.4548 22.7626 94.6217 22.8731V22.8766Z" fill="black"/>
<path d="M62.5931 74.2732C62.5931 74.3837 62.5216 74.477 62.433 74.477H49.1567C49.0579 74.477 48.9626 74.4114 48.9115 74.3077C48.3224 73.1296 48.3122 71.6441 48.8842 70.6975C49.1226 70.3071 49.5687 69.8373 50.345 69.8373C51.7275 69.8373 53.5015 70.4695 54.9248 70.9773C55.6263 71.2261 56.2324 71.4437 56.6716 71.5405C57.6455 71.7547 59.7805 71.7892 60.3083 70.9013C60.6658 70.3002 60.0733 65.7226 59.6749 62.9727C59.5149 62.9934 59.348 63.0141 59.1676 63.0418C59.6885 66.6762 60.0665 70.2242 59.869 70.6353C59.566 71.1397 57.8873 71.2813 56.7772 71.0361C56.3686 70.9462 55.7795 70.7355 55.0917 70.4902C53.6309 69.9685 51.8126 69.3225 50.3416 69.3225C49.5516 69.3225 48.8774 69.7163 48.4484 70.428C47.7878 71.5197 47.7912 73.2126 48.4552 74.5426C48.5948 74.8225 48.8638 74.9987 49.1567 74.9987H62.433C62.8042 74.9987 63.1038 74.6739 63.1038 74.2766V63.4494C62.9336 63.3907 62.7633 63.3354 62.5931 63.2836V74.2766V74.2732Z" fill="black"/>
<path d="M75.9479 70.9003C76.4757 71.7882 78.6141 71.7536 79.5845 71.5394C80.0238 71.4427 80.6299 71.2285 81.3313 70.9763C82.7547 70.4685 84.5287 69.8362 85.9112 69.8362C86.6875 69.8362 87.1336 70.3026 87.3719 70.6965C87.944 71.6431 87.9338 73.1286 87.3447 74.3067C87.2936 74.4103 87.1983 74.476 87.0995 74.476H73.8231C73.738 74.476 73.6631 74.3827 73.6631 74.2722V63.825C73.6188 63.8388 73.5746 63.8491 73.5337 63.863C73.4009 63.9044 73.2749 63.9424 73.1523 63.977V74.2722C73.1523 74.6694 73.452 74.9942 73.8231 74.9942H87.0995C87.3924 74.9942 87.6614 74.8215 87.801 74.5382C88.465 73.2081 88.4684 71.5153 87.8078 70.4236C87.3753 69.7119 86.7045 69.318 85.9146 69.318C84.4436 69.318 82.6253 69.9641 81.1645 70.4857C80.4801 70.731 79.8876 70.9418 79.479 71.0316C78.3655 71.2769 76.6868 71.1352 76.3872 70.6343C76.1897 70.2232 76.5608 66.72 77.0784 63.1133C76.8979 63.1444 76.7209 63.1755 76.5472 63.2066C76.1522 65.9738 75.6006 70.3165 75.9479 70.9003Z" fill="black"/>
<path d="M110.862 22.4512C110.382 19.4594 108.584 17.6871 106.892 16.3501C105.271 15.0684 101.41 13.2996 97.9501 14.0009C95.3554 14.526 93.6972 15.8319 93.0264 17.8806C92.8629 18.3815 92.7778 18.8617 92.7676 19.3247C92.9106 19.4525 93.0434 19.5769 93.166 19.6978C93.1898 19.722 93.2102 19.7427 93.2307 19.7634C93.1762 19.2418 93.2307 18.6994 93.4043 18.1259C93.8129 17.9946 95.0762 17.618 95.9377 17.618C96.9694 17.618 98.5596 18.1639 98.5766 18.1708L98.7162 17.7562C98.6481 17.732 97.0443 17.1793 95.9377 17.1793C95.1784 17.1793 94.1705 17.4384 93.5916 17.6111C94.2931 15.9563 95.7845 14.8888 98.0352 14.4293C101.175 13.7936 104.948 15.369 106.626 16.6922C108.935 18.5128 110.076 20.254 110.437 22.5169C110.869 25.2081 110.185 30.1864 109.054 32.5668C107.631 35.569 105.959 37.1512 102.67 38.6091C102.271 38.7853 101.897 38.9373 101.549 39.0652C101.583 39.2068 101.621 39.3485 101.655 39.4901C102.026 39.3554 102.414 39.2034 102.843 39.0133C106.241 37.5036 107.971 35.8695 109.446 32.7568C110.627 30.2694 111.315 25.26 110.866 22.4478L110.862 22.4512Z" fill="black"/>
<path d="M40.2929 56.9549C32.7643 54.7369 33.4487 48.4424 33.4555 48.3802C33.4759 48.2178 33.4896 48.0278 33.5032 47.8309C33.6087 46.2831 33.813 43.3673 38.5563 39.8262C38.5665 39.6431 38.5767 39.4565 38.5869 39.2734C33.4112 43.0184 33.1933 46.1519 33.0809 47.7998C33.0673 48.0002 33.0571 48.1729 33.0367 48.3249C32.9073 49.3752 33.0946 51.0956 34.0139 52.7781C35.2091 54.9684 37.2828 56.5127 40.1737 57.366C41.8728 57.8669 43.446 58.1226 44.9136 58.1986C44.8625 58.05 44.808 57.9049 44.7535 57.7598C43.3677 57.6735 41.8865 57.4213 40.2929 56.9514V56.9549Z" fill="black"/>
<path d="M73.6592 63.8264V62.752C73.5094 62.79 73.3664 62.8314 73.237 62.8694C73.2063 62.8798 73.1791 62.8867 73.1484 62.8971V63.9784C73.271 63.9404 73.397 63.9024 73.5298 63.8644C73.5707 63.8506 73.6183 63.8402 73.6592 63.8264Z" fill="black"/>
<path d="M39.619 39.0691C39.6292 38.8929 39.6429 38.7133 39.6531 38.5371C39.2751 38.7824 38.921 39.0277 38.5873 39.2695C38.5771 39.4561 38.5669 39.6392 38.5566 39.8223C38.8903 39.5735 39.2411 39.3248 39.619 39.0691Z" fill="black"/>
<path d="M76.7035 62.1269C76.6558 62.4448 76.6014 62.8075 76.5469 63.2083C76.7205 63.1772 76.8976 63.1461 77.0781 63.115C77.1291 62.7557 77.1836 62.3964 77.2347 62.0371C77.0542 62.0682 76.8772 62.0958 76.7035 62.1269Z" fill="black"/>
<path d="M100.572 39.3901C100.606 39.5318 100.644 39.6768 100.678 39.8185C100.974 39.7321 101.304 39.6216 101.652 39.4972C101.618 39.3556 101.58 39.2139 101.546 39.0723C101.195 39.2001 100.872 39.3072 100.572 39.3936V39.3901Z" fill="black"/>
<path d="M93.2325 21.2637C93.7636 21.8337 94.2199 22.3692 94.6217 22.8805C95.1665 23.2467 95.8441 23.4851 96.5013 23.72C96.3685 23.5162 96.2289 23.3124 96.0791 23.1016C95.4423 22.8632 94.8669 22.6007 94.4617 22.193C93.9305 21.6541 93.5696 21.091 93.3721 20.4933C93.4912 20.4587 93.6377 20.4138 93.8011 20.3689C93.6887 20.2514 93.5764 20.1305 93.4572 20.0096C93.3891 20.0303 93.321 20.0476 93.2631 20.0683C93.2461 19.9716 93.2359 19.8714 93.2256 19.7747C93.2018 19.7505 93.1814 19.7298 93.1609 19.7091C93.0418 19.5881 92.9056 19.4603 92.7626 19.3359C92.7489 20.0165 92.9022 20.6591 93.2291 21.2741L93.2325 21.2637Z" fill="black"/>
<path d="M46.0075 58.2262C45.9598 58.0811 45.9087 57.9394 45.8577 57.7943C45.4967 57.7943 45.129 57.7805 44.7578 57.7598C44.8123 57.9049 44.8634 58.0534 44.9179 58.1985C45.2447 58.2158 45.5716 58.2262 45.8883 58.2262C45.9292 58.2262 45.97 58.2262 46.0109 58.2262H46.0075Z" fill="black"/>
<path d="M62.5918 62.1992V63.2806C62.7621 63.3324 62.9323 63.3877 63.1026 63.4464V62.3547C62.9323 62.2994 62.7621 62.2476 62.5918 62.1992Z" fill="black"/>
<path d="M59.5249 61.9473C59.3615 61.968 59.1946 61.9887 59.0176 62.0164C59.0687 62.3584 59.1197 62.7004 59.1674 63.0424C59.3445 63.0148 59.5147 62.9941 59.6748 62.9733C59.6203 62.5899 59.5692 62.2444 59.5249 61.9473Z" fill="black"/>
<path d="M97.8516 29.3858C97.8822 29.486 97.9129 29.5827 97.9435 29.6864C97.9571 29.7313 97.9741 29.7831 97.9878 29.828C98.3112 29.6035 98.5973 29.3685 98.8424 29.1232C98.7914 28.9609 98.7437 28.8019 98.6926 28.6465C98.444 28.9229 98.1546 29.1682 97.8516 29.3858Z" fill="black"/>
<path d="M74.2681 27.6824C75.4679 27.6824 76.4406 26.148 76.4406 24.2552C76.4406 22.3625 75.4679 20.8281 74.2681 20.8281C73.0683 20.8281 72.0957 22.3625 72.0957 24.2552C72.0957 26.148 73.0683 27.6824 74.2681 27.6824Z" fill="black"/>
<path d="M82.5592 27.6824C83.759 27.6824 84.7316 26.148 84.7316 24.2552C84.7316 22.3625 83.759 20.8281 82.5592 20.8281C81.3594 20.8281 80.3867 22.3625 80.3867 24.2552C80.3867 26.148 81.3594 27.6824 82.5592 27.6824Z" fill="black"/>
<path d="M71.7559 37.4219C72.0453 37.4219 72.2939 37.6464 72.3109 37.9435C72.4709 40.4482 73.7751 42.4762 75.2971 42.4762C76.8192 42.4762 78.1233 40.4482 78.2834 37.9435C78.3038 37.6499 78.549 37.4219 78.8384 37.4219C79.1653 37.4219 79.4173 37.7052 79.3968 38.0368C79.1993 41.2083 77.4662 43.6128 75.2937 43.6128C73.1213 43.6128 71.3915 41.2083 71.1906 38.0368C71.1702 37.7052 71.4222 37.4219 71.749 37.4219H71.7559Z" fill="black"/>
</g>
<mask id="mask1_8_105" style="mask-type:luminance" maskUnits="userSpaceOnUse" x="109" y="0" width="78" height="68">
<path d="M187 0H109V68H187V0Z" fill="white"/>
</mask>
<g mask="url(#mask1_8_105)">
<path d="M123.481 14.5673C128.67 9.7168 137.323 1.71904 141.936 0.741342C146.55 -0.236355 168.275 8.54218 172.889 13.2234C177.502 17.9046 177.693 20.2435 179.042 24.3408C180.39 28.4381 180.771 31.1674 181.541 33.8967C182.31 36.6259 175.773 45.4045 174.622 47.7468C173.471 50.0891 173.467 51.4537 171.932 52.8184C170.396 54.183 157.321 55.3541 153.476 56.5253C149.632 57.6965 150.017 57.3061 147.708 57.3061C145.399 57.3061 143.094 55.5511 140.595 55.5511C138.096 55.5511 131.442 57.769 128.326 56.052C125.582 54.5354 125.984 49.8956 123.484 47.7502C120.985 45.6048 120.6 45.2144 119.446 41.314C118.292 37.4136 119.831 22.5892 120.985 19.663C122.139 16.7369 123.484 14.5707 123.484 14.5707L123.481 14.5673Z" fill="#888376"/>
<path d="M169.46 13.006C169.385 12.9265 169.307 12.847 169.229 12.7676C169.239 12.8678 169.246 12.9645 169.266 13.0612C169.324 13.044 169.392 13.0232 169.46 13.0025V13.006Z" fill="black"/>
<path d="M117.369 19.6976C118.391 17.11 119.576 15.1028 119.794 14.7435C124.231 10.5943 133.37 2.06105 137.953 1.09026C142.346 0.164385 163.998 8.9291 168.439 13.4341C168.721 13.7209 168.98 13.9938 169.229 14.2633C168.905 13.6518 168.748 13.0092 168.762 12.3251C163.345 7.48502 142.325 -0.896225 137.745 0.0780162C132.866 1.11099 123.876 9.51296 119.048 14.0318L118.997 14.0801L118.96 14.1389C118.905 14.2287 117.577 16.381 116.419 19.3176C115.697 21.1486 114.901 26.9595 114.584 32.2764C114.918 32.0345 115.275 31.7892 115.65 31.5439C115.987 26.5795 116.719 21.3524 117.366 19.7045L117.369 19.6976Z" fill="black"/>
<path d="M176.961 33.883C177.458 35.6518 174.015 41.0378 171.959 44.2576C171.087 45.6222 170.396 46.7036 170.072 47.36C169.674 48.1718 169.408 48.8662 169.177 49.4777C168.741 50.6247 168.428 51.4504 167.502 52.2726C166.718 52.967 161.587 53.7444 157.463 54.3731C155.979 54.5977 154.528 54.8188 153.231 55.0364C153.176 55.3957 153.125 55.755 153.074 56.1143C154.443 55.8794 156.006 55.641 157.613 55.3992C163.558 54.4975 167.236 53.8895 168.172 53.0534C169.286 52.0653 169.657 51.0877 170.127 49.8508C170.352 49.2601 170.607 48.5899 170.985 47.8229C171.285 47.2183 171.993 46.1093 172.813 44.8207C175.96 39.8977 178.517 35.6518 177.938 33.5997C177.836 33.2335 177.741 32.8638 177.645 32.4941C177.298 32.6185 176.971 32.7325 176.671 32.8154C176.76 33.1713 176.852 33.5271 176.954 33.883H176.961Z" fill="black"/>
<path d="M144.892 56.6668C144.565 56.6495 144.16 56.6288 143.615 56.6288C142.577 56.6288 141.507 56.2315 140.377 55.81C139.958 55.6545 139.533 55.4956 139.104 55.3574V56.4491C139.413 56.5562 139.72 56.6702 140.026 56.7842C141.191 57.2195 142.396 57.6687 143.615 57.6687C144.133 57.6687 144.507 57.6894 144.838 57.7067C145.096 57.7205 145.325 57.7343 145.553 57.7343C146.302 57.7343 147.075 57.603 149.148 56.9846V55.9033C146.356 56.7497 145.948 56.729 144.892 56.6737V56.6668Z" fill="black"/>
<path d="M133.148 55.3326C130.332 55.8405 126.478 56.5383 124.479 55.4363C123.202 54.7315 122.671 53.1734 122.109 51.5255C122.075 51.4253 122.041 51.3251 122.007 51.2249C121.966 51.2249 121.925 51.2249 121.885 51.2249C121.568 51.2249 121.241 51.2145 120.914 51.1973C120.992 51.4184 121.071 51.6395 121.146 51.864C121.745 53.626 122.368 55.4501 123.992 56.3449C126.304 57.6197 130.2 56.9183 133.329 56.3518C134 56.2308 134.626 56.1168 135.171 56.0374C135.123 55.6954 135.072 55.3533 135.021 55.0113C134.456 55.0942 133.826 55.2082 133.148 55.3326Z" fill="black"/>
<path d="M174.694 21.6464C174.162 19.9432 173.628 18.4438 172.501 16.7165C171.84 16.485 171.166 16.2466 170.621 15.877C172.542 18.3091 173.161 20.1367 173.853 22.3857C174.156 22.1681 174.445 21.9228 174.694 21.6464Z" fill="black"/>
<path d="M134.264 45.0248H134.291C134.284 44.9833 134.277 44.9453 134.271 44.9073C134.349 43.7742 134.094 42.6341 133.889 41.6979C133.859 41.5631 133.831 41.4319 133.804 41.304C133.314 39.0135 130.845 37.6973 127.031 37.6973C123.872 37.6973 117.109 38.9755 117.041 38.9893L117.119 39.4108C117.187 39.397 123.912 38.1257 127.031 38.1257C128.731 38.1257 132.755 38.4435 133.389 41.3939C133.416 41.5217 133.447 41.6564 133.477 41.7912C133.624 42.4441 133.784 43.1731 133.842 43.9124C132.36 41.8706 127.975 42.0883 127.76 42.1021L127.784 42.5305C127.838 42.5305 133.249 42.2575 133.845 44.9384C133.77 45.8332 133.467 46.7004 132.725 47.4362C131.86 44.6137 126.517 44.8797 126.279 44.8935L126.303 45.3219C126.357 45.3219 131.792 45.0455 132.367 47.7506C132.04 48.0097 131.649 48.2446 131.179 48.4588C128.56 49.6404 125.564 50.8012 121.852 50.7943C121.903 50.9394 121.955 51.081 122.002 51.2261C125.717 51.2019 128.72 50.0377 131.349 48.8527C133.43 47.913 134.131 46.4862 134.26 45.0248H134.264Z" fill="black"/>
<path d="M174.355 13.5892L174.495 13.1746C174.427 13.1504 172.823 12.5977 171.717 12.5977C170.991 12.5977 170.048 12.8326 169.459 13.0053C169.578 13.1262 169.691 13.2471 169.803 13.3646C170.365 13.2126 171.134 13.0364 171.717 13.0364C172.748 13.0364 174.338 13.5823 174.355 13.5892Z" fill="black"/>
<path d="M175.508 19.5317C175.566 20.3677 175.219 21.0691 174.698 21.646C174.745 21.8049 174.796 21.9638 174.847 22.1228C175.634 21.3385 176.009 20.4472 175.944 19.5006C175.797 17.407 174.126 16.8197 172.648 16.3015C172.457 16.2358 172.27 16.1668 172.086 16.0977C172.236 16.3084 172.375 16.5122 172.508 16.7161C173.989 17.2377 175.385 17.7283 175.511 19.5317H175.508Z" fill="black"/>
<path d="M170.622 15.8766C170.22 15.3687 169.76 14.8333 169.232 14.2598C169.461 14.6882 169.767 15.0993 170.159 15.4966C170.298 15.6382 170.455 15.7626 170.622 15.8731V15.8766Z" fill="black"/>
<path d="M138.593 67.2732C138.593 67.3837 138.522 67.477 138.433 67.477H125.157C125.058 67.477 124.963 67.4114 124.911 67.3077C124.322 66.1296 124.312 64.6441 124.884 63.6975C125.123 63.3071 125.569 62.8373 126.345 62.8373C127.727 62.8373 129.502 63.4695 130.925 63.9773C131.626 64.2261 132.232 64.4437 132.672 64.5405C133.645 64.7547 135.78 64.7892 136.308 63.9013C136.666 63.3002 136.073 58.7226 135.675 55.9727C135.515 55.9934 135.348 56.0141 135.168 56.0418C135.689 59.6762 136.067 63.2242 135.869 63.6353C135.566 64.1397 133.887 64.2813 132.777 64.0361C132.369 63.9462 131.78 63.7355 131.092 63.4902C129.631 62.9685 127.813 62.3225 126.342 62.3225C125.552 62.3225 124.877 62.7163 124.448 63.428C123.788 64.5197 123.791 66.2126 124.455 67.5426C124.595 67.8225 124.864 67.9987 125.157 67.9987H138.433C138.804 67.9987 139.104 67.6739 139.104 67.2766V56.4494C138.934 56.3907 138.763 56.3354 138.593 56.2836V67.2766V67.2732Z" fill="black"/>
<path d="M151.948 63.9003C152.476 64.7882 154.614 64.7536 155.585 64.5394C156.024 64.4427 156.63 64.2285 157.331 63.9763C158.755 63.4685 160.529 62.8362 161.911 62.8362C162.688 62.8362 163.134 63.3026 163.372 63.6965C163.944 64.6431 163.934 66.1286 163.345 67.3067C163.294 67.4103 163.198 67.476 163.1 67.476H149.823C149.738 67.476 149.663 67.3827 149.663 67.2722V56.825C149.619 56.8388 149.575 56.8491 149.534 56.863C149.401 56.9044 149.275 56.9424 149.152 56.977V67.2722C149.152 67.6694 149.452 67.9942 149.823 67.9942H163.1C163.392 67.9942 163.661 67.8215 163.801 67.5382C164.465 66.2081 164.468 64.5153 163.808 63.4236C163.375 62.7119 162.705 62.318 161.915 62.318C160.444 62.318 158.625 62.9641 157.164 63.4857C156.48 63.731 155.888 63.9418 155.479 64.0316C154.366 64.2769 152.687 64.1352 152.387 63.6343C152.19 63.2232 152.561 59.72 153.078 56.1133C152.898 56.1444 152.721 56.1755 152.547 56.2066C152.152 58.9738 151.601 63.3165 151.948 63.9003Z" fill="black"/>
<path d="M186.862 15.4512C186.382 12.4594 184.584 10.6871 182.892 9.35014C181.271 8.06842 177.41 6.29959 173.95 7.0009C171.355 7.52602 169.697 8.83192 169.026 10.8806C168.863 11.3815 168.778 11.8617 168.768 12.3247C168.911 12.4525 169.043 12.5769 169.166 12.6978C169.19 12.722 169.21 12.7427 169.231 12.7634C169.176 12.2418 169.231 11.6994 169.404 11.1259C169.813 10.9946 171.076 10.618 171.938 10.618C172.969 10.618 174.56 11.1639 174.577 11.1708L174.716 10.7562C174.648 10.732 173.044 10.1793 171.938 10.1793C171.178 10.1793 170.17 10.4384 169.592 10.6111C170.293 8.95629 171.784 7.88877 174.035 7.42929C177.175 6.79362 180.948 8.36899 182.626 9.69216C184.935 11.5128 186.076 13.254 186.437 15.5169C186.869 18.2081 186.185 23.1864 185.054 25.5668C183.631 28.569 181.959 30.1512 178.67 31.6091C178.271 31.7853 177.897 31.9373 177.549 32.0652C177.583 32.2068 177.621 32.3485 177.655 32.4901C178.026 32.3554 178.414 32.2034 178.843 32.0133C182.241 30.5036 183.971 28.8695 185.446 25.7568C186.627 23.2694 187.315 18.26 186.866 15.4478L186.862 15.4512Z" fill="black"/>
<path d="M116.293 49.9549C108.764 47.7369 109.449 41.4424 109.455 41.3802C109.476 41.2178 109.49 41.0278 109.503 40.8309C109.609 39.2831 109.813 36.3673 114.556 32.8262C114.567 32.6431 114.577 32.4565 114.587 32.2734C109.411 36.0184 109.193 39.1519 109.081 40.7998C109.067 41.0002 109.057 41.1729 109.037 41.3249C108.907 42.3752 109.095 44.0956 110.014 45.7781C111.209 47.9684 113.283 49.5127 116.174 50.366C117.873 50.8669 119.446 51.1226 120.914 51.1986C120.862 51.05 120.808 50.9049 120.754 50.7598C119.368 50.6735 117.886 50.4213 116.293 49.9514V49.9549Z" fill="black"/>
<path d="M149.659 56.8264V55.752C149.509 55.79 149.366 55.8314 149.237 55.8694C149.206 55.8798 149.179 55.8867 149.148 55.8971V56.9784C149.271 56.9404 149.397 56.9024 149.53 56.8644C149.571 56.8506 149.618 56.8402 149.659 56.8264Z" fill="black"/>
<path d="M115.619 32.0691C115.629 31.8929 115.643 31.7133 115.653 31.5371C115.275 31.7824 114.921 32.0277 114.587 32.2695C114.577 32.4561 114.567 32.6392 114.557 32.8223C114.89 32.5735 115.241 32.3248 115.619 32.0691Z" fill="black"/>
<path d="M152.704 55.1269C152.656 55.4448 152.601 55.8075 152.547 56.2083C152.721 56.1772 152.898 56.1461 153.078 56.115C153.129 55.7557 153.184 55.3964 153.235 55.0371C153.054 55.0682 152.877 55.0958 152.704 55.1269Z" fill="black"/>
<path d="M176.572 32.3901C176.606 32.5318 176.644 32.6768 176.678 32.8185C176.974 32.7321 177.304 32.6216 177.652 32.4972C177.618 32.3556 177.58 32.2139 177.546 32.0723C177.195 32.2001 176.872 32.3072 176.572 32.3936V32.3901Z" fill="black"/>
<path d="M169.232 14.2637C169.764 14.8337 170.22 15.3692 170.622 15.8805C171.167 16.2467 171.844 16.4851 172.501 16.72C172.369 16.5162 172.229 16.3124 172.079 16.1016C171.442 15.8632 170.867 15.6007 170.462 15.193C169.93 14.6541 169.57 14.091 169.372 13.4933C169.491 13.4587 169.638 13.4138 169.801 13.3689C169.689 13.2514 169.576 13.1305 169.457 13.0096C169.389 13.0303 169.321 13.0476 169.263 13.0683C169.246 12.9716 169.236 12.8714 169.226 12.7747C169.202 12.7505 169.181 12.7298 169.161 12.7091C169.042 12.5881 168.906 12.4603 168.763 12.3359C168.749 13.0165 168.902 13.6591 169.229 14.2741L169.232 14.2637Z" fill="black"/>
<path d="M122.007 51.2262C121.96 51.0811 121.909 50.9394 121.858 50.7943C121.497 50.7943 121.129 50.7805 120.758 50.7598C120.812 50.9049 120.863 51.0534 120.918 51.1985C121.245 51.2158 121.572 51.2262 121.888 51.2262C121.929 51.2262 121.97 51.2262 122.011 51.2262H122.007Z" fill="black"/>
<path d="M138.592 55.1992V56.2806C138.762 56.3324 138.932 56.3877 139.103 56.4464V55.3547C138.932 55.2994 138.762 55.2476 138.592 55.1992Z" fill="black"/>
<path d="M135.525 54.9473C135.361 54.968 135.195 54.9887 135.018 55.0164C135.069 55.3584 135.12 55.7004 135.167 56.0424C135.344 56.0148 135.515 55.9941 135.675 55.9733C135.62 55.5899 135.569 55.2444 135.525 54.9473Z" fill="black"/>
<path d="M173.852 22.3858C173.882 22.486 173.913 22.5827 173.943 22.6864C173.957 22.7313 173.974 22.7831 173.988 22.828C174.311 22.6035 174.597 22.3685 174.842 22.1232C174.791 21.9609 174.744 21.8019 174.693 21.6465C174.444 21.9229 174.155 22.1682 173.852 22.3858Z" fill="black"/>
<path d="M150.268 20.6824C151.468 20.6824 152.441 19.148 152.441 17.2552C152.441 15.3625 151.468 13.8281 150.268 13.8281C149.068 13.8281 148.096 15.3625 148.096 17.2552C148.096 19.148 149.068 20.6824 150.268 20.6824Z" fill="black"/>
<path d="M158.559 20.6824C159.759 20.6824 160.732 19.148 160.732 17.2552C160.732 15.3625 159.759 13.8281 158.559 13.8281C157.359 13.8281 156.387 15.3625 156.387 17.2552C156.387 19.148 157.359 20.6824 158.559 20.6824Z" fill="black"/>
<path d="M147.756 30.4219C148.045 30.4219 148.294 30.6464 148.311 30.9435C148.471 33.4482 149.775 35.4762 151.297 35.4762C152.819 35.4762 154.123 33.4482 154.283 30.9435C154.304 30.6499 154.549 30.4219 154.838 30.4219C155.165 30.4219 155.417 30.7052 155.397 31.0368C155.199 34.2083 153.466 36.6128 151.294 36.6128C149.121 36.6128 147.392 34.2083 147.191 31.0368C147.17 30.7052 147.422 30.4219 147.749 30.4219H147.756Z" fill="black"/>
</g>
<mask id="mask2_8_105" style="mask-type:luminance" maskUnits="userSpaceOnUse" x="0" y="50" width="78" height="68">
<path d="M78 50H0V118H78V50Z" fill="white"/>
</mask>
<g mask="url(#mask2_8_105)">
<path d="M14.4809 64.5673C19.6703 59.7168 28.3226 51.719 32.9364 50.7413C37.5503 49.7636 59.2747 58.5422 63.8885 63.2234C68.5024 67.9046 68.6931 70.2435 70.0415 74.3408C71.3899 78.4381 71.7713 81.1674 72.5408 83.8967C73.3104 86.6259 66.7726 95.4045 65.6217 97.7468C64.4708 100.089 64.4674 101.454 62.9317 102.818C61.396 104.183 48.3205 105.354 44.4762 106.525C40.6319 107.696 41.0167 107.306 38.708 107.306C36.3994 107.306 34.0942 105.551 31.5948 105.551C29.0955 105.551 22.442 107.769 19.3264 106.052C16.5819 104.535 16.9837 99.8956 14.4843 97.7502C11.985 95.6048 11.6003 95.2144 10.4459 91.314C9.29162 87.4136 10.8307 72.5892 11.985 69.663C13.1393 66.7369 14.4843 64.5707 14.4843 64.5707L14.4809 64.5673Z" fill="#888376"/>
<path d="M60.4601 63.006C60.3851 62.9265 60.3068 62.847 60.2285 62.7676C60.2387 62.8678 60.2455 62.9645 60.266 63.0612C60.3239 63.044 60.392 63.0232 60.4601 63.0025V63.006Z" fill="black"/>
<path d="M8.36933 69.6976C9.39086 67.11 10.5758 65.1028 10.7937 64.7435C15.2306 60.5943 24.3698 52.061 28.953 51.0903C33.3455 50.1644 54.9984 58.9291 59.4386 63.4341C59.7212 63.7209 59.98 63.9938 60.2286 64.2633C59.9051 63.6518 59.7485 63.0092 59.7621 62.3251C54.3446 57.485 33.3251 49.1038 28.7453 50.078C23.8658 51.111 14.8764 59.513 10.048 64.0318L9.99696 64.0801L9.9595 64.1389C9.90502 64.2287 8.57704 66.381 7.41932 69.3176C6.69744 71.1486 5.90066 76.9595 5.58398 82.2764C5.91768 82.0345 6.27521 81.7892 6.64977 81.5439C6.98687 76.5795 7.71896 71.3524 8.36593 69.7045L8.36933 69.6976Z" fill="black"/>
<path d="M67.9608 83.883C68.4579 85.6518 65.0154 91.0378 62.9587 94.2576C62.087 95.6222 61.3958 96.7036 61.0723 97.36C60.6739 98.1718 60.4083 98.8662 60.1768 99.4777C59.741 100.625 59.4277 101.45 58.5015 102.273C57.7183 102.967 52.5869 103.744 48.4634 104.373C46.9787 104.598 45.5282 104.819 44.2308 105.036C44.1764 105.396 44.1253 105.755 44.0742 106.114C45.4431 105.879 47.006 105.641 48.6132 105.399C54.5584 104.497 58.2359 103.889 59.1723 103.053C60.2858 102.065 60.6569 101.088 61.1268 99.8508C61.3516 99.2601 61.6069 98.5899 61.9849 97.8229C62.2845 97.2183 62.9928 96.1093 63.8134 94.8207C66.9597 89.8977 69.5169 85.6518 68.9381 83.5997C68.8359 83.2335 68.7406 82.8638 68.6452 82.4941C68.2979 82.6185 67.971 82.7325 67.6714 82.8154C67.7599 83.1713 67.8518 83.5271 67.954 83.883H67.9608Z" fill="black"/>
<path d="M35.8921 106.667C35.5653 106.649 35.16 106.629 34.6152 106.629C33.5767 106.629 32.5075 106.231 31.377 105.81C30.9582 105.655 30.5326 105.496 30.1035 105.357V106.449C30.4134 106.556 30.7198 106.67 31.0263 106.784C32.1908 107.22 33.3962 107.669 34.6152 107.669C35.1328 107.669 35.5074 107.689 35.8377 107.707C36.0964 107.72 36.3246 107.734 36.5527 107.734C37.3018 107.734 38.0748 107.603 40.1485 106.985V105.903C37.3563 106.75 36.9477 106.729 35.8921 106.674V106.667Z" fill="black"/>
<path d="M24.1485 105.333C21.3325 105.84 17.478 106.538 15.4792 105.436C14.2023 104.731 13.6711 103.173 13.1092 101.525C13.0752 101.425 13.0411 101.325 13.0071 101.225C12.9662 101.225 12.9254 101.225 12.8845 101.225C12.5678 101.225 12.2409 101.215 11.9141 101.197C11.9924 101.418 12.0707 101.639 12.1456 101.864C12.7449 103.626 13.368 105.45 14.9922 106.345C17.3043 107.62 21.1997 106.918 24.329 106.352C24.9998 106.231 25.6263 106.117 26.1711 106.037C26.1234 105.695 26.0724 105.353 26.0213 105.011C25.456 105.094 24.8261 105.208 24.1485 105.333Z" fill="black"/>
<path d="M65.6936 71.6464C65.1624 69.9432 64.6278 68.4438 63.5007 66.7165C62.8401 66.485 62.1659 66.2466 61.6211 65.877C63.5416 68.3091 64.1613 70.1367 64.8525 72.3857C65.1556 72.1681 65.445 71.9228 65.6936 71.6464Z" fill="black"/>
<path d="M25.2639 95.0248H25.2911C25.2843 94.9833 25.2775 94.9453 25.2707 94.9073C25.349 93.7742 25.0936 92.6341 24.8893 91.6979C24.8587 91.5631 24.8314 91.4319 24.8042 91.304C24.3139 89.0135 21.8452 87.6973 18.0315 87.6973C14.8716 87.6973 8.10912 88.9755 8.04102 88.9893L8.11933 89.4108C8.18743 89.397 14.9125 88.1257 18.0315 88.1257C19.7306 88.1257 23.7554 88.4435 24.3888 91.3939C24.416 91.5217 24.4467 91.6564 24.4773 91.7912C24.6237 92.4441 24.7838 93.1731 24.8416 93.9124C23.3604 91.8706 18.9747 92.0883 18.7602 92.1021L18.784 92.5305C18.8385 92.5305 24.2492 92.2575 24.845 94.9384C24.7701 95.8332 24.4671 96.7004 23.7248 97.4362C22.8599 94.6137 17.5173 94.8797 17.279 94.8935L17.3028 95.3219C17.3573 95.3219 22.7918 95.0455 23.3672 97.7506C23.0404 98.0097 22.6488 98.2446 22.1789 98.4588C19.5604 99.6404 16.5639 100.801 12.8524 100.794C12.9035 100.939 12.9545 101.081 13.0022 101.226C16.7171 101.202 19.7204 100.038 22.3491 98.8527C24.4296 97.913 25.1311 96.4862 25.2605 95.0248H25.2639Z" fill="black"/>
<path d="M65.3555 63.5892L65.4951 63.1746C65.427 63.1504 63.8232 62.5977 62.7165 62.5977C61.9913 62.5977 61.0481 62.8326 60.459 63.0053C60.5782 63.1262 60.6905 63.2471 60.8029 63.3646C61.3647 63.2126 62.1343 63.0364 62.7165 63.0364C63.7483 63.0364 65.3385 63.5823 65.3555 63.5892Z" fill="black"/>
<path d="M66.508 69.5317C66.5659 70.3677 66.2186 71.0691 65.6976 71.646C65.7453 71.8049 65.7964 71.9638 65.8475 72.1228C66.634 71.3385 67.0086 70.4472 66.9439 69.5006C66.7975 67.407 65.1256 66.8197 63.6478 66.3015C63.4571 66.2358 63.2698 66.1668 63.0859 66.0977C63.2358 66.3084 63.3754 66.5122 63.5082 66.7161C64.9894 67.2377 66.3855 67.7283 66.5114 69.5317H66.508Z" fill="black"/>
<path d="M61.6217 65.8766C61.2199 65.3687 60.7602 64.8333 60.2324 64.2598C60.4606 64.6882 60.767 65.0993 61.1586 65.4966C61.2982 65.6382 61.4548 65.7626 61.6217 65.8731V65.8766Z" fill="black"/>
<path d="M29.5931 117.273C29.5931 117.384 29.5216 117.477 29.433 117.477H16.1567C16.0579 117.477 15.9626 117.411 15.9115 117.308C15.3224 116.13 15.3122 114.644 15.8842 113.697C16.1226 113.307 16.5687 112.837 17.345 112.837C18.7275 112.837 20.5015 113.469 21.9248 113.977C22.6263 114.226 23.2324 114.444 23.6716 114.54C24.6455 114.755 26.7805 114.789 27.3083 113.901C27.6658 113.3 27.0733 108.723 26.6749 105.973C26.5149 105.993 26.348 106.014 26.1676 106.042C26.6885 109.676 27.0665 113.224 26.869 113.635C26.566 114.14 24.8873 114.281 23.7772 114.036C23.3686 113.946 22.7795 113.735 22.0917 113.49C20.6309 112.969 18.8126 112.322 17.3416 112.322C16.5516 112.322 15.8774 112.716 15.4484 113.428C14.7878 114.52 14.7912 116.213 15.4552 117.543C15.5948 117.822 15.8638 117.999 16.1567 117.999H29.433C29.8042 117.999 30.1038 117.674 30.1038 117.277V106.449C29.9336 106.391 29.7633 106.335 29.5931 106.284V117.277V117.273Z" fill="black"/>
<path d="M42.9479 113.9C43.4757 114.788 45.6141 114.754 46.5845 114.539C47.0238 114.443 47.6299 114.229 48.3313 113.976C49.7547 113.468 51.5287 112.836 52.9112 112.836C53.6875 112.836 54.1336 113.303 54.3719 113.696C54.944 114.643 54.9338 116.129 54.3447 117.307C54.2936 117.41 54.1983 117.476 54.0995 117.476H40.8231C40.738 117.476 40.6631 117.383 40.6631 117.272V106.825C40.6188 106.839 40.5746 106.849 40.5337 106.863C40.4009 106.904 40.2749 106.942 40.1523 106.977V117.272C40.1523 117.669 40.452 117.994 40.8231 117.994H54.0995C54.3924 117.994 54.6614 117.821 54.801 117.538C55.465 116.208 55.4684 114.515 54.8078 113.424C54.3753 112.712 53.7045 112.318 52.9146 112.318C51.4436 112.318 49.6253 112.964 48.1645 113.486C47.4801 113.731 46.8876 113.942 46.479 114.032C45.3655 114.277 43.6868 114.135 43.3872 113.634C43.1897 113.223 43.5608 109.72 44.0784 106.113C43.8979 106.144 43.7209 106.175 43.5472 106.207C43.1522 108.974 42.6006 113.316 42.9479 113.9Z" fill="black"/>
<path d="M77.8621 65.4512C77.382 62.4594 75.5841 60.6871 73.8918 59.3501C72.271 58.0684 68.4097 56.2996 64.9501 57.0009C62.3554 57.526 60.6972 58.8319 60.0264 60.8806C59.8629 61.3815 59.7778 61.8617 59.7676 62.3247C59.9106 62.4525 60.0434 62.5769 60.166 62.6978C60.1898 62.722 60.2102 62.7427 60.2307 62.7634C60.1762 62.2418 60.2307 61.6994 60.4043 61.1259C60.8129 60.9946 62.0762 60.618 62.9377 60.618C63.9694 60.618 65.5596 61.1639 65.5766 61.1708L65.7162 60.7562C65.6481 60.732 64.0443 60.1793 62.9377 60.1793C62.1784 60.1793 61.1705 60.4384 60.5916 60.6111C61.2931 58.9563 62.7845 57.8888 65.0352 57.4293C68.1747 56.7936 71.9475 58.369 73.6262 59.6922C75.9349 61.5128 77.0756 63.254 77.4365 65.5169C77.8689 68.2081 77.1845 73.1864 76.054 75.5668C74.6307 78.569 72.9588 80.1512 69.6695 81.6091C69.2711 81.7853 68.8966 81.9373 68.5493 82.0652C68.5833 82.2068 68.6208 82.3485 68.6548 82.4901C69.026 82.3554 69.4141 82.2034 69.8432 82.0133C73.2414 80.5036 74.9712 78.8695 76.4456 75.7568C77.6272 73.2694 78.315 68.26 77.8655 65.4478L77.8621 65.4512Z" fill="black"/>
<path d="M7.29289 99.9549C-0.23573 97.7369 0.44869 91.4424 0.4555 91.3802C0.47593 91.2178 0.489551 91.0278 0.503171 90.8309C0.608728 89.2831 0.813032 86.3673 5.5563 82.8262C5.56651 82.6431 5.57673 82.4565 5.58694 82.2734C0.411234 86.0184 0.193309 89.1519 0.080942 90.7998C0.0673217 91.0002 0.0571065 91.1729 0.036676 91.3249C-0.0927167 92.3752 0.0945623 94.0956 1.01393 95.7781C2.20911 97.9684 4.2828 99.5127 7.17371 100.366C8.87284 100.867 10.446 101.123 11.9136 101.199C11.8625 101.05 11.808 100.905 11.7535 100.76C10.3677 100.673 8.88646 100.421 7.29289 99.9514V99.9549Z" fill="black"/>
<path d="M40.6592 106.826V105.752C40.5094 105.79 40.3664 105.831 40.237 105.869C40.2063 105.88 40.1791 105.887 40.1484 105.897V106.978C40.271 106.94 40.397 106.902 40.5298 106.864C40.5707 106.851 40.6183 106.84 40.6592 106.826Z" fill="black"/>
<path d="M6.61902 82.0691C6.62924 81.8929 6.64286 81.7133 6.65307 81.5371C6.27511 81.7824 5.92098 82.0277 5.58729 82.2695C5.57707 82.4561 5.56686 82.6392 5.55664 82.8223C5.89034 82.5735 6.24106 82.3248 6.61902 82.0691Z" fill="black"/>
<path d="M43.7035 105.127C43.6558 105.445 43.6014 105.808 43.5469 106.208C43.7205 106.177 43.8976 106.146 44.0781 106.115C44.1291 105.756 44.1836 105.396 44.2347 105.037C44.0542 105.068 43.8772 105.096 43.7035 105.127Z" fill="black"/>
<path d="M67.5723 82.3901C67.6063 82.5318 67.6438 82.6768 67.6778 82.8185C67.9741 82.7321 68.3044 82.6216 68.6517 82.4972C68.6176 82.3556 68.5802 82.2139 68.5461 82.0723C68.1954 82.2001 67.8719 82.3072 67.5723 82.3936V82.3901Z" fill="black"/>
<path d="M60.2325 64.2637C60.7636 64.8337 61.2199 65.3692 61.6217 65.8805C62.1665 66.2467 62.8441 66.4851 63.5013 66.72C63.3685 66.5162 63.2289 66.3124 63.0791 66.1016C62.4423 65.8632 61.8669 65.6007 61.4617 65.193C60.9305 64.6541 60.5696 64.091 60.3721 63.4933C60.4912 63.4587 60.6377 63.4138 60.8011 63.3689C60.6887 63.2514 60.5764 63.1305 60.4572 63.0096C60.3891 63.0303 60.321 63.0476 60.2631 63.0683C60.2461 62.9716 60.2359 62.8714 60.2256 62.7747C60.2018 62.7505 60.1814 62.7298 60.1609 62.7091C60.0418 62.5881 59.9056 62.4603 59.7626 62.3359C59.7489 63.0165 59.9022 63.6591 60.2291 64.2741L60.2325 64.2637Z" fill="black"/>
<path d="M13.0075 101.226C12.9598 101.081 12.9087 100.939 12.8577 100.794C12.4967 100.794 12.129 100.78 11.7578 100.76C11.8123 100.905 11.8634 101.053 11.9179 101.199C12.2447 101.216 12.5716 101.226 12.8883 101.226C12.9292 101.226 12.97 101.226 13.0109 101.226H13.0075Z" fill="black"/>
<path d="M29.5918 105.199V106.281C29.7621 106.332 29.9323 106.388 30.1026 106.446V105.355C29.9323 105.299 29.7621 105.248 29.5918 105.199Z" fill="black"/>
<path d="M26.5249 104.947C26.3615 104.968 26.1946 104.989 26.0176 105.016C26.0687 105.358 26.1197 105.7 26.1674 106.042C26.3445 106.015 26.5147 105.994 26.6748 105.973C26.6203 105.59 26.5692 105.244 26.5249 104.947Z" fill="black"/>
<path d="M64.8516 72.3858C64.8822 72.486 64.9129 72.5827 64.9435 72.6864C64.9571 72.7313 64.9741 72.7831 64.9878 72.828C65.3112 72.6035 65.5973 72.3685 65.8424 72.1232C65.7914 71.9609 65.7437 71.8019 65.6926 71.6465C65.444 71.9229 65.1546 72.1682 64.8516 72.3858Z" fill="black"/>
<path d="M41.2681 70.6824C42.4679 70.6824 43.4406 69.148 43.4406 67.2552C43.4406 65.3625 42.4679 63.8281 41.2681 63.8281C40.0683 63.8281 39.0957 65.3625 39.0957 67.2552C39.0957 69.148 40.0683 70.6824 41.2681 70.6824Z" fill="black"/>
<path d="M49.5592 70.6824C50.759 70.6824 51.7316 69.148 51.7316 67.2552C51.7316 65.3625 50.759 63.8281 49.5592 63.8281C48.3594 63.8281 47.3867 65.3625 47.3867 67.2552C47.3867 69.148 48.3594 70.6824 49.5592 70.6824Z" fill="black"/>
<path d="M38.7559 80.4219C39.0453 80.4219 39.2939 80.6464 39.3109 80.9435C39.4709 83.4482 40.7751 85.4762 42.2971 85.4762C43.8192 85.4762 45.1233 83.4482 45.2834 80.9435C45.3038 80.6499 45.549 80.4219 45.8384 80.4219C46.1653 80.4219 46.4173 80.7052 46.3968 81.0368C46.1993 84.2083 44.4662 86.6128 42.2937 86.6128C40.1213 86.6128 38.3915 84.2083 38.1906 81.0368C38.1702 80.7052 38.4222 80.4219 38.749 80.4219H38.7559Z" fill="black"/>
</g>
<mask id="mask3_8_105" style="mask-type:luminance" maskUnits="userSpaceOnUse" x="70" y="49" width="78" height="68">
<path d="M148 49H70V117H148V49Z" fill="white"/>
</mask>
<g mask="url(#mask3_8_105)">
<path d="M84.4809 63.5673C89.6703 58.7168 98.3226 50.719 102.936 49.7413C107.55 48.7636 129.275 57.5422 133.889 62.2234C138.502 66.9046 138.693 69.2435 140.042 73.3408C141.39 77.4381 141.771 80.1674 142.541 82.8967C143.31 85.6259 136.773 94.4045 135.622 96.7468C134.471 99.0891 134.467 100.454 132.932 101.818C131.396 103.183 118.321 104.354 114.476 105.525C110.632 106.696 111.017 106.306 108.708 106.306C106.399 106.306 104.094 104.551 101.595 104.551C99.0955 104.551 92.442 106.769 89.3264 105.052C86.5819 103.535 86.9837 98.8956 84.4843 96.7502C81.985 94.6048 81.6003 94.2144 80.4459 90.314C79.2916 86.4136 80.8307 71.5892 81.985 68.663C83.1393 65.7369 84.4843 63.5707 84.4843 63.5707L84.4809 63.5673Z" fill="#888376"/>
<path d="M130.46 62.006C130.385 61.9265 130.307 61.847 130.229 61.7676C130.239 61.8678 130.246 61.9645 130.266 62.0612C130.324 62.044 130.392 62.0232 130.46 62.0025V62.006Z" fill="black"/>
<path d="M78.3693 68.6976C79.3909 66.11 80.5758 64.1028 80.7937 63.7435C85.2306 59.5943 94.3698 51.061 98.953 50.0903C103.346 49.1644 124.998 57.9291 129.439 62.4341C129.721 62.7209 129.98 62.9938 130.229 63.2633C129.905 62.6518 129.748 62.0092 129.762 61.3251C124.345 56.485 103.325 48.1038 98.7453 49.078C93.8658 50.111 84.8764 58.513 80.048 63.0318L79.997 63.0801L79.9595 63.1389C79.905 63.2287 78.577 65.381 77.4193 68.3176C76.6974 70.1486 75.9007 75.9595 75.584 81.2764C75.9177 81.0345 76.2752 80.7892 76.6498 80.5439C76.9869 75.5795 77.719 70.3524 78.3659 68.7045L78.3693 68.6976Z" fill="black"/>
<path d="M137.961 82.883C138.458 84.6518 135.015 90.0378 132.959 93.2576C132.087 94.6222 131.396 95.7036 131.072 96.36C130.674 97.1718 130.408 97.8662 130.177 98.4777C129.741 99.6247 129.428 100.45 128.502 101.273C127.718 101.967 122.587 102.744 118.463 103.373C116.979 103.598 115.528 103.819 114.231 104.036C114.176 104.396 114.125 104.755 114.074 105.114C115.443 104.879 117.006 104.641 118.613 104.399C124.558 103.497 128.236 102.889 129.172 102.053C130.286 101.065 130.657 100.088 131.127 98.8508C131.352 98.2601 131.607 97.5899 131.985 96.8229C132.285 96.2183 132.993 95.1093 133.813 93.8207C136.96 88.8977 139.517 84.6518 138.938 82.5997C138.836 82.2335 138.741 81.8638 138.645 81.4941C138.298 81.6185 137.971 81.7325 137.671 81.8154C137.76 82.1713 137.852 82.5271 137.954 82.883H137.961Z" fill="black"/>
<path d="M105.892 105.667C105.565 105.649 105.16 105.629 104.615 105.629C103.577 105.629 102.507 105.231 101.377 104.81C100.958 104.655 100.533 104.496 100.104 104.357V105.449C100.413 105.556 100.72 105.67 101.026 105.784C102.191 106.22 103.396 106.669 104.615 106.669C105.133 106.669 105.507 106.689 105.838 106.707C106.096 106.72 106.325 106.734 106.553 106.734C107.302 106.734 108.075 106.603 110.148 105.985V104.903C107.356 105.75 106.948 105.729 105.892 105.674V105.667Z" fill="black"/>
<path d="M94.1485 104.333C91.3325 104.84 87.478 105.538 85.4792 104.436C84.2023 103.731 83.6711 102.173 83.1092 100.525C83.0752 100.425 83.0411 100.325 83.0071 100.225C82.9662 100.225 82.9254 100.225 82.8845 100.225C82.5678 100.225 82.2409 100.215 81.9141 100.197C81.9924 100.418 82.0707 100.639 82.1456 100.864C82.7449 102.626 83.368 104.45 84.9922 105.345C87.3043 106.62 91.1997 105.918 94.329 105.352C94.9998 105.231 95.6263 105.117 96.1711 105.037C96.1234 104.695 96.0724 104.353 96.0213 104.011C95.456 104.094 94.8261 104.208 94.1485 104.333Z" fill="black"/>
<path d="M135.694 70.6464C135.162 68.9432 134.628 67.4438 133.501 65.7165C132.84 65.485 132.166 65.2466 131.621 64.877C133.542 67.3091 134.161 69.1367 134.853 71.3857C135.156 71.1681 135.445 70.9228 135.694 70.6464Z" fill="black"/>
<path d="M95.2639 94.0248H95.2911C95.2843 93.9833 95.2775 93.9453 95.2707 93.9073C95.349 92.7742 95.0936 91.6341 94.8893 90.6979C94.8587 90.5631 94.8314 90.4319 94.8042 90.304C94.3139 88.0135 91.8452 86.6973 88.0315 86.6973C84.8716 86.6973 78.1091 87.9755 78.041 87.9893L78.1193 88.4108C78.1874 88.397 84.9125 87.1257 88.0315 87.1257C89.7306 87.1257 93.7554 87.4435 94.3888 90.3939C94.416 90.5217 94.4467 90.6564 94.4773 90.7912C94.6237 91.4441 94.7838 92.1731 94.8416 92.9124C93.3604 90.8706 88.9747 91.0883 88.7602 91.1021L88.784 91.5305C88.8385 91.5305 94.2492 91.2575 94.845 93.9384C94.7701 94.8332 94.4671 95.7004 93.7248 96.4362C92.8599 93.6137 87.5173 93.8797 87.279 93.8935L87.3028 94.3219C87.3573 94.3219 92.7918 94.0455 93.3672 96.7506C93.0404 97.0097 92.6488 97.2446 92.1789 97.4588C89.5604 98.6404 86.5639 99.8012 82.8524 99.7943C82.9035 99.9394 82.9545 100.081 83.0022 100.226C86.7171 100.202 89.7204 99.0377 92.3491 97.8527C94.4296 96.913 95.1311 95.4862 95.2605 94.0248H95.2639Z" fill="black"/>
<path d="M135.355 62.5892L135.495 62.1746C135.427 62.1504 133.823 61.5977 132.717 61.5977C131.991 61.5977 131.048 61.8326 130.459 62.0053C130.578 62.1262 130.691 62.2471 130.803 62.3646C131.365 62.2126 132.134 62.0364 132.717 62.0364C133.748 62.0364 135.338 62.5823 135.355 62.5892Z" fill="black"/>
<path d="M136.508 68.5317C136.566 69.3677 136.219 70.0691 135.698 70.646C135.745 70.8049 135.796 70.9638 135.847 71.1228C136.634 70.3385 137.009 69.4472 136.944 68.5006C136.797 66.407 135.126 65.8197 133.648 65.3015C133.457 65.2358 133.27 65.1668 133.086 65.0977C133.236 65.3084 133.375 65.5122 133.508 65.7161C134.989 66.2377 136.385 66.7283 136.511 68.5317H136.508Z" fill="black"/>
<path d="M131.622 64.8766C131.22 64.3687 130.76 63.8333 130.232 63.2598C130.461 63.6882 130.767 64.0993 131.159 64.4966C131.298 64.6382 131.455 64.7626 131.622 64.8731V64.8766Z" fill="black"/>
<path d="M99.5931 116.273C99.5931 116.384 99.5216 116.477 99.433 116.477H86.1567C86.0579 116.477 85.9626 116.411 85.9115 116.308C85.3224 115.13 85.3122 113.644 85.8842 112.697C86.1226 112.307 86.5687 111.837 87.345 111.837C88.7275 111.837 90.5015 112.469 91.9248 112.977C92.6263 113.226 93.2324 113.444 93.6716 113.54C94.6455 113.755 96.7805 113.789 97.3083 112.901C97.6658 112.3 97.0733 107.723 96.6749 104.973C96.5149 104.993 96.348 105.014 96.1676 105.042C96.6885 108.676 97.0665 112.224 96.869 112.635C96.566 113.14 94.8873 113.281 93.7772 113.036C93.3686 112.946 92.7795 112.735 92.0917 112.49C90.6309 111.969 88.8126 111.322 87.3416 111.322C86.5516 111.322 85.8774 111.716 85.4484 112.428C84.7878 113.52 84.7912 115.213 85.4552 116.543C85.5948 116.822 85.8638 116.999 86.1567 116.999H99.433C99.8042 116.999 100.104 116.674 100.104 116.277V105.449C99.9336 105.391 99.7633 105.335 99.5931 105.284V116.277V116.273Z" fill="black"/>
<path d="M112.948 112.9C113.476 113.788 115.614 113.754 116.585 113.539C117.024 113.443 117.63 113.229 118.331 112.976C119.755 112.468 121.529 111.836 122.911 111.836C123.688 111.836 124.134 112.303 124.372 112.696C124.944 113.643 124.934 115.129 124.345 116.307C124.294 116.41 124.198 116.476 124.1 116.476H110.823C110.738 116.476 110.663 116.383 110.663 116.272V105.825C110.619 105.839 110.575 105.849 110.534 105.863C110.401 105.904 110.275 105.942 110.152 105.977V116.272C110.152 116.669 110.452 116.994 110.823 116.994H124.1C124.392 116.994 124.661 116.821 124.801 116.538C125.465 115.208 125.468 113.515 124.808 112.424C124.375 111.712 123.705 111.318 122.915 111.318C121.444 111.318 119.625 111.964 118.164 112.486C117.48 112.731 116.888 112.942 116.479 113.032C115.366 113.277 113.687 113.135 113.387 112.634C113.19 112.223 113.561 108.72 114.078 105.113C113.898 105.144 113.721 105.175 113.547 105.207C113.152 107.974 112.601 112.316 112.948 112.9Z" fill="black"/>
<path d="M147.862 64.4512C147.382 61.4594 145.584 59.6871 143.892 58.3501C142.271 57.0684 138.41 55.2996 134.95 56.0009C132.355 56.526 130.697 57.8319 130.026 59.8806C129.863 60.3815 129.778 60.8617 129.768 61.3247C129.911 61.4525 130.043 61.5769 130.166 61.6978C130.19 61.722 130.21 61.7427 130.231 61.7634C130.176 61.2418 130.231 60.6994 130.404 60.1259C130.813 59.9946 132.076 59.618 132.938 59.618C133.969 59.618 135.56 60.1639 135.577 60.1708L135.716 59.7562C135.648 59.732 134.044 59.1793 132.938 59.1793C132.178 59.1793 131.17 59.4384 130.592 59.6111C131.293 57.9563 132.784 56.8888 135.035 56.4293C138.175 55.7936 141.948 57.369 143.626 58.6922C145.935 60.5128 147.076 62.254 147.437 64.5169C147.869 67.2081 147.185 72.1864 146.054 74.5668C144.631 77.569 142.959 79.1512 139.67 80.6091C139.271 80.7853 138.897 80.9373 138.549 81.0652C138.583 81.2068 138.621 81.3485 138.655 81.4901C139.026 81.3554 139.414 81.2034 139.843 81.0133C143.241 79.5036 144.971 77.8695 146.446 74.7568C147.627 72.2694 148.315 67.26 147.866 64.4478L147.862 64.4512Z" fill="black"/>
<path d="M77.2929 98.9549C69.7643 96.7369 70.4487 90.4424 70.4555 90.3802C70.4759 90.2178 70.4896 90.0278 70.5032 89.8309C70.6087 88.2831 70.813 85.3673 75.5563 81.8262C75.5665 81.6431 75.5767 81.4565 75.5869 81.2734C70.4112 85.0184 70.1933 88.1519 70.0809 89.7998C70.0673 90.0002 70.0571 90.1729 70.0367 90.3249C69.9073 91.3752 70.0946 93.0956 71.0139 94.7781C72.2091 96.9684 74.2828 98.5127 77.1737 99.366C78.8728 99.8669 80.446 100.123 81.9136 100.199C81.8625 100.05 81.808 99.9049 81.7535 99.7598C80.3677 99.6735 78.8865 99.4213 77.2929 98.9514V98.9549Z" fill="black"/>
<path d="M110.659 105.826V104.752C110.509 104.79 110.366 104.831 110.237 104.869C110.206 104.88 110.179 104.887 110.148 104.897V105.978C110.271 105.94 110.397 105.902 110.53 105.864C110.571 105.851 110.618 105.84 110.659 105.826Z" fill="black"/>
<path d="M76.619 81.0691C76.6292 80.8929 76.6429 80.7133 76.6531 80.5371C76.2751 80.7824 75.921 81.0277 75.5873 81.2695C75.5771 81.4561 75.5669 81.6392 75.5566 81.8223C75.8903 81.5735 76.2411 81.3248 76.619 81.0691Z" fill="black"/>
<path d="M113.704 104.127C113.656 104.445 113.601 104.808 113.547 105.208C113.721 105.177 113.898 105.146 114.078 105.115C114.129 104.756 114.184 104.396 114.235 104.037C114.054 104.068 113.877 104.096 113.704 104.127Z" fill="black"/>
<path d="M137.572 81.3901C137.606 81.5318 137.644 81.6768 137.678 81.8185C137.974 81.7321 138.304 81.6216 138.652 81.4972C138.618 81.3556 138.58 81.2139 138.546 81.0723C138.195 81.2001 137.872 81.3072 137.572 81.3936V81.3901Z" fill="black"/>
<path d="M130.232 63.2637C130.764 63.8337 131.22 64.3692 131.622 64.8805C132.167 65.2467 132.844 65.4851 133.501 65.72C133.369 65.5162 133.229 65.3124 133.079 65.1016C132.442 64.8632 131.867 64.6007 131.462 64.193C130.93 63.6541 130.57 63.091 130.372 62.4933C130.491 62.4587 130.638 62.4138 130.801 62.3689C130.689 62.2514 130.576 62.1305 130.457 62.0096C130.389 62.0303 130.321 62.0476 130.263 62.0683C130.246 61.9716 130.236 61.8714 130.226 61.7747C130.202 61.7505 130.181 61.7298 130.161 61.7091C130.042 61.5881 129.906 61.4603 129.763 61.3359C129.749 62.0165 129.902 62.6591 130.229 63.2741L130.232 63.2637Z" fill="black"/>
<path d="M83.0075 100.226C82.9598 100.081 82.9087 99.9394 82.8577 99.7943C82.4967 99.7943 82.129 99.7805 81.7578 99.7598C81.8123 99.9049 81.8634 100.053 81.9179 100.199C82.2447 100.216 82.5716 100.226 82.8883 100.226C82.9292 100.226 82.97 100.226 83.0109 100.226H83.0075Z" fill="black"/>
<path d="M99.5918 104.199V105.281C99.7621 105.332 99.9323 105.388 100.103 105.446V104.355C99.9323 104.299 99.7621 104.248 99.5918 104.199Z" fill="black"/>
<path d="M96.5249 103.947C96.3615 103.968 96.1946 103.989 96.0176 104.016C96.0687 104.358 96.1197 104.7 96.1674 105.042C96.3445 105.015 96.5147 104.994 96.6748 104.973C96.6203 104.59 96.5692 104.244 96.5249 103.947Z" fill="black"/>
<path d="M134.852 71.3858C134.882 71.486 134.913 71.5827 134.943 71.6864C134.957 71.7313 134.974 71.7831 134.988 71.828C135.311 71.6035 135.597 71.3685 135.842 71.1232C135.791 70.9609 135.744 70.8019 135.693 70.6465C135.444 70.9229 135.155 71.1682 134.852 71.3858Z" fill="black"/>
<path d="M111.268 69.6824C112.468 69.6824 113.441 68.148 113.441 66.2552C113.441 64.3625 112.468 62.8281 111.268 62.8281C110.068 62.8281 109.096 64.3625 109.096 66.2552C109.096 68.148 110.068 69.6824 111.268 69.6824Z" fill="black"/>
<path d="M119.559 69.6824C120.759 69.6824 121.732 68.148 121.732 66.2552C121.732 64.3625 120.759 62.8281 119.559 62.8281C118.359 62.8281 117.387 64.3625 117.387 66.2552C117.387 68.148 118.359 69.6824 119.559 69.6824Z" fill="black"/>
<path d="M108.756 79.4219C109.045 79.4219 109.294 79.6464 109.311 79.9435C109.471 82.4482 110.775 84.4762 112.297 84.4762C113.819 84.4762 115.123 82.4482 115.283 79.9435C115.304 79.6499 115.549 79.4219 115.838 79.4219C116.165 79.4219 116.417 79.7052 116.397 80.0368C116.199 83.2083 114.466 85.6128 112.294 85.6128C110.121 85.6128 108.392 83.2083 108.191 80.0368C108.17 79.7052 108.422 79.4219 108.749 79.4219H108.756Z" fill="black"/>
</g>
<mask id="mask4_8_105" style="mask-type:luminance" maskUnits="userSpaceOnUse" x="134" y="47" width="78" height="68">
<path d="M212 47H134V115H212V47Z" fill="white"/>
</mask>
<g mask="url(#mask4_8_105)">
<path d="M148.481 61.5673C153.67 56.7168 162.323 48.719 166.936 47.7413C171.55 46.7636 193.275 55.5422 197.889 60.2234C202.502 64.9046 202.693 67.2435 204.042 71.3408C205.39 75.4381 205.771 78.1674 206.541 80.8967C207.31 83.6259 200.773 92.4045 199.622 94.7468C198.471 97.0891 198.467 98.4537 196.932 99.8184C195.396 101.183 182.321 102.354 178.476 103.525C174.632 104.696 175.017 104.306 172.708 104.306C170.399 104.306 168.094 102.551 165.595 102.551C163.096 102.551 156.442 104.769 153.326 103.052C150.582 101.535 150.984 96.8956 148.484 94.7502C145.985 92.6048 145.6 92.2144 144.446 88.314C143.292 84.4136 144.831 69.5892 145.985 66.663C147.139 63.7369 148.484 61.5707 148.484 61.5707L148.481 61.5673Z" fill="#888376"/>
<path d="M194.46 60.006C194.385 59.9265 194.307 59.847 194.229 59.7676C194.239 59.8678 194.246 59.9645 194.266 60.0612C194.324 60.044 194.392 60.0232 194.46 60.0025V60.006Z" fill="black"/>
<path d="M142.369 66.6976C143.391 64.11 144.576 62.1028 144.794 61.7435C149.231 57.5943 158.37 49.061 162.953 48.0903C167.346 47.1644 188.998 55.9291 193.439 60.4341C193.721 60.7209 193.98 60.9938 194.229 61.2633C193.905 60.6518 193.748 60.0092 193.762 59.3251C188.345 54.485 167.325 46.1038 162.745 47.078C157.866 48.111 148.876 56.513 144.048 61.0318L143.997 61.0801L143.96 61.1389C143.905 61.2287 142.577 63.381 141.419 66.3176C140.697 68.1486 139.901 73.9595 139.584 79.2764C139.918 79.0345 140.275 78.7892 140.65 78.5439C140.987 73.5795 141.719 68.3524 142.366 66.7045L142.369 66.6976Z" fill="black"/>
<path d="M201.961 80.883C202.458 82.6518 199.015 88.0378 196.959 91.2576C196.087 92.6222 195.396 93.7036 195.072 94.36C194.674 95.1718 194.408 95.8662 194.177 96.4777C193.741 97.6247 193.428 98.4504 192.502 99.2726C191.718 99.967 186.587 100.744 182.463 101.373C180.979 101.598 179.528 101.819 178.231 102.036C178.176 102.396 178.125 102.755 178.074 103.114C179.443 102.879 181.006 102.641 182.613 102.399C188.558 101.497 192.236 100.889 193.172 100.053C194.286 99.0653 194.657 98.0877 195.127 96.8508C195.352 96.2601 195.607 95.5899 195.985 94.8229C196.285 94.2183 196.993 93.1093 197.813 91.8207C200.96 86.8977 203.517 82.6518 202.938 80.5997C202.836 80.2335 202.741 79.8638 202.645 79.4941C202.298 79.6185 201.971 79.7325 201.671 79.8154C201.76 80.1713 201.852 80.5271 201.954 80.883H201.961Z" fill="black"/>
<path d="M169.892 103.667C169.565 103.649 169.16 103.629 168.615 103.629C167.577 103.629 166.507 103.231 165.377 102.81C164.958 102.655 164.533 102.496 164.104 102.357V103.449C164.413 103.556 164.72 103.67 165.026 103.784C166.191 104.22 167.396 104.669 168.615 104.669C169.133 104.669 169.507 104.689 169.838 104.707C170.096 104.72 170.325 104.734 170.553 104.734C171.302 104.734 172.075 104.603 174.148 103.985V102.903C171.356 103.75 170.948 103.729 169.892 103.674V103.667Z" fill="black"/>
<path d="M158.148 102.333C155.332 102.84 151.478 103.538 149.479 102.436C148.202 101.731 147.671 100.173 147.109 98.5255C147.075 98.4253 147.041 98.3251 147.007 98.2249C146.966 98.2249 146.925 98.2249 146.885 98.2249C146.568 98.2249 146.241 98.2145 145.914 98.1973C145.992 98.4184 146.071 98.6395 146.146 98.864C146.745 100.626 147.368 102.45 148.992 103.345C151.304 104.62 155.2 103.918 158.329 103.352C159 103.231 159.626 103.117 160.171 103.037C160.123 102.695 160.072 102.353 160.021 102.011C159.456 102.094 158.826 102.208 158.148 102.333Z" fill="black"/>
<path d="M199.694 68.6464C199.162 66.9432 198.628 65.4438 197.501 63.7165C196.84 63.485 196.166 63.2466 195.621 62.877C197.542 65.3091 198.161 67.1367 198.853 69.3857C199.156 69.1681 199.445 68.9228 199.694 68.6464Z" fill="black"/>
<path d="M159.264 92.0248H159.291C159.284 91.9833 159.277 91.9453 159.271 91.9073C159.349 90.7742 159.094 89.6341 158.889 88.6979C158.859 88.5631 158.831 88.4319 158.804 88.304C158.314 86.0135 155.845 84.6973 152.031 84.6973C148.872 84.6973 142.109 85.9755 142.041 85.9893L142.119 86.4108C142.187 86.397 148.912 85.1257 152.031 85.1257C153.731 85.1257 157.755 85.4435 158.389 88.3939C158.416 88.5217 158.447 88.6564 158.477 88.7912C158.624 89.4441 158.784 90.1731 158.842 90.9124C157.36 88.8706 152.975 89.0883 152.76 89.1021L152.784 89.5305C152.838 89.5305 158.249 89.2575 158.845 91.9384C158.77 92.8332 158.467 93.7004 157.725 94.4362C156.86 91.6137 151.517 91.8797 151.279 91.8935L151.303 92.3219C151.357 92.3219 156.792 92.0455 157.367 94.7506C157.04 95.0097 156.649 95.2446 156.179 95.4588C153.56 96.6404 150.564 97.8012 146.852 97.7943C146.903 97.9394 146.955 98.081 147.002 98.2261C150.717 98.2019 153.72 97.0377 156.349 95.8527C158.43 94.913 159.131 93.4862 159.26 92.0248H159.264Z" fill="black"/>
<path d="M199.355 60.5892L199.495 60.1746C199.427 60.1504 197.823 59.5977 196.717 59.5977C195.991 59.5977 195.048 59.8326 194.459 60.0053C194.578 60.1262 194.691 60.2471 194.803 60.3646C195.365 60.2126 196.134 60.0364 196.717 60.0364C197.748 60.0364 199.338 60.5823 199.355 60.5892Z" fill="black"/>
<path d="M200.508 66.5317C200.566 67.3677 200.219 68.0691 199.698 68.646C199.745 68.8049 199.796 68.9638 199.847 69.1228C200.634 68.3385 201.009 67.4472 200.944 66.5006C200.797 64.407 199.126 63.8197 197.648 63.3015C197.457 63.2358 197.27 63.1668 197.086 63.0977C197.236 63.3084 197.375 63.5122 197.508 63.7161C198.989 64.2377 200.385 64.7283 200.511 66.5317H200.508Z" fill="black"/>
<path d="M195.622 62.8766C195.22 62.3687 194.76 61.8333 194.232 61.2598C194.461 61.6882 194.767 62.0993 195.159 62.4966C195.298 62.6382 195.455 62.7626 195.622 62.8731V62.8766Z" fill="black"/>
<path d="M163.593 114.273C163.593 114.384 163.522 114.477 163.433 114.477H150.157C150.058 114.477 149.963 114.411 149.911 114.308C149.322 113.13 149.312 111.644 149.884 110.697C150.123 110.307 150.569 109.837 151.345 109.837C152.727 109.837 154.502 110.469 155.925 110.977C156.626 111.226 157.232 111.444 157.672 111.54C158.645 111.755 160.78 111.789 161.308 110.901C161.666 110.3 161.073 105.723 160.675 102.973C160.515 102.993 160.348 103.014 160.168 103.042C160.689 106.676 161.067 110.224 160.869 110.635C160.566 111.14 158.887 111.281 157.777 111.036C157.369 110.946 156.78 110.735 156.092 110.49C154.631 109.969 152.813 109.322 151.342 109.322C150.552 109.322 149.877 109.716 149.448 110.428C148.788 111.52 148.791 113.213 149.455 114.543C149.595 114.822 149.864 114.999 150.157 114.999H163.433C163.804 114.999 164.104 114.674 164.104 114.277V103.449C163.934 103.391 163.763 103.335 163.593 103.284V114.277V114.273Z" fill="black"/>
<path d="M176.948 110.9C177.476 111.788 179.614 111.754 180.585 111.539C181.024 111.443 181.63 111.229 182.331 110.976C183.755 110.468 185.529 109.836 186.911 109.836C187.688 109.836 188.134 110.303 188.372 110.696C188.944 111.643 188.934 113.129 188.345 114.307C188.294 114.41 188.198 114.476 188.1 114.476H174.823C174.738 114.476 174.663 114.383 174.663 114.272V103.825C174.619 103.839 174.575 103.849 174.534 103.863C174.401 103.904 174.275 103.942 174.152 103.977V114.272C174.152 114.669 174.452 114.994 174.823 114.994H188.1C188.392 114.994 188.661 114.821 188.801 114.538C189.465 113.208 189.468 111.515 188.808 110.424C188.375 109.712 187.705 109.318 186.915 109.318C185.444 109.318 183.625 109.964 182.164 110.486C181.48 110.731 180.888 110.942 180.479 111.032C179.366 111.277 177.687 111.135 177.387 110.634C177.19 110.223 177.561 106.72 178.078 103.113C177.898 103.144 177.721 103.175 177.547 103.207C177.152 105.974 176.601 110.316 176.948 110.9Z" fill="black"/>
<path d="M211.862 62.4512C211.382 59.4594 209.584 57.6871 207.892 56.3501C206.271 55.0684 202.41 53.2996 198.95 54.0009C196.355 54.526 194.697 55.8319 194.026 57.8806C193.863 58.3815 193.778 58.8617 193.768 59.3247C193.911 59.4525 194.043 59.5769 194.166 59.6978C194.19 59.722 194.21 59.7427 194.231 59.7634C194.176 59.2418 194.231 58.6994 194.404 58.1259C194.813 57.9946 196.076 57.618 196.938 57.618C197.969 57.618 199.56 58.1639 199.577 58.1708L199.716 57.7562C199.648 57.732 198.044 57.1793 196.938 57.1793C196.178 57.1793 195.17 57.4384 194.592 57.6111C195.293 55.9563 196.784 54.8888 199.035 54.4293C202.175 53.7936 205.948 55.369 207.626 56.6922C209.935 58.5128 211.076 60.254 211.437 62.5169C211.869 65.2081 211.185 70.1864 210.054 72.5668C208.631 75.569 206.959 77.1512 203.67 78.6091C203.271 78.7853 202.897 78.9373 202.549 79.0652C202.583 79.2068 202.621 79.3485 202.655 79.4901C203.026 79.3554 203.414 79.2034 203.843 79.0133C207.241 77.5036 208.971 75.8695 210.446 72.7568C211.627 70.2694 212.315 65.26 211.866 62.4478L211.862 62.4512Z" fill="black"/>
<path d="M141.293 96.9549C133.764 94.7369 134.449 88.4424 134.455 88.3802C134.476 88.2178 134.49 88.0278 134.503 87.8309C134.609 86.2831 134.813 83.3673 139.556 79.8262C139.567 79.6431 139.577 79.4565 139.587 79.2734C134.411 83.0184 134.193 86.1519 134.081 87.7998C134.067 88.0002 134.057 88.1729 134.037 88.3249C133.907 89.3752 134.095 91.0956 135.014 92.7781C136.209 94.9684 138.283 96.5127 141.174 97.366C142.873 97.8669 144.446 98.1226 145.914 98.1986C145.862 98.05 145.808 97.9049 145.754 97.7598C144.368 97.6735 142.886 97.4213 141.293 96.9514V96.9549Z" fill="black"/>
<path d="M174.659 103.826V102.752C174.509 102.79 174.366 102.831 174.237 102.869C174.206 102.88 174.179 102.887 174.148 102.897V103.978C174.271 103.94 174.397 103.902 174.53 103.864C174.571 103.851 174.618 103.84 174.659 103.826Z" fill="black"/>
<path d="M140.619 79.0691C140.629 78.8929 140.643 78.7133 140.653 78.5371C140.275 78.7824 139.921 79.0277 139.587 79.2695C139.577 79.4561 139.567 79.6392 139.557 79.8223C139.89 79.5735 140.241 79.3248 140.619 79.0691Z" fill="black"/>
<path d="M177.704 102.127C177.656 102.445 177.601 102.808 177.547 103.208C177.721 103.177 177.898 103.146 178.078 103.115C178.129 102.756 178.184 102.396 178.235 102.037C178.054 102.068 177.877 102.096 177.704 102.127Z" fill="black"/>
<path d="M201.572 79.3901C201.606 79.5318 201.644 79.6768 201.678 79.8185C201.974 79.7321 202.304 79.6216 202.652 79.4972C202.618 79.3556 202.58 79.2139 202.546 79.0723C202.195 79.2001 201.872 79.3072 201.572 79.3936V79.3901Z" fill="black"/>
<path d="M194.232 61.2637C194.764 61.8337 195.22 62.3692 195.622 62.8805C196.167 63.2467 196.844 63.4851 197.501 63.72C197.369 63.5162 197.229 63.3124 197.079 63.1016C196.442 62.8632 195.867 62.6007 195.462 62.193C194.93 61.6541 194.57 61.091 194.372 60.4933C194.491 60.4587 194.638 60.4138 194.801 60.3689C194.689 60.2514 194.576 60.1305 194.457 60.0096C194.389 60.0303 194.321 60.0476 194.263 60.0683C194.246 59.9716 194.236 59.8714 194.226 59.7747C194.202 59.7505 194.181 59.7298 194.161 59.7091C194.042 59.5881 193.906 59.4603 193.763 59.3359C193.749 60.0165 193.902 60.6591 194.229 61.2741L194.232 61.2637Z" fill="black"/>
<path d="M147.007 98.2262C146.96 98.0811 146.909 97.9394 146.858 97.7943C146.497 97.7943 146.129 97.7805 145.758 97.7598C145.812 97.9049 145.863 98.0534 145.918 98.1985C146.245 98.2158 146.572 98.2262 146.888 98.2262C146.929 98.2262 146.97 98.2262 147.011 98.2262H147.007Z" fill="black"/>
<path d="M163.592 102.199V103.281C163.762 103.332 163.932 103.388 164.103 103.446V102.355C163.932 102.299 163.762 102.248 163.592 102.199Z" fill="black"/>
<path d="M160.525 101.947C160.361 101.968 160.195 101.989 160.018 102.016C160.069 102.358 160.12 102.7 160.167 103.042C160.344 103.015 160.515 102.994 160.675 102.973C160.62 102.59 160.569 102.244 160.525 101.947Z" fill="black"/>
<path d="M198.852 69.3858C198.882 69.486 198.913 69.5827 198.943 69.6864C198.957 69.7313 198.974 69.7831 198.988 69.828C199.311 69.6035 199.597 69.3685 199.842 69.1232C199.791 68.9609 199.744 68.8019 199.693 68.6465C199.444 68.9229 199.155 69.1682 198.852 69.3858Z" fill="black"/>
<path d="M175.268 67.6824C176.468 67.6824 177.441 66.148 177.441 64.2552C177.441 62.3625 176.468 60.8281 175.268 60.8281C174.068 60.8281 173.096 62.3625 173.096 64.2552C173.096 66.148 174.068 67.6824 175.268 67.6824Z" fill="black"/>
<path d="M183.559 67.6824C184.759 67.6824 185.732 66.148 185.732 64.2552C185.732 62.3625 184.759 60.8281 183.559 60.8281C182.359 60.8281 181.387 62.3625 181.387 64.2552C181.387 66.148 182.359 67.6824 183.559 67.6824Z" fill="black"/>
<path d="M172.756 77.4219C173.045 77.4219 173.294 77.6464 173.311 77.9435C173.471 80.4482 174.775 82.4762 176.297 82.4762C177.819 82.4762 179.123 80.4482 179.283 77.9435C179.304 77.6499 179.549 77.4219 179.838 77.4219C180.165 77.4219 180.417 77.7052 180.397 78.0368C180.199 81.2083 178.466 83.6128 176.294 83.6128C174.121 83.6128 172.392 81.2083 172.191 78.0368C172.17 77.7052 172.422 77.4219 172.749 77.4219H172.756Z" fill="black"/>
</g>
</g>
<defs>
<clipPath id="clip0_8_105">
<rect width="212" height="118" fill="white"/>
</clipPath>
</defs>
</svg>
