<svg width="76" height="66" viewBox="0 0 76 66" fill="none" xmlns="http://www.w3.org/2000/svg">
<g clip-path="url(#clip0_946_4621)">
<path d="M14.1102 14.1388C19.1664 9.43101 27.5969 1.66847 32.0924 0.719534C36.588 -0.229407 57.7553 8.29094 62.2509 12.8345C66.7465 17.378 66.9323 19.6481 68.2461 23.6249C69.5599 27.6017 69.9315 30.2507 70.6813 32.8997C71.4311 35.5487 65.061 44.069 63.9396 46.3425C62.8182 48.6159 62.8149 49.9404 61.3186 51.2649C59.8223 52.5894 47.0821 53.7261 43.3363 54.8628C39.5906 55.9995 39.9655 55.6206 37.716 55.6206C35.4666 55.6206 33.2205 53.9172 30.7852 53.9172C28.35 53.9172 21.8671 56.0699 18.8313 54.4034C16.1572 52.9314 16.5487 48.4281 14.1135 46.3458C11.6782 44.2635 11.3033 43.8846 10.1786 40.0989C9.05389 36.3132 10.5535 21.9248 11.6782 19.0847C12.803 16.2446 14.1135 14.1422 14.1135 14.1422L14.1102 14.1388Z" fill="#FFBA0A"/>
<path d="M58.9092 12.623C58.8362 12.5458 58.7599 12.4687 58.6836 12.3916C58.6935 12.4888 58.7002 12.5827 58.7201 12.6766C58.7765 12.6599 58.8428 12.6397 58.9092 12.6196V12.623Z" fill="#6F2E17"/>
<path d="M8.15436 19.1182C9.14969 16.6067 10.3043 14.6586 10.5166 14.3098C14.8397 10.2827 23.7445 2.00043 28.2102 1.05819C32.4902 0.15955 53.5878 8.66648 57.9142 13.039C58.1895 13.3173 58.4417 13.5822 58.6839 13.8437C58.3687 13.2502 58.2161 12.6266 58.2294 11.9626C52.9508 7.26487 32.4702 -0.869866 28.0079 0.0757217C23.2535 1.07831 14.4946 9.23317 9.79002 13.6191L9.74025 13.666L9.70375 13.723C9.65067 13.8102 8.35674 15.8992 7.2287 18.7494C6.52534 20.5266 5.74898 26.1666 5.44043 31.3271C5.76557 31.0923 6.11394 30.8543 6.47889 30.6162C6.80735 25.7977 7.52067 20.7244 8.15104 19.1249L8.15436 19.1182Z" fill="#6F2E17"/>
<path d="M66.2184 32.8863C66.7028 34.6031 63.3486 39.8307 61.3446 42.9558C60.4953 44.2803 59.8218 45.3298 59.5066 45.9669C59.1184 46.7549 58.8596 47.4289 58.634 48.0224C58.2094 49.1356 57.9041 49.937 57.0017 50.7351C56.2386 51.4091 51.2387 52.1635 47.2209 52.7738C45.7744 52.9918 44.361 53.2064 43.097 53.4176C43.0439 53.7663 42.9941 54.1151 42.9443 54.4638C44.2781 54.2358 45.8009 54.0044 47.3669 53.7697C53.1597 52.8945 56.7429 52.3044 57.6553 51.4929C58.7402 50.5339 59.1018 49.585 59.5597 48.3845C59.7787 47.8112 60.0275 47.1606 60.3958 46.4162C60.6877 45.8294 61.3778 44.7531 62.1774 43.5024C65.243 38.7241 67.7347 34.6031 67.1706 32.6113C67.0711 32.2559 66.9782 31.8971 66.8853 31.5383C66.5469 31.659 66.2284 31.7697 65.9364 31.8502C66.0227 32.1955 66.1123 32.5409 66.2118 32.8863H66.2184Z" fill="#6F2E17"/>
<path d="M34.9713 55.0003C34.6527 54.9835 34.2579 54.9634 33.7271 54.9634C32.7152 54.9634 31.6734 54.5778 30.5719 54.1687C30.1638 54.0178 29.7491 53.8636 29.3311 53.7294V54.789C29.633 54.893 29.9316 55.0036 30.2302 55.1143C31.3648 55.5368 32.5393 55.9727 33.7271 55.9727C34.2314 55.9727 34.5963 55.9928 34.9182 56.0096C35.1703 56.023 35.3926 56.0364 35.6149 56.0364C36.3448 56.0364 37.0979 55.909 39.1185 55.3088V54.2592C36.3979 55.0808 35.9998 55.0606 34.9713 55.007V55.0003Z" fill="#6F2E17"/>
<path d="M23.5291 53.706C20.7853 54.1989 17.0296 54.8762 15.0821 53.8066C13.8379 53.1225 13.3204 51.6103 12.7729 50.0108C12.7398 49.9136 12.7066 49.8163 12.6734 49.7191C12.6336 49.7191 12.5938 49.7191 12.554 49.7191C12.2454 49.7191 11.9269 49.709 11.6084 49.6923C11.6847 49.9069 11.761 50.1215 11.834 50.3394C12.4179 52.0495 13.0251 53.82 14.6077 54.6885C16.8604 55.9258 20.6559 55.2451 23.705 54.6952C24.3586 54.5778 24.969 54.4671 25.4999 54.39C25.4534 54.0581 25.4037 53.7261 25.3539 53.3941C24.8031 53.4746 24.1894 53.5853 23.5291 53.706Z" fill="#6F2E17"/>
<path d="M64.0091 21.0099C63.4915 19.3568 62.9706 17.9015 61.8724 16.225C61.2288 16.0003 60.5719 15.7689 60.041 15.4102C61.9122 17.7708 62.5161 19.5446 63.1896 21.7275C63.4849 21.5162 63.7669 21.2782 64.0091 21.0099Z" fill="#6F2E17"/>
<path d="M24.6172 43.6999H24.6437C24.6371 43.6597 24.6305 43.6228 24.6238 43.5859C24.7001 42.4861 24.4513 41.3795 24.2522 40.4708C24.2224 40.3401 24.1958 40.2126 24.1693 40.0886C23.6915 37.8654 21.2861 36.5879 17.5703 36.5879C14.4914 36.5879 7.90229 37.8286 7.83594 37.842L7.91225 38.2511C7.9786 38.2376 14.5312 37.0037 17.5703 37.0037C19.2258 37.0037 23.1474 37.3122 23.7645 40.1758C23.7911 40.2998 23.8209 40.4306 23.8508 40.5614C23.9934 41.1951 24.1494 41.9026 24.2058 42.6202C22.7626 40.6385 18.4893 40.8497 18.2803 40.8632L18.3035 41.2789C18.3566 41.2789 23.6285 41.014 24.2091 43.6161C24.1361 44.4846 23.8408 45.3262 23.1176 46.0404C22.2748 43.3009 17.0693 43.5591 16.837 43.5725L16.8603 43.9883C16.9133 43.9883 22.2085 43.72 22.7692 46.3456C22.4507 46.597 22.0691 46.8251 21.6113 47.0329C19.0599 48.1797 16.1403 49.3064 12.5239 49.2997C12.5737 49.4405 12.6235 49.578 12.6699 49.7188C16.2896 49.6953 19.2159 48.5653 21.7772 47.4152C23.8043 46.5031 24.4878 45.1183 24.6139 43.6999H24.6172Z" fill="#6F2E17"/>
<path d="M63.6801 13.1899L63.8162 12.7875C63.7498 12.764 62.1871 12.2275 61.1089 12.2275C60.4022 12.2275 59.4832 12.4556 58.9092 12.6232C59.0253 12.7406 59.1348 12.8579 59.2443 12.9719C59.7917 12.8244 60.5415 12.6534 61.1089 12.6534C62.1141 12.6534 63.6635 13.1832 63.6801 13.1899Z" fill="#6F2E17"/>
<path d="M64.8021 18.9571C64.8585 19.7685 64.5201 20.4492 64.0125 21.0092C64.0589 21.1634 64.1087 21.3177 64.1585 21.4719C64.9249 20.7107 65.2898 19.8456 65.2268 18.9269C65.0841 16.8949 63.4551 16.3248 62.0152 15.8219C61.8294 15.7581 61.6469 15.6911 61.4678 15.624C61.6138 15.8286 61.7498 16.0264 61.8792 16.2242C63.3224 16.7306 64.6827 17.2067 64.8054 18.9571H64.8021Z" fill="#6F2E17"/>
<path d="M60.0411 15.4101C59.6497 14.9172 59.2018 14.3974 58.6875 13.8408C58.9098 14.2566 59.2084 14.6556 59.5899 15.0412C59.726 15.1787 59.8786 15.2994 60.0411 15.4067V15.4101Z" fill="#6F2E17"/>
<path d="M28.8339 65.2944C28.8339 65.4017 28.7643 65.4923 28.678 65.4923H15.7421C15.6458 65.4923 15.5529 65.4286 15.5032 65.328C14.9292 64.1845 14.9192 62.7427 15.4766 61.8239C15.7089 61.445 16.1435 60.989 16.9 60.989C18.247 60.989 19.9755 61.6026 21.3623 62.0955C22.0458 62.337 22.6364 62.5482 23.0644 62.6421C24.0132 62.85 26.0935 62.8835 26.6077 62.0218C26.9561 61.4383 26.3788 56.9954 25.9906 54.3263C25.8347 54.3464 25.6721 54.3665 25.4963 54.3934C26.0039 57.9209 26.3722 61.3645 26.1797 61.7636C25.8845 62.2531 24.2488 62.3906 23.1672 62.1525C22.7691 62.0654 22.1951 61.8608 21.5249 61.6227C20.1016 61.1164 18.3299 60.4894 16.8966 60.4894C16.1269 60.4894 15.47 60.8716 15.052 61.5624C14.4083 62.622 14.4116 64.265 15.0586 65.556C15.1946 65.8276 15.4567 65.9986 15.7421 65.9986H28.678C29.0396 65.9986 29.3316 65.6834 29.3316 65.2978V54.789C29.1657 54.732 28.9998 54.6784 28.8339 54.6281V65.2978V65.2944Z" fill="#6F2E17"/>
<path d="M41.846 62.0218C42.3602 62.8836 44.4438 62.85 45.3893 62.6421C45.8173 62.5482 46.4079 62.3404 47.0913 62.0956C48.4782 61.6027 50.2067 60.989 51.5537 60.989C52.3102 60.989 52.7448 61.4417 52.977 61.824C53.5344 62.7427 53.5245 64.1846 52.9505 65.328C52.9007 65.4286 52.8078 65.4923 52.7116 65.4923H39.7757C39.6927 65.4923 39.6197 65.4018 39.6197 65.2945V55.1546C39.5766 55.168 39.5335 55.178 39.4937 55.1914C39.3643 55.2317 39.2415 55.2686 39.1221 55.3021V65.2945C39.1221 65.6801 39.414 65.9953 39.7757 65.9953H52.7116C52.997 65.9953 53.2591 65.8276 53.3951 65.5527C54.0421 64.2617 54.0454 62.6187 53.4017 61.5591C52.9804 60.8683 52.3268 60.4861 51.557 60.4861C50.1238 60.4861 48.3521 61.1131 46.9288 61.6194C46.2619 61.8575 45.6846 62.062 45.2865 62.1492C44.2016 62.3873 42.5659 62.2498 42.2739 61.7636C42.0815 61.3646 42.4432 57.9645 42.9475 54.4638C42.7716 54.494 42.5991 54.5242 42.4299 54.5543C42.045 57.2402 41.5075 61.4551 41.846 62.0218Z" fill="#6F2E17"/>
<path d="M75.8669 14.9968C75.3991 12.093 73.6473 10.3729 71.9984 9.07519C70.4192 7.83117 66.6568 6.11436 63.286 6.79505C60.7578 7.30473 59.1421 8.57222 58.4885 10.5606C58.3292 11.0468 58.2463 11.5129 58.2363 11.9622C58.3757 12.0863 58.5051 12.207 58.6245 12.3244C58.6477 12.3479 58.6676 12.368 58.6875 12.3881C58.6345 11.8818 58.6875 11.3553 58.8567 10.7987C59.2549 10.6713 60.4858 10.3058 61.3252 10.3058C62.3304 10.3058 63.8798 10.8356 63.8964 10.8423L64.0325 10.4399C63.9661 10.4164 62.4034 9.87995 61.3252 9.87995C60.5853 9.87995 59.6032 10.1314 59.0392 10.2991C59.7227 8.69293 61.1759 7.65681 63.3689 7.21084C66.4279 6.59386 70.104 8.1229 71.7396 9.40715C73.9891 11.1743 75.1005 12.8642 75.4522 15.0606C75.8736 17.6727 75.2067 22.5045 74.1052 24.8149C72.7184 27.7287 71.0893 29.2645 67.8844 30.6795C67.4962 30.8505 67.1313 30.9981 66.7928 31.1221C66.826 31.2596 66.8625 31.3971 66.8957 31.5346C67.2573 31.4038 67.6355 31.2563 68.0536 31.0718C71.3647 29.6065 73.0501 28.0205 74.4867 24.9993C75.638 22.585 76.3082 17.723 75.8702 14.9935L75.8669 14.9968Z" fill="#6F2E17"/>
<path d="M7.10589 48.4847C-0.229686 46.3319 0.437185 40.2225 0.44382 40.1621C0.463727 40.0045 0.476998 39.8201 0.490269 39.629C0.59312 38.1268 0.792185 35.2967 5.41383 31.8597C5.42378 31.682 5.43374 31.501 5.44369 31.3232C0.400689 34.9581 0.188353 37.9994 0.0788665 39.5988C0.0655955 39.7933 0.0556422 39.961 0.0357356 40.1085C-0.0903394 41.1278 0.0921376 42.7977 0.987934 44.4307C2.15247 46.5566 4.17299 48.0554 6.98977 48.8837C8.64533 49.3699 10.1781 49.618 11.6081 49.6918C11.5583 49.5476 11.5052 49.4068 11.4522 49.2659C10.1018 49.1821 8.6586 48.9373 7.10589 48.4813V48.4847Z" fill="#6F2E17"/>
<path d="M39.6168 55.1542V54.1113C39.4708 54.1482 39.3315 54.1884 39.2054 54.2253C39.1755 54.2354 39.149 54.2421 39.1191 54.2522V55.3017C39.2386 55.2648 39.3613 55.2279 39.4907 55.191C39.5305 55.1776 39.577 55.1676 39.6168 55.1542Z" fill="#6F2E17"/>
<path d="M6.4492 31.1259C6.45916 30.9549 6.47243 30.7805 6.48238 30.6095C6.11411 30.8476 5.76906 31.0856 5.44392 31.3204C5.43397 31.5014 5.42402 31.6792 5.41406 31.8569C5.7392 31.6154 6.08093 31.374 6.4492 31.1259Z" fill="#6F2E17"/>
<path d="M42.5823 53.5052C42.5359 53.8136 42.4828 54.1657 42.4297 54.5547C42.5989 54.5245 42.7714 54.4943 42.9473 54.4641C42.997 54.1154 43.0501 53.7667 43.0999 53.418C42.924 53.4481 42.7515 53.475 42.5823 53.5052Z" fill="#6F2E17"/>
<path d="M65.8398 31.4374C65.873 31.5749 65.9095 31.7157 65.9427 31.8532C66.2313 31.7694 66.5532 31.6621 66.8916 31.5413C66.8584 31.4039 66.8219 31.2664 66.7887 31.1289C66.447 31.253 66.1318 31.3569 65.8398 31.4407V31.4374Z" fill="#6F2E17"/>
<path d="M58.6872 13.8438C59.2048 14.397 59.6493 14.9168 60.0408 15.413C60.5717 15.7685 61.2319 15.9998 61.8722 16.2279C61.7428 16.03 61.6068 15.8322 61.4608 15.6276C60.8404 15.3963 60.2797 15.1414 59.8849 14.7458C59.3673 14.2227 59.0156 13.6761 58.8232 13.096C58.9393 13.0625 59.082 13.0189 59.2412 12.9753C59.1318 12.8613 59.0223 12.7439 58.9062 12.6266C58.8398 12.6467 58.7734 12.6635 58.717 12.6836C58.7005 12.5897 58.6905 12.4925 58.6805 12.3986C58.6573 12.3751 58.6374 12.355 58.6175 12.3349C58.5014 12.2175 58.3687 12.0934 58.2293 11.9727C58.2161 12.6333 58.3654 13.257 58.6839 13.8538L58.6872 13.8438Z" fill="#6F2E17"/>
<path d="M12.6727 49.7191C12.6262 49.5783 12.5765 49.4408 12.5267 49.3C12.175 49.3 11.8167 49.2865 11.4551 49.2664C11.5082 49.4073 11.5579 49.5514 11.611 49.6923C11.9295 49.709 12.248 49.7191 12.5566 49.7191C12.5964 49.7191 12.6362 49.7191 12.676 49.7191H12.6727Z" fill="#6F2E17"/>
<path d="M28.834 53.5752V54.6247C28.9999 54.675 29.1658 54.7287 29.3316 54.7857V53.7261C29.1658 53.6724 28.9999 53.6221 28.834 53.5752Z" fill="#6F2E17"/>
<path d="M25.8449 53.3301C25.6857 53.3502 25.5231 53.3703 25.3506 53.3971C25.4004 53.7291 25.4501 54.0611 25.4966 54.393C25.6691 54.3662 25.835 54.3461 25.9909 54.326C25.9378 53.9538 25.8881 53.6184 25.8449 53.3301Z" fill="#6F2E17"/>
<path d="M63.1895 21.7273C63.2193 21.8246 63.2492 21.9185 63.279 22.0191C63.2923 22.0627 63.3089 22.113 63.3222 22.1565C63.6373 21.9386 63.916 21.7106 64.1549 21.4725C64.1052 21.3149 64.0587 21.1607 64.0089 21.0098C63.7667 21.278 63.4847 21.5161 63.1895 21.7273Z" fill="#6F2E17"/>
<path d="M40.2105 20.0735C41.3795 20.0735 42.3272 18.5843 42.3272 16.7472C42.3272 14.9101 41.3795 13.4209 40.2105 13.4209C39.0414 13.4209 38.0938 14.9101 38.0938 16.7472C38.0938 18.5843 39.0414 20.0735 40.2105 20.0735Z" fill="#6F2E17"/>
<path d="M48.2896 20.0735C49.4586 20.0735 50.4063 18.5843 50.4063 16.7472C50.4063 14.9101 49.4586 13.4209 48.2896 13.4209C47.1205 13.4209 46.1729 14.9101 46.1729 16.7472C46.1729 18.5843 47.1205 20.0735 48.2896 20.0735Z" fill="#6F2E17"/>
<path d="M37.7618 29.5264C38.0438 29.5264 38.286 29.7444 38.3026 30.0328C38.4586 32.4638 39.7293 34.4321 41.2123 34.4321C42.6954 34.4321 43.9661 32.4638 44.122 30.0328C44.1419 29.7477 44.3808 29.5264 44.6628 29.5264C44.9813 29.5264 45.2268 29.8014 45.2069 30.1233C45.0145 33.2015 43.3257 35.5353 41.209 35.5353C39.0923 35.5353 37.4068 33.2015 37.2111 30.1233C37.1912 29.8014 37.4367 29.5264 37.7552 29.5264H37.7618Z" fill="#6F2E17"/>
</g>
<defs>
<clipPath id="clip0_946_4621">
<rect width="76" height="66" fill="white"/>
</clipPath>
</defs>
</svg>
