<svg width="162" height="142" viewBox="0 0 162 142" fill="none" xmlns="http://www.w3.org/2000/svg">
<g clip-path="url(#clip0_411_2099)">
<path d="M30.0759 30.42C40.8538 20.291 58.8239 3.58983 68.4066 1.54817C77.9892 -0.493493 123.109 17.8382 132.692 27.6136C142.274 37.389 142.67 42.2732 145.471 50.8294C148.271 59.3856 149.064 65.0849 150.662 70.7843C152.26 76.4836 138.682 94.8153 136.291 99.7066C133.901 104.598 133.894 107.448 130.704 110.297C127.515 113.147 100.358 115.593 92.3738 118.038C84.3894 120.484 85.1886 119.669 80.3937 119.669C75.5989 119.669 70.8111 116.004 65.6202 116.004C60.4293 116.004 46.6104 120.635 40.1395 117.05C34.4394 113.883 35.2739 104.194 30.083 99.7138C24.8921 95.2337 24.093 94.4185 21.6955 86.2735C19.2981 78.1285 22.4947 47.1717 24.8921 41.0611C27.2895 34.9506 30.083 30.4272 30.083 30.4272L30.0759 30.42Z" fill="#ffba0a"/>
<path d="M125.57 27.1592C125.414 26.9932 125.252 26.8273 125.089 26.6614C125.11 26.8706 125.124 27.0726 125.167 27.2746C125.287 27.2385 125.429 27.1952 125.57 27.152V27.1592Z" fill="black"/>
<path d="M17.3814 41.1332C19.503 35.7296 21.9641 31.5381 22.4167 30.7878C31.6317 22.1234 50.6131 4.30395 60.1321 2.27672C69.2551 0.343275 114.226 18.6461 123.448 28.0536C124.035 28.6524 124.573 29.2223 125.089 29.785C124.417 28.5081 124.092 27.1662 124.12 25.7378C112.869 15.6305 69.2127 -1.87153 59.7007 0.162916C49.5664 2.32001 30.8962 19.8653 20.868 29.3017L20.7619 29.4027L20.6841 29.5253C20.5709 29.7129 17.8128 34.2074 15.4083 40.3396C13.909 44.1632 12.2542 56.2977 11.5965 67.4006C12.2895 66.8956 13.0321 66.3834 13.81 65.8712C14.5102 55.5042 16.0307 44.5889 17.3744 41.1476L17.3814 41.1332Z" fill="black"/>
<path d="M141.15 70.7554C142.182 74.4491 135.032 85.6963 130.761 92.4201C128.951 95.2697 127.515 97.5278 126.843 98.8986C126.016 100.594 125.464 102.044 124.983 103.321C124.078 105.716 123.427 107.44 121.504 109.157C119.877 110.607 109.219 112.231 100.655 113.544C97.5717 114.013 94.559 114.474 91.8646 114.929C91.7514 115.679 91.6453 116.429 91.5392 117.18C94.3822 116.689 97.6283 116.191 100.966 115.686C113.314 113.803 120.952 112.534 122.897 110.788C125.209 108.725 125.98 106.683 126.956 104.1C127.423 102.866 127.953 101.467 128.738 99.8653C129.361 98.6028 130.832 96.287 132.536 93.596C139.071 83.3156 144.382 74.4491 143.18 70.1638C142.967 69.3991 142.769 68.6272 142.571 67.8552C141.85 68.1149 141.171 68.353 140.549 68.5262C140.733 69.2692 140.924 70.0123 141.136 70.7554H141.15Z" fill="black"/>
<path d="M74.545 118.334C73.8661 118.298 73.0245 118.254 71.893 118.254C69.736 118.254 67.5154 117.425 65.1674 116.545C64.2976 116.22 63.4136 115.888 62.5225 115.6V117.879C63.1661 118.103 63.8025 118.341 64.439 118.579C66.8577 119.488 69.3612 120.426 71.893 120.426C72.9679 120.426 73.7459 120.469 74.4319 120.505C74.9693 120.534 75.4432 120.563 75.917 120.563C77.4729 120.563 79.0782 120.289 83.3851 118.998V116.739C77.586 118.507 76.7374 118.464 74.545 118.348V118.334Z" fill="black"/>
<path d="M50.1535 115.549C44.3049 116.61 36.2993 118.067 32.148 115.766C29.496 114.294 28.3927 111.04 27.2258 107.599C27.1551 107.39 27.0844 107.181 27.0137 106.971C26.9288 106.971 26.8439 106.971 26.7591 106.971C26.1014 106.971 25.4224 106.95 24.7435 106.914C24.9062 107.375 25.0688 107.837 25.2244 108.306C26.4691 111.985 27.7633 115.794 31.1367 117.663C35.9386 120.325 44.0291 118.861 50.5283 117.677C51.9215 117.425 53.2228 117.187 54.3543 117.021C54.2553 116.307 54.1492 115.592 54.0431 114.878C52.8692 115.051 51.5608 115.289 50.1535 115.549Z" fill="black"/>
<path d="M136.44 45.202C135.337 41.6453 134.226 38.5143 131.885 34.9071C130.513 34.4238 129.113 33.926 127.982 33.1541C131.97 38.233 133.257 42.0493 134.693 46.7459C135.322 46.2914 135.924 45.7792 136.44 45.202Z" fill="black"/>
<path d="M52.473 94.0216H52.5296C52.5155 93.935 52.5013 93.8557 52.4872 93.7763C52.6498 91.41 52.1194 89.0293 51.6951 87.0742C51.6315 86.7928 51.5749 86.5187 51.5183 86.2517C50.4999 81.4686 45.3727 78.72 37.4519 78.72C30.8891 78.72 16.8439 81.3893 16.7025 81.4181L16.8651 82.2983C17.0066 82.2694 30.9739 79.6145 37.4519 79.6145C40.9809 79.6145 49.3401 80.2783 50.6555 86.4393C50.7121 86.7063 50.7757 86.9876 50.8394 87.269C51.1435 88.6325 51.4759 90.1547 51.5961 91.6986C48.5197 87.4349 39.4109 87.8894 38.9654 87.9183L39.0149 88.8128C39.128 88.8128 50.3656 88.2429 51.6032 93.8412C51.4476 95.7098 50.8182 97.5206 49.2765 99.0572C47.4801 93.1631 36.3841 93.7186 35.889 93.7475L35.9385 94.642C36.0517 94.642 47.3387 94.0649 48.5339 99.7137C47.855 100.255 47.0417 100.745 46.0657 101.193C40.6273 103.66 34.4039 106.084 26.6953 106.07C26.8014 106.373 26.9075 106.668 27.0065 106.971C34.7221 106.921 40.9597 104.49 46.4193 102.015C50.7404 100.053 52.1972 97.0733 52.466 94.0216H52.473Z" fill="black"/>
<path d="M135.74 28.3784L136.03 27.5127C135.888 27.4622 132.557 26.3079 130.259 26.3079C128.752 26.3079 126.793 26.7984 125.57 27.1592C125.817 27.4117 126.051 27.6642 126.284 27.9094C127.451 27.592 129.049 27.2241 130.259 27.2241C132.402 27.2241 135.704 28.3639 135.74 28.3784Z" fill="black"/>
<path d="M138.13 40.787C138.25 42.5329 137.529 43.9974 136.447 45.2022C136.546 45.5341 136.652 45.8659 136.758 46.1978C138.392 44.5601 139.17 42.6988 139.035 40.7221C138.731 36.3502 135.259 35.1238 132.19 34.0416C131.793 33.9045 131.405 33.7603 131.023 33.616C131.334 34.056 131.624 34.4817 131.9 34.9073C134.976 35.9967 137.875 37.0211 138.137 40.787H138.13Z" fill="black"/>
<path d="M127.982 33.1541C127.147 32.0936 126.192 30.9754 125.096 29.7778C125.57 30.6724 126.207 31.5309 127.02 32.3606C127.31 32.6564 127.635 32.9161 127.982 33.1469V33.1541Z" fill="black"/>
<path d="M61.4617 140.482C61.4617 140.713 61.3132 140.908 61.1293 140.908H33.5553C33.3502 140.908 33.1522 140.77 33.0461 140.554C31.8226 138.094 31.8014 134.992 32.9895 133.015C33.4845 132.2 34.411 131.219 36.0234 131.219C38.8947 131.219 42.5792 132.539 45.5354 133.599C46.9922 134.119 48.251 134.573 49.1633 134.775C51.1859 135.223 55.6201 135.295 56.7163 133.441C57.4589 132.185 56.2283 122.626 55.4009 116.884C55.0685 116.927 54.722 116.97 54.3472 117.028C55.4292 124.618 56.2142 132.027 55.804 132.885C55.1746 133.939 51.6881 134.234 49.3826 133.722C48.5339 133.535 47.3104 133.094 45.8819 132.582C42.848 131.493 39.0715 130.144 36.0163 130.144C34.3756 130.144 32.9754 130.966 32.0843 132.452C30.7123 134.732 30.7194 138.267 32.0984 141.045C32.3884 141.629 32.9471 141.997 33.5553 141.997H61.1293C61.9001 141.997 62.5225 141.319 62.5225 140.489V117.879C62.1689 117.757 61.8153 117.641 61.4617 117.533V140.489V140.482Z" fill="black"/>
<path d="M89.1984 133.441C90.2945 135.295 94.7358 135.223 96.7513 134.775C97.6636 134.573 98.9225 134.126 100.379 133.6C103.335 132.539 107.02 131.219 109.891 131.219C111.504 131.219 112.43 132.193 112.925 133.015C114.113 134.992 114.092 138.094 112.869 140.554C112.763 140.771 112.564 140.908 112.359 140.908H84.7854C84.6086 140.908 84.453 140.713 84.453 140.482V118.666C84.3611 118.695 84.2691 118.716 84.1843 118.745C83.9084 118.832 83.6468 118.911 83.3922 118.983V140.482C83.3922 141.312 84.0145 141.99 84.7854 141.99H112.359C112.968 141.99 113.526 141.629 113.816 141.038C115.195 138.26 115.202 134.725 113.83 132.445C112.932 130.959 111.539 130.137 109.898 130.137C106.843 130.137 103.067 131.486 100.033 132.575C98.6113 133.087 97.3807 133.527 96.5321 133.715C94.2195 134.227 90.733 133.931 90.1107 132.885C89.7005 132.027 90.4713 124.711 91.5463 117.18C91.1715 117.245 90.8037 117.31 90.443 117.374C89.6227 123.153 88.477 132.222 89.1984 133.441Z" fill="black"/>
<path d="M161.715 32.2669C160.718 26.0192 156.984 22.3183 153.469 19.5263C150.103 16.8498 142.083 13.1561 134.898 14.6206C129.509 15.7172 126.065 18.4442 124.672 22.7223C124.332 23.7684 124.156 24.7712 124.134 25.7379C124.431 26.0048 124.707 26.2645 124.962 26.517C125.011 26.5675 125.054 26.6108 125.096 26.6541C124.983 25.5647 125.096 24.4321 125.457 23.2345C126.305 22.9604 128.929 22.174 130.718 22.174C132.861 22.174 136.164 23.3139 136.199 23.3283L136.489 22.4626C136.348 22.4121 133.017 21.2578 130.718 21.2578C129.141 21.2578 127.048 21.7989 125.846 22.1596C127.303 18.7039 130.4 16.4747 135.075 15.5152C141.595 14.1877 149.431 17.4775 152.918 20.2406C157.713 24.0425 160.082 27.6785 160.831 32.4039C161.729 38.0239 160.308 48.4198 157.96 53.3905C155.004 59.6597 151.532 62.9639 144.7 66.0084C143.872 66.3763 143.095 66.6937 142.373 66.9607C142.444 67.2565 142.522 67.5522 142.592 67.848C143.363 67.5667 144.169 67.2492 145.061 66.8524C152.119 63.6998 155.711 60.2874 158.773 53.7873C161.227 48.5929 162.656 38.1321 161.722 32.2597L161.715 32.2669Z" fill="black"/>
<path d="M15.1467 104.317C-0.489624 99.685 0.931864 86.5404 0.946008 86.4106C0.98844 86.0715 1.01673 85.6747 1.04502 85.2635C1.26425 82.0315 1.68857 75.9426 11.54 68.5478C11.5612 68.1655 11.5824 67.7759 11.6036 67.3936C0.85407 75.2139 0.401458 81.7573 0.16808 85.1986C0.139791 85.617 0.118575 85.9777 0.0761427 86.2951C-0.192596 88.4883 0.196368 92.0811 2.10583 95.5944C4.58813 100.168 8.89502 103.393 14.8992 105.175C18.4282 106.221 21.6955 106.755 24.7435 106.914C24.6375 106.604 24.5243 106.301 24.4111 105.998C21.5328 105.817 18.4565 105.291 15.1467 104.309V104.317Z" fill="black"/>
<path d="M84.4459 118.666V116.422C84.1348 116.501 83.8377 116.588 83.569 116.667C83.5054 116.689 83.4488 116.703 83.3851 116.725V118.983C83.6397 118.904 83.9014 118.824 84.1772 118.745C84.2621 118.716 84.3611 118.695 84.4459 118.666Z" fill="black"/>
<path d="M13.7463 66.9677C13.7676 66.5998 13.7958 66.2246 13.8171 65.8567C13.0321 66.3689 12.2966 66.8811 11.6035 67.3861C11.5823 67.7757 11.5611 68.1581 11.5399 68.5404C12.2329 68.021 12.9613 67.5016 13.7463 66.9677Z" fill="black"/>
<path d="M90.7683 115.116C90.6693 115.78 90.5562 116.538 90.443 117.374C90.8037 117.309 91.1714 117.245 91.5463 117.18C91.6523 116.429 91.7655 115.679 91.8716 114.929C91.4968 114.994 91.129 115.051 90.7683 115.116Z" fill="black"/>
<path d="M140.344 67.6388C140.414 67.9346 140.492 68.2376 140.563 68.5334C141.178 68.353 141.864 68.1222 142.585 67.8625C142.515 67.5667 142.437 67.2709 142.366 66.9751C141.638 67.242 140.966 67.4657 140.344 67.646V67.6388Z" fill="black"/>
<path d="M125.096 29.7851C126.2 30.9755 127.147 32.0937 127.982 33.1614C129.113 33.9262 130.521 34.424 131.885 34.9145C131.61 34.4889 131.32 34.0632 131.009 33.6232C129.686 33.1254 128.491 32.5771 127.649 31.7258C126.546 30.6003 125.796 29.4244 125.386 28.1763C125.634 28.1042 125.938 28.0104 126.277 27.9166C126.044 27.6713 125.811 27.4188 125.563 27.1663C125.422 27.2096 125.28 27.2457 125.16 27.289C125.125 27.087 125.103 26.8777 125.082 26.6757C125.033 26.6252 124.99 26.582 124.948 26.5387C124.7 26.2862 124.417 26.0192 124.12 25.7595C124.092 27.1807 124.41 28.5226 125.089 29.8068L125.096 29.7851Z" fill="black"/>
<path d="M27.0135 106.971C26.9145 106.668 26.8084 106.372 26.7023 106.069C25.9527 106.069 25.1889 106.041 24.4181 105.997C24.5312 106.3 24.6373 106.611 24.7504 106.914C25.4294 106.95 26.1083 106.971 26.766 106.971C26.8509 106.971 26.9357 106.971 27.0206 106.971H27.0135Z" fill="black"/>
<path d="M61.4617 115.268V117.526C61.8153 117.634 62.1689 117.75 62.5225 117.872V115.592C62.1689 115.477 61.8153 115.369 61.4617 115.268Z" fill="black"/>
<path d="M55.0897 114.741C54.7503 114.784 54.4038 114.828 54.036 114.885C54.1421 115.6 54.2482 116.314 54.3472 117.028C54.7149 116.97 55.0685 116.927 55.4009 116.884C55.2878 116.083 55.1817 115.362 55.0897 114.741Z" fill="black"/>
<path d="M134.693 46.746C134.757 46.9552 134.82 47.1572 134.884 47.3737C134.912 47.4675 134.948 47.5757 134.976 47.6695C135.648 47.2005 136.242 46.7099 136.751 46.1977C136.645 45.8587 136.546 45.5268 136.44 45.2021C135.924 45.7793 135.322 46.2915 134.693 46.746Z" fill="black"/>
<path d="M85.7119 43.1892C88.2038 43.1892 90.2239 39.9851 90.2239 36.0326C90.2239 32.0801 88.2038 28.876 85.7119 28.876C83.22 28.876 81.1999 32.0801 81.1999 36.0326C81.1999 39.9851 83.22 43.1892 85.7119 43.1892Z" fill="black"/>
<path d="M102.932 43.1892C105.424 43.1892 107.444 39.9851 107.444 36.0326C107.444 32.0801 105.424 28.876 102.932 28.876C100.44 28.876 98.4203 32.0801 98.4203 36.0326C98.4203 39.9851 100.44 43.1892 102.932 43.1892Z" fill="black"/>
<path d="M80.4927 63.5266C81.0938 63.5266 81.61 63.9955 81.6454 64.616C81.9778 69.8464 84.6864 74.0812 87.8476 74.0812C91.0088 74.0812 93.7174 69.8464 94.0498 64.616C94.0923 64.0028 94.6014 63.5266 95.2026 63.5266C95.8815 63.5266 96.4048 64.1182 96.3624 64.8108C95.9522 71.4335 92.3525 76.4547 87.8405 76.4547C83.3286 76.4547 79.7359 71.4335 79.3187 64.8108C79.2763 64.1182 79.7996 63.5266 80.4785 63.5266H80.4927Z" fill="black"/>
</g>
<defs>
<clipPath id="clip0_411_2099">
<rect width="162" height="142" fill="white"/>
</clipPath>
</defs>
</svg>
