<svg width="200" height="174" viewBox="0 0 78 68" fill="none" xmlns="http://www.w3.org/2000/svg">
<g clip-path="url(#clip0_1859_15304)">
<path d="M63.5191 14.5673C58.3297 9.7168 49.6774 1.71904 45.0636 0.741342C40.4497 -0.236355 18.7253 8.54218 14.1115 13.2234C9.49759 17.9046 9.3069 20.2434 7.9585 24.3408C6.61009 28.4381 6.22872 31.1674 5.45918 33.8966C4.68963 36.6259 11.2274 45.4044 12.3783 47.7468C13.5292 50.0891 13.5326 51.4537 15.0683 52.8184C16.604 54.183 29.6795 55.3541 33.5238 56.5253C37.3681 57.6965 36.9833 57.3061 39.292 57.3061C41.6006 57.3061 43.9058 55.5511 46.4052 55.5511C48.9045 55.5511 55.558 57.769 58.6736 56.052C61.4181 54.5354 61.0163 49.8956 63.5157 47.7502C66.015 45.6048 66.3997 45.2144 67.5541 41.314C68.7084 37.4136 67.1693 22.5892 66.015 19.663C64.8607 16.7369 63.5157 14.5707 63.5157 14.5707L63.5191 14.5673Z" fill="#FFBA0A"/>
<path d="M17.5399 13.006C17.6149 12.9265 17.6932 12.847 17.7715 12.7676C17.7613 12.8678 17.7545 12.9645 17.734 13.0612C17.6761 13.044 17.608 13.0232 17.5399 13.0025V13.006Z" fill="black"/>
<path d="M69.6307 19.6976C68.6091 17.11 67.4242 15.1028 67.2063 14.7435C62.7694 10.5943 53.6302 2.06105 49.047 1.09026C44.6545 0.164385 23.0016 8.9291 18.5614 13.4341C18.2788 13.7209 18.02 13.9938 17.7714 14.2633C18.0949 13.6518 18.2515 13.0092 18.2379 12.3251C23.6554 7.48502 44.6749 -0.896225 49.2547 0.0780163C54.1342 1.11099 63.1236 9.51296 67.952 14.0318L68.003 14.0801L68.0405 14.1389C68.095 14.2287 69.423 16.381 70.5807 19.3176C71.3026 21.1486 72.0993 26.9595 72.416 32.2764C72.0823 32.0345 71.7248 31.7892 71.3502 31.5439C71.0131 26.5795 70.281 21.3524 69.6341 19.7045L69.6307 19.6976Z" fill="black"/>
<path d="M10.0392 33.883C9.54206 35.6518 12.9846 41.0378 15.0413 44.2576C15.913 45.6222 16.6042 46.7036 16.9277 47.36C17.3261 48.1718 17.5917 48.8662 17.8232 49.4777C18.259 50.6247 18.5723 51.4504 19.4985 52.2726C20.2817 52.967 25.4131 53.7444 29.5366 54.3731C31.0213 54.5977 32.4718 54.8188 33.7692 55.0364C33.8236 55.3957 33.8747 55.755 33.9258 56.1143C32.5569 55.8794 30.994 55.641 29.3868 55.3992C23.4416 54.4975 19.7641 53.8895 18.8277 53.0534C17.7142 52.0653 17.3431 51.0877 16.8732 49.8508C16.6484 49.2601 16.3931 48.5899 16.0151 47.8229C15.7155 47.2183 15.0072 46.1093 14.1866 44.8207C11.0403 39.8977 8.48308 35.6518 9.06194 33.5997C9.16409 33.2335 9.25943 32.8638 9.35478 32.4941C9.70209 32.6185 10.029 32.7325 10.3286 32.8154C10.2401 33.1713 10.1482 33.5271 10.046 33.883H10.0392Z" fill="black"/>
<path d="M42.1079 56.6668C42.4347 56.6495 42.84 56.6288 43.3848 56.6288C44.4233 56.6288 45.4925 56.2315 46.623 55.81C47.0418 55.6545 47.4674 55.4956 47.8965 55.3574V56.4491C47.5866 56.5562 47.2802 56.6702 46.9737 56.7842C45.8092 57.2195 44.6038 57.6687 43.3848 57.6687C42.8672 57.6687 42.4926 57.6894 42.1623 57.7067C41.9036 57.7205 41.6754 57.7343 41.4473 57.7343C40.6982 57.7343 39.9252 57.603 37.8515 56.9846V55.9033C40.6437 56.7497 41.0523 56.729 42.1079 56.6737V56.6668Z" fill="black"/>
<path d="M53.8515 55.3326C56.6675 55.8405 60.522 56.5383 62.5208 55.4363C63.7977 54.7315 64.3289 53.1734 64.8908 51.5255C64.9248 51.4253 64.9589 51.3251 64.9929 51.2249C65.0338 51.2249 65.0746 51.2249 65.1155 51.2249C65.4322 51.2249 65.7591 51.2145 66.0859 51.1973C66.0076 51.4184 65.9293 51.6395 65.8544 51.864C65.2551 53.626 64.632 55.4501 63.0078 56.3449C60.6957 57.6197 56.8003 56.9183 53.671 56.3518C53.0002 56.2308 52.3737 56.1168 51.8289 56.0374C51.8766 55.6954 51.9276 55.3533 51.9787 55.0113C52.544 55.0942 53.1739 55.2082 53.8515 55.3326Z" fill="black"/>
<path d="M12.3064 21.6464C12.8376 19.9432 13.3722 18.4438 14.4993 16.7165C15.1599 16.485 15.8341 16.2466 16.3789 15.877C14.4584 18.3091 13.8387 20.1367 13.1475 22.3857C12.8444 22.1681 12.555 21.9228 12.3064 21.6464Z" fill="black"/>
<path d="M52.7361 45.0248H52.7089C52.7157 44.9833 52.7225 44.9453 52.7293 44.9073C52.651 43.7742 52.9064 42.6341 53.1107 41.6979C53.1413 41.5631 53.1686 41.4319 53.1958 41.304C53.6861 39.0135 56.1548 37.6973 59.9685 37.6973C63.1284 37.6973 69.8909 38.9755 69.959 38.9893L69.8807 39.4108C69.8126 39.397 63.0875 38.1257 59.9685 38.1257C58.2694 38.1257 54.2446 38.4435 53.6112 41.3939C53.584 41.5217 53.5533 41.6564 53.5227 41.7912C53.3763 42.4441 53.2162 43.1731 53.1584 43.9124C54.6396 41.8706 59.0253 42.0883 59.2398 42.1021L59.216 42.5305C59.1615 42.5305 53.7508 42.2575 53.155 44.9384C53.2299 45.8332 53.5329 46.7004 54.2752 47.4362C55.1401 44.6137 60.4827 44.8797 60.721 44.8935L60.6972 45.3219C60.6427 45.3219 55.2082 45.0455 54.6328 47.7506C54.9596 48.0097 55.3512 48.2446 55.8211 48.4588C58.4396 49.6404 61.4361 50.8012 65.1476 50.7943C65.0965 50.9394 65.0455 51.081 64.9978 51.2261C61.2829 51.2019 58.2796 50.0377 55.6509 48.8527C53.5704 47.913 52.8689 46.4862 52.7395 45.0248H52.7361Z" fill="black"/>
<path d="M12.6445 13.5892L12.5049 13.1746C12.573 13.1504 14.1768 12.5977 15.2835 12.5977C16.0087 12.5977 16.9519 12.8326 17.541 13.0053C17.4218 13.1262 17.3095 13.2471 17.1971 13.3646C16.6353 13.2126 15.8657 13.0364 15.2835 13.0364C14.2517 13.0364 12.6615 13.5823 12.6445 13.5892Z" fill="black"/>
<path d="M11.492 19.5317C11.4341 20.3677 11.7814 21.0691 12.3024 21.646C12.2547 21.8049 12.2036 21.9638 12.1525 22.1228C11.366 21.3385 10.9914 20.4472 11.0561 19.5006C11.2025 17.407 12.8744 16.8197 14.3522 16.3015C14.5429 16.2358 14.7302 16.1668 14.9141 16.0977C14.7642 16.3084 14.6246 16.5122 14.4918 16.7161C13.0106 17.2377 11.6145 17.7283 11.4886 19.5317H11.492Z" fill="black"/>
<path d="M16.3783 15.8766C16.7801 15.3687 17.2398 14.8333 17.7676 14.2598C17.5394 14.6882 17.233 15.0993 16.8414 15.4966C16.7018 15.6382 16.5452 15.7626 16.3783 15.8731V15.8766Z" fill="black"/>
<path d="M48.4069 67.2732C48.4069 67.3837 48.4784 67.477 48.567 67.477H61.8433C61.9421 67.477 62.0374 67.4114 62.0885 67.3077C62.6776 66.1296 62.6878 64.6441 62.1158 63.6975C61.8774 63.3071 61.4313 62.8373 60.655 62.8373C59.2725 62.8373 57.4985 63.4695 56.0752 63.9773C55.3737 64.2261 54.7676 64.4437 54.3284 64.5405C53.3545 64.7547 51.2195 64.7892 50.6917 63.9013C50.3342 63.3002 50.9267 58.7226 51.3251 55.9727C51.4851 55.9934 51.652 56.0141 51.8324 56.0418C51.3115 59.6762 50.9335 63.2242 51.131 63.6353C51.434 64.1397 53.1127 64.2813 54.2228 64.0361C54.6314 63.9462 55.2205 63.7355 55.9083 63.4902C57.3691 62.9685 59.1874 62.3225 60.6584 62.3225C61.4484 62.3225 62.1226 62.7163 62.5516 63.428C63.2122 64.5197 63.2088 66.2126 62.5448 67.5426C62.4052 67.8225 62.1362 67.9987 61.8433 67.9987H48.567C48.1958 67.9987 47.8962 67.6739 47.8962 67.2766V56.4494C48.0664 56.3907 48.2367 56.3354 48.4069 56.2836V67.2766V67.2732Z" fill="black"/>
<path d="M35.0521 63.9003C34.5243 64.7882 32.3859 64.7536 31.4155 64.5394C30.9762 64.4427 30.3701 64.2285 29.6687 63.9763C28.2453 63.4685 26.4713 62.8362 25.0888 62.8362C24.3125 62.8362 23.8664 63.3026 23.6281 63.6965C23.056 64.6431 23.0662 66.1286 23.6553 67.3067C23.7064 67.4103 23.8017 67.476 23.9005 67.476H37.1769C37.262 67.476 37.3369 67.3827 37.3369 67.2722V56.825C37.3812 56.8388 37.4254 56.8491 37.4663 56.863C37.5991 56.9044 37.7251 56.9424 37.8477 56.977V67.2722C37.8477 67.6694 37.548 67.9942 37.1769 67.9942H23.9005C23.6076 67.9942 23.3386 67.8215 23.199 67.5382C22.535 66.2081 22.5316 64.5153 23.1922 63.4236C23.6247 62.7119 24.2955 62.318 25.0854 62.318C26.5564 62.318 28.3747 62.9641 29.8355 63.4857C30.5199 63.731 31.1124 63.9418 31.521 64.0316C32.6345 64.2769 34.3132 64.1352 34.6128 63.6343C34.8103 63.2232 34.4392 59.72 33.9216 56.1133C34.1021 56.1444 34.2791 56.1755 34.4528 56.2066C34.8478 58.9738 35.3994 63.3165 35.0521 63.9003Z" fill="black"/>
<path d="M0.137865 15.4512C0.617981 12.4594 2.41586 10.6871 4.10818 9.35014C5.729 8.06842 9.59035 6.29959 13.0499 7.0009C15.6446 7.52602 17.3028 8.83192 17.9736 10.8806C18.1371 11.3815 18.2222 11.8617 18.2324 12.3247C18.0894 12.4525 17.9566 12.5769 17.834 12.6978C17.8102 12.722 17.7898 12.7427 17.7693 12.7634C17.8238 12.2418 17.7693 11.6994 17.5957 11.1259C17.1871 10.9946 15.9238 10.618 15.0623 10.618C14.0306 10.618 12.4404 11.1639 12.4234 11.1708L12.2838 10.7562C12.3519 10.732 13.9557 10.1793 15.0623 10.1793C15.8216 10.1793 16.8295 10.4384 17.4084 10.6111C16.7069 8.95629 15.2155 7.88877 12.9648 7.42929C9.8253 6.79362 6.05248 8.36899 4.37378 9.69216C2.06514 11.5128 0.924438 13.254 0.563499 15.5169C0.131056 18.2081 0.815474 23.1864 1.94596 25.5668C3.36928 28.569 5.04117 30.1512 8.33047 31.6091C8.72886 31.7853 9.10342 31.9373 9.45074 32.0652C9.41669 32.2068 9.37923 32.3485 9.34518 32.4901C8.97403 32.3554 8.58585 32.2034 8.15681 32.0133C4.75855 30.5036 3.02877 28.8695 1.55438 25.7568C0.372818 23.2694 -0.315006 18.26 0.134462 15.4478L0.137865 15.4512Z" fill="black"/>
<path d="M70.7071 49.9549C78.2357 47.7369 77.5513 41.4424 77.5445 41.3802C77.5241 41.2178 77.5104 41.0278 77.4968 40.8309C77.3913 39.2831 77.187 36.3673 72.4437 32.8262C72.4335 32.6431 72.4233 32.4565 72.4131 32.2734C77.5888 36.0184 77.8067 39.1519 77.9191 40.7998C77.9327 41.0002 77.9429 41.1729 77.9633 41.3249C78.0927 42.3752 77.9054 44.0956 76.9861 45.7781C75.7909 47.9684 73.7172 49.5127 70.8263 50.366C69.1272 50.8669 67.554 51.1226 66.0864 51.1986C66.1375 51.05 66.192 50.9049 66.2465 50.7598C67.6323 50.6735 69.1135 50.4213 70.7071 49.9514V49.9549Z" fill="black"/>
<path d="M37.3408 56.8264V55.752C37.4906 55.79 37.6336 55.8314 37.763 55.8694C37.7937 55.8798 37.8209 55.8867 37.8516 55.8971V56.9784C37.729 56.9404 37.603 56.9024 37.4702 56.8644C37.4293 56.8506 37.3817 56.8402 37.3408 56.8264Z" fill="black"/>
<path d="M71.381 32.0691C71.3708 31.8929 71.3571 31.7133 71.3469 31.5371C71.7249 31.7824 72.079 32.0277 72.4127 32.2695C72.4229 32.4561 72.4331 32.6392 72.4434 32.8223C72.1097 32.5735 71.7589 32.3248 71.381 32.0691Z" fill="black"/>
<path d="M34.2965 55.1269C34.3442 55.4448 34.3986 55.8075 34.4531 56.2083C34.2795 56.1772 34.1024 56.1461 33.9219 56.115C33.8709 55.7557 33.8164 55.3964 33.7653 55.0371C33.9458 55.0682 34.1228 55.0958 34.2965 55.1269Z" fill="black"/>
<path d="M10.4277 32.3901C10.3937 32.5318 10.3562 32.6768 10.3222 32.8185C10.0259 32.7321 9.69564 32.6216 9.34833 32.4972C9.38238 32.3556 9.41983 32.2139 9.45388 32.0723C9.80461 32.2001 10.1281 32.3072 10.4277 32.3936V32.3901Z" fill="black"/>
<path d="M17.7675 14.2637C17.2364 14.8337 16.7801 15.3692 16.3783 15.8805C15.8335 16.2467 15.1559 16.4851 14.4987 16.72C14.6315 16.5162 14.7711 16.3124 14.9209 16.1016C15.5577 15.8632 16.1331 15.6007 16.5383 15.193C17.0695 14.6541 17.4304 14.091 17.6279 13.4933C17.5088 13.4587 17.3623 13.4138 17.1989 13.3689C17.3113 13.2514 17.4236 13.1305 17.5428 13.0096C17.6109 13.0303 17.679 13.0476 17.7369 13.0683C17.7539 12.9716 17.7641 12.8714 17.7744 12.7747C17.7982 12.7505 17.8186 12.7298 17.8391 12.7091C17.9582 12.5881 18.0944 12.4603 18.2374 12.3359C18.2511 13.0165 18.0978 13.6591 17.7709 14.2741L17.7675 14.2637Z" fill="black"/>
<path d="M64.9925 51.2262C65.0402 51.0811 65.0913 50.9394 65.1423 50.7943C65.5033 50.7943 65.871 50.7805 66.2422 50.7598C66.1877 50.9049 66.1366 51.0534 66.0821 51.1985C65.7553 51.2158 65.4284 51.2262 65.1117 51.2262C65.0708 51.2262 65.03 51.2262 64.9891 51.2262H64.9925Z" fill="black"/>
<path d="M48.4082 55.1992V56.2806C48.2379 56.3324 48.0677 56.3877 47.8974 56.4464V55.3547C48.0677 55.2994 48.2379 55.2476 48.4082 55.1992Z" fill="black"/>
<path d="M51.4751 54.9473C51.6385 54.968 51.8054 54.9887 51.9824 55.0164C51.9313 55.3584 51.8803 55.7004 51.8326 56.0424C51.6555 56.0148 51.4853 55.9941 51.3252 55.9733C51.3797 55.5899 51.4308 55.2444 51.4751 54.9473Z" fill="black"/>
<path d="M13.1484 22.3858C13.1178 22.486 13.0871 22.5827 13.0565 22.6864C13.0429 22.7313 13.0259 22.7831 13.0122 22.828C12.6888 22.6035 12.4027 22.3685 12.1576 22.1232C12.2086 21.9609 12.2563 21.8019 12.3074 21.6465C12.556 21.9229 12.8454 22.1682 13.1484 22.3858Z" fill="black"/>
<path d="M36.7319 20.6824C35.5321 20.6824 34.5594 19.148 34.5594 17.2552C34.5594 15.3625 35.5321 13.8281 36.7319 13.8281C37.9317 13.8281 38.9043 15.3625 38.9043 17.2552C38.9043 19.148 37.9317 20.6824 36.7319 20.6824Z" fill="black"/>
<path d="M28.4408 20.6824C27.241 20.6824 26.2684 19.148 26.2684 17.2552C26.2684 15.3625 27.241 13.8281 28.4408 13.8281C29.6406 13.8281 30.6133 15.3625 30.6133 17.2552C30.6133 19.148 29.6406 20.6824 28.4408 20.6824Z" fill="black"/>
<path d="M39.2441 30.4219C38.9547 30.4219 38.7061 30.6464 38.6891 30.9435C38.5291 33.4482 37.2249 35.4762 35.7029 35.4762C34.1808 35.4762 32.8767 33.4482 32.7166 30.9435C32.6962 30.6499 32.451 30.4219 32.1616 30.4219C31.8347 30.4219 31.5827 30.7052 31.6032 31.0368C31.8007 34.2083 33.5338 36.6128 35.7063 36.6128C37.8787 36.6128 39.6085 34.2083 39.8094 31.0368C39.8298 30.7052 39.5778 30.4219 39.251 30.4219H39.2441Z" fill="black"/>
</g>
<defs>
<clipPath id="clip0_1859_15304">
<rect width="78" height="68" fill="white" transform="matrix(-1 0 0 1 78 0)"/>
</clipPath>
</defs>
</svg>
