<svg width="43" height="38" viewBox="0 0 43 38" fill="none" xmlns="http://www.w3.org/2000/svg">
<g clip-path="url(#clip0_946_4543)">
<path d="M35.017 8.14042C32.1562 5.42986 27.3864 0.960524 24.8428 0.414164C22.2993 -0.132195 10.323 4.77346 7.77947 7.38942C5.23592 10.0054 5.13081 11.3124 4.38745 13.6021C3.6441 15.8918 3.43386 17.417 3.00962 18.9421C2.58538 20.4673 6.18952 25.373 6.824 26.6819C7.45848 27.9909 7.46035 28.7534 8.30695 29.516C9.15355 30.2786 16.3618 30.9331 18.4811 31.5876C20.6004 32.242 20.3883 32.0239 21.661 32.0239C22.9337 32.0239 24.2046 31.0431 25.5824 31.0431C26.9602 31.0431 30.6282 32.2826 32.3458 31.3231C33.8588 30.4755 33.6373 27.8827 35.0151 26.6838C36.3929 25.4849 36.6051 25.2668 37.2414 23.0871C37.8778 20.9075 37.0293 12.6233 36.3929 10.9881C35.7566 9.35284 35.0151 8.14235 35.0151 8.14235L35.017 8.14042Z" fill="#FFFEFC"/>
<path d="M9.66923 7.26798C9.71053 7.22357 9.7537 7.17917 9.79688 7.13477C9.79124 7.19075 9.78749 7.24481 9.77623 7.29887C9.74431 7.28921 9.70677 7.27763 9.66923 7.26605V7.26798Z" fill="black"/>
<path d="M38.3864 11.0075C37.8232 9.56145 37.17 8.43978 37.0498 8.23899C34.6039 5.92034 29.5656 1.15176 27.039 0.609263C24.6174 0.0918624 12.6806 4.98979 10.2328 7.5073C10.077 7.66754 9.93431 7.82005 9.79728 7.97064C9.97561 7.62892 10.062 7.26983 10.0545 6.88757C13.041 4.1828 24.6287 -0.500832 27.1535 0.0435973C29.8434 0.620847 34.7991 5.31607 37.4609 7.84129L37.4891 7.86832L37.5097 7.90114C37.5398 7.95133 38.2719 9.1541 38.9101 10.7951C39.308 11.8183 39.7473 15.0656 39.9219 18.0368C39.7379 17.9016 39.5408 17.7646 39.3343 17.6275C39.1485 14.8532 38.7449 11.9322 38.3882 11.0113L38.3864 11.0075Z" fill="black"/>
<path d="M5.53391 18.9345C5.25984 19.923 7.15765 22.9328 8.29145 24.7321C8.772 25.4947 9.15306 26.099 9.33139 26.4658C9.55102 26.9195 9.69744 27.3076 9.82508 27.6493C10.0654 28.2902 10.2381 28.7516 10.7486 29.2111C11.1804 29.5992 14.0093 30.0336 16.2825 30.3849C17.1009 30.5104 17.9006 30.634 18.6158 30.7556C18.6458 30.9564 18.674 31.1572 18.7021 31.358C17.9475 31.2267 17.0859 31.0935 16.1999 30.9583C12.9224 30.4544 10.8951 30.1147 10.3788 29.6475C9.76501 29.0953 9.5604 28.5489 9.30135 27.8578C9.17746 27.5277 9.03668 27.1531 8.82831 26.7245C8.66312 26.3867 8.27267 25.7669 7.82028 25.0468C6.08579 22.2957 4.67604 19.923 4.99516 18.7762C5.05147 18.5716 5.10403 18.365 5.1566 18.1584C5.34807 18.2279 5.52827 18.2917 5.69346 18.338C5.64466 18.5368 5.59397 18.7357 5.53766 18.9345H5.53391Z" fill="black"/>
<path d="M23.2131 31.6668C23.3933 31.6571 23.6167 31.6455 23.9171 31.6455C24.4896 31.6455 25.079 31.4235 25.7022 31.188C25.9331 31.1011 26.1678 31.0123 26.4043 30.9351V31.5451C26.2335 31.605 26.0645 31.6687 25.8956 31.7324C25.2536 31.9757 24.5891 32.2266 23.9171 32.2266C23.6317 32.2266 23.4253 32.2382 23.2432 32.2479C23.1005 32.2556 22.9747 32.2633 22.849 32.2633C22.436 32.2633 22.0099 32.1899 20.8667 31.8444V31.2401C22.406 31.7131 22.6312 31.7015 23.2131 31.6706V31.6668Z" fill="black"/>
<path d="M29.688 30.9215C31.2404 31.2053 33.3653 31.5953 34.4672 30.9794C35.1712 30.5856 35.464 29.7149 35.7737 28.794C35.7925 28.738 35.8113 28.682 35.8301 28.626C35.8526 28.626 35.8751 28.626 35.8976 28.626C36.0722 28.626 36.2524 28.6202 36.4326 28.6106C36.3894 28.7342 36.3463 28.8577 36.305 28.9832C35.9746 29.9678 35.6311 30.9872 34.7357 31.4872C33.4611 32.1996 31.3136 31.8077 29.5885 31.4911C29.2187 31.4235 28.8733 31.3598 28.573 31.3154C28.5992 31.1242 28.6274 30.9331 28.6556 30.742C28.9672 30.7883 29.3144 30.852 29.688 30.9215Z" fill="black"/>
<path d="M6.78422 12.0964C7.07706 11.1446 7.37177 10.3068 7.99311 9.34145C8.35727 9.2121 8.72895 9.07889 9.0293 8.87231C7.97058 10.2315 7.62894 11.2527 7.24788 12.5096C7.08081 12.3879 6.92125 12.2509 6.78422 12.0964Z" fill="black"/>
<path d="M29.0718 25.1607H29.0567C29.0605 25.1376 29.0642 25.1163 29.068 25.0951C29.0248 24.4618 29.1656 23.8247 29.2782 23.3016C29.2951 23.2263 29.3102 23.1529 29.3252 23.0815C29.5955 21.8015 30.9564 21.0659 33.0588 21.0659C34.8008 21.0659 38.5289 21.7802 38.5664 21.788L38.5232 22.0235C38.4857 22.0158 34.7783 21.3053 33.0588 21.3053C32.1221 21.3053 29.9033 21.4829 29.5542 23.1317C29.5392 23.2031 29.5223 23.2784 29.5054 23.3537C29.4247 23.7186 29.3364 24.1259 29.3045 24.5391C30.1211 23.3981 32.5389 23.5197 32.6571 23.5274L32.644 23.7668C32.6139 23.7668 29.6311 23.6143 29.3026 25.1125C29.3439 25.6125 29.511 26.0971 29.9202 26.5083C30.397 24.931 33.3423 25.0796 33.4737 25.0874L33.4605 25.3268C33.4305 25.3268 30.4346 25.1723 30.1173 26.684C30.2975 26.8288 30.5134 26.96 30.7725 27.0797C32.216 27.74 33.8679 28.3887 35.914 28.3848C35.8858 28.4659 35.8577 28.5451 35.8314 28.6261C33.7834 28.6126 32.1278 27.962 30.6786 27.2998C29.5317 26.7747 29.145 25.9774 29.0736 25.1607H29.0718Z" fill="black"/>
<path d="M6.97057 7.59412L6.89361 7.36245C6.93115 7.34893 7.81529 7.04004 8.42537 7.04004C8.8252 7.04004 9.34517 7.17132 9.66992 7.26785C9.60422 7.33542 9.54227 7.40299 9.48033 7.46863C9.1706 7.38369 8.74636 7.28523 8.42537 7.28523C7.85659 7.28523 6.97996 7.59026 6.97057 7.59412Z" fill="black"/>
<path d="M6.33611 10.9149C6.3042 11.3821 6.49567 11.774 6.78288 12.0964C6.7566 12.1852 6.72844 12.274 6.70028 12.3628C6.26666 11.9246 6.06017 11.4265 6.09584 10.8975C6.17656 9.72755 7.09824 9.39935 7.91293 9.10976C8.01805 9.07307 8.12129 9.03446 8.22266 8.99585C8.14006 9.11362 8.0631 9.22752 7.98989 9.34143C7.17333 9.63295 6.40369 9.90709 6.33424 10.9149H6.33611Z" fill="black"/>
<path d="M9.03002 8.87227C9.25152 8.58847 9.50494 8.28923 9.7959 7.96875C9.67013 8.20814 9.50118 8.43789 9.28531 8.65991C9.20835 8.73906 9.122 8.80856 9.03002 8.87034V8.87227Z" fill="black"/>
<path d="M26.6862 37.5938C26.6862 37.6556 26.7256 37.7077 26.7744 37.7077H34.0935C34.1479 37.7077 34.2005 37.671 34.2286 37.6131C34.5534 36.9548 34.559 36.1246 34.2436 35.5956C34.1122 35.3775 33.8663 35.1149 33.4383 35.1149C32.6762 35.1149 31.6982 35.4682 30.9136 35.752C30.5269 35.891 30.1927 36.0126 29.9506 36.0667C29.4137 36.1864 28.2367 36.2057 27.9458 35.7095C27.7487 35.3736 28.0753 32.8156 28.2949 31.2788C28.3831 31.2904 28.4751 31.302 28.5746 31.3174C28.2874 33.3484 28.079 35.3311 28.1879 35.5609C28.355 35.8427 29.2804 35.9219 29.8924 35.7848C30.1176 35.7346 30.4424 35.6169 30.8216 35.4798C31.6269 35.1883 32.6293 34.8272 33.4402 34.8272C33.8757 34.8272 34.2474 35.0473 34.4839 35.445C34.8481 36.0551 34.8462 37.0011 34.4801 37.7444C34.4032 37.9008 34.2549 37.9992 34.0935 37.9992H26.7744C26.5698 37.9992 26.4046 37.8178 26.4046 37.5957V31.5452C26.4985 31.5124 26.5923 31.4815 26.6862 31.4526V37.5957V37.5938Z" fill="black"/>
<path d="M19.3241 35.7095C19.0331 36.2056 17.8543 36.1863 17.3193 36.0666C17.0771 36.0126 16.743 35.8929 16.3563 35.752C15.5717 35.4682 14.5937 35.1149 13.8315 35.1149C13.4035 35.1149 13.1576 35.3755 13.0262 35.5956C12.7109 36.1246 12.7165 36.9547 13.0412 37.6131C13.0694 37.671 13.122 37.7077 13.1764 37.7077H20.4954C20.5424 37.7077 20.5837 37.6555 20.5837 37.5937V31.7556C20.6081 31.7633 20.6325 31.7691 20.655 31.7769C20.7282 31.8 20.7977 31.8213 20.8652 31.8406V37.5937C20.8652 37.8158 20.7 37.9972 20.4954 37.9972H13.1764C13.015 37.9972 12.8667 37.9007 12.7897 37.7424C12.4237 36.9991 12.4218 36.0531 12.786 35.4431C13.0244 35.0454 13.3942 34.8253 13.8297 34.8253C14.6406 34.8253 15.643 35.1863 16.4483 35.4778C16.8256 35.6149 17.1522 35.7327 17.3775 35.7828C17.9913 35.9199 18.9167 35.8408 19.0819 35.5608C19.1908 35.3311 18.9862 33.3735 18.7009 31.3579C18.8004 31.3753 18.898 31.3927 18.9937 31.41C19.2115 32.9564 19.5156 35.3832 19.3241 35.7095Z" fill="black"/>
<path d="M0.0755777 8.63489C0.340256 6.96299 1.3314 5.97259 2.26434 5.22545C3.15787 4.5092 5.28656 3.52073 7.19375 3.91264C8.62414 4.20609 9.53832 4.93586 9.90812 6.08071C9.99822 6.36064 10.0451 6.629 10.0508 6.8877C9.97194 6.95913 9.89873 7.02863 9.83115 7.0962C9.81801 7.10971 9.80675 7.1213 9.79549 7.13288C9.82552 6.84136 9.79549 6.53826 9.69975 6.21778C9.4745 6.14442 8.77807 5.93398 8.30315 5.93398C7.73437 5.93398 6.85774 6.23901 6.84835 6.24288L6.77139 6.0112C6.80893 5.99769 7.69307 5.68879 8.30315 5.68879C8.72176 5.68879 9.27739 5.83359 9.59651 5.93012C9.20982 5.00536 8.38762 4.40881 7.14682 4.15204C5.41608 3.79681 3.3362 4.67716 2.41076 5.41658C1.13805 6.43401 0.5092 7.40703 0.310222 8.67157C0.0718231 10.1755 0.449131 12.9575 1.07235 14.2877C1.857 15.9654 2.77868 16.8496 4.59201 17.6643C4.81164 17.7628 5.01813 17.8477 5.2096 17.9191C5.19082 17.9983 5.17018 18.0775 5.1514 18.1566C4.94679 18.0813 4.7328 17.9964 4.49628 17.8902C2.62288 17.0465 1.66928 16.1333 0.856475 14.3939C0.205102 13.0038 -0.174084 10.2045 0.0737009 8.63296L0.0755777 8.63489Z" fill="black"/>
<path d="M38.9796 27.9157C43.13 26.6763 42.7526 23.1587 42.7489 23.124C42.7376 23.0332 42.7301 22.9271 42.7226 22.817C42.6644 21.9521 42.5518 20.3227 39.9369 18.3438C39.9313 18.2415 39.9256 18.1372 39.92 18.0349C42.7733 20.1277 42.8934 21.8787 42.9554 22.7996C42.9629 22.9116 42.9685 23.0081 42.9798 23.0931C43.0511 23.68 42.9479 24.6414 42.441 25.5816C41.7822 26.8056 40.639 27.6686 39.0453 28.1455C38.1086 28.4254 37.2413 28.5683 36.4323 28.6107C36.4604 28.5277 36.4905 28.4466 36.5205 28.3656C37.2845 28.3173 38.1011 28.1764 38.9796 27.9138V27.9157Z" fill="black"/>
<path d="M20.5856 31.7557V31.1553C20.6682 31.1765 20.7471 31.1997 20.8184 31.2209C20.8353 31.2267 20.8503 31.2306 20.8672 31.2364V31.8406C20.7996 31.8194 20.7302 31.7982 20.6569 31.7769C20.6344 31.7692 20.6081 31.7634 20.5856 31.7557Z" fill="black"/>
<path d="M39.3509 17.9208C39.3452 17.8224 39.3377 17.722 39.3321 17.6235C39.5404 17.7606 39.7357 17.8977 39.9196 18.0328C39.9253 18.1371 39.9309 18.2394 39.9365 18.3417C39.7526 18.2027 39.5592 18.0637 39.3509 17.9208Z" fill="black"/>
<path d="M18.9068 30.8058C18.9331 30.9834 18.9631 31.1861 18.9932 31.4101C18.8974 31.3927 18.7998 31.3753 18.7003 31.358C18.6722 31.1572 18.6421 30.9564 18.614 30.7556C18.7135 30.773 18.8111 30.7884 18.9068 30.8058Z" fill="black"/>
<path d="M5.74805 18.1005C5.72928 18.1796 5.70863 18.2607 5.68986 18.3399C5.52654 18.2916 5.34446 18.2298 5.15299 18.1603C5.17176 18.0812 5.19241 18.002 5.21118 17.9229C5.40453 17.9943 5.58286 18.0541 5.74805 18.1024V18.1005Z" fill="black"/>
<path d="M9.79518 7.97059C9.50234 8.28913 9.2508 8.58838 9.0293 8.87411C8.72895 9.07875 8.3554 9.21196 7.99311 9.34324C8.06632 9.22934 8.14328 9.11543 8.22588 8.99766C8.57691 8.86445 8.89414 8.71773 9.11753 8.48992C9.41036 8.18874 9.60934 7.87406 9.71822 7.54006C9.65252 7.52076 9.5718 7.49566 9.48169 7.47056C9.54364 7.40492 9.60559 7.33735 9.67129 7.26978C9.70883 7.28136 9.74637 7.29101 9.77829 7.3026C9.78767 7.24854 9.7933 7.19255 9.79893 7.1385C9.81207 7.12498 9.82334 7.1134 9.8346 7.10182C9.9003 7.03424 9.97539 6.96281 10.0542 6.89331C10.0617 7.27364 9.97726 7.63273 9.79706 7.97638L9.79518 7.97059Z" fill="black"/>
<path d="M35.8296 28.6261C35.8559 28.545 35.8841 28.4659 35.9122 28.3848C36.1112 28.3848 36.3139 28.3771 36.5186 28.3655C36.4885 28.4466 36.4604 28.5296 36.4303 28.6107C36.2501 28.6203 36.0699 28.6261 35.8953 28.6261C35.8728 28.6261 35.8503 28.6261 35.8278 28.6261H35.8296Z" fill="black"/>
<path d="M26.6865 30.8464V31.4507C26.5927 31.4797 26.4988 31.5106 26.405 31.5434V30.9333C26.4988 30.9024 26.5927 30.8735 26.6865 30.8464Z" fill="black"/>
<path d="M28.3775 30.7053C28.4676 30.7169 28.5596 30.7285 28.6572 30.7439C28.6291 30.9351 28.6009 31.1262 28.5746 31.3173C28.477 31.3019 28.3832 31.2903 28.2949 31.2787C28.325 31.0644 28.3531 30.8714 28.3775 30.7053Z" fill="black"/>
<path d="M7.24805 12.5096C7.23115 12.5656 7.21426 12.6196 7.19737 12.6775C7.18986 12.7026 7.18047 12.7316 7.17296 12.7567C6.99463 12.6312 6.83695 12.4999 6.7018 12.3629C6.72995 12.2721 6.75623 12.1833 6.78439 12.0964C6.92142 12.2509 7.08098 12.388 7.24805 12.5096Z" fill="black"/>
<path d="M20.2496 11.5576C19.5882 11.5576 19.052 10.7002 19.052 9.64245C19.052 8.58474 19.5882 7.72729 20.2496 7.72729C20.9111 7.72729 21.4473 8.58474 21.4473 9.64245C21.4473 10.7002 20.9111 11.5576 20.2496 11.5576Z" fill="black"/>
<path d="M15.6784 11.5576C15.0169 11.5576 14.4807 10.7002 14.4807 9.64245C14.4807 8.58474 15.0169 7.72729 15.6784 7.72729C16.3398 7.72729 16.876 8.58474 16.876 9.64245C16.876 10.7002 16.3398 11.5576 15.6784 11.5576Z" fill="black"/>
<path d="M21.635 17C21.4755 17 21.3384 17.1255 21.329 17.2915C21.2408 18.6912 20.5219 19.8245 19.6828 19.8245C18.8437 19.8245 18.1247 18.6912 18.0365 17.2915C18.0252 17.1274 17.8901 17 17.7305 17C17.5503 17 17.4114 17.1583 17.4227 17.3436C17.5316 19.1159 18.487 20.4596 19.6847 20.4596C20.8823 20.4596 21.8359 19.1159 21.9466 17.3436C21.9579 17.1583 21.819 17 21.6388 17H21.635Z" fill="black"/>
</g>
<defs>
<clipPath id="clip0_946_4543">
<rect width="43" height="38" fill="white" transform="matrix(-1 0 0 1 43 0)"/>
</clipPath>
</defs>
</svg>
