<?xml version="1.0" encoding="UTF-8"?>
<svg id="Layer_1" data-name="Layer 1" xmlns="http://www.w3.org/2000/svg" xmlns:xlink="http://www.w3.org/1999/xlink" viewBox="0 0 229.76 200.3">
  <defs>
    <style>
      .cls-1 {
        fill: #ffba0a;
      }

      .cls-2 {
        fill: none;
      }

      .cls-3 {
        clip-path: url(#clippath);
      }
    </style>
    <clipPath id="clippath">
      <rect class="cls-2" width="229.74" height="200.29"/>
    </clipPath>
  </defs>
  <g class="cls-3">
    <g>
      <path class="cls-1" d="M42.65,42.91C57.94,28.62,83.42,5.06,97.01,2.18c13.59-2.88,77.58,22.98,91.17,36.76,13.59,13.79,14.15,20.68,18.12,32.75,3.97,12.07,5.09,20.11,7.36,28.15s-16.99,33.89-20.38,40.79-3.4,10.92-7.92,14.94-43.04,7.47-54.36,10.92c-11.32,3.45-10.19,2.3-16.99,2.3s-13.59-5.17-20.95-5.17-26.96,6.53-36.14,1.48c-8.08-4.47-6.9-18.13-14.26-24.45-7.36-6.32-8.49-7.47-11.89-18.96-3.4-11.49,1.13-55.15,4.53-63.77,3.4-8.62,7.36-15,7.36-15h0,0Z"/>
      <path d="M178.08,38.31c-.22-.23-.45-.47-.68-.7.03.3.05.58.11.86.17-.05.37-.11.57-.17h0Z"/>
      <path d="M24.65,58.02c3.01-7.62,6.5-13.53,7.14-14.59C44.86,31.2,71.78,6.07,85.28,3.21c12.94-2.73,76.71,23.09,89.79,36.36.83.84,1.6,1.65,2.33,2.44-.95-1.8-1.41-3.69-1.37-5.71C160.06,22.05,98.15-2.64,84.66.23c-14.37,3.04-40.85,27.79-55.07,41.1l-.15.14-.11.17c-.16.26-4.07,6.6-7.48,15.25-2.13,5.39-4.47,22.51-5.41,38.17.98-.71,2.04-1.43,3.14-2.16.99-14.62,3.15-30.02,5.05-34.87v-.02h.02Z"/>
      <path d="M200.17,99.8c1.46,5.21-8.67,21.07-14.73,30.56-2.57,4.02-4.6,7.2-5.56,9.14-1.17,2.39-1.96,4.44-2.64,6.24-1.28,3.38-2.21,5.81-4.93,8.23-2.31,2.05-17.42,4.33-29.57,6.19-4.37.66-8.65,1.31-12.47,1.95-.16,1.06-.31,2.12-.46,3.17,4.03-.69,8.63-1.39,13.37-2.11,17.51-2.66,28.34-4.45,31.1-6.91,3.28-2.91,4.37-5.79,5.76-9.43.66-1.74,1.41-3.71,2.53-5.97.88-1.78,2.97-5.05,5.39-8.84,9.27-14.5,16.8-27.01,15.09-33.05-.3-1.08-.58-2.17-.86-3.26-1.02.37-1.99.7-2.87.95.26,1.05.53,2.1.83,3.14h.02,0Z"/>
      <path d="M105.72,166.91c-.96-.05-2.16-.11-3.76-.11-3.06,0-6.21-1.17-9.54-2.41-1.23-.46-2.49-.93-3.75-1.33v3.22c.91.32,1.82.65,2.72.99,3.43,1.28,6.98,2.61,10.57,2.61,1.52,0,2.63.06,3.6.11.76.04,1.43.08,2.11.08,2.21,0,4.48-.39,10.59-2.21v-3.19c-8.22,2.49-9.43,2.43-12.54,2.27v-.02h0Z"/>
      <path d="M71.12,162.98c-8.29,1.5-19.65,3.55-25.53.31-3.76-2.08-5.33-6.66-6.98-11.52-.1-.29-.2-.59-.3-.89h-.36c-.93,0-1.9-.03-2.86-.08.23.65.46,1.3.68,1.96,1.77,5.19,3.6,10.56,8.38,13.2,6.81,3.75,18.28,1.69,27.5.02,1.98-.36,3.82-.69,5.43-.93-.14-1.01-.29-2.01-.44-3.02-1.66.24-3.52.58-5.52.95Z"/>
      <path d="M193.49,63.76c-1.56-5.02-3.14-9.43-6.46-14.52-1.95-.68-3.93-1.38-5.54-2.47,5.66,7.16,7.48,12.55,9.52,19.17.89-.64,1.74-1.36,2.48-2.18Z"/>
      <path d="M74.41,132.62h.08c-.02-.12-.04-.23-.06-.35.23-3.34-.52-6.7-1.12-9.45-.09-.4-.17-.78-.25-1.16-1.44-6.75-8.72-10.62-19.95-10.62-9.31,0-29.23,3.77-29.43,3.81l.23,1.24c.2-.04,20.01-3.79,29.2-3.79,5,0,16.86.94,18.72,9.63.08.38.17.77.26,1.17.43,1.92.9,4.07,1.07,6.25-4.36-6.01-17.28-5.37-17.91-5.33l.07,1.26c.16,0,16.1-.8,17.85,7.09-.22,2.63-1.11,5.19-3.3,7.36-2.55-8.31-18.28-7.53-18.99-7.49l.07,1.26c.16,0,16.17-.81,17.86,7.15-.96.76-2.12,1.46-3.5,2.09-7.71,3.48-16.54,6.9-27.47,6.88.15.43.3.84.44,1.27,10.94-.07,19.79-3.5,27.53-6.99,6.13-2.77,8.19-6.97,8.58-11.27h.02Z"/>
      <path d="M192.5,40.03l.41-1.22c-.2-.07-4.92-1.7-8.18-1.7-2.14,0-4.91.69-6.65,1.2.35.36.68.71,1.01,1.06,1.65-.45,3.92-.97,5.64-.97,3.04,0,7.72,1.61,7.77,1.63h0Z"/>
      <path d="M195.89,57.53c.17,2.46-.85,4.53-2.39,6.23.14.47.29.94.44,1.4,2.32-2.31,3.42-4.94,3.23-7.72-.43-6.17-5.36-7.9-9.71-9.42-.56-.19-1.11-.4-1.65-.6.44.62.85,1.22,1.24,1.82,4.36,1.54,8.47,2.98,8.85,8.29h-.01Z"/>
      <path d="M181.5,46.76c-1.18-1.5-2.54-3.07-4.09-4.76.67,1.26,1.58,2.47,2.73,3.64.41.42.87.78,1.36,1.11h0Z"/>
      <path d="M87.16,198.15c0,.33-.21.6-.47.6h-39.1c-.29,0-.57-.19-.72-.5-1.74-3.47-1.77-7.85-.08-10.63.7-1.15,2.02-2.53,4.3-2.53,4.07,0,9.3,1.86,13.49,3.36,2.07.73,3.85,1.37,5.15,1.66,2.87.63,9.16.73,10.71-1.88,1.05-1.77-.69-15.25-1.87-23.35-.47.06-.96.12-1.49.2,1.53,10.7,2.65,21.16,2.07,22.37-.89,1.49-5.84,1.9-9.11,1.18-1.2-.26-2.94-.89-4.96-1.61-4.3-1.54-9.66-3.44-13.99-3.44-2.33,0-4.31,1.16-5.58,3.26-1.95,3.22-1.94,8.2.02,12.12.41.82,1.2,1.34,2.07,1.34h39.1c1.09,0,1.98-.96,1.98-2.13v-31.89c-.5-.17-1-.34-1.5-.49v32.38h0l-.02-.02Z"/>
      <path d="M126.5,188.21c1.56,2.62,7.85,2.51,10.71,1.88,1.29-.29,3.08-.92,5.15-1.66,4.19-1.5,9.42-3.36,13.49-3.36,2.29,0,3.6,1.37,4.3,2.53,1.69,2.79,1.65,7.16-.08,10.63-.15.31-.43.5-.72.5h-39.1c-.25,0-.47-.27-.47-.6v-30.77c-.13.04-.26.07-.38.11-.39.12-.76.23-1.12.34v30.32c0,1.17.88,2.13,1.98,2.13h39.1c.86,0,1.65-.51,2.07-1.34,1.96-3.92,1.97-8.9.02-12.12-1.27-2.1-3.25-3.26-5.58-3.26-4.33,0-9.69,1.9-13.99,3.44-2.02.72-3.76,1.34-4.97,1.61-3.28.72-8.22.31-9.11-1.17-.58-1.21.51-11.53,2.04-22.15-.53.09-1.05.18-1.56.27-1.16,8.15-2.79,20.94-1.77,22.66h-.01Z"/>
      <path d="M229.34,45.51c-1.41-8.81-6.71-14.03-11.69-17.97-4.77-3.78-16.15-8.99-26.34-6.92-7.64,1.55-12.53,5.39-14.5,11.43-.48,1.48-.73,2.89-.76,4.25.42.38.81.74,1.17,1.1.07.07.13.13.19.19-.16-1.54,0-3.13.51-4.82,1.2-.39,4.92-1.5,7.46-1.5,3.04,0,7.72,1.61,7.77,1.63l.41-1.22c-.2-.07-4.92-1.7-8.18-1.7-2.24,0-5.2.76-6.91,1.27,2.07-4.87,6.46-8.02,13.09-9.37,9.25-1.87,20.36,2.77,25.3,6.66,6.8,5.36,10.16,10.49,11.22,17.16,1.27,7.93-.74,22.59-4.07,29.6-4.19,8.84-9.12,13.5-18.8,17.8-1.17.52-2.28.97-3.3,1.34.1.42.21.83.31,1.25,1.09-.4,2.24-.85,3.5-1.4,10.01-4.45,15.1-9.26,19.45-18.43,3.48-7.33,5.51-22.08,4.18-30.36h0,0Z"/>
      <path d="M21.48,147.14C-.69,140.6,1.32,122.06,1.34,121.88c.06-.48.1-1.04.14-1.62.31-4.56.91-13.15,14.88-23.58.03-.54.06-1.09.09-1.63C1.21,106.09.57,115.32.24,120.17c-.04.59-.07,1.1-.13,1.55-.38,3.09.17,8.16,2.88,13.12,3.52,6.45,9.63,11,18.14,13.51,5,1.47,9.64,2.23,13.96,2.45-.15-.44-.31-.86-.47-1.29-4.08-.25-8.44-1-13.14-2.38h0Z"/>
      <path d="M119.76,167.38v-3.16c-.44.11-.86.23-1.24.35-.09.03-.17.05-.26.08v3.19c.36-.11.73-.22,1.12-.34.12-.04.26-.07.38-.11h0Z"/>
      <path d="M19.49,94.46c.03-.52.07-1.05.1-1.57-1.11.72-2.16,1.44-3.14,2.16-.03.55-.06,1.09-.09,1.63.98-.73,2.02-1.47,3.13-2.22Z"/>
      <path d="M128.72,162.37c-.14.94-.3,2-.46,3.19.51-.09,1.03-.18,1.56-.27.15-1.06.31-2.12.46-3.17-.53.09-1.05.17-1.56.26h0Z"/>
      <path d="M199.03,95.4c.1.42.21.84.31,1.26.87-.25,1.85-.58,2.87-.95-.1-.42-.21-.83-.31-1.25-1.03.38-1.99.69-2.87.95h0Z"/>
      <path d="M177.4,42.01c1.56,1.68,2.91,3.26,4.09,4.76,1.6,1.08,3.6,1.78,5.54,2.47-.39-.6-.8-1.2-1.24-1.82-1.87-.7-3.57-1.48-4.76-2.68-1.56-1.59-2.63-3.25-3.21-5.01.35-.1.78-.23,1.26-.37-.33-.35-.66-.7-1.01-1.06-.2.06-.4.11-.57.17-.05-.28-.08-.58-.11-.86-.07-.07-.13-.13-.19-.19-.35-.36-.75-.73-1.17-1.1-.04,2,.41,3.9,1.37,5.71v-.03h0Z"/>
      <path d="M38.31,150.88c-.14-.43-.29-.84-.44-1.27-1.06,0-2.15-.04-3.24-.1.16.43.31.87.47,1.29.96.05,1.93.08,2.86.08h.36-.01Z"/>
      <path d="M87.16,162.59v3.18c.5.15,1,.32,1.5.49v-3.22c-.5-.16-1-.32-1.5-.46h0Z"/>
      <path d="M78.12,161.84c-.48.06-.97.12-1.49.2.15,1.01.3,2.01.44,3.02.52-.08,1.02-.14,1.49-.2-.16-1.13-.31-2.15-.44-3.02Z"/>
      <path d="M191.01,65.94c.09.3.18.58.27.89.04.13.09.28.13.42.95-.66,1.79-1.35,2.52-2.08-.15-.48-.29-.95-.44-1.4-.73.81-1.58,1.54-2.48,2.18h0Z"/>
      <path d="M121.55,60.92c3.53,0,6.4-4.52,6.4-10.09s-2.86-10.09-6.4-10.09-6.4,4.52-6.4,10.09,2.86,10.09,6.4,10.09Z"/>
      <path d="M145.97,60.92c3.53,0,6.4-4.52,6.4-10.09s-2.86-10.09-6.4-10.09-6.4,4.52-6.4,10.09,2.86,10.09,6.4,10.09Z"/>
      <path d="M114.15,89.6c.85,0,1.58.66,1.63,1.54.47,7.38,4.31,13.35,8.8,13.35s8.32-5.97,8.79-13.35c.06-.86.78-1.54,1.63-1.54.96,0,1.7.83,1.65,1.81-.58,9.34-5.69,16.42-12.09,16.42s-11.49-7.08-12.09-16.42c-.06-.98.68-1.81,1.65-1.81h.03Z"/>
    </g>
  </g>
</svg>