<?xml version="1.0" encoding="UTF-8"?>
<svg id="Layer_1" data-name="Layer 1" xmlns="http://www.w3.org/2000/svg" viewBox="0 0 229.74 252.28">
  <defs>
    <style>
      .cls-1 {
        fill: #40535c;
      }

      .cls-2 {
        fill: #3e4f58;
      }

      .cls-3 {
        fill: #fd9601;
      }

      .cls-4 {
        fill: #fd9702;
      }

      .cls-5 {
        fill: #455964;
      }

      .cls-6 {
        fill: #7a8990;
      }

      .cls-7 {
        fill: #ff971d;
      }

      .cls-8 {
        fill: #b32105;
      }

      .cls-9 {
        fill: #f48e31;
      }

      .cls-10 {
        fill: #ffba0a;
      }

      .cls-11 {
        fill: #3f525b;
      }

      .cls-12 {
        fill: none;
      }

      .cls-13 {
        fill: #d6ff00;
      }

      .cls-14 {
        fill: #445964;
      }

      .cls-15 {
        fill: #caceaf;
      }

      .cls-16 {
        fill: #feb64a;
      }

      .cls-17 {
        fill: #3a4c55;
      }

      .cls-18 {
        fill: #ffd33f;
      }

      .cls-19 {
        fill: #ce7c38;
      }

      .cls-20 {
        fill: #455a65;
      }

      .cls-21 {
        fill: #db2d00;
      }

      .cls-22 {
        fill: #36474f;
      }

      .cls-23 {
        fill: #3f515b;
      }

      .cls-24 {
        fill: #41545e;
      }

      .cls-25 {
        fill: #36474e;
      }

      .cls-26 {
        fill: #f47c01;
      }
    </style>
  </defs>
  <g>
    <path class="cls-10" d="M41.76,95.84c15.24-14.05,40.65-37.2,54.2-40.02,13.55-2.82,77.35,22.58,90.9,36.13s14.11,20.32,18.07,32.18,5.08,19.76,7.34,27.66c2.26,7.9-16.94,33.31-20.32,40.09s-3.39,10.73-7.9,14.68c-4.52,3.95-42.91,7.34-54.2,10.73-11.29,3.39-10.16,2.26-16.94,2.26s-13.55-5.08-20.89-5.08-26.88,6.42-36.03,1.45c-8.06-4.39-6.88-17.82-14.22-24.03-7.34-6.21-8.47-7.34-11.86-18.63-.75-2.51-.82-4.6-.94-5.84-3.49-37.56,5.45-56.83,5.45-56.83,0,0,.04-.08,7.34-14.74h0Z"/>
    <g>
      <path d="M177.56,92c-.22-.23-.45-.46-.68-.69.03.29.05.57.11.85.17-.05.37-.11.57-.17h0Z"/>
      <path d="M24.58,111.36c3-7.49,6.48-13.3,7.12-14.34,13.03-12.01,39.87-36.71,53.34-39.52,12.9-2.68,76.49,22.69,89.53,35.73.83.83,1.59,1.62,2.32,2.4-.95-1.77-1.41-3.63-1.37-5.61-15.92-14.01-77.65-38.27-91.1-35.46-14.33,2.99-40.73,27.31-54.91,40.39l-.15.14-.11.17c-.16.26-4.06,6.49-7.46,14.99-2.12,5.3-4.46,22.12-5.39,37.51.98-.7,2.03-1.41,3.13-2.12.99-14.37,3.14-29.5,5.04-34.27h0Z"/>
      <path d="M199.59,152.43c1.46,5.12-8.65,20.71-14.69,30.03-2.56,3.95-4.59,7.08-5.54,8.98-1.17,2.35-1.95,4.36-2.63,6.13-1.28,3.32-2.2,5.71-4.92,8.09-2.3,2.01-17.37,4.26-29.48,6.08-4.36.65-8.62,1.29-12.43,1.92-.16,1.04-.31,2.08-.46,3.12,4.02-.68,8.61-1.37,13.33-2.07,17.46-2.61,28.26-4.37,31.01-6.79,3.27-2.86,4.36-5.69,5.74-9.27.66-1.71,1.41-3.65,2.52-5.87.88-1.75,2.96-4.96,5.37-8.69,9.24-14.25,16.75-26.54,15.05-32.48-.3-1.06-.58-2.13-.86-3.2-1.02.36-1.98.69-2.86.93.26,1.03.53,2.06.83,3.09h.02Z"/>
      <path d="M105.41,218.38c-.96-.05-2.15-.11-3.75-.11-3.05,0-6.19-1.15-9.51-2.37-1.23-.45-2.48-.91-3.74-1.31v3.16c.91.31,1.81.64,2.71.97,3.42,1.26,6.96,2.56,10.54,2.56,1.52,0,2.62.06,3.59.11.76.04,1.43.08,2.1.08,2.2,0,4.47-.38,10.56-2.17v-3.13c-8.2,2.45-9.4,2.39-12.5,2.23v-.02Z"/>
      <path d="M70.92,214.52c-8.27,1.47-19.59,3.49-25.46.3-3.75-2.04-5.31-6.55-6.96-11.32-.1-.29-.2-.58-.3-.87h-.36c-.93,0-1.89-.03-2.85-.08.23.64.46,1.28.68,1.93,1.76,5.1,3.59,10.38,8.36,12.97,6.79,3.69,18.23,1.66,27.42.02,1.97-.35,3.81-.68,5.41-.91-.14-.99-.29-1.98-.44-2.97-1.66.24-3.51.57-5.5.93Z"/>
      <path d="M192.93,117.01c-1.56-4.93-3.13-9.27-6.44-14.27h0c-1.94-.67-3.92-1.36-5.52-2.43,5.64,7.04,7.46,12.33,9.49,18.84.89-.63,1.74-1.34,2.47-2.14Z"/>
      <path d="M74.2,184.68h.08c-.02-.12-.04-.23-.06-.34.23-3.28-.52-6.58-1.12-9.29-.09-.39-.17-.77-.25-1.14-1.44-6.63-8.69-10.44-19.89-10.44-9.28,0-29.14,3.7-29.34,3.74l.23,1.22c.2-.04,19.95-3.72,29.11-3.72,4.99,0,16.81.92,18.67,9.46.08.37.17.76.26,1.15.43,1.89.9,4,1.07,6.14-4.35-5.91-17.23-5.28-17.86-5.24l.07,1.24c.16,0,16.05-.79,17.8,6.97-.22,2.59-1.11,5.1-3.29,7.23-2.54-8.17-18.23-7.4-18.93-7.36l.07,1.24c.16,0,16.12-.8,17.81,7.03-.96.75-2.11,1.43-3.49,2.05-7.69,3.42-16.49,6.78-27.39,6.76.15.42.3.83.44,1.25,10.91-.07,19.73-3.44,27.45-6.87,6.11-2.72,8.17-6.85,8.55-11.08h0Z"/>
      <path d="M191.94,93.69l.41-1.2c-.2-.07-4.91-1.67-8.16-1.67-2.13,0-4.9.68-6.63,1.18.35.35.68.7,1.01,1.04,1.65-.44,3.91-.95,5.62-.95,3.03,0,7.7,1.58,7.75,1.6h0Z"/>
      <path d="M195.32,110.89c.17,2.42-.85,4.45-2.38,6.12.14.46.29.92.44,1.38,2.31-2.27,3.41-4.85,3.22-7.59-.43-6.06-5.34-7.76-9.68-9.26-.56-.19-1.11-.39-1.65-.59.44.61.85,1.2,1.24,1.79,4.35,1.51,8.45,2.93,8.82,8.15h-.01Z"/>
      <path d="M180.97,100.31c-1.18-1.47-2.53-3.02-4.08-4.68.67,1.24,1.57,2.43,2.72,3.58.41.41.87.77,1.36,1.09h0Z"/>
      <path d="M86.91,249.08c0,.32-.21.59-.47.59h-38.99c-.29,0-.57-.19-.72-.49-1.73-3.41-1.76-7.71-.08-10.45.7-1.13,2.01-2.49,4.29-2.49,4.06,0,9.27,1.83,13.45,3.3,2.06.72,3.84,1.35,5.13,1.63,2.86.62,9.13.72,10.68-1.85,1.05-1.74-.69-14.99-1.86-22.95-.47.06-.96.12-1.49.2,1.53,10.52,2.64,20.79,2.06,21.98-.89,1.46-5.82,1.87-9.08,1.16-1.2-.26-2.93-.87-4.95-1.58-4.29-1.51-9.63-3.38-13.95-3.38-2.32,0-4.3,1.14-5.56,3.2-1.94,3.16-1.93,8.06.02,11.91.41.81,1.2,1.32,2.06,1.32h38.99c1.09,0,1.97-.94,1.97-2.09v-31.34c-.5-.17-1-.33-1.5-.48v31.82h0Z"/>
      <path d="M126.13,239.31c1.55,2.57,7.83,2.47,10.68,1.85,1.29-.28,3.07-.9,5.13-1.63,4.18-1.47,9.39-3.3,13.45-3.3,2.28,0,3.59,1.35,4.29,2.49,1.68,2.74,1.65,7.04-.08,10.45-.15.3-.43.49-.72.49h-38.99c-.25,0-.47-.27-.47-.59v-30.24c-.13.04-.26.07-.38.11-.39.12-.76.23-1.12.33v29.8c0,1.15.88,2.09,1.97,2.09h38.99c.86,0,1.65-.5,2.06-1.32,1.95-3.85,1.96-8.75.02-11.91-1.27-2.06-3.24-3.2-5.56-3.2-4.32,0-9.66,1.87-13.95,3.38-2.01.71-3.75,1.32-4.95,1.58-3.27.71-8.2.3-9.08-1.15-.58-1.19.51-11.33,2.03-21.77-.53.09-1.05.18-1.56.27-1.16,8.01-2.78,20.58-1.76,22.27h0Z"/>
      <path d="M228.67,99.08c-1.41-8.66-6.69-13.79-11.66-17.66-4.76-3.71-16.1-8.83-26.26-6.8-7.62,1.52-12.49,5.3-14.46,11.23-.48,1.45-.73,2.84-.76,4.18.42.37.81.73,1.17,1.08.07.07.13.13.19.19-.16-1.51,0-3.08.51-4.74,1.2-.38,4.91-1.47,7.44-1.47,3.03,0,7.7,1.58,7.75,1.6l.41-1.2c-.2-.07-4.91-1.67-8.16-1.67-2.23,0-5.19.75-6.89,1.25,2.06-4.79,6.44-7.88,13.05-9.21,9.22-1.84,20.3,2.72,25.23,6.55,6.78,5.27,10.13,10.31,11.19,16.86,1.27,7.79-.74,22.2-4.06,29.09-4.18,8.69-9.09,13.27-18.75,17.49-1.17.51-2.27.95-3.29,1.32.1.41.21.82.31,1.23,1.09-.39,2.23-.83,3.49-1.38,9.98-4.37,15.06-9.1,19.39-18.11,3.47-7.2,5.49-21.7,4.17-29.84h-.01Z"/>
      <path d="M21.42,198.95C-.69,192.53,1.32,174.31,1.34,174.12c.06-.47.1-1.02.14-1.59.31-4.48.91-12.92,14.84-23.17.03-.53.06-1.07.09-1.6C1.21,158.61.57,167.68.24,172.45c-.04.58-.07,1.08-.13,1.52-.38,3.04.17,8.02,2.87,12.89,3.51,6.34,9.6,10.81,18.09,13.28,4.99,1.45,9.61,2.19,13.92,2.41-.15-.43-.31-.85-.47-1.27-4.07-.25-8.42-.98-13.1-2.34h0Z"/>
      <path d="M119.41,218.84v-3.11c-.44.11-.86.23-1.24.34-.09.03-.17.05-.26.08v3.13c.36-.11.73-.22,1.12-.33.12-.04.26-.07.38-.11Z"/>
      <path d="M19.44,147.18c.03-.51.07-1.03.1-1.54-1.11.71-2.15,1.42-3.13,2.12-.03.54-.06,1.07-.09,1.6.98-.72,2.01-1.44,3.12-2.18h0Z"/>
      <path d="M128.35,213.92c-.14.92-.3,1.97-.46,3.13.51-.09,1.03-.18,1.56-.27.15-1.04.31-2.08.46-3.12-.53.09-1.05.17-1.56.26h0Z"/>
      <path d="M198.45,148.1c.1.41.21.83.31,1.24.87-.25,1.84-.57,2.86-.93-.1-.41-.21-.82-.31-1.23-1.03.37-1.98.68-2.86.93h0Z"/>
      <path d="M176.89,95.63c1.56,1.65,2.9,3.2,4.08,4.68,1.6,1.06,3.59,1.75,5.52,2.43h0c-.39-.59-.8-1.18-1.24-1.79-1.87-.69-3.56-1.45-4.75-2.63-1.56-1.56-2.62-3.19-3.2-4.92.35-.1.78-.23,1.26-.36-.33-.34-.66-.69-1.01-1.04-.2.06-.4.11-.57.17-.05-.28-.08-.57-.11-.85-.07-.07-.13-.13-.19-.19-.35-.35-.75-.72-1.17-1.08-.04,1.97.41,3.83,1.37,5.61v-.03Z"/>
      <path d="M38.2,202.63c-.14-.42-.29-.83-.44-1.25-1.06,0-2.14-.04-3.23-.1.16.42.31.85.47,1.27.96.05,1.92.08,2.85.08h.36-.01Z"/>
      <path d="M86.91,214.13v3.13c.5.15,1,.31,1.5.48v-3.16c-.5-.16-1-.31-1.5-.45Z"/>
      <path d="M77.9,213.39c-.48.06-.97.12-1.49.2.15.99.3,1.98.44,2.97.52-.08,1.02-.14,1.49-.2-.16-1.11-.31-2.11-.44-2.97Z"/>
      <path d="M190.46,119.15c.09.29.18.57.27.87.04.13.09.28.13.41.95-.65,1.79-1.33,2.51-2.04-.15-.47-.29-.93-.44-1.38-.73.8-1.58,1.51-2.47,2.14Z"/>
    </g>
    <ellipse cx="121.2" cy="104.3" rx="6.38" ry="9.92"/>
    <ellipse cx="145.55" cy="104.3" rx="6.38" ry="9.92"/>
    <path d="M113.82,142.41h0c.85,0,1.58.65,1.63,1.51.47,7.25,4.3,13.12,8.77,13.12s8.3-5.87,8.77-13.12c.06-.85.78-1.51,1.63-1.51h0c.96,0,1.7.82,1.64,1.78-.58,9.18-5.67,16.14-12.05,16.14s-11.46-6.96-12.05-16.14c-.06-.96.68-1.78,1.64-1.78h.02Z"/>
  </g>
  <g>
    <g>
      <path class="cls-19" d="M168.01,82.18c-1.76-4.18-7.19-6.19-7.19-6.19,1.18,7.7-24.04,13.71-59.56,14.65s-57.57-7.49-56.55-17.8c0,0-4.56,3.59-4.51,6.27.04,2.14,3.1,8.08,12.11,11.6s32.69,4.88,50.46,4.88,45.46-3.38,50.74-4.88,16.26-4.35,14.51-8.53h0Z"/>
      <path class="cls-9" d="M101.25,90.64c35.52-.94,60.74-6.94,59.56-14.65-1.15-7.49-5.57-20.48-5.57-20.48,0,10.12-14.83,16.49-33.51,19.11h0s-10.18,1.75-20.09,1.66c-9.91-.09-22.27-1.71-22.27-1.71,0-.05-.02-.1-.03-.15-18-2.74-32.08-9.04-32.08-18.9,0,0-1.53,7.03-2.56,17.33-1.02,10.3,21.02,18.73,56.55,17.8h0Z"/>
      <path class="cls-7" d="M111.03,24.89c.7,8.77,1.16,5.1,8.17,18.59,5.38,10.34,2.54,31.11,2.53,31.14,18.67-2.62,33.51-8.99,33.51-19.11,0-15.27-7.57-28.93-19.45-37.99,3.03,6.61,3.6,19.04,3.6,19.04h-11.94V12.29c-5.63-2.87-11.88-4.84-18.52-5.71.39,1.08.42,2.26.46,3.23.21,5.05,1.24,10.04,1.64,15.07h0Z"/>
      <path class="cls-7" d="M79.35,74.41c-2.07-10.95-1.44-19.49.5-28.95,1.85-9.02,8.25-12.51,8.58-20.47.21-5.01,1.18-9.96,1.51-14.96.05-.72.12-1.86.66-2.99-5.69,1.04-11.06,2.92-15.95,5.46v24.06h-11.94s.55-11.84,3.39-18.55c-11.52,9.07-18.83,22.5-18.83,37.5,0,9.86,14.09,16.16,32.08,18.9h0Z"/>
      <path class="cls-18" d="M88.43,24.99c-.33,7.95-6.73,11.45-8.58,20.47-1.94,9.46-2.57,18-.5,28.95,0,.05.02.1.03.15,0,0,12.37,1.62,22.27,1.71,9.91.09,20.09-1.66,20.09-1.66h0s2.85-20.8-2.53-31.14c-7.01-13.49-7.47-9.82-8.17-18.59-.4-5.04-1.43-10.02-1.64-15.07-.04-.97-.06-2.15-.46-3.23-.21-.58-.53-1.14-1.03-1.62-1.33-1.29-3.81-1.38-8.61-1.38-3.69,0-6.39.42-8.04,2.42-.28.34-.49.69-.66,1.05-.54,1.13-.61,2.27-.66,2.99-.32,5-1.3,9.95-1.51,14.96h0Z"/>
      <path class="cls-18" d="M74.65,36.56V11.09s-1.59-1.06-6.37,3.45c-.85.8-1.57,2.02-2.18,3.47-2.84,6.71-3.39,18.55-3.39,18.55h11.94Z"/>
      <path class="cls-18" d="M139.39,36.56s-.57-12.43-3.6-19.04c-.57-1.24-1.22-2.27-1.97-2.98-4.78-4.51-6.37-3.45-6.37-3.45v25.47h11.94Z"/>
    </g>
    <path d="M101.33,93.27c-18.95,0-41.98-1.52-50.69-4.92-9.34-3.64-12.46-9.78-12.51-12.18-.05-2.65,3.54-5.78,4.54-6.61.96-9.55,2.37-16.33,2.53-17.07.02-14.54,6.92-28.31,18.94-37.83.68-1.56,1.44-2.75,2.27-3.53,4.89-4.62,6.81-3.74,7.15-3.52l.28.19v.72c4.69-2.33,9.7-4.01,14.9-4.99.17-.32.37-.61.6-.88,1.81-2.2,4.72-2.65,8.53-2.65,4.75,0,7.51.07,9.04,1.56.43.42.78.92,1.03,1.5,6.12.84,11.98,2.61,17.44,5.26v-.51l.28-.19c.33-.22,2.26-1.11,7.15,3.52.74.7,1.43,1.72,2.04,3.03,12.41,9.53,19.54,23.47,19.58,38.3.41,1.21,4.34,12.97,5.51,20.13,1.27.54,5.61,2.6,7.21,6.4h0c.34.8.32,1.61-.06,2.4-1.44,2.99-7.73,4.98-14.06,6.76l-.8.23c-5.55,1.57-33.2,4.9-50.91,4.9v-.02ZM72.58,8.65c-.6.04-2.2.47-5.3,3.39-.73.69-1.41,1.78-2.03,3.26l-.06.15-.13.1c-11.81,9.3-18.59,22.78-18.59,37v.13c-.03.07-1.55,7.11-2.56,17.26l-.03.27-.21.17c-1.2.95-4.31,3.83-4.27,5.76.04,2.04,3.05,7.65,11.71,11.03,8.56,3.34,31.39,4.83,50.23,4.83,17.27,0,45.21-3.34,50.56-4.85l.8-.22c4.18-1.18,11.95-3.36,13.26-6.09.22-.46.23-.89.04-1.36h0c-1.63-3.87-6.78-5.83-6.83-5.84l-.35-.13-.06-.37c-1.13-7.35-5.5-20.24-5.55-20.37l-.03-.2c0-14.51-7-28.18-19.2-37.49l-.13-.1-.07-.14c-.57-1.23-1.18-2.17-1.83-2.78-3.06-2.89-4.67-3.35-5.3-3.38v1.7l-.92-.47c-5.69-2.9-11.86-4.8-18.31-5.64l-.38-.05-.13-.36c-.21-.56-.49-1.02-.87-1.39-1.12-1.09-3.35-1.2-8.17-1.2-3.45,0-6.06.37-7.56,2.19-.23.28-.42.58-.58.92l-.14.29-.32.06c-5.53,1.01-10.83,2.83-15.77,5.4l-.92.48v-1.96Z"/>
  </g>
  <g>
    <path class="cls-13" d="M188.79,122.27c-3.22-.9-22.26-1.28-24.11-.39s-12.4,26.01-15.47,27.14c-3.08,1.13-.69,30.45,1.98,32.34s8.15,3.28,15.1,3.01c6.96-.27,33.34-2.04,33.25-3.45s-2.05-30.58-2.9-31.56c-.85-.99-7.4-.97-7.87-10.68-.46-9.71,0-16.4,0-16.4h.02Z"/>
    <path class="cls-15" d="M147.76,156.91c0-.87.04-1.72.08-2.52,8.64-.11,17.19-.22,25.74-.33.16-10.89.32-21.79.48-32.68.77,0,1.54.02,2.33.03.72.01,1.42.03,2.13.05l-.48,32.55c6.42-.08,12.85-.17,19.33-.25.12,1.1.23,2.22.34,3.34.05.48.09.97.13,1.45-16.69.22-33.37.43-50.06.65-.02-.73-.03-1.49-.02-2.27v-.02Z"/>
    <path class="cls-15" d="M199,173.14c-.03-.38-.05-.77-.08-1.15-.09-1.22-.18-2.44-.28-3.64-16.75.16-33.51.32-50.26.48.08.78.17,1.58.27,2.39.1.8.21,1.59.32,2.36,16.68-.14,33.35-.29,50.03-.43h0Z"/>
    <path d="M172.97,184.48c-2.94.18-5.13.29-5.86.32-6.43.25-12.32-.94-15.37-3.09-2.08-1.47-3.64-15.74-3.63-24.27v-.85c.02-.77.04-1.49.08-2.17.26-4.84,1.08-5.68,1.67-5.89,1.6-.59,6.07-9.63,9.34-16.24,3.67-7.42,5.25-10.48,6.09-10.88,1.08-.52,6.46-.56,9.56-.54.78,0,1.53.01,2.29.03h.13c.66.02,1.31.03,1.96.05l.08.48v-.48c5.2.15,9.08.46,10.38.83l.36.1-.03.4c0,.07-.47,6.78,0,16.34.35,7.36,4.28,8.86,6.4,9.66.64.24,1.1.42,1.35.71.15.18.36.42.81,4.43h0l.07.67c.08.75.16,1.55.24,2.41l.23,2.45h0c.79,8.81,1.6,20.86,1.66,21.9,0,.16-.04.32-.15.46-1.12,1.34-18.23,2.6-27.66,3.18h0ZM168.15,121.94c-1.46.09-2.25.21-2.49.33-.69.39-3.34,5.74-5.67,10.46-4.63,9.36-8.05,16.04-9.84,16.69-.08.03-.83.43-1.07,4.96-.04.77-.06,1.47-.07,2.23v.83c0,9.7,1.74,22.41,3.23,23.46,2.27,1.61,7.37,3.22,14.84,2.93,8.7-.34,30.75-1.99,32.82-3.14-.12-1.91-.93-13.7-1.69-22.17l-.04-.49h0l-.14-1.46c-.08-.85-.16-1.66-.24-2.4l-.05-.42c-.38-3.47-.58-4.07-.63-4.17-.07-.08-.54-.25-.96-.41-2.15-.82-6.61-2.52-6.99-10.53-.4-8.26-.11-14.43-.02-16.05-1.52-.31-5.18-.57-9.81-.71h-.09c-.64-.02-1.29-.04-1.94-.05h-.11c-.77-.02-1.52-.03-2.26-.03-3.05-.02-5.25.04-6.74.13h-.04Z"/>
  </g>
  <g>
    <path class="cls-13" d="M37.19,120.08c3.15-.32,5.67-.41,7.41-.43.68,0,.48,0,4.14-.01,3.57-.01,3.83-.02,4.75,0,2.3.06,3.45.09,5.02.31,2.3.31,3.96.8,5.17.64.09-.01.31-.04.57.04.67.22.95,1.04,1.22,1.75.33.87.85,1.67,1.15,2.55.68,2.05,2.25,4.28,4.91,9.39.5.96,4.04,7.78,5.81,11.01.22.39.7,1.27,1.53,2.26.95,1.14,1.82,1.81,2,1.95,2.47,2.05.18,12.16-.38,18.2-.33,3.49-1.27,15.43-2.72,15.44-.16,0-.29-.16-.54-.44-.95-1.12-.83-2.67-.81-3.03.14-2.62-1.23-6.38-2.26-9.21-.74-2.02-1.82-4.99-4.37-7.02-.91-.73-2.76-1.93-9.09-2.36-8.09-.55-12.48.9-20.33,1.42-2.21.15-4.13.18-6.13.7-.52.13-1.41.4-2.68.51-.92.08-1.13,0-2.26.11-1.46.14-1.59.34-2.04.19-1.29-.43-1.83-1.98-1.96-2.35-.61-1.76-.09-3.2.48-5.42,1.56-6.09.52-6.68,1.88-8.26,1.85-2.16,3.64-.87,6.02-3.11,2.04-1.91,2.51-4.51,3.09-7.72.37-2.05.36-3.35.38-7.54,0-2.02.02-5.33.06-9.57h-.02Z"/>
    <path class="cls-15" d="M82.28,157.83c.01-.91,0-1.79-.02-2.63-9.69-.46-19.28-.91-28.87-1.36.12-11.37.23-22.73.35-34.1-.86-.02-1.73-.05-2.61-.06-.8-.01-1.6-.02-2.39-.03l-.35,33.96c-7.2-.34-14.41-.68-21.68-1.02-.16,1.15-.32,2.3-.47,3.47-.06.5-.13,1-.19,1.5,18.71.88,37.43,1.77,56.14,2.65.04-.76.07-1.55.09-2.37h0Z"/>
    <path class="cls-15" d="M75.43,174.71l-1.4-3.42c2.21-.26,4.42-.53,6.63-.79-.05.44-.13,1.1-.19,1.91-.12,1.49-.07,1.86-.38,2.17-.28.27-.64.31-2.17.26-1-.03-1.84-.08-2.49-.13Z"/>
    <path d="M71.07,165.35c-.87-.98-1.71-1.55-1.9-1.68-1.95-1.3-3.92-1.49-5.65-1.64-4.91-.43-7.36-.64-8.42-.61-4.88.16-9.28.69-16.61,1.76-8.33,1.22-11.23,1.79-12.74,0-1.19-1.4-.94-3.59-.53-5.25l.32-2.5c.12-.89.23-1.73.34-2.51l.1-.69c.61-4.17.85-4.41,1.03-4.59.29-.3.81-.46,1.53-.69,2.39-.76,6.84-2.17,7.44-9.82.77-9.95.44-16.97.44-17.04l-.02-.42.41-.09c1.47-.33,5.83-.5,11.66-.45l.1.5v-.5c.73,0,1.46.02,2.19.03h.11c.89.02,1.74.04,2.57.06,3.53.1,9.56.36,10.76.94.94.46,2.62,3.71,6.54,11.59,3.49,7.02,8.27,16.63,10.04,17.31.66.25,1.55,1.16,1.71,6.11.02.81.03,1.57.02,2.37v.29c0,.12,0,.24-.01.36v.25c-2.6,19.72-3.98,25.22-4.75,25.17-.37-.03-.98-1.38-1.18-1.86-.35-.86-.37-1.39-.54-2.35-.1-.54-.43-1.66-1.09-3.89-.48-1.63-.65-2.13-.92-3.26-.26-1.11-.2-1.08-.36-1.74-.22-.9-.81-3.14-2.6-5.15h.01ZM60.26,160.81c4.88.44,7.72.7,10.15,2.66,2.23,1.8,3.08,4.41,4.76,9.64,1.89,5.87,1.95,9,2.55,9.03.67.03,1.78-4.47,3.76-23.75v-.27c.02-.11.02-.21.02-.33v-.28c0-.78,0-1.53-.02-2.23-.16-4.82-.98-5.27-1.07-5.31-1.99-.75-5.64-7.85-10.58-17.8-2.49-5.02-5.32-10.7-6.08-11.13-.54-.26-3.57-.64-10.31-.84-.87-.03-1.71-.04-2.56-.06l-.13-.5v.5c-.74-.01-1.47-.02-2.2-.03h-.1c-5.2-.04-9.31.09-11.03.35.06,1.69.21,8.13-.46,16.73-.65,8.33-5.7,9.93-8.13,10.7-.47.15-1.01.32-1.12.44-.03.06-.26.68-.79,4.28l-.06.44c-.11.77-.22,1.61-.34,2.5l-.26,2.03c-.44,1.49-.86,3.79.32,5.12,1.26,1.42,4.43.88,8.68.26.1-.02.08,0,.38-.06,1.96-.3,5.45-.81,10.6-1.41,3.45-.4,5.18-.6,6.28-.67,2.1-.13,4.72-.29,7.73-.02h.01Z"/>
  </g>
  <g>
    <path class="cls-12" d="M41.86,128.68l27.7-5.59c1.33.07,2.38.88,2.7,2.25l1.2.08c-.03-.24.06-.11.16-.14.21-.06.43-.08.64-.12,1.71-.36,2.79.1,3.47,1.17h.05l1.74.52,6.23,1.48h1.21l1.03-.2c-.07-.3-.18-.64-.39-.81-.5-.42-1.05-.29-1.63-.16-.33.08-.68.16-1.02.14-1.28-.08-3.58-.68-5.26-1.13-.28-.07-.54-.14-.77-.2-.1-.03-.24-.06-.39-.09-.39-.09-.84-.19-1.04-.29-.14-.06-.3-.23-.51-.43-.19-.18-.4-.39-.57-.49-.83-.5-1.49-.66-2.45-.59-.14,0-.37.06-.59.12-.49.12-.83.19-1.04.13-.21-.06-.39-.33-.57-.61-.08-.13-.17-.26-.23-.33-.7-.75-1.56-1.13-2.54-1.16l-26.52,5.35c-3.07.88-5.4,2.79-6.73,5.52-.22.44-.4.9-.56,1.37,1.23-2.77,3.55-4.88,6.67-5.79h0Z"/>
    <path class="cls-12" d="M90.78,128.73c.34-.19.2-.73.63-.78-.11-.05-.22-.08-.37-.06-.09.01-.11.04-.18.23-.06.16-.13.37-.35.49-.01,0-1.05.26-1.74.33l.02.14c.51-.03,1.84-.27,1.99-.35Z"/>
    <path class="cls-12" d="M86.97,134.86c.57-.12,1.05-.29,1.38-.56l-.43.09-.95.47Z"/>
    <path class="cls-12" d="M75.06,142.75l-2.8-17.41,2.85,17.78c.01-.07.03-.13.04-.2l.03-.17.16-.02c.37-.04.77-.11,1.17-.23-.12,0-.23.02-.34.02l-1.11.23Z"/>
    <path class="cls-12" d="M58.55,150.53c-.31,3.72-.56,7.45-.85,11.17-.02.33-.14.65-.16.98,0,.02.08.15.07.3-.15,2.02-.55,4.56-.65,6.73.52.27,1.03.53,1.54.79l.67-17.3c-.35-.95-.42-2.08-.56-3.14l-.05.47h0Z"/>
    <path class="cls-12" d="M46.15,154.42s-.08-.15-.07-.3c.04-.36.12-.73.2-1.09,0,0-.18-.02-.5-.17l-.86,11.1c.14.06.28.13.42.19.25-3.25.5-6.5.81-9.74h0Z"/>
    <path class="cls-12" d="M45.24,165.47c-.14-.06-.28-.13-.42-.19l-.64,8.25c-.02.08-.06.13-.09.19.16-.1.33-.2.52-.26.22-2.66.42-5.33.63-7.99Z"/>
    <path class="cls-12" d="M106.71,125.35c-.32.08-.65.17-.96.23.05.02.1.05.16.05.67.04,1.79-.39,2.73-.58-.17-.01-.33-.03-.52,0-.38.04-.88.17-1.41.31h0Z"/>
    <path class="cls-12" d="M95.42,127.83c.05-.39.16-.61.3-.72-.17-.09-.35-.15-.46-.1s-.2.26-.24.57l-.03.21-.19-.02c-.37-.03-.85.11-1.31.24-.42.12-.82.23-1.18.24.09.04.19.07.3.08.76.07,1.97-.57,2.8-.5h0Z"/>
    <path class="cls-12" d="M43.34,174.28c-.12.04-.23.07-.32.12-.41.24-.74.8-.78,1.36-.02.25.07,1,.2,1.85.08-1.03.34-2.49,1.12-3.41-.07.03-.14.05-.21.07h-.01Z"/>
    <path class="cls-12" d="M104.38,125.98c.06-.05.05-.23.08-.4-.08-.05-.15-.1-.21-.15-.13-.11-.23-.19-.38-.19-.23,0-.25.1-.28.37-.01.13-.03.27-.12.36-.15.14-1.44.36-2.26.49.08.04.16.08.25.09.15.02,2.81-.46,2.93-.56h-.01Z"/>
    <path class="cls-12" d="M61.11,149.52c.33,1.86.61,3.76.84,5.64-.53.07-.96-.09-1.39-.33.36.48.81.88,1.33,1.01.45.11.93,0,1.41-.32-.1-1.32-.33-2.65-.56-3.94-.18-1.02-.36-2.07-.48-3.11l-1.31.26c.09.24.11.6.14.79h.02Z"/>
    <path class="cls-12" d="M99.9,126.9c.08-.07.07-.35.17-.56-.01,0-.03-.02-.04-.03-.15-.12-.27-.21-.48-.19-.11.01-.15.08-.2.36-.02.14-.04.27-.13.35-.08.08-.21.11-1.16.25-.41.06-.96.15-1.32.22.08.05.16.11.23.16.37-.21,2.81-.46,2.93-.57h0Z"/>
    <path d="M105.24,125.24c-.09-.05-.18-.08-.3-.08-.11,0-.18.03-.25.06.04.02.07.04.12.04.12,0,.27,0,.43-.02Z"/>
    <path d="M102.61,129.68c-.27-.02-.72.11-1.16.24-.47.14-.94.27-1.33.28-.16.4-.33.63-.54.73.45.27.84.67,1.27-.55.55.04,1.43-.29,2.12-.46-.05-.04-.11-.07-.16-.11-.08-.07-.15-.13-.21-.14h.01Z"/>
    <path d="M105.75,125.58c-.37.08-.71.13-.98.11-.13,0-.23-.05-.32-.11-.03.17-.02.35-.08.4-.11.1-2.78.58-2.93.56-.1-.01-.18-.05-.25-.09-.38.06-.66.1-.67.1-.2-.02-.34-.12-.46-.21-.1.21-.09.49-.17.56-.12.11-2.56.36-2.93.57-.08-.06-.16-.11-.23-.16-.16.04-.29.07-.34.1l-.11.06-.1-.07c-.09-.07-.27-.2-.46-.3-.14.11-.25.33-.3.72-.83-.07-2.04.57-2.8.5-.11,0-.21-.04-.3-.08h-.17c-.23-.02-.41-.12-.56-.21-.06-.04-.12-.06-.18-.09-.43.05-.28.59-.63.78-.15.08-1.47.32-1.99.35l.11.68c1.52-.2,3.29-1.36,4.43.21-.5.03-3.64.9-4.25.9l.17,1.07,4.86-.94c.26-.03.43.13.56.25.07.06.13.12.18.14.14.06.25.07.32.03.11-.05.17-.23.23-.38.06-.16.11-.31.24-.38.19-.1,2.62-.54,2.74-.53.24.02.44.15.61.26.16.1.31.2.41.16.07-.03.21-.14.39-.64l.05-.15h.15c.34.04.85-.11,1.35-.25.49-.14.95-.28,1.29-.26.2.02.34.14.45.24.06.05.12.11.17.13.19.08.34.09.43.04.11-.06.15-.23.19-.37.04-.13.07-.26.19-.33.19-.1,2.41-.52,2.59-.52.4,0,.58.11.72.21.09.06.15.11.27.13.3.06.31.02.37-.21.03-.12.07-.26.17-.39.07-.08.18-.14.4-.23.14-.06.29-.13.4-.2.81-.52,1.2-1.22,1.02-1.82-.15-.51-.67-.83-1.37-.89-.93.2-2.06.63-2.73.58-.06,0-.11-.03-.16-.05v.02ZM95.11,129.6c-.22-.04-.93-.62-1.13-.82.02-.14,2.42-.62,2.59-.59.12.02.23.08.33.15l.9.76c-.69-.04-2.09.6-2.69.5h0ZM99.69,128.7c-.21-.03-.62-.33-.82-.46-.15-.1-.49-.28-.51-.46.73.02,2.05-.58,2.7-.5.42.05.82.67,1.24.79,0,0-2.61.63-2.61.63ZM109.93,126.19c-.15,1.03-2.3.69-2.62-.26.57.08,2.79-.93,2.62.26ZM106.48,127.34c-.33.1-2.06.46-2.31.44-.37-.03-1.08-.6-1.33-.92.68.07,2.13-.6,2.69-.5.07.01,1.11.71,1.15.77.14.22-.09.18-.19.22h-.01Z"/>
    <path d="M98.36,130.56c-.2,0-2.21.39-2.53.48-.02.03-.04.1-.06.14-.08.21-.18.49-.44.62-.08.04-.16.05-.25.05.09.08.18.17.29.22.83.33.79-.66,1-.77.1-.06,1.8-.39,2.49-.5-.02,0-.05-.03-.07-.04-.15-.09-.3-.19-.43-.2Z"/>
    <path d="M106.66,128.87c-.19,0-2.04.37-2.38.46,0,.02-.01.04-.02.07-.04.17-.12.43-.34.59.09.08.18.17.29.22.97.39.88-.62,1.02-.69.09-.05,1.27-.29,2.02-.43-.04-.02-.07-.04-.11-.07-.13-.09-.22-.15-.5-.15h.02Z"/>
    <path d="M94.16,131.42l-4.85.94.05.35,5.19-1.01c-.06-.04-.11-.09-.15-.13-.12-.11-.18-.16-.24-.15h0Z"/>
    <path d="M109.87,125.03c.25.2.44.46.53.77.18.63-.04,1.56-1.2,2.32-.14.09-.31.16-.46.23-.09.04-.22.1-.24.11-.04.05-.06.14-.09.23-.03.11-.08.24-.16.35.25.08.34.25.63.31.73.16.55-.41.78-.71.08-.1.54-.2.79-.41,1.16-.98.71-2.82-.57-3.2h-.01Z"/>
    <path d="M51.99,151.94s.1-.03.21-.06c.08-.02.16-.03.24,0-.09.58-.19,1.15-.28,1.73l-.29,2.44c-.1.61-.2,1.23-.3,1.84l-.2,1.86c-.13.81-.26,1.62-.4,2.42-.59,1.08-.62,2.02-.21,2.34.25.19.69.18,1,0,.69-.41.41-1.45.78-3.71.16-.99.22-.84.55-2.54.11-.59.29-1.52.42-2.59.13-1.04.25-2.45.24-4.17,1.6-.34,3.2-.67,4.8-1.01l.05-.47c-.04-.28-.09-.55-.14-.81l-1.86.37c0-.13-.02-.24-.06-.36-.43-1.45-.4-3.05-.81-4.51-.02,0-.1-.2-.25-.26-4.42.73-8.89,1.65-13.32,2.54-1.52.31-3.28.87-4.82,1.03.31.38.65.74,1.02,1.06l16.16-3.27.24.04.6,3.82c-.05.27-.57.3-.81.36-2.61.64-5.83,1.32-8.46,1.73-.08,0-.15.02-.22.03l-.08,1.03c.32.15.5.17.5.17,0,0,5.35-.94,5.71-1.09v.03Z"/>
    <path d="M36.87,148.15s-.04,0-.06,0l.87,1.1.15-.03c-.35-.33-.67-.69-.97-1.07h.01Z"/>
    <path d="M44.64,152.12c.28.24.53.42.75.55l.04-.54h-.79Z"/>
    <path class="cls-3" d="M55.17,164.17c.39-1.27.59-2.23.71-2.89.09-.49.26-.95.36-1.44.16-.78.52-1.35.59-1.33l.04.11q.07.19.07.22c.02.08,0,.11,0,.28v.29c0,.16-.1,1.33-.41,4.76.02.04.14.3.41.37.1.02.19,0,.25,0-.26-.31-.23-.67-.07-.8.14-.11.36-.04.4-.03.04-.54.12-1.47.16-2.01.29-3.73.57-7.45.85-11.17-1.12,3.11-2.2,6.39-3.21,9.83-.41,1.41-.8,2.81-1.17,4.18.13.05.45.16.71,0,.2-.12.27-.3.29-.37h.02Z"/>
    <path class="cls-3" d="M52.72,158.28c-.09.65-.24,2.31-.62,4.53-.13.76-.25,1.39-.34,1.81.84-.04,1.68-.08,2.53-.13,1.42-4.66,2.84-9.31,4.26-13.97l-4.8,1.01c-.37,2.25-.7,4.49-1.03,6.74h0Z"/>
    <path class="cls-20" d="M46.17,154.42h-.02c-.3,3.24-.56,6.49-.81,9.74,0,0,.02,0,.03,0,0,0,.8-9.75.8-9.75Z"/>
    <path class="cls-20" d="M50.09,158.59c.13-2.48-1.52-4.45-3.92-4.17l-.8,9.75c.5.23,1.01.46,1.54.7.04.02.13.1.27.12.15.03.25-.03.41-.06.17-.04.19-.02.57-.04,0,0,.37-.02.67-.07.61-.09,1.07-2.76,1.25-6.23h.01Z"/>
    <path class="cls-20" d="M50.61,164.64c.21-.13.2-.48.21-.85,0-.38.04-.93.15-1.6.07-.4.13-.81.2-1.21.07-.4.13-.81.2-1.21l.2-1.86c.1-.61.2-1.23.3-1.84l.29-2.44c.09-.58.19-1.15.28-1.73-.16-.08-.32.04-.45.04-.3,2.02-.61,4.05-.9,6.07-.42,2.94-1.7,6.2-.97,6.6.07.04.32.13.49.03h0Z"/>
    <path class="cls-22" d="M46.28,153.04c-.08.35-.16.72-.2,1.09-.02.15.07.28.07.3,0,0,0,0,.02-.02l.11-1.37Z"/>
    <path class="cls-22" d="M48.22,154.53c1.08.54,1.56,1.52,1.76,1.97.65,1.49.35,3.04-.25,6.07-.17.86-.34,1.57-.46,2.05h.64c0-.06.03-.16.06-.29.11-.51.21-.89.22-.94.31-1.23.82-5.95.82-5.95.12-1.08.32-2.63.69-4.51.1-.33.2-.66.29-.99-1.88.14-3.83.83-5.71,1.09l-.11,1.37c.43-.5,1.52-.14,2.05.13h0Z"/>
    <path class="cls-22" d="M46.17,154.4s0,0-.02.02h.02v-.02Z"/>
    <path class="cls-22" d="M49.96,164.33c.08.14.14.16.19.16.39-.02.41-2.48.95-6.48.03-.25.12-.83.29-1.99.25-1.74.47-3.15.61-4.08-.1.33-.2.66-.29.99-.38,1.81-.73,3.73-1.03,5.74-.3,1.96-.53,3.85-.7,5.66h-.02Z"/>
    <path class="cls-22" d="M50.09,158.59c-.05.89-.11,1.76-.48,3.5-.23,1.09-.48,1.98-.66,2.59.03.05.08.08.13.07.06,0,.11-.06.12-.13.09-.32.2-.74.33-1.22,0,0,.1-.41.2-.83.52-2.23.79-3.35.78-4.26,0-.55-.02-2.82-1.16-3.38-.29-.14-.5-.1-1.12-.4-.6-.29-.82-.53-1.22-.52-.36,0-.65.22-.84.4v.02c2.4-.28,4.06,1.69,3.92,4.17h0Z"/>
    <path class="cls-4" d="M57.21,164.54c.4-5.09-.05-.02,0,0,.11-2.17.25.46.4-1.56,0-.15-.07-.28-.07-.3l-.18.36c-.15,1.51,0-.69-.15,1.51h0Z"/>
    <path class="cls-4" d="M57.21,164.54c.05-.5.1-1,.15-1.51l.22-.6s-.14,0-.22.05c-.07.04-.25.19-.21,1.26,0,.19.02.47.07.8h-.01Z"/>
    <path class="cls-8" d="M59.93,153.81c.11.22.24.45.38.67-.34-1.69-1.02-4,.8-4.96-.03-.18-.05-.55-.14-.79l-2.27.46h0l-.09.86c.14,1.06.21,2.19.56,3.14l.04-1.1s.72,1.72.72,1.72Z"/>
    <path class="cls-8" d="M58.6,150.06l.09-.86h0l-.24.05c.06.26.11.53.14.81h.01Z"/>
    <path class="cls-21" d="M61.95,155.17c-.24-1.89-.51-3.78-.84-5.64l-.06.3c-.93.56-1.02,1.71-.88,2.72l.38,1.98-.12.13c.04.06.09.12.14.19.43.24.86.4,1.39.33h0Z"/>
    <path class="cls-21" d="M60.31,154.49c.04.06.08.11.11.17l.12-.13-.38-1.98c-.14-1.01-.05-2.16.88-2.72l.06-.3c-1.82.96-1.14,3.27-.8,4.96h0Z"/>
    <polygon points="72.27 125.34 75.06 142.75 76.17 142.52 73.47 125.42 72.27 125.34"/>
    <path d="M86.97,128.34h-1.21c.1.04.05.45.08.6.08.49.13.99.2,1.45.11.65.25,1.29.34,1.95.07.49.47,2.07.32,2.56.09-.02.18-.03.26-.05l.95-.47-.95-6.04h.01Z"/>
    <path d="M80.18,130.98c-.1-.65-.24-1.3-.34-1.95-.05-.31-.44-2.08-.3-2.18l-1.74-.51h-.05c.35.53.6,1.22.77,2.05.58,2.84,1.37,7.09,1.61,9.94.02.27-.03.44-.04.68,0,.04.03.13.05.25l1.2-.85c-.22-1.09-.32-2.21-.5-3.3-.22-1.38-.43-2.75-.65-4.13h0Z"/>
    <path class="cls-26" d="M43.57,179.11s0,.04,0,.06h.03s-.03-.03-.04-.06Z"/>
    <path class="cls-26" d="M56.75,158.84s-.05,1.21-.36,5.16c-.02.2-.03.39-.05.59l.2.03c0-.08.03-.24.05-.44.15-1.27.37-3.74.42-5.07,0-.13-.03-.69-.23-.73-.03,0-.07,0-.09.02-.16.07-.21.3-.24.4-.06.29-.19.56-.22.85,0,.03-.12.57-.36,1.64-.11.5-.19.86-.29,1.26-.12.44-.31,1.08-.62,1.85.04.16.15.25.21.23.06,0,.09-.1.09-.12.08-.31.15-.63.23-.94h0s.44,1.2.67,1.19c.51-.02.62-5.91.57-5.91h.02Z"/>
    <path class="cls-25" d="M76.17,142.52c.11,0,.23,0,.34-.02,1.17-.34,2.36-1.07,3.05-2.56-.08.05-.16.08-.25.12l-3.15,2.46h.01Z"/>
    <path class="cls-25" d="M74.27,125.16c-.21.04-.43.06-.64.12-.11.03-.19-.1-.16.14l.81.17v-.44h0Z"/>
    <path class="cls-25" d="M79.7,140.59c-.06.1-.12.19-.18.28.07-.09.13-.18.18-.28Z"/>
    <path class="cls-25" d="M79.95,140.1s-.03.06-.04.09c.01-.03.03-.06.04-.09Z"/>
    <path class="cls-25" d="M77.64,140.29c-.42-.1-1.19-.6-1.28-1.07-.71-3.94-1.4-7.89-1.99-11.86-.05-.36-.07-.73-.09-1.09-.01-.22,0-.45,0-.67l-.81-.17,2.71,17.1,3.15-2.46c-.56.25-1.28.31-1.68.22h-.01Z"/>
    <path class="cls-25" d="M80.06,139.31l.07-.05c-.01-.12-.05-.21-.05-.25.02.11,0,.2-.02.3Z"/>
    <path class="cls-22" d="M81.33,138.41l4.77-3.38.08-.03c.18-.03.35-.06.52-.1.15-.49-.25-2.07-.32-2.56l-5.56,2.76c.18,1.09.28,2.21.5,3.3h.01Z"/>
    <path class="cls-20" d="M80.83,135.11l.03-.27c1.78-.89,3.57-1.77,5.35-2.66l.18.17c-.1-.66-.23-1.3-.34-1.95l-5.86.58c.22,1.38.43,2.76.65,4.13h-.01Z"/>
    <path class="cls-20" d="M80.86,134.84l-.03.27,5.56-2.76-.18-.17c-1.78.89-3.56,1.77-5.35,2.66h0Z"/>
    <path class="cls-17" d="M88.8,129.08l-.02-.14c-.28.03-.5.03-.57-.03-.08-.07-.09-.17-.13-.39-.02-.11-.04-.24-.07-.38l-1.03.21.95,6.04.43-.09c.1-.09.21-.17.28-.28.24-.39.27-.96.08-1.74l-.05-.23.4-.08-.47-2.9s.1,0,.21,0h-.01Z"/>
    <path d="M89.16,132.4c.02.12.03.23.05.35l.16-.03-.05-.35-.16.03Z"/>
    <path class="cls-17" d="M88.97,130.86s-.16-1.03-.11-1.09h.04l-.11-.68h-.21l.47,2.9.19-.04-.17-1.07c-.05,0-.09,0-.11-.02h0Z"/>
    <path class="cls-22" d="M85.44,129.12c-1.86.06-3.75.04-5.59-.09.1.65.24,1.3.34,1.95l.12-.25c1.88-.19,3.75-.37,5.63-.56l.12.22c-.08-.46-.12-.96-.2-1.45,0,.38-.2.17-.41.17h-.01Z"/>
    <path class="cls-22" d="M80.3,130.74l-.12.25,5.86-.58-.12-.22c-1.88.19-3.75.37-5.63.56h.01Z"/>
    <path class="cls-5" d="M79.84,129.03l.44-.13c1.8-.02,4.1,0,5.56.04-.03-.15.02-.57-.08-.61l-6.23-1.48c-.13.1.26,1.87.3,2.18h.01Z"/>
    <path class="cls-5" d="M80.28,128.91l-.44.13c1.85.13,3.73.15,5.59.09.21,0,.41.2.41-.17-1.47-.05-3.76-.06-5.56-.04h0Z"/>
    <path class="cls-24" d="M93.33,129.97c-1.14-1.57-2.91-.41-4.43-.21l.17,1.11c.61,0,3.75-.87,4.25-.9h.01Z"/>
    <path class="cls-24" d="M88.97,130.86s.05.02.11.02l-.17-1.11h-.04c-.05.06.07,1.05.11,1.09h-.01Z"/>
    <path class="cls-2" d="M98.35,127.78c.03.18.37.36.51.46.2.14.6.44.82.46l2.61-.63c-.43-.12-.82-.74-1.24-.79-.65-.08-1.97.52-2.7.5Z"/>
    <path class="cls-23" d="M102.83,126.85c.25.32.96.89,1.33.92.25.02,1.99-.34,2.31-.44.1-.03.33,0,.19-.22-.04-.06-1.08-.76-1.15-.77-.56-.1-2.01.57-2.69.5h.01Z"/>
    <path class="cls-11" d="M96.57,128.19c-.17-.03-2.57.45-2.59.59.2.2.91.79,1.13.82.6.11,2-.54,2.69-.5l-.9-.76c-.1-.08-.21-.13-.33-.15h0Z"/>
    <path class="cls-1" d="M109.93,126.19c.18-1.19-2.05-.18-2.62-.26.32.95,2.46,1.29,2.62.26Z"/>
    <path class="cls-20" d="M77.74,126.33c-.68-1.07-1.75-1.53-3.47-1.17.02.15.05.3.07.45l3.4.72Z"/>
    <path class="cls-20" d="M80.12,138.33c-.24-2.85-1.03-7.09-1.61-9.94-.17-.84-.42-1.52-.77-2.06l-3.4-.72c.67,4.53,1.43,9.04,2.23,13.53.57,1.02,1.42,1.11,2.43.78.19-.06.5-.17.73-.34l.02-.06.2-.14c.09-.11.14-.23.12-.37.01-.24.06-.41.04-.68h0Z"/>
    <path class="cls-20" d="M79.32,140.07c.09-.04.17-.07.25-.12l.06-.12-.3.24h0Z"/>
    <path class="cls-20" d="M74.34,125.61c-.02-.15-.05-.3-.07-.45v.44h.07Z"/>
    <path class="cls-20" d="M79.96,139.39l.1-.07c.02-.09.04-.19.02-.3.01.14-.04.26-.12.37h0Z"/>
    <path class="cls-20" d="M76.57,139.15c-.8-4.5-1.56-9.01-2.23-13.53h-.06v.66c.02.37.04.73.09,1.09.59,3.97,1.28,7.92,1.99,11.86.08.47.85.97,1.28,1.07.4.09,1.12.02,1.68-.22l.3-.24c.04-.08.08-.15.11-.24h0c-.24.16-.54.27-.73.34-1.02.33-1.86.24-2.43-.78h0Z"/>
    <path class="cls-26" d="M61.18,147.78c3.67-.58,7.32-1.26,10.95-2.1,1.7-.39,2.29-1.06,2.12-2.83-.03-.32-.29-2.55-.39-2.63-.27.57-.96,1.34-1.57,1.47-3.4.73-6.83,1.44-10.25,2.13l-2.7,4.34c.61-.13,1.22-.25,1.84-.37h0Z"/>
    <path class="cls-26" d="M56.89,148.73c.81-.22,1.63-.41,2.45-.58l2.7-4.34c-2.05.41-4.09.82-6.12,1.2l-.19-.27c.41,1.46.38,3.06.81,4.51-.08-.23.15-.46.35-.52h0Z"/>
    <path class="cls-20" d="M43.99,151.64c-1.13-.65-3.46-1.47-4.95-1.96,1.43,1.07,3.12,1.77,4.95,1.96Z"/>
    <path class="cls-20" d="M37.69,149.25l1.32,1.15c1.21.8,2.42,1.26,3.68,1.45-1.78-.41-3.4-1.28-4.72-2.51-.17-.05-.27-.08-.27-.08h0Z"/>
    <path class="cls-20" d="M37.84,149.22l-.15.03s.1.03.27.08c-.04-.04-.08-.08-.12-.12h0Z"/>
    <path class="cls-20" d="M54.55,150.08c.24-.06.76-.09.81-.36l-.6-3.82-.24-.04-16.16,3.27c.22.2.45.39.69.56,1.49.49,3.82,1.31,4.95,1.96.55.06,1.1.07,1.66.04h.23v.15c.07,0,.14-.02.21-.03,2.63-.4,5.85-1.09,8.46-1.73h-.01Z"/>
    <path class="cls-3" d="M35.16,145.04c-.07-.19-.11-.37-.17-.56.26.96.6,1.87,1.06,2.66.14.24.57.96.77,1.01l.05-.02c-.72-.91-1.3-1.95-1.71-3.09Z"/>
    <path class="cls-3" d="M69.56,123.09l-27.7,5.59c-3.12.92-5.45,3.02-6.67,5.79-1.05,3.08-.94,6.78.35,10.41.4,1.12.96,2.12,1.66,3-.02-.07-.08-.13-.13-.22-.29-.51-.65-.97-.91-1.52-.76-1.62-.99-3.48-1.19-5.27.46.71.74,1.64,1.22,2.33,1.19,1.74,2.99,3,4.96,3.57l23.74-7.53-2.69,4.32c3.35-.74,6.7-1.55,10.05-2.11.63-.27,1.11-.7,1.41-1.34.05-.1.12-.9.34-.57.06.09.11,1.2.15,1.44.37,2.09,1.03,4.07-1.6,4.8-4.24,1.19-8.96,1.67-13.38,2.62l-.34.55c.65-.14,1.59-.52,1.95-.45.09.02.14.1.19.21l1.31-.26s0-.06,0-.09l-.02-.2,10.16-1.94c1.46-.46,2.41-1.57,2.72-3.12l-2.85-17.78c-.33-1.37-1.37-2.19-2.7-2.25l-.02.02ZM57.08,140.94c-4.96,1.08-10.17,2.21-15.15,3.09-1.03.18-1.81.53-2.41-.67-.28-2-.73-3.98-.98-5.99-.07-.52-.25-1.24-.15-1.74.19-1.01.93-1.07,1.7-1.26,5.76-1.44,11.82-2.19,17.61-3.57.49-.06.97.09,1.25.51.23.33.3.96.38,1.37.33,1.67.87,4.46.97,6.09.12,1.93-1.89,1.89-3.22,2.18h0ZM69.92,128.07c-.13.12-3.04.75-3.35.75-.15,0-.31.06-.44-.07-.12-.12-.36-1.69-.19-1.88.13-.15,3.59-.76,3.76-.67.21.11.46,1.64.22,1.87ZM71.77,126.17c-.4-.55-.67-.8-1.27-1.04-.14.16-.36.16-.68,0-1.44.05-2.9.35-4.28.8l-.26-.11c-7.97,1.58-15.95,3.14-23.88,4.91-2.37.73-5.64,3.98-6.07,6.59l-.38,2.31c0,.07.2.65-.1.63-.49-3.76,1.28-7.67,4.32-9.71,1.28-.86,2.45-1.16,3.9-1.5,8.58-1.99,17.31-3.31,25.91-5.26,1.03-.31,2.3.4,2.67,1.42.05.13.17.92.13.96h-.01Z"/>
    <path class="cls-3" d="M55.48,144.48c.15.06.23.25.25.26.24.11.69-.03.96-.08,1.83-.3,3.67-.68,5.5-1.09l2.69-4.32-23.74,7.53c.33.1.67.18,1.02.24,4.42-.89,8.9-1.81,13.32-2.54Z"/>
    <path class="cls-3" d="M56.54,149.25c.03.12.06.24.06.36l1.86-.37c-.02-.07-.03-.15-.04-.21.11,0,.26-.02.42-.05l.34-.55c-.75.16-1.49.33-2.21.52l-.42.3h-.01Z"/>
    <path class="cls-3" d="M36.86,148.14l-.05.02h.06v-.02Z"/>
    <path class="cls-3" d="M60.97,148.74c-.04-.11-.1-.19-.19-.21-.36-.07-1.3.31-1.95.45l-.14.22,2.27-.46h0Z"/>
    <path class="cls-3" d="M58.46,149.24l.24-.05.14-.22c-.16.03-.31.06-.42.05.02.07.03.14.04.21h0Z"/>
    <path class="cls-3" d="M72.3,141.69c.6-.13,1.29-.9,1.57-1.47.1.08.36,2.31.39,2.63.17,1.77-.42,2.44-2.12,2.83-3.63.84-7.28,1.52-10.95,2.1-.61.11-1.23.24-1.84.37l-.17.27c4.42-.95,9.14-1.43,13.38-2.62,2.63-.74,1.97-2.72,1.6-4.8-.04-.25-.09-1.35-.15-1.44-.22-.33-.29.47-.34.57-.31.64-.78,1.07-1.41,1.34-3.35.55-6.7,1.37-10.05,2.11l-.15.24c3.42-.68,6.85-1.39,10.25-2.13h0Z"/>
    <path class="cls-3" d="M55.73,144.74l.19.27c2.03-.38,4.07-.79,6.12-1.2l.15-.24c-1.84.41-3.67.79-5.5,1.09-.27.04-.71.18-.96.08Z"/>
    <path class="cls-3" d="M56.89,148.73c-.2.05-.42.29-.35.52l.42-.3c.73-.19,1.46-.36,2.21-.52l.17-.27c-.82.17-1.64.36-2.45.58h0Z"/>
    <path class="cls-26" d="M35.34,142.14c.22,2.07.84,3.96,2.03,5.58.05.13.05.2,0,.25l3.5-1.11c-2.36-.53-4.47-2.52-5.53-4.73h0Z"/>
    <path class="cls-26" d="M37.37,147.98s-.04.03-.06.04c0,0,.02.02.03.04,1.54-.17,3.3-.73,4.82-1.03-.44,0-.87-.06-1.29-.15l-3.5,1.11h0Z"/>
    <path class="cls-26" d="M37.37,147.98s.05-.12,0-.25c-1.19-1.62-1.81-3.51-2.03-5.58,1.05,2.21,3.17,4.2,5.53,4.73l.28-.09c-1.97-.58-3.76-1.83-4.96-3.57-.48-.7-.76-1.62-1.22-2.33.2,1.79.43,3.65,1.19,5.27.26.56.62,1.01.91,1.52.05.09.11.15.13.22.03.04.06.08.1.12l.08-.02v-.02Z"/>
    <path class="cls-26" d="M42.16,147.02c-.34-.06-.68-.14-1.02-.24l-.28.09c.42.1.85.16,1.29.15h0Z"/>
    <path class="cls-26" d="M37.37,147.98l-.08.02s0,0,0,.02c.02,0,.05-.02.06-.04h.01Z"/>
    <path class="cls-16" d="M68.98,123.79c-8.59,1.95-17.32,3.27-25.91,5.26-1.45.34-2.62.64-3.9,1.5-3.04,2.04-4.81,5.94-4.32,9.71.3,0,.09-.56.1-.63l.38-2.31c.43-2.61,3.7-5.86,6.07-6.59,7.93-1.77,15.91-3.33,23.88-4.91l.26.11c1.38-.45,2.84-.74,4.28-.8.31.16.54.15.68,0,.6.24.87.49,1.27,1.04.04-.04-.08-.83-.13-.96-.37-1.03-1.64-1.73-2.67-1.42h.01Z"/>
    <path class="cls-21" d="M65.94,126.87c-.17.19.07,1.75.19,1.88.13.13.29.08.44.07.31,0,3.22-.63,3.35-.75.24-.22-.01-1.76-.22-1.87-.17-.09-3.63.52-3.76.67Z"/>
    <path class="cls-14" d="M58.95,131.3h-1.31l-18.19,3.7-1.07.63c-.09.5.09,1.23.15,1.74.26,2,.71,3.99.98,5.99.6,1.2,1.38.85,2.41.67,4.98-.88,10.19-2.01,15.15-3.09,1.33-.29,3.34-.24,3.22-2.18-.1-1.64-.65-4.42-.97-6.09-.08-.41-.15-1.04-.38-1.37h.01ZM59.44,139.72c-.36.34-3.13.67-3.79.8-4.93,1.02-9.84,2.18-14.79,3.05-1.1,0-.95-1.09-.47-1.85.46-.73,1.46-.62,2.21-.79,4.76-1.1,9.57-2,14.35-2.98.32-.26.41-.71.32-1.1-.09-.4-.29,0-.49.06-4.45,1.21-9.27,1.69-13.77,2.85-.69.03-.72.04-.91-.57-.18-.58-.24-.84.38-1.09l13.6-2.82.86.06c0-.14-.04-1.72-.29-1.59-.08.32-.42.4-.69.48-4.18,1.29-9.12,1.51-13.37,2.73-.47.07-.9-.06-1.02-.59-.11-.46,0-.93.5-1.04l13.89-2.83c.15-.02.44.06.53.16.43-.87,1.29-1.91,2.07-.84l1.13,6.78c-.02.34-.02.87-.27,1.11h.02Z"/>
    <path class="cls-6" d="M39.55,134.74l18.05-3.69c.46-.03.95-.03,1.35.24-.29-.42-.77-.57-1.25-.51-5.79,1.39-11.85,2.14-17.61,3.57-.78.19-1.51.25-1.7,1.26.25-.46.71-.74,1.17-.88h0Z"/>
    <path class="cls-6" d="M57.64,131.29h1.31c-.4-.25-.9-.26-1.35-.23l-18.05,3.69c-.46.14-.92.43-1.17.88l1.07-.63s18.19-3.71,18.19-3.71Z"/>
    <path class="cls-22" d="M56.51,132.67c.17.17.18.65.06.88-.09.17-.62.3-.82.36-4.37,1.16-9.18,1.62-13.59,2.7l-.57-.22c.12.52.55.66,1.02.59,4.25-1.22,9.19-1.44,13.37-2.73.27-.08.61-.16.69-.48.25-.14.28,1.45.29,1.59.03.36.42.88-.27,1.11l-14.04,2.89-.53-.16c.19.61.22.59.91.57,4.49-1.17,9.31-1.65,13.77-2.85.2-.05.39-.46.49-.06.09.39,0,.84-.32,1.1.77.16.74,1.13-.04,1.3l-13.81,2.8c-.6.06-.92-.61-.51-1.12-.75.17-1.74.06-2.21.79-.48.76-.63,1.85.47,1.85,4.95-.88,9.86-2.03,14.79-3.05.66-.14,3.43-.46,3.79-.8.25-.23.24-.76.27-1.11l-1.13-6.78c-.78-1.07-1.64-.03-2.07.84h-.01Z"/>
    <path d="M42.16,136.38c4.26-.81,8.52-1.63,12.77-2.5.5-.1,1.01-.23,1.44-.43,0-.28.06-.54.14-.77-.09-.09-.38-.18-.53-.16l-13.89,2.83c-.49.11-.61.58-.5,1.04.15-.19.34-.2.57,0h0Z"/>
    <path d="M55.75,133.91c.2-.05.73-.18.82-.36.12-.23.11-.71-.06-.88-.08.23-.12.49-.14.77-.44.2-.94.33-1.44.43-4.25.87-8.51,1.69-12.77,2.5-.23-.19-.42-.19-.57,0l.57.22c4.41-1.08,9.22-1.54,13.59-2.7v.02Z"/>
    <path d="M56.88,139.03c.58-.17.54-.61.09-.91v-.16c-4.79.98-9.6,1.88-14.36,2.98-.02.41.06.69.26.86,4.67-.85,9.34-1.77,14.01-2.76h0Z"/>
    <path d="M43.12,142.06l13.81-2.8c.79-.17.81-1.14.04-1.3v.16c.45.31.49.75-.09.91-4.67.99-9.34,1.91-14.01,2.76-.2-.17-.28-.45-.26-.86-.41.51-.09,1.18.51,1.12h0Z"/>
    <path d="M42.66,139.13l13.97-2.89c.28-.08.32-.33.13-.75l.2-.14-.86-.06-13.6,2.82c-.61.25-.56.51-.38,1.09.11-.2.29-.22.54-.07Z"/>
    <path d="M56.69,136.46c.68-.23.29-.75.27-1.11l-.2.14c.2.42.15.67-.13.75l-13.97,2.89c-.24-.15-.42-.13-.54.07l.53.16,14.04-2.89h0Z"/>
    <path d="M102.97,129.92s.08.07.13.09c.31.13.56.13.76.02.02,0,.04-.03.06-.05-.09-.08-.18-.15-.3-.15-.18,0-.4.03-.66.09h.01Z"/>
    <path d="M90.52,128.61c.22-.12.29-.34.35-.49.07-.19.09-.22.18-.23.15-.02.26.02.37.06h0c.42-.05.63.17.91.3.35,0,.75-.12,1.18-.24.46-.13.95-.27,1.31-.24l.19.02.03-.21c.04-.31.12-.52.24-.57.11-.05.29,0,.46.1.25-.2.62-.05,1.01.21.36-.08.91-.16,1.32-.22.95-.14,1.08-.17,1.16-.25.09-.08.11-.21.13-.35.05-.28.08-.35.2-.36.21-.02.33.07.48.19.01,0,.03.02.04.03.06-.12.14-.23.3-.24.07,0,.11.01.17.02-.09-.02-.17-.08-.27-.15-.18-.13-.39-.3-.75-.26-.45.05-.53.5-.57.72,0,.03,0,.06-.01.09-.16.04-.58.1-.93.16-.81.12-1.39.22-1.67.32-.42-.3-.86-.54-1.22-.36-.22.11-.37.34-.45.72-.39.01-.83.13-1.26.26-.44.12-.89.25-1.21.22-.16-.01-.27-.08-.4-.16-.2-.12-.43-.25-.78-.2-.35.04-.45.32-.52.51-.05.14-.08.22-.15.26-.13.06-1.1.23-1.63.29l.07.42c.69-.07,1.73-.33,1.74-.33l-.02-.04Z"/>
    <path d="M107.26,129.08c.08.05.17.1.3.12.38.09.58-.02.69-.17-.09-.03-.21-.05-.37-.05-.07,0-.31.04-.62.1Z"/>
    <path d="M76.52,142.5c-.4.12-.8.19-1.17.23l-.16.02-.03.17c-.01.07-.03.14-.04.2v.05c.07,1.49-.82,2.71-2.13,3.15l-10.72,2.15c.12,1.04.3,2.1.48,3.11.22,1.29.46,2.63.56,3.94-.49.32-.96.43-1.41.32-.52-.13-.97-.54-1.33-1.01-.07-.04-.13-.07-.2-.11-.61-.36-.96-.91-1.2-1.54l-.45,11.51c.13.07.27.02.4.09l.42-10.86.03.07c.64,1.28,1.41,2.06,2.23,2.26.6.14,1.21,0,1.83-.46l.1-.07v-.12c-.1-1.38-.34-2.77-.58-4.12-.17-.97-.34-1.98-.46-2.98l9.8-1.87c1.65-.52,2.72-1.76,3.05-3.51,1.78-.23,3.13-1.01,3.98-2.27-.7.98-1.85,1.57-3,1.63v.02Z"/>
    <path d="M98.86,130.8c.2.13.43.25.68.15.01,0,.03-.02.04-.02-.14-.08-.28-.16-.43-.17-.02,0-.14.02-.29.04h0Z"/>
    <path d="M106.71,125.35c.53-.14,1.03-.27,1.41-.31.19-.02.35,0,.52,0,.28-.06.54-.1.77-.1.17,0,.32.04.46.08-.43-.33-1.05-.49-1.78-.42-.41.04-.93.17-1.47.32-.49.13-.98.25-1.38.31.19.1.33.26.51.34.31-.06.63-.15.96-.23h0Z"/>
    <path d="M86.97,134.86l-.29.14-5.28,3.75-1.26.67c-.04.23-.1.46-.19.67.05-.1.1-.19.14-.3l6.2-4.38c1.13-.19,2.2-.38,2.69-1.17.02-.03.02-.06.04-.08l-.66.13c-.34.28-.82.44-1.38.56h0Z"/>
    <path d="M103.46,125.97c.1-.09.11-.23.12-.36.03-.27.06-.37.28-.37.15,0,.26.08.38.19.06.05.13.11.21.15.03-.14.09-.28.24-.36-.06-.03-.12-.07-.19-.13-.15-.13-.34-.28-.64-.28-.61.01-.66.54-.68.77v.06c-.4.12-2.31.47-2.58.48.25.05.42.22.61.33.82-.13,2.11-.35,2.26-.49h0Z"/>
    <path d="M94.56,131.7s.09.07.15.09c.14.06.26.07.38.07-.12-.11-.23-.2-.4-.18l-.13.02h0Z"/>
    <path d="M45.78,152.87c-.11-.05-.24-.12-.39-.21l-.86,11.13c.13.06.26.12.39.17l.86-11.1h0Z"/>
    <path d="M79.9,140.19c-.06.14-.13.27-.21.4.07-.13.14-.26.21-.4Z"/>
    <path d="M44.45,151.96c-.6.02-1.19-.02-1.76-.11.63.15,1.29.24,1.95.27-.06-.05-.12-.1-.18-.15h-.01Z"/>
    <path d="M35.19,134.47c.16-.47.34-.93.56-1.37,1.34-2.73,3.67-4.64,6.73-5.52l26.52-5.35c.99.02,1.85.41,2.54,1.16.06.07.15.2.23.33.19.29.36.56.57.61.21.06.55-.01,1.04-.13.22-.05.45-.11.59-.12.96-.07,1.62.09,2.45.59.17.1.38.31.57.49.21.2.37.36.51.43.2.09.64.19,1.04.29.15.03.29.07.39.09.23.06.49.13.77.2,1.68.44,3.99,1.05,5.26,1.13.34.02.69-.06,1.02-.14.58-.14,1.13-.26,1.63.16.21.18.32.51.39.81l.4-.08c-.08-.38-.22-.81-.54-1.07-.65-.54-1.35-.38-1.96-.24-.32.07-.62.15-.91.13-1.24-.07-3.62-.7-5.19-1.12-.28-.07-.54-.14-.77-.2-.1-.03-.24-.06-.4-.09-.34-.08-.8-.18-.96-.26-.08-.04-.25-.21-.4-.35-.2-.2-.43-.42-.64-.54-.89-.54-1.64-.72-2.67-.65-.17.01-.4.07-.65.13-.29.07-.72.17-.85.13-.08-.03-.26-.3-.35-.45-.1-.15-.19-.29-.28-.38-.78-.83-1.73-1.26-2.84-1.28h-.04l-26.56,5.36c-3.19.91-5.61,2.9-7,5.74-1.6,3.27-1.73,7.46-.41,11.57-.35-1.27-.56-2.62-.69-3.85-.24-2.24.09-4.34.9-6.16h0Z"/>
    <path d="M96.28,127.48l.11-.06c.05-.03.18-.06.34-.1-.39-.26-.76-.41-1.01-.21.19.1.37.23.46.3,0,0,.1.07.1.07Z"/>
    <path d="M92.15,128.25h.17c-.28-.13-.49-.35-.91-.3h0c.06.03.12.05.18.09.15.09.32.19.56.21Z"/>
    <path d="M104.46,125.58c.09.05.19.1.32.11.27.02.61-.03.98-.11-.19-.08-.33-.24-.51-.34-.16.02-.31.03-.43.02-.04,0-.08-.02-.12-.04-.15.08-.21.22-.24.36Z"/>
    <path d="M108.5,128.46s.14-.07.24-.11c.15-.07.32-.14.46-.23,1.17-.76,1.39-1.7,1.2-2.32-.09-.31-.27-.57-.53-.77-.15-.04-.3-.08-.46-.08-.23,0-.49.04-.77.1.7.06,1.22.37,1.37.89.18.6-.22,1.3-1.02,1.82-.11.07-.26.14-.4.2-.21.09-.33.15-.4.23-.1.12-.14.26-.17.39-.06.23-.07.28-.37.21-.12-.03-.19-.07-.27-.13-.15-.1-.33-.22-.72-.21-.18,0-2.4.42-2.59.52-.11.06-.15.19-.19.33s-.08.31-.19.37c-.09.05-.24.03-.43-.04-.05-.02-.11-.07-.17-.13-.11-.1-.25-.22-.45-.24-.33-.02-.8.11-1.29.26-.5.14-1.01.29-1.35.27h-.15l-.05.14c-.18.5-.32.61-.39.64-.1.04-.25-.06-.41-.16-.18-.11-.38-.24-.61-.26-.12,0-2.55.43-2.74.53-.13.07-.18.22-.24.38-.06.15-.12.33-.23.38-.07.04-.18.03-.32-.03-.06-.02-.12-.08-.18-.14-.13-.12-.3-.28-.56-.25l-4.86.94.07.42,4.85-.94c.06,0,.12.04.24.15.05.04.1.09.15.13l.13-.02c.16-.02.28.08.4.18.09,0,.18-.02.25-.05.26-.13.37-.41.44-.62.02-.05.04-.11.06-.14.32-.09,2.33-.48,2.53-.48.13,0,.28.11.43.2.02,0,.05.03.07.04.15-.02.27-.04.29-.04.15,0,.29.08.43.17.21-.1.38-.32.54-.73.39,0,.87-.15,1.33-.28.44-.13.89-.26,1.16-.24.06,0,.13.07.21.14.04.04.1.07.16.11.25-.06.48-.1.66-.09.12,0,.21.08.3.15.21-.16.29-.42.34-.59,0-.02.01-.05.02-.07.34-.09,2.18-.46,2.38-.46.28,0,.37.06.5.15.03.02.07.04.11.07.31-.06.55-.1.62-.1.16,0,.28.02.37.05.08-.11.13-.24.16-.35.02-.09.05-.18.09-.23l-.05-.03Z"/>
    <path d="M100.07,126.34c.13.1.26.2.46.21,0,0,.29-.04.67-.1-.19-.11-.36-.28-.61-.33h-.05c-.06,0-.1-.03-.17-.02-.17.02-.25.12-.3.24Z"/>
    <path d="M45.86,151.84c-.48.07-.95.11-1.41.12h0c.06.06.12.1.18.15.26,0,.53,0,.79,0l-.04.54c.14.09.28.16.39.21l.08-1.03h0Z"/>
    <path d="M37.34,148.05c-.08,0-.16.03-.23.03-.06,0-.14.05-.23.06.3.38.62.74.97,1.07l.51-.1c-.36-.33-.7-.68-1.02-1.06Z"/>
    <path d="M59.93,153.81l-.72-1.72-.04,1.1c.23.62.59,1.17,1.2,1.54,0-.08-.03-.16-.05-.24-.14-.23-.27-.46-.38-.67h0Z"/>
    <path d="M60.36,154.73c.07.04.13.07.2.11-.05-.06-.09-.12-.14-.19l-.07.07h0Z"/>
    <path d="M60.31,154.49c.02.08.03.17.05.24l.07-.07c-.04-.06-.08-.11-.11-.17h0Z"/>
    <path d="M86.68,135.01l.29-.14c-.08.02-.17.03-.26.05,0,.03-.01.07-.03.1h0Z"/>
    <path d="M80.12,139.27c0,.05.02.09,0,.16l1.26-.67c-.03-.11-.04-.23-.07-.34l-1.2.85h0Z"/>
    <path d="M79.94,139.58c-.09.14-.21.27-.37.36-.69,1.48-1.88,2.22-3.05,2.56,1.15-.06,2.3-.66,3-1.63.06-.09.12-.18.18-.28.08-.13.15-.26.21-.4.01-.03.03-.06.04-.09.08-.21.15-.44.19-.67l-.19.15h0Z"/>
    <path d="M80.06,139.31c-.02.1-.06.18-.12.27l.19-.15c.01-.07,0-.11,0-.16l-.07.05h0Z"/>
    <path d="M86.18,135l-.08.03-4.77,3.38c.02.11.04.23.07.34l5.28-3.75s.02-.06.03-.1c-.17.03-.35.06-.52.1h-.01Z"/>
    <path d="M89.2,132.74h-.02l-.13-.76-.4.08.05.23c.19.78.16,1.35-.08,1.74-.07.11-.18.19-.28.28l.66-.13c.2-.37.27-.85.2-1.43h0Z"/>
    <path d="M88.08,128.51c.04.22.05.32.13.39.07.06.29.06.57.03l-.07-.42c-.09,0-.16.02-.22.02,0-.03-.01-.07-.02-.11-.02-.11-.04-.24-.07-.37l-.4.08c.03.14.06.27.07.38h.01Z"/>
    <path d="M89.19,132.74h.02c-.01-.12-.02-.23-.05-.35l.16-.03-.07-.42-.19.04.13.77h0Z"/>
    <path d="M79.74,139.59c.09-.06.16-.13.22-.2l-.2.14s-.02.06-.02.06Z"/>
    <path d="M79.57,139.95c.16-.1.28-.22.37-.36l-.32.25-.06.12h0Z"/>
    <path d="M79.96,139.39c-.06.07-.13.14-.22.2h0c-.03.09-.08.16-.11.24l.32-.25c.05-.08.1-.17.12-.27l-.1.07h-.01Z"/>
    <path d="M44.45,151.96c-.11-.1-.27-.21-.46-.32-1.82-.2-3.52-.89-4.95-1.96-.46-.15-.84-.27-1.07-.34,1.32,1.23,2.95,2.1,4.72,2.51.57.09,1.16.12,1.76.11h0Z"/>
    <path d="M37.84,149.22s.08.08.12.12c.24.07.61.19,1.07.34-.24-.18-.47-.36-.69-.56l-.51.1h0Z"/>
    <path d="M45.65,151.68c-.56.03-1.12.02-1.66-.04.19.11.35.22.46.32.46,0,.93-.05,1.41-.12v-.17h-.21s0,0,0,0Z"/>
    <path d="M72.4,146.24l-10.16,1.94.02.2s0,.06,0,.09l10.72-2.15c1.3-.44,2.19-1.66,2.13-3.15v-.05c-.31,1.55-1.27,2.66-2.73,3.12h.01Z"/>
    <path d="M36.86,148.14l.27-.08c.06-.07.08-.12.07-.17-.7-.88-1.27-1.89-1.66-3-1.29-3.62-1.39-7.33-.35-10.41-.81,1.82-1.14,3.92-.9,6.16.13,1.22.34,2.57.69,3.85.06.19.11.37.17.56.41,1.15.99,2.19,1.71,3.09Z"/>
    <path d="M37.13,148.05l-.27.08h0c.09,0,.17-.05.23-.06,0,0,.02-.02.03-.03h.01Z"/>
    <path d="M37.1,148.09c.07,0,.16-.02.23-.03,0,0-.02-.02-.03-.04-.05.03-.12.05-.2.07h0Z"/>
    <path d="M37.2,147.89s0,.1-.07.17l.16-.05s-.07-.08-.1-.12h0Z"/>
    <path d="M37.31,148.02s0,0,0-.02l-.16.05s0,.02-.03.03c.08-.02.15-.04.2-.07h0Z"/>
    <path d="M44.92,163.97c-.13-.06-.26-.12-.39-.17l-.1,1.32c.13.06.26.12.39.18l.1-1.32h0Z"/>
  </g>
  <path d="M74.36,184.68h.08c-.02-.12-.04-.23-.06-.34.23-3.28-.52-6.58-1.12-9.29-.09-.39-.17-.77-.25-1.14-1.44-6.63-8.69-10.44-19.89-10.44-9.28,0-29.14,3.7-29.34,3.74l.23,1.22c.2-.04,19.95-3.72,29.11-3.72,4.99,0,16.81.92,18.67,9.46.08.37.17.76.26,1.15.43,1.89.9,4,1.07,6.14-4.35-5.91-17.23-5.28-17.86-5.24l.07,1.24c.16,0,16.05-.79,17.8,6.97-.22,2.59-1.11,5.1-3.29,7.23-2.54-8.17-18.23-7.4-18.93-7.36l.07,1.24c.16,0,16.12-.8,17.81,7.03-.96.75-2.11,1.43-3.49,2.05-7.69,3.42-16.49,6.78-27.39,6.76.15.42.3.83.44,1.25,10.91-.07,19.73-3.44,27.45-6.87,6.11-2.72,8.17-6.85,8.55-11.08h0Z"/>
</svg>