<?xml version="1.0" encoding="UTF-8"?>
<svg id="Layer_1" data-name="Layer 1" xmlns="http://www.w3.org/2000/svg" viewBox="0 0 230.55 253.1">
  <defs>
    <style>
      .cls-1 {
        fill: #ff971d;
      }

      .cls-2 {
        fill: #f48e31;
      }

      .cls-3 {
        fill: #ffba0a;
      }

      .cls-4 {
        fill: #d6ff00;
      }

      .cls-5 {
        fill: #caceaf;
      }

      .cls-6 {
        fill: #ffd33f;
      }

      .cls-7 {
        fill: #ce7c38;
      }
    </style>
  </defs>
  <g>
    <path class="cls-3" d="M42.8,97.1c15.34-14.13,40.91-37.42,54.55-40.26,13.64-2.84,77.85,22.71,91.48,36.35s14.2,20.44,18.19,32.37c3.99,11.93,5.11,19.88,7.39,27.83s-17.05,33.51-20.45,40.33-3.41,10.79-7.95,14.77c-4.55,3.97-43.19,7.38-54.55,10.79-11.36,3.41-10.23,2.27-17.05,2.27s-13.64-5.11-21.02-5.11-27.05,6.46-36.26,1.46c-8.11-4.42-6.92-17.93-14.31-24.17-7.39-6.25-8.52-7.38-11.94-18.74-.75-2.52-.83-4.63-.95-5.87-3.51-37.78,5.48-57.17,5.48-57.17,0,0,.04-.08,7.39-14.83h0Z"/>
    <g>
      <path d="M178.7,92.55c-.22-.23-.45-.46-.68-.69.03.29.05.57.11.86.17-.05.37-.11.57-.17h0Z"/>
      <path d="M24.74,112.03c3.02-7.53,6.52-13.38,7.17-14.43,13.11-12.08,40.13-36.93,53.68-39.76,12.98-2.7,76.98,22.83,90.1,35.94.84.83,1.6,1.63,2.33,2.41-.96-1.78-1.42-3.65-1.38-5.64-16.02-14.09-78.15-38.5-91.68-35.67-14.42,3.01-40.99,27.47-55.26,40.63l-.15.14-.11.17c-.16.26-4.09,6.53-7.51,15.08-2.13,5.33-4.49,22.25-5.42,37.73.99-.7,2.04-1.42,3.15-2.13,1-14.46,3.16-29.68,5.07-34.47h.01Z"/>
      <path d="M200.87,153.34c1.47,5.15-8.71,20.83-14.78,30.21-2.58,3.97-4.62,7.12-5.58,9.03-1.18,2.36-1.96,4.39-2.65,6.17-1.29,3.34-2.21,5.74-4.95,8.14-2.31,2.02-17.48,4.29-29.67,6.12-4.39.65-8.68,1.3-12.51,1.93-.16,1.05-.31,2.09-.46,3.14,4.05-.68,8.67-1.38,13.42-2.08,17.57-2.63,28.44-4.4,31.21-6.83,3.29-2.88,4.39-5.72,5.78-9.33.66-1.72,1.42-3.67,2.54-5.91.89-1.76,2.98-4.99,5.4-8.74,9.3-14.34,16.86-26.7,15.15-32.67-.3-1.07-.58-2.14-.87-3.22-1.03.36-1.99.69-2.88.94.26,1.04.53,2.07.84,3.11h.02Z"/>
      <path d="M106.08,219.68c-.97-.05-2.16-.11-3.77-.11-3.07,0-6.23-1.16-9.57-2.38-1.24-.45-2.5-.92-3.76-1.32v3.18c.92.31,1.82.64,2.73.98,3.44,1.27,7,2.58,10.61,2.58,1.53,0,2.64.06,3.61.11.76.04,1.44.08,2.11.08,2.21,0,4.5-.38,10.63-2.18v-3.15c-8.25,2.46-9.46,2.4-12.58,2.24,0,0,0-.02,0-.02Z"/>
      <path d="M71.37,215.8c-8.32,1.48-19.72,3.51-25.62.3-3.77-2.05-5.34-6.59-7-11.39-.1-.29-.2-.58-.3-.88h-.36c-.94,0-1.9-.03-2.87-.08.23.64.46,1.29.68,1.94,1.77,5.13,3.61,10.44,8.41,13.05,6.83,3.71,18.35,1.67,27.6.02,1.98-.35,3.83-.68,5.44-.92-.14-1-.29-1.99-.44-2.99-1.67.24-3.53.57-5.54.94h0Z"/>
      <path d="M194.17,117.71c-1.57-4.96-3.15-9.33-6.48-14.36h0c-1.95-.67-3.95-1.37-5.56-2.44,5.68,7.08,7.51,12.4,9.55,18.95.9-.63,1.75-1.35,2.49-2.15Z"/>
      <path d="M74.67,185.78h.08c-.02-.12-.04-.23-.06-.34.23-3.3-.52-6.62-1.13-9.35-.09-.39-.17-.77-.25-1.15-1.45-6.67-8.75-10.5-20.02-10.5-9.34,0-29.33,3.72-29.53,3.76l.23,1.23c.2-.04,20.08-3.74,29.3-3.74,5.02,0,16.92.93,18.79,9.52.08.37.17.76.26,1.16.43,1.9.91,4.02,1.08,6.18-4.38-5.95-17.34-5.31-17.97-5.27l.07,1.25c.16,0,16.15-.79,17.91,7.01-.22,2.61-1.12,5.13-3.31,7.27-2.56-8.22-18.35-7.44-19.05-7.4l.07,1.25c.16,0,16.22-.8,17.92,7.07-.97.75-2.12,1.44-3.51,2.06-7.74,3.44-16.6,6.82-27.57,6.8.15.42.3.83.44,1.26,10.98-.07,19.86-3.46,27.63-6.91,6.15-2.74,8.22-6.89,8.6-11.15h.01Z"/>
      <path d="M193.17,94.25l.41-1.21c-.2-.07-4.94-1.68-8.21-1.68-2.14,0-4.93.68-6.67,1.19.35.35.68.7,1.02,1.05,1.66-.44,3.94-.96,5.66-.96,3.05,0,7.75,1.59,7.8,1.61h0Z"/>
      <path d="M196.57,111.55c.17,2.43-.86,4.48-2.4,6.16.14.46.29.93.44,1.39,2.32-2.28,3.43-4.88,3.24-7.64-.43-6.1-5.37-7.81-9.74-9.32-.56-.19-1.12-.39-1.66-.59.44.61.86,1.21,1.25,1.8,4.38,1.52,8.5,2.95,8.88,8.2h-.01Z"/>
      <path d="M182.13,100.91c-1.19-1.48-2.55-3.04-4.11-4.71.67,1.25,1.58,2.44,2.74,3.6.41.41.88.77,1.37,1.1h0Z"/>
      <path d="M87.47,250.57c0,.32-.21.59-.47.59h-39.24c-.29,0-.57-.19-.72-.49-1.74-3.43-1.77-7.76-.08-10.51.7-1.14,2.02-2.5,4.32-2.5,4.09,0,9.33,1.84,13.54,3.32,2.07.72,3.86,1.36,5.16,1.64,2.88.62,9.19.72,10.75-1.86,1.06-1.75-.69-15.08-1.87-23.09-.47.06-.97.12-1.5.2,1.54,10.58,2.66,20.91,2.07,22.11-.9,1.47-5.86,1.88-9.14,1.17-1.21-.26-2.95-.88-4.98-1.59-4.32-1.52-9.69-3.4-14.04-3.4-2.33,0-4.33,1.15-5.6,3.22-1.95,3.18-1.94,8.11.02,11.98.41.81,1.21,1.33,2.07,1.33h39.24c1.1,0,1.98-.95,1.98-2.1v-31.53c-.5-.17-1.01-.33-1.51-.48v32.01h0Z"/>
      <path d="M126.94,240.74c1.56,2.59,7.88,2.48,10.75,1.86,1.3-.28,3.09-.91,5.16-1.64,4.21-1.48,9.45-3.32,13.54-3.32,2.29,0,3.61,1.36,4.32,2.5,1.69,2.76,1.66,7.08-.08,10.51-.15.3-.43.49-.72.49h-39.24c-.25,0-.47-.27-.47-.59v-30.42c-.13.04-.26.07-.38.11-.39.12-.76.23-1.13.33v29.98c0,1.16.89,2.1,1.98,2.1h39.24c.87,0,1.66-.5,2.07-1.33,1.96-3.87,1.97-8.8.02-11.98-1.28-2.07-3.26-3.22-5.6-3.22-4.35,0-9.72,1.88-14.04,3.4-2.02.71-3.77,1.33-4.98,1.59-3.29.71-8.25.3-9.14-1.16-.58-1.2.51-11.4,2.04-21.9-.53.09-1.06.18-1.57.27-1.17,8.06-2.8,20.7-1.77,22.4h0Z"/>
      <path d="M230.13,99.67c-1.42-8.71-6.73-13.87-11.73-17.77-4.79-3.73-16.2-8.88-26.43-6.84-7.67,1.53-12.57,5.33-14.55,11.3-.48,1.46-.73,2.86-.76,4.2.42.37.82.73,1.18,1.09.07.07.13.13.19.19-.16-1.52,0-3.1.51-4.77,1.21-.38,4.94-1.48,7.49-1.48,3.05,0,7.75,1.59,7.8,1.61l.41-1.21c-.2-.07-4.94-1.68-8.21-1.68-2.24,0-5.22.75-6.93,1.26,2.07-4.82,6.48-7.93,13.13-9.26,9.28-1.85,20.43,2.74,25.39,6.59,6.82,5.3,10.19,10.37,11.26,16.96,1.28,7.84-.74,22.33-4.09,29.26-4.21,8.74-9.15,13.35-18.87,17.59-1.18.51-2.28.96-3.31,1.33.1.41.21.82.31,1.24,1.1-.39,2.24-.83,3.51-1.39,10.04-4.4,15.16-9.15,19.51-18.22,3.49-7.24,5.53-21.83,4.2-30.02h-.01Z"/>
      <path d="M21.56,200.14C-.7,193.68,1.33,175.35,1.35,175.16c.06-.47.1-1.03.14-1.6.31-4.51.92-13,14.94-23.31.03-.53.06-1.08.09-1.61C1.22,159.56.57,168.68.24,173.48c-.04.58-.07,1.09-.13,1.53-.38,3.06.17,8.07,2.89,12.97,3.53,6.38,9.66,10.87,18.21,13.36,5.02,1.46,9.67,2.2,14.01,2.42-.15-.43-.31-.86-.47-1.28-4.1-.25-8.47-.99-13.18-2.35h0Z"/>
      <path d="M120.17,220.15v-3.13c-.44.11-.87.23-1.25.34-.09.03-.17.05-.26.08v3.15c.36-.11.73-.22,1.13-.33.12-.04.26-.07.38-.11Z"/>
      <path d="M19.56,148.06c.03-.51.07-1.04.1-1.55-1.12.71-2.16,1.43-3.15,2.13-.03.54-.06,1.08-.09,1.61.99-.72,2.02-1.45,3.14-2.19h0Z"/>
      <path d="M129.17,215.2c-.14.93-.3,1.98-.46,3.15.51-.09,1.04-.18,1.57-.27.15-1.05.31-2.09.46-3.14-.53.09-1.06.17-1.57.26h0Z"/>
      <path d="M199.72,148.98c.1.41.21.83.31,1.25.88-.25,1.85-.57,2.88-.94-.1-.41-.21-.82-.31-1.24-1.04.37-1.99.68-2.88.94h0Z"/>
      <path d="M178.02,96.2c1.57,1.66,2.92,3.22,4.11,4.71,1.61,1.07,3.61,1.76,5.56,2.44h0c-.39-.59-.81-1.19-1.25-1.8-1.88-.69-3.58-1.46-4.78-2.65-1.57-1.57-2.64-3.21-3.22-4.95.35-.1.79-.23,1.27-.36-.33-.34-.66-.69-1.02-1.05-.2.06-.4.11-.57.17-.05-.28-.08-.57-.11-.86-.07-.07-.13-.13-.19-.19-.35-.35-.75-.72-1.18-1.09-.04,1.98.41,3.85,1.38,5.64v-.03h.01Z"/>
      <path d="M38.44,203.84c-.14-.42-.29-.83-.44-1.26-1.07,0-2.15-.04-3.25-.1.16.42.31.86.47,1.28.97.05,1.93.08,2.87.08h.36-.01Z"/>
      <path d="M87.47,215.41v3.15c.5.15,1.01.31,1.51.48v-3.18c-.5-.16-1.01-.31-1.51-.45Z"/>
      <path d="M78.4,214.66c-.48.06-.98.12-1.5.2.15,1,.3,1.99.44,2.99.52-.08,1.03-.14,1.5-.2-.16-1.12-.31-2.12-.44-2.99Z"/>
      <path d="M191.68,119.86c.09.29.18.57.27.88.04.13.09.28.13.41.96-.65,1.8-1.34,2.53-2.05-.15-.47-.29-.94-.44-1.39-.73.8-1.59,1.52-2.49,2.15Z"/>
    </g>
    <ellipse cx="121.98" cy="104.92" rx="6.42" ry="9.98"/>
    <ellipse cx="146.48" cy="104.92" rx="6.42" ry="9.98"/>
    <path d="M114.55,143.26h0c.86,0,1.59.65,1.64,1.52.47,7.29,4.33,13.2,8.83,13.2s8.35-5.91,8.83-13.2c.06-.86.79-1.52,1.64-1.52h0c.97,0,1.71.82,1.65,1.79-.58,9.23-5.71,16.24-12.13,16.24s-11.53-7-12.13-16.24c-.06-.97.68-1.79,1.65-1.79h.02Z"/>
  </g>
  <g>
    <g>
      <path class="cls-7" d="M169.09,82.67c-1.77-4.2-7.24-6.23-7.24-6.23,1.19,7.75-24.19,13.79-59.94,14.74s-57.94-7.53-56.91-17.91c0,0-4.59,3.61-4.54,6.31.04,2.15,3.12,8.13,12.19,11.67,9.07,3.54,32.9,4.91,50.78,4.91s45.75-3.4,51.07-4.91c5.31-1.51,16.36-4.38,14.6-8.58h-.01Z"/>
      <path class="cls-2" d="M101.9,91.18c35.75-.95,61.13-6.98,59.94-14.74-1.16-7.53-5.61-20.6-5.61-20.6,0,10.18-14.93,16.59-33.72,19.22h0s-10.25,1.76-20.22,1.67c-9.97-.09-22.41-1.72-22.41-1.72,0-.05-.02-.1-.03-.15-18.12-2.76-32.29-9.09-32.29-19.01,0,0-1.54,7.07-2.58,17.43-1.03,10.36,21.15,18.84,56.91,17.91h0Z"/>
      <path class="cls-1" d="M111.74,25.04c.7,8.82,1.17,5.13,8.22,18.7,5.41,10.4,2.56,31.3,2.55,31.33,18.79-2.64,33.72-9.04,33.72-19.22,0-15.36-7.62-29.1-19.57-38.22,3.05,6.65,3.62,19.15,3.62,19.15h-12.02V12.36c-5.67-2.89-11.96-4.87-18.64-5.74.39,1.09.42,2.27.46,3.25.21,5.08,1.25,10.1,1.65,15.16h0Z"/>
      <path class="cls-1" d="M79.86,74.85c-2.08-11.02-1.45-19.61.5-29.12,1.86-9.07,8.3-12.58,8.64-20.59.21-5.04,1.19-10.02,1.52-15.05.05-.72.12-1.87.66-3.01-5.73,1.05-11.13,2.94-16.05,5.49v24.2h-12.02s.55-11.91,3.41-18.66c-11.59,9.12-18.95,22.63-18.95,37.72,0,9.92,14.18,16.26,32.29,19.01h0Z"/>
      <path class="cls-6" d="M89,25.14c-.33,8-6.77,11.52-8.64,20.59-1.95,9.52-2.59,18.11-.5,29.12,0,.05.02.1.03.15,0,0,12.45,1.63,22.41,1.72,9.97.09,20.22-1.67,20.22-1.67h0s2.87-20.92-2.55-31.33c-7.05-13.57-7.52-9.88-8.22-18.7-.4-5.07-1.44-10.08-1.65-15.16-.04-.98-.06-2.16-.46-3.25-.21-.58-.53-1.15-1.04-1.63-1.34-1.3-3.83-1.39-8.67-1.39-3.71,0-6.43.42-8.09,2.43-.28.34-.49.69-.66,1.06-.54,1.14-.61,2.28-.66,3.01-.32,5.03-1.31,10.01-1.52,15.05h0Z"/>
      <path class="cls-6" d="M75.13,36.78V11.16s-1.6-1.07-6.41,3.47c-.86.8-1.58,2.03-2.19,3.49-2.86,6.75-3.41,18.66-3.41,18.66,0,0,12.02,0,12.02,0Z"/>
      <path class="cls-6" d="M140.28,36.78s-.57-12.5-3.62-19.15c-.57-1.25-1.23-2.28-1.98-3-4.81-4.54-6.41-3.47-6.41-3.47v25.62h12.02Z"/>
    </g>
    <path d="M101.98,93.83c-19.07,0-42.25-1.53-51.02-4.95-9.4-3.66-12.54-9.84-12.59-12.25-.05-2.67,3.56-5.81,4.57-6.65.97-9.61,2.39-16.43,2.55-17.17.02-14.63,6.96-28.48,19.06-38.06.68-1.57,1.45-2.77,2.28-3.55,4.92-4.65,6.85-3.76,7.2-3.54l.28.19v.72c4.72-2.34,9.76-4.03,15-5.02.17-.32.37-.61.6-.89,1.82-2.21,4.75-2.67,8.58-2.67,4.78,0,7.56.07,9.1,1.57.43.42.79.93,1.04,1.51,6.16.85,12.06,2.63,17.55,5.29v-.51l.28-.19c.33-.22,2.27-1.12,7.2,3.54.74.7,1.44,1.73,2.05,3.05,12.49,9.59,19.67,23.61,19.71,38.53.41,1.22,4.37,13.05,5.55,20.25,1.28.54,5.65,2.62,7.26,6.44h0c.34.8.32,1.62-.06,2.41-1.45,3.01-7.78,5.01-14.15,6.8l-.81.23c-5.59,1.58-33.41,4.93-51.24,4.93v-.02h.01ZM73.04,8.7c-.6.04-2.21.47-5.33,3.41-.73.69-1.42,1.79-2.04,3.28l-.06.15-.13.1c-11.89,9.36-18.71,22.92-18.71,37.22v.13c-.03.07-1.56,7.15-2.58,17.36l-.03.27-.21.17c-1.21.96-4.34,3.85-4.3,5.79.04,2.05,3.07,7.7,11.79,11.1,8.61,3.36,31.59,4.86,50.55,4.86,17.38,0,45.5-3.36,50.88-4.88l.81-.22c4.21-1.19,12.03-3.38,13.35-6.13.22-.46.23-.9.04-1.37h0c-1.64-3.89-6.82-5.86-6.87-5.87l-.35-.13-.06-.37c-1.14-7.39-5.54-20.36-5.59-20.49l-.03-.2c0-14.6-7.04-28.35-19.32-37.71l-.13-.1-.07-.14c-.57-1.24-1.19-2.18-1.84-2.8-3.08-2.91-4.7-3.37-5.33-3.4v1.71l-.93-.47c-5.73-2.92-11.94-4.83-18.43-5.67l-.38-.05-.13-.36c-.21-.56-.49-1.03-.88-1.4-1.13-1.1-3.37-1.21-8.22-1.21-3.47,0-6.1.37-7.61,2.2-.23.28-.42.58-.58.93l-.14.29-.32.06c-5.57,1.02-10.9,2.85-15.87,5.43l-.93.48v-1.97h0Z"/>
  </g>
  <g>
    <path class="cls-4" d="M190,123c-3.24-.91-22.4-1.29-24.26-.39s-12.48,26.17-15.57,27.3c-3.1,1.14-.69,30.63,1.99,32.53,2.69,1.9,8.2,3.3,15.2,3.03,7-.27,33.55-2.05,33.46-3.47s-2.06-30.76-2.92-31.75c-.86-1-7.45-.98-7.92-10.74-.46-9.77,0-16.5,0-16.5h.02,0Z"/>
    <path class="cls-5" d="M148.71,157.85c0-.88.04-1.73.08-2.54,8.7-.11,17.3-.22,25.91-.33.16-10.96.32-21.92.48-32.88.77,0,1.55.02,2.34.03.72.01,1.43.03,2.14.05l-.48,32.74c6.46-.08,12.93-.17,19.45-.25.12,1.11.23,2.23.34,3.36.05.48.09.98.13,1.46-16.8.22-33.58.43-50.38.65-.02-.73-.03-1.5-.02-2.28v-.02h0Z"/>
    <path class="cls-5" d="M200.27,174.17c-.03-.38-.05-.77-.08-1.16-.09-1.23-.18-2.45-.28-3.66-16.86.16-33.72.32-50.58.48.08.78.17,1.59.27,2.4.1.8.21,1.6.32,2.37,16.79-.14,33.56-.29,50.35-.43h0Z"/>
    <path d="M174.08,185.58c-2.96.18-5.16.29-5.9.32-6.47.25-12.4-.95-15.47-3.11-2.09-1.48-3.66-15.83-3.65-24.41v-.86c.02-.77.04-1.5.08-2.18.26-4.87,1.09-5.71,1.68-5.93,1.61-.59,6.11-9.69,9.4-16.34,3.69-7.46,5.28-10.54,6.13-10.94,1.09-.52,6.5-.56,9.62-.54.79,0,1.54.01,2.3.03h.13c.66.02,1.32.03,1.97.05l.08.48v-.48c5.23.15,9.14.46,10.45.83l.36.1-.03.4c0,.07-.47,6.82,0,16.44.35,7.4,4.31,8.91,6.44,9.72.64.24,1.11.42,1.36.71.15.18.36.42.82,4.46h0l.07.67c.08.75.16,1.56.24,2.42l.23,2.46h0c.8,8.86,1.61,20.98,1.67,22.03,0,.16-.04.32-.15.46-1.13,1.35-18.35,2.62-27.84,3.2h0ZM169.23,122.67c-1.47.09-2.26.21-2.51.33-.69.39-3.36,5.77-5.71,10.52-4.66,9.42-8.1,16.14-9.9,16.79-.08.03-.84.43-1.08,4.99-.04.77-.06,1.48-.07,2.24v.83c0,9.76,1.75,22.54,3.25,23.6,2.28,1.62,7.42,3.24,14.94,2.95,8.76-.34,30.95-2,33.03-3.16-.12-1.92-.94-13.78-1.7-22.3l-.04-.49h0l-.14-1.47c-.08-.86-.16-1.67-.24-2.41l-.05-.42c-.38-3.49-.58-4.09-.63-4.19-.07-.08-.54-.25-.97-.41-2.16-.82-6.65-2.54-7.03-10.59-.4-8.31-.11-14.52-.02-16.15-1.53-.31-5.21-.57-9.87-.71h-.09c-.64-.02-1.3-.04-1.95-.05h-.11c-.77-.02-1.53-.03-2.27-.03-3.07-.02-5.28.04-6.78.13h-.04,0Z"/>
  </g>
  <g>
    <path class="cls-4" d="M37.43,120.8c3.17-.32,5.71-.41,7.46-.43.68,0,.48,0,4.17-.01,3.59-.01,3.85-.02,4.78,0,2.31.06,3.47.09,5.05.31,2.31.31,3.99.8,5.2.64.09-.01.31-.04.57.04.67.22.96,1.05,1.23,1.76.33.88.86,1.68,1.16,2.57.68,2.06,2.26,4.31,4.94,9.45.5.97,4.07,7.83,5.85,11.08.22.39.7,1.28,1.54,2.27.96,1.15,1.83,1.82,2.01,1.96,2.49,2.06.18,12.23-.38,18.31-.33,3.51-1.28,15.52-2.74,15.53-.16,0-.29-.16-.54-.44-.96-1.13-.84-2.69-.82-3.05.14-2.64-1.24-6.42-2.27-9.27-.74-2.03-1.83-5.02-4.4-7.06-.92-.73-2.78-1.94-9.15-2.37-8.14-.55-12.56.91-20.46,1.43-2.22.15-4.16.18-6.17.7-.52.13-1.42.4-2.7.51-.93.08-1.14,0-2.27.11-1.47.14-1.6.34-2.05.19-1.3-.43-1.84-1.99-1.97-2.36-.61-1.77-.09-3.22.48-5.45,1.57-6.13.52-6.72,1.89-8.31,1.86-2.17,3.66-.88,6.06-3.13,2.05-1.92,2.53-4.54,3.11-7.77.37-2.06.36-3.37.38-7.59,0-2.03.02-5.36.06-9.63h-.02,0Z"/>
    <path class="cls-5" d="M82.81,158.77c.01-.92,0-1.8-.02-2.65-9.75-.46-19.4-.92-29.06-1.37.12-11.44.23-22.87.35-34.3-.87-.02-1.74-.05-2.63-.06-.81-.01-1.61-.02-2.41-.03l-.35,34.16c-7.25-.34-14.5-.68-21.82-1.03-.16,1.16-.32,2.31-.47,3.49-.06.5-.13,1.01-.19,1.51,18.83.89,37.67,1.78,56.5,2.67.04-.76.07-1.56.09-2.38h0Z"/>
    <path class="cls-5" d="M75.91,175.75l-1.41-3.44c2.22-.26,4.45-.53,6.67-.79-.05.44-.13,1.11-.19,1.92-.12,1.5-.07,1.87-.38,2.18-.28.27-.64.31-2.18.26-1.01-.03-1.85-.08-2.51-.13Z"/>
    <path d="M71.52,166.34c-.88-.99-1.72-1.56-1.91-1.69-1.96-1.31-3.95-1.5-5.69-1.65-4.94-.43-7.41-.64-8.47-.61-4.91.16-9.34.69-16.72,1.77-8.38,1.23-11.3,1.8-12.82,0-1.2-1.41-.95-3.61-.53-5.28l.32-2.51c.12-.9.23-1.74.34-2.52l.1-.69c.61-4.19.86-4.44,1.04-4.62.29-.3.82-.46,1.54-.69,2.41-.76,6.88-2.18,7.49-9.88.77-10.01.44-17.07.44-17.14l-.02-.42.41-.09c1.48-.33,5.87-.5,11.73-.45l.1.5v-.5c.73,0,1.47.02,2.2.03h.11c.9.02,1.75.04,2.59.06,3.55.1,9.62.36,10.83.95.95.46,2.64,3.73,6.58,11.66,3.51,7.06,8.32,16.73,10.1,17.41.66.25,1.56,1.17,1.72,6.15.02.81.03,1.58.02,2.38v.29c0,.12,0,.24-.01.36v.25c-2.62,19.84-4.01,25.37-4.78,25.32-.37-.03-.99-1.39-1.19-1.87-.35-.87-.37-1.4-.54-2.36-.1-.54-.43-1.67-1.1-3.91-.48-1.64-.65-2.14-.93-3.28-.26-1.12-.2-1.09-.36-1.75-.22-.91-.82-3.16-2.62-5.18h.01ZM60.64,161.77c4.91.44,7.77.7,10.22,2.68,2.24,1.81,3.1,4.44,4.79,9.7,1.9,5.91,1.96,9.05,2.57,9.08.67.03,1.79-4.5,3.78-23.89v-.27c.02-.11.02-.21.02-.33v-.28c0-.78,0-1.54-.02-2.24-.16-4.85-.99-5.3-1.08-5.34-2-.75-5.68-7.9-10.65-17.91-2.51-5.05-5.35-10.76-6.12-11.2-.54-.26-3.59-.64-10.38-.85-.88-.03-1.72-.04-2.58-.06l-.13-.5v.5c-.74-.01-1.48-.02-2.21-.03h-.1c-5.23-.04-9.37.09-11.1.35.06,1.7.21,8.18-.46,16.83-.65,8.38-5.74,9.99-8.18,10.76-.47.15-1.02.32-1.13.44-.03.06-.26.68-.8,4.31l-.06.44c-.11.77-.22,1.62-.34,2.51l-.26,2.04c-.44,1.5-.87,3.81.32,5.15,1.27,1.43,4.46.89,8.74.26.1-.02.08,0,.38-.06,1.97-.3,5.48-.81,10.67-1.42,3.47-.4,5.21-.6,6.32-.67,2.11-.13,4.75-.29,7.78-.02h.01Z"/>
  </g>
  <path d="M74.67,186.53h.08c-.02-.12-.04-.23-.06-.34.23-3.3-.52-6.62-1.13-9.35-.09-.39-.17-.77-.25-1.15-1.45-6.67-8.75-10.5-20.02-10.5-9.34,0-29.33,3.72-29.53,3.76l.23,1.23c.2-.04,20.08-3.74,29.3-3.74,5.02,0,16.92.93,18.79,9.52.08.37.17.76.26,1.16.43,1.9.91,4.02,1.08,6.18-4.38-5.95-17.34-5.31-17.97-5.27l.07,1.25c.16,0,16.15-.79,17.91,7.01-.22,2.61-1.12,5.13-3.31,7.27-2.56-8.22-18.35-7.44-19.05-7.4l.07,1.25c.16,0,16.22-.8,17.92,7.07-.97.75-2.12,1.44-3.51,2.06-7.74,3.44-16.6,6.82-27.57,6.8.15.42.3.83.44,1.26,10.98-.07,19.86-3.46,27.63-6.91,6.15-2.74,8.22-6.89,8.6-11.15h.01Z"/>
</svg>