<?xml version="1.0" encoding="UTF-8"?>
<svg id="Layer_1" data-name="Layer 1" xmlns="http://www.w3.org/2000/svg" viewBox="0 0 229.07 251.19">
  <defs>
    <style>
      .cls-1 {
        fill: #ff971d;
      }

      .cls-2 {
        fill: #f48e31;
      }

      .cls-3 {
        fill: #ffba0a;
      }

      .cls-4 {
        fill: #ffd33f;
      }

      .cls-5 {
        fill: #ce7c38;
      }
    </style>
  </defs>
  <g>
    <path class="cls-3" d="M42.53,96.53c15.24-14.05,40.65-37.2,54.2-40.02,13.55-2.82,77.35,22.58,90.9,36.13,13.55,13.55,14.11,20.32,18.07,32.18,3.95,11.86,5.08,19.76,7.34,27.66,2.26,7.9-16.94,33.31-20.32,40.09-3.39,6.77-3.39,10.73-7.9,14.68-4.52,3.95-42.91,7.34-54.2,10.73-11.29,3.39-10.16,2.26-16.94,2.26s-13.55-5.08-20.89-5.08-26.88,6.42-36.03,1.45c-8.06-4.39-6.88-17.82-14.22-24.03-7.34-6.21-8.47-7.34-11.86-18.63-3.39-11.29,1.13-54.2,4.52-62.67s7.34-14.74,7.34-14.74Z"/>
    <g>
      <path d="M177.56,92.01c-.22-.23-.45-.46-.68-.69.03.29.05.57.11.85.17-.05.37-.11.57-.17Z"/>
      <path d="M24.58,111.37c3-7.49,6.48-13.3,7.12-14.34,13.03-12.01,39.87-36.71,53.34-39.52,12.9-2.68,76.49,22.69,89.53,35.73.83.83,1.59,1.62,2.32,2.4-.95-1.77-1.41-3.63-1.37-5.61-15.92-14.01-77.65-38.27-91.1-35.46-14.33,2.99-40.73,27.31-54.91,40.39l-.15.14-.11.17c-.16.26-4.06,6.49-7.46,14.99-2.12,5.3-4.46,22.12-5.39,37.51.98-.7,2.03-1.41,3.13-2.12.99-14.37,3.14-29.5,5.04-34.27Z"/>
      <path d="M199.59,152.44c1.46,5.12-8.65,20.71-14.69,30.03-2.56,3.95-4.59,7.08-5.54,8.98-1.17,2.35-1.95,4.36-2.63,6.13-1.28,3.32-2.2,5.71-4.92,8.09-2.3,2.01-17.37,4.26-29.48,6.08-4.36.65-8.62,1.29-12.43,1.92-.16,1.04-.31,2.08-.46,3.12,4.02-.68,8.61-1.37,13.33-2.07,17.46-2.61,28.26-4.37,31.01-6.79,3.27-2.86,4.36-5.69,5.74-9.27.66-1.71,1.41-3.65,2.52-5.87.88-1.75,2.96-4.96,5.37-8.69,9.24-14.25,16.75-26.54,15.05-32.48-.3-1.06-.58-2.13-.86-3.2-1.02.36-1.98.69-2.86.93.26,1.03.53,2.06.83,3.09Z"/>
      <path d="M105.41,218.39c-.96-.05-2.15-.11-3.75-.11-3.05,0-6.19-1.15-9.51-2.37-1.23-.45-2.48-.91-3.74-1.31v3.16c.91.31,1.81.64,2.71.97,3.42,1.26,6.96,2.56,10.54,2.56,1.52,0,2.62.06,3.59.11.76.04,1.43.08,2.1.08,2.2,0,4.47-.38,10.56-2.17v-3.13c-8.2,2.45-9.4,2.39-12.5,2.23Z"/>
      <path d="M70.92,214.53c-8.27,1.47-19.59,3.49-25.46.3-3.75-2.04-5.31-6.55-6.96-11.32-.1-.29-.2-.58-.3-.87-.12,0-.24,0-.36,0-.93,0-1.89-.03-2.85-.08.23.64.46,1.28.68,1.93,1.76,5.1,3.59,10.38,8.36,12.97,6.79,3.69,18.23,1.66,27.42.02,1.97-.35,3.81-.68,5.41-.91-.14-.99-.29-1.98-.44-2.97-1.66.24-3.51.57-5.5.93Z"/>
      <path d="M192.93,117.02c-1.56-4.93-3.13-9.27-6.44-14.27,0,0,0,0,0,0-1.94-.67-3.92-1.36-5.52-2.43,5.64,7.04,7.46,12.33,9.49,18.84.89-.63,1.74-1.34,2.47-2.14Z"/>
      <path d="M74.2,184.69h.08c-.02-.12-.04-.23-.06-.34.23-3.28-.52-6.58-1.12-9.29-.09-.39-.17-.77-.25-1.14-1.44-6.63-8.69-10.44-19.89-10.44-9.28,0-29.14,3.7-29.34,3.74l.23,1.22c.2-.04,19.95-3.72,29.11-3.72,4.99,0,16.81.92,18.67,9.46.08.37.17.76.26,1.15.43,1.89.9,4,1.07,6.14-4.35-5.91-17.23-5.28-17.86-5.24l.07,1.24c.16,0,16.05-.79,17.8,6.97-.22,2.59-1.11,5.1-3.29,7.23-2.54-8.17-18.23-7.4-18.93-7.36l.07,1.24c.16,0,16.12-.8,17.81,7.03-.96.75-2.11,1.43-3.49,2.05-7.69,3.42-16.49,6.78-27.39,6.76.15.42.3.83.44,1.25,10.91-.07,19.73-3.44,27.45-6.87,6.11-2.72,8.17-6.85,8.55-11.08Z"/>
      <path d="M191.94,93.7l.41-1.2c-.2-.07-4.91-1.67-8.16-1.67-2.13,0-4.9.68-6.63,1.18.35.35.68.7,1.01,1.04,1.65-.44,3.91-.95,5.62-.95,3.03,0,7.7,1.58,7.75,1.6Z"/>
      <path d="M195.32,110.9c.17,2.42-.85,4.45-2.38,6.12.14.46.29.92.44,1.38,2.31-2.27,3.41-4.85,3.22-7.59-.43-6.06-5.34-7.76-9.68-9.26-.56-.19-1.11-.39-1.65-.59.44.61.85,1.2,1.24,1.79,4.35,1.51,8.45,2.93,8.82,8.15Z"/>
      <path d="M180.97,100.32c-1.18-1.47-2.53-3.02-4.08-4.68.67,1.24,1.57,2.43,2.72,3.58.41.41.87.77,1.36,1.09Z"/>
      <path d="M86.91,249.09c0,.32-.21.59-.47.59h-38.99c-.29,0-.57-.19-.72-.49-1.73-3.41-1.76-7.71-.08-10.45.7-1.13,2.01-2.49,4.29-2.49,4.06,0,9.27,1.83,13.45,3.3,2.06.72,3.84,1.35,5.13,1.63,2.86.62,9.13.72,10.68-1.85,1.05-1.74-.69-14.99-1.86-22.95-.47.06-.96.12-1.49.2,1.53,10.52,2.64,20.79,2.06,21.98-.89,1.46-5.82,1.87-9.08,1.16-1.2-.26-2.93-.87-4.95-1.58-4.29-1.51-9.63-3.38-13.95-3.38-2.32,0-4.3,1.14-5.56,3.2-1.94,3.16-1.93,8.06.02,11.91.41.81,1.2,1.32,2.06,1.32h38.99c1.09,0,1.97-.94,1.97-2.09v-31.34c-.5-.17-1-.33-1.5-.48v31.82Z"/>
      <path d="M126.13,239.32c1.55,2.57,7.83,2.47,10.68,1.85,1.29-.28,3.07-.9,5.13-1.63,4.18-1.47,9.39-3.3,13.45-3.3,2.28,0,3.59,1.35,4.29,2.49,1.68,2.74,1.65,7.04-.08,10.45-.15.3-.43.49-.72.49h-38.99c-.25,0-.47-.27-.47-.59v-30.24c-.13.04-.26.07-.38.11-.39.12-.76.23-1.12.33v29.8c0,1.15.88,2.09,1.97,2.09h38.99c.86,0,1.65-.5,2.06-1.32,1.95-3.85,1.96-8.75.02-11.91-1.27-2.06-3.24-3.2-5.56-3.2-4.32,0-9.66,1.87-13.95,3.38-2.01.71-3.75,1.32-4.95,1.58-3.27.71-8.2.3-9.08-1.15-.58-1.19.51-11.33,2.03-21.77-.53.09-1.05.18-1.56.27-1.16,8.01-2.78,20.58-1.76,22.27Z"/>
      <path d="M228.67,99.09c-1.41-8.66-6.69-13.79-11.66-17.66-4.76-3.71-16.1-8.83-26.26-6.8-7.62,1.52-12.49,5.3-14.46,11.23-.48,1.45-.73,2.84-.76,4.18.42.37.81.73,1.17,1.08.07.07.13.13.19.19-.16-1.51,0-3.08.51-4.74,1.2-.38,4.91-1.47,7.44-1.47,3.03,0,7.7,1.58,7.75,1.6l.41-1.2c-.2-.07-4.91-1.67-8.16-1.67-2.23,0-5.19.75-6.89,1.25,2.06-4.79,6.44-7.88,13.05-9.21,9.22-1.84,20.3,2.72,25.23,6.55,6.78,5.27,10.13,10.31,11.19,16.86,1.27,7.79-.74,22.2-4.06,29.09-4.18,8.69-9.09,13.27-18.75,17.49-1.17.51-2.27.95-3.29,1.32.1.41.21.82.31,1.23,1.09-.39,2.23-.83,3.49-1.38,9.98-4.37,15.06-9.1,19.39-18.11,3.47-7.2,5.49-21.7,4.17-29.84Z"/>
      <path d="M21.42,198.96C-.69,192.54,1.32,174.32,1.34,174.13c.06-.47.1-1.02.14-1.59.31-4.48.91-12.92,14.84-23.17.03-.53.06-1.07.09-1.6C1.21,158.62.57,167.69.24,172.46c-.04.58-.07,1.08-.13,1.52-.38,3.04.17,8.02,2.87,12.89,3.51,6.34,9.6,10.81,18.09,13.28,4.99,1.45,9.61,2.19,13.92,2.41-.15-.43-.31-.85-.47-1.27-4.07-.25-8.42-.98-13.1-2.34Z"/>
      <path d="M119.41,218.85v-3.11c-.44.11-.86.23-1.24.34-.09.03-.17.05-.26.08v3.13c.36-.11.73-.22,1.12-.33.12-.04.26-.07.38-.11Z"/>
      <path d="M19.44,147.19c.03-.51.07-1.03.1-1.54-1.11.71-2.15,1.42-3.13,2.12-.03.54-.06,1.07-.09,1.6.98-.72,2.01-1.44,3.12-2.18Z"/>
      <path d="M128.35,213.93c-.14.92-.3,1.97-.46,3.13.51-.09,1.03-.18,1.56-.27.15-1.04.31-2.08.46-3.12-.53.09-1.05.17-1.56.26Z"/>
      <path d="M198.45,148.11c.1.41.21.83.31,1.24.87-.25,1.84-.57,2.86-.93-.1-.41-.21-.82-.31-1.23-1.03.37-1.98.68-2.86.93Z"/>
      <path d="M176.89,95.64c1.56,1.65,2.9,3.2,4.08,4.68,1.6,1.06,3.59,1.75,5.52,2.43,0,0,0,0,0,0-.39-.59-.8-1.18-1.24-1.79-1.87-.69-3.56-1.45-4.75-2.63-1.56-1.56-2.62-3.19-3.2-4.92.35-.1.78-.23,1.26-.36-.33-.34-.66-.69-1.01-1.04-.2.06-.4.11-.57.17-.05-.28-.08-.57-.11-.85-.07-.07-.13-.13-.19-.19-.35-.35-.75-.72-1.17-1.08-.04,1.97.41,3.83,1.37,5.61Z"/>
      <path d="M38.2,202.64c-.14-.42-.29-.83-.44-1.25-1.06,0-2.14-.04-3.23-.1.16.42.31.85.47,1.27.96.05,1.92.08,2.85.08.12,0,.24,0,.36,0Z"/>
      <path d="M86.91,214.14v3.13c.5.15,1,.31,1.5.48v-3.16c-.5-.16-1-.31-1.5-.45Z"/>
      <path d="M77.9,213.4c-.48.06-.97.12-1.49.2.15.99.3,1.98.44,2.97.52-.08,1.02-.14,1.49-.2-.16-1.11-.31-2.11-.44-2.97Z"/>
      <path d="M190.46,119.16c.09.29.18.57.27.87.04.13.09.28.13.41.95-.65,1.79-1.33,2.51-2.04-.15-.47-.29-.93-.44-1.38-.73.8-1.58,1.51-2.47,2.14Z"/>
    </g>
    <ellipse cx="121.2" cy="104.31" rx="6.38" ry="9.92"/>
    <ellipse cx="145.55" cy="104.31" rx="6.38" ry="9.92"/>
    <path d="M113.82,142.42h0c.85,0,1.58.65,1.63,1.51.47,7.25,4.3,13.12,8.77,13.12s8.3-5.87,8.77-13.12c.06-.85.78-1.51,1.63-1.51h0c.96,0,1.7.82,1.64,1.78-.58,9.18-5.67,16.14-12.05,16.14s-11.46-6.96-12.05-16.14c-.06-.96.68-1.78,1.64-1.78Z"/>
  </g>
  <g>
    <g>
      <path class="cls-5" d="M168.01,82.19c-1.76-4.18-7.19-6.19-7.19-6.19,1.18,7.7-24.04,13.71-59.56,14.65-35.52.94-57.57-7.49-56.55-17.8,0,0-4.56,3.59-4.51,6.27.04,2.14,3.1,8.08,12.11,11.6,9.01,3.52,32.69,4.88,50.46,4.88s45.46-3.38,50.74-4.88,16.26-4.35,14.51-8.53Z"/>
      <path class="cls-2" d="M101.25,90.65c35.52-.94,60.74-6.94,59.56-14.65-1.15-7.49-5.57-20.48-5.57-20.48,0,10.12-14.83,16.49-33.51,19.11,0,0,0,0,0,0h0s-10.18,1.75-20.09,1.66c-9.91-.09-22.27-1.71-22.27-1.71,0-.05-.02-.1-.03-.15-18-2.74-32.08-9.04-32.08-18.9,0,0-1.53,7.03-2.56,17.33-1.02,10.3,21.02,18.73,56.55,17.8Z"/>
      <path class="cls-1" d="M111.03,24.9c.7,8.77,1.16,5.1,8.17,18.59,5.38,10.34,2.54,31.11,2.53,31.14,18.67-2.62,33.51-8.99,33.51-19.11,0-15.27-7.57-28.93-19.45-37.99,3.03,6.61,3.6,19.04,3.6,19.04h-11.94V12.3c-5.63-2.87-11.88-4.84-18.52-5.71.39,1.08.42,2.26.46,3.23.21,5.05,1.24,10.04,1.64,15.07Z"/>
      <path class="cls-1" d="M79.35,74.42c-2.07-10.95-1.44-19.49.5-28.95,1.85-9.02,8.25-12.51,8.58-20.47.21-5.01,1.18-9.96,1.51-14.96.05-.72.12-1.86.66-2.99-5.69,1.04-11.06,2.92-15.95,5.46v24.06h-11.94s.55-11.84,3.39-18.55c-11.52,9.07-18.83,22.5-18.83,37.5,0,9.86,14.09,16.16,32.08,18.9Z"/>
      <path class="cls-4" d="M88.43,25c-.33,7.95-6.73,11.45-8.58,20.47-1.94,9.46-2.57,18-.5,28.95,0,.05.02.1.03.15,0,0,12.37,1.62,22.27,1.71,9.91.09,20.09-1.66,20.09-1.66h0s0,0,0,0c0-.03,2.85-20.8-2.53-31.14-7.01-13.49-7.47-9.82-8.17-18.59-.4-5.04-1.43-10.02-1.64-15.07-.04-.97-.06-2.15-.46-3.23-.21-.58-.53-1.14-1.03-1.62-1.33-1.29-3.81-1.38-8.61-1.38-3.69,0-6.39.42-8.04,2.42-.28.34-.49.69-.66,1.05-.54,1.13-.61,2.27-.66,2.99-.32,5-1.3,9.95-1.51,14.96Z"/>
      <path class="cls-4" d="M74.65,36.57V11.1s-1.59-1.06-6.37,3.45c-.85.8-1.57,2.02-2.18,3.47-2.84,6.71-3.39,18.55-3.39,18.55h11.94Z"/>
      <path class="cls-4" d="M139.39,36.57s-.57-12.43-3.6-19.04c-.57-1.24-1.22-2.27-1.97-2.98-4.78-4.51-6.37-3.45-6.37-3.45v25.47h11.94Z"/>
    </g>
    <path d="M101.33,93.28c-18.95,0-41.98-1.52-50.69-4.92-9.34-3.64-12.46-9.78-12.51-12.18-.05-2.65,3.54-5.78,4.54-6.61.96-9.55,2.37-16.33,2.53-17.07.02-14.54,6.92-28.31,18.94-37.83.68-1.56,1.44-2.75,2.27-3.53,4.89-4.62,6.81-3.74,7.15-3.52l.28.19v.72c4.69-2.33,9.7-4.01,14.9-4.99.17-.32.37-.61.6-.88,1.81-2.2,4.72-2.65,8.53-2.65,4.75,0,7.51.07,9.04,1.56.43.42.78.92,1.03,1.5,6.12.84,11.98,2.61,17.44,5.26v-.51l.28-.19c.33-.22,2.26-1.11,7.15,3.52.74.7,1.43,1.72,2.04,3.03,12.41,9.53,19.54,23.47,19.58,38.3.41,1.21,4.34,12.97,5.51,20.13,1.27.54,5.61,2.6,7.21,6.4h0c.34.8.32,1.61-.06,2.4-1.44,2.99-7.73,4.98-14.06,6.76l-.8.23c-5.55,1.57-33.2,4.9-50.91,4.9ZM72.58,8.66c-.6.04-2.2.47-5.3,3.39-.73.69-1.41,1.78-2.03,3.26l-.06.15-.13.1c-11.81,9.3-18.59,22.78-18.59,37v.13c-.03.07-1.55,7.11-2.56,17.26l-.03.27-.21.17c-1.2.95-4.31,3.83-4.27,5.76.04,2.04,3.05,7.65,11.71,11.03,8.56,3.34,31.39,4.83,50.23,4.83,17.27,0,45.21-3.34,50.56-4.85l.8-.22c4.18-1.18,11.95-3.36,13.26-6.09.22-.46.23-.89.04-1.36h0c-1.63-3.87-6.78-5.83-6.83-5.84l-.35-.13-.06-.37c-1.13-7.35-5.5-20.24-5.55-20.37l-.03-.2c0-14.51-7-28.18-19.2-37.49l-.13-.1-.07-.14c-.57-1.23-1.18-2.17-1.83-2.78-3.06-2.89-4.67-3.35-5.3-3.38v1.7l-.92-.47c-5.69-2.9-11.86-4.8-18.31-5.64l-.38-.05-.13-.36c-.21-.56-.49-1.02-.87-1.39-1.12-1.09-3.35-1.2-8.17-1.2-3.45,0-6.06.37-7.56,2.19-.23.28-.42.58-.58.92l-.14.29-.32.06c-5.53,1.01-10.83,2.83-15.77,5.4l-.92.48v-1.94Z"/>
  </g>
</svg>