<svg width="26" height="26" viewBox="0 0 26 26" fill="none" xmlns="http://www.w3.org/2000/svg">
<g clip-path="url(#clip0_1355_114)">
<path d="M13.5634 25.0502L13.5516 25.0523L13.4751 25.09L13.4536 25.0943L13.4385 25.09L13.362 25.0523C13.3505 25.0487 13.3419 25.0505 13.3362 25.0577L13.3319 25.0685L13.3136 25.5294L13.3189 25.551L13.3297 25.565L13.4417 25.6447L13.4579 25.649L13.4708 25.6447L13.5828 25.565L13.5957 25.5478L13.6 25.5294L13.5817 25.0695C13.5789 25.0581 13.5728 25.0516 13.5634 25.0502ZM13.8488 24.9285L13.8348 24.9306L13.6356 25.0308L13.6248 25.0415L13.6216 25.0534L13.641 25.5165L13.6464 25.5294L13.655 25.537L13.8715 25.6372C13.8851 25.6407 13.8955 25.6379 13.9027 25.6285L13.907 25.6135L13.8704 24.9521C13.8668 24.9392 13.8596 24.9313 13.8488 24.9285ZM13.0788 24.9306C13.074 24.9277 13.0683 24.9268 13.0629 24.928C13.0575 24.9292 13.0528 24.9325 13.0497 24.9371L13.0432 24.9521L13.0066 25.6135C13.0073 25.6264 13.0134 25.635 13.0249 25.6393L13.0411 25.6372L13.2575 25.537L13.2683 25.5284L13.2726 25.5165L13.2909 25.0534L13.2877 25.0405L13.2769 25.0297L13.0788 24.9306Z" fill="#6B2008"/>
<path d="M11.3091 21.5411C11.3091 21.9695 11.4793 22.3805 11.7822 22.6834C12.0852 22.9864 12.4962 23.1566 12.9246 23.1566C13.3531 23.1566 13.764 22.9864 14.067 22.6834C14.37 22.3805 14.5402 21.9695 14.5402 21.5411V14.5402H21.5411C21.9695 14.5402 22.3805 14.37 22.6834 14.067C22.9864 13.764 23.1566 13.3531 23.1566 12.9246C23.1566 12.4962 22.9864 12.0852 22.6834 11.7822C22.3805 11.4793 21.9695 11.3091 21.5411 11.3091H14.5402V4.30821C14.5402 3.87973 14.37 3.4688 14.067 3.16582C13.764 2.86284 13.3531 2.69263 12.9246 2.69263C12.4962 2.69263 12.0852 2.86284 11.7822 3.16582C11.4793 3.4688 11.3091 3.87973 11.3091 4.30821V11.3091H4.30821C3.87973 11.3091 3.4688 11.4793 3.16582 11.7822C2.86284 12.0852 2.69263 12.4962 2.69263 12.9246C2.69263 13.3531 2.86284 13.764 3.16582 14.067C3.4688 14.37 3.87973 14.5402 4.30821 14.5402H11.3091V21.5411Z" fill="#6B2008"/>
</g>
<defs>
<clipPath id="clip0_1355_114">
<rect width="25.8493" height="25.8493" fill="white"/>
</clipPath>
</defs>
</svg>
