<svg width="34" height="26" viewBox="0 0 34 26" fill="none" xmlns="http://www.w3.org/2000/svg">
<path d="M12.75 24.75V22.75C12.75 20.0978 13.8036 17.5543 15.6789 15.6789C17.5543 13.8036 20.0978 12.75 22.75 12.75M22.75 12.75C25.4022 12.75 27.9457 13.8036 29.8211 15.6789C31.6964 17.5543 32.75 20.0978 32.75 22.75V24.75M22.75 12.75C24.3413 12.75 25.8674 12.1179 26.9926 10.9926C28.1179 9.86742 28.75 8.3413 28.75 6.75C28.75 5.1587 28.1179 3.63258 26.9926 2.50736C25.8674 1.38214 24.3413 0.75 22.75 0.75C21.1587 0.75 19.6326 1.38214 18.5074 2.50736C17.3821 3.63258 16.75 5.1587 16.75 6.75C16.75 8.3413 17.3821 9.86742 18.5074 10.9926C19.6326 12.1179 21.1587 12.75 22.75 12.75ZM0.75 24.75V22.75C0.75 21.1587 1.38214 19.6326 2.50736 18.5074C3.63258 17.3821 5.1587 16.75 6.75 16.75M6.75 16.75C7.81087 16.75 8.82828 16.3286 9.57843 15.5784C10.3286 14.8283 10.75 13.8109 10.75 12.75C10.75 11.6891 10.3286 10.6717 9.57843 9.92157C8.82828 9.17143 7.81087 8.75 6.75 8.75C5.68913 8.75 4.67172 9.17143 3.92157 9.92157C3.17143 10.6717 2.75 11.6891 2.75 12.75C2.75 13.8109 3.17143 14.8283 3.92157 15.5784C4.67172 16.3286 5.68913 16.75 6.75 16.75Z" stroke="black" stroke-width="1.5" stroke-linecap="round" stroke-linejoin="round"/>
</svg>
