<svg width="25" height="31" viewBox="0 0 25 31" fill="none" xmlns="http://www.w3.org/2000/svg">
<path d="M0.75 9.5C0.75 5.37583 0.75 3.31229 2.03188 2.03187C3.31229 0.75 5.37583 0.75 9.5 0.75H15.3333C19.4575 0.75 21.521 0.75 22.8015 2.03187C24.0833 3.31229 24.0833 5.37583 24.0833 9.5V21.1667C24.0833 25.2908 24.0833 27.3544 22.8015 28.6348C21.521 29.9167 19.4575 29.9167 15.3333 29.9167H9.5C5.37583 29.9167 3.31229 29.9167 2.03188 28.6348C0.75 27.3544 0.75 25.2908 0.75 21.1667V9.5Z" stroke="black" stroke-width="1.5"/>
<path d="M23.9346 21.1667H6.43458C5.07833 21.1667 4.40021 21.1667 3.84312 21.3154C3.10129 21.5143 2.42489 21.9051 1.88193 22.4483C1.33896 22.9915 0.948574 23.6681 0.75 24.41" stroke="black" stroke-width="1.5"/>
<path d="M6.58301 8.04166H18.2497M6.58301 13.1458H13.8747" stroke="black" stroke-width="1.5" stroke-linecap="round"/>
</svg>
