<svg width="30" height="31" viewBox="0 0 30 31" fill="none" xmlns="http://www.w3.org/2000/svg">
<path d="M0.75 15.6308C0.75 12.2927 0.75 10.6244 1.48667 9.24187C2.2205 7.85792 3.56492 7.00042 6.25233 5.2825L9.08567 3.47271C11.9261 1.65708 13.347 0.75 14.9167 0.75C16.4863 0.75 17.9058 1.65708 20.7477 3.47271L23.581 5.2825C26.2684 7.00042 27.6128 7.85792 28.3481 9.24187C29.0833 10.6258 29.0833 12.2927 29.0833 15.6294V17.849C29.0833 23.5365 29.0833 26.3817 27.423 28.1492C25.7627 29.9167 23.0923 29.9167 17.75 29.9167H12.0833C6.74108 29.9167 4.06925 29.9167 2.41033 28.1492C0.751417 26.3817 0.75 23.5379 0.75 17.849V15.6308Z" stroke="black" stroke-width="1.5"/>
<path d="M14.917 19.7083V24.0833" stroke="black" stroke-width="1.5" stroke-linecap="round"/>
</svg>
