<svg width="34" height="28" viewBox="0 0 34 28" fill="none" xmlns="http://www.w3.org/2000/svg">
<path d="M32.1111 20.3636H31.4815V17.1818C31.4735 14.0803 30.4946 11.061 28.685 8.55618C26.8754 6.05137 24.3279 4.18959 21.4074 3.2375V1.90909C21.4074 1.40277 21.2084 0.917184 20.8542 0.55916C20.4999 0.201136 20.0195 0 19.5185 0H14.4815C13.9805 0 13.5001 0.201136 13.1458 0.55916C12.7916 0.917184 12.5926 1.40277 12.5926 1.90909V3.2375C9.6721 4.18959 7.12463 6.05137 5.31503 8.55618C3.50543 11.061 2.52652 14.0803 2.51852 17.1818V20.3636H1.88889C1.38792 20.3636 0.907478 20.5648 0.553243 20.9228C0.199007 21.2808 0 21.7664 0 22.2727V26.0909C0 26.5972 0.199007 27.0828 0.553243 27.4408C0.907478 27.7989 1.38792 28 1.88889 28H32.1111C32.6121 28 33.0925 27.7989 33.4468 27.4408C33.801 27.0828 34 26.5972 34 26.0909V22.2727C34 21.7664 33.801 21.2808 33.4468 20.9228C33.0925 20.5648 32.6121 20.3636 32.1111 20.3636ZM30.2222 17.1818V20.3636H21.4074V4.58182C23.9812 5.50962 26.209 7.21765 27.7866 9.47271C29.3642 11.7278 30.2148 14.42 30.2222 17.1818ZM14.4815 1.27273H19.5185C19.6855 1.27273 19.8457 1.33977 19.9637 1.45911C20.0818 1.57846 20.1481 1.74032 20.1481 1.90909V20.3636H13.8519V1.90909C13.8519 1.74032 13.9182 1.57846 14.0363 1.45911C14.1543 1.33977 14.3145 1.27273 14.4815 1.27273ZM3.77778 17.1818C3.7852 14.42 4.63578 11.7278 6.2134 9.47271C7.79102 7.21765 10.0188 5.50962 12.5926 4.58182V20.3636H3.77778V17.1818ZM32.7407 26.0909C32.7407 26.2597 32.6744 26.4215 32.5563 26.5409C32.4382 26.6602 32.2781 26.7273 32.1111 26.7273H1.88889C1.7219 26.7273 1.56175 26.6602 1.44367 26.5409C1.3256 26.4215 1.25926 26.2597 1.25926 26.0909V22.2727C1.25926 22.104 1.3256 21.9421 1.44367 21.8228C1.56175 21.7034 1.7219 21.6364 1.88889 21.6364H32.1111C32.2781 21.6364 32.4382 21.7034 32.5563 21.8228C32.6744 21.9421 32.7407 22.104 32.7407 22.2727V26.0909Z" fill="black"/>
</svg>
