<svg width="29" height="52" viewBox="0 0 29 52" fill="none" xmlns="http://www.w3.org/2000/svg">
<g clip-path="url(#clip0_2136_4642)">
<path d="M22.9475 28.2749V21.8622C22.9475 21.4124 22.5816 21.0459 22.1313 21.0459H6.56242C6.1126 21.0459 5.74619 21.4118 5.74619 21.8622V28.2749L4.40234 29.6187V21.8627C4.40234 20.6719 5.37108 19.7031 6.56242 19.7031H22.1313C23.3221 19.7031 24.2914 20.6719 24.2914 21.8627V29.6187L22.9475 28.2749Z" fill="#BA6649"/>
<path d="M21.649 0H7.04532C6.70531 0 6.42969 0.275627 6.42969 0.61563V20.9488C6.42969 21.2888 6.70531 21.5645 7.04532 21.5645H21.649C21.989 21.5645 22.2646 21.2888 22.2646 20.9488V0.61563C22.2646 0.275627 21.989 0 21.649 0Z" fill="#BA4242"/>
<path d="M20.4938 0H8.20117V21.5645H20.4938V0Z" fill="#E52E2E"/>
<path d="M14.3468 51.2248C22.2703 51.2248 28.6936 44.8016 28.6936 36.878C28.6936 28.9545 22.2703 22.5312 14.3468 22.5312C6.42328 22.5312 0 28.9545 0 36.878C0 44.8016 6.42328 51.2248 14.3468 51.2248Z" fill="#D8744C"/>
<path d="M14.3473 47.966C20.4707 47.966 25.4347 43.002 25.4347 36.8785C25.4347 30.7551 20.4707 25.791 14.3473 25.791C8.2238 25.791 3.25977 30.7551 3.25977 36.8785C3.25977 43.002 8.2238 47.966 14.3473 47.966Z" fill="#E28759"/>
</g>
<defs>
<clipPath id="clip0_2136_4642">
<rect width="28.6931" height="51.2253" fill="white"/>
</clipPath>
</defs>
</svg>
