<svg width="370" height="252" viewBox="0 0 370 252" fill="none" xmlns="http://www.w3.org/2000/svg">
<path d="M0 15C0 6.71573 6.71573 0 15 0H127C135.284 0 142 6.71573 142 15V54H0V15Z" fill="#FFD15B"/>
<rect x="12" y="28" width="358" height="224" rx="20" fill="#181818"/>
<rect y="22" width="363" height="223" rx="20" fill="#FFC83B"/>
<path d="M32.552 215.384C32.552 216.035 32.4027 216.632 32.104 217.176C31.8053 217.709 31.3467 218.141 30.728 218.472C30.1093 218.803 29.3413 218.968 28.424 218.968H26.728V223H23.992V211.768H28.424C29.32 211.768 30.0773 211.923 30.696 212.232C31.3147 212.541 31.7787 212.968 32.088 213.512C32.3973 214.056 32.552 214.68 32.552 215.384ZM28.216 216.792C28.7387 216.792 29.128 216.669 29.384 216.424C29.64 216.179 29.768 215.832 29.768 215.384C29.768 214.936 29.64 214.589 29.384 214.344C29.128 214.099 28.7387 213.976 28.216 213.976H26.728V216.792H28.216ZM36.7124 211.16V223H33.9764V211.16H36.7124ZM47.5111 214.072V223H44.7751V221.784C44.4978 222.179 44.1191 222.499 43.6391 222.744C43.1698 222.979 42.6471 223.096 42.0711 223.096C41.3885 223.096 40.7858 222.947 40.2631 222.648C39.7405 222.339 39.3351 221.896 39.0471 221.32C38.7591 220.744 38.6151 220.067 38.6151 219.288V214.072H41.3351V218.92C41.3351 219.517 41.4898 219.981 41.7991 220.312C42.1085 220.643 42.5245 220.808 43.0471 220.808C43.5805 220.808 44.0018 220.643 44.3111 220.312C44.6205 219.981 44.7751 219.517 44.7751 218.92V214.072H47.5111ZM60.8684 213.976C61.9777 213.976 62.8577 214.312 63.5084 214.984C64.1697 215.656 64.5004 216.589 64.5004 217.784V223H61.7804V218.152C61.7804 217.576 61.6257 217.133 61.3164 216.824C61.0177 216.504 60.6017 216.344 60.0684 216.344C59.535 216.344 59.1137 216.504 58.8044 216.824C58.5057 217.133 58.3564 217.576 58.3564 218.152V223H55.6364V218.152C55.6364 217.576 55.4817 217.133 55.1724 216.824C54.8737 216.504 54.4577 216.344 53.9244 216.344C53.391 216.344 52.9697 216.504 52.6604 216.824C52.3617 217.133 52.2124 217.576 52.2124 218.152V223H49.4764V214.072H52.2124V215.192C52.4897 214.819 52.8524 214.525 53.3004 214.312C53.7484 214.088 54.255 213.976 54.8204 213.976C55.4924 213.976 56.0897 214.12 56.6124 214.408C57.1457 214.696 57.5617 215.107 57.8604 215.64C58.1697 215.149 58.591 214.749 59.1244 214.44C59.6577 214.131 60.239 213.976 60.8684 213.976ZM69.1499 215.336C69.4059 214.92 69.7739 214.584 70.2539 214.328C70.7339 214.072 71.2832 213.944 71.9019 213.944C72.6379 213.944 73.3045 214.131 73.9019 214.504C74.4992 214.877 74.9685 215.411 75.3099 216.104C75.6619 216.797 75.8379 217.603 75.8379 218.52C75.8379 219.437 75.6619 220.248 75.3099 220.952C74.9685 221.645 74.4992 222.184 73.9019 222.568C73.3045 222.941 72.6379 223.128 71.9019 223.128C71.2725 223.128 70.7232 223.005 70.2539 222.76C69.7845 222.504 69.4165 222.168 69.1499 221.752V223H66.4139V211.16H69.1499V215.336ZM73.0539 218.52C73.0539 217.837 72.8619 217.304 72.4779 216.92C72.1045 216.525 71.6405 216.328 71.0859 216.328C70.5419 216.328 70.0779 216.525 69.6939 216.92C69.3205 217.315 69.1339 217.853 69.1339 218.536C69.1339 219.219 69.3205 219.757 69.6939 220.152C70.0779 220.547 70.5419 220.744 71.0859 220.744C71.6299 220.744 72.0939 220.547 72.4779 220.152C72.8619 219.747 73.0539 219.203 73.0539 218.52ZM78.6493 213.144C78.1693 213.144 77.7746 213.005 77.4653 212.728C77.1666 212.44 77.0173 212.088 77.0173 211.672C77.0173 211.245 77.1666 210.893 77.4653 210.616C77.7746 210.328 78.1693 210.184 78.6493 210.184C79.1186 210.184 79.5026 210.328 79.8013 210.616C80.1106 210.893 80.2653 211.245 80.2653 211.672C80.2653 212.088 80.1106 212.44 79.8013 212.728C79.5026 213.005 79.1186 213.144 78.6493 213.144ZM80.0093 214.072V223H77.2733V214.072H80.0093ZM87.432 213.976C88.4773 213.976 89.3093 214.317 89.928 215C90.5573 215.672 90.872 216.6 90.872 217.784V223H88.152V218.152C88.152 217.555 87.9973 217.091 87.688 216.76C87.3787 216.429 86.9627 216.264 86.44 216.264C85.9173 216.264 85.5013 216.429 85.192 216.76C84.8827 217.091 84.728 217.555 84.728 218.152V223H81.992V214.072H84.728V215.256C85.0053 214.861 85.3787 214.552 85.848 214.328C86.3173 214.093 86.8453 213.976 87.432 213.976ZM96.1653 213.944C96.7946 213.944 97.3439 214.072 97.8133 214.328C98.2933 214.584 98.6613 214.92 98.9173 215.336V214.072H101.653V222.984C101.653 223.805 101.488 224.547 101.157 225.208C100.837 225.88 100.341 226.413 99.6693 226.808C99.0079 227.203 98.1813 227.4 97.1893 227.4C95.8666 227.4 94.7946 227.085 93.9733 226.456C93.1519 225.837 92.6826 224.995 92.5653 223.928H95.2693C95.3546 224.269 95.5573 224.536 95.8773 224.728C96.1973 224.931 96.5919 225.032 97.0613 225.032C97.6266 225.032 98.0746 224.867 98.4053 224.536C98.7466 224.216 98.9173 223.699 98.9173 222.984V221.72C98.6506 222.136 98.2826 222.477 97.8133 222.744C97.3439 223 96.7946 223.128 96.1653 223.128C95.4293 223.128 94.7626 222.941 94.1653 222.568C93.5679 222.184 93.0933 221.645 92.7413 220.952C92.3999 220.248 92.2293 219.437 92.2293 218.52C92.2293 217.603 92.3999 216.797 92.7413 216.104C93.0933 215.411 93.5679 214.877 94.1653 214.504C94.7626 214.131 95.4293 213.944 96.1653 213.944ZM98.9173 218.536C98.9173 217.853 98.7253 217.315 98.3413 216.92C97.9679 216.525 97.5093 216.328 96.9653 216.328C96.4213 216.328 95.9573 216.525 95.5733 216.92C95.1999 217.304 95.0133 217.837 95.0133 218.52C95.0133 219.203 95.1999 219.747 95.5733 220.152C95.9573 220.547 96.4213 220.744 96.9653 220.744C97.5093 220.744 97.9679 220.547 98.3413 220.152C98.7253 219.757 98.9173 219.219 98.9173 218.536ZM106.559 217.368C106.559 216.259 106.799 215.272 107.279 214.408C107.759 213.533 108.426 212.856 109.279 212.376C110.143 211.885 111.119 211.64 112.207 211.64C113.541 211.64 114.682 211.992 115.631 212.696C116.581 213.4 117.215 214.36 117.535 215.576H114.527C114.303 215.107 113.983 214.749 113.567 214.504C113.162 214.259 112.698 214.136 112.175 214.136C111.333 214.136 110.65 214.429 110.127 215.016C109.605 215.603 109.343 216.387 109.343 217.368C109.343 218.349 109.605 219.133 110.127 219.72C110.65 220.307 111.333 220.6 112.175 220.6C112.698 220.6 113.162 220.477 113.567 220.232C113.983 219.987 114.303 219.629 114.527 219.16H117.535C117.215 220.376 116.581 221.336 115.631 222.04C114.682 222.733 113.541 223.08 112.207 223.08C111.119 223.08 110.143 222.84 109.279 222.36C108.426 221.869 107.759 221.192 107.279 220.328C106.799 219.464 106.559 218.477 106.559 217.368ZM123.275 223.128C122.4 223.128 121.611 222.941 120.907 222.568C120.213 222.195 119.664 221.661 119.259 220.968C118.864 220.275 118.667 219.464 118.667 218.536C118.667 217.619 118.869 216.813 119.275 216.12C119.68 215.416 120.235 214.877 120.939 214.504C121.643 214.131 122.432 213.944 123.307 213.944C124.181 213.944 124.971 214.131 125.675 214.504C126.379 214.877 126.933 215.416 127.339 216.12C127.744 216.813 127.947 217.619 127.947 218.536C127.947 219.453 127.739 220.264 127.323 220.968C126.917 221.661 126.357 222.195 125.643 222.568C124.939 222.941 124.149 223.128 123.275 223.128ZM123.275 220.76C123.797 220.76 124.24 220.568 124.603 220.184C124.976 219.8 125.163 219.251 125.163 218.536C125.163 217.821 124.981 217.272 124.619 216.888C124.267 216.504 123.829 216.312 123.307 216.312C122.773 216.312 122.331 216.504 121.979 216.888C121.627 217.261 121.451 217.811 121.451 218.536C121.451 219.251 121.621 219.8 121.963 220.184C122.315 220.568 122.752 220.76 123.275 220.76ZM138.214 214.072V223H135.478V221.784C135.201 222.179 134.822 222.499 134.342 222.744C133.873 222.979 133.35 223.096 132.774 223.096C132.092 223.096 131.489 222.947 130.966 222.648C130.444 222.339 130.038 221.896 129.75 221.32C129.462 220.744 129.318 220.067 129.318 219.288V214.072H132.038V218.92C132.038 219.517 132.193 219.981 132.502 220.312C132.812 220.643 133.228 220.808 133.75 220.808C134.284 220.808 134.705 220.643 135.014 220.312C135.324 219.981 135.478 219.517 135.478 218.92V214.072H138.214ZM142.916 215.56C143.236 215.069 143.636 214.685 144.116 214.408C144.596 214.12 145.129 213.976 145.716 213.976V216.872H144.964C144.281 216.872 143.769 217.021 143.428 217.32C143.086 217.608 142.916 218.12 142.916 218.856V223H140.18V214.072H142.916V215.56ZM150.655 223.128C149.877 223.128 149.183 222.995 148.575 222.728C147.967 222.461 147.487 222.099 147.135 221.64C146.783 221.171 146.586 220.648 146.543 220.072H149.247C149.279 220.381 149.423 220.632 149.679 220.824C149.935 221.016 150.25 221.112 150.623 221.112C150.965 221.112 151.226 221.048 151.407 220.92C151.599 220.781 151.695 220.605 151.695 220.392C151.695 220.136 151.562 219.949 151.295 219.832C151.029 219.704 150.597 219.565 149.999 219.416C149.359 219.267 148.826 219.112 148.399 218.952C147.973 218.781 147.605 218.52 147.295 218.168C146.986 217.805 146.831 217.32 146.831 216.712C146.831 216.2 146.97 215.736 147.247 215.32C147.535 214.893 147.951 214.557 148.495 214.312C149.05 214.067 149.706 213.944 150.463 213.944C151.583 213.944 152.463 214.221 153.103 214.776C153.754 215.331 154.127 216.067 154.223 216.984H151.695C151.653 216.675 151.514 216.429 151.279 216.248C151.055 216.067 150.757 215.976 150.383 215.976C150.063 215.976 149.818 216.04 149.647 216.168C149.477 216.285 149.391 216.451 149.391 216.664C149.391 216.92 149.525 217.112 149.791 217.24C150.069 217.368 150.495 217.496 151.071 217.624C151.733 217.795 152.271 217.965 152.687 218.136C153.103 218.296 153.466 218.563 153.775 218.936C154.095 219.299 154.261 219.789 154.271 220.408C154.271 220.931 154.122 221.4 153.823 221.816C153.535 222.221 153.114 222.541 152.559 222.776C152.015 223.011 151.381 223.128 150.655 223.128ZM164.361 218.392C164.361 218.648 164.345 218.915 164.313 219.192H158.121C158.164 219.747 158.34 220.173 158.649 220.472C158.969 220.76 159.358 220.904 159.817 220.904C160.5 220.904 160.974 220.616 161.241 220.04H164.153C164.004 220.627 163.732 221.155 163.337 221.624C162.953 222.093 162.468 222.461 161.881 222.728C161.294 222.995 160.638 223.128 159.913 223.128C159.038 223.128 158.26 222.941 157.577 222.568C156.894 222.195 156.361 221.661 155.977 220.968C155.593 220.275 155.401 219.464 155.401 218.536C155.401 217.608 155.588 216.797 155.961 216.104C156.345 215.411 156.878 214.877 157.561 214.504C158.244 214.131 159.028 213.944 159.913 213.944C160.777 213.944 161.545 214.125 162.217 214.488C162.889 214.851 163.412 215.368 163.785 216.04C164.169 216.712 164.361 217.496 164.361 218.392ZM161.561 217.672C161.561 217.203 161.401 216.829 161.081 216.552C160.761 216.275 160.361 216.136 159.881 216.136C159.422 216.136 159.033 216.269 158.713 216.536C158.404 216.803 158.212 217.181 158.137 217.672H161.561Z" fill="#652A15"/>
<g clip-path="url(#clip0_1859_5067)">
<path d="M320 233.929C327.692 233.929 333.928 227.693 333.928 220.001C333.928 212.308 327.692 206.072 320 206.072C312.307 206.072 306.071 212.308 306.071 220.001C306.071 227.693 312.307 233.929 320 233.929Z" fill="#F7F7F5" stroke="#614C4C" stroke-width="1.46341" stroke-linecap="round" stroke-linejoin="round"/>
<path d="M317.857 213.572L324.286 220.001L317.857 226.429" stroke="#6F2E17" stroke-width="2.19512" stroke-linecap="round" stroke-linejoin="round"/>
</g>
<rect x="15" y="37" width="333" height="155" rx="20" fill="white"/>
<g clip-path="url(#clip1_1859_5067)">
<path d="M329.332 161.014L304.144 148.639C302.43 147.799 300.375 148.113 299 149.438L273.997 173.416C272.708 174.651 270.567 173.947 270.265 172.188L251.605 63.3715C251.181 60.8982 252.843 58.5486 255.316 58.1245L312.705 48.2831C315.178 47.859 317.528 49.5207 317.952 51.9939L335.817 156.171C336.443 159.826 332.666 162.652 329.338 161.013L329.332 161.014Z" fill="#FF4B2F"/>
<path d="M333.4 163.013L304.151 148.637C302.437 147.797 300.381 148.111 299.006 149.437L274.004 173.414C272.715 174.649 270.574 173.945 270.272 172.186L251.612 63.3695C251.188 60.8963 252.849 58.5467 255.323 58.1226L312.712 48.2811C315.185 47.857 317.534 49.5187 317.959 51.992L336.588 160.63C336.895 162.42 335.044 163.808 333.405 163.006L333.4 163.013Z" stroke="#F2F3C9" stroke-width="4.71906" stroke-miterlimit="10"/>
<path d="M332.575 166.929L304.298 153.159C303.027 152.541 301.509 152.776 300.487 153.755L276.054 177.103C272.931 180.09 267.74 178.371 267.01 174.113L247.394 59.7229C247.079 57.8834 248.312 56.1392 250.152 55.8238L316.806 44.3934C318.646 44.078 320.39 45.3115 320.705 47.1511L340.257 161.166C341 165.497 336.528 168.854 332.575 166.929Z" stroke="#663734" stroke-width="3.15228" stroke-miterlimit="10"/>
<path d="M282.758 134.313C277.736 131.096 274.038 125.859 272.95 119.516C271.737 112.441 274.055 105.571 278.624 100.715" stroke="#F2F3C9" stroke-width="10.3619" stroke-miterlimit="10" stroke-dasharray="1.38 5.52"/>
<path d="M306.536 97.3202C311.528 100.543 315.204 105.764 316.288 112.083C317.477 119.016 315.28 125.745 310.891 130.583" stroke="#F2F3C9" stroke-width="10.3619" stroke-miterlimit="10" stroke-dasharray="1.38 5.52"/>
<path d="M312.019 128.104C318.817 118.492 316.536 105.189 306.924 98.3911C297.312 91.5932 284.009 93.8744 277.211 103.486C270.413 113.099 272.694 126.401 282.306 133.199C291.919 139.997 305.221 137.716 312.019 128.104Z" fill="#FF4B2F"/>
<path d="M333.021 160.513L304.768 146.624C302.369 145.446 299.494 145.895 297.569 147.738L273.545 170.776C273.121 171.184 272.41 170.951 272.31 170.367L253.834 62.6271C253.698 61.8335 254.233 61.0767 255.027 60.9406L313.923 50.8407C314.716 50.7046 315.473 51.2398 315.609 52.0335L334.077 159.724C334.178 160.315 333.567 160.774 333.028 160.512L333.021 160.513Z" stroke="#663734" stroke-width="1.985" stroke-miterlimit="10"/>
<path d="M263.869 78.1564C263.793 78.1947 263.667 78.2354 263.499 78.2895C263.331 78.3437 263.16 78.3793 262.988 78.4089C262.816 78.4384 262.666 78.4514 262.532 78.449C262.399 78.4465 262.28 78.4163 262.182 78.3634C262.084 78.3105 262.001 78.2298 261.938 78.1203C261.875 78.0108 261.824 77.8612 261.79 77.6643L260.895 72.4472C260.869 72.2934 260.891 72.1629 260.963 72.0682C261.035 71.9673 261.14 71.8796 261.279 71.805C261.517 71.6756 261.788 71.5594 262.1 71.4615C262.413 71.3636 262.736 71.2892 263.062 71.2333C264.083 71.0581 264.895 71.1405 265.512 71.4845C266.128 71.8285 266.494 72.3737 266.622 73.1182C266.684 73.4811 266.684 73.8167 266.617 74.1259C266.55 74.4351 266.427 74.7159 266.235 74.9641C266.043 75.2123 265.789 75.4269 265.463 75.5968C265.139 75.7727 264.755 75.8956 264.299 75.9737L263.512 76.1087L263.861 78.1452L263.869 78.1564ZM263.838 74.5012C264.145 74.4484 264.373 74.3335 264.514 74.1635C264.656 73.9935 264.704 73.7572 264.654 73.4619C264.603 73.1666 264.482 72.9784 264.285 72.8602C264.086 72.736 263.821 72.7054 263.489 72.7624C263.372 72.7824 263.274 72.7993 263.194 72.813C263.114 72.8267 263.036 72.8528 262.958 72.8788L263.252 74.5953L263.837 74.495L263.838 74.5012Z" fill="#F2F3C9"/>
<path d="M269.415 77.2927C269.095 77.3476 268.833 77.2975 268.617 77.1446C268.4 76.9917 268.265 76.7553 268.211 76.4415L267.229 70.7137C267.307 70.6877 267.432 70.6409 267.606 70.5857C267.78 70.5305 267.944 70.4897 268.11 70.4612C268.276 70.4327 268.432 70.4186 268.566 70.4211C268.699 70.4235 268.818 70.4538 268.916 70.5067C269.014 70.5596 269.097 70.6403 269.16 70.7498C269.223 70.8593 269.274 71.0089 269.308 71.2057L270.058 75.5801L272.593 75.1454C272.656 75.2169 272.724 75.3192 272.79 75.4472C272.857 75.5752 272.906 75.7124 272.931 75.8601C272.982 76.1554 272.956 76.3751 272.848 76.5203C272.746 76.6645 272.59 76.7545 272.381 76.7904L269.416 77.2989L269.415 77.2927Z" fill="#F2F3C9"/>
<path d="M279.466 72.9778C279.535 73.3777 279.53 73.7523 279.45 74.1016C279.371 74.4508 279.222 74.7676 279.004 75.0457C278.786 75.3238 278.503 75.556 278.154 75.7424C277.806 75.9287 277.4 76.0681 276.938 76.1473C276.477 76.2264 276.048 76.2366 275.657 76.1707C275.266 76.111 274.921 75.9802 274.624 75.7969C274.326 75.6136 274.081 75.3643 273.888 75.0553C273.697 74.7524 273.567 74.4011 273.499 74.0012L272.773 69.7684C272.851 69.7423 272.976 69.6956 273.15 69.6404C273.324 69.5852 273.488 69.5444 273.654 69.5159C273.82 69.4874 273.976 69.4733 274.11 69.4758C274.243 69.4782 274.362 69.5085 274.459 69.5552C274.557 69.6081 274.64 69.6888 274.703 69.7983C274.766 69.9078 274.817 70.0574 274.851 70.2543L275.43 73.6319C275.491 73.9887 275.637 74.2487 275.868 74.4118C276.099 74.5749 276.369 74.6363 276.676 74.5835C276.984 74.5308 277.232 74.387 277.388 74.1512C277.545 73.9217 277.596 73.6279 277.534 73.2711L276.815 69.0752C276.893 69.0492 277.018 69.0024 277.192 68.9472C277.366 68.892 277.53 68.8512 277.696 68.8227C277.862 68.7942 278.018 68.7802 278.152 68.7826C278.285 68.7851 278.404 68.8153 278.501 68.8621C278.599 68.915 278.682 68.9956 278.745 69.1051C278.808 69.2147 278.859 69.3642 278.893 69.5611L279.478 72.9695L279.466 72.9778Z" fill="#F2F3C9"/>
<path d="M285.656 72.77C285.572 72.8668 285.46 72.9556 285.32 73.024C285.175 73.0996 285.006 73.1538 284.803 73.1886C284.539 73.2339 284.312 73.2412 284.128 73.203C283.944 73.1649 283.815 73.0731 283.731 72.9165C283.41 72.3002 283.154 71.8058 282.95 71.4291C282.746 71.0524 282.587 70.7125 282.461 70.4236L282.406 70.4331C282.456 70.8742 282.511 71.27 282.561 71.6351C282.61 71.9941 282.664 72.3458 282.716 72.6853C282.774 73.0236 282.821 73.3703 282.867 73.7169C282.914 74.0635 282.968 74.4533 283.015 74.8758C282.923 74.9296 282.806 74.9815 282.656 75.0325C282.506 75.0835 282.355 75.1221 282.195 75.1496C281.869 75.2055 281.608 75.1995 281.412 75.1255C281.215 75.0515 281.091 74.8828 281.044 74.6059L280.395 68.9032C280.44 68.7943 280.552 68.6737 280.73 68.5292C280.908 68.3847 281.182 68.2808 281.545 68.2185C281.938 68.151 282.25 68.1608 282.493 68.2459C282.735 68.3309 282.929 68.5004 283.08 68.7531C283.178 68.92 283.281 69.1114 283.4 69.3253C283.519 69.5392 283.634 69.7665 283.755 69.9927C283.876 70.219 283.992 70.4524 284.107 70.6797C284.222 70.9069 284.327 71.1107 284.415 71.2919L284.47 71.2824C284.542 70.6304 284.618 70.0031 284.691 69.3952C284.771 68.7863 284.847 68.2728 284.927 67.8537C285.027 67.7732 285.161 67.6997 285.326 67.6333C285.491 67.5607 285.685 67.5085 285.9 67.4715C286.263 67.4093 286.568 67.414 286.814 67.4796C287.059 67.5451 287.221 67.6757 287.293 67.8724C287.349 68.0148 287.419 68.2372 287.502 68.5395C287.586 68.8418 287.682 69.18 287.784 69.5552C287.886 69.9303 287.993 70.33 288.104 70.7543C288.214 71.1787 288.322 71.5845 288.42 71.973C288.519 72.3615 288.612 72.7192 288.692 73.0411C288.773 73.3629 288.829 73.6192 288.865 73.7904C288.755 73.8853 288.629 73.9639 288.499 74.0179C288.369 74.0719 288.193 74.1209 287.984 74.1568C287.701 74.2053 287.459 74.1962 287.252 74.1366C287.045 74.0709 286.909 73.9042 286.848 73.6233C286.666 72.8248 286.512 72.1102 286.395 71.4653C286.273 70.8276 286.168 70.2883 286.069 69.8557L286.013 69.8652C285.989 70.167 285.947 70.5479 285.879 71.0028C285.812 71.4639 285.741 72.0461 285.655 72.7638L285.656 72.77Z" fill="#F2F3C9"/>
<path d="M292.757 73.433C292.634 73.4541 292.486 73.4794 292.312 73.4966C292.139 73.52 291.963 73.5311 291.782 73.5432C291.599 73.5492 291.416 73.5552 291.231 73.5489C291.047 73.5426 290.879 73.527 290.721 73.4908C290.289 73.4066 290.039 73.1707 289.974 72.7892L289.087 67.6151C289.06 67.4613 289.082 67.3309 289.155 67.2361C289.226 67.1352 289.331 67.0475 289.47 66.973C289.708 66.8436 290.01 66.7221 290.378 66.6147C290.746 66.5073 291.13 66.4223 291.53 66.3538C292.478 66.1913 293.231 66.2267 293.796 66.4529C294.36 66.6791 294.697 67.1281 294.811 67.7925C294.868 68.1248 294.818 68.4246 294.669 68.7034C294.52 68.9761 294.291 69.1927 293.984 69.3593C294.371 69.4006 294.71 69.5324 295.004 69.7671C295.297 70.0017 295.478 70.319 295.549 70.7312C295.674 71.4633 295.497 72.0512 295.015 72.4947C294.534 72.9382 293.782 73.2445 292.761 73.4196L292.757 73.433ZM291.306 69.2929L292.112 69.1546C292.432 69.0998 292.649 68.9992 292.77 68.8581C292.892 68.7169 292.936 68.532 292.896 68.2982C292.862 68.1013 292.755 67.9551 292.569 67.8667C292.383 67.7783 292.126 67.7589 291.794 67.8159C291.683 67.8349 291.554 67.857 291.414 67.8936C291.274 67.924 291.159 67.9564 291.081 67.9824L291.305 69.2867L291.306 69.2929ZM291.769 71.9937C291.879 72.0066 292.011 72.0029 292.18 71.9867C292.348 71.9705 292.503 71.9503 292.65 71.9249C292.946 71.8743 293.181 71.7706 293.357 71.6138C293.533 71.457 293.598 71.2494 293.554 70.991C293.512 70.7449 293.402 70.5863 293.218 70.5102C293.04 70.4331 292.78 70.4271 292.448 70.4841L291.537 70.6402L291.769 71.9937Z" fill="#F2F3C9"/>
<path d="M298.911 72.1481C298.835 72.1864 298.709 72.2271 298.541 72.2812C298.373 72.3354 298.202 72.371 298.03 72.4006C297.857 72.4301 297.708 72.4431 297.574 72.4407C297.441 72.4382 297.322 72.408 297.224 72.3551C297.126 72.3022 297.043 72.2215 296.98 72.112C296.916 72.0025 296.865 71.8529 296.832 71.656L295.829 65.8113C295.907 65.7853 296.032 65.7385 296.206 65.6833C296.381 65.6281 296.545 65.5873 296.711 65.5589C296.877 65.5304 297.033 65.5163 297.166 65.5188C297.3 65.5212 297.419 65.5514 297.515 65.5982C297.613 65.6511 297.697 65.7318 297.76 65.8413C297.823 65.9508 297.874 66.1004 297.908 66.2973L298.91 72.142L298.911 72.1481Z" fill="#F2F3C9"/>
<path d="M306.4 70.6679C306.313 70.7904 306.179 70.8957 305.992 70.9848C305.805 71.074 305.576 71.1448 305.305 71.1912C305.035 71.2377 304.769 71.2389 304.509 71.2011C304.249 71.1634 304.019 71.0002 303.812 70.719L302.333 68.6673C302.183 68.4587 302.048 68.2603 301.921 68.0731C301.8 67.8848 301.661 67.6679 301.511 67.4213L301.446 67.4452C301.545 67.8398 301.633 68.2427 301.704 68.6549C301.774 69.0671 301.844 69.4732 301.913 69.8731L302.207 71.5896C302.131 71.6279 302.011 71.6674 301.849 71.7205C301.688 71.7736 301.523 71.8083 301.363 71.8357C301.203 71.8631 301.053 71.8762 300.927 71.8788C300.799 71.8753 300.687 71.8502 300.596 71.7962C300.504 71.7422 300.428 71.6667 300.359 71.5582C300.296 71.4487 300.246 71.3053 300.214 71.1207L299.264 65.5836C299.344 65.418 299.485 65.2798 299.681 65.1701C299.884 65.0594 300.105 64.9834 300.351 64.9412C300.622 64.8948 300.894 64.8925 301.155 64.9364C301.416 64.9804 301.645 65.1373 301.845 65.4135L303.336 67.463C303.486 67.6717 303.621 67.8701 303.748 68.0573C303.869 68.2456 304.008 68.4625 304.158 68.7091L304.211 68.6873C304.112 68.2927 304.025 67.8959 303.951 67.5032C303.877 67.1105 303.801 66.7055 303.734 66.3118L303.426 64.5153C303.502 64.477 303.622 64.4374 303.783 64.3843C303.945 64.3312 304.11 64.2966 304.27 64.2692C304.596 64.2132 304.852 64.2264 305.044 64.3138C305.237 64.4011 305.357 64.6212 305.419 64.9842L306.395 70.6751L306.4 70.6679Z" fill="#F2F3C9"/>
<path d="M313.768 68.517C313.807 68.7447 313.794 68.9243 313.733 69.0488C313.672 69.1732 313.56 69.3 313.4 69.4352C313.306 69.5146 313.186 69.5922 313.042 69.6739C312.897 69.7557 312.734 69.8344 312.555 69.903C312.377 69.9715 312.193 70.0412 311.993 70.0944C311.794 70.1539 311.592 70.1948 311.395 70.2286C310.866 70.3193 310.355 70.331 309.863 70.2696C309.371 70.2083 308.934 70.0554 308.539 69.8253C308.145 69.5953 307.812 69.2787 307.541 68.8756C307.269 68.4726 307.078 67.986 306.979 67.4077C306.875 66.8048 306.895 66.2567 307.033 65.7706C307.172 65.2846 307.397 64.8597 307.702 64.4971C308.007 64.1344 308.381 63.8422 308.817 63.6154C309.253 63.3887 309.714 63.2336 310.2 63.1502C310.902 63.03 311.474 63.0458 311.926 63.2027C312.377 63.3597 312.63 63.614 312.692 63.977C312.725 64.1677 312.704 64.3423 312.636 64.4996C312.562 64.658 312.47 64.7877 312.36 64.8888C312.157 64.8097 311.91 64.738 311.616 64.6809C311.321 64.6238 310.997 64.6222 310.653 64.6813C310.032 64.7878 309.57 65.0507 309.267 65.4636C308.965 65.8827 308.864 66.4004 308.972 67.0279C309.03 67.3663 309.13 67.6532 309.27 67.8824C309.411 68.1116 309.581 68.2914 309.781 68.4218C309.98 68.5522 310.191 68.6364 310.426 68.6784C310.662 68.7204 310.902 68.7172 311.154 68.674C311.314 68.6466 311.459 68.6089 311.577 68.5571C311.695 68.5052 311.788 68.4576 311.85 68.409L311.671 67.3693L310.484 67.5729C310.427 67.5003 310.365 67.397 310.3 67.2752C310.233 67.1472 310.192 67.015 310.166 66.8673C310.121 66.6028 310.15 66.4015 310.252 66.2574C310.355 66.1194 310.498 66.0315 310.689 65.9988L312.559 65.678C312.781 65.6401 312.963 65.672 313.108 65.774C313.252 65.8759 313.343 66.0377 313.381 66.2591L313.768 68.517Z" fill="#F2F3C9"/>
<path d="M282.084 87.0705C282.008 87.1088 281.882 87.1494 281.714 87.2036C281.546 87.2577 281.375 87.2934 281.203 87.323C281.03 87.3525 280.881 87.3655 280.747 87.3631C280.614 87.3606 280.495 87.3304 280.397 87.2775C280.299 87.2246 280.216 87.1439 280.153 87.0344C280.089 86.9249 280.038 86.7753 280.005 86.5784L279.11 81.3612C279.084 81.2074 279.106 81.077 279.178 80.9822C279.249 80.8813 279.355 80.7936 279.494 80.7191C279.731 80.5897 280.003 80.4735 280.315 80.3755C280.628 80.2776 280.951 80.2032 281.277 80.1473C282.298 79.9722 283.11 80.0546 283.727 80.3986C284.343 80.7425 284.709 81.2878 284.836 82.0322C284.899 82.3952 284.899 82.7308 284.832 83.04C284.765 83.3492 284.642 83.6299 284.45 83.8781C284.258 84.1264 284.004 84.341 283.678 84.5108C283.354 84.6868 282.969 84.8097 282.514 84.8878L281.727 85.0228L282.076 87.0592L282.084 87.0705ZM282.046 83.4163C282.354 83.3636 282.581 83.2486 282.723 83.0786C282.865 82.9086 282.913 82.6724 282.863 82.377C282.812 82.0817 282.691 81.8935 282.493 81.7754C282.295 81.6511 282.03 81.6205 281.698 81.6775C281.581 81.6975 281.482 81.7144 281.402 81.7281C281.322 81.7418 281.244 81.7679 281.167 81.7939L281.461 83.5104L282.045 83.4102L282.046 83.4163Z" fill="#F2F3C9"/>
<path d="M288.144 83.8384L288.509 85.9671C288.434 86.0054 288.307 86.0461 288.139 86.1002C287.971 86.1544 287.8 86.1901 287.628 86.2196C287.456 86.2491 287.306 86.2622 287.172 86.2597C287.039 86.2572 286.926 86.226 286.828 86.1731C286.731 86.1202 286.653 86.0384 286.59 85.9289C286.527 85.8194 286.476 85.6698 286.442 85.4729L285.548 80.2558C285.521 80.102 285.543 79.9715 285.616 79.8768C285.687 79.7759 285.792 79.6881 285.931 79.6136C286.169 79.4842 286.446 79.367 286.771 79.2669C287.096 79.1669 287.45 79.0872 287.825 79.0229C288.846 78.8477 289.646 78.9322 290.236 79.2681C290.825 79.604 291.184 80.1442 291.31 80.8763C291.388 81.3316 291.338 81.7454 291.154 82.1126C290.976 82.4788 290.737 82.7795 290.44 83.0077C290.767 83.3253 291.089 83.6183 291.403 83.894C291.716 84.1696 291.968 84.4178 292.16 84.6508C292.13 84.9219 292.028 85.142 291.855 85.3111C291.681 85.4802 291.477 85.5848 291.231 85.627C291.071 85.6544 290.927 85.6602 290.803 85.6434C290.68 85.6265 290.567 85.5952 290.469 85.5423C290.372 85.4894 290.272 85.4242 290.181 85.3384C290.09 85.2527 290.006 85.1658 289.919 85.0667L288.734 83.731L288.149 83.8312L288.144 83.8384ZM288.587 82.2488C288.87 82.2003 289.079 82.0884 289.215 81.9195C289.351 81.7506 289.4 81.5205 289.351 81.2375C289.303 80.9545 289.174 80.7611 288.972 80.6502C288.769 80.5393 288.467 80.5151 288.08 80.5815C287.969 80.6005 287.883 80.6153 287.817 80.6392C287.751 80.6569 287.679 80.6819 287.601 80.7079L287.886 82.3691L288.593 82.2477L288.587 82.2488Z" fill="#F2F3C9"/>
<path d="M292.33 81.8929C292.231 81.3146 292.236 80.7942 292.339 80.3207C292.441 79.8471 292.63 79.4347 292.892 79.0795C293.154 78.7242 293.486 78.4394 293.883 78.2066C294.281 77.98 294.729 77.8209 295.221 77.7365C295.713 77.6521 296.188 77.653 296.639 77.734C297.09 77.815 297.498 77.9793 297.87 78.2259C298.241 78.4725 298.551 78.7995 298.805 79.2118C299.059 79.6242 299.239 80.119 299.337 80.6912C299.435 81.2634 299.438 81.7949 299.335 82.2685C299.233 82.7421 299.051 83.1595 298.789 83.5148C298.527 83.8701 298.196 84.1549 297.793 84.3887C297.388 84.6163 296.941 84.7755 296.436 84.862C295.932 84.9485 295.457 84.9476 294.999 84.8615C294.54 84.7754 294.132 84.6111 293.773 84.3624C293.414 84.1137 293.103 83.7806 292.849 83.3682C292.594 82.9558 292.422 82.4661 292.324 81.8939L292.33 81.8929ZM294.323 81.551C294.438 82.2217 294.66 82.7029 294.994 82.9877C295.322 83.2735 295.719 83.3763 296.174 83.2982C296.63 83.2202 296.983 82.9886 297.196 82.61C297.41 82.2313 297.465 81.7026 297.35 81.032C297.235 80.3614 297.015 79.8924 296.688 79.6066C296.36 79.3208 295.962 79.218 295.501 79.2971C295.04 79.3762 294.705 79.6046 294.484 79.9781C294.263 80.3517 294.214 80.8794 294.329 81.55L294.323 81.551Z" fill="#F2F3C9"/>
<path d="M293.855 99.7874L298.246 106.488C298.692 107.166 299.467 107.552 300.274 107.49L308.266 106.898C310.211 106.755 311.388 108.998 310.166 110.518L305.146 116.769C304.64 117.4 304.514 118.257 304.821 119.009L307.854 126.431C308.594 128.236 306.822 130.053 304.999 129.359L297.508 126.521C296.749 126.233 295.894 126.379 295.275 126.904L289.157 132.076C287.669 133.331 285.394 132.214 285.49 130.266L285.878 122.258C285.916 121.447 285.512 120.68 284.824 120.253L278.008 116.033C276.35 115.006 276.718 112.498 278.6 111.986L286.333 109.881C287.114 109.671 287.722 109.047 287.911 108.261L289.819 100.479C290.286 98.588 292.784 98.1597 293.849 99.7884L293.855 99.7874Z" fill="#FBB03B"/>
<path d="M302.963 120.607C302.616 120.205 302.164 119.826 301.631 119.709C301.19 119.607 300.743 119.664 300.3 119.702C299.895 119.74 299.461 119.758 299.104 119.521C297.671 118.513 296.232 117.512 294.799 116.504C294.058 115.985 293.317 115.466 292.575 114.947C292.281 114.744 291.953 114.566 291.777 114.242C291.576 113.884 291.509 113.458 291.398 113.066C291.215 112.445 290.908 111.984 290.343 111.644C289.693 111.249 288.92 111.065 288.161 111.144C287.962 111.166 287.92 111.439 288.072 111.546C288.598 111.918 289.13 112.289 289.655 112.655C289.666 113.198 289.682 113.733 289.693 114.276C289.177 114.447 288.669 114.623 288.154 114.794C287.627 114.421 287.095 114.05 286.57 113.684C286.419 113.577 286.176 113.714 286.227 113.902C286.363 114.436 286.623 114.917 286.986 115.336C287.326 115.727 287.763 116.096 288.266 116.225C289.067 116.429 289.961 115.991 290.725 116.347C290.918 116.435 291.091 116.595 291.257 116.712C291.473 116.865 291.689 117.018 291.905 117.171C292.358 117.486 292.812 117.807 293.265 118.122C294.187 118.769 295.115 119.414 296.037 120.066C296.577 120.442 297.11 120.82 297.649 121.196C297.887 121.364 298.079 121.521 298.214 121.789C298.342 122.059 298.405 122.352 298.479 122.637C298.647 123.286 298.895 123.845 299.474 124.227C300.152 124.674 300.975 124.894 301.783 124.806C301.982 124.785 302.024 124.511 301.873 124.404C301.347 124.032 300.815 123.661 300.289 123.295C300.279 122.752 300.263 122.217 300.252 121.674C300.761 121.504 301.276 121.327 301.785 121.158C302.311 121.53 302.843 121.901 303.368 122.267C303.52 122.374 303.762 122.237 303.711 122.05C303.575 121.516 303.315 121.035 302.952 120.616L302.963 120.607Z" fill="#F2F3C9"/>
<path d="M304.044 113.507L302.566 112.462C302.335 112.299 302.002 112.388 301.813 112.648L301.655 112.872L301.41 112.699L301.608 112.417C301.797 112.151 301.764 111.808 301.533 111.645L299.747 110.387C299.747 110.387 296.729 107.713 295.023 110.133C295.023 110.133 295.873 109.848 297.666 110.845L296.712 112.193C296.524 112.46 296.557 112.802 296.788 112.965L297.206 113.261C297.167 113.293 297.129 113.331 297.099 113.375L289.266 124.465C289.052 124.767 289.124 125.186 289.427 125.4L290.068 125.853C290.371 126.067 290.789 125.996 291.003 125.693L298.836 114.603C298.866 114.56 298.89 114.511 298.907 114.464L299.332 114.765C299.563 114.928 299.896 114.839 300.085 114.579L300.284 114.298L300.529 114.471L300.29 114.81C300.101 115.076 300.134 115.419 300.365 115.582L301.843 116.627C302.073 116.79 302.406 116.701 302.596 116.441L304.119 114.28C304.308 114.013 304.274 113.67 304.044 113.507Z" fill="#F2F3C9"/>
</g>
<g clip-path="url(#clip2_1859_5067)">
<path d="M245.944 177.409L137.95 167.369C133.812 166.985 131.653 162.251 134.075 158.873L196.643 71.7267C199.04 68.3889 204.146 68.8636 205.887 72.5861L251.319 169.778C253.082 173.545 250.087 177.799 245.944 177.414L245.944 177.409Z" fill="#006837"/>
<path d="M247.484 174.935L136.913 164.656C135.258 164.502 134.398 162.61 135.363 161.263L199.701 71.6181C200.532 70.4592 202.303 70.6237 202.906 71.9161L249.706 171.776C250.438 173.334 249.197 175.099 247.484 174.94L247.484 174.935Z" stroke="#F2F3C9" stroke-width="4.24499" stroke-miterlimit="10"/>
<path d="M151.421 151.957C151.372 151.857 151.326 151.726 151.294 151.565C151.256 151.403 151.251 151.233 151.267 151.055C151.298 150.731 151.393 150.502 151.553 150.374C151.712 150.246 151.908 150.19 152.143 150.212L157.622 150.721C157.671 150.821 157.717 150.952 157.749 151.114C157.787 151.276 157.792 151.445 157.776 151.623C157.746 151.948 157.65 152.177 157.491 152.305C157.331 152.433 157.135 152.488 156.9 152.466L155.507 152.337L154.967 158.145C154.87 158.163 154.726 158.176 154.525 158.178C154.324 158.186 154.129 158.178 153.935 158.16C153.741 158.142 153.575 158.111 153.431 158.071C153.287 158.026 153.166 157.962 153.074 157.88C152.981 157.797 152.912 157.685 152.878 157.544C152.838 157.403 152.833 157.229 152.853 157.009L153.307 152.132L151.421 151.957Z" fill="#F2F3C9"/>
<path d="M165.033 159.083C164.936 159.101 164.792 159.114 164.591 159.116C164.39 159.124 164.195 159.116 164.001 159.098C163.808 159.08 163.641 159.049 163.497 159.009C163.354 158.964 163.233 158.9 163.14 158.818C163.047 158.735 162.978 158.623 162.944 158.482C162.904 158.341 162.899 158.166 162.92 157.947L163.102 155.988L160.687 155.763L160.419 158.654C160.322 158.672 160.178 158.685 159.977 158.687C159.776 158.695 159.581 158.687 159.387 158.669C159.193 158.651 159.027 158.62 158.883 158.58C158.739 158.535 158.618 158.471 158.526 158.389C158.433 158.306 158.364 158.194 158.33 158.053C158.29 157.912 158.285 157.738 158.305 157.518L158.922 150.881C159.018 150.875 159.167 150.862 159.369 150.854C159.571 150.841 159.765 150.849 159.949 150.866C160.132 150.883 160.309 150.915 160.453 150.955C160.597 151 160.717 151.064 160.81 151.147C160.903 151.229 160.972 151.341 161.006 151.482C161.046 151.623 161.051 151.798 161.03 152.018L160.843 154.029L163.258 154.253L163.532 151.31C163.627 151.303 163.776 151.29 163.978 151.283C164.179 151.275 164.375 151.277 164.558 151.294C164.741 151.311 164.918 151.344 165.062 151.384C165.206 151.429 165.327 151.493 165.419 151.575C165.512 151.658 165.581 151.77 165.615 151.91C165.655 152.051 165.66 152.226 165.639 152.446L165.023 159.082L165.033 159.083Z" fill="#F2F3C9"/>
<path d="M169.082 157.024L168.858 159.438C168.761 159.456 168.617 159.469 168.416 159.471C168.215 159.479 168.02 159.472 167.826 159.453C167.633 159.435 167.466 159.404 167.322 159.364C167.178 159.319 167.063 159.256 166.97 159.173C166.883 159.091 166.819 158.979 166.779 158.838C166.74 158.697 166.735 158.523 166.755 158.303L167.305 152.384C167.322 152.206 167.382 152.074 167.49 151.989C167.598 151.904 167.737 151.838 167.91 151.796C168.202 151.723 168.544 151.68 168.925 151.668C169.307 151.656 169.712 151.673 170.136 151.712C171.294 151.82 172.141 152.142 172.682 152.683C173.223 153.225 173.456 153.907 173.378 154.74C173.33 155.258 173.153 155.691 172.851 156.032C172.55 156.374 172.204 156.633 171.819 156.798C172.085 157.234 172.342 157.649 172.602 158.038C172.861 158.426 173.062 158.773 173.202 159.082C173.091 159.367 172.918 159.578 172.679 159.709C172.444 159.846 172.186 159.896 171.908 159.87C171.725 159.853 171.565 159.817 171.437 159.763C171.305 159.708 171.195 159.64 171.103 159.552C171.01 159.469 170.925 159.366 170.851 159.249C170.778 159.131 170.71 159.008 170.643 158.875L169.743 157.08L169.078 157.018L169.082 157.024ZM170.029 155.427C170.348 155.456 170.607 155.396 170.806 155.251C171.004 155.105 171.121 154.873 171.15 154.554C171.18 154.234 171.098 153.983 170.909 153.802C170.719 153.621 170.402 153.507 169.957 153.465C169.832 153.454 169.732 153.444 169.653 153.448C169.573 153.451 169.493 153.454 169.398 153.461L169.222 155.346L170.029 155.421L170.029 155.427Z" fill="#F2F3C9"/>
<path d="M174.92 153.545C174.953 153.184 175.084 152.91 175.313 152.72C175.542 152.53 175.835 152.452 176.196 152.486L180.345 152.871C180.393 152.971 180.435 153.096 180.468 153.252C180.501 153.409 180.507 153.568 180.491 153.735C180.462 154.055 180.373 154.274 180.219 154.397C180.07 154.52 179.881 154.566 179.655 154.545L177.005 154.299L176.897 155.467L179.725 155.73C179.774 155.829 179.815 155.949 179.849 156.1C179.882 156.252 179.889 156.411 179.873 156.578C179.843 156.898 179.754 157.117 179.611 157.241C179.462 157.364 179.278 157.41 179.053 157.389L176.738 157.174L176.615 158.494L179.847 158.795C179.896 158.894 179.937 159.02 179.97 159.176C180.003 159.332 180.009 159.491 179.994 159.659C179.964 159.978 179.875 160.197 179.72 160.325C179.571 160.449 179.381 160.505 179.156 160.484L175.484 160.143C175.123 160.109 174.85 159.978 174.66 159.749C174.47 159.52 174.391 159.228 174.425 158.866L174.919 153.55L174.92 153.545Z" fill="#F2F3C9"/>
<path d="M183.68 153.409C183.83 153.338 184.052 153.28 184.352 153.228C184.647 153.182 184.944 153.167 185.238 153.194C185.657 153.233 186.023 153.331 186.331 153.481C186.645 153.632 186.831 153.844 186.901 154.11C187.013 154.559 187.128 155.082 187.252 155.674C187.377 156.267 187.494 156.88 187.615 157.515C187.735 158.149 187.847 158.773 187.959 159.385C188.071 159.998 188.168 160.546 188.251 161.018C188.14 161.124 187.98 161.205 187.774 161.259C187.568 161.314 187.324 161.323 187.047 161.297C186.848 161.279 186.676 161.247 186.543 161.198C186.41 161.154 186.3 161.091 186.217 161.014C186.134 160.938 186.075 160.843 186.027 160.732C185.984 160.618 185.944 160.487 185.915 160.342L185.771 159.451L183.498 159.24C183.406 159.485 183.314 159.741 183.226 160.002C183.133 160.263 183.041 160.518 182.954 160.764C182.835 160.795 182.706 160.82 182.573 160.834C182.439 160.848 182.281 160.849 182.097 160.832C181.668 160.792 181.361 160.69 181.17 160.524C180.979 160.358 180.894 160.144 180.917 159.888C180.928 159.772 180.955 159.653 181.002 159.542C181.045 159.429 181.1 159.292 181.156 159.139C181.235 158.919 181.345 158.644 181.481 158.318C181.617 157.993 181.765 157.642 181.928 157.261C182.089 156.885 182.263 156.494 182.442 156.099C182.622 155.704 182.794 155.329 182.954 154.974C183.114 154.619 183.259 154.305 183.39 154.032C183.521 153.759 183.625 153.546 183.697 153.4L183.68 153.409ZM185.038 155.173C184.89 155.513 184.717 155.893 184.531 156.309C184.344 156.725 184.172 157.153 184.01 157.587L185.571 157.732C185.498 157.271 185.419 156.814 185.338 156.373C185.258 155.933 185.184 155.535 185.111 155.18L185.038 155.173Z" fill="#F2F3C9"/>
<path d="M192.125 161.855C191.984 161.842 191.821 161.826 191.634 161.798C191.452 161.771 191.259 161.737 191.068 161.693C190.871 161.648 190.68 161.599 190.485 161.544C190.289 161.489 190.116 161.42 189.955 161.336C189.51 161.115 189.308 160.79 189.348 160.355L189.894 154.484C189.911 154.306 189.971 154.174 190.079 154.089C190.182 154.003 190.325 153.937 190.498 153.895C190.871 153.814 191.26 153.771 191.662 153.771C192.068 153.772 192.432 153.785 192.746 153.814C193.401 153.875 193.985 154.008 194.504 154.22C195.024 154.427 195.457 154.716 195.808 155.081C196.16 155.447 196.414 155.893 196.577 156.415C196.74 156.937 196.789 157.544 196.725 158.23C196.662 158.916 196.509 159.478 196.259 159.957C196.013 160.436 195.686 160.828 195.283 161.134C194.879 161.44 194.411 161.65 193.871 161.769C193.337 161.888 192.753 161.918 192.125 161.86L192.125 161.855ZM191.594 159.951C191.687 159.976 191.796 160.001 191.931 160.025C192.066 160.048 192.191 160.07 192.306 160.081C192.589 160.107 192.855 160.089 193.103 160.028C193.352 159.967 193.568 159.855 193.757 159.698C193.947 159.536 194.099 159.323 194.224 159.049C194.345 158.775 194.429 158.445 194.465 158.052C194.535 157.298 194.41 156.715 194.094 156.301C193.779 155.886 193.325 155.653 192.738 155.599C192.623 155.588 192.503 155.577 192.381 155.576C192.26 155.575 192.133 155.574 192.006 155.578L191.6 159.952L191.594 159.951Z" fill="#F2F3C9"/>
<path d="M202.556 160.135L202.332 162.55C202.235 162.567 202.091 162.58 201.89 162.583C201.689 162.59 201.494 162.583 201.3 162.565C201.106 162.547 200.94 162.516 200.796 162.476C200.652 162.431 200.536 162.367 200.444 162.284C200.356 162.202 200.293 162.091 200.253 161.95C200.213 161.809 200.208 161.634 200.229 161.414L200.779 155.495C200.796 155.317 200.855 155.186 200.964 155.101C201.067 155.015 201.21 154.949 201.383 154.907C201.675 154.834 202.017 154.792 202.399 154.78C202.78 154.768 203.186 154.784 203.61 154.823C204.767 154.931 205.614 155.253 206.156 155.794C206.697 156.336 206.929 157.018 206.852 157.851C206.804 158.369 206.626 158.802 206.325 159.144C206.024 159.486 205.678 159.744 205.292 159.909C205.558 160.346 205.816 160.76 206.075 161.149C206.335 161.538 206.535 161.884 206.676 162.193C206.564 162.478 206.392 162.689 206.152 162.82C205.913 162.951 205.659 163.007 205.382 162.981C205.199 162.964 205.038 162.928 204.911 162.874C204.779 162.82 204.669 162.751 204.577 162.663C204.484 162.581 204.399 162.478 204.325 162.36C204.251 162.242 204.184 162.12 204.117 161.987L203.216 160.191L202.551 160.129L202.556 160.135ZM203.502 158.538C203.822 158.568 204.081 158.507 204.279 158.362C204.478 158.217 204.594 157.984 204.624 157.665C204.654 157.345 204.571 157.095 204.382 156.913C204.193 156.732 203.876 156.618 203.431 156.577C203.305 156.565 203.206 156.556 203.126 156.559C203.052 156.563 202.967 156.565 202.871 156.572L202.696 158.458L203.503 158.533L203.502 158.538Z" fill="#F2F3C9"/>
<path d="M209.999 163.264C209.902 163.281 209.758 163.294 209.557 163.297C209.356 163.304 209.161 163.297 208.967 163.279C208.773 163.261 208.607 163.229 208.463 163.19C208.319 163.145 208.198 163.081 208.106 162.998C208.013 162.915 207.944 162.803 207.91 162.663C207.875 162.522 207.865 162.347 207.886 162.127L208.502 155.491C208.598 155.484 208.747 155.471 208.949 155.464C209.151 155.451 209.345 155.458 209.529 155.475C209.712 155.492 209.889 155.525 210.033 155.564C210.177 155.61 210.298 155.674 210.39 155.756C210.483 155.839 210.552 155.951 210.586 156.091C210.626 156.232 210.631 156.407 210.61 156.627L209.993 163.263L209.999 163.264Z" fill="#F2F3C9"/>
<path d="M218.647 162.858C218.623 163.12 218.558 163.304 218.458 163.422C218.352 163.539 218.194 163.646 217.984 163.748C217.862 163.805 217.71 163.854 217.526 163.9C217.342 163.947 217.148 163.982 216.934 164.009C216.721 164.037 216.497 164.053 216.265 164.053C216.032 164.052 215.8 164.047 215.575 164.026C214.973 163.97 214.415 163.833 213.901 163.622C213.387 163.41 212.954 163.122 212.593 162.75C212.236 162.384 211.965 161.941 211.786 161.428C211.606 160.915 211.545 160.328 211.606 159.673C211.669 158.987 211.851 158.396 212.144 157.911C212.438 157.421 212.808 157.027 213.243 156.724C213.678 156.421 214.167 156.213 214.707 156.094C215.246 155.976 215.793 155.942 216.343 155.993C217.139 156.067 217.756 156.251 218.198 156.551C218.641 156.851 218.84 157.202 218.802 157.616C218.781 157.836 218.712 158.02 218.587 158.167C218.462 158.314 218.325 158.428 218.175 158.509C217.977 158.364 217.727 158.214 217.424 158.064C217.121 157.914 216.77 157.818 216.378 157.782C215.676 157.717 215.097 157.863 214.645 158.228C214.194 158.593 213.933 159.129 213.867 159.841C213.831 160.229 213.858 160.564 213.941 160.857C214.03 161.151 214.161 161.395 214.338 161.591C214.515 161.787 214.723 161.944 214.966 162.057C215.209 162.169 215.472 162.236 215.76 162.262C215.944 162.279 216.107 162.279 216.257 162.256C216.402 162.238 216.516 162.206 216.593 162.171L216.703 160.987L215.357 160.862C215.313 160.763 215.277 160.638 215.244 160.482C215.211 160.325 215.205 160.166 215.221 159.999C215.249 159.695 215.337 159.487 215.491 159.364C215.64 159.24 215.824 159.194 216.044 159.214L218.17 159.412C218.422 159.435 218.609 159.521 218.737 159.676C218.861 159.825 218.916 160.031 218.892 160.282L218.654 162.848L218.647 162.858Z" fill="#F2F3C9"/>
<path d="M226.792 164.824C226.695 164.841 226.551 164.854 226.35 164.856C226.149 164.864 225.954 164.857 225.76 164.839C225.566 164.821 225.4 164.789 225.256 164.749C225.112 164.704 224.991 164.64 224.899 164.558C224.806 164.475 224.737 164.363 224.703 164.223C224.663 164.082 224.658 163.907 224.679 163.687L224.861 161.728L222.446 161.503L222.177 164.395C222.081 164.412 221.937 164.425 221.736 164.427C221.534 164.435 221.34 164.428 221.146 164.41C220.952 164.392 220.786 164.36 220.642 164.321C220.498 164.275 220.377 164.211 220.284 164.129C220.192 164.046 220.123 163.934 220.088 163.794C220.054 163.653 220.044 163.478 220.064 163.258L220.681 156.622C220.777 156.615 220.926 156.602 221.127 156.595C221.329 156.582 221.524 156.589 221.707 156.606C221.891 156.623 222.067 156.655 222.212 156.695C222.355 156.74 222.476 156.804 222.569 156.887C222.662 156.97 222.73 157.082 222.765 157.222C222.805 157.363 222.81 157.538 222.789 157.758L222.602 159.769L225.017 159.994L225.29 157.05C225.386 157.043 225.535 157.031 225.737 157.023C225.938 157.015 226.133 157.018 226.317 157.035C226.5 157.052 226.677 157.084 226.821 157.124C226.965 157.169 227.085 157.233 227.178 157.315C227.271 157.398 227.34 157.51 227.374 157.651C227.409 157.791 227.419 157.967 227.398 158.186L226.781 164.823L226.792 164.824Z" fill="#F2F3C9"/>
<path d="M228.613 159.133C228.564 159.033 228.518 158.902 228.485 158.741C228.453 158.579 228.442 158.409 228.459 158.231C228.489 157.906 228.584 157.677 228.744 157.55C228.904 157.422 229.099 157.366 229.335 157.388L234.813 157.897C234.862 157.997 234.908 158.128 234.941 158.289C234.978 158.451 234.984 158.621 234.967 158.799C234.937 159.124 234.842 159.353 234.682 159.481C234.522 159.608 234.327 159.664 234.091 159.642L232.698 159.513L232.158 165.321C232.061 165.339 231.917 165.352 231.716 165.354C231.515 165.362 231.32 165.354 231.126 165.336C230.933 165.318 230.767 165.287 230.622 165.247C230.479 165.202 230.358 165.138 230.265 165.055C230.172 164.973 230.104 164.861 230.069 164.72C230.035 164.58 230.024 164.404 230.045 164.184L230.498 159.308L228.613 159.133Z" fill="#F2F3C9"/>
<path d="M246.882 177.946L136.928 167.725C132.712 167.333 130.519 162.512 132.983 159.074L196.686 70.3427C199.126 66.9402 204.327 67.4237 206.098 71.2177L252.354 170.171C254.148 174.004 251.098 178.338 246.882 177.946Z" stroke="#663734" stroke-width="2.69323" stroke-miterlimit="10"/>
<path d="M216.959 121.753L217.213 122.881C217.229 122.946 217.283 122.988 217.346 122.994L218.498 123.101C218.639 123.114 218.685 123.303 218.562 123.376L217.567 123.965C217.511 123.997 217.484 124.063 217.499 124.128L217.753 125.256C217.783 125.396 217.62 125.497 217.513 125.402L216.643 124.64C216.594 124.599 216.526 124.592 216.47 124.624L215.475 125.213C215.352 125.286 215.206 125.156 215.266 125.024L215.723 123.963C215.75 123.902 215.735 123.837 215.687 123.79L214.817 123.028C214.71 122.934 214.784 122.756 214.931 122.769L216.083 122.876C216.146 122.882 216.208 122.846 216.234 122.79L216.692 121.728C216.746 121.596 216.94 121.614 216.975 121.755L216.959 121.753Z" fill="#F2F3C9"/>
<path d="M193.048 95.1205L193.302 96.2482C193.317 96.313 193.372 96.3551 193.434 96.3609L194.587 96.468C194.728 96.4812 194.774 96.6703 194.651 96.7434L193.656 97.3324C193.6 97.3642 193.573 97.4303 193.588 97.4951L193.842 98.6229C193.872 98.763 193.709 98.8641 193.601 98.7696L192.732 98.0073C192.683 97.9657 192.615 97.9594 192.559 97.9912L191.564 98.5802C191.441 98.6533 191.295 98.5234 191.354 98.3916L191.812 97.3301C191.839 97.2692 191.824 97.2044 191.776 97.1576L190.906 96.3953C190.799 96.3008 190.873 96.1228 191.02 96.1364L192.172 96.2436C192.235 96.2494 192.297 96.2129 192.323 96.1572L192.781 95.0956C192.835 94.9634 193.029 94.9814 193.064 95.1219L193.048 95.1205Z" fill="#F2F3C9"/>
<path d="M170.983 124.744L171.238 125.871C171.253 125.936 171.307 125.983 171.37 125.989L172.522 126.096C172.663 126.109 172.709 126.299 172.586 126.372L171.591 126.961C171.535 126.992 171.508 127.059 171.523 127.123L171.777 128.251C171.807 128.391 171.644 128.492 171.537 128.398L170.667 127.636C170.618 127.594 170.55 127.588 170.494 127.619L169.499 128.208C169.376 128.282 169.23 128.152 169.289 128.02L169.747 126.958C169.774 126.897 169.759 126.833 169.711 126.786L168.841 126.024C168.734 125.929 168.808 125.751 168.955 125.765L170.107 125.872C170.17 125.878 170.232 125.841 170.258 125.78L170.716 124.719C170.771 124.586 170.965 124.604 170.999 124.745L170.983 124.744Z" fill="#F2F3C9"/>
<path d="M219.041 143.915L219.295 145.043C219.311 145.108 219.364 145.155 219.427 145.161L220.579 145.268C220.721 145.281 220.767 145.47 220.644 145.544L219.649 146.133C219.593 146.164 219.565 146.231 219.581 146.295L219.835 147.423C219.864 147.563 219.702 147.664 219.594 147.57L218.725 146.807C218.676 146.766 218.608 146.76 218.552 146.791L217.557 147.38C217.434 147.453 217.287 147.324 217.347 147.192L217.805 146.13C217.832 146.069 217.817 146.005 217.768 145.958L216.899 145.195C216.791 145.101 216.866 144.923 217.013 144.937L218.165 145.044C218.228 145.05 218.289 145.013 218.316 144.952L218.774 143.891C218.829 143.758 219.022 143.776 219.057 143.917L219.041 143.915Z" fill="#F2F3C9"/>
<path d="M247.041 171.628L201.597 74.3984C201.394 73.9675 200.808 73.913 200.529 74.2991L137.936 161.486C137.657 161.877 137.907 162.423 138.384 162.468L246.425 172.511C246.902 172.556 247.249 172.065 247.046 171.629L247.041 171.628Z" stroke="#663734" stroke-width="1.69379" stroke-miterlimit="10"/>
<path d="M190.693 137.716C190.714 136.92 190.657 136.112 190.493 135.436L205.146 123.295C205.793 123.604 206.536 123.852 207.315 123.946L207.788 123.974C211.205 124.033 214.171 121.514 214.474 118.076C214.626 117.076 214.454 116.078 214.092 115.199L209.361 119.149C209.081 119.324 208.818 119.421 208.56 119.523C207.712 119.73 206.879 119.541 206.319 118.856C205.874 118.355 205.77 117.774 205.816 117.224C205.791 116.979 205.939 116.691 206.065 116.481C206.135 116.181 206.338 115.983 206.558 115.719L211.344 111.858C210.504 111.347 209.623 110.99 208.605 110.917C205.168 110.613 202.065 113.019 201.533 116.408L201.445 116.786C201.352 117.564 201.476 118.389 201.645 119.066L186.993 131.206C186.345 130.898 185.602 130.649 184.751 130.539L184.338 130.606C180.938 130.469 177.973 132.988 177.651 136.503C177.518 137.431 177.695 138.425 178.051 139.309L182.759 135.435C183.057 135.183 183.32 135.081 183.583 134.984C184.431 134.777 185.247 135.043 185.806 135.729C186.268 136.158 186.373 136.738 186.333 137.284C186.357 137.529 186.209 137.816 186.079 138.026C186.008 138.331 185.788 138.596 185.512 138.777L180.781 142.727C181.639 143.161 182.519 143.522 183.538 143.596C186.957 143.977 190.065 141.572 190.597 138.182L190.703 137.727L190.693 137.716Z" fill="#FBB03B"/>
<path d="M199.414 138.527C199.54 137.741 199.745 136.957 200.031 136.323L187.867 121.689C187.173 121.873 186.397 121.981 185.615 121.929L185.145 121.87C181.775 121.297 179.325 118.275 179.66 114.841C179.696 113.83 180.048 112.88 180.566 112.083L184.488 116.837C184.731 117.061 184.971 117.205 185.206 117.353C186.002 117.712 186.855 117.681 187.532 117.11C188.061 116.699 188.271 116.148 188.327 115.599C188.397 115.362 188.304 115.053 188.22 114.823C188.206 114.515 188.043 114.283 187.875 113.983L183.883 109.306C184.803 108.958 185.734 108.77 186.748 108.885C190.183 109.221 192.789 112.157 192.687 115.587L192.704 115.974C192.652 116.756 192.378 117.544 192.087 118.178L204.251 132.812C204.944 132.628 205.72 132.52 206.577 132.568L206.97 132.71C210.337 133.203 212.787 136.225 212.455 139.739C212.416 140.676 212.059 141.62 211.546 142.423L207.632 137.748C207.386 137.446 207.146 137.296 206.906 137.153C206.11 136.793 205.259 136.904 204.583 137.476C204.05 137.812 203.84 138.363 203.779 138.906C203.71 139.143 203.802 139.453 203.892 139.683C203.905 139.996 204.072 140.297 204.31 140.525L208.232 145.279C207.309 145.548 206.377 145.741 205.363 145.626C201.931 145.37 199.32 142.433 199.422 139.003L199.402 138.537L199.414 138.527Z" fill="#F15A24"/>
</g>
<g clip-path="url(#clip3_1859_5067)">
<path d="M101.296 153.962C130.542 144.446 146.536 113.021 137.019 83.7748C127.502 54.5282 96.0782 38.5342 66.8316 48.0512C37.585 57.5682 21.591 88.9922 31.108 118.239C40.6249 147.485 72.049 163.479 101.296 153.962Z" fill="#00ABB3"/>
<path d="M66.8316 48.0512C37.5837 57.5686 21.5906 88.9909 31.108 118.239C40.6254 147.487 72.0477 163.48 101.296 153.962C130.544 144.445 146.537 113.023 137.019 83.7748C127.502 54.5269 96.0796 38.5338 66.8316 48.0512ZM99.3894 148.104C73.383 156.567 45.4357 142.343 36.9731 116.336C28.5105 90.3298 42.7332 62.3772 68.7396 53.9146C94.746 45.452 122.693 59.6764 131.156 85.6828C139.618 111.689 125.394 139.637 99.3876 148.099L99.3894 148.104Z" fill="#F2F3C9"/>
<mask id="mask0_1859_5067" style="mask-type:luminance" maskUnits="userSpaceOnUse" x="28" y="45" width="112" height="112">
<path d="M133.633 126.266C147.584 98.8557 136.673 65.3261 109.263 51.3751C81.8533 37.4242 48.3237 48.3349 34.3727 75.7448C20.4218 103.155 31.3325 136.684 58.7425 150.635C86.1524 164.586 119.682 153.676 133.633 126.266Z" fill="white"/>
</mask>
<g mask="url(#mask0_1859_5067)">
<path d="M39.8857 136.572C50.3201 133.177 51.4576 136.673 61.892 133.277C72.3263 129.882 71.1888 126.386 81.6284 122.989C92.0681 119.592 93.2003 123.089 103.64 119.692C114.08 116.295 112.942 112.799 123.376 109.404C133.811 106.009 134.954 109.503 145.388 106.107" stroke="#F2F3C9" stroke-width="1.8381" stroke-miterlimit="10"/>
<path d="M43.4736 147.004C53.908 143.609 55.0455 147.104 65.4799 143.709C75.9142 140.314 74.7767 136.818 85.2163 133.421C95.656 130.024 96.7882 133.521 107.228 130.124C117.667 126.727 116.53 123.231 126.964 119.836C137.399 116.44 138.541 119.934 148.976 116.539" stroke="#F2F3C9" stroke-width="1.8381" stroke-miterlimit="10"/>
<path d="M46.9424 157.664C57.3767 154.269 58.5143 157.764 68.9486 154.369C79.383 150.974 78.2454 147.478 88.6851 144.081C99.1247 140.684 100.257 144.181 110.697 140.784C121.136 137.387 119.999 133.891 130.433 130.496C140.867 127.1 142.01 130.594 152.445 127.199" stroke="#F2F3C9" stroke-width="1.8381" stroke-miterlimit="10"/>
</g>
<path d="M61.815 71.0667C61.9359 71.168 62.0652 71.3134 62.1906 71.501C62.3231 71.6921 62.4256 71.899 62.5014 72.132C62.6462 72.5769 62.6543 72.9258 62.5292 73.1715C62.4006 73.4242 62.1756 73.597 61.8579 73.7004L58.2614 74.8707L58.8905 76.8039L62.6405 75.5837C62.772 75.6815 62.9048 75.8198 63.0356 76.0057C63.1664 76.1916 63.2688 76.3984 63.3429 76.6262C63.4843 77.0605 63.4906 77.404 63.3656 77.6497C63.2405 77.8954 63.012 78.0752 62.6942 78.1786L59.6963 79.1542L60.8718 82.7665C60.755 82.8396 60.5711 82.9405 60.3113 83.0601C60.0515 83.1798 59.7936 83.2872 59.534 83.3716C59.2745 83.4561 59.0346 83.5107 58.8212 83.5391C58.6062 83.5623 58.4143 83.5486 58.2491 83.491C58.0786 83.4352 57.9315 83.3249 57.8023 83.162C57.6748 83.0043 57.5638 82.771 57.4673 82.4744L55.0422 75.022C54.8819 74.5294 54.8991 74.0962 55.0921 73.7172C55.285 73.3381 55.6251 73.0692 56.1177 72.9089L61.8222 71.0527L61.815 71.0667Z" fill="#F2F3C9"/>
<path d="M69.2226 76.4224L70.2929 79.7116C70.1761 79.7848 69.9922 79.8856 69.7324 80.0053C69.4726 80.125 69.2147 80.2323 68.9552 80.3168C68.6956 80.4012 68.4557 80.4559 68.2423 80.4843C68.0273 80.5074 67.8407 80.492 67.6755 80.4344C67.5104 80.3769 67.3632 80.2666 67.234 80.1037C67.1065 79.946 66.9955 79.7127 66.899 79.4161L64.274 71.3493C64.1964 71.111 64.1997 70.9049 64.289 70.7294C64.3783 70.5539 64.5239 70.3894 64.7258 70.2358C65.0677 69.9723 65.4852 69.7251 65.9782 69.4944C66.4713 69.2636 67.0065 69.0543 67.5892 68.8647C69.1676 68.3511 70.4626 68.2987 71.4778 68.7006C72.4931 69.1024 73.1816 69.8683 73.5504 71.0017C73.7814 71.7115 73.7925 72.3756 73.5908 72.9977C73.389 73.6198 73.0805 74.1478 72.667 74.587C73.2628 75.014 73.836 75.4074 74.3988 75.769C74.9563 76.1323 75.4189 76.4738 75.7759 76.7969C75.7887 77.2321 75.6821 77.6065 75.4491 77.9166C75.2161 78.2267 74.9116 78.4429 74.5356 78.5653C74.2866 78.6463 74.0608 78.6905 73.8565 78.6926C73.6522 78.6946 73.4674 78.6669 73.297 78.6111C73.1265 78.5552 72.958 78.4695 72.7985 78.3574C72.6337 78.247 72.4761 78.1226 72.3186 77.9805L70.1247 76.1347L69.219 76.4294L69.2226 76.4224ZM69.562 73.7933C69.9963 73.6519 70.3044 73.4287 70.4809 73.1252C70.6575 72.8217 70.6777 72.452 70.5364 72.0177C70.3951 71.5833 70.1505 71.2998 69.7974 71.1686C69.4443 71.0375 68.9685 71.0694 68.3593 71.2676C68.1899 71.3227 68.0539 71.3728 67.9514 71.4179C67.8542 71.4612 67.7428 71.515 67.6243 71.5829L68.4603 74.1518L69.5567 73.795L69.562 73.7933Z" fill="#F2F3C9"/>
<path d="M75.2522 68.4556C75.0919 67.963 75.1091 67.5298 75.302 67.1507C75.495 66.7717 75.8351 66.5028 76.3277 66.3425L81.9792 64.5035C82.1 64.6048 82.2276 64.7448 82.3531 64.9325C82.4838 65.1183 82.5863 65.3252 82.6604 65.5529C82.8017 65.9872 82.8064 66.3255 82.6813 66.5712C82.5492 66.8133 82.3366 66.9879 82.0241 67.0896L78.4118 68.2651L78.9306 69.8594L82.7865 68.6046C82.9073 68.7059 83.0332 68.8407 83.157 69.023C83.286 69.2036 83.3867 69.4051 83.4608 69.6328C83.6022 70.0672 83.6121 70.4037 83.487 70.6494C83.362 70.8951 83.1476 71.0644 82.8404 71.1644L79.6889 72.1899L80.2749 73.9907L84.6764 72.5585C84.7973 72.6597 84.9248 72.7998 85.0503 72.9874C85.1811 73.1733 85.2835 73.3801 85.3577 73.6079C85.499 74.0422 85.5053 74.3857 85.3803 74.6314C85.2552 74.8771 85.0373 75.0535 84.7248 75.1552L79.7248 76.7822C79.2322 76.9425 78.799 76.9253 78.4199 76.7323C78.0408 76.5394 77.772 76.1993 77.6117 75.7067L75.2539 68.4609L75.2522 68.4556Z" fill="#F2F3C9"/>
<path d="M84.9778 65.2915C84.8175 64.799 84.8347 64.3658 85.0276 63.9867C85.2206 63.6076 85.5607 63.3388 86.0533 63.1785L91.7048 61.3395C91.8256 61.4407 91.9532 61.5808 92.0786 61.7684C92.2094 61.9543 92.3119 62.1611 92.386 62.3889C92.5273 62.8232 92.5319 63.1614 92.4069 63.4071C92.2748 63.6492 92.0622 63.8239 91.7497 63.9256L88.1374 65.101L88.6562 66.6953L92.5121 65.4406C92.6329 65.5418 92.7588 65.6766 92.8825 65.8589C93.0116 66.0395 93.1123 66.241 93.1864 66.4688C93.3278 66.9031 93.3377 67.2396 93.2126 67.4853C93.0876 67.731 92.8732 67.9003 92.566 68.0003L89.4145 69.0258L90.0005 70.8267L94.402 69.3944C94.5228 69.4957 94.6504 69.6357 94.7759 69.8233C94.9067 70.0092 95.0091 70.216 95.0832 70.4438C95.2246 70.8781 95.2309 71.2217 95.1059 71.4674C94.9808 71.7131 94.7629 71.8894 94.4504 71.9911L89.4504 73.6181C88.9578 73.7784 88.5246 73.7612 88.1455 73.5683C87.7664 73.3753 87.4976 73.0352 87.3373 72.5426L84.9795 65.2968L84.9778 65.2915Z" fill="#F2F3C9"/>
<path d="M64.9459 90.6917C65.0667 90.793 65.196 90.9384 65.3215 91.126C65.454 91.3171 65.5564 91.524 65.6323 91.757C65.7771 92.2019 65.7851 92.5508 65.6601 92.7965C65.5314 93.0492 65.3065 93.222 64.9887 93.3254L61.3923 94.4957L62.0214 96.4289L65.7714 95.2087C65.9028 95.3065 66.0357 95.4448 66.1665 95.6307C66.2972 95.8166 66.3997 96.0234 66.4738 96.2512C66.6151 96.6855 66.6215 97.029 66.4964 97.2747C66.3714 97.5204 66.1429 97.7002 65.8251 97.8036L62.8272 98.7792L64.0026 102.391C63.8859 102.465 63.7019 102.565 63.4422 102.685C63.1824 102.805 62.9244 102.912 62.6649 102.997C62.4054 103.081 62.1654 103.136 61.9521 103.164C61.737 103.187 61.5451 103.174 61.38 103.116C61.2095 103.06 61.0623 102.95 60.9331 102.787C60.8057 102.629 60.6946 102.396 60.5981 102.099L58.1731 94.647C58.0128 94.1544 58.03 93.7212 58.2229 93.3422C58.4159 92.9631 58.756 92.6942 59.2486 92.5339L64.953 90.6777L64.9459 90.6917Z" fill="#F2F3C9"/>
<path d="M72.0751 99.9093C71.5825 100.07 71.1493 100.052 70.7702 99.8594C70.3911 99.6665 70.1223 99.3264 69.962 98.8338L67.0803 89.9778C67.2005 89.9153 67.3861 89.8197 67.6477 89.6877C67.9094 89.5557 68.1637 89.4554 68.418 89.3727C68.6722 89.2899 68.9175 89.2335 69.1308 89.2051C69.3459 89.182 69.5378 89.1957 69.7029 89.2533C69.8734 89.3091 70.0206 89.4193 70.1497 89.5823C70.2789 89.7453 70.3883 89.9733 70.4848 90.2699L72.6857 97.0337L76.6105 95.7566C76.7314 95.8578 76.8607 96.0032 76.9967 96.1873C77.1345 96.3768 77.237 96.5836 77.3128 96.8167C77.461 97.2722 77.4708 97.6263 77.3369 97.8807C77.203 98.1352 76.978 98.308 76.6549 98.4131L72.0628 99.9074L72.0751 99.9093Z" fill="#F2F3C9"/>
<path d="M76.873 92.5291C76.5835 91.6393 76.4644 90.8053 76.5228 90.0307C76.5811 89.2561 76.7746 88.5547 77.112 87.9353C77.4493 87.3159 77.9006 86.7766 78.4798 86.3245C79.059 85.8725 79.7291 85.5197 80.4971 85.2698C81.2651 85.0199 82.0145 84.9107 82.7489 84.9354C83.4832 84.96 84.1707 85.1287 84.8133 85.4292C85.4558 85.7298 86.025 86.183 86.5281 86.7749C87.0311 87.3668 87.4257 88.1112 87.7152 89.001C88.0048 89.8909 88.1239 90.7249 88.0742 91.5084C88.0229 92.2866 87.8347 92.9863 87.499 93.6109C87.1634 94.2356 86.7051 94.7713 86.1206 95.2251C85.5361 95.6789 84.8554 96.0351 84.0821 96.2868C83.3088 96.5384 82.5488 96.651 81.8057 96.6175C81.0644 96.5893 80.3751 96.4153 79.7468 96.1043C79.1131 95.795 78.5492 95.34 78.055 94.7394C77.5572 94.1457 77.1644 93.4067 76.8783 92.5274L76.873 92.5291ZM79.9557 91.526C80.2935 92.5642 80.7587 93.2738 81.3496 93.6497C81.9405 94.0256 82.5864 94.1025 83.2962 93.8715C84.0059 93.6405 84.5058 93.1967 84.7553 92.5415C85.0119 91.8898 84.9704 91.0423 84.6326 90.0041C84.2948 88.966 83.84 88.2705 83.2544 87.8929C82.6688 87.5153 82.0176 87.4402 81.2972 87.6746C80.5769 87.909 80.1035 88.3442 79.8399 88.9923C79.5763 89.6404 79.6161 90.4826 79.9539 91.5207L79.9557 91.526Z" fill="#F2F3C9"/>
<path d="M93.7035 84.1358C93.8117 84.0362 93.987 83.9089 94.233 83.7468C94.479 83.5848 94.737 83.4598 95.0125 83.3702C95.4945 83.2133 95.9141 83.1529 96.2784 83.1925C96.6428 83.2321 96.906 83.3749 97.0645 83.6279C97.3432 84.0526 97.6028 84.4543 97.8397 84.8224C98.0837 85.1941 98.3101 85.548 98.5367 85.8843C98.758 86.2223 98.9793 86.5603 99.1989 86.893C99.4131 87.2275 99.6325 87.5778 99.8536 87.951L99.9383 87.9235C99.8132 87.1969 99.6913 86.4985 99.564 85.837C99.4366 85.1756 99.3091 84.5317 99.1797 83.9002C99.0504 83.2687 98.921 82.6372 98.7951 82.0163C98.6692 81.3953 98.5399 80.7638 98.4088 80.127C98.755 79.7508 99.1655 79.4824 99.6422 79.3273C100.066 79.1894 100.461 79.1606 100.828 79.246C101.196 79.3314 101.449 79.5886 101.591 80.0229C101.672 80.2719 101.762 80.6407 101.859 81.1187C101.956 81.5967 102.056 82.1382 102.158 82.7378C102.259 83.3374 102.353 83.9687 102.442 84.6369C102.531 85.3051 102.609 85.9416 102.668 86.555C102.727 87.1684 102.767 87.7235 102.786 88.2327C102.804 88.7366 102.799 89.1364 102.764 89.4233C102.646 89.6373 102.408 89.8611 102.054 90.0875C101.7 90.314 101.315 90.498 100.907 90.6307C100.372 90.8047 99.8942 90.8841 99.4769 90.8618C99.0596 90.8394 98.7664 90.7122 98.6008 90.4733C98.3042 90.066 97.9678 89.5722 97.5896 89.004C97.2151 88.4289 96.8056 87.8007 96.3702 87.1106C96.4526 87.9038 96.5245 88.6829 96.5807 89.4495C96.6422 90.2144 96.6833 90.8629 96.7059 91.4003C96.5881 91.6144 96.3717 91.8312 96.0601 92.0439C95.7486 92.2566 95.3898 92.4319 94.9819 92.5646C94.4682 92.7318 93.9796 92.8146 93.5147 92.8078C93.0497 92.8009 92.7141 92.6875 92.5008 92.4641C92.3329 92.2903 92.1235 92.0245 91.8689 91.6563C91.6144 91.2881 91.3426 90.867 91.0466 90.3893C90.7506 89.9116 90.4408 89.3915 90.1101 88.8255C89.7812 88.2647 89.4665 87.6935 89.1588 87.1259C88.8511 86.5583 88.5627 85.9961 88.2795 85.4498C88.0016 84.9018 87.7604 84.3945 87.5576 83.9333C87.6682 83.7333 87.8459 83.5232 88.0905 83.303C88.3352 83.0828 88.6217 82.9193 88.9554 82.8107C89.3897 82.6694 89.7756 82.6493 90.1166 82.7433C90.4594 82.8426 90.7359 83.0982 90.9495 83.5208C91.5088 84.6274 91.9778 85.5467 92.353 86.2857C92.7282 87.0246 93.0303 87.6292 93.2665 88.103C93.5027 88.5767 93.6815 88.9461 93.8064 89.2042C93.9278 89.4693 94.0356 89.6744 94.1191 89.8229L94.2038 89.7954C94.1562 89.3071 94.119 88.8506 94.0832 88.4347C94.0474 88.0187 94.0152 87.5957 93.9813 87.1675C93.9474 86.7392 93.9118 86.288 93.8713 85.8033C93.8254 85.3204 93.7677 84.7651 93.6894 84.1463L93.7035 84.1358Z" fill="#F2F3C9"/>
<path d="M133.633 126.266C147.584 98.8557 136.673 65.3261 109.263 51.3751C81.8533 37.4242 48.3237 48.3349 34.3727 75.7448C20.4218 103.155 31.3325 136.684 58.7425 150.635C86.1524 164.586 119.682 153.676 133.633 126.266Z" stroke="#663734" stroke-width="2.87969" stroke-miterlimit="10"/>
<path d="M128.804 123.808C141.397 99.0655 131.548 68.7989 106.806 56.2057C82.0633 43.6124 51.7967 53.4613 39.2035 78.2037C26.6102 102.946 36.4591 133.213 61.2015 145.806C85.944 158.399 116.211 148.55 128.804 123.808Z" stroke="#663734" stroke-width="1.81582" stroke-miterlimit="10"/>
<path d="M87.4807 119.641C88.058 119.453 88.5309 119.089 88.8618 118.63C89.0436 118.09 89.0638 117.486 88.8742 116.903L86.5112 109.642C86.0407 108.196 84.4892 107.406 83.0432 107.877C82.4606 108.066 81.9841 108.438 81.6549 108.902C81.4785 109.44 81.4619 110.037 81.6497 110.615L84.0127 117.876C84.4832 119.322 86.0347 120.112 87.4807 119.641Z" fill="#663734"/>
<path d="M82.2473 121.344C82.8246 121.157 83.2975 120.792 83.6284 120.333C83.8102 119.793 83.8304 119.189 83.6408 118.607L81.2778 111.345C80.8073 109.899 79.2558 109.109 77.8098 109.58C77.2272 109.769 76.7507 110.141 76.4215 110.606C76.2451 111.143 76.2285 111.74 76.4163 112.318L78.7793 119.579C79.2498 121.025 80.8013 121.815 82.2473 121.344Z" fill="#663734"/>
<path d="M92.7134 117.937C93.0736 117.82 93.392 117.629 93.6614 117.395L93.6149 117.252L91.3463 116.742C89.4647 116.306 88.2909 114.427 88.7271 112.545C89.0033 111.36 89.8928 110.385 91.0527 110.008C91.4765 109.87 91.9225 109.819 92.3714 109.848L91.7475 107.931C91.277 106.485 89.7255 105.695 88.2796 106.166C87.6969 106.355 87.2204 106.727 86.8912 107.191C86.7148 107.729 86.6982 108.326 86.886 108.904L89.249 116.165C89.7196 117.611 91.271 118.401 92.717 117.93L92.7134 117.937Z" fill="#663734"/>
<path d="M96.3121 106.12C95.8967 104.844 94.5207 104.143 93.2442 104.559C92.7464 104.721 92.332 105.031 92.0438 105.424C91.9013 105.886 91.8924 106.399 92.0544 106.897L93.0523 109.963L97.9184 111.057L96.3121 106.12Z" fill="#663734"/>
<path d="M98.0883 111.758L92.7738 110.565C91.2403 110.209 89.7169 111.161 89.3607 112.695C89.0045 114.228 89.9571 115.751 91.4905 116.108L94.1179 116.694L94.4644 117.758L91.5618 118.703C90.8559 118.64 90.1886 118.353 89.6529 117.895C89.6383 118.21 89.5885 118.525 89.4841 118.834L89.4553 118.926L89.3984 119.003C89.2454 119.216 89.0714 119.402 88.88 119.57L86.327 120.4C85.6211 120.337 84.9538 120.051 84.4181 119.592C84.4035 119.907 84.3537 120.222 84.2493 120.532L84.2205 120.623L84.1636 120.7C84.0106 120.914 83.8366 121.099 83.6452 121.267L81.0922 122.098C79.7879 121.978 78.6157 121.111 78.1706 119.798L76.8782 116.042L62.2595 120.799C60.5593 121.352 59.4477 123.085 59.8334 124.828C60.2788 126.826 62.3315 127.968 64.233 127.35L79.0582 122.525L79.2754 123.193C79.6081 124.215 80.1385 125.161 80.8408 125.97L83.2726 128.781C84.9061 130.668 86.1463 132.859 86.9184 135.232L88.954 141.488C90.057 144.877 93.7005 146.732 97.0903 145.629C100.48 144.526 102.335 140.882 101.232 137.492L99.2598 131.433C98.4652 128.991 98.5864 126.34 99.5915 123.974L100.532 121.77C101.141 119.159 101.028 116.437 100.21 113.885L100.191 113.827C99.9443 112.818 99.1612 111.977 98.0779 111.727L98.0883 111.758Z" fill="#663734"/>
<path d="M117.223 108.658L115.041 101.952C114.763 101.1 113.731 100.663 112.735 100.987L111.681 101.33L111.379 100.403L112.206 100.134C113.196 99.8115 113.784 98.8469 113.507 97.9942L111.697 92.4327C111.419 91.5799 110.382 91.1445 109.391 91.4668L101.282 94.1055C100.291 94.4278 99.7016 95.3871 99.9791 96.2399L101.789 101.801C102.066 102.654 103.104 103.09 104.095 102.767L105.376 102.35L105.678 103.277L104.624 103.62C103.634 103.942 103.045 104.907 103.323 105.76L103.843 107.359C103.678 107.372 103.51 107.397 103.346 107.451L98.06 109.171L98.7218 111.205C99.8004 111.621 100.608 112.536 100.894 113.685C101.068 114.22 101.198 114.763 101.312 115.312L105.459 113.962C105.623 113.909 105.773 113.83 105.915 113.743L106.425 115.311C106.703 116.164 107.741 116.599 108.731 116.277L113.805 114.626C115.17 121.105 113.476 123.461 113.476 123.461C122.57 120.501 117.221 108.653 117.221 108.653L117.223 108.658Z" fill="#663734"/>
</g>
<defs>
<clipPath id="clip0_1859_5067">
<rect width="30" height="30" fill="white" transform="translate(305 205)"/>
</clipPath>
<clipPath id="clip1_1859_5067">
<rect width="77.5336" height="127.995" fill="white" transform="translate(245 55.1055) rotate(-9.73079)"/>
</clipPath>
<clipPath id="clip2_1859_5067">
<rect width="124.094" height="107.897" fill="white" transform="translate(139.987 61) rotate(5.31107)"/>
</clipPath>
<clipPath id="clip3_1859_5067">
<rect width="114.263" height="114.263" fill="white" transform="translate(12 64.3574) rotate(-18.0251)"/>
</clipPath>
</defs>
</svg>
