<svg width="110" height="113" viewBox="0 0 110 113" fill="none" xmlns="http://www.w3.org/2000/svg">
<g clip-path="url(#clip0_2016_8935)">
<path d="M12.0005 25.0246C20.6885 17.0154 35.1742 3.82461 42.8988 2.21138C50.6234 0.603855 86.9945 15.083 94.7191 22.8071C102.444 30.5312 102.763 34.3904 105.02 41.1511C107.272 47.9119 107.916 52.4152 109.205 56.9186C110.493 61.4219 99.5477 75.9068 97.6208 79.7717C95.6882 83.6309 95.6882 85.8883 93.1172 88.1399C90.5404 90.3916 68.655 92.3241 62.2188 94.2565C55.7826 96.189 56.4268 95.5448 52.5617 95.5448C48.6965 95.5448 44.8371 92.649 40.6527 92.649C36.4683 92.649 25.3289 96.3087 20.1127 93.4756C15.5178 90.9731 16.1905 83.3174 12.0062 79.7774C7.82176 76.2374 7.17757 75.5933 5.245 69.1575C3.31243 62.7216 5.88919 38.261 7.82176 33.4327C9.75433 28.6045 12.0062 25.0303 12.0062 25.0303L12.0005 25.0246Z" fill="#FFBA0A"/>
<path d="M106.309 55.4428C105.835 53.7839 105.448 52.108 105.032 50.3352C104.33 47.3253 103.538 43.9165 102.113 39.6354C101.794 38.6777 101.514 37.7828 101.246 36.922C99.5816 31.5864 98.3787 27.7272 91.6062 20.955C83.7391 13.0884 46.872 -1.51612 39.0049 0.125609C30.8356 1.83004 15.7855 15.6992 7.70178 23.1497L7.61627 23.2238L7.55356 23.3207C7.46235 23.4689 5.23904 27.0203 3.30076 31.8657C1.22567 37.0588 -1.24277 61.6848 0.701199 68.1548C2.69078 74.7787 3.45469 75.5653 7.72459 79.1794C9.51464 80.6957 10.3755 83.1811 11.2078 85.581C12.2111 88.4883 13.2544 91.4981 15.9736 92.9745C19.8445 95.078 26.3662 93.9208 31.6052 92.9859C33.0133 92.7351 34.3017 92.5071 35.3621 92.376C36.2856 98.6693 36.9697 104.997 36.6334 105.704C36.126 106.547 33.3155 106.787 31.457 106.376C30.7729 106.228 29.781 105.875 28.6351 105.464C26.1895 104.592 23.1453 103.515 20.6825 103.515C19.3599 103.515 18.2312 104.17 17.5129 105.362C16.4069 107.186 16.4126 110.013 17.5243 112.236C17.758 112.704 18.2084 112.994 18.6986 112.994H40.9261C41.5474 112.994 42.0491 112.453 42.0491 111.786V93.4077C42.3114 93.5047 42.5679 93.5959 42.8301 93.6928C44.7798 94.411 46.7979 95.1521 48.8388 95.1521C49.7053 95.1521 50.3324 95.1863 50.8854 95.2148C51.3186 95.2376 51.7006 95.2547 52.0825 95.2547C53.4108 95.2547 54.7847 95.0153 58.7411 93.8296C58.781 93.8182 58.8266 93.8068 58.8665 93.7954V111.797C58.8665 112.459 59.3682 113 59.9895 113H82.217C82.7072 113 83.1576 112.709 83.3913 112.242C84.503 110.03 84.5087 107.214 83.4027 105.401C82.6787 104.216 81.5557 103.566 80.2331 103.566C77.7703 103.566 74.7261 104.643 72.2805 105.51C71.1346 105.915 70.1427 106.268 69.4586 106.416C67.6001 106.821 64.7839 106.587 64.2822 105.755C63.9402 105.042 64.63 98.7206 65.5535 92.4501C65.8044 92.4102 66.0666 92.3703 66.3231 92.3247C66.8077 92.2449 67.3037 92.1708 67.811 92.091C69.2476 91.8686 70.7413 91.6406 72.2691 91.4126C82.2227 89.9248 88.3795 88.9215 89.9473 87.542C91.8114 85.9117 92.4328 84.2984 93.2195 82.2577C93.5958 81.2829 94.0233 80.177 94.6561 78.9115C95.1578 77.9139 96.3436 76.0841 97.7175 73.9635C102.985 65.8347 107.266 58.8345 106.303 55.4428H106.309ZM64.6642 92.5926C64.0029 97.1016 62.9255 105.162 63.5468 106.188C64.4362 107.665 68.0106 107.608 69.6353 107.254C70.3707 107.095 71.3854 106.735 72.5598 106.319C74.9427 105.476 77.9129 104.427 80.2331 104.427C81.5329 104.427 82.2797 105.202 82.6787 105.852C83.6365 107.425 83.6194 109.893 82.6331 111.854C82.5476 112.031 82.388 112.139 82.2227 112.139H59.9952C59.8527 112.139 59.7273 111.986 59.7273 111.797V91.8059C59.4252 91.8743 59.1401 91.9484 58.8722 92.0168C58.6556 92.0738 58.4446 92.1309 58.2565 92.1879C53.4393 93.6301 52.7723 93.5959 50.9823 93.5047C50.435 93.4762 49.7566 93.4419 48.8445 93.4419C47.1057 93.4419 45.3157 92.7864 43.423 92.091C42.9726 91.9256 42.5166 91.7603 42.0548 91.6007C41.7698 91.5038 41.4847 91.4069 41.1997 91.3157V111.797C41.1997 111.986 41.08 112.139 40.9318 112.139H18.7043C18.539 112.139 18.3794 112.031 18.2939 111.854C17.3076 109.882 17.2905 107.402 18.2483 105.823C18.6473 105.168 19.3941 104.387 20.6939 104.387C23.0084 104.387 25.9786 105.441 28.3615 106.291C29.5359 106.707 30.5506 107.066 31.286 107.231C32.9164 107.585 36.4908 107.642 37.3745 106.16C38.0015 105.105 36.8842 96.7824 36.2286 92.2962C36.1317 91.6349 36.0462 91.0592 35.9721 90.6031C35.7041 90.6259 35.4191 90.6544 35.1226 90.6943C34.0224 90.8311 32.7283 91.0649 31.3202 91.3157C30.2371 91.5095 29.0627 91.7147 27.8598 91.9028C30.6418 90.6772 33.6746 88.9728 36.9469 87.1316C41.1028 84.7887 45.6919 82.2121 50.6231 80.1713C50.9709 80.4848 51.3186 80.7927 51.6664 81.1062C55.9705 84.9654 60.3601 88.9101 64.8409 91.5152C64.7896 91.8458 64.7383 92.2107 64.6813 92.604L64.6642 92.5926ZM96.2865 73.0286C94.8271 75.2803 93.6699 77.0589 93.1283 78.1419C92.4613 79.4816 92.0166 80.6273 91.629 81.6363C90.8993 83.5289 90.3748 84.8913 88.8242 86.248C87.513 87.3938 78.9219 88.6764 72.0182 89.7139C69.8633 90.0388 67.754 90.3523 65.8215 90.6658C65.6276 90.6943 65.4452 90.7285 65.2514 90.757C60.8447 88.1918 56.4893 84.287 52.2193 80.4563C51.9742 80.2397 51.7291 80.0174 51.4839 79.8008C58.0684 77.1843 65.2571 75.5825 72.8677 76.808C84.4346 78.6778 87.2622 74.4595 87.9235 71.7803C89.1491 66.781 84.731 59.7979 79.167 57.9453C74.9769 56.5487 67.0642 57.0104 57.0992 58.9485C45.0306 52.7351 35.1511 48.2773 27.0617 51.709C22.7975 53.516 20.2036 57.0332 20.6141 60.4535C20.9619 63.3835 23.4702 65.7093 27.6375 67.1002C22.9286 68.7248 18.1343 70.5148 13.3456 72.4643L13.6648 73.2567C18.8012 71.1703 23.9776 69.2493 29.0627 67.5277C29.5815 67.351 30.0945 67.1857 30.6076 67.009C52.111 59.872 71.6648 56.3491 78.8934 58.7604C83.9899 60.4592 88.2028 67.0489 87.0912 71.5807C86.0764 75.7136 81.0768 77.2698 73.0045 75.9701C65.0462 74.6875 57.5781 76.409 50.7713 79.168C50.4749 79.2877 50.1842 79.4074 49.8934 79.5329C45.0705 81.5679 40.5897 84.0932 36.5136 86.3848C31.9074 88.9785 27.7857 91.2929 24.2284 92.3418C21.3495 92.5812 18.6131 92.4729 16.7946 91.4867C14.6568 90.3238 13.7674 87.7529 12.8268 85.0338C11.9204 82.4116 10.9854 79.7039 8.83624 77.8854C4.85708 74.5165 4.2414 73.9977 2.34303 67.6702C0.524474 61.6049 2.93021 37.4179 4.89129 32.5099C6.59583 28.2402 8.58541 24.9283 8.94456 24.3354C16.3784 17.4835 31.6794 3.40337 39.3583 1.80154C46.7181 0.26812 82.9638 14.7359 90.3976 22.1692C96.8737 28.645 98.0253 32.3331 99.6158 37.435C99.8838 38.3015 100.169 39.2136 100.494 40.177C101.896 44.3839 102.677 47.7529 103.373 50.7228C103.789 52.5184 104.182 54.2115 104.667 55.9102C105.499 58.8288 99.7355 67.7158 96.2923 73.0286H96.2865ZM21.5034 58.9542C21.6745 57.8427 22.1989 56.7368 23.0084 55.7278C24.0289 55.591 29.5131 55.0038 33.5663 57.4094L34.0053 56.6741C30.4309 54.5535 25.9843 54.6048 23.8864 54.7758C24.8384 53.8694 26.0299 53.0828 27.3981 52.5013C34.9345 49.3034 44.3237 53.3735 55.7538 59.2222C47.7898 60.8468 38.6058 63.3721 29.0171 66.627C24.5192 65.3957 21.8056 63.184 21.4692 60.3509C21.4464 60.1741 21.435 59.9917 21.435 59.8093C25.8018 59.9404 30.6703 61.9983 30.7216 62.0211L31.058 61.2344C30.847 61.1432 26.0185 59.1025 21.5034 58.9542Z" fill="black"/>
<path d="M56.6944 48.8711C57.1789 48.8711 57.5951 49.2416 57.6236 49.7319C57.8915 53.8647 60.0749 57.2108 62.6232 57.2108C65.1715 57.2108 67.3549 53.8647 67.6228 49.7319C67.657 49.2473 68.0675 48.8711 68.552 48.8711C69.0993 48.8711 69.5212 49.3385 69.487 49.8858C69.1563 55.1188 66.2546 59.0863 62.6175 59.0863C58.9804 59.0863 56.0844 55.1188 55.748 49.8858C55.7138 49.3385 56.1357 48.8711 56.683 48.8711H56.6944Z" fill="black"/>
<path d="M59.6415 36.6146C61.8737 36.6146 63.6833 33.8021 63.6833 30.3327C63.6833 26.8633 61.8737 24.0508 59.6415 24.0508C57.4092 24.0508 55.5996 26.8633 55.5996 30.3327C55.5996 33.8021 57.4092 36.6146 59.6415 36.6146Z" fill="black"/>
<path d="M81.544 28.0471C80.5521 27.1237 77.9126 25.157 74.5035 26.5593C71.2598 27.8875 70.3648 30.3786 70.1196 31.5928C70.0512 31.9177 70.2393 32.2256 70.5016 32.294C70.5187 32.294 70.5358 32.3054 70.5529 32.3111C70.5643 32.3111 70.5757 32.3225 70.5871 32.3225C70.6042 32.3225 70.6213 32.3168 70.6441 32.3111C70.6783 32.3111 70.7125 32.3054 70.7467 32.294C70.7524 32.294 70.7638 32.2883 70.7695 32.2826C70.8493 32.2541 70.9234 32.2085 70.9804 32.1344C71.3852 31.6384 72.3714 30.7662 74.418 30.5952C76.533 30.4185 77.7188 31.5814 78.2034 32.2085C78.363 32.4194 78.6252 32.465 78.8247 32.3168H78.8361C79.0984 32.1173 79.1497 31.6897 78.9388 31.4161C78.3174 30.6009 76.8637 29.1986 74.3496 29.4038C73.2779 29.4951 72.4512 29.7687 71.8071 30.0993C72.3486 29.2385 73.2722 28.3151 74.8342 27.6709C77.8043 26.451 80.1074 28.1896 80.9397 28.9706C81.1393 29.1587 81.4243 29.1359 81.601 28.9193C81.812 28.6628 81.7835 28.2524 81.5497 28.03L81.544 28.0471Z" fill="black"/>
</g>
<defs>
<clipPath id="clip0_2016_8935">
<rect width="109.307" height="113" fill="white"/>
</clipPath>
</defs>
</svg>
