<?xml version="1.0" encoding="UTF-8"?>
<svg id="Layer_2" data-name="Layer 2" xmlns="http://www.w3.org/2000/svg" viewBox="0 0 137.73 47.75">
  <defs>
    <style>
      .cls-1, .cls-2 {
        opacity: .27;
      }

      .cls-3 {
        opacity: .3;
      }

      .cls-3, .cls-2 {
        fill: #fff;
      }

      .cls-4 {
        fill: #e06500;
      }

      .cls-5 {
        fill: #0c0500;
      }

      .cls-6 {
        fill: #8e460a;
      }
    </style>
  </defs>
  <g id="Layer_1-2" data-name="Layer 1">
    <g>
      <g>
        <path class="cls-1" d="M131.99,33.17s-.06.05-.09.08c.03-.03.06-.05.09-.08Z"/>
        <path class="cls-1" d="M52.01,37.37c-.79.67-1.56,1.27-2.3,1.74-6.33,4-14.21,4.66-21,1.49-5.19-2.42-10.38-4.85-15.56-7.27-.15-.08-.28-.15-.43-.23.14,1.41.28,2.54.43,3.24,0,0-.03-.02-.08-.04.03.02.05.03.08.04,5.19,2.42,10.38,4.85,15.56,7.27,6.79,3.17,14.67,2.51,21-1.49,1.09-.69,2.25-1.67,3.47-2.76l-1.17-1.98s0-.01-.01-.02Z"/>
        <path class="cls-1" d="M131.58,33.49c-.06.04-.11.08-.17.12.06-.04.11-.08.17-.12Z"/>
        <path class="cls-1" d="M126.3,33.33c-5.49,2.48-10.98,4.95-16.47,7.43-6.7,3.02-14.52,2.55-20.68-1.45-.74-.48-1.54-1.11-2.41-1.83l-1.15,1.95c-1.49-1.29-3.1-2.57-5.19-4.33-2.49-1.99-4-2.75-5.64-3.69l1.73-1.82c-2.25-1.26-4.63-2.14-7.09-2.21-2.67-.07-5.1.73-7.34,1.96.09.08.18.15.25.24l1.74,1.83s-.07.04-.11.06c1.71-.7,3.52-1.13,5.47-1.08,7.98.21,15.17,8.96,19.75,11.93,6.17,4,13.98,4.47,20.68,1.45,5.49-2.48,10.98-4.95,16.47-7.43h0c.14-.69.29-1.82.43-3.23-.14.07-.28.14-.43.21Z"/>
        <path class="cls-1" d="M133.61,29.04c-.03.35-.04.69-.06,1.04.04-.32.06-.66.06-1.04Z"/>
        <path class="cls-1" d="M5.85,29.04c0,.37.02.7.05,1.02-.02-.34-.03-.68-.05-1.02h0Z"/>
        <path class="cls-1" d="M7.88,33.43c.4.29.88.58,1.43.88-.37-.22-.76-.45-1.14-.69-.1-.06-.19-.13-.29-.19Z"/>
        <path class="cls-2" d="M6.33,4.72c.04-.1.08-.21.12-.31-.04.1-.08.21-.12.31Z"/>
        <path class="cls-2" d="M16.34.01h106.78c3.19,0,5.67-.32,8.21,2.01.13.12.24.23.35.35C130.34.92,128.43,0,126.3,0H13.15C11.03,0,9.12.92,7.78,2.38c.11-.12.23-.24.36-.36C10.67-.3,13.15.01,16.34.01Z"/>
        <path class="cls-2" d="M133,4.41c.04.1.08.2.12.31-.04-.1-.08-.21-.12-.31Z"/>
        <path class="cls-2" d="M131.86,2.58c.04.05.09.1.13.15-.04-.05-.09-.1-.13-.15Z"/>
        <path class="cls-2" d="M7.47,2.74c.04-.05.09-.11.13-.16-.05.05-.09.11-.13.16Z"/>
        <path class="cls-1" d="M28.72,40.6c6.79,3.17,14.67,2.51,21-1.49.74-.47,1.5-1.07,2.3-1.74-.81-1.09-.17-2.97,1.42-4.18l4.47-3.38c1.47-1.11,3.25-1.28,4.18-.47,2.23-1.23,4.66-2.03,7.34-1.96,2.46.07,4.83.94,7.09,2.21h0c.83-1.1,2.82-.99,4.42.22l4.47,3.38c1.61,1.22,2.24,3.11,1.41,4.2l-.05.09c.86.72,1.67,1.35,2.41,1.83,6.17,4,13.98,4.47,20.68,1.45,5.49-2.48,10.98-4.95,16.47-7.43.15-.07.28-.14.43-.21.7-7.2,1.2-21.84.46-24.21-.89-2.83-2.83-5.14-7.79-4.96-4.96.18-30.29-.73-34.19,0-3.9.72-4.07,3.9-6.38,3.99-2.3.09-9.11,0-9.11,0,0,0-6.8.09-9.11,0s-2.48-3.28-6.38-3.99c-3.9-.72-29.23.19-34.19,0-4.96-.18-6.91,2.13-7.79,4.96-.74,2.37-.24,16.99.46,24.19.14.08.28.15.43.23,5.19,2.42,10.38,4.85,15.56,7.27ZM15.75,12.28c0-.08.02-.16.05-.23.2-.78,1.19-3.32,5.43-3.64.29-.02.51.27.39.53-.22.49-.43,1.43-.44,3.17,0,.02-.02.04-.02.06,0,.04.02.07.02.11v4.3c0,.31-.26.57-.57.57h-4.3c-.31,0-.57-.26-.57-.57v-4.3ZM15.75,19.51c0-.31.26-.57.57-.57h4.3c.31,0,.57.26.57.57v4.3c0,.31-.26.57-.57.57h-4.3c-.31,0-.57-.26-.57-.57v-4.3Z"/>
        <path class="cls-2" d="M28.72,40.6c6.79,3.17,14.67,2.51,21-1.49.74-.47,1.5-1.07,2.3-1.74-.81-1.09-.17-2.97,1.42-4.18l4.47-3.38c1.47-1.11,3.25-1.28,4.18-.47,2.23-1.23,4.66-2.03,7.34-1.96,2.46.07,4.83.94,7.09,2.21h0c.83-1.1,2.82-.99,4.42.22l4.47,3.38c1.61,1.22,2.24,3.11,1.41,4.2l-.05.09c.86.72,1.67,1.35,2.41,1.83,6.17,4,13.98,4.47,20.68,1.45,5.49-2.48,10.98-4.95,16.47-7.43.15-.07.28-.14.43-.21.7-7.2,1.2-21.84.46-24.21-.89-2.83-2.83-5.14-7.79-4.96-4.96.18-30.29-.73-34.19,0-3.9.72-4.07,3.9-6.38,3.99-2.3.09-9.11,0-9.11,0,0,0-6.8.09-9.11,0s-2.48-3.28-6.38-3.99c-3.9-.72-29.23.19-34.19,0-4.96-.18-6.91,2.13-7.79,4.96-.74,2.37-.24,16.99.46,24.19.14.08.28.15.43.23,5.19,2.42,10.38,4.85,15.56,7.27ZM15.75,12.28c0-.08.02-.16.05-.23.2-.78,1.19-3.32,5.43-3.64.29-.02.51.27.39.53-.22.49-.43,1.43-.44,3.17,0,.02-.02.04-.02.06,0,.04.02.07.02.11v4.3c0,.31-.26.57-.57.57h-4.3c-.31,0-.57-.26-.57-.57v-4.3ZM15.75,19.51c0-.31.26-.57.57-.57h4.3c.31,0,.57.26.57.57v4.3c0,.31-.26.57-.57.57h-4.3c-.31,0-.57-.26-.57-.57v-4.3Z"/>
        <path class="cls-6" d="M134.8,4.98l-1.63-.16c.54,1.56.44,2.99.44,3.61,0,.48.03,4.93.04,9.58l1.11-.11c1.62,0,2.95-1.64,2.95-3.65l.02-5.6c0-2.01-1.31-3.67-2.93-3.67Z"/>
        <path class="cls-6" d="M6.29,4.82l-1.63.16c-1.62,0-2.94,1.66-2.93,3.67l.02,5.6c0,2.01,1.34,3.66,2.95,3.65l1.11.11c.02-4.65.04-9.11.04-9.58,0-.62-.1-2.05.44-3.61Z"/>
        <path class="cls-4" d="M133.16,4.82s-.03-.07-.04-.11c-.04-.1-.08-.2-.12-.31-.24-.56-.57-1.13-1.02-1.67-.04-.05-.08-.1-.13-.15-.06-.07-.12-.13-.18-.2-.11-.12-.23-.24-.35-.35C128.78-.3,126.31.01,123.12.01H16.34C13.15.01,10.67-.3,8.13,2.03c-.13.12-.24.24-.36.36-.06.07-.12.13-.18.2-.05.05-.09.11-.13.16-.45.54-.78,1.11-1.01,1.67-.04.1-.08.21-.12.31-.01.03-.03.07-.04.1-.54,1.56-.44,2.99-.44,3.61,0,.48-.03,4.93-.04,9.58-.02,5.01-.02,10.25.04,11.02.03.34.03.68.05,1.02.07,1.11.31,2.23,1.97,3.38.09.06.18.13.29.19.38.24.77.47,1.14.69,1.82,1.06,3.4,1.81,3.76,1.98.05.02.08.04.08.04-.15-.69-.29-1.83-.43-3.24-.7-7.21-1.2-21.82-.46-24.19.89-2.83,2.83-5.14,7.79-4.96,4.96.18,30.29-.73,34.19,0,3.9.72,4.07,3.9,6.38,3.99s9.11,0,9.11,0c0,0,6.8.09,9.11,0,2.3-.09,2.48-3.28,6.38-3.99,3.9-.72,29.23.19,34.19,0,4.96-.18,6.91,2.13,7.79,4.96.74,2.37.24,17-.46,24.21-.14,1.41-.28,2.54-.43,3.23h0s2.94-1.23,5.02-2.67c.03-.02.06-.04.09-.06.06-.04.11-.08.17-.12.11-.08.22-.16.31-.25.03-.03.06-.05.09-.08,1.26-1.08,1.49-2.09,1.56-3.08.02-.35.03-.69.06-1.04,0,0,0,0,0,0,.06-.77.06-6.02.04-11.03-.02-4.66-.04-9.11-.04-9.58,0-.62.1-2.05-.44-3.61Z"/>
        <path class="cls-6" d="M62.32,29.58c-.07-.09-.16-.17-.25-.24-.93-.81-2.71-.65-4.18.47l-4.47,3.38c-1.6,1.21-2.23,3.08-1.42,4.18,0,0,0,.01.01.02l1.17,1.98.04.06c1.49-1.29,3.1-2.57,5.19-4.33,2.44-1.95,3.93-2.71,5.53-3.63.04-.02.07-.04.11-.06l-1.74-1.83Z"/>
        <path class="cls-6" d="M85.39,33.19l-4.47-3.38c-1.61-1.22-3.6-1.32-4.42-.23h0s-1.73,1.83-1.73,1.83c1.64.94,3.15,1.7,5.64,3.69,2.09,1.76,3.7,3.04,5.19,4.33l1.15-1.95.05-.09c.83-1.09.19-2.98-1.41-4.2Z"/>
        <rect class="cls-1" x="15.75" y="18.95" width="5.43" height="5.43" rx=".57" ry=".57"/>
        <rect class="cls-2" x="15.75" y="18.95" width="5.43" height="5.43" rx=".57" ry=".57"/>
        <rect class="cls-3" x="15.75" y="18.95" width="5.43" height="5.43" rx=".57" ry=".57"/>
        <path class="cls-1" d="M16.31,17.15h4.3c.31,0,.57-.26.57-.57v-4.3s-.01-.07-.02-.11c0-.02.02-.03.02-.06.01-1.75.22-2.68.44-3.17.12-.26-.1-.55-.39-.53-4.25.32-5.23,2.87-5.43,3.64-.03.07-.05.15-.05.23v4.3c0,.31.26.57.57.57Z"/>
        <path class="cls-2" d="M16.31,17.15h4.3c.31,0,.57-.26.57-.57v-4.3s-.01-.07-.02-.11c0-.02.02-.03.02-.06.01-1.75.22-2.68.44-3.17.12-.26-.1-.55-.39-.53-4.25.32-5.23,2.87-5.43,3.64-.03.07-.05.15-.05.23v4.3c0,.31.26.57.57.57Z"/>
        <path class="cls-3" d="M16.31,17.15h4.3c.31,0,.57-.26.57-.57v-4.3s-.01-.07-.02-.11c0-.02.02-.03.02-.06.01-1.75.22-2.68.44-3.17.12-.26-.1-.55-.39-.53-4.25.32-5.23,2.87-5.43,3.64-.03.07-.05.15-.05.23v4.3c0,.31.26.57.57.57Z"/>
      </g>
      <path class="cls-5" d="M99.52,47.75c-4.17,0-8.28-1.18-11.86-3.51-1.29-.84-2.74-2.09-4.41-3.53-4.22-3.64-9.48-8.17-15.07-8.32-1.73-.05-3.45.29-5.26,1.04l-.51.29c-1.37.77-2.78,1.57-4.9,3.26-.87.73-1.67,1.39-2.4,1.99-1.01.83-1.91,1.58-2.77,2.32l-.45.39-.04-.06c-1.01.89-2.07,1.76-3.08,2.4-6.58,4.16-14.61,4.73-21.48,1.52l-15.66-7.32c-.43-.2-2.01-.96-3.79-2-.4-.22-.76-.44-1.1-.66-.15-.09-.23-.15-.32-.21-1.93-1.33-2.16-2.65-2.23-3.79-.03-.31-.06-.66-.06-1.05-.05-.61-.06-4.08-.04-10.58l-.65-.06h-.01C1.57,19.91.02,18.05.02,15.76L0,10.16c0-1.09.34-2.12.97-2.9.65-.82,1.53-1.27,2.46-1.27l1.28-.13s.04-.09.06-.14c.27-.64.64-1.24,1.09-1.79l.14-.17c.06-.07.12-.14.19-.21.12-.13.25-.26.38-.38,1.5-1.4,3.39-2.16,5.36-2.16h113.15c1.97,0,3.86.75,5.32,2.13.17.15.29.28.42.41l.3.33c.49.6.86,1.2,1.13,1.84.02.05.04.09.06.14l1.3.13c1.89.02,3.41,1.89,3.41,4.17l-.02,5.6c0,1.09-.35,2.12-.98,2.9-.65.81-1.53,1.25-2.46,1.25h0l-.6.06c.02,6.5,0,9.98-.05,10.62,0,.36-.02.72-.06,1.06-.08,1.05-.34,2.21-1.73,3.41l-.1.08c-.1.09-.22.17-.33.26l-.18.13-.38-.34.28.41c-2.1,1.45-4.99,2.66-5.11,2.71l-16.45,7.42c-2.99,1.35-6.16,2.02-9.3,2.02ZM67.86,31.39c.11,0,.22,0,.34,0,5.95.16,11.36,4.82,15.7,8.56,1.65,1.42,3.07,2.64,4.31,3.45,5.99,3.89,13.54,4.42,20.2,1.41l16.47-7.43s2.93-1.24,4.94-2.62l.19-.14c.16-.12.25-.19.35-.27l.41.31-.33-.38c1.17-1,1.33-1.9,1.39-2.74.04-.33.06-.65.06-1,.05-.66.06-4.36.04-11.03v-.46s1.56-.15,1.56-.15c.68,0,1.28-.31,1.74-.89.49-.6.76-1.41.76-2.27l.02-5.6c0-1.74-1.09-3.17-2.43-3.17h-.05s-1.95-.19-1.95-.19l-.1-.3.43-.27-.47.17c-.03-.09-.07-.19-.11-.28-.23-.55-.55-1.08-.94-1.55l-.29-.33c-.1-.11-.21-.22-.33-.33-1.32-1.24-2.97-1.89-4.68-1.89H11.92c-1.72,0-3.36.66-4.64,1.86-.16.15-.27.26-.37.37l-.29.33c-.39.48-.71,1-.94,1.55-.04.1-.08.19-.11.29l-.11.3-.35.13-1.63.16c-.68,0-1.27.32-1.73.9-.48.61-.75,1.42-.75,2.28l.02,5.6c0,1.74,1.1,3.16,2.45,3.16h0l1.61.15v.46c-.02,6.67,0,10.37.04,10.98,0,.4.02.71.05,1.01.06,1,.25,1.97,1.76,3.02.12.08.19.13.27.18.39.25.73.46,1.12.68,1.76,1.03,3.3,1.76,3.73,1.97l.11.06,15.54,7.26c6.56,3.06,14.23,2.52,20.52-1.46,1.11-.7,2.29-1.72,3.41-2.71l.45-.41.04.07c.73-.62,1.5-1.25,2.34-1.95.73-.61,1.53-1.26,2.4-2,2.19-1.75,3.64-2.57,5.04-3.36l.57-.32c1.88-.78,3.63-1.15,5.39-1.15Z"/>
    </g>
  </g>
</svg>