<?xml version="1.0" encoding="UTF-8"?>
<svg id="Layer_2" data-name="Layer 2" xmlns="http://www.w3.org/2000/svg" viewBox="0 0 277.07 244.03">
  <defs>
    <style>
      .cls-1 {
        fill: #ffba0a;
      }
    </style>
  </defs>
  <g id="Layer_1-2" data-name="Layer 1">
    <g>
      <g>
        <path class="cls-1" d="M94.91,37.11c8.85-11.49,16.81-20.26,24.76-23.1C128.09,11,152.66.01,168.63,3.01c17.97,3.38,41.07,19.06,49.5,29.08,8.43,10.03,12.48,33.94,19.54,42.91,9.48,12.04-.34,32.66,12.05,50.36,10.53,15.04,14.74,36.11,9.48,51.15s-16.85,26.08-32.65,33.1c-15.8,7.02-33.7,1-50.55,6.02-13.07,3.89-55.82,11.03-78.99,4.01-23.17-7.02-58.98-19.06-64.24-38.11-5.27-19.06-3.11-46.52,4.89-58.52,10.05-15.08,8.43-39.45,17-50,13-16,34.45-28.38,40.24-35.9Z"/>
        <path d="M276.67,90.93c-1.41-8.66-6.69-13.79-11.66-17.66-4.76-3.71-16.1-8.83-26.26-6.8-5.37,1.07-9.36,3.27-11.95,6.54-3.16-4.05-5.74-11.39-8.48-19.15-3.16-8.96-6.42-18.22-11.04-23.73-8.38-9.98-31.6-26.07-50.37-29.59-14.14-2.66-34.43,5.18-45.34,9.39-1.74.67-3.23,1.25-4.41,1.67-8.81,3.15-17.44,13.2-25.44,23.6-2.3,2.98-7.44,6.97-13.4,11.59-8.52,6.6-19.13,14.82-26.82,24.28-4.43,5.45-6.23,14.16-8.13,23.37-1.96,9.48-3.98,19.29-8.95,26.74-3.39,5.09-5.78,12.92-7.02,21.74C1.24,154.07.58,163.43.24,168.3c-.04.58-.07,1.08-.13,1.52-.38,3.04.17,8.02,2.87,12.89,3.51,6.34,9.6,10.81,18.09,13.28,4.41,1.28,8.52,2.01,12.39,2.32,13.21,9.35,33.16,16.33,51.12,21.77,7.25,2.2,16.34,3.04,25.85,3.04.39,0,.78,0,1.18,0,.46,4.44.63,7.64.32,8.27-.89,1.46-5.82,1.87-9.08,1.16-1.2-.26-2.93-.87-4.95-1.58-4.29-1.51-9.63-3.38-13.95-3.38-2.32,0-4.3,1.14-5.56,3.2-1.94,3.16-1.93,8.06.02,11.91.41.81,1.2,1.32,2.06,1.32h38.99c1.09,0,1.97-.94,1.97-2.09v-19.15c10.63-.63,21.11-2.07,29.5-3.62v22.78c0,1.15.88,2.09,1.97,2.09h38.99c.86,0,1.65-.5,2.06-1.32,1.95-3.85,1.96-8.75.02-11.91-1.27-2.06-3.24-3.2-5.56-3.2-4.32,0-9.66,1.87-13.95,3.38-2.01.71-3.75,1.32-4.95,1.58-3.27.71-8.2.3-9.08-1.15-.44-.91.09-7.03,1.04-14.51,1.1-.28,2.1-.55,2.98-.82,7.51-2.24,15.43-2.22,23.1-2.2,9.23.02,18.78.05,27.63-3.89,16.71-7.42,28.27-19.17,33.45-33.97,3.53-10.07,2.94-22.95-1.04-35.07,1.63-.5,3.45-1.15,5.53-2.06,9.98-4.37,15.06-9.1,19.39-18.11,3.47-7.2,5.49-21.7,4.17-29.84ZM271.35,120.22c-4.18,8.69-9.09,13.27-18.75,17.49-2.04.89-3.83,1.54-5.41,2.02-1.07.33-2.03.57-2.9.76.14.4.26.81.4,1.22,3.84,11.54,4.43,23.78,1.1,33.31-4.97,14.2-15.68,25.04-31.84,32.22-8.26,3.67-17.08,3.64-26.41,3.63-7.88-.02-16.03-.04-23.96,2.32-.52.15-1.09.31-1.7.48-.5.13-1.02.27-1.58.41-.14,1.05-.28,2.12-.42,3.2-.85,6.76-1.49,13.67-.75,14.89,1.55,2.57,7.82,2.47,10.68,1.85,1.29-.28,3.07-.9,5.13-1.63,4.18-1.47,9.39-3.3,13.45-3.3,2.28,0,3.59,1.35,4.29,2.49,1.68,2.74,1.65,7.04-.08,10.45-.15.3-.43.49-.72.49h-38.99c-.25,0-.47-.27-.47-.59v-26.14c-.49.1-.99.19-1.5.29-8.3,1.54-18.83,2.99-29.5,3.64-.5.03-1,.06-1.5.09v22.12c0,.32-.21.59-.47.59h-38.99c-.29,0-.57-.19-.72-.49-1.73-3.41-1.76-7.71-.08-10.45.7-1.13,2.01-2.49,4.29-2.49,4.06,0,9.27,1.83,13.45,3.3,2.06.72,3.84,1.35,5.13,1.63,2.85.62,9.13.71,10.68-1.85.52-.87.36-4.58-.09-9.07-.1-.98-.21-2-.33-3.04-.51,0-1.02.02-1.52.02-9.57.06-18.7-.71-25.82-2.87-11.06-3.35-31.59-9.58-46.39-18.74,10.51-.24,19.07-3.51,26.59-6.86,6.11-2.72,8.17-6.85,8.55-11.08h.08c-.02-.12-.04-.23-.06-.34.23-3.27-.52-6.58-1.12-9.29-.09-.39-.17-.77-.25-1.14-1.44-6.63-8.69-10.44-19.89-10.44-9.28,0-29.14,3.7-29.34,3.74l.23,1.22c.2-.04,19.95-3.72,29.11-3.72,4.99,0,16.81.92,18.67,9.46.08.37.17.76.26,1.15.43,1.89.9,4,1.07,6.14-4.35-5.91-17.23-5.28-17.86-5.24l.07,1.24c.16,0,16.05-.79,17.8,6.97-.22,2.59-1.11,5.1-3.29,7.23-2.54-8.17-18.23-7.4-18.93-7.36l.07,1.24c.16,0,16.12-.8,17.81,7.03-.96.75-2.11,1.44-3.49,2.05-7.84,3.49-16.83,6.9-28.02,6.76-1.82-.02-3.69-.14-5.62-.36-3.18-.37-6.54-1.04-10.08-2.07C-.69,188.38,1.32,170.16,1.34,169.97c.06-.47.1-1.02.14-1.59.32-4.57.93-13.26,15.69-23.79,1.02-.73,2.11-1.47,3.28-2.21.08-.55.17-1.1.27-1.65,1.25-7.26,3.35-13.61,6.2-17.89,5.29-7.94,7.38-18.03,9.39-27.8,1.83-8.85,3.55-17.21,7.52-22.09,7.47-9.19,17.93-17.29,26.33-23.8,6.12-4.74,11.41-8.84,13.94-12.13,7.73-10.03,15.99-19.72,24.07-22.6,1.19-.43,2.71-1.01,4.48-1.7,10.63-4.1,30.4-11.75,43.7-9.24,17.85,3.35,40.72,19.16,48.63,28.57,4.27,5.09,7.44,14.09,10.51,22.8,2.83,8.05,5.51,15.65,9,20.08.21.26.4.54.59.81-.3.62-.57,1.27-.8,1.95-1.69,5.06-.6,9.43,3.33,13.36.4.4.85.75,1.33,1.08.04,1.06.07,2.13.1,3.23.17,6.05.38,12.61,2.31,19.13.12.41.24.81.38,1.22.68-.23,1.66-.58,2.79-1.08,1.03-.45,2.17-1.02,3.32-1.71,4.69-2.83,7.02-6.39,6.74-10.28-.43-6.06-5.34-7.76-9.68-9.26-1.03-.36-2.03-.71-2.96-1.1-1.17-.49-2.23-1.06-3.08-1.8-.12-.11-.25-.21-.36-.32-1.56-1.56-2.62-3.19-3.2-4.92.73-.22,1.81-.52,2.98-.78.97-.22,2-.4,2.95-.48.33-.03.65-.05.95-.05,3.03,0,7.7,1.58,7.75,1.6l.41-1.2c-.2-.07-4.91-1.67-8.16-1.67-.37,0-.77.03-1.18.06-.97.09-1.99.27-2.95.48-1.2.26-2.31.57-3.07.8-.35-1.76-.21-3.62.4-5.59.25-.08.61-.19,1.05-.31.8-.23,1.85-.5,2.95-.73,1.18-.24,2.41-.43,3.45-.43,3.03,0,7.7,1.58,7.75,1.6l.41-1.2c-.2-.07-4.91-1.67-8.16-1.67-1.23,0-2.67.23-4,.52-1.09.24-2.12.51-2.88.73.44-1.02,1.01-1.95,1.65-2.81,2.4-3.2,6.2-5.35,11.4-6.39,9.22-1.84,20.3,2.72,25.23,6.55,6.78,5.27,10.13,10.31,11.19,16.86,1.27,7.79-.74,22.2-4.06,29.09ZM232.05,95.28c-.02-.54-.03-1.07-.05-1.6.82.32,1.66.62,2.49.91,4.35,1.51,8.45,2.93,8.83,8.15.39,5.43-5.23,8.91-9.17,10.67-1.74-6-1.93-12.13-2.1-18.13Z"/>
      </g>
      <ellipse cx="158.9" cy="89.5" rx="6.38" ry="9.92"/>
      <ellipse cx="183.25" cy="89.5" rx="6.38" ry="9.92"/>
      <path d="M151.53,127.61h0c.85,0,1.58.65,1.63,1.51.47,7.25,4.3,13.12,8.77,13.12s8.3-5.87,8.77-13.12c.06-.85.78-1.51,1.63-1.51h0c.96,0,1.7.82,1.64,1.78-.58,9.18-5.67,16.14-12.05,16.14s-11.46-6.96-12.05-16.14c-.06-.96.68-1.78,1.64-1.78Z"/>
    </g>
  </g>
</svg>