<?xml version="1.0" encoding="UTF-8"?>
<svg id="Layer_2" data-name="Layer 2" xmlns="http://www.w3.org/2000/svg" viewBox="0 0 263.07 244.69">
  <defs>
    <style>
      .cls-1 {
        fill: #ffba0a;
      }
    </style>
  </defs>
  <g id="Layer_1-2" data-name="Layer 1">
    <g>
      <g>
        <path class="cls-1" d="M133.66,1.68c17.11-2.28,48.74,18.16,64.24,42.01s52.96,72.95,36.17,117.84c-16.79,44.89-81.38,50.5-118.84,49.1-37.46-1.4-60.71,2.81-71.04-19.64-10.33-22.45-27.13-40.68-3.88-78.56,23.25-37.88,24.14-56.93,38.35-66.75,14.21-9.82,20.42-6.9,27.52-13.21,5.83-5.18,12.48-28.79,27.48-30.79Z"/>
        <path d="M262.67,95.59c-1.41-8.66-6.69-13.79-11.66-17.66-4.76-3.71-16.1-8.83-26.26-6.8-6.01,1.2-10.29,3.81-12.81,7.76-6.06-10.98-12.67-20.86-18.14-29.04-1.68-2.52-3.25-4.85-4.63-6.98C173.34,18.54,141.42-2.2,123.47.19c-11.01,1.47-17.7,13.56-22.58,22.38-2.17,3.92-4.04,7.3-5.69,8.77-3.06,2.71-5.97,3.59-9.66,4.71-4.42,1.34-9.93,3-17.72,8.39-8.27,5.72-12.17,14.33-18.07,27.36-4.67,10.33-10.49,23.18-20.71,39.83-7.62,12.42-10.99,22.85-11.73,32C1.23,154.77.58,164.1.24,168.96c-.04.58-.07,1.08-.13,1.52-.38,3.04.17,8.02,2.87,12.89,3.51,6.34,9.6,10.81,18.09,13.28,5.97,1.73,11.41,2.46,16.42,2.49,9.99,12.06,26.63,12.28,50.02,12.59,3.75.05,7.6.1,11.62.2,1.39,9.84,2.34,19,1.8,20.11-.88,1.46-5.82,1.87-9.08,1.16-1.2-.26-2.93-.87-4.95-1.58-4.29-1.51-9.63-3.38-13.95-3.38-2.32,0-4.3,1.14-5.56,3.2-1.94,3.16-1.93,8.06.02,11.91.41.81,1.2,1.32,2.06,1.32h38.99c1.09,0,1.97-.94,1.97-2.09v-30.33c1.49.03,3.03.04,4.65.04,7.28,0,15.8-.3,24.85-1.21v31.5c0,1.15.88,2.09,1.97,2.09h38.99c.86,0,1.65-.5,2.06-1.32,1.95-3.85,1.96-8.75.02-11.91-1.27-2.06-3.24-3.2-5.56-3.2-4.32,0-9.66,1.87-13.95,3.38-2.01.71-3.75,1.32-4.95,1.58-3.27.71-8.2.3-9.08-1.15-.59-1.21.56-11.77,2.13-22.46,30.09-4.75,62.56-17.14,73.93-47.55,1.91-5.11,3.14-10.25,3.79-15.4,2.39-.39,5.63-1.27,9.84-3.11,9.98-4.37,15.06-9.1,19.39-18.11,3.47-7.2,5.49-21.7,4.17-29.84ZM222.66,161c-10.78,28.81-41.65,40.8-70.66,45.51-.52.08-1.04.17-1.56.25-.13.88-.29,1.93-.46,3.08-1.17,7.95-2.92,21.24-1.86,22.99,1.55,2.57,7.83,2.47,10.68,1.85,1.29-.28,3.07-.9,5.13-1.63,4.18-1.47,9.39-3.3,13.45-3.3,2.28,0,3.59,1.35,4.29,2.49,1.68,2.74,1.65,7.04-.08,10.45-.15.3-.43.49-.72.49h-38.99c-.25,0-.47-.27-.47-.59v-34.66c-.5.05-1,.11-1.5.16-11.06,1.12-21.33,1.31-29.5,1.17-.51,0-1.01-.02-1.5-.03v33.36c0,.32-.21.59-.47.59h-38.99c-.29,0-.57-.19-.72-.49-1.73-3.41-1.76-7.71-.08-10.45.7-1.13,2.01-2.49,4.29-2.49,4.06,0,9.27,1.83,13.45,3.3,2.06.72,3.84,1.35,5.13,1.63,2.86.62,9.13.72,10.68-1.85.97-1.6-.42-12.86-1.55-20.85-.15-1.07-.3-2.09-.44-3.01-.51-.01-1.01-.02-1.52-.04-3.84-.09-7.54-.14-11.14-.19-21.88-.29-36.8-.49-46.09-9.71,9.43-.64,17.26-3.67,24.2-6.75,6.11-2.72,8.17-6.85,8.55-11.08h.08c-.02-.12-.04-.23-.06-.34.23-3.27-.52-6.58-1.12-9.29-.09-.39-.17-.77-.25-1.14-1.44-6.63-8.69-10.44-19.89-10.44-9.28,0-29.14,3.7-29.34,3.74l.23,1.22c.2-.04,19.95-3.72,29.11-3.72,4.99,0,16.81.92,18.67,9.46.08.37.17.76.26,1.15.43,1.89.9,4,1.07,6.14-4.35-5.91-17.23-5.28-17.86-5.24l.07,1.24c.16,0,16.05-.79,17.8,6.97-.22,2.59-1.11,5.1-3.29,7.23-2.54-8.17-18.23-7.4-18.93-7.36l.07,1.24c.16,0,16.12-.8,17.81,7.03-.96.75-2.11,1.44-3.49,2.05-7.08,3.15-15.09,6.24-24.81,6.7-1.25.06-2.53.08-3.84.04-4.63-.12-9.63-.84-15.08-2.42C-.69,189.04,1.32,170.82,1.34,170.64c.06-.47.1-1.02.14-1.59.32-4.57.93-13.28,15.73-23.82.97-.69,2.01-1.4,3.12-2.11.05-.53.11-1.06.18-1.59,1.07-8.16,4.38-17.39,11.09-28.32,10.32-16.81,16.18-29.76,20.89-40.17,5.69-12.58,9.45-20.89,17.04-26.13,7.41-5.12,12.45-6.64,16.89-7.99,3.88-1.17,7.23-2.19,10.78-5.34,2.03-1.81,4.02-5.4,6.32-9.56,4.83-8.73,10.84-19.59,20.35-20.86,16.68-2.24,47.77,18.25,62.78,41.34,1.39,2.14,2.96,4.49,4.65,7.02,5.74,8.58,12.75,19.06,19.03,30.71-.02.05-.03.09-.05.13-1.69,5.06-.6,9.43,3.33,13.36,1.18,1.18,2.77,1.98,4.47,2.64,2.38,5.72,4.43,11.6,5.94,17.6.11.44.22.88.32,1.32,2.22,9.32,3.13,18.86,2.02,28.38-.05.43-.11.85-.17,1.28-.64,4.71-1.79,9.41-3.53,14.06ZM221.88,99.74c3.79,1.37,7.1,3.01,7.43,7.66.19,2.6-1,4.75-2.73,6.48-1.28-4.8-2.88-9.53-4.71-14.14ZM257.35,124.88c-4.18,8.69-9.09,13.27-18.75,17.49-3.9,1.71-6.93,2.55-9.18,2.95,1.09-10.11.01-20.21-2.46-30.03,2.59-2.37,3.83-5.08,3.63-7.99-.42-5.9-5.09-7.67-9.33-9.14-.11-.04-.23-.08-.35-.12-1.24-.43-2.45-.85-3.54-1.35-1.11-.51-2.09-1.1-2.86-1.87-1.56-1.56-2.62-3.19-3.2-4.92.65-.19,1.59-.46,2.62-.69,1-.23,2.08-.44,3.08-.54.41-.04.81-.07,1.19-.07,3.03,0,7.7,1.58,7.75,1.6l.41-1.2c-.2-.07-4.91-1.67-8.16-1.67-.56,0-1.16.05-1.78.13-1.03.13-2.1.35-3.07.58-.92.22-1.75.45-2.35.63-.3-1.53-.22-3.14.21-4.82.06-.26.11-.51.19-.77.49-.15,1.38-.42,2.44-.69,1.57-.39,3.49-.78,5-.78,3.03,0,7.7,1.58,7.75,1.6l.41-1.2c-.2-.07-4.91-1.67-8.16-1.67-1.75,0-3.93.46-5.62.9-.47.12-.9.24-1.27.35.21-.48.46-.94.71-1.38,2.27-4,6.4-6.63,12.34-7.82,9.22-1.84,20.3,2.72,25.23,6.55,6.78,5.27,10.13,10.31,11.19,16.86,1.27,7.79-.74,22.2-4.06,29.09Z"/>
      </g>
      <ellipse cx="144.41" cy="99.29" rx="6.38" ry="9.92"/>
      <ellipse cx="168.76" cy="99.29" rx="6.38" ry="9.92"/>
      <path d="M137.04,137.4h0c.85,0,1.58.65,1.63,1.51.47,7.25,4.3,13.12,8.77,13.12s8.3-5.87,8.77-13.12c.06-.85.78-1.51,1.63-1.51h0c.96,0,1.7.82,1.64,1.78-.58,9.18-5.67,16.14-12.05,16.14s-11.46-6.96-12.05-16.14c-.06-.96.68-1.78,1.64-1.78Z"/>
    </g>
  </g>
</svg>