<?xml version="1.0" encoding="UTF-8"?>
<svg id="Layer_2" data-name="Layer 2" xmlns="http://www.w3.org/2000/svg" viewBox="0 0 262.07 193.62">
  <defs>
    <style>
      .cls-1 {
        fill: #ffba0a;
      }
    </style>
  </defs>
  <g id="Layer_1-2" data-name="Layer 1">
    <g>
      <g>
        <path class="cls-1" d="M132.27,1.92c15.79-3.64,38.69.85,42.51,1.21,4.88.47,17.88-.53,26.72,3.64,26.78,12.66,23.1,46.14,32.79,59.51,10.37,14.31,29.37,59.31,15.79,65.59-5.51,2.55-98.41,31.72-115.42,31.72s-102.58-15.41-111-20c-11-6-6.12-28.75-4.35-33.59,2.35-6.41,20.04-28.54,26.11-34.61,6.07-6.07,17-7.29,19.43-10.93,2.43-3.64,4.86-15.79,8.5-19.43s26.72-18.22,30.36-23.08c3.64-4.86,20.65-18.22,28.54-20.04Z"/>
        <path d="M261.67,44.52c-1.41-8.66-6.69-13.79-11.66-17.66-4.76-3.71-16.1-8.83-26.26-6.8-6.28,1.26-10.69,4.05-13.15,8.31-3.9-8.81-9.9-16.97-20.45-21.95-7.05-3.33-16.47-3.5-22.7-3.62-1.84-.03-3.42-.06-4.52-.17-.55-.05-1.62-.21-2.98-.41-7.9-1.17-26.39-3.91-40.01-.77-8.23,1.9-25.57,15.49-29.4,20.6-2.02,2.69-11.16,9.09-18.52,14.24-5.44,3.81-10.13,7.1-11.71,8.67-2.39,2.39-4.1,7.45-5.77,12.34-1.04,3.08-2.03,5.98-2.92,7.32-.86,1.29-3.74,2.43-6.78,3.64-4,1.59-8.97,3.57-12.47,7.06-2.74,2.74-8.42,9.43-13.85,16.39C1.26,103.23.58,112.91.24,117.89c-.04.58-.07,1.08-.13,1.52-.38,3.04.17,8.02,2.87,12.89.19.35.4.69.61,1.03.9,6.12,3.4,10.42,7.36,12.59,6.18,3.37,51.64,12.23,83.46,17.01,1.23,9.03,2.01,17.01,1.51,18.05-.88,1.46-5.82,1.87-9.08,1.16-1.2-.26-2.93-.87-4.95-1.58-4.29-1.51-9.63-3.38-13.95-3.38-2.32,0-4.3,1.14-5.56,3.2-1.94,3.16-1.93,8.06.02,11.91.41.81,1.2,1.32,2.06,1.32h38.99c1.09,0,1.97-.94,1.97-2.09v-27.04c7.67,1.01,13.8,1.62,17.25,1.62,2.61,0,6.88-.65,12.25-1.75v27.18c0,1.15.88,2.09,1.97,2.09h38.99c.86,0,1.65-.5,2.06-1.32,1.95-3.85,1.96-8.75.02-11.91-1.27-2.06-3.24-3.2-5.56-3.2-4.32,0-9.66,1.87-13.95,3.38-2.01.71-3.75,1.32-4.95,1.58-3.27.71-8.2.3-9.08-1.15-.53-1.09.34-9.71,1.66-19.19,34.06-8.36,89.49-26.1,92.64-27.56,2.46-1.14,4.13-3.34,4.97-6.53,2.15-8.22-1.49-22.05-6.57-34.83.33-.14.65-.26.99-.41,9.98-4.37,15.06-9.1,19.39-18.11,3.47-7.2,5.49-21.7,4.17-29.84ZM256.35,73.81c-4.18,8.69-9.09,13.27-18.75,17.49-.33.14-.64.27-.96.4-.98.41-1.9.76-2.76,1.07.16.39.31.78.47,1.18,4.93,12.47,8.35,25.68,6.44,33-.61,2.32-1.69,3.81-3.32,4.57-3.05,1.41-57.25,18.67-90.92,27.06-.53.13-1.06.26-1.58.39-.15,1-.3,2.08-.46,3.21-1.09,7.87-2.29,18.06-1.37,19.57,1.55,2.57,7.83,2.47,10.68,1.85,1.29-.28,3.07-.9,5.13-1.63,4.18-1.47,9.39-3.3,13.45-3.3,2.28,0,3.59,1.35,4.29,2.49,1.68,2.74,1.65,7.04-.08,10.45-.15.3-.43.49-.72.49h-38.99c-.25,0-.47-.27-.47-.59v-30.56c-.51.11-1.01.22-1.5.32-5.44,1.15-9.72,1.82-12.25,1.82-3.34,0-9.5-.63-17.25-1.66-.49-.07-.99-.13-1.5-.2v30.28c0,.32-.21.59-.47.59h-38.99c-.29,0-.57-.19-.72-.49-1.73-3.41-1.76-7.71-.08-10.45.7-1.13,2.01-2.49,4.29-2.49,4.06,0,9.27,1.83,13.45,3.3,2.06.72,3.84,1.35,5.13,1.63,2.86.62,9.13.72,10.68-1.85.88-1.45-.19-10.89-1.24-18.6-.15-1.08-.3-2.14-.44-3.13-.51-.08-1.03-.16-1.55-.23-31.41-4.77-75.83-13.37-81.59-16.51-1.81-.99-3.14-2.52-4.09-4.4,3.35,2.95,7.62,5.2,12.78,6.7,6.11,1.77,11.67,2.5,16.77,2.5,11.07,0,20-3.41,27.81-6.88,6.11-2.72,8.17-6.85,8.55-11.08h.08c-.02-.12-.04-.23-.06-.34.23-3.27-.52-6.58-1.12-9.29-.09-.39-.17-.77-.25-1.14-1.44-6.63-8.69-10.44-19.89-10.44-9.28,0-29.14,3.7-29.34,3.74l.23,1.22c.2-.04,19.95-3.72,29.11-3.72,4.99,0,16.81.92,18.67,9.46.08.37.17.76.26,1.15.43,1.89.9,4,1.07,6.14-4.35-5.91-17.23-5.28-17.86-5.24l.07,1.24c.16,0,16.05-.79,17.8,6.97-.22,2.59-1.11,5.1-3.29,7.23-2.54-8.17-18.23-7.4-18.93-7.36l.07,1.24c.16,0,16.12-.8,17.81,7.03-.96.75-2.11,1.44-3.49,2.05-11.21,4.98-24.75,9.83-43.73,4.32-6.73-1.95-11.22-5-14.22-8.3-1.8-1.98-3.06-4.05-3.94-6.03-2.46-5.56-1.94-10.39-1.92-10.49.06-.47.1-1.02.14-1.59.31-4.45.89-12.79,14.5-22.93,2.22-1.65,4.79-3.35,7.75-5.09.72-.9,1.43-1.78,2.14-2.64,3.46-4.23,6.64-7.87,8.62-9.85,3.05-3.05,7.52-4.83,11.45-6.39,3.64-1.45,6.79-2.7,8.17-4.77,1.11-1.67,2.11-4.61,3.27-8.02,1.41-4.14,3.15-9.29,5.05-11.19,1.39-1.39,6.21-4.77,11.31-8.34,8.3-5.82,16.89-11.83,19.19-14.9,3.54-4.72,20.14-17.74,27.68-19.48,13.06-3.02,31.17-.33,38.9.81,1.45.22,2.5.37,3.13.43,1.21.12,2.85.15,4.75.18,5.98.11,15.01.27,21.48,3.33,10.83,5.12,16.48,13.74,20.12,23.13-1.24,4.65-.05,8.71,3.62,12.39.1.1.2.18.3.27.32,1.23.63,2.46.94,3.68,1.73,6.8,3.38,13.26,6.2,17.98.22.38.46.73.7,1.08.68-.33,1.39-.71,2.09-1.14.18-.11.35-.22.52-.33,4.34-2.78,6.49-6.21,6.22-9.96-.43-6.06-5.34-7.76-9.68-9.26-1.32-.46-2.6-.91-3.74-1.45-1.02-.49-1.94-1.05-2.66-1.77-.49-.49-.91-.99-1.31-1.49-.86-1.1-1.5-2.24-1.9-3.43.24-.07.53-.16.84-.24.83-.23,1.86-.49,2.92-.7,1.08-.21,2.18-.37,3.13-.37,3.03,0,7.7,1.58,7.75,1.6l.41-1.2c-.2-.07-4.91-1.67-8.16-1.67-1.07,0-2.32.18-3.51.41-1.07.21-2.09.47-2.91.7-.29.08-.56.16-.79.23-.19-.96-.22-1.95-.12-2.96.08-.85.25-1.73.53-2.63.34-.11.87-.27,1.52-.45,1.67-.46,4.1-1.03,5.92-1.03,3.03,0,7.7,1.58,7.75,1.6l.41-1.2c-.2-.07-4.91-1.67-8.16-1.67-2.03,0-4.65.62-6.39,1.11-.17.05-.35.1-.5.14.09-.21.21-.4.31-.6,2.16-4.43,6.42-7.34,12.74-8.6,9.22-1.84,20.3,2.72,25.23,6.55,6.78,5.27,10.13,10.31,11.19,16.86,1.27,7.79-.74,22.2-4.06,29.09ZM216.57,47.09c.95.4,1.94.74,2.92,1.08,4.35,1.51,8.45,2.93,8.83,8.15.28,3.92-2.56,6.82-5.65,8.79-2.62-4.34-4.22-10.63-5.9-17.26-.06-.25-.13-.51-.2-.77Z"/>
      </g>
      <ellipse cx="152.3" cy="50.97" rx="6.38" ry="9.92"/>
      <ellipse cx="176.65" cy="50.97" rx="6.38" ry="9.92"/>
      <path d="M144.93,89.08h0c.85,0,1.58.65,1.63,1.51.47,7.25,4.3,13.12,8.77,13.12s8.3-5.87,8.77-13.12c.06-.85.78-1.51,1.63-1.51h0c.96,0,1.7.82,1.64,1.78-.58,9.18-5.67,16.14-12.05,16.14s-11.46-6.96-12.05-16.14c-.06-.96.68-1.78,1.64-1.78Z"/>
    </g>
  </g>
</svg>