<?xml version="1.0" encoding="UTF-8"?>
<svg id="Layer_2" data-name="Layer 2" xmlns="http://www.w3.org/2000/svg" viewBox="0 0 271.07 212.6">
  <defs>
    <style>
      .cls-1 {
        fill: #ffba0a;
      }
    </style>
  </defs>
  <g id="Layer_1-2" data-name="Layer 1">
    <g>
      <g>
        <path class="cls-1" d="M251.89,134.21c-8.37,34.51-9.73,34.11-22.97,43.89-20.09,14.84-64.21,7.18-91.3,3.42-27.79-3.86-62.44,3.2-80.07-8.56-29.12-19.43-29.89-38.94-20.46-81.23,6.11-27.41,14.18-32.67,33.63-49.69C86.78,27.99,106.69,7.73,129.74,2.43c7.93-1.82,48.32,1.21,75.49,21.6,3.93,2.95,10.83,8.76,28.14,30.97,16.24,20.83,26.66,45.7,18.53,79.21Z"/>
        <path d="M270.67,46.5c-1.41-8.66-6.69-13.79-11.66-17.66-4.76-3.71-16.1-8.83-26.26-6.8-7.62,1.52-12.49,5.3-14.46,11.23-1.69,5.06-.6,9.43,3.33,13.36,1.73,1.73,4.35,2.64,6.88,3.52,4.35,1.51,8.45,2.93,8.83,8.15.28,3.89-2.52,6.78-5.58,8.75-2.64-4.5-5.69-8.98-9.18-13.46-16.41-21.05-23.57-27.6-28.42-31.24C166.39,1.55,125.89-1.45,117.4.5c-20.34,4.68-38.47,20.95-53.03,34.03-2.28,2.05-4.49,4.03-6.64,5.91-1.42,1.24-2.77,2.41-4.07,3.54-16.66,14.45-24.26,21.05-30.03,46.95-1.53,6.86-2.78,13.12-3.69,18.87C1.3,121.71.59,131.76.24,136.87c-.04.58-.07,1.08-.13,1.52-.38,3.04.17,8.02,2.87,12.89,3.51,6.34,9.6,10.81,18.09,13.28,5.29,1.54,10.17,2.28,14.7,2.46,2.65,2.26,5.61,4.48,8.95,6.71,11.53,7.7,29.58,7.61,48.69,7.51,3.95-.02,7.94-.04,11.92.01,1.28,9.29,2.12,17.64,1.6,18.7-.88,1.46-5.82,1.87-9.08,1.16-1.2-.26-2.93-.87-4.95-1.58-4.29-1.51-9.63-3.38-13.95-3.38-2.32,0-4.3,1.14-5.56,3.2-1.94,3.16-1.93,8.06.02,11.91.41.81,1.2,1.32,2.06,1.32h38.99c1.09,0,1.97-.94,1.97-2.09v-28.84c3.06.2,6.07.47,9,.87,1.94.27,3.98.56,6.08.86,4.58.65,9.43,1.34,14.42,1.99v25.12c0,1.15.88,2.09,1.97,2.09h38.99c.86,0,1.65-.5,2.06-1.32,1.95-3.85,1.96-8.75.02-11.91-1.27-2.06-3.24-3.2-5.56-3.2-4.32,0-9.66,1.87-13.95,3.38-2.01.71-3.75,1.32-4.95,1.58-3.27.71-8.2.3-9.08-1.15-.42-.86.04-6.41.9-13.38,7.69.8,15.51,1.35,23.04,1.35,15.16,0,29.15-2.22,38.46-9.1l1.78-1.31c11.83-8.67,13.65-10.01,21.76-43.44,3.23-13.32,3.75-25.87,1.5-37.99,1.29-.44,2.7-.98,4.25-1.66,9.98-4.37,15.06-9.1,19.39-18.11,3.47-7.2,5.49-21.7,4.17-29.84ZM265.35,75.8c-4.18,8.69-9.09,13.27-18.75,17.49-1.45.63-2.76,1.14-3.98,1.56-1.06.36-2.02.65-2.91.88.08.42.16.83.23,1.25,2.11,11.63,1.59,23.66-1.5,36.41-7.85,32.36-9.31,33.43-20.62,41.72l-1.79,1.31c-13.01,9.61-37.08,9.42-59.34,7.17-.5-.05-1-.1-1.5-.16-.13.99-.26,1.99-.39,3-.81,6.57-1.4,13.11-.68,14.3,1.55,2.57,7.83,2.47,10.68,1.85,1.29-.28,3.07-.9,5.13-1.63,4.18-1.47,9.39-3.3,13.45-3.3,2.28,0,3.59,1.35,4.29,2.49,1.68,2.74,1.65,7.04-.08,10.45-.15.3-.43.49-.72.49h-38.99c-.25,0-.47-.27-.47-.59v-27.97c-.5-.06-1-.13-1.5-.19-4.93-.63-9.65-1.3-14-1.92-2.11-.3-4.15-.59-6.09-.86-3.07-.43-6.21-.72-9.41-.92-.5-.03-1-.06-1.5-.08v31.94c0,.32-.21.59-.47.59h-38.99c-.29,0-.57-.19-.72-.49-1.73-3.41-1.76-7.71-.08-10.45.7-1.13,2.01-2.49,4.29-2.49,4.06,0,9.27,1.83,13.45,3.3,2.06.72,3.84,1.35,5.13,1.63,2.86.62,9.13.72,10.68-1.85.91-1.5-.27-11.6-1.36-19.45-.15-1.05-.29-2.07-.43-3.02-.51,0-1.01-.01-1.52-.02-1.73-.02-3.46-.03-5.19-.03-2.11,0-4.22.01-6.32.02-18.63.09-36.24.18-47-7.01-2.12-1.42-4.07-2.83-5.89-4.25,9.86-.49,17.98-3.62,25.16-6.81,6.11-2.72,8.17-6.85,8.55-11.08h.08c-.02-.12-.04-.23-.06-.34.23-3.27-.52-6.58-1.12-9.29-.09-.39-.17-.77-.25-1.14-1.44-6.63-8.69-10.44-19.89-10.44-9.28,0-29.14,3.7-29.34,3.74l.23,1.22c.2-.04,19.95-3.72,29.11-3.72,4.99,0,16.81.92,18.67,9.46.08.37.17.76.26,1.15.43,1.89.9,4,1.07,6.14-4.35-5.91-17.23-5.28-17.86-5.24l.07,1.24c.16,0,16.05-.79,17.8,6.97-.22,2.59-1.11,5.1-3.29,7.23-2.54-8.17-18.23-7.4-18.93-7.36l.07,1.24c.16,0,16.12-.8,17.81,7.03-.96.75-2.11,1.44-3.49,2.05-7.4,3.29-15.83,6.52-26.16,6.75-1.53.03-3.11,0-4.73-.11-3.99-.27-8.25-.99-12.83-2.32C-.69,156.95,1.32,138.74,1.34,138.55c.06-.47.1-1.02.14-1.59.33-4.82.99-14.21,18.21-25.51,1.05-.69,2.17-1.39,3.35-2.09.09-.53.18-1.07.27-1.6.87-5.07,1.97-10.44,3.25-16.16,5.56-24.93,12.44-30.91,29.07-45.34,1.3-1.13,2.66-2.31,4.08-3.55,2.15-1.88,4.38-3.88,6.67-5.94,15.05-13.51,32.12-28.83,51.7-33.34,7.19-1.66,47.22,1.05,74.25,21.34,2.84,2.13,9.48,7.12,27.85,30.69,3.39,4.35,6.36,8.71,8.93,13.08.22.37.44.74.65,1.11.68-.33,1.38-.71,2.09-1.14.18-.11.36-.23.53-.34,4.33-2.78,6.47-6.2,6.21-9.94-.43-6.06-5.34-7.76-9.68-9.26-2.51-.87-4.87-1.69-6.4-3.22-1.56-1.56-2.62-3.19-3.2-4.92,1.55-.46,4.67-1.3,6.88-1.3,3.03,0,7.7,1.58,7.75,1.6l.41-1.2c-.2-.07-4.91-1.67-8.16-1.67-2.38,0-5.58.85-7.2,1.34-.35-1.76-.21-3.62.4-5.59,1.2-.38,4.91-1.47,7.44-1.47,3.03,0,7.7,1.58,7.75,1.6l.41-1.2c-.2-.07-4.91-1.67-8.16-1.67-2.23,0-5.19.75-6.89,1.25,2.06-4.79,6.44-7.88,13.05-9.21,9.22-1.84,20.3,2.72,25.23,6.55,6.78,5.27,10.13,10.31,11.19,16.86,1.27,7.79-.74,22.2-4.06,29.09Z"/>
      </g>
      <ellipse cx="152.24" cy="68.22" rx="6.38" ry="9.92"/>
      <ellipse cx="176.59" cy="68.22" rx="6.38" ry="9.92"/>
      <path d="M144.86,106.33h0c.85,0,1.58.65,1.63,1.51.47,7.25,4.3,13.12,8.77,13.12s8.3-5.87,8.77-13.12c.06-.85.78-1.51,1.63-1.51h0c.96,0,1.7.82,1.64,1.78-.58,9.18-5.67,16.14-12.05,16.14s-11.46-6.96-12.05-16.14c-.06-.96.68-1.78,1.64-1.78Z"/>
    </g>
  </g>
</svg>