<?xml version="1.0" encoding="UTF-8"?>
<svg id="Layer_2" data-name="Layer 2" xmlns="http://www.w3.org/2000/svg" viewBox="0 0 229.07 196.83">
  <defs>
    <style>
      .cls-1 {
        fill: #ffba0a;
      }
    </style>
  </defs>
  <g id="Layer_1-2" data-name="Layer 1">
    <g>
      <g>
        <path class="cls-1" d="M38.53,43.17C53.77,29.13,79.18,5.98,92.73,3.15c13.55-2.82,77.35,22.58,90.9,36.13,13.55,13.55,14.11,20.32,18.07,32.18,3.95,11.86,5.08,19.76,7.34,27.66,2.26,7.9-16.94,33.31-20.32,40.09-3.39,6.77-3.39,10.73-7.9,14.68-4.52,3.95-42.91,7.34-54.2,10.73-11.29,3.39-10.16,2.26-16.94,2.26s-13.55-5.08-20.89-5.08-26.88,6.42-36.03,1.45c-8.06-4.39-6.88-17.82-14.22-24.03-7.34-6.21-8.47-7.34-11.86-18.63-3.39-11.29,1.13-54.2,4.52-62.67,3.39-8.47,7.34-14.74,7.34-14.74Z"/>
        <path d="M228.67,44.73c-1.41-8.66-6.69-13.79-11.66-17.66-4.76-3.71-16.1-8.83-26.26-6.8-7.62,1.52-12.49,5.3-14.46,11.23-.48,1.45-.73,2.84-.76,4.18C159.6,21.67,97.87-2.59,84.42.23c-14.33,2.99-40.73,27.31-54.91,40.39l-.15.14-.11.17c-.16.26-4.06,6.49-7.46,14.99-2.12,5.3-4.46,22.12-5.39,37.51C1.21,104.26.57,113.33.24,118.1c-.04.58-.07,1.08-.13,1.52-.38,3.04.17,8.02,2.87,12.89,3.51,6.34,9.6,10.81,18.09,13.28,4.99,1.45,9.61,2.19,13.92,2.41.23.64.46,1.28.68,1.93,1.76,5.1,3.59,10.38,8.36,12.97,6.79,3.69,18.23,1.66,27.42.02,1.97-.35,3.81-.68,5.41-.91,1.53,10.52,2.64,20.79,2.06,21.98-.89,1.46-5.82,1.87-9.08,1.16-1.2-.26-2.93-.87-4.95-1.58-4.29-1.51-9.63-3.38-13.95-3.38-2.32,0-4.3,1.14-5.56,3.2-1.94,3.16-1.93,8.06.02,11.91.41.81,1.2,1.32,2.06,1.32h38.99c1.09,0,1.97-.94,1.97-2.09v-31.34c.91.31,1.81.64,2.71.97,3.42,1.26,6.96,2.56,10.54,2.56,1.52,0,2.62.06,3.59.11.76.04,1.43.08,2.1.08,2.2,0,4.47-.38,10.56-2.17v29.8c0,1.15.88,2.09,1.97,2.09h38.99c.86,0,1.65-.5,2.06-1.32,1.95-3.85,1.96-8.75.02-11.91-1.27-2.06-3.24-3.2-5.56-3.2-4.32,0-9.66,1.87-13.95,3.38-2.01.71-3.75,1.32-4.95,1.58-3.27.71-8.2.3-9.08-1.15-.58-1.19.51-11.33,2.03-21.77,4.02-.68,8.61-1.37,13.33-2.07,17.46-2.61,28.26-4.37,31.01-6.79,3.27-2.86,4.36-5.69,5.74-9.27.66-1.71,1.41-3.65,2.52-5.87.88-1.75,2.96-4.96,5.37-8.69,9.24-14.25,16.75-26.54,15.05-32.48-.3-1.06-.58-2.13-.86-3.2,1.09-.39,2.23-.83,3.49-1.38,9.98-4.37,15.06-9.1,19.39-18.11,3.47-7.2,5.49-21.7,4.17-29.84ZM223.35,74.02c-4.18,8.69-9.09,13.27-18.75,17.49-1.17.51-2.27.95-3.29,1.32-1.03.37-1.98.68-2.86.93.1.41.21.83.31,1.24.26,1.03.53,2.06.83,3.09,1.46,5.12-8.65,20.71-14.69,30.03-2.56,3.95-4.59,7.08-5.54,8.98-1.17,2.35-1.95,4.36-2.63,6.13-1.28,3.32-2.2,5.71-4.92,8.09-2.3,2.01-17.37,4.26-29.48,6.08-4.36.65-8.61,1.29-12.43,1.92-.53.09-1.05.17-1.56.26-.14.92-.3,1.97-.46,3.13-1.16,8.01-2.78,20.58-1.76,22.27,1.55,2.57,7.83,2.47,10.68,1.85,1.29-.28,3.07-.9,5.13-1.63,4.18-1.47,9.39-3.3,13.45-3.3,2.28,0,3.59,1.35,4.29,2.49,1.68,2.74,1.65,7.04-.08,10.45-.15.3-.43.49-.72.49h-38.99c-.25,0-.47-.27-.47-.59v-33.35c-.44.11-.86.23-1.24.34-.09.03-.17.05-.26.08-8.2,2.45-9.4,2.39-12.5,2.23-.96-.05-2.15-.11-3.75-.11-3.05,0-6.19-1.15-9.51-2.37-1.23-.45-2.48-.91-3.74-1.31-.5-.16-1-.31-1.5-.45v34.95c0,.32-.21.59-.47.59h-38.99c-.29,0-.57-.19-.72-.49-1.73-3.41-1.76-7.71-.08-10.45.7-1.13,2.01-2.49,4.29-2.49,4.06,0,9.27,1.83,13.45,3.3,2.06.72,3.84,1.35,5.13,1.63,2.86.62,9.13.72,10.68-1.85,1.05-1.74-.69-14.99-1.86-22.95-.16-1.11-.31-2.11-.44-2.97-.48.06-.97.12-1.49.2-1.66.24-3.51.57-5.5.93-8.27,1.47-19.59,3.49-25.46.3-3.75-2.04-5.31-6.55-6.96-11.32-.1-.29-.2-.58-.3-.87,10.91-.07,19.73-3.44,27.45-6.87,6.11-2.72,8.17-6.85,8.55-11.08h.08c-.02-.12-.04-.23-.06-.34.23-3.27-.52-6.58-1.12-9.29-.09-.39-.17-.77-.25-1.14-1.44-6.63-8.69-10.44-19.89-10.44-9.28,0-29.14,3.7-29.34,3.74l.23,1.22c.2-.04,19.95-3.72,29.11-3.72,4.99,0,16.81.92,18.67,9.46.08.37.17.76.26,1.15.43,1.89.9,4,1.07,6.14-4.35-5.91-17.23-5.28-17.86-5.24l.07,1.24c.16,0,16.05-.79,17.8,6.97-.22,2.59-1.11,5.1-3.29,7.23-2.54-8.17-18.23-7.4-18.93-7.36l.07,1.24c.16,0,16.12-.8,17.81,7.03-.96.75-2.11,1.44-3.49,2.05-7.69,3.42-16.49,6.78-27.39,6.76-1.06,0-2.14-.04-3.23-.1-4.07-.25-8.42-.98-13.1-2.34C-.69,138.18,1.32,119.96,1.34,119.78c.06-.47.1-1.02.14-1.59.31-4.48.91-12.92,14.84-23.17.98-.72,2.01-1.44,3.12-2.18.03-.51.07-1.03.1-1.54.99-14.37,3.14-29.5,5.04-34.27,3-7.49,6.48-13.3,7.12-14.34C44.73,30.67,71.57,5.97,85.03,3.16c12.9-2.68,76.49,22.69,89.53,35.73.83.83,1.59,1.62,2.32,2.4.67,1.24,1.57,2.43,2.72,3.58.41.41.87.77,1.36,1.09,5.64,7.04,7.46,12.33,9.49,18.84.09.29.18.57.27.87.04.13.09.28.13.41.95-.65,1.79-1.33,2.51-2.04,2.31-2.27,3.41-4.85,3.22-7.59-.43-6.06-5.34-7.76-9.68-9.26-.56-.19-1.11-.39-1.65-.59-1.87-.69-3.56-1.45-4.75-2.63-1.56-1.56-2.62-3.19-3.2-4.92.35-.1.78-.23,1.26-.36,1.65-.44,3.91-.95,5.62-.95,3.03,0,7.7,1.58,7.75,1.6l.41-1.2c-.2-.07-4.91-1.67-8.16-1.67-2.13,0-4.9.68-6.63,1.18-.22-.23-.45-.46-.68-.69-.16-1.51,0-3.08.51-4.74,1.2-.38,4.91-1.47,7.44-1.47,3.03,0,7.7,1.58,7.75,1.6l.41-1.2c-.2-.07-4.91-1.67-8.16-1.67-2.23,0-5.19.75-6.89,1.25,2.06-4.79,6.44-7.88,13.05-9.21,9.22-1.84,20.3,2.72,25.23,6.55,6.78,5.27,10.13,10.31,11.19,16.86,1.27,7.79-.74,22.2-4.06,29.09ZM186.49,48.39c4.35,1.51,8.45,2.93,8.82,8.15.17,2.42-.85,4.45-2.38,6.12-1.56-4.94-3.13-9.27-6.44-14.27Z"/>
      </g>
      <ellipse cx="121.2" cy="50.68" rx="6.38" ry="9.92"/>
      <ellipse cx="145.55" cy="50.68" rx="6.38" ry="9.92"/>
      <path d="M113.82,88.79h0c.85,0,1.58.65,1.63,1.51.47,7.25,4.3,13.12,8.77,13.12s8.3-5.87,8.77-13.12c.06-.85.78-1.51,1.63-1.51h0c.96,0,1.7.82,1.64,1.78-.58,9.18-5.67,16.14-12.05,16.14s-11.46-6.96-12.05-16.14c-.06-.96.68-1.78,1.64-1.78Z"/>
    </g>
  </g>
</svg>