<?xml version="1.0" encoding="UTF-8"?>
<svg id="Layer_2" data-name="Layer 2" xmlns="http://www.w3.org/2000/svg" viewBox="0 0 256.07 294.91">
  <defs>
    <style>
      .cls-1 {
        fill: #ffba0a;
      }
    </style>
  </defs>
  <g id="Layer_1-2" data-name="Layer 1">
    <g>
      <g>
        <path class="cls-1" d="M30.36,184.79c-.17,1.35-.73,5.51-.7,11.1.03,5.77.67,10.3.94,11.91,2.25,13.46,12.75,25.7,13.76,27.09,11.48,15.75,33,21.91,39.63,23.1,6.63,1.19,68.94,1.4,79.57,0,15.93-2.1,31.26-9.54,39.79-15.51,17.41-12.18,22.95-30.18,25.18-36.6,10.77-30.96.18-59.19-3.87-70-7.69-20.52-12.62-16.97-21-38-13.07-32.79-2.08-43.91-15.47-66.51-2.36-3.98-16.43-27.73-41.68-31.01-22.86-2.97-40.85,12.68-45.47,16.7-15.18,13.21-12.96,22.75-31.38,51.83-19.07,30.11-23.17,22.59-30,40-9.83,25.07-6.48,53.74-9.3,75.9Z"/>
        <path d="M255.67,145.81c-1.41-8.66-6.69-13.79-11.66-17.66-4.76-3.71-16.1-8.83-26.26-6.8-3.07.61-5.69,1.6-7.85,2.94-1.5-2.44-2.94-4.36-4.36-6.24-3.14-4.17-6.39-8.49-10.47-18.71-6.32-15.85-6.93-26.58-7.48-36.04-.58-10.11-1.08-18.85-8.09-30.68-5.05-8.53-19.33-28.69-42.78-31.73-19.44-2.52-36.1,7.88-46.65,17.05-8.99,7.82-12,14.3-16.56,24.11-3.27,7.04-7.35,15.8-15.1,28.05-9.66,15.25-15.43,20.74-19.65,24.76-4.23,4.02-7.02,6.68-10.48,15.5-6.74,17.17-7.38,36.25-7.95,53.1-.28,8.24-.54,16.03-1.45,23.16l-.02.14c-.12.94-.36,2.84-.53,5.42C1.26,203.6.58,213.22.24,218.18c-.04.58-.07,1.08-.13,1.52-.38,3.04.17,8.02,2.87,12.89,3.51,6.34,9.6,10.81,18.09,13.28,6.11,1.77,11.67,2.5,16.77,2.5,1.94,0,3.82-.11,5.64-.3,10.64,8.02,23.44,12.18,30.25,13.4,2.09.38,10.13.66,20.41.83,1.38,9.79,2.32,18.86,1.78,19.97-.88,1.46-5.82,1.87-9.08,1.16-1.2-.26-2.93-.87-4.95-1.58-4.29-1.51-9.63-3.38-13.95-3.38-2.32,0-4.3,1.14-5.56,3.2-1.94,3.16-1.93,8.06.02,11.91.41.81,1.2,1.32,2.06,1.32h38.99c1.09,0,1.97-.94,1.97-2.09v-30.39c3.25.02,6.58.03,9.9.03,6.82,0,13.61-.05,19.6-.15v30.51c0,1.15.88,2.09,1.97,2.09h38.99c.86,0,1.65-.5,2.06-1.32,1.95-3.85,1.96-8.75.02-11.91-1.27-2.06-3.24-3.2-5.56-3.2-4.32,0-9.66,1.87-13.95,3.38-2.01.71-3.75,1.32-4.95,1.58-3.27.71-8.2.3-9.08-1.15-.55-1.13.41-10.38,1.81-20.28,3.35-.14,5.97-.31,7.54-.52,16.29-2.15,31.97-9.83,40.45-15.76,17.01-11.9,22.9-29.06,25.41-36.38l.33-.95c1.37-3.95,2.4-7.85,3.15-11.68,2.3-.45,5.26-1.31,9.01-2.95,9.98-4.37,15.06-9.1,19.39-18.11,3.47-7.2,5.49-21.7,4.17-29.84ZM250.35,175.1c-4.18,8.69-9.09,13.27-18.75,17.49-3.39,1.48-6.12,2.31-8.26,2.77-1.25.27-2.29.41-3.13.47-.08.43-.18.87-.27,1.3-.7,3.38-1.62,6.8-2.82,10.27l-.33.96c-2.42,7.05-8.08,23.56-24.29,34.9-8.2,5.74-23.36,13.17-39.12,15.25-1.44.19-3.76.35-6.71.48-.49.02-1,.04-1.53.06-.14.92-.29,1.93-.44,3.01-1.14,8-2.55,19.39-1.57,20.99,1.55,2.57,7.83,2.47,10.68,1.85,1.29-.28,3.07-.9,5.13-1.63,4.18-1.47,9.39-3.3,13.45-3.3,2.28,0,3.59,1.35,4.29,2.49,1.68,2.74,1.65,7.04-.08,10.45-.15.3-.43.49-.72.49h-38.99c-.25,0-.47-.27-.47-.59v-33.52c-.49,0-.99.02-1.5.03-8.9.16-19.57.19-29.5.13-.5,0-1,0-1.5-.01v33.38c0,.32-.21.59-.47.59h-38.99c-.29,0-.57-.19-.72-.49-1.73-3.41-1.76-7.71-.08-10.45.7-1.13,2.01-2.49,4.29-2.49,4.06,0,9.27,1.83,13.45,3.3,2.06.72,3.84,1.35,5.13,1.63,2.86.62,9.13.71,10.68-1.85.96-1.59-.4-12.74-1.54-20.73-.15-1.06-.3-2.06-.43-2.98-.51,0-1.02-.02-1.52-.02-9.81-.16-17.44-.44-19.45-.8-6.01-1.08-16.91-4.54-26.53-11.07,6.71-1.25,12.57-3.59,17.91-5.96,6.11-2.72,8.17-6.85,8.55-11.08h.08c-.02-.12-.04-.23-.06-.34.23-3.27-.52-6.58-1.12-9.29-.09-.39-.17-.77-.25-1.14-1.44-6.63-8.69-10.44-19.89-10.44-9.28,0-29.14,3.7-29.34,3.74l.23,1.22c.2-.04,19.95-3.72,29.11-3.72,4.99,0,16.81.92,18.67,9.46.08.37.17.76.26,1.15.43,1.89.9,4,1.07,6.14-4.35-5.91-17.23-5.28-17.86-5.24l.07,1.24c.16,0,16.05-.79,17.8,6.97-.22,2.59-1.11,5.1-3.29,7.23-2.54-8.17-18.23-7.4-18.93-7.36l.07,1.24c.16,0,16.12-.8,17.81,7.03-.96.75-2.11,1.44-3.49,2.05-5.58,2.48-11.74,4.93-18.86,6.08-1.38.22-2.79.4-4.24.52-6.12.49-12.92-.04-20.62-2.27C-.69,238.26,1.32,220.04,1.34,219.86c.06-.47.1-1.02.14-1.59.32-4.68.96-13.68,16.77-24.54.98-.68,2.02-1.36,3.12-2.05.04-.55.08-1.06.13-1.53.13-1.37.26-2.41.34-3.02l.02-.14c.93-7.26,1.19-15.12,1.47-23.44.59-17.41,1.19-35.41,7.74-52.1,3.22-8.2,5.68-10.54,9.76-14.42,4.33-4.12,10.26-9.77,20.12-25.32,7.86-12.41,11.98-21.27,15.29-28.39,4.4-9.46,7.31-15.71,15.81-23.11,10.08-8.77,25.95-18.72,44.29-16.34,22.13,2.87,35.75,22.14,40.58,30.29,6.64,11.21,7.12,19.6,7.68,29.32.56,9.69,1.19,20.68,7.68,36.98,4.22,10.6,7.59,15.08,10.86,19.41,1.46,1.94,2.88,3.83,4.35,6.23-1.93,1.75-3.34,3.92-4.2,6.49-1.69,5.06-.6,9.43,3.33,13.36,1.73,1.73,4.35,2.64,6.88,3.52,1.4.49,2.78.97,4.02,1.57,1.04,3.65,2.03,7.77,2.8,12.28.09.53.17,1.08.26,1.62,1.12-1.14,1.93-2.36,2.44-3.64.48-1.21.68-2.47.59-3.77-.19-2.69-1.27-4.52-2.78-5.85-1.08-.96-2.39-1.66-3.76-2.24-1.03-.44-2.1-.81-3.13-1.17-2.51-.87-4.87-1.69-6.4-3.22-1.56-1.56-2.62-3.19-3.2-4.92,1.55-.46,4.67-1.3,6.88-1.3.71,0,1.5.09,2.3.22,1.24.2,2.5.51,3.49.79,1.14.31,1.93.58,1.95.59l.41-1.2c-.1-.03-1.31-.45-2.9-.85-1.06-.27-2.29-.54-3.47-.69-.62-.08-1.22-.13-1.79-.13-2.38,0-5.58.85-7.2,1.34-.35-1.76-.21-3.62.4-5.59,1.01-.32,3.81-1.14,6.17-1.4.44-.05.87-.08,1.27-.08.64,0,1.35.07,2.07.18,2.72.42,5.64,1.4,5.68,1.42l.41-1.2c-.17-.06-3.67-1.24-6.71-1.58-.5-.06-.99-.09-1.45-.09-.58,0-1.21.05-1.85.14-1.83.24-3.78.75-5.04,1.11.76-1.76,1.83-3.28,3.21-4.58.71-.67,1.53-1.27,2.41-1.82,2.04-1.27,4.51-2.23,7.43-2.81,9.22-1.84,20.3,2.72,25.23,6.55,6.78,5.27,10.13,10.31,11.19,16.86,1.27,7.79-.74,22.2-4.06,29.09ZM221.61,154.8c.38.8.63,1.72.71,2.83,0,.1,0,.2,0,.29-.23-1.07-.47-2.11-.72-3.12Z"/>
      </g>
      <ellipse cx="130.06" cy="121.91" rx="6.38" ry="9.92"/>
      <ellipse cx="154.41" cy="121.91" rx="6.38" ry="9.92"/>
      <path d="M122.68,160.02h0c.85,0,1.58.65,1.63,1.51.47,7.25,4.3,13.12,8.77,13.12s8.3-5.87,8.77-13.12c.06-.85.78-1.51,1.63-1.51h0c.96,0,1.7.82,1.64,1.78-.58,9.18-5.67,16.14-12.05,16.14s-11.46-6.96-12.05-16.14c-.06-.96.68-1.78,1.64-1.78Z"/>
    </g>
  </g>
</svg>