<?xml version="1.0" encoding="UTF-8"?>
<svg id="Layer_2" data-name="Layer 2" xmlns="http://www.w3.org/2000/svg" viewBox="0 0 229.07 286.22">
  <defs>
    <style>
      .cls-1 {
        fill: #ffba0a;
      }
    </style>
  </defs>
  <g id="Layer_1-2" data-name="Layer 1">
    <g>
      <g>
        <path class="cls-1" d="M133.13.68c11.02.75,20.97,5.1,27.8,10.81,6.83,5.71,17.07,24.49,19.51,44.01,2.44,19.53,7.8,38.3,14.63,53.32,6.83,15.02,17.07,65.34,9.75,84.87-7.32,19.53-15.61,35.3-22.92,45.81-7.32,10.51-20.48,21.03-39.99,18.03-19.51-3-28.77-4.51-43.41-3.76-14.63.75-42.92,3-56.57-15.77-13.66-18.78-25.36-30.79-21.95-61.59s4.88-45.06,12.68-68.35c7.8-23.28-3.87-55.96,12.68-71.35,11.32-10.52,15.94-24.47,28.32-27.52C112.9-.49,110.6-.85,133.13.68Z"/>
        <path d="M228.67,137.12c-1.41-8.66-6.69-13.79-11.66-17.66-4.76-3.71-16.1-8.83-26.26-6.8-1.05.21-2.04.47-2.99.76-.45-1.21-.89-2.29-1.31-3.22-7.03-15.46-12.18-34.24-14.51-52.89-2.57-20.56-13.29-39.33-20.03-44.98-7.62-6.37-18.07-10.44-28.66-11.16C103.08-.19,102.56-.06,75.37,6.74c-3.53.88-7.52,1.88-12.06,3-8.35,2.06-13.36,8.73-18.67,15.8-3.07,4.08-6.25,8.31-10.31,12.09-10.27,9.55-10.19,24.85-10.1,41.04.06,10.65.12,21.66-2.99,30.93-7.68,22.92-9.3,37.53-12.52,66.64l-.22,2.02c-.6,5.46-.74,10.33-.49,14.77-7.08,7.6-7.52,13.8-7.77,17.46-.04.58-.07,1.08-.13,1.52-.38,3.04.17,8.02,2.87,12.89,3.51,6.34,9.6,10.81,18.09,13.28,3.18.92,6.2,1.56,9.1,1.96.18.25.37.5.55.75,11.16,15.34,31.73,17.14,46.99,16.85,1.06,8.09,1.68,14.89,1.21,15.84-.88,1.46-5.82,1.87-9.08,1.16-1.2-.26-2.93-.87-4.95-1.58-4.29-1.51-9.63-3.38-13.95-3.38-2.32,0-4.3,1.14-5.56,3.2-1.94,3.16-1.93,8.06.02,11.91.41.81,1.2,1.32,2.06,1.32h38.99c1.09,0,1.97-.94,1.97-2.09v-26.84h.17c10.56-.55,18.38.11,29.33,1.66v25.18c0,1.15.88,2.09,1.97,2.09h38.99c.86,0,1.65-.5,2.06-1.32,1.95-3.85,1.96-8.75.02-11.91-1.27-2.06-3.24-3.2-5.56-3.2-4.32,0-9.66,1.87-13.95,3.38-2.01.71-3.75,1.32-4.95,1.58-3.27.71-8.2.3-9.08-1.15-.41-.85.02-6.26.86-13.1.67.1,1.32.2,2.02.31l1.39.21c2.43.37,4.75.55,6.96.55,18.19,0,29.25-11.67,34.49-19.2,8.11-11.66,16.32-28.05,23.1-46.14.92-2.47,1.57-5.41,1.99-8.7,1.93-.52,4.2-1.28,6.89-2.46,9.98-4.37,15.06-9.1,19.39-18.11,3.47-7.2,5.49-21.7,4.17-29.84ZM223.35,166.41c-4.18,8.69-9.09,13.27-18.75,17.49-2.4,1.05-4.47,1.77-6.23,2.27-1.15.32-2.16.54-3.05.7-3.31.58-4.89.19-4.91.18l-.35,1.22c.07.02.72.19,2,.19.78,0,1.81-.07,3.07-.27-.4,2.6-.95,4.96-1.7,6.97-6.69,17.87-14.77,34.02-22.75,45.48-5.48,7.87-17.76,20.6-38.53,17.4l-1.39-.21c-.72-.11-1.41-.22-2.1-.32-.5-.08-1-.15-1.49-.23-.13.98-.26,1.98-.38,2.98-.8,6.5-1.36,12.92-.65,14.09,1.55,2.57,7.83,2.47,10.68,1.85,1.29-.28,3.07-.9,5.13-1.63,4.18-1.47,9.39-3.3,13.45-3.3,2.28,0,3.59,1.35,4.29,2.49,1.68,2.74,1.65,7.04-.08,10.45-.15.3-.43.49-.72.49h-38.99c-.25,0-.47-.27-.47-.59v-28c-.5-.07-1.01-.15-1.5-.21-8.33-1.17-14.89-1.82-22.28-1.82-2.29,0-4.67.06-7.2.19h-.01s-1.5.08-1.5.08v29.76c0,.32-.21.59-.47.59h-38.99c-.29,0-.57-.19-.72-.49-1.73-3.41-1.76-7.71-.08-10.45.7-1.13,2.01-2.49,4.29-2.49,4.06,0,9.27,1.83,13.45,3.3,2.06.72,3.84,1.35,5.13,1.63,2.86.62,9.13.72,10.68-1.85.8-1.33-.02-9.38-.98-16.65-.13-1.02-.27-2.02-.4-2.98-.5.01-1.01.03-1.52.04-14.41.28-32.53-1.33-43.05-14.2,1.22.08,2.42.12,3.59.12,11.07,0,20-3.41,27.81-6.88,6.11-2.72,8.17-6.85,8.55-11.08h.08c-.02-.12-.04-.23-.06-.34.23-3.27-.52-6.58-1.12-9.29-.09-.39-.17-.77-.25-1.14-1.44-6.63-8.69-10.44-19.89-10.44-9.28,0-29.14,3.7-29.34,3.74l.23,1.22c.2-.04,19.95-3.72,29.11-3.72,4.99,0,16.81.92,18.67,9.46.08.37.17.76.26,1.15.43,1.89.9,4,1.07,6.14-4.35-5.91-17.23-5.28-17.86-5.24l.07,1.24c.16,0,16.05-.79,17.8,6.97-.22,2.59-1.11,5.1-3.29,7.23-2.54-8.17-18.23-7.4-18.93-7.36l.07,1.24c.16,0,16.12-.8,17.81,7.03-.96.75-2.11,1.44-3.49,2.05-8.73,3.88-18.89,7.68-31.92,6.57-1.33-.11-2.7-.28-4.1-.51-2.47-.39-5.03-.96-7.71-1.73C-.69,230.57,1.32,212.35,1.34,212.17c.06-.47.1-1.02.14-1.59.23-3.35.63-8.93,6.65-15.82.84-.96,1.78-1.94,2.85-2.94-.02-.54-.05-1.09-.06-1.64-.08-3.55.1-7.39.56-11.59l.22-2.02c3.3-29.8,4.81-43.4,12.39-66.01,3.27-9.75,3.2-21.01,3.14-31.9-.09-15.52-.17-30.17,9.14-38.83,4.26-3.96,7.52-8.29,10.66-12.48,5.2-6.91,9.69-12.88,16.99-14.69,4.55-1.12,8.54-2.12,12.07-3,26.74-6.69,27.25-6.81,46.93-5.48,9.98.68,19.79,4.49,26.94,10.47,6.21,5.19,16.54,23.51,18.98,43.05,2.37,18.94,7.61,38.03,14.75,53.76.4.89.82,1.91,1.25,3.05-4.35,2-7.26,5.14-8.68,9.39-1.69,5.06-.6,9.43,3.33,13.36,1.73,1.73,4.35,2.64,6.88,3.52,2.17.75,4.29,1.49,5.91,2.69.61,3.33,1.17,6.73,1.66,10.15-3.24,5.02-11.51,7.34-11.62,7.37l.33,1.23c.15-.04,3.62-1,7.08-3.09,1.87-1.13,3.35-2.37,4.46-3.71,1.28-1.54,2.03-3.2,2.24-4.95.06-.54.08-1.08.04-1.63-.09-1.28-.39-2.36-.84-3.3-.81-1.7-2.13-2.88-3.66-3.78-1.6-.94-3.43-1.58-5.17-2.19-2.51-.87-4.87-1.69-6.4-3.22-1.56-1.56-2.62-3.19-3.2-4.92,1.55-.46,4.67-1.3,6.88-1.3,1.72,0,3.97.51,5.6.95,1.24.34,2.12.64,2.14.64l.41-1.2c-.1-.03-1.31-.44-2.9-.85-1.62-.41-3.62-.82-5.26-.82-2.38,0-5.58.85-7.2,1.34-.35-1.76-.21-3.62.4-5.59,1.2-.38,4.91-1.47,7.44-1.47.91,0,1.97.14,3,.34,1.23.24,2.42.55,3.3.81.86.25,1.43.44,1.44.45l.41-1.2c-.08-.03-.99-.34-2.25-.68-.96-.26-2.13-.54-3.3-.74-.9-.15-1.8-.25-2.61-.25-2.23,0-5.19.75-6.89,1.25,1.41-3.27,3.92-5.73,7.46-7.39.87-.41,1.79-.78,2.79-1.09.89-.28,1.81-.53,2.81-.73,9.22-1.84,20.3,2.72,25.23,6.55,6.78,5.27,10.13,10.31,11.19,16.86,1.27,7.79-.74,22.2-4.06,29.09Z"/>
      </g>
      <ellipse cx="113.41" cy="130.69" rx="6.38" ry="9.92"/>
      <ellipse cx="137.76" cy="130.69" rx="6.38" ry="9.92"/>
      <path d="M106.04,168.8h0c.85,0,1.58.65,1.63,1.51.47,7.25,4.3,13.12,8.77,13.12s8.3-5.87,8.77-13.12c.06-.85.78-1.51,1.63-1.51h0c.96,0,1.7.82,1.64,1.78-.58,9.18-5.67,16.14-12.05,16.14s-11.46-6.96-12.05-16.14c-.06-.96.68-1.78,1.64-1.78Z"/>
    </g>
  </g>
</svg>