<?xml version="1.0" encoding="UTF-8"?>
<svg id="Layer_2" data-name="Layer 2" xmlns="http://www.w3.org/2000/svg" viewBox="0 0 232.07 254.34">
  <defs>
    <style>
      .cls-1 {
        fill: #ffba0a;
      }
    </style>
  </defs>
  <g id="Layer_1-2" data-name="Layer 1">
    <g>
      <g>
        <path class="cls-1" d="M120.39,0c20.15,0,53.33,24.89,61.63,37.92,8.3,13.04,43.85,55.7,34.37,77.03-9.48,21.33-20.15,88.88-22.52,97.18-2.37,8.3-23.7,11.85-34.37,15.41-10.67,3.56-17.78,7.11-29.63,7.11s-60.44-10.67-73.48-18.96c-13.04-8.3-33.18-37.92-29.63-54.51s18.96-50.96,27.26-58.07c8.3-7.11,11.85-22.52,10.67-39.11-1.19-16.59,7.11-48.59,17.78-54.51C93.13,3.56,120.39,0,120.39,0Z"/>
        <path d="M231.67,106.24c-1.41-8.66-6.69-13.79-11.66-17.66-3.64-2.83-11.14-6.48-19-7.14-6.34-12.18-15.01-24.3-21.56-33.47-2.56-3.58-4.78-6.68-6.16-8.85C164.97,26.07,131.36.5,110.39.5h-.19c-1.12.16-27.67,3.67-38.46,9.67-11.55,6.42-19.73,39.4-18.54,55.93,1.21,16.95-2.68,31.46-10.15,37.86-7.63,6.54-20.71,34.49-26.09,52.57C1.22,167.56.57,176.79.24,181.61c-.04.58-.07,1.08-.13,1.52-.38,3.04.17,8.02,2.87,12.89,3.51,6.34,9.6,10.81,18.09,13.28,5.9,1.71,11.27,2.44,16.22,2.49,2.94,3.08,5.79,5.57,8.3,7.16,7.78,4.95,27.49,10.62,45.02,14.51.45,4.42.62,7.61.32,8.24-.88,1.46-5.82,1.87-9.08,1.16-1.2-.26-2.93-.87-4.95-1.58-4.29-1.51-9.63-3.38-13.95-3.38-2.32,0-4.3,1.14-5.56,3.2-1.94,3.16-1.93,8.06.02,11.91.41.81,1.2,1.32,2.06,1.32h38.99c1.09,0,1.97-.94,1.97-2.09v-16.74c8.55,1.64,15.73,2.65,19.45,2.65s6.99-.34,10.05-.92v15.02c0,1.15.88,2.09,1.97,2.09h38.99c.86,0,1.65-.5,2.06-1.32,1.95-3.85,1.96-8.75.02-11.91-1.27-2.06-3.24-3.2-5.56-3.2-4.32,0-9.66,1.87-13.95,3.38-2.01.71-3.75,1.32-4.95,1.58-3.27.71-8.2.3-9.08-1.15-.28-.58-.17-3.29.2-7.13,1.48-.5,2.97-1.03,4.5-1.58,1.86-.66,3.79-1.35,5.85-2.04,2.38-.79,5.33-1.6,8.47-2.45,11.63-3.16,24.8-6.74,26.87-13.97.68-2.37,1.95-9.12,3.72-18.47,2.04-10.81,4.71-24.95,7.66-38.57,2.45-.23,6.19-1.02,11.42-3.31,9.98-4.37,15.06-9.1,19.39-18.11,3.47-7.2,5.49-21.7,4.17-29.84ZM226.35,135.53c-4.18,8.69-9.09,13.27-18.75,17.49-4.81,2.1-8.31,2.9-10.63,3.17-1.52.17-2.54.13-3.08.06-.09.42-.18.83-.27,1.25-2.9,13.47-5.53,27.35-7.54,38.02-1.69,8.92-3.02,15.97-3.65,18.2-1.6,5.6-14.99,9.24-24.77,11.9-3.17.86-6.17,1.68-8.63,2.5-2.09.7-4.04,1.39-5.91,2.06-1.08.38-2.12.76-3.15,1.11-.53.19-1.06.36-1.58.54-.12,1.13-.23,2.23-.32,3.26-.32,3.71-.39,6.63.07,7.38,1.55,2.57,7.83,2.47,10.68,1.85,1.29-.28,3.07-.9,5.13-1.63,4.18-1.47,9.39-3.3,13.45-3.3,2.28,0,3.59,1.35,4.29,2.49,1.68,2.74,1.65,7.04-.08,10.45-.15.3-.43.49-.72.49h-38.99c-.25,0-.47-.27-.47-.59v-18.39c-.5.11-1,.22-1.5.32-3.05.61-6.29.98-10.05.98s-10.85-1.04-19.45-2.72c-.49-.1-1-.2-1.5-.3v20.11c0,.32-.21.59-.47.59h-38.99c-.29,0-.57-.19-.72-.49-1.73-3.41-1.76-7.71-.08-10.45.7-1.13,2.01-2.49,4.29-2.49,4.06,0,9.27,1.83,13.45,3.3,2.06.72,3.84,1.35,5.13,1.63,2.86.62,9.13.72,10.68-1.85.51-.84.36-4.36-.05-8.67-.1-1.02-.21-2.08-.33-3.16-.52-.11-1.04-.23-1.56-.35-16.99-3.82-35.8-9.25-43.06-13.87-1.86-1.18-3.85-2.81-5.87-4.74,9.49-.62,17.36-3.66,24.33-6.76,6.11-2.72,8.17-6.85,8.55-11.08h.08c-.02-.12-.04-.23-.06-.34.23-3.27-.52-6.58-1.12-9.29-.09-.39-.17-.77-.25-1.14-1.44-6.63-8.69-10.44-19.89-10.44-9.28,0-29.14,3.7-29.34,3.74l.23,1.22c.2-.04,19.95-3.72,29.11-3.72,4.99,0,16.81.92,18.67,9.46.08.37.17.76.26,1.15.43,1.89.9,4,1.07,6.14-4.35-5.91-17.23-5.28-17.86-5.24l.07,1.24c.16,0,16.05-.79,17.8,6.97-.22,2.59-1.11,5.1-3.29,7.23-2.54-8.17-18.23-7.4-18.93-7.36l.07,1.24c.16,0,16.12-.8,17.81,7.03-.96.75-2.11,1.44-3.49,2.05-7.13,3.17-15.21,6.28-25.03,6.71-1.31.06-2.64.07-4.01.03-4.52-.15-9.39-.87-14.69-2.41C-.69,201.69,1.32,183.47,1.34,183.29c.06-.47.1-1.02.14-1.59.31-4.49.91-12.96,14.92-23.23,1.21-.89,2.52-1.78,3.93-2.69.19-.61.39-1.22.6-1.85,5.74-17.43,17.38-41.93,24.07-47.68,8.3-7.11,12.48-22.2,11.19-40.35-1.21-16.96,7.54-47.84,17.01-53.1,9.98-5.55,35.51-9.05,37.29-9.29,19.71.08,52.47,24.99,60.26,37.23,1.43,2.24,3.66,5.37,6.25,8.99,5.9,8.25,14.21,19.88,20.51,31.63-1.26.05-2.53.19-3.77.44-7.62,1.52-12.49,5.3-14.46,11.23-1.69,5.06-.6,9.43,3.33,13.36,1.73,1.73,4.35,2.64,6.88,3.52,4.35,1.51,8.45,2.93,8.83,8.15.59,8.27-12.75,12.02-12.88,12.06l.33,1.23c.15-.04,3.62-1,7.08-3.09,4.69-2.83,7.02-6.39,6.74-10.28-.43-6.06-5.34-7.76-9.68-9.26-2.51-.87-4.87-1.69-6.4-3.22-1.56-1.56-2.62-3.19-3.2-4.92,1.55-.46,4.67-1.3,6.88-1.3,3.03,0,7.7,1.58,7.75,1.6l.41-1.2c-.2-.07-4.91-1.67-8.16-1.67-2.38,0-5.58.85-7.2,1.34-.35-1.76-.21-3.62.4-5.59,1.2-.38,4.91-1.47,7.44-1.47,3.03,0,7.7,1.58,7.75,1.6l.41-1.2c-.2-.07-4.91-1.67-8.16-1.67-2.23,0-5.19.75-6.89,1.25,2.06-4.79,6.44-7.88,13.05-9.21,1.37-.27,2.77-.39,4.2-.41,1.17-.01,2.35.05,3.52.19,7.04.8,13.92,3.98,17.51,6.77,6.78,5.27,10.13,10.31,11.19,16.86,1.27,7.79-.74,22.2-4.06,29.09Z"/>
      </g>
      <ellipse cx="123.86" cy="102.82" rx="6.38" ry="9.92"/>
      <ellipse cx="148.21" cy="102.82" rx="6.38" ry="9.92"/>
      <path d="M116.48,140.93h0c.85,0,1.58.65,1.63,1.51.47,7.25,4.3,13.12,8.77,13.12s8.3-5.87,8.77-13.12c.06-.85.78-1.51,1.63-1.51h0c.96,0,1.7.82,1.64,1.78-.58,9.18-5.67,16.14-12.05,16.14s-11.46-6.96-12.05-16.14c-.06-.96.68-1.78,1.64-1.78Z"/>
    </g>
  </g>
</svg>