<?xml version="1.0" encoding="UTF-8"?>
<svg id="Layer_2" data-name="Layer 2" xmlns="http://www.w3.org/2000/svg" viewBox="0 0 262.07 235.16">
  <defs>
    <style>
      .cls-1 {
        fill: #ffba0a;
      }
    </style>
  </defs>
  <g id="Layer_1-2" data-name="Layer 1">
    <g>
      <g>
        <path class="cls-1" d="M61.9,39.48c9.91-16.32,12.43-15.11,23.69-19.01,7.84-2.72,22.09-17.27,35.49-18.39,13.4-1.12,30.71,6.14,41.31,10.61,10.61,4.47,24.01,3.79,31.82,8.04,7.82,4.24,19.54,18.2,22.33,32.72,2.79,14.52,8.93,28.47,16.75,39.64,7.82,11.17,19.54,48.57,11.17,63.09s-17.86,26.24-26.24,34.06c-8.37,7.82-23.45,15.63-45.78,13.4-22.33-2.23-32.94-3.35-49.69-2.79-16.75.56-49.13,2.23-64.76-11.72-15.63-13.96-29.03-22.89-25.12-45.78,3.91-22.89,5.58-33.5,14.52-50.8,8.93-17.31,5.02-37.4,14.52-53.04Z"/>
        <path d="M261.67,70.06c-1.41-8.66-6.69-13.79-11.66-17.66-4.76-3.71-16.1-8.83-26.26-6.8-7.62,1.52-12.49,5.3-14.46,11.23-.78,2.33-.96,4.51-.55,6.58.26.84.53,1.67.81,2.51.68,1.49,1.7,2.91,3.07,4.28,1.73,1.73,4.35,2.64,6.88,3.52,4.35,1.51,8.45,2.93,8.83,8.15.3,4.18-2.96,7.2-6.27,9.17-5.21-7.58-9.48-16.2-12.51-25.13-.37-.82-.65-1.65-.81-2.51-1.11-3.55-2.02-7.14-2.71-10.72-2.97-15.46-15.32-29.53-23.09-33.75-4.21-2.29-9.78-3.19-15.68-4.15-5.53-.9-11.24-1.83-16.27-3.95C140.43,6.4,122.78-1.04,108.96.12c-8.9.74-18.05,7.07-25.41,12.16-4.17,2.89-7.77,5.38-10.45,6.31-1.49.52-2.82.94-4.04,1.33-8.18,2.61-11.56,3.69-20.44,18.32-5.04,8.31-6.44,17.94-7.79,27.26-1.26,8.7-2.56,17.69-6.78,25.87-6.11,11.84-8.89,20.71-11.24,32.23C1.37,136.26.61,147.07.24,152.43c-.04.58-.07,1.08-.13,1.52-.38,3.04.17,8.02,2.87,12.89,3.51,6.34,9.6,10.81,18.09,13.28,5.73,1.66,10.97,2.4,15.8,2.48,1.21,1.08,2.46,2.17,3.73,3.28,1.44,1.25,2.91,2.54,4.39,3.87,13.1,11.7,37.61,12.73,55.09,12.42,1.41,9.93,2.38,19.22,1.83,20.35-.89,1.46-5.82,1.87-9.08,1.16-1.2-.26-2.93-.87-4.95-1.58-4.29-1.51-9.63-3.38-13.95-3.38-2.32,0-4.3,1.14-5.56,3.2-1.94,3.16-1.94,8.06.02,11.91.41.81,1.2,1.32,2.06,1.32h38.99c1.09,0,1.97-.94,1.97-2.09v-31.23c10.66-.33,18.94.04,29.5.94v30.29c0,1.15.88,2.09,1.97,2.09h38.99c.86,0,1.65-.5,2.06-1.32,1.95-3.85,1.96-8.75.02-11.91-1.27-2.06-3.24-3.2-5.56-3.2-4.32,0-9.66,1.87-13.95,3.38-2.01.71-3.75,1.32-4.95,1.58-3.26.71-8.2.3-9.08-1.15-.52-1.07.31-9.42,1.6-18.72,2.12.21,4.34.43,6.7.67l1.58.16c2.73.27,5.33.4,7.82.4,20.6,0,33.17-8.63,39.13-14.19,9.32-8.7,18.73-20.92,26.51-34.4,5.22-9.05,2.65-25.11.65-33.88-.22-.95-.45-1.9-.69-2.85,1.33-.45,2.78-1,4.38-1.7,9.98-4.37,15.06-9.1,19.39-18.11,3.47-7.2,5.49-21.7,4.17-29.84ZM256.35,99.36c-4.18,8.69-9.09,13.27-18.75,17.49-1.53.67-2.92,1.2-4.19,1.63-1.07.36-2.06.65-2.95.88.11.41.22.82.32,1.23,3.29,13.02,4.65,26.98.39,34.37-7.64,13.24-16.86,25.21-25.96,33.71-6.31,5.89-20.5,15.41-44.61,13l-1.58-.16c-2.32-.23-4.5-.45-6.58-.66-.51-.05-1-.1-1.5-.15-.14.93-.28,1.93-.42,2.97-1.1,7.88-2.3,18.11-1.38,19.63,1.56,2.57,7.83,2.47,10.68,1.85,1.29-.28,3.07-.9,5.13-1.63,4.18-1.47,9.39-3.3,13.45-3.3,2.28,0,3.59,1.35,4.29,2.49,1.68,2.74,1.65,7.04-.08,10.45-.15.3-.43.49-.72.49h-38.99c-.25,0-.47-.27-.47-.59v-33.17c-.51-.04-1-.09-1.5-.13-7.94-.68-14.62-1.05-22.02-1.05-2.39,0-4.87.04-7.48.12-.24,0-.47.01-.71.02l-.79.03v34.18c0,.32-.21.59-.47.59h-38.99c-.29,0-.57-.19-.72-.49-1.73-3.41-1.76-7.71-.08-10.45.7-1.13,2.01-2.49,4.29-2.49,4.06,0,9.27,1.83,13.45,3.3,2.06.72,3.84,1.35,5.13,1.63,2.85.62,9.13.72,10.68-1.85.98-1.62-.45-13.14-1.6-21.16-.15-1.07-.3-2.08-.44-2.99-.5.01-1,.02-1.51.03-17,.28-40.45-.76-52.66-11.66-1.5-1.34-2.97-2.63-4.42-3.89-.43-.38-.86-.75-1.28-1.12,9.5-.61,17.38-3.66,24.36-6.76,6.11-2.72,8.17-6.85,8.55-11.08h.08c-.02-.12-.04-.23-.06-.34.23-3.27-.52-6.58-1.12-9.29-.09-.39-.17-.77-.25-1.14-1.44-6.63-8.69-10.44-19.89-10.44-9.28,0-29.14,3.7-29.34,3.74l.23,1.22c.2-.04,19.95-3.72,29.11-3.72,4.99,0,16.81.92,18.67,9.46.08.37.17.76.26,1.15.43,1.89.9,4,1.07,6.14-4.35-5.91-17.23-5.28-17.86-5.24l.07,1.24c.16,0,16.05-.79,17.8,6.97-.22,2.59-1.11,5.1-3.29,7.23-2.54-8.17-18.23-7.4-18.93-7.36l.07,1.24c.16,0,16.12-.8,17.81,7.03-.96.75-2.11,1.44-3.49,2.05-7.17,3.19-15.3,6.32-25.2,6.72-1.47.06-2.97.06-4.52-.01-4.33-.19-8.98-.92-14.01-2.38C-.69,172.51,1.32,154.3,1.34,154.11c.06-.47.1-1.02.14-1.59.35-5.06,1.07-15.19,21-27.27,1.1-.66,2.25-1.33,3.46-2.01.11-.54.23-1.08.34-1.6,2.21-10.18,4.9-18.17,10.44-28.89,4.45-8.62,5.79-17.87,7.08-26.81,1.37-9.44,2.66-18.35,7.38-26.13,8.3-13.67,10.94-14.52,18.79-17.02,1.24-.4,2.59-.83,4.11-1.35,3.06-1.06,6.82-3.66,11.17-6.67,7.06-4.88,15.85-10.96,23.95-11.64,13.08-1.09,30.31,6.16,40.61,10.5,5.36,2.26,11.25,3.22,16.95,4.14,5.64.92,10.97,1.79,14.74,3.83,7.07,3.84,18.81,17.33,21.57,31.68,2.65,13.76,8.42,27.62,16.29,39.19.23.34.46.69.7,1.03.01.01.02.03.03.05.85-.39,1.76-.86,2.67-1.41.03-.02.05-.03.08-.05,4.69-2.83,7.02-6.39,6.74-10.28-.43-6.06-5.34-7.76-9.68-9.26-2.51-.87-4.87-1.69-6.4-3.22-1.56-1.56-2.62-3.19-3.2-4.92,1.55-.46,4.67-1.3,6.88-1.3,3.03,0,7.7,1.58,7.75,1.6l.41-1.2c-.2-.07-4.91-1.67-8.16-1.67-2.38,0-5.58.85-7.2,1.34-.35-1.76-.21-3.62.4-5.59,1.2-.38,4.91-1.47,7.44-1.47,3.03,0,7.7,1.58,7.75,1.6l.41-1.2c-.2-.07-4.91-1.67-8.16-1.67-2.23,0-5.19.75-6.89,1.25,2.06-4.79,6.44-7.88,13.05-9.21,9.22-1.84,20.3,2.72,25.23,6.55,6.78,5.27,10.13,10.31,11.19,16.86,1.27,7.79-.74,22.2-4.06,29.09Z"/>
      </g>
      <g>
        <ellipse cx="132.81" cy="77.38" rx="6.38" ry="9.92"/>
        <ellipse cx="157.16" cy="77.38" rx="6.38" ry="9.92"/>
        <path d="M125.43,115.49h0c.85,0,1.58.65,1.63,1.51.47,7.25,4.3,13.12,8.77,13.12s8.3-5.87,8.77-13.12c.06-.85.78-1.51,1.63-1.51h0c.96,0,1.7.82,1.64,1.78-.58,9.18-5.67,16.14-12.05,16.14s-11.46-6.96-12.05-16.14c-.06-.96.68-1.78,1.64-1.78Z"/>
      </g>
    </g>
  </g>
</svg>