<?xml version="1.0" encoding="UTF-8"?>
<svg id="Layer_2" data-name="Layer 2" xmlns="http://www.w3.org/2000/svg" viewBox="0 0 69.34 26.34">
  <g id="Layer_1-2" data-name="Layer 1">
    <g>
      <path d="M57.02,24.56c2.82,1.75,6.08-.04,6.58-.31,4.89-2.68,6.11-10.09,5.66-10.44-.31-.24-1.74,2.2-4.72,4.55-1.05.83-3.15,1.65-3.5.83-.35-.83,5.29-9,3.85-12.41,0-.02-.02-.03-.03-.04-.39-.23-1.8,5.53-5.29,7.51-.9.51-2.3.98-2.61.43-.2-.35.12-1.01.24-1.29.7-1.65,4.2-11.58,3.15-13.23-.05-.08-.1-.11-.17-.14-1.21-.47-2.44,7.94-7.04,11.23-2.85,2.04-3.67-.27-7.24,2-3.35,2.13-4.91,5.6-6.44,9-1.1,2.45-1.01,3.6-.8,4,.02.05.04.07.06.08.45.25,1.49-3.64,3.96-6.08,1.88-1.85,3.93-2.21,4.56-2.31.74-.12,2.94-.71,4.9.83,2.62,2.06,2.48,4.29,4.9,5.79Z"/>
      <path d="M12.33,24.56c-2.82,1.75-6.08-.04-6.58-.31C.86,21.58-.36,14.16.09,13.81c.31-.24,1.74,2.2,4.72,4.55,1.05.83,3.15,1.65,3.5.83.35-.83-5.29-9-3.85-12.41,0-.02.02-.03.03-.04.39-.23,1.8,5.53,5.29,7.51.9.51,2.3.98,2.61.43.2-.35-.12-1.01-.24-1.29-.7-1.65-4.2-11.58-3.15-13.23.05-.08.1-.11.17-.14,1.21-.47,2.44,7.94,7.04,11.23,2.85,2.04,3.67-.27,7.24,2,3.35,2.13,4.91,5.6,6.44,9,1.1,2.45,1.01,3.6.8,4-.02.05-.04.07-.06.08-.45.25-1.49-3.64-3.96-6.08-1.88-1.85-3.93-2.21-4.56-2.31-.74-.12-2.94-.71-4.9.83-2.62,2.06-2.48,4.29-4.9,5.79Z"/>
    </g>
  </g>
</svg>