<svg width="172" height="239" viewBox="0 0 172 239" fill="none" xmlns="http://www.w3.org/2000/svg">
<path d="M0 15C0 6.71573 6.71573 0 15 0H80C88.2843 0 95 6.71573 95 15V54H0V15Z" fill="#5A6FD5"/>
<rect y="16" width="171.198" height="222.397" rx="20" fill="#365CCC"/>
<path d="M21.76 193.809V195.577H17.99V197.592H20.902V199.282H17.99V203H15.767V193.809H21.76ZM25.1248 197.111C25.4021 196.669 25.7574 196.318 26.1908 196.058C26.6328 195.798 27.1094 195.668 27.6208 195.668V198.047H26.9838C26.3944 198.047 25.9351 198.173 25.6058 198.424C25.2851 198.675 25.1248 199.1 25.1248 199.698V203H22.9018V195.746H25.1248V197.111ZM28.3432 193.705C28.3432 193.367 28.4645 193.09 28.7072 192.873C28.9498 192.648 29.2705 192.535 29.6692 192.535C30.0678 192.535 30.3885 192.648 30.6312 192.873C30.8738 193.09 30.9952 193.367 30.9952 193.705C30.9952 194.034 30.8738 194.312 30.6312 194.537C30.3885 194.754 30.0678 194.862 29.6692 194.862C29.2705 194.862 28.9498 194.754 28.7072 194.537C28.4645 194.312 28.3432 194.034 28.3432 193.705ZM30.7742 195.746V203H28.5512V195.746H30.7742ZM39.199 199.178C39.199 199.36 39.1773 199.559 39.134 199.776H34.103C34.129 200.322 34.2677 200.716 34.519 200.959C34.7703 201.193 35.091 201.31 35.481 201.31C35.8103 201.31 36.0833 201.228 36.3 201.063C36.5167 200.898 36.6597 200.686 36.729 200.426H39.082C38.9867 200.937 38.7787 201.397 38.458 201.804C38.1373 202.203 37.73 202.519 37.236 202.753C36.742 202.978 36.1917 203.091 35.585 203.091C34.8743 203.091 34.2417 202.944 33.687 202.649C33.141 202.346 32.712 201.912 32.4 201.349C32.088 200.786 31.932 200.127 31.932 199.373C31.932 198.61 32.0837 197.952 32.387 197.397C32.699 196.834 33.1323 196.405 33.687 196.11C34.2417 195.807 34.8743 195.655 35.585 195.655C36.3043 195.655 36.937 195.802 37.483 196.097C38.029 196.392 38.4493 196.808 38.744 197.345C39.0473 197.874 39.199 198.485 39.199 199.178ZM36.95 198.84C36.9587 198.363 36.8287 198.008 36.56 197.774C36.3 197.531 35.975 197.41 35.585 197.41C35.1777 197.41 34.8397 197.531 34.571 197.774C34.3023 198.017 34.1507 198.372 34.116 198.84H36.95ZM44.9598 195.668C45.7918 195.668 46.4505 195.945 46.9358 196.5C47.4298 197.055 47.6768 197.817 47.6768 198.788V203H45.4538V199.048C45.4538 198.563 45.3238 198.186 45.0638 197.917C44.8125 197.64 44.4745 197.501 44.0498 197.501C43.5992 197.501 43.2395 197.644 42.9708 197.93C42.7108 198.216 42.5808 198.623 42.5808 199.152V203H40.3578V195.746H42.5808V197.072C42.7888 196.639 43.0965 196.296 43.5038 196.045C43.9198 195.794 44.4052 195.668 44.9598 195.668ZM51.899 195.655C52.4536 195.655 52.9303 195.781 53.329 196.032C53.7276 196.283 54.018 196.626 54.2 197.059V193.38H56.423V203H54.2V201.687C54.018 202.12 53.7276 202.463 53.329 202.714C52.9303 202.965 52.4536 203.091 51.899 203.091C51.301 203.091 50.7636 202.944 50.287 202.649C49.819 202.346 49.4463 201.912 49.169 201.349C48.9003 200.786 48.766 200.127 48.766 199.373C48.766 198.61 48.9003 197.952 49.169 197.397C49.4463 196.834 49.819 196.405 50.287 196.11C50.7636 195.807 51.301 195.655 51.899 195.655ZM52.614 197.605C52.1373 197.605 51.7516 197.761 51.457 198.073C51.171 198.385 51.028 198.818 51.028 199.373C51.028 199.928 51.171 200.361 51.457 200.673C51.7516 200.985 52.1373 201.141 52.614 201.141C53.082 201.141 53.4633 200.981 53.758 200.66C54.0613 200.339 54.213 199.91 54.213 199.373C54.213 198.827 54.0613 198.398 53.758 198.086C53.4633 197.765 53.082 197.605 52.614 197.605ZM59.4875 192.054C59.6522 192.548 59.7345 193.059 59.7345 193.588C59.7345 194.186 59.5785 194.667 59.2665 195.031C58.9632 195.386 58.5169 195.564 57.9275 195.564V194.732C58.3782 194.732 58.6035 194.442 58.6035 193.861V193.653H57.7845V192.054H59.4875ZM63.7283 195.655C64.6469 195.655 65.3793 195.885 65.9253 196.344C66.4799 196.803 66.8266 197.41 66.9653 198.164H64.8853C64.8246 197.869 64.6859 197.64 64.4693 197.475C64.2613 197.302 63.9969 197.215 63.6763 197.215C63.4249 197.215 63.2343 197.271 63.1043 197.384C62.9743 197.488 62.9093 197.64 62.9093 197.839C62.9093 198.064 63.0263 198.233 63.2603 198.346C63.5029 198.459 63.8799 198.571 64.3913 198.684C64.9459 198.814 65.4009 198.948 65.7563 199.087C66.1116 199.217 66.4193 199.434 66.6793 199.737C66.9393 200.04 67.0693 200.448 67.0693 200.959C67.0693 201.375 66.9566 201.743 66.7313 202.064C66.5059 202.385 66.1809 202.636 65.7563 202.818C65.3316 203 64.8289 203.091 64.2483 203.091C63.2689 203.091 62.4846 202.874 61.8953 202.441C61.3059 202.008 60.9463 201.388 60.8163 200.582H62.9613C62.9959 200.894 63.1259 201.132 63.3513 201.297C63.5853 201.462 63.8843 201.544 64.2483 201.544C64.4996 201.544 64.6903 201.488 64.8203 201.375C64.9503 201.254 65.0153 201.098 65.0153 200.907C65.0153 200.656 64.8939 200.478 64.6513 200.374C64.4173 200.261 64.0316 200.144 63.4943 200.023C62.9569 199.91 62.5149 199.789 62.1683 199.659C61.8216 199.529 61.5226 199.321 61.2713 199.035C61.0199 198.74 60.8943 198.342 60.8943 197.839C60.8943 197.189 61.1413 196.665 61.6353 196.266C62.1293 195.859 62.8269 195.655 63.7283 195.655ZM17.99 216.297H20.954V218H15.767V208.809H17.99V216.297ZM28.865 214.178C28.865 214.36 28.8433 214.559 28.8 214.776H23.769C23.795 215.322 23.9337 215.716 24.185 215.959C24.4363 216.193 24.757 216.31 25.147 216.31C25.4763 216.31 25.7493 216.228 25.966 216.063C26.1827 215.898 26.3257 215.686 26.395 215.426H28.748C28.6527 215.937 28.4447 216.397 28.124 216.804C27.8033 217.203 27.396 217.519 26.902 217.753C26.408 217.978 25.8577 218.091 25.251 218.091C24.5403 218.091 23.9077 217.944 23.353 217.649C22.807 217.346 22.378 216.912 22.066 216.349C21.754 215.786 21.598 215.127 21.598 214.373C21.598 213.61 21.7497 212.952 22.053 212.397C22.365 211.834 22.7983 211.405 23.353 211.11C23.9077 210.807 24.5403 210.655 25.251 210.655C25.9703 210.655 26.603 210.802 27.149 211.097C27.695 211.392 28.1153 211.808 28.41 212.345C28.7133 212.874 28.865 213.485 28.865 214.178ZM26.616 213.84C26.6247 213.363 26.4947 213.008 26.226 212.774C25.966 212.531 25.641 212.41 25.251 212.41C24.8437 212.41 24.5057 212.531 24.237 212.774C23.9683 213.017 23.8167 213.372 23.782 213.84H26.616ZM32.6628 210.655C33.5815 210.655 34.3138 210.885 34.8598 211.344C35.4145 211.803 35.7612 212.41 35.8998 213.164H33.8198C33.7592 212.869 33.6205 212.64 33.4038 212.475C33.1958 212.302 32.9315 212.215 32.6108 212.215C32.3595 212.215 32.1688 212.271 32.0388 212.384C31.9088 212.488 31.8438 212.64 31.8438 212.839C31.8438 213.064 31.9608 213.233 32.1948 213.346C32.4375 213.459 32.8145 213.571 33.3258 213.684C33.8805 213.814 34.3355 213.948 34.6908 214.087C35.0462 214.217 35.3538 214.434 35.6138 214.737C35.8738 215.04 36.0038 215.448 36.0038 215.959C36.0038 216.375 35.8912 216.743 35.6658 217.064C35.4405 217.385 35.1155 217.636 34.6908 217.818C34.2662 218 33.7635 218.091 33.1828 218.091C32.2035 218.091 31.4192 217.874 30.8298 217.441C30.2405 217.008 29.8808 216.388 29.7508 215.582H31.8958C31.9305 215.894 32.0605 216.132 32.2858 216.297C32.5198 216.462 32.8188 216.544 33.1828 216.544C33.4342 216.544 33.6248 216.488 33.7548 216.375C33.8848 216.254 33.9498 216.098 33.9498 215.907C33.9498 215.656 33.8285 215.478 33.5858 215.374C33.3518 215.261 32.9662 215.144 32.4288 215.023C31.8915 214.91 31.4495 214.789 31.1028 214.659C30.7562 214.529 30.4572 214.321 30.2058 214.035C29.9545 213.74 29.8288 213.342 29.8288 212.839C29.8288 212.189 30.0758 211.665 30.5698 211.266C31.0638 210.859 31.7615 210.655 32.6628 210.655ZM39.8738 210.655C40.7924 210.655 41.5248 210.885 42.0708 211.344C42.6254 211.803 42.9721 212.41 43.1108 213.164H41.0308C40.9701 212.869 40.8314 212.64 40.6148 212.475C40.4068 212.302 40.1424 212.215 39.8218 212.215C39.5704 212.215 39.3798 212.271 39.2498 212.384C39.1198 212.488 39.0548 212.64 39.0548 212.839C39.0548 213.064 39.1718 213.233 39.4058 213.346C39.6484 213.459 40.0254 213.571 40.5368 213.684C41.0914 213.814 41.5464 213.948 41.9018 214.087C42.2571 214.217 42.5648 214.434 42.8248 214.737C43.0848 215.04 43.2148 215.448 43.2148 215.959C43.2148 216.375 43.1021 216.743 42.8768 217.064C42.6514 217.385 42.3264 217.636 41.9018 217.818C41.4771 218 40.9744 218.091 40.3938 218.091C39.4144 218.091 38.6301 217.874 38.0408 217.441C37.4514 217.008 37.0918 216.388 36.9618 215.582H39.1068C39.1414 215.894 39.2714 216.132 39.4968 216.297C39.7308 216.462 40.0298 216.544 40.3938 216.544C40.6451 216.544 40.8358 216.488 40.9658 216.375C41.0958 216.254 41.1608 216.098 41.1608 215.907C41.1608 215.656 41.0394 215.478 40.7968 215.374C40.5628 215.261 40.1771 215.144 39.6398 215.023C39.1024 214.91 38.6604 214.789 38.3138 214.659C37.9671 214.529 37.6681 214.321 37.4168 214.035C37.1654 213.74 37.0398 213.342 37.0398 212.839C37.0398 212.189 37.2868 211.665 37.7808 211.266C38.2748 210.859 38.9724 210.655 39.8738 210.655ZM47.8387 210.655C48.558 210.655 49.1994 210.807 49.7627 211.11C50.3347 211.405 50.781 211.834 51.1017 212.397C51.431 212.96 51.5957 213.619 51.5957 214.373C51.5957 215.127 51.431 215.786 51.1017 216.349C50.781 216.912 50.3347 217.346 49.7627 217.649C49.1994 217.944 48.558 218.091 47.8387 218.091C47.1194 218.091 46.4737 217.944 45.9017 217.649C45.3297 217.346 44.879 216.912 44.5497 216.349C44.229 215.786 44.0687 215.127 44.0687 214.373C44.0687 213.619 44.229 212.96 44.5497 212.397C44.879 211.834 45.3297 211.405 45.9017 211.11C46.4737 210.807 47.1194 210.655 47.8387 210.655ZM47.8387 212.579C47.414 212.579 47.0544 212.735 46.7597 213.047C46.4737 213.35 46.3307 213.792 46.3307 214.373C46.3307 214.954 46.4737 215.396 46.7597 215.699C47.0544 216.002 47.414 216.154 47.8387 216.154C48.2634 216.154 48.6187 216.002 48.9047 215.699C49.1907 215.396 49.3337 214.954 49.3337 214.373C49.3337 213.792 49.1907 213.35 48.9047 213.047C48.6187 212.735 48.2634 212.579 47.8387 212.579ZM57.3504 210.668C58.1824 210.668 58.8411 210.945 59.3264 211.5C59.8204 212.055 60.0674 212.817 60.0674 213.788V218H57.8444V214.048C57.8444 213.563 57.7144 213.186 57.4544 212.917C57.2031 212.64 56.8651 212.501 56.4404 212.501C55.9898 212.501 55.6301 212.644 55.3614 212.93C55.1014 213.216 54.9714 213.623 54.9714 214.152V218H52.7484V210.746H54.9714V212.072C55.1794 211.639 55.4871 211.296 55.8944 211.045C56.3104 210.794 56.7958 210.668 57.3504 210.668Z" fill="white"/>
<g clip-path="url(#clip0_1859_5067)">
<path d="M146 224.929C153.692 224.929 159.928 218.693 159.928 211.001C159.928 203.308 153.692 197.072 146 197.072C138.307 197.072 132.071 203.308 132.071 211.001C132.071 218.693 138.307 224.929 146 224.929Z" fill="#F7F7F5" stroke="#614C4C" stroke-width="1.46341" stroke-linecap="round" stroke-linejoin="round"/>
<path d="M143.857 204.572L150.286 211.001L143.857 217.429" stroke="#6F2E17" stroke-width="2.19512" stroke-linecap="round" stroke-linejoin="round"/>
</g>
<rect x="15" y="31" width="141" height="141" rx="20" fill="white"/>
<g clip-path="url(#clip1_1859_5067)">
<path d="M50.3207 95.9279C67.1182 98.253 82.6202 86.5209 84.9453 69.7233C87.2705 52.9258 75.5383 37.4239 58.7408 35.0987C41.9432 32.7736 26.4413 44.5057 24.1161 61.3033C21.791 78.1008 33.5232 93.6028 50.3207 95.9279Z" fill="#00ABB3"/>
<path d="M58.7408 35.0987C41.9425 32.7735 26.4414 44.505 24.1161 61.3033C21.7909 78.1016 33.5224 93.6027 50.3207 95.9279C67.119 98.2532 82.6201 86.5216 84.9453 69.7233C87.2706 52.925 75.5391 37.424 58.7408 35.0987ZM50.7864 92.5634C35.8499 90.4958 25.4157 76.709 27.4833 61.7725C29.5508 46.8359 43.3381 36.3987 58.2746 38.4663C73.2112 40.5338 83.6453 54.3206 81.5777 69.2572C79.5102 84.1938 65.7234 94.6279 50.7868 92.5603L50.7864 92.5634Z" fill="#F2F3C9"/>
<path d="M73.0285 89.9841C86.5502 79.7506 89.2159 60.4931 78.9824 46.9714C68.7489 33.4496 49.4914 30.7839 35.9696 41.0175C22.4479 51.251 19.7822 70.5084 30.0157 84.0302C40.2493 97.552 59.5067 100.218 73.0285 89.9841Z" stroke="#663734" stroke-width="1.58775" stroke-miterlimit="10"/>
<path d="M71.2258 87.6001C83.4316 78.3625 85.8378 60.9792 76.6002 48.7733C67.3626 36.5675 49.9793 34.1613 37.7735 43.3989C25.5676 52.6364 23.1614 70.0198 32.399 82.2256C41.6366 94.4314 59.0199 96.8377 71.2258 87.6001Z" stroke="#663734" stroke-width="1.00117" stroke-miterlimit="10"/>
<path d="M50.8726 48.3936C50.3534 48.1574 49.6545 48.3459 49.37 48.8336L48.7717 49.8638C48.4583 50.4033 48.5949 51.0733 49.0288 51.4558L49.7552 52.009C49.648 52.5367 49.5378 53.064 49.5286 53.6456L48.6956 53.9519C48.1262 54.146 47.8331 54.7627 47.9499 55.3524L48.2603 56.5146C48.4254 57.1358 48.9852 57.5264 49.578 57.4101L50.4512 57.2612C50.7224 57.8103 51.0993 58.2903 51.4844 58.6444L51.1004 59.5368C50.8642 60.056 51.0812 60.7061 51.6181 61.016L52.6198 61.6632C53.1105 61.9481 53.8293 61.8399 54.1915 61.3288L54.7162 60.6512C55.2927 60.7868 55.8688 60.9254 56.5276 60.9143L56.8339 61.7473C57.0275 62.3198 57.6442 62.6129 58.2344 62.493L59.3966 62.1827C59.966 61.9886 60.3566 61.4288 60.2921 60.8649L60.192 60.0202C60.6923 59.7205 61.2241 59.3725 61.6036 58.9383L62.3497 59.2369C62.9177 59.5015 63.5674 59.2876 63.8493 58.7964L64.4476 57.7662C64.8098 57.2552 64.6731 56.5852 64.1621 56.223L63.582 55.7552C63.7176 55.1787 63.8074 54.5742 63.8451 53.9438L64.572 53.7096C65.0926 53.4871 65.4345 52.8989 65.2694 52.2777L64.959 51.1155C64.8457 50.5231 64.2544 50.1808 63.6931 50.2489L62.9255 50.3286C62.6543 49.7795 62.2774 49.2995 61.8237 48.8368L62.1707 48.1221C62.3581 47.5745 62.1899 46.9528 61.653 46.6429L60.6513 45.9958C60.1118 45.6824 59.4418 45.819 59.0796 46.3301L58.6118 46.9102C57.9865 46.7461 57.3332 46.6278 56.6714 46.6385L56.4367 45.9146C56.2431 45.3422 55.6264 45.0491 55.0337 45.1655L53.8719 45.4728C53.2507 45.6379 52.86 46.1977 52.9764 46.7905L53.0765 47.6353C52.5762 47.9349 52.0961 48.3118 51.6618 48.7168L50.87 48.3901L50.8726 48.3936ZM58.2752 51.1111C59.7966 51.9914 60.2639 53.9008 59.4121 55.3733C58.4831 56.8662 56.5707 57.3332 55.0985 56.4783C53.5772 55.5981 53.1102 53.6856 53.9931 52.1677C54.8967 50.724 56.8315 50.2075 58.2752 51.1111Z" fill="#4C0000"/>
<path d="M34.9656 50.9569C34.5544 50.7698 34.0039 50.9168 33.7797 51.3043L33.3072 52.1194C33.0593 52.5439 33.1689 53.0738 33.5112 53.3785L34.0864 53.8146C34.0009 54.2307 33.9154 54.6467 33.9074 55.1075L33.2479 55.348C32.796 55.4993 32.567 55.9885 32.6572 56.4567L32.9023 57.3743C33.033 57.8636 33.4738 58.1727 33.9421 58.0825L34.6313 57.9639C34.8438 58.3995 35.1417 58.7787 35.4473 59.0566L35.142 59.7615C34.9549 60.1728 35.1261 60.6832 35.5506 60.9311L36.342 61.4406C36.7295 61.6648 37.2963 61.5789 37.5817 61.1751L37.9971 60.6373C38.4532 60.7469 38.9067 60.8531 39.4287 60.8448L39.6696 61.5013C39.8209 61.9532 40.3097 62.1851 40.7783 62.0919L41.6989 61.8473C42.1508 61.6959 42.4572 61.2516 42.4041 60.8071L42.326 60.139C42.7215 59.9023 43.1407 59.6286 43.4424 59.2859L44.0298 59.5222C44.4785 59.73 44.9915 59.5623 45.2157 59.1748L45.6882 58.3597C45.9735 57.9559 45.8669 57.4265 45.4631 57.1411L45.0028 56.7705C45.112 56.3174 45.1816 55.8372 45.2103 55.3389L45.785 55.1518C46.1968 54.9763 46.4658 54.5113 46.3351 54.022L46.0901 53.1044C45.9999 52.6362 45.5348 52.3672 45.0873 52.42L44.4804 52.4817C44.2644 52.0487 43.9669 51.6665 43.611 51.3041L43.8873 50.7409C44.034 50.3085 43.9033 49.8192 43.4788 49.5713L42.6874 49.0618C42.2598 48.8135 41.733 48.9235 41.4447 49.327L41.0744 49.7842C40.5809 49.6538 40.0637 49.5605 39.5412 49.5719L39.3537 49.0003C39.2024 48.5484 38.7136 48.3164 38.2449 48.4097L37.3274 48.6547C36.8381 48.7854 36.5286 49.2293 36.6192 49.6945L36.6973 50.3626C36.3018 50.5993 35.9226 50.8971 35.5809 51.2157L34.9565 50.9556L34.9656 50.9569ZM40.8135 53.1026C42.0161 53.7993 42.384 55.3074 41.7116 56.4699C40.9779 57.6488 39.4663 58.0193 38.3042 57.3438C37.1421 56.6683 36.7337 55.1391 37.4303 53.9365C38.1433 52.795 39.6725 52.3866 40.8139 53.0996L40.8135 53.1026Z" fill="#4C0000"/>
<path d="M68.1609 55.5526C67.7497 55.3655 67.1992 55.5125 66.975 55.9L66.5025 56.7151C66.2547 57.1396 66.3642 57.6695 66.7065 57.9742L67.2817 58.4103C67.1962 58.8264 67.1107 59.2424 67.1027 59.7032L66.4432 59.9437C65.9913 60.095 65.7624 60.5842 65.8526 61.0524L66.0976 61.97C66.2283 62.4593 66.6692 62.7684 67.1374 62.6782L67.8266 62.5596C68.0391 62.9952 68.337 63.3744 68.6426 63.6523L68.3373 64.3572C68.1502 64.7685 68.3214 65.2789 68.7459 65.5268L69.5373 66.0363C69.9248 66.2605 70.4917 66.1746 70.777 65.7708L71.1925 65.233C71.6485 65.3426 72.102 65.4488 72.624 65.4405L72.8649 66.097C73.0162 66.5489 73.505 66.7808 73.9736 66.6876L74.8942 66.443C75.3461 66.2916 75.6525 65.8473 75.5994 65.4028L75.5213 64.7347C75.9168 64.498 76.3361 64.2243 76.6377 63.8816L77.2251 64.1179C77.6738 64.3257 78.1868 64.158 78.411 63.7705L78.8835 62.9554C79.1688 62.5516 79.0623 62.0222 78.6584 61.7368L78.1981 61.3662C78.3074 60.9131 78.3769 60.4329 78.4056 59.9346L78.9803 59.7475C79.3921 59.572 79.6611 59.107 79.5304 58.6177L79.2854 57.7001C79.1952 57.2319 78.7301 56.9629 78.2826 57.0157L77.6757 57.0774C77.4597 56.6444 77.1622 56.2622 76.8063 55.8998L77.0826 55.3366C77.2293 54.9042 77.0986 54.4149 76.6741 54.167L75.8827 53.6575C75.4551 53.4092 74.9283 53.5192 74.64 53.9227L74.2697 54.3799C73.7762 54.2495 73.259 54.1562 72.7365 54.1676L72.549 53.596C72.3977 53.1441 71.9089 52.9121 71.4403 53.0054L70.5227 53.2504C70.0334 53.3811 69.7239 53.825 69.8145 54.2902L69.8926 54.9583C69.4971 55.195 69.1179 55.4929 68.7762 55.8114L68.1518 55.5513L68.1609 55.5526ZM74.0119 57.6988C75.2145 58.3954 75.5824 59.9035 74.9099 61.066C74.1763 62.2449 72.6647 62.6155 71.5026 61.9399C70.3 61.2433 69.932 59.7352 70.6287 58.5326C71.3416 57.3911 72.8708 56.9827 74.0123 57.6957L74.0119 57.6988Z" fill="#4C0000"/>
<path d="M43.9573 69.7655C43.6038 69.5864 43.2808 69.4114 42.9947 69.2385C42.7086 69.0656 42.4689 68.8712 42.2725 68.6549C42.0761 68.4386 41.9365 68.1929 41.8506 67.9175C41.7647 67.6421 41.7473 67.3203 41.7991 66.9462C41.8989 66.2252 42.2553 65.6886 42.8687 65.3332C43.4822 64.9779 44.2908 64.8697 45.2886 65.0078C45.6537 65.0584 45.988 65.1294 46.2942 65.2245C46.6003 65.3196 46.8575 65.4327 47.0679 65.5703C47.2783 65.708 47.4331 65.8658 47.5382 66.0478C47.6432 66.2297 47.6801 66.4333 47.6498 66.6523C47.6195 66.8713 47.5417 67.0528 47.4194 67.1971C47.2975 67.3383 47.1543 67.4549 46.9961 67.5446C46.827 67.4003 46.5918 67.2624 46.2907 67.1308C45.9896 66.9992 45.6522 66.906 45.281 66.8546C44.9099 66.8032 44.6137 66.8149 44.4226 66.897C44.2314 66.979 44.1216 67.1002 44.0997 67.2584C44.082 67.3862 44.1225 67.4972 44.221 67.5915C44.3196 67.6857 44.4733 67.7845 44.6861 67.8822L45.3285 68.1912C46.0906 68.554 46.657 68.9642 47.0286 69.4155C47.4002 69.8669 47.542 70.4322 47.4481 71.1106C47.3483 71.8316 46.985 72.3735 46.3546 72.7389C45.7243 73.1042 44.86 73.2109 43.7618 73.0589C43.3725 73.005 43.0147 72.9245 42.6889 72.8143C42.3631 72.7041 42.0837 72.5724 41.8515 72.4132C41.6189 72.2569 41.4453 72.0779 41.3306 71.876C41.2159 71.6741 41.175 71.4545 41.2079 71.2172C41.2407 70.9799 41.344 70.771 41.511 70.6174C41.678 70.4638 41.8547 70.3519 42.0346 70.2838C42.2462 70.5022 42.5129 70.7034 42.8377 70.8879C43.1625 71.0724 43.5274 71.1911 43.932 71.2471C44.3366 71.3031 44.6466 71.2809 44.8347 71.1767C45.0227 71.0725 45.1251 70.9379 45.1486 70.7675C45.1722 70.5972 45.123 70.4601 44.9983 70.353C44.8736 70.2458 44.6972 70.1315 44.4626 70.0122L43.9547 69.762L43.9573 69.7655Z" fill="#F2F3C9"/>
<path d="M50.5737 73.7483C50.476 73.7595 50.3262 73.7667 50.1251 73.7637C49.924 73.7606 49.7242 73.7485 49.5295 73.7215C49.3348 73.6946 49.1665 73.6558 49.0217 73.6047C48.8768 73.5537 48.7593 73.4847 48.6694 73.3948C48.5795 73.3048 48.5182 73.1878 48.485 73.0468C48.4519 72.9058 48.4524 72.7229 48.4827 72.5039L49.4108 65.7992C49.5076 65.794 49.6566 65.7929 49.8646 65.7907C50.0726 65.7885 50.2694 65.8002 50.455 65.8259C50.6405 65.8516 50.8179 65.8917 50.9628 65.9427C51.1076 65.9938 51.2252 66.0627 51.315 66.1527C51.4049 66.2426 51.4662 66.3596 51.4994 66.5007C51.5326 66.6417 51.5321 66.8245 51.5018 67.0435L50.5737 73.7483Z" fill="#F2F3C9"/>
<path d="M52.6813 68.0642C52.6366 67.9619 52.596 67.8292 52.5697 67.6612C52.5403 67.4928 52.5391 67.3222 52.564 67.1427C52.6094 66.8141 52.7153 66.587 52.8846 66.4616C53.0534 66.3392 53.2552 66.2927 53.4924 66.3256L59.029 67.092C59.0738 67.1943 59.1143 67.327 59.1406 67.495C59.17 67.6634 59.1712 67.834 59.1464 68.0135C59.1009 68.3421 58.995 68.5692 58.8258 68.6946C58.6569 68.817 58.4552 68.8635 58.2179 68.8306L56.8094 68.6356L55.9975 74.5007C55.8999 74.512 55.7501 74.5192 55.549 74.5162C55.3479 74.5131 55.148 74.501 54.9533 74.474C54.7586 74.4471 54.5904 74.4083 54.4455 74.3572C54.3007 74.3062 54.1831 74.2372 54.0933 74.1472C54.0034 74.0573 53.9421 73.9403 53.9089 73.7993C53.8757 73.6583 53.8762 73.4754 53.9065 73.2564L54.5883 68.3313L52.6839 68.0677L52.6813 68.0642Z" fill="#F2F3C9"/>
<path d="M60.1777 68.4937C60.2282 68.1286 60.3742 67.8574 60.6136 67.6735C60.853 67.4896 61.1563 67.4262 61.5214 67.4767L65.7103 68.0566C65.755 68.1589 65.793 68.2881 65.8175 68.4465C65.8421 68.605 65.8441 68.7696 65.8205 68.9399C65.7759 69.2624 65.6744 69.4809 65.5159 69.5953C65.3574 69.7098 65.1652 69.7545 64.934 69.7225L62.254 69.3515L62.0906 70.5319L64.9471 70.9273C64.9918 71.0296 65.0302 71.1558 65.0552 71.3112C65.0802 71.4665 65.0826 71.6281 65.059 71.7985C65.0144 72.1209 64.9159 72.3398 64.7605 72.4547C64.605 72.5696 64.4159 72.6147 64.1877 72.5831L61.8514 72.2598L61.667 73.5922L64.9311 74.044C64.9759 74.1463 65.0138 74.2756 65.0383 74.434C65.0629 74.5924 65.0649 74.757 65.0414 74.9274C64.9967 75.2498 64.8948 75.4713 64.7359 75.5889C64.577 75.7064 64.3844 75.7541 64.1532 75.7221L60.4449 75.2088C60.0798 75.1583 59.8086 75.0122 59.6247 74.7729C59.4413 74.5304 59.3774 74.2302 59.4279 73.8651L60.1712 68.4959L60.1777 68.4937Z" fill="#F2F3C9"/>
<path d="M40.6487 79.6014C40.2953 79.4223 39.9722 79.2474 39.6861 79.0745C39.4 78.9015 39.1603 78.7071 38.9639 78.4908C38.7675 78.2745 38.6279 78.0289 38.542 77.7535C38.4561 77.478 38.4387 77.1563 38.4905 76.7821C38.5903 76.0611 38.9467 75.5245 39.5601 75.1692C40.1736 74.8138 40.9822 74.7056 41.98 74.8438C42.3451 74.8943 42.6794 74.9654 42.9856 75.0605C43.2917 75.1555 43.5489 75.2687 43.7593 75.4063C43.9697 75.5439 44.1245 75.7018 44.2296 75.8837C44.3346 76.0657 44.3715 76.2692 44.3412 76.4882C44.3109 76.7073 44.2331 76.8887 44.1108 77.033C43.9889 77.1743 43.8457 77.2909 43.6875 77.3806C43.5184 77.2363 43.2833 77.0983 42.9821 76.9667C42.681 76.8351 42.3436 76.7419 41.9724 76.6905C41.6013 76.6391 41.3052 76.6509 41.114 76.7329C40.9228 76.815 40.813 76.9362 40.7911 77.0944C40.7734 77.2221 40.8139 77.3331 40.9124 77.4274C41.011 77.5216 41.1647 77.6204 41.3775 77.7181L42.02 78.0271C42.782 78.39 43.3484 78.8001 43.72 79.2515C44.0916 79.7029 44.2334 80.2682 44.1395 80.9465C44.0397 81.6675 43.6764 82.2094 43.046 82.5748C42.4157 82.9402 41.5514 83.0469 40.4532 82.8949C40.0639 82.841 39.7061 82.7604 39.3803 82.6502C39.0545 82.54 38.7751 82.4083 38.5429 82.2491C38.3103 82.0929 38.1367 81.9138 38.022 81.7119C37.9073 81.51 37.8664 81.2904 37.8993 81.0532C37.9321 80.8159 38.0354 80.607 38.2024 80.4534C38.3694 80.2998 38.5461 80.1878 38.7261 80.1197C38.9376 80.3381 39.2043 80.5393 39.5291 80.7238C39.8539 80.9083 40.2188 81.027 40.6234 81.083C41.028 81.139 41.338 81.1168 41.5261 81.0126C41.7141 80.9084 41.8165 80.7738 41.8401 80.6034C41.8636 80.4331 41.8144 80.2961 41.6897 80.1889C41.565 80.0817 41.3886 79.9674 41.154 79.8481L40.6461 79.598L40.6487 79.6014Z" fill="#F2F3C9"/>
<path d="M47.7556 76.096C47.9103 76.0306 48.1403 75.9819 48.4429 75.9462C48.7455 75.9106 49.046 75.9119 49.3411 75.9528C49.7639 76.0113 50.1297 76.1239 50.4379 76.2937C50.7462 76.4635 50.9295 76.6842 50.9876 76.9589C51.0787 77.421 51.1722 77.9548 51.2708 78.5637C51.3664 79.1722 51.4625 79.7994 51.5527 80.4475C51.6432 81.0925 51.7315 81.731 51.8181 82.3599C51.9046 82.9889 51.9766 83.5445 52.0399 84.0276C51.9231 84.1324 51.7579 84.2056 51.544 84.2504C51.3301 84.2952 51.0851 84.2954 50.8053 84.2567C50.6014 84.2284 50.4336 84.1866 50.2983 84.1338C50.163 84.0809 50.0576 84.0137 49.9756 83.9341C49.8936 83.8545 49.8358 83.7566 49.7967 83.6365C49.7571 83.5194 49.7261 83.3849 49.7033 83.236L49.5964 82.3283L47.2996 82.0104C47.1978 82.2536 47.0912 82.5086 46.9868 82.7701C46.8824 83.0316 46.7762 83.2835 46.6739 83.5298C46.5493 83.5559 46.4196 83.5752 46.285 83.5845C46.15 83.5968 45.9897 83.5901 45.8011 83.564C45.3691 83.5042 45.0598 83.387 44.8735 83.2093C44.6873 83.0316 44.6121 82.8134 44.6483 82.5518C44.6647 82.4332 44.6994 82.3171 44.7493 82.203C44.7992 82.089 44.8581 81.9546 44.923 81.7992C45.0124 81.5791 45.1337 81.3075 45.2873 80.9816C45.4405 80.6586 45.6071 80.3065 45.7892 79.9318C45.9712 79.5571 46.1611 79.171 46.3648 78.7745C46.5651 78.3805 46.7563 78.007 46.935 77.6566C47.1137 77.3062 47.2748 76.9937 47.4208 76.7225C47.5673 76.4482 47.6798 76.2406 47.7586 76.0965L47.7556 76.096ZM49.0531 77.9436C48.8852 78.2831 48.6966 78.6601 48.4904 79.0749C48.2811 79.4893 48.0858 79.9149 47.9052 80.3456L49.481 80.5638C49.4255 80.091 49.3658 79.627 49.3043 79.1751C49.2428 78.7233 49.1846 78.3153 49.1292 77.9542L49.0531 77.9436Z" fill="#F2F3C9"/>
<path d="M59.5211 77.4928C59.5658 77.5951 59.6033 77.7274 59.6275 77.8889C59.6512 78.0534 59.6532 78.218 59.6297 78.3884C59.5838 78.72 59.4814 78.9445 59.3221 79.0651C59.1628 79.1856 58.9645 79.2295 58.7272 79.1967L56.0623 78.8278L55.8636 80.2636L58.644 80.6485C58.6979 80.7521 58.7389 80.8818 58.7634 81.0402C58.788 81.1986 58.79 81.3632 58.7665 81.5336C58.7218 81.856 58.6199 82.0775 58.461 82.195C58.3017 82.3156 58.1034 82.3595 57.8661 82.3266L55.6454 82.0192L55.2744 84.6993C55.1767 84.7106 55.0269 84.7177 54.8258 84.7147C54.6247 84.7117 54.4249 84.6995 54.2302 84.6726C54.0355 84.6456 53.8672 84.6068 53.7224 84.5558C53.5775 84.5047 53.46 84.4357 53.3701 84.3458C53.2802 84.2558 53.2189 84.1388 53.1857 83.9978C53.1526 83.8568 53.1531 83.674 53.1834 83.4549L53.9481 77.9305C53.9986 77.5655 54.1447 77.2943 54.384 77.1104C54.6234 76.9265 54.9267 76.8631 55.2918 76.9136L59.5203 77.4989L59.5211 77.4928Z" fill="#F2F3C9"/>
<path d="M60.6904 78.8589C60.7409 78.4939 60.8869 78.2226 61.1263 78.0387C61.3657 77.8549 61.669 77.7914 62.0341 77.842L66.223 78.4218C66.2677 78.5241 66.3057 78.6534 66.3302 78.8118C66.3548 78.9702 66.3568 79.1348 66.3332 79.3052C66.2886 79.6276 66.1871 79.8461 66.0286 79.9606C65.8701 80.0751 65.6779 80.1198 65.4467 80.0877L62.7667 79.7168L62.6033 80.8971L65.4598 81.2925C65.5045 81.3948 65.5429 81.521 65.5679 81.6764C65.5929 81.8318 65.5953 81.9933 65.5717 82.1637C65.5271 82.4861 65.4286 82.705 65.2732 82.8199C65.1177 82.9348 64.9286 82.98 64.7004 82.9484L62.3641 82.625L62.1797 83.9574L65.4438 84.4092C65.4886 84.5115 65.5265 84.6408 65.551 84.7992C65.5756 84.9577 65.5776 85.1222 65.5541 85.2926C65.5094 85.6151 65.4074 85.8366 65.2486 85.9541C65.0897 86.0716 64.8971 86.1194 64.6659 86.0874L60.9576 85.5741C60.5925 85.5235 60.3213 85.3775 60.1374 85.1381C59.954 84.8957 59.8901 84.5954 59.9406 84.2304L60.6839 78.8611L60.6904 78.8589Z" fill="#F2F3C9"/>
</g>
<g clip-path="url(#clip2_1859_5067)">
<path d="M105.13 123.469C102.602 123.647 100.334 122.075 99.6128 119.646L88.1368 80.9139C87.6717 79.3478 87.9408 77.6804 88.8722 76.3356C89.8038 74.9936 91.2711 74.1575 92.8998 74.0427L103.719 73.2798L109.529 66.5876C110.468 65.5068 111.771 64.8567 113.2 64.756L126.093 63.8468C127.522 63.7461 128.904 64.2068 129.985 65.1452L136.677 70.9558L147.496 70.1929C149.125 70.0781 150.698 70.6997 151.805 71.8979C152.916 73.0958 153.414 74.7091 153.176 76.3278L147.249 116.287C146.876 118.793 144.851 120.671 142.323 120.849L105.13 123.472L105.13 123.469Z" fill="#FFAA3E"/>
<path d="M105.021 121.926C103.225 122.053 101.611 120.934 101.099 119.205L89.6235 80.4738C89.2949 79.3602 89.4844 78.1724 90.1469 77.2186C90.8093 76.2648 91.8518 75.6709 93.0119 75.5891L104.175 74.802C104.366 74.7885 104.54 74.7006 104.664 74.5582L110.7 67.6059C111.367 66.8379 112.294 66.3742 113.312 66.3024L126.205 65.3933C127.221 65.3217 128.203 65.6507 128.974 66.3173L135.927 72.3537C136.069 72.4774 136.254 72.54 136.445 72.5265L147.608 71.7394C148.768 71.6576 149.884 72.0993 150.673 72.9506C151.463 73.802 151.817 74.9515 151.648 76.1002L145.724 116.059C145.46 117.842 144.019 119.176 142.223 119.303L105.021 121.926Z" fill="#F15A24"/>
<path d="M111.869 68.6201L105.832 75.5724C105.44 76.0245 104.881 76.3052 104.282 76.3474L93.1187 77.1346C91.6752 77.2364 90.6962 78.6486 91.1079 80.0353L102.581 118.767C102.882 119.784 103.851 120.457 104.91 120.382L142.103 117.76C143.162 117.685 144.027 116.885 144.183 115.834L150.107 75.8751C150.32 74.4443 149.153 73.1835 147.709 73.2852L136.546 74.0724C135.947 74.1146 135.354 73.918 134.902 73.5226L127.95 67.4861C127.498 67.0936 126.905 66.8941 126.306 66.9363L113.413 67.8454C112.814 67.8877 112.255 68.1655 111.863 68.6205L111.869 68.6201Z" fill="#FFAA3E"/>
<path d="M120.344 70.1232L121.198 71.7608C121.285 71.9262 121.452 72.0336 121.642 72.0377L123.488 72.0848C123.937 72.0968 124.158 72.6394 123.843 72.9581L122.55 74.2762C122.419 74.4103 122.369 74.6029 122.422 74.7823L122.949 76.5534C123.078 76.9833 122.628 77.361 122.227 77.1596L120.573 76.3372C120.404 76.2532 120.207 76.267 120.052 76.3739L118.53 77.4203C118.158 77.6762 117.662 77.3652 117.73 76.9214L118.002 75.0939C118.03 74.9088 117.956 74.7251 117.805 74.6107L116.339 73.4872C115.983 73.2129 116.123 72.6477 116.569 72.5727L118.39 72.267C118.574 72.2365 118.728 72.1065 118.791 71.9305L119.407 70.1893C119.557 69.7659 120.138 69.7249 120.347 70.123L120.344 70.1232Z" fill="#F2F3C9"/>
<path d="M109.078 93.2517L99.4912 93.9277L99.56 94.9026L109.147 94.2266L109.078 93.2517Z" fill="#F2F3C9"/>
<path d="M105.498 96.2875L99.6865 96.6973L99.7553 97.6721L105.567 97.2623L105.498 96.2875Z" fill="#F2F3C9"/>
<path d="M133.871 92.4807L143.458 91.8047L143.389 90.8298L133.802 91.5058L133.871 92.4807Z" fill="#F2F3C9"/>
<path d="M137.842 94.984L143.653 94.5742L143.585 93.5993L137.773 94.0091L137.842 94.984Z" fill="#F2F3C9"/>
<path d="M98.0373 85.4354C97.989 85.369 97.942 85.2793 97.896 85.1633C97.85 85.0474 97.8239 84.9242 97.8147 84.794C97.7976 84.551 97.8403 84.3736 97.9427 84.2588C98.0451 84.144 98.1832 84.082 98.3567 84.0697L102.43 83.7825C102.478 83.8489 102.525 83.9386 102.571 84.0545C102.617 84.1705 102.643 84.2937 102.652 84.4238C102.67 84.6668 102.627 84.8443 102.524 84.9591C102.422 85.0739 102.284 85.1359 102.11 85.1482L101.075 85.2212L101.379 89.5373C101.311 89.5595 101.205 89.5873 101.062 89.6149C100.918 89.6424 100.772 89.6644 100.63 89.6744C100.488 89.6844 100.36 89.6818 100.249 89.6693C100.137 89.6568 100.045 89.6226 99.9658 89.573C99.8867 89.5233 99.8263 89.4491 99.7815 89.3505C99.737 89.2548 99.7102 89.1229 99.6988 88.9609L99.4432 85.3362L98.0431 85.435L98.0373 85.4354Z" fill="black"/>
<path d="M103.079 86.6022C103.045 86.1162 103.089 85.6798 103.216 85.2958C103.343 84.9119 103.53 84.5847 103.775 84.3116C104.023 84.0412 104.319 83.8284 104.669 83.6701C105.018 83.5117 105.401 83.4207 105.818 83.3913C106.234 83.362 106.627 83.4012 106.995 83.5061C107.362 83.6109 107.688 83.7798 107.975 84.0154C108.262 84.251 108.492 84.5459 108.672 84.9111C108.852 85.2735 108.958 85.6992 108.992 86.1852C109.026 86.6712 108.981 87.1075 108.857 87.4942C108.733 87.8809 108.55 88.2107 108.302 88.4811C108.053 88.7516 107.755 88.9645 107.402 89.1231C107.05 89.2788 106.661 89.373 106.239 89.4028C105.816 89.4326 105.418 89.3938 105.047 89.2862C104.676 89.1787 104.35 89.004 104.072 88.7678C103.793 88.5316 103.566 88.2307 103.389 87.8682C103.212 87.5056 103.11 87.0826 103.076 86.6024L103.079 86.6022ZM104.76 86.4836C104.8 87.0506 104.945 87.4648 105.196 87.7291C105.448 87.9934 105.764 88.1106 106.152 88.0833C106.539 88.056 106.845 87.8949 107.056 87.5979C107.268 87.301 107.351 86.8707 107.311 86.3037C107.271 85.7367 107.129 85.331 106.881 85.0665C106.632 84.802 106.313 84.685 105.923 84.7125C105.532 84.7401 105.235 84.9006 105.023 85.1946C104.812 85.4886 104.723 85.9193 104.763 86.4863L104.76 86.4836Z" fill="black"/>
<path d="M109.645 86.1393C109.611 85.6533 109.656 85.2169 109.783 84.8329C109.91 84.449 110.096 84.1219 110.341 83.8487C110.59 83.5783 110.886 83.3655 111.235 83.2072C111.585 83.0488 111.968 82.9578 112.384 82.9285C112.801 82.8991 113.193 82.9383 113.561 83.0432C113.929 83.148 114.255 83.3169 114.542 83.5525C114.829 83.7881 115.059 84.083 115.239 84.4482C115.418 84.8106 115.524 85.2363 115.558 85.7223C115.592 86.2083 115.548 86.6446 115.424 87.0313C115.3 87.418 115.117 87.7478 114.868 88.0182C114.62 88.2887 114.321 88.5016 113.969 88.6602C113.616 88.8159 113.228 88.9101 112.805 88.9399C112.383 88.9697 111.985 88.9309 111.614 88.8233C111.243 88.7158 110.916 88.5411 110.638 88.3049C110.36 88.0687 110.132 87.7678 109.956 87.4053C109.779 87.0427 109.676 86.6197 109.642 86.1395L109.645 86.1393ZM111.329 86.0205C111.369 86.5875 111.514 87.0017 111.766 87.266C112.017 87.5303 112.333 87.6475 112.721 87.6202C113.109 87.5929 113.414 87.4318 113.626 87.1348C113.837 86.8379 113.92 86.4076 113.88 85.8406C113.84 85.2736 113.698 84.8679 113.45 84.6034C113.202 84.3389 112.882 84.2219 112.492 84.2494C112.101 84.277 111.805 84.4375 111.593 84.7315C111.381 85.0255 111.292 85.4562 111.332 86.0232L111.329 86.0205Z" fill="black"/>
<path d="M117.566 88.4606C117.297 88.4795 117.08 88.4163 116.913 88.2711C116.746 88.1259 116.653 87.9203 116.634 87.6512L116.293 82.8202C116.362 82.8038 116.467 82.7788 116.616 82.7451C116.765 82.7113 116.906 82.6927 117.045 82.6829C117.184 82.6731 117.315 82.6755 117.426 82.688C117.538 82.7005 117.633 82.7345 117.709 82.7843C117.788 82.834 117.849 82.9082 117.894 83.0068C117.938 83.1025 117.965 83.2344 117.976 83.3964L118.237 87.0876L120.377 86.9366C120.425 87.003 120.472 87.0898 120.518 87.2029C120.564 87.3159 120.59 87.4333 120.598 87.5577C120.616 87.8065 120.576 87.9866 120.476 88.0954C120.377 88.2071 120.241 88.2661 120.068 88.2783L117.563 88.455L117.566 88.4606Z" fill="black"/>
<path d="M122.787 83.6893C122.739 83.6229 122.692 83.5332 122.646 83.4172C122.6 83.3013 122.574 83.1781 122.565 83.0479C122.548 82.8049 122.59 82.6275 122.693 82.5127C122.795 82.3979 122.933 82.3359 123.107 82.3236L127.18 82.0364C127.228 82.1028 127.275 82.1925 127.321 82.3084C127.367 82.4244 127.393 82.5476 127.402 82.6777C127.42 82.9207 127.377 83.0982 127.274 83.213C127.172 83.3278 127.034 83.3898 126.86 83.4021L125.825 83.4751L126.129 87.7912C126.061 87.8134 125.955 87.8412 125.812 87.8688C125.668 87.8963 125.522 87.9183 125.38 87.9283C125.238 87.9383 125.11 87.9357 124.999 87.9232C124.887 87.9107 124.795 87.8765 124.716 87.8269C124.637 87.7772 124.576 87.703 124.532 87.6044C124.487 87.5087 124.46 87.3768 124.449 87.2148L124.193 83.5901L122.793 83.6889L122.787 83.6893Z" fill="black"/>
<path d="M128.997 82.1067C129.1 82.0384 129.255 81.9665 129.465 81.8964C129.675 81.8264 129.89 81.7821 130.11 81.7666C130.422 81.7446 130.7 81.7715 130.947 81.8443C131.193 81.917 131.356 82.0479 131.44 82.2369C131.575 82.5529 131.723 82.9204 131.884 83.3422C132.044 83.7641 132.206 84.1975 132.371 84.6452C132.533 85.0931 132.693 85.5354 132.848 85.9721C133.004 86.4088 133.142 86.7945 133.259 87.1322C133.19 87.2243 133.082 87.3017 132.938 87.3671C132.794 87.4324 132.617 87.4682 132.411 87.4827C132.261 87.4933 132.136 87.4905 132.03 87.4718C131.924 87.4531 131.837 87.4243 131.77 87.3767C131.7 87.3323 131.643 87.2694 131.597 87.1913C131.551 87.1131 131.51 87.023 131.47 86.9182L131.257 86.2849L129.565 86.4043C129.529 86.5958 129.493 86.7902 129.455 86.9934C129.42 87.1965 129.384 87.3938 129.345 87.5826C129.261 87.6205 129.17 87.6531 129.076 87.6801C128.982 87.71 128.864 87.727 128.728 87.7366C128.41 87.759 128.172 87.7206 128.011 87.6215C127.85 87.5224 127.764 87.3772 127.75 87.1834C127.744 87.0966 127.75 87.009 127.769 86.9204C127.789 86.8318 127.808 86.7258 127.832 86.605C127.863 86.4341 127.909 86.2216 127.97 85.9673C128.03 85.713 128.095 85.438 128.17 85.142C128.242 84.8462 128.323 84.5411 128.405 84.23C128.491 83.9187 128.569 83.6225 128.642 83.344C128.716 83.0656 128.786 82.8194 128.849 82.6027C128.912 82.386 128.961 82.2197 128.997 82.1038L128.997 82.1067ZM130.202 83.2341C130.133 83.5006 130.055 83.7997 129.968 84.1285C129.881 84.4574 129.805 84.7883 129.742 85.1271L130.899 85.0455C130.789 84.7161 130.676 84.3926 130.563 84.0778C130.451 83.7631 130.347 83.4826 130.254 83.2304L130.199 83.2343L130.202 83.2341Z" fill="black"/>
<path d="M134.909 87.2379C134.64 87.2569 134.423 87.1937 134.256 87.0485C134.088 86.9033 133.995 86.6976 133.976 86.4286L133.636 81.5976C133.704 81.5811 133.81 81.5562 133.959 81.5224C134.108 81.4887 134.249 81.47 134.388 81.4602C134.527 81.4504 134.658 81.4528 134.769 81.4653C134.88 81.4778 134.976 81.5118 135.052 81.5617C135.131 81.6113 135.192 81.6856 135.236 81.7841C135.281 81.8799 135.308 82.0117 135.319 82.1737L135.579 85.8649L137.72 85.714C137.768 85.7804 137.815 85.8672 137.861 85.9802C137.907 86.0933 137.932 86.2107 137.941 86.3351C137.959 86.5838 137.919 86.764 137.819 86.8728C137.719 86.9845 137.584 87.0434 137.41 87.0557L134.905 87.2323L134.909 87.2379Z" fill="black"/>
<path d="M140.327 84.7176L140.472 86.7831C140.404 86.8053 140.299 86.8331 140.149 86.8611C140 86.889 139.856 86.9108 139.712 86.921C139.567 86.9312 139.442 86.9284 139.33 86.9159C139.219 86.9034 139.127 86.8692 139.047 86.8196C138.968 86.7699 138.908 86.6957 138.863 86.5971C138.819 86.5014 138.792 86.3695 138.78 86.2075L138.433 81.2753C138.501 81.2588 138.607 81.2339 138.756 81.2002C138.905 81.1664 139.046 81.1478 139.185 81.138C139.324 81.1282 139.455 81.1306 139.566 81.1431C139.677 81.1556 139.773 81.1895 139.849 81.2394C139.928 81.2891 139.988 81.3633 140.033 81.4619C140.078 81.5576 140.104 81.6894 140.116 81.8514L140.221 83.3383L142.007 80.968C142.43 80.9382 142.739 80.9949 142.935 81.141C143.129 81.2872 143.234 81.4687 143.25 81.6857C143.261 81.8477 143.232 82.0039 143.161 82.1513C143.09 82.3017 142.971 82.4728 142.801 82.665L141.715 83.9162C141.884 84.0787 142.058 84.2495 142.245 84.4224C142.429 84.5984 142.61 84.7689 142.787 84.9337C142.964 85.0985 143.135 85.258 143.3 85.4092C143.465 85.5604 143.605 85.69 143.726 85.8007C143.736 85.9366 143.718 86.06 143.676 86.1705C143.635 86.281 143.575 86.3753 143.496 86.4565C143.417 86.5376 143.326 86.5993 143.221 86.6445C143.117 86.6896 143.008 86.7147 142.89 86.7231C142.635 86.741 142.422 86.6921 142.251 86.5762C142.081 86.4604 141.914 86.3209 141.754 86.1549L140.329 84.7145L140.327 84.7176Z" fill="black"/>
<path d="M131.688 108.79C131.313 108.255 130.808 107.741 130.174 107.533C129.65 107.358 129.096 107.37 128.552 107.368C128.049 107.366 127.521 107.336 127.119 107.004C125.492 105.604 123.867 104.204 122.239 102.807C121.4 102.084 120.558 101.362 119.72 100.639C119.385 100.351 119.01 100.096 118.829 99.681C118.628 99.2155 118.602 98.6911 118.51 98.1976C118.361 97.4173 118.043 96.8205 117.399 96.3397C116.65 95.782 115.738 95.4597 114.805 95.4644C114.561 95.4671 114.479 95.7926 114.65 95.9405C115.25 96.4564 115.847 96.9724 116.448 97.4883C116.398 98.1488 116.349 98.8064 116.297 99.4671C115.653 99.6142 115.006 99.7645 114.363 99.9116C113.762 99.3958 113.165 98.8797 112.564 98.3639C112.394 98.216 112.081 98.3486 112.118 98.5901C112.215 99.2607 112.476 99.8789 112.867 100.43C113.229 100.945 113.718 101.446 114.321 101.668C115.273 102.016 116.414 101.593 117.303 102.114C117.524 102.244 117.717 102.457 117.909 102.624C118.153 102.836 118.401 103.046 118.645 103.258C119.159 103.699 119.673 104.142 120.187 104.583C121.233 105.483 122.282 106.386 123.328 107.286C123.938 107.81 124.544 108.334 125.154 108.858C125.426 109.092 125.639 109.306 125.765 109.649C125.891 109.989 125.934 110.355 125.988 110.712C126.118 111.525 126.349 112.233 127.008 112.768C127.779 113.394 128.753 113.761 129.747 113.755C129.991 113.753 130.072 113.424 129.902 113.279C129.302 112.763 128.704 112.247 128.104 111.731C128.153 111.071 128.203 110.413 128.255 109.753C128.899 109.605 129.545 109.455 130.189 109.308C130.79 109.824 131.387 110.34 131.987 110.856C132.158 111.004 132.471 110.871 132.434 110.63C132.337 109.959 132.075 109.341 131.685 108.79L131.688 108.79Z" fill="#4C0000"/>
<path d="M133.865 100.272L132.187 98.8179C131.93 98.5947 131.507 98.6565 131.246 98.9569L131.029 99.2078L130.75 98.9658L131.027 98.6468C131.285 98.3466 131.287 97.9191 131.03 97.696L129.008 95.943C129.008 95.943 125.659 92.3184 123.279 95.062C123.279 95.062 124.352 94.8177 126.416 96.2537L125.09 97.7833C124.83 98.0837 124.831 98.511 125.088 98.7342L125.558 99.1429C125.506 99.1786 125.459 99.2196 125.416 99.2692L114.525 111.826C114.229 112.167 114.266 112.687 114.606 112.983L115.331 113.609C115.671 113.905 116.192 113.868 116.488 113.528L127.379 100.971C127.422 100.921 127.456 100.867 127.484 100.812L127.968 101.232C128.225 101.455 128.648 101.393 128.908 101.093L129.185 100.774L129.464 101.016L129.131 101.403C128.873 101.703 128.871 102.13 129.128 102.354L130.806 103.808C131.063 104.031 131.486 103.969 131.747 103.669L133.869 101.223C134.126 100.923 134.128 100.495 133.871 100.272L133.865 100.272Z" fill="#4C0000"/>
</g>
<g clip-path="url(#clip3_1859_5067)">
<path d="M68.7786 144.879C75.9596 143.146 80.3762 135.92 78.6434 128.739C76.9105 121.558 69.6844 117.141 62.5034 118.874C55.3223 120.607 50.9057 127.833 52.6386 135.014C54.3715 142.195 61.5976 146.612 68.7786 144.879Z" fill="#122B5C"/>
<path d="M96.6649 134.593C96.7433 133.483 96.7583 132.376 96.7179 131.283L89.2146 129.715L96.1598 126.465C95.9457 125.377 95.6756 124.307 95.3523 123.257L87.6971 123.684L93.5604 118.751C93.0715 117.758 92.5346 116.793 91.9457 115.861L84.6676 118.254L89.0542 111.973C88.3312 111.141 87.5614 110.349 86.7515 109.595L80.3398 113.791L82.9519 106.582C82.0398 105.967 81.0919 105.404 80.1122 104.886L75.0011 110.602L75.6587 102.964C74.6233 102.611 73.5618 102.307 72.4728 102.062L69.0161 108.902L67.6741 101.357C66.5637 101.279 65.4566 101.264 64.3633 101.304L62.7951 108.807L59.5454 101.862C58.458 102.076 57.3876 102.346 56.3375 102.67L56.7646 110.325L51.8316 104.461C50.8394 104.947 49.8739 105.487 48.9419 106.076L51.3351 113.354L45.0537 108.968C44.2215 109.691 43.4295 110.46 42.6757 111.27L46.8712 117.682L39.6627 115.07C39.0478 115.982 38.4842 116.93 37.9662 117.91L43.6823 123.021L36.0451 122.363C35.6917 123.399 35.388 124.46 35.143 125.549L41.9822 129.006L34.4376 130.348C34.3592 131.458 34.3441 132.565 34.3845 133.659L41.8879 135.227L34.9427 138.476C35.1568 139.564 35.4268 140.634 35.7501 141.684L43.4054 141.257L37.5421 146.19C38.0309 147.183 38.5678 148.148 39.1568 149.08L46.4348 146.687L42.0483 152.968C42.7713 153.8 43.5411 154.592 44.351 155.346L50.7627 151.151L48.1505 158.359C49.0626 158.974 50.0105 159.538 50.9903 160.056L56.1014 154.34L55.4437 161.977C56.4791 162.33 57.5406 162.634 58.6297 162.879L62.0863 156.04L63.4284 163.584C64.5388 163.663 65.6459 163.678 66.7391 163.637L68.3073 156.134L71.5571 163.079C72.6444 162.865 73.7149 162.595 74.7649 162.272L74.3379 154.617L79.2708 160.48C80.263 159.994 81.2286 159.454 82.1605 158.865L79.7674 151.587L86.0487 155.974C86.881 155.251 87.6729 154.481 88.4268 153.671L84.2313 147.259L91.4397 149.871C92.0546 148.959 92.6182 148.011 93.1362 147.032L87.4202 141.92L95.0574 142.578C95.4107 141.543 95.7145 140.481 95.9594 139.392L89.1203 135.936L96.6649 134.593ZM62.9546 150.134C53.2003 148.7 46.4543 139.628 47.8883 129.874C49.3223 120.12 58.3936 113.374 68.1479 114.808C77.9022 116.242 84.6481 125.313 83.2142 135.067C81.7802 144.822 72.7089 151.568 62.9546 150.134Z" fill="#01032F"/>
<path d="M62.1386 158.485C59.5699 158.152 57.8002 155.739 58.2477 153.187L64.5152 117.629L70.5219 118.412L67.2506 154.388C67.0176 156.956 64.695 158.817 62.1355 158.485L62.1386 158.485Z" fill="#FFC818"/>
<path d="M62.1386 158.485C59.5699 158.152 57.8002 155.739 58.2477 153.187L64.5152 117.629L70.5219 118.412L67.2506 154.388C67.0176 156.956 64.695 158.817 62.1355 158.485L62.1386 158.485Z" fill="#FFC818"/>
<path d="M62.1386 158.485C59.5699 158.152 57.8002 155.739 58.2477 153.187L64.5152 117.629L70.5219 118.412L67.2506 154.388C67.0176 156.956 64.695 158.817 62.1355 158.485L62.1386 158.485Z" fill="#FFC818"/>
<path d="M63.6467 109.659L60.1104 109.199L58.9883 117.823L62.5247 118.283L63.6467 109.659Z" fill="#203C68"/>
<path d="M62.0496 108.106L56.8545 107.43L55.4159 118.486L60.6111 119.162L62.0496 108.106Z" fill="#FF4700"/>
<path d="M73.9824 119.213C74.3242 116.589 76.7303 114.737 79.3544 115.078C79.7367 115.128 80.0995 115.226 80.4415 115.358L81.062 110.581L62.9303 108.223L61.4936 119.278L74.0687 120.913C73.9443 120.37 73.9057 119.799 73.982 119.216L73.9824 119.213Z" fill="#FF8600"/>
<path d="M73.9824 119.213C74.3242 116.589 76.7303 114.737 79.3544 115.078C79.7367 115.128 80.0995 115.226 80.4415 115.358L81.062 110.581L62.9303 108.223L61.4936 119.278L74.0687 120.913C73.9443 120.37 73.9057 119.799 73.982 119.216L73.9824 119.213Z" fill="#FF4700"/>
<path opacity="0.33" d="M72.3545 109.445C74.5839 110.505 75.6783 113 74.5049 115.552C73.1895 118.407 69.7351 119.524 66.6434 119.991C66.6307 120.077 66.655 120.168 66.7378 120.224C68.8921 121.71 68.1406 124.962 67.907 127.15C67.6011 130.021 67.2922 132.892 66.9864 135.763C66.687 138.548 66.3908 141.332 66.0914 144.117C65.8067 146.781 65.7185 149.646 64.621 152.131C64.1231 153.252 63.3866 154.328 62.3999 155.076C61.2893 155.918 60.1048 156.131 58.7822 156.235C59.4624 157.422 60.6698 158.294 62.1376 158.485C64.6971 158.817 67.0162 156.958 67.2527 154.388L70.3413 120.424L74.0724 120.91C73.948 120.367 73.9094 119.795 73.9857 119.213C74.3274 116.589 76.7336 114.736 79.3576 115.078C79.74 115.128 80.1028 115.225 80.4448 115.357L81.0653 110.581L72.3541 109.448L72.3545 109.445Z" fill="#FCFBF6"/>
<path d="M43.0831 150.486L30.4557 148.63L34.0034 143.416L32.0684 137.66L44.6957 139.517L43.0831 150.486Z" fill="#C52D00"/>
<path d="M81.8854 156.19L94.5128 158.046L92.7542 152.053L96.1254 147.077L83.498 145.221L81.8854 156.19Z" fill="#C52D00"/>
<path d="M90.7121 146.387L36.8896 138.475L35.2996 149.29L89.122 157.203L90.7121 146.387Z" fill="#FF4700"/>
<path d="M39.1572 144.682C38.976 144.59 38.8132 144.5 38.6694 144.41C38.5255 144.319 38.4019 144.219 38.3052 144.108C38.2085 143.996 38.1356 143.872 38.0935 143.731C38.0514 143.59 38.0442 143.425 38.0717 143.238C38.1256 142.872 38.31 142.6 38.6256 142.42C38.9407 142.243 39.3507 142.191 39.8583 142.265C40.0428 142.292 40.2133 142.33 40.3692 142.381C40.5255 142.429 40.655 142.489 40.7606 142.561C40.8663 142.633 40.9456 142.714 40.998 142.807C41.0504 142.899 41.0666 143.002 41.0499 143.116C41.0332 143.23 40.9946 143.322 40.931 143.391C40.8669 143.463 40.7954 143.522 40.7135 143.566C40.6272 143.491 40.5087 143.42 40.3551 143.353C40.2019 143.284 40.0328 143.237 39.8421 143.209C39.6514 143.181 39.5027 143.187 39.4028 143.226C39.3028 143.265 39.2493 143.329 39.2376 143.409C39.2281 143.474 39.2481 143.53 39.2976 143.578C39.3471 143.626 39.4273 143.679 39.5331 143.729L39.8582 143.89C40.2453 144.079 40.5316 144.291 40.7206 144.523C40.9096 144.755 40.977 145.044 40.9263 145.389C40.8725 145.755 40.6845 146.029 40.3619 146.214C40.0393 146.399 39.5985 146.448 39.0387 146.365C38.8418 146.336 38.6595 146.294 38.4922 146.235C38.328 146.176 38.1841 146.108 38.067 146.028C37.9499 145.947 37.8632 145.853 37.803 145.75C37.7458 145.647 37.7247 145.534 37.7423 145.414C37.76 145.294 37.8132 145.189 37.9001 145.11C37.9871 145.032 38.077 144.976 38.1699 144.943C38.2758 145.056 38.4117 145.157 38.5767 145.254C38.7421 145.347 38.9274 145.412 39.1334 145.443C39.3395 145.473 39.4979 145.465 39.5935 145.413C39.6891 145.361 39.7435 145.29 39.7562 145.204C39.7688 145.118 39.7445 145.049 39.6805 144.992C39.6196 144.936 39.5275 144.878 39.4108 144.817L39.1532 144.688L39.1572 144.682Z" fill="#FFFEFC"/>
<path d="M43.1898 143.56C43.4482 143.598 43.6831 143.667 43.8946 143.767C44.1062 143.867 44.282 143.997 44.4216 144.159C44.5612 144.321 44.6589 144.511 44.7204 144.734C44.7789 144.956 44.7884 145.212 44.7459 145.501C44.7034 145.79 44.6299 146.012 44.5227 146.207C44.4155 146.402 44.279 146.561 44.1172 146.678C43.9549 146.799 43.7677 146.875 43.5573 146.917C43.3474 146.955 43.1174 146.959 42.8744 146.923C42.6899 146.896 42.5217 146.843 42.3699 146.764L42.212 147.838C42.1672 147.844 42.0972 147.849 41.9996 147.85C41.902 147.852 41.8057 147.844 41.7042 147.829C41.6027 147.814 41.5267 147.797 41.4516 147.773C41.3765 147.749 41.3191 147.713 41.2722 147.668C41.2253 147.623 41.1966 147.563 41.1784 147.494C41.1602 147.425 41.161 147.334 41.1768 147.227L41.6327 144.126C41.6498 144.009 41.6885 143.917 41.7481 143.854C41.8082 143.787 41.8853 143.733 41.9805 143.684C42.1254 143.617 42.3015 143.574 42.5091 143.551C42.7137 143.527 42.9388 143.535 43.1849 143.572L43.1898 143.56ZM42.8394 146.029C43.2823 146.094 43.5427 145.862 43.6205 145.333C43.6612 145.056 43.6357 144.845 43.5448 144.693C43.4535 144.544 43.3066 144.454 43.1005 144.423C43.0174 144.411 42.9453 144.41 42.878 144.419C42.8107 144.428 42.7517 144.444 42.6989 144.462L42.49 145.883C42.5386 145.915 42.5908 145.945 42.6497 145.972C42.7085 146 42.7722 146.016 42.8398 146.026L42.8394 146.029Z" fill="#FFFEFC"/>
<path d="M46.6979 147.488C46.4426 147.45 46.2142 147.379 46.0062 147.276C45.7982 147.173 45.6264 147.038 45.4842 146.872C45.342 146.707 45.2421 146.51 45.1814 146.281C45.1208 146.052 45.1117 145.793 45.1543 145.504C45.1968 145.215 45.2782 144.982 45.4003 144.792C45.5224 144.603 45.6704 144.452 45.8405 144.341C46.0107 144.231 46.197 144.161 46.4003 144.125C46.6031 144.092 46.8045 144.09 47.0075 144.12C47.2352 144.154 47.4394 144.218 47.6166 144.317C47.7943 144.412 47.9402 144.531 48.061 144.671C48.1787 144.811 48.2621 144.971 48.3141 145.151C48.3661 145.332 48.3764 145.519 48.3474 145.716C48.3257 145.863 48.2694 145.968 48.1751 146.033C48.0807 146.098 47.9597 146.13 47.8119 146.13L46.1802 146.136C46.2055 146.284 46.2881 146.406 46.4223 146.498C46.5595 146.59 46.7202 146.652 46.9109 146.68C47.0863 146.706 47.2586 146.709 47.4223 146.686C47.5859 146.663 47.7228 146.629 47.8299 146.585C47.8912 146.638 47.9406 146.709 47.9785 146.793C48.0133 146.876 48.0257 146.963 48.0131 147.049C47.9846 147.243 47.8741 147.374 47.6786 147.443C47.5293 147.497 47.3683 147.523 47.1924 147.523C47.0166 147.522 46.8513 147.513 46.7005 147.491L46.6979 147.488ZM46.8899 144.92C46.7854 144.905 46.6934 144.91 46.6146 144.933C46.5358 144.956 46.4675 144.993 46.4106 145.038C46.3537 145.083 46.3108 145.14 46.2763 145.204C46.2417 145.268 46.2195 145.334 46.2034 145.4L47.3344 145.381C47.3347 145.293 47.2982 145.2 47.2309 145.102C47.1605 145.004 47.0468 144.943 46.8869 144.92L46.8899 144.92Z" fill="#FFFEFC"/>
<path d="M50.3666 144.615C50.6004 144.649 50.809 144.705 50.9929 144.779C51.1769 144.853 51.3321 144.952 51.4535 145.067C51.5743 145.185 51.6613 145.32 51.713 145.482C51.7651 145.641 51.7762 145.821 51.7464 146.024L51.5338 147.47C51.5175 147.581 51.4732 147.669 51.4013 147.73C51.3294 147.792 51.2465 147.843 51.1527 147.882C50.8479 148.01 50.4419 148.035 49.9344 147.961C49.7067 147.927 49.5038 147.876 49.3256 147.805C49.1504 147.736 49 147.648 48.8834 147.542C48.7638 147.437 48.6786 147.311 48.6273 147.168C48.576 147.026 48.5621 146.864 48.5879 146.688C48.6318 146.39 48.7544 146.175 48.9533 146.041C49.1521 145.907 49.4404 145.849 49.8185 145.863L50.6775 145.899L50.6843 145.852C50.7028 145.726 50.6606 145.629 50.5575 145.56C50.4545 145.492 50.3017 145.441 50.0956 145.411C49.9325 145.387 49.7699 145.382 49.6111 145.393C49.4523 145.404 49.3045 145.426 49.1707 145.46C49.1212 145.412 49.0806 145.346 49.0554 145.261C49.0272 145.175 49.0209 145.089 49.0336 145.003C49.0499 144.893 49.0907 144.807 49.1529 144.747C49.2151 144.687 49.3063 144.644 49.4274 144.612C49.5603 144.584 49.7103 144.569 49.8857 144.572C50.0581 144.576 50.2198 144.587 50.3706 144.609L50.3666 144.615ZM50.0458 147.16C50.1196 147.171 50.2005 147.177 50.292 147.174C50.3834 147.172 50.4512 147.16 50.4979 147.142L50.5739 146.625L50.1035 146.597C49.9822 146.588 49.8801 146.598 49.7938 146.63C49.7075 146.661 49.6611 146.72 49.6484 146.806C49.6358 146.892 49.6592 146.968 49.7192 147.03C49.7792 147.093 49.8858 147.137 50.0458 147.16Z" fill="#FFFEFC"/>
<path d="M55.265 148.057C55.2137 148.257 55.1326 148.402 55.0183 148.495C54.9072 148.589 54.7575 148.624 54.5699 148.596C54.4315 148.576 54.3134 148.524 54.2157 148.44C54.118 148.357 54.0173 148.229 53.9178 148.051L53.3956 147.157L53.2228 148.332C53.1753 148.334 53.1028 148.336 53.0082 148.338C52.9137 148.34 52.8174 148.332 52.7251 148.319C52.6328 148.305 52.5476 148.286 52.4725 148.263C52.3974 148.239 52.34 148.202 52.2931 148.158C52.2462 148.113 52.2144 148.052 52.1962 147.983C52.178 147.914 52.1758 147.823 52.1916 147.715L52.7415 143.975C52.7894 143.969 52.8624 143.964 52.957 143.962C53.0515 143.961 53.1478 143.968 53.2401 143.982C53.3324 143.996 53.4176 144.014 53.4927 144.038C53.5678 144.062 53.6252 144.098 53.6721 144.143C53.719 144.188 53.7508 144.249 53.769 144.318C53.7867 144.389 53.7894 144.478 53.7736 144.585L53.5231 146.289L54.8009 145.315C55.0254 145.348 55.1966 145.423 55.3175 145.541C55.4384 145.66 55.4875 145.796 55.4653 145.946C55.4558 146.011 55.435 146.068 55.4053 146.12C55.3756 146.172 55.3341 146.219 55.2793 146.271C55.2251 146.32 55.1576 146.373 55.0778 146.424C54.998 146.475 54.9041 146.536 54.797 146.602L54.3742 146.87L55.2558 148.056L55.265 148.057Z" fill="#FFFEFC"/>
<path d="M59.1311 149.183C59.0832 149.188 59.0076 149.19 58.9069 149.19C58.8062 149.191 58.7073 149.18 58.6119 149.166C58.415 149.137 58.2693 149.081 58.1808 148.999C58.0923 148.917 58.0634 148.771 58.0956 148.553L58.2235 147.682C58.1394 147.506 58.0483 147.314 57.9537 147.102C57.8561 146.89 57.762 146.675 57.6719 146.454C57.5817 146.233 57.4973 146.017 57.4243 145.808C57.3513 145.599 57.2918 145.405 57.2512 145.233C57.3179 145.164 57.4052 145.104 57.5131 145.054C57.621 145.004 57.7429 144.987 57.8875 145.009C58.0567 145.034 58.187 145.087 58.2812 145.173C58.3759 145.256 58.4584 145.401 58.5257 145.605L58.9022 146.764L58.9422 146.77C59.0232 146.646 59.0936 146.531 59.1529 146.427C59.2153 146.323 59.2742 146.221 59.3336 146.117C59.3929 146.013 59.4558 145.905 59.5191 145.795C59.5824 145.685 59.6582 145.555 59.7423 145.41C59.8251 145.382 59.9153 145.367 60.0138 145.359C60.1123 145.351 60.2033 145.352 60.2895 145.365C60.4402 145.387 60.5635 145.446 60.6563 145.541C60.7492 145.637 60.7838 145.764 60.7603 145.924C60.7526 145.977 60.7313 146.036 60.6989 146.107C60.6665 146.178 60.601 146.281 60.5024 146.418C60.4038 146.554 60.2601 146.74 60.0754 146.971C59.8902 147.204 59.6388 147.504 59.3264 147.876L59.1338 149.186L59.1311 149.183Z" fill="#FFFEFC"/>
<path d="M63.8866 148.303C63.8473 148.571 63.7725 148.802 63.6587 148.999C63.5449 149.196 63.4053 149.354 63.2368 149.474C63.0684 149.594 62.8741 149.676 62.6572 149.719C62.4402 149.763 62.2041 149.766 61.9488 149.728C61.6935 149.69 61.4686 149.617 61.2738 149.509C61.0791 149.402 60.9169 149.265 60.7905 149.099C60.6641 148.933 60.573 148.74 60.5233 148.522C60.4737 148.304 60.465 148.064 60.5029 147.806C60.5409 147.548 60.6144 147.326 60.7277 147.132C60.8411 146.938 60.9807 146.779 61.1496 146.657C61.3185 146.534 61.5132 146.449 61.7306 146.403C61.948 146.356 62.1846 146.35 62.4399 146.387C62.6952 146.425 62.917 146.498 63.1144 146.609C63.3087 146.719 63.4709 146.856 63.5973 147.023C63.7237 147.189 63.8148 147.381 63.8644 147.599C63.9141 147.817 63.9237 148.051 63.8866 148.303ZM61.6257 147.971C61.5873 148.232 61.6097 148.443 61.6878 148.596C61.7685 148.752 61.9001 148.841 62.0816 148.868C62.263 148.894 62.4119 148.844 62.528 148.716C62.6473 148.589 62.7228 148.396 62.7608 148.138C62.7988 147.879 62.779 147.672 62.7009 147.519C62.6228 147.366 62.4917 147.275 62.3133 147.249C62.1349 147.222 61.983 147.272 61.8611 147.396C61.7419 147.523 61.6637 147.713 61.6257 147.971Z" fill="#FFFEFC"/>
<path d="M64.6457 146.857C64.6906 146.851 64.7601 146.849 64.8546 146.847C64.9487 146.848 65.045 146.856 65.1434 146.871C65.2418 146.885 65.3209 146.903 65.396 146.927C65.4711 146.95 65.5285 146.987 65.5754 147.032C65.6223 147.076 65.6541 147.138 65.6723 147.206C65.6901 147.278 65.6928 147.366 65.6769 147.474L65.4725 148.864C65.4468 149.04 65.4713 149.172 65.5461 149.262C65.6209 149.351 65.7416 149.407 65.9047 149.431C66.0031 149.445 66.0844 149.448 66.1513 149.442C66.2155 149.432 66.267 149.424 66.3036 149.411L66.6359 147.15C66.6808 147.144 66.7503 147.142 66.8448 147.14C66.9389 147.141 67.0352 147.149 67.1336 147.163C67.2321 147.178 67.3111 147.196 67.3862 147.219C67.4613 147.243 67.5188 147.28 67.5656 147.324C67.6121 147.372 67.6444 147.43 67.6625 147.499C67.6803 147.571 67.683 147.659 67.6672 147.767L67.3787 149.729C67.347 149.944 67.2343 150.091 67.037 150.172C66.8722 150.245 66.6834 150.29 66.467 150.308C66.2506 150.327 66.0193 150.318 65.7763 150.282C65.5425 150.248 65.3339 150.192 65.1447 150.111C64.9555 150.03 64.7981 149.925 64.6724 149.796C64.5468 149.668 64.4564 149.513 64.4043 149.333C64.3523 149.152 64.3426 148.94 64.3779 148.7L64.6497 146.852L64.6457 146.857Z" fill="#FFFEFC"/>
<path d="M69.0499 150.66C69.0051 150.666 68.9356 150.669 68.841 150.67C68.747 150.669 68.6507 150.661 68.5523 150.647C68.4538 150.632 68.3747 150.614 68.2997 150.591C68.2246 150.567 68.1671 150.53 68.1202 150.486C68.0734 150.441 68.0415 150.38 68.0233 150.311C68.0051 150.243 68.0029 150.151 68.0187 150.044L68.3036 148.106C68.3181 148.007 68.3492 147.924 68.3965 147.858C68.4438 147.793 68.5056 147.736 68.5814 147.691C68.6572 147.645 68.7511 147.606 68.8589 147.578C68.9672 147.546 69.0807 147.522 69.2026 147.506C69.3245 147.489 69.4485 147.479 69.5773 147.479C69.7062 147.479 69.8306 147.488 69.9567 147.506C70.1628 147.537 70.3199 147.601 70.4312 147.699C70.5394 147.796 70.582 147.935 70.5553 148.116C70.5463 148.178 70.5284 148.235 70.5045 148.291C70.4774 148.347 70.4482 148.396 70.4168 148.438C70.3276 148.425 70.2349 148.415 70.1381 148.41C70.0414 148.405 69.9473 148.404 69.8554 148.409C69.7635 148.415 69.6746 148.42 69.592 148.427C69.5093 148.434 69.438 148.448 69.379 148.465L69.0552 150.667L69.0499 150.66Z" fill="#FFFEFC"/>
<path d="M72.2438 148.061C72.2198 148.011 72.2016 147.942 72.1892 147.855C72.1768 147.769 72.1741 147.68 72.1872 147.591C72.2121 147.422 72.2666 147.307 72.3544 147.245C72.4421 147.182 72.5429 147.159 72.666 147.177L75.4837 147.592C75.5076 147.642 75.5258 147.711 75.5382 147.798C75.5506 147.884 75.5533 147.973 75.5402 148.062C75.5154 148.231 75.4608 148.346 75.373 148.408C75.2853 148.471 75.1845 148.494 75.0615 148.475L74.3447 148.37L73.9061 151.354C73.8581 151.359 73.7794 151.36 73.6787 151.361C73.5754 151.359 73.473 151.35 73.3746 151.335C73.2761 151.321 73.1883 151.299 73.1163 151.275C73.0416 151.249 72.9842 151.212 72.9373 151.167C72.8904 151.123 72.8617 151.062 72.8439 150.99C72.8262 150.919 72.8274 150.824 72.8437 150.714L73.2123 148.207L72.2433 148.064L72.2438 148.061Z" fill="#FFFEFC"/>
<path d="M76.3312 151.731C76.2863 151.737 76.2168 151.739 76.1223 151.741C76.0282 151.739 75.9319 151.732 75.8335 151.717C75.7351 151.703 75.656 151.685 75.5809 151.661C75.5058 151.638 75.4484 151.601 75.4015 151.556C75.3546 151.512 75.3228 151.45 75.3046 151.382C75.2864 151.313 75.2841 151.222 75.3 151.114L75.5849 149.176C75.5993 149.078 75.6304 148.994 75.6778 148.929C75.7251 148.863 75.7869 148.807 75.8627 148.761C75.9385 148.716 76.0323 148.676 76.1402 148.648C76.2485 148.617 76.362 148.593 76.4839 148.576C76.6057 148.559 76.7298 148.549 76.8586 148.549C76.9874 148.549 77.1118 148.558 77.2379 148.577C77.444 148.607 77.6012 148.671 77.7125 148.769C77.8207 148.867 77.8632 149.005 77.8365 149.186C77.8275 149.248 77.8097 149.305 77.7857 149.361C77.7587 149.417 77.7294 149.466 77.698 149.509C77.6088 149.496 77.5161 149.485 77.4194 149.48C77.3227 149.475 77.2286 149.474 77.1367 149.48C77.0447 149.485 76.9559 149.491 76.8732 149.497C76.7905 149.504 76.7192 149.519 76.6602 149.535L76.3364 151.738L76.3312 151.731Z" fill="#FFFEFC"/>
<path d="M79.559 148.906C79.7928 148.94 80.0014 148.996 80.1853 149.07C80.3693 149.144 80.5245 149.243 80.6458 149.358C80.7667 149.476 80.8537 149.611 80.9053 149.773C80.9575 149.932 80.9686 150.112 80.9387 150.315L80.7262 151.761C80.7099 151.872 80.6656 151.96 80.5937 152.021C80.5217 152.083 80.4389 152.134 80.3451 152.173C80.0403 152.301 79.6343 152.327 79.1268 152.252C78.8991 152.218 78.6962 152.167 78.518 152.096C78.3428 152.027 78.1923 151.939 78.0758 151.833C77.9562 151.728 77.871 151.602 77.8197 151.46C77.7684 151.317 77.7545 151.155 77.7803 150.979C77.8241 150.681 77.9468 150.466 78.1457 150.332C78.3445 150.198 78.6328 150.14 79.0109 150.154L79.8699 150.19L79.8767 150.143C79.8952 150.017 79.853 149.92 79.7499 149.851C79.6469 149.783 79.494 149.732 79.288 149.702C79.1249 149.678 78.9622 149.673 78.8035 149.684C78.6447 149.695 78.4969 149.718 78.3631 149.751C78.3136 149.703 78.2729 149.637 78.2478 149.552C78.2195 149.466 78.2133 149.38 78.226 149.294C78.2422 149.184 78.283 149.098 78.3453 149.038C78.4075 148.978 78.4987 148.935 78.6198 148.903C78.7527 148.875 78.9027 148.86 79.0781 148.863C79.2505 148.867 79.4122 148.878 79.563 148.9L79.559 148.906ZM79.2351 151.451C79.3089 151.462 79.3898 151.467 79.4813 151.465C79.5728 151.463 79.6405 151.451 79.6872 151.432L79.7632 150.916L79.2928 150.887C79.1715 150.879 79.0694 150.889 78.9831 150.92C78.8968 150.952 78.8504 151.011 78.8377 151.097C78.8251 151.183 78.8485 151.259 78.9085 151.321C78.9685 151.383 79.0751 151.427 79.2351 151.451Z" fill="#FFFEFC"/>
<path d="M81.3995 150.878C81.4411 150.595 81.5208 150.352 81.6377 150.156C81.7546 149.959 81.8999 149.805 82.074 149.689C82.2482 149.573 82.4415 149.498 82.6545 149.46C82.8675 149.422 83.0939 149.421 83.3308 149.456C83.4169 149.468 83.4986 149.49 83.5799 149.514C83.6606 149.542 83.7225 149.57 83.7717 149.599L83.9254 148.553C83.9703 148.547 84.0402 148.542 84.1378 148.54C84.2355 148.539 84.3317 148.547 84.4302 148.561C84.5286 148.576 84.6077 148.594 84.6828 148.617C84.7548 148.641 84.8153 148.678 84.8622 148.722C84.909 148.767 84.9378 148.828 84.956 148.896C84.9707 148.968 84.9734 149.056 84.9576 149.164L84.5076 152.224C84.4777 152.427 84.3589 152.573 84.1531 152.669C84.0148 152.733 83.8445 152.781 83.6355 152.813C83.4295 152.845 83.1943 152.842 82.9359 152.804C82.656 152.763 82.4096 152.686 82.1995 152.576C81.9893 152.467 81.8184 152.326 81.6858 152.158C81.5537 151.988 81.4626 151.796 81.4156 151.581C81.3659 151.363 81.3598 151.127 81.3978 150.868L81.3995 150.878ZM83.3518 150.339C83.118 150.304 82.9297 150.346 82.7872 150.46C82.6416 150.574 82.5502 150.768 82.5104 151.038C82.4706 151.309 82.5002 151.515 82.5971 151.667C82.6941 151.82 82.8503 151.912 83.0718 151.944C83.1487 151.956 83.2212 151.954 83.2864 151.938C83.3515 151.922 83.4044 151.905 83.4427 151.879L83.6516 150.458C83.5732 150.393 83.4722 150.353 83.3523 150.336L83.3518 150.339Z" fill="#FFFEFC"/>
<path d="M86.7331 153.372C86.4777 153.335 86.2494 153.263 86.0414 153.161C85.8334 153.058 85.6616 152.923 85.5193 152.757C85.3771 152.592 85.2772 152.395 85.2166 152.166C85.156 151.937 85.1469 151.678 85.1894 151.389C85.2319 151.1 85.3133 150.866 85.4355 150.677C85.5576 150.487 85.7055 150.336 85.8757 150.226C86.0459 150.116 86.2321 150.046 86.4354 150.01C86.6383 149.977 86.8397 149.975 87.0427 150.005C87.2703 150.038 87.4745 150.103 87.6518 150.201C87.8294 150.297 87.9754 150.416 88.0962 150.556C88.2139 150.696 88.2972 150.856 88.3492 151.036C88.4013 151.217 88.4115 151.404 88.3826 151.6C88.3609 151.748 88.3046 151.853 88.2102 151.918C88.1159 151.982 87.9948 152.015 87.8471 152.015L86.2153 152.02C86.2407 152.169 86.3233 152.291 86.4574 152.383C86.5947 152.475 86.7554 152.537 86.9461 152.565C87.1214 152.59 87.2938 152.594 87.4574 152.571C87.6211 152.548 87.758 152.514 87.865 152.47C87.9264 152.523 87.9758 152.593 88.0137 152.678C88.0485 152.761 88.0609 152.848 88.0482 152.934C88.0198 153.128 87.9093 153.259 87.7138 153.328C87.5645 153.381 87.4035 153.408 87.2276 153.407C87.0517 153.407 86.8864 153.398 86.7357 153.376L86.7331 153.372ZM86.9251 150.805C86.8205 150.789 86.7286 150.795 86.6498 150.818C86.571 150.841 86.5027 150.878 86.4458 150.923C86.3889 150.968 86.346 151.024 86.3114 151.089C86.2769 151.153 86.2546 151.218 86.2385 151.285L87.3695 151.266C87.3699 151.178 87.3333 151.085 87.266 150.987C87.1956 150.889 87.082 150.828 86.922 150.804L86.9251 150.805Z" fill="#FFFEFC"/>
</g>
<defs>
<clipPath id="clip0_1859_5067">
<rect width="30" height="30" fill="white" transform="translate(131 196)"/>
</clipPath>
<clipPath id="clip1_1859_5067">
<rect width="63" height="63" fill="white" transform="translate(27.6162 29.9785) rotate(7.8809)"/>
</clipPath>
<clipPath id="clip2_1859_5067">
<rect width="65.453" height="58" fill="white" transform="translate(87 66.6035) rotate(-4.03347)"/>
</clipPath>
<clipPath id="clip3_1859_5067">
<rect width="64.7451" height="62.1831" fill="white" transform="translate(38.0439 97) rotate(8.36322)"/>
</clipPath>
</defs>
</svg>
