<svg width="170" height="238" viewBox="0 0 170 238" fill="none" xmlns="http://www.w3.org/2000/svg">
<path d="M0 15C0 6.71573 6.71573 0 15 0H80C88.2843 0 95 6.71573 95 15V54H0V15Z" fill="#FE8861"/>
<rect y="16" width="170" height="222" rx="20" fill="#FE4D13"/>
<path d="M20.07 193.718C21.2227 193.718 22.1717 194 22.917 194.563C23.6623 195.126 24.126 195.889 24.308 196.851H21.955C21.799 196.522 21.5607 196.262 21.24 196.071C20.9193 195.872 20.5337 195.772 20.083 195.772C19.381 195.772 18.8177 196.01 18.393 196.487C17.9683 196.955 17.756 197.592 17.756 198.398C17.756 199.273 17.977 199.945 18.419 200.413C18.8697 200.881 19.5067 201.115 20.33 201.115C20.8587 201.115 21.3223 200.972 21.721 200.686C22.1197 200.391 22.4013 199.975 22.566 199.438H19.758V197.839H24.425V200.036C24.2517 200.573 23.9743 201.072 23.593 201.531C23.2117 201.99 22.722 202.363 22.124 202.649C21.5347 202.935 20.8587 203.078 20.096 203.078C19.1687 203.078 18.3583 202.883 17.665 202.493C16.9717 202.094 16.4343 201.54 16.053 200.829C15.6803 200.118 15.494 199.308 15.494 198.398C15.494 197.488 15.6803 196.678 16.053 195.967C16.4343 195.256 16.9673 194.706 17.652 194.316C18.3453 193.917 19.1513 193.718 20.07 193.718ZM32.5593 199.178C32.5593 199.36 32.5377 199.559 32.4943 199.776H27.4633C27.4893 200.322 27.628 200.716 27.8793 200.959C28.1307 201.193 28.4513 201.31 28.8413 201.31C29.1707 201.31 29.4437 201.228 29.6603 201.063C29.877 200.898 30.02 200.686 30.0893 200.426H32.4423C32.347 200.937 32.139 201.397 31.8183 201.804C31.4977 202.203 31.0903 202.519 30.5963 202.753C30.1023 202.978 29.552 203.091 28.9453 203.091C28.2347 203.091 27.602 202.944 27.0473 202.649C26.5013 202.346 26.0723 201.912 25.7603 201.349C25.4483 200.786 25.2923 200.127 25.2923 199.373C25.2923 198.61 25.444 197.952 25.7473 197.397C26.0593 196.834 26.4927 196.405 27.0473 196.11C27.602 195.807 28.2347 195.655 28.9453 195.655C29.6647 195.655 30.2973 195.802 30.8433 196.097C31.3893 196.392 31.8097 196.808 32.1043 197.345C32.4077 197.874 32.5593 198.485 32.5593 199.178ZM30.3103 198.84C30.319 198.363 30.189 198.008 29.9203 197.774C29.6603 197.531 29.3353 197.41 28.9453 197.41C28.538 197.41 28.2 197.531 27.9313 197.774C27.6627 198.017 27.511 198.372 27.4763 198.84H30.3103ZM38.3202 195.668C39.1522 195.668 39.8108 195.945 40.2962 196.5C40.7902 197.055 41.0372 197.817 41.0372 198.788V203H38.8142V199.048C38.8142 198.563 38.6842 198.186 38.4242 197.917C38.1728 197.64 37.8348 197.501 37.4102 197.501C36.9595 197.501 36.5998 197.644 36.3312 197.93C36.0712 198.216 35.9412 198.623 35.9412 199.152V203H33.7182V195.746H35.9412V197.072C36.1492 196.639 36.4568 196.296 36.8642 196.045C37.2802 195.794 37.7655 195.668 38.3202 195.668ZM49.3933 199.178C49.3933 199.36 49.3717 199.559 49.3283 199.776H44.2973C44.3233 200.322 44.462 200.716 44.7133 200.959C44.9647 201.193 45.2853 201.31 45.6753 201.31C46.0047 201.31 46.2777 201.228 46.4943 201.063C46.711 200.898 46.854 200.686 46.9233 200.426H49.2763C49.181 200.937 48.973 201.397 48.6523 201.804C48.3317 202.203 47.9243 202.519 47.4303 202.753C46.9363 202.978 46.386 203.091 45.7793 203.091C45.0687 203.091 44.436 202.944 43.8813 202.649C43.3353 202.346 42.9063 201.912 42.5943 201.349C42.2823 200.786 42.1263 200.127 42.1263 199.373C42.1263 198.61 42.278 197.952 42.5813 197.397C42.8933 196.834 43.3267 196.405 43.8813 196.11C44.436 195.807 45.0687 195.655 45.7793 195.655C46.4987 195.655 47.1313 195.802 47.6773 196.097C48.2233 196.392 48.6437 196.808 48.9383 197.345C49.2417 197.874 49.3933 198.485 49.3933 199.178ZM47.1443 198.84C47.153 198.363 47.023 198.008 46.7543 197.774C46.4943 197.531 46.1693 197.41 45.7793 197.41C45.372 197.41 45.034 197.531 44.7653 197.774C44.4967 198.017 44.345 198.372 44.3103 198.84H47.1443ZM52.7752 197.111C53.0525 196.669 53.4078 196.318 53.8412 196.058C54.2832 195.798 54.7598 195.668 55.2712 195.668V198.047H54.6342C54.0448 198.047 53.5855 198.173 53.2562 198.424C52.9355 198.675 52.7752 199.1 52.7752 199.698V203H50.5522V195.746H52.7752V197.111ZM58.9576 195.655C59.5122 195.655 59.9889 195.781 60.3876 196.032C60.7862 196.283 61.0809 196.626 61.2716 197.059V195.746H63.4816V203H61.2716V201.687C61.0809 202.12 60.7862 202.463 60.3876 202.714C59.9889 202.965 59.5122 203.091 58.9576 203.091C58.3596 203.091 57.8222 202.944 57.3456 202.649C56.8776 202.346 56.5049 201.912 56.2276 201.349C55.9589 200.786 55.8246 200.127 55.8246 199.373C55.8246 198.61 55.9589 197.952 56.2276 197.397C56.5049 196.834 56.8776 196.405 57.3456 196.11C57.8222 195.807 58.3596 195.655 58.9576 195.655ZM59.6726 197.605C59.1959 197.605 58.8102 197.761 58.5156 198.073C58.2296 198.385 58.0866 198.818 58.0866 199.373C58.0866 199.928 58.2296 200.361 58.5156 200.673C58.8102 200.985 59.1959 201.141 59.6726 201.141C60.1406 201.141 60.5219 200.981 60.8166 200.66C61.1199 200.339 61.2716 199.91 61.2716 199.373C61.2716 198.827 61.1199 198.398 60.8166 198.086C60.5219 197.765 60.1406 197.605 59.6726 197.605ZM69.1201 201.089V203H68.1191C67.2698 203 66.6068 202.792 66.1301 202.376C65.6621 201.951 65.4281 201.254 65.4281 200.283V197.618H64.4531V195.746H65.4281V193.965H67.6511V195.746H69.1071V197.618H67.6511V200.322C67.6511 200.608 67.7075 200.807 67.8201 200.92C67.9415 201.033 68.1408 201.089 68.4181 201.089H69.1201ZM77.2595 199.178C77.2595 199.36 77.2379 199.559 77.1945 199.776H72.1635C72.1895 200.322 72.3282 200.716 72.5795 200.959C72.8309 201.193 73.1515 201.31 73.5415 201.31C73.8709 201.31 74.1439 201.228 74.3605 201.063C74.5772 200.898 74.7202 200.686 74.7895 200.426H77.1425C77.0472 200.937 76.8392 201.397 76.5185 201.804C76.1979 202.203 75.7905 202.519 75.2965 202.753C74.8025 202.978 74.2522 203.091 73.6455 203.091C72.9349 203.091 72.3022 202.944 71.7475 202.649C71.2015 202.346 70.7725 201.912 70.4605 201.349C70.1485 200.786 69.9925 200.127 69.9925 199.373C69.9925 198.61 70.1442 197.952 70.4475 197.397C70.7595 196.834 71.1929 196.405 71.7475 196.11C72.3022 195.807 72.9349 195.655 73.6455 195.655C74.3649 195.655 74.9975 195.802 75.5435 196.097C76.0895 196.392 76.5099 196.808 76.8045 197.345C77.1079 197.874 77.2595 198.485 77.2595 199.178ZM75.0105 198.84C75.0192 198.363 74.8892 198.008 74.6205 197.774C74.3605 197.531 74.0355 197.41 73.6455 197.41C73.2382 197.41 72.9002 197.531 72.6315 197.774C72.3629 198.017 72.2112 198.372 72.1765 198.84H75.0105ZM81.1744 195.655C81.729 195.655 82.2057 195.781 82.6044 196.032C83.003 196.283 83.2934 196.626 83.4754 197.059V193.38H85.6984V203H83.4754V201.687C83.2934 202.12 83.003 202.463 82.6044 202.714C82.2057 202.965 81.729 203.091 81.1744 203.091C80.5764 203.091 80.039 202.944 79.5624 202.649C79.0944 202.346 78.7217 201.912 78.4444 201.349C78.1757 200.786 78.0414 200.127 78.0414 199.373C78.0414 198.61 78.1757 197.952 78.4444 197.397C78.7217 196.834 79.0944 196.405 79.5624 196.11C80.039 195.807 80.5764 195.655 81.1744 195.655ZM81.8894 197.605C81.4127 197.605 81.027 197.761 80.7324 198.073C80.4464 198.385 80.3034 198.818 80.3034 199.373C80.3034 199.928 80.4464 200.361 80.7324 200.673C81.027 200.985 81.4127 201.141 81.8894 201.141C82.3574 201.141 82.7387 200.981 83.0334 200.66C83.3367 200.339 83.4884 199.91 83.4884 199.373C83.4884 198.827 83.3367 198.398 83.0334 198.086C82.7387 197.765 82.3574 197.605 81.8894 197.605ZM17.99 216.297H20.954V218H15.767V208.809H17.99V216.297ZM28.865 214.178C28.865 214.36 28.8433 214.559 28.8 214.776H23.769C23.795 215.322 23.9337 215.716 24.185 215.959C24.4363 216.193 24.757 216.31 25.147 216.31C25.4763 216.31 25.7493 216.228 25.966 216.063C26.1827 215.898 26.3257 215.686 26.395 215.426H28.748C28.6527 215.937 28.4447 216.397 28.124 216.804C27.8033 217.203 27.396 217.519 26.902 217.753C26.408 217.978 25.8577 218.091 25.251 218.091C24.5403 218.091 23.9077 217.944 23.353 217.649C22.807 217.346 22.378 216.912 22.066 216.349C21.754 215.786 21.598 215.127 21.598 214.373C21.598 213.61 21.7497 212.952 22.053 212.397C22.365 211.834 22.7983 211.405 23.353 211.11C23.9077 210.807 24.5403 210.655 25.251 210.655C25.9703 210.655 26.603 210.802 27.149 211.097C27.695 211.392 28.1153 211.808 28.41 212.345C28.7133 212.874 28.865 213.485 28.865 214.178ZM26.616 213.84C26.6247 213.363 26.4947 213.008 26.226 212.774C25.966 212.531 25.641 212.41 25.251 212.41C24.8437 212.41 24.5057 212.531 24.237 212.774C23.9683 213.017 23.8167 213.372 23.782 213.84H26.616ZM32.6628 210.655C33.5815 210.655 34.3138 210.885 34.8598 211.344C35.4145 211.803 35.7612 212.41 35.8998 213.164H33.8198C33.7592 212.869 33.6205 212.64 33.4038 212.475C33.1958 212.302 32.9315 212.215 32.6108 212.215C32.3595 212.215 32.1688 212.271 32.0388 212.384C31.9088 212.488 31.8438 212.64 31.8438 212.839C31.8438 213.064 31.9608 213.233 32.1948 213.346C32.4375 213.459 32.8145 213.571 33.3258 213.684C33.8805 213.814 34.3355 213.948 34.6908 214.087C35.0462 214.217 35.3538 214.434 35.6138 214.737C35.8738 215.04 36.0038 215.448 36.0038 215.959C36.0038 216.375 35.8912 216.743 35.6658 217.064C35.4405 217.385 35.1155 217.636 34.6908 217.818C34.2662 218 33.7635 218.091 33.1828 218.091C32.2035 218.091 31.4192 217.874 30.8298 217.441C30.2405 217.008 29.8808 216.388 29.7508 215.582H31.8958C31.9305 215.894 32.0605 216.132 32.2858 216.297C32.5198 216.462 32.8188 216.544 33.1828 216.544C33.4342 216.544 33.6248 216.488 33.7548 216.375C33.8848 216.254 33.9498 216.098 33.9498 215.907C33.9498 215.656 33.8285 215.478 33.5858 215.374C33.3518 215.261 32.9662 215.144 32.4288 215.023C31.8915 214.91 31.4495 214.789 31.1028 214.659C30.7562 214.529 30.4572 214.321 30.2058 214.035C29.9545 213.74 29.8288 213.342 29.8288 212.839C29.8288 212.189 30.0758 211.665 30.5698 211.266C31.0638 210.859 31.7615 210.655 32.6628 210.655ZM39.8738 210.655C40.7924 210.655 41.5248 210.885 42.0708 211.344C42.6254 211.803 42.9721 212.41 43.1108 213.164H41.0308C40.9701 212.869 40.8314 212.64 40.6148 212.475C40.4068 212.302 40.1424 212.215 39.8218 212.215C39.5704 212.215 39.3798 212.271 39.2498 212.384C39.1198 212.488 39.0548 212.64 39.0548 212.839C39.0548 213.064 39.1718 213.233 39.4058 213.346C39.6484 213.459 40.0254 213.571 40.5368 213.684C41.0914 213.814 41.5464 213.948 41.9018 214.087C42.2571 214.217 42.5648 214.434 42.8248 214.737C43.0848 215.04 43.2148 215.448 43.2148 215.959C43.2148 216.375 43.1021 216.743 42.8768 217.064C42.6514 217.385 42.3264 217.636 41.9018 217.818C41.4771 218 40.9744 218.091 40.3938 218.091C39.4144 218.091 38.6301 217.874 38.0408 217.441C37.4514 217.008 37.0918 216.388 36.9618 215.582H39.1068C39.1414 215.894 39.2714 216.132 39.4968 216.297C39.7308 216.462 40.0298 216.544 40.3938 216.544C40.6451 216.544 40.8358 216.488 40.9658 216.375C41.0958 216.254 41.1608 216.098 41.1608 215.907C41.1608 215.656 41.0394 215.478 40.7968 215.374C40.5628 215.261 40.1771 215.144 39.6398 215.023C39.1024 214.91 38.6604 214.789 38.3138 214.659C37.9671 214.529 37.6681 214.321 37.4168 214.035C37.1654 213.74 37.0398 213.342 37.0398 212.839C37.0398 212.189 37.2868 211.665 37.7808 211.266C38.2748 210.859 38.9724 210.655 39.8738 210.655ZM47.8387 210.655C48.558 210.655 49.1994 210.807 49.7627 211.11C50.3347 211.405 50.781 211.834 51.1017 212.397C51.431 212.96 51.5957 213.619 51.5957 214.373C51.5957 215.127 51.431 215.786 51.1017 216.349C50.781 216.912 50.3347 217.346 49.7627 217.649C49.1994 217.944 48.558 218.091 47.8387 218.091C47.1194 218.091 46.4737 217.944 45.9017 217.649C45.3297 217.346 44.879 216.912 44.5497 216.349C44.229 215.786 44.0687 215.127 44.0687 214.373C44.0687 213.619 44.229 212.96 44.5497 212.397C44.879 211.834 45.3297 211.405 45.9017 211.11C46.4737 210.807 47.1194 210.655 47.8387 210.655ZM47.8387 212.579C47.414 212.579 47.0544 212.735 46.7597 213.047C46.4737 213.35 46.3307 213.792 46.3307 214.373C46.3307 214.954 46.4737 215.396 46.7597 215.699C47.0544 216.002 47.414 216.154 47.8387 216.154C48.2634 216.154 48.6187 216.002 48.9047 215.699C49.1907 215.396 49.3337 214.954 49.3337 214.373C49.3337 213.792 49.1907 213.35 48.9047 213.047C48.6187 212.735 48.2634 212.579 47.8387 212.579ZM57.3504 210.668C58.1824 210.668 58.8411 210.945 59.3264 211.5C59.8204 212.055 60.0674 212.817 60.0674 213.788V218H57.8444V214.048C57.8444 213.563 57.7144 213.186 57.4544 212.917C57.2031 212.64 56.8651 212.501 56.4404 212.501C55.9898 212.501 55.6301 212.644 55.3614 212.93C55.1014 213.216 54.9714 213.623 54.9714 214.152V218H52.7484V210.746H54.9714V212.072C55.1794 211.639 55.4871 211.296 55.8944 211.045C56.3104 210.794 56.7958 210.668 57.3504 210.668Z" fill="white"/>
<g clip-path="url(#clip0_1859_5067)">
<path d="M145 224.929C152.692 224.929 158.928 218.693 158.928 211.001C158.928 203.308 152.692 197.072 145 197.072C137.307 197.072 131.071 203.308 131.071 211.001C131.071 218.693 137.307 224.929 145 224.929Z" fill="#F7F7F5" stroke="#614C4C" stroke-width="1.46341" stroke-linecap="round" stroke-linejoin="round"/>
<path d="M142.857 204.572L149.286 211.001L142.857 217.429" stroke="#6F2E17" stroke-width="2.19512" stroke-linecap="round" stroke-linejoin="round"/>
</g>
<rect x="15" y="31" width="141" height="141" rx="20" fill="white"/>
<g clip-path="url(#clip1_1859_5067)">
<path d="M61.0971 137.003C59.5937 137.003 57.9607 136.418 56.3823 135.854C54.7834 135.282 53.13 134.691 51.5993 134.691C50.0685 134.691 48.4151 135.282 46.8162 135.854C45.2378 136.418 43.6048 137.003 42.1014 137.003C41.5559 137.003 41.0616 136.928 40.5945 136.778C38.5865 136.129 37.2536 134.16 35.9615 132.253C35.041 130.893 34.0865 129.485 32.9205 128.639C31.7342 127.779 30.0841 127.303 28.4887 126.84C26.2898 126.204 24.0193 125.548 22.7954 123.872C21.5885 122.216 21.6601 119.87 21.7283 117.602C21.7795 115.933 21.834 114.209 21.3704 112.795C20.934 111.459 19.9487 110.197 18.9021 108.864C17.4737 107.039 15.9941 105.152 15.9941 102.999C15.9941 100.847 17.4737 98.9603 18.9021 97.1345C19.9487 95.8017 20.934 94.5403 21.3704 93.2041C21.8306 91.7897 21.7795 90.0659 21.7283 88.3965C21.6601 86.1287 21.5885 83.7827 22.7954 82.1269C24.0193 80.4507 26.2898 79.7945 28.4887 79.1587C30.0841 78.6963 31.7376 78.2203 32.924 77.3601C34.0899 76.5135 35.041 75.1059 35.9615 73.7459C37.2502 71.8419 38.5865 69.8733 40.5945 69.2205C41.0616 69.0675 41.5559 68.9961 42.1014 68.9961C43.6048 68.9961 45.2378 69.5809 46.8162 70.1453C48.4151 70.7165 50.0651 71.3081 51.5993 71.3081C53.1334 71.3081 54.7834 70.7165 56.3823 70.1453C57.9607 69.5809 59.5937 68.9961 61.0971 68.9961C61.6426 68.9961 62.1369 69.0709 62.604 69.2205C64.612 69.8699 65.9449 71.8419 67.237 73.7459C68.1575 75.1059 69.112 76.5135 70.278 77.3601C71.4643 78.2203 73.1144 78.6963 74.7133 79.1587C76.9122 79.7945 79.1826 80.4507 80.4065 82.1269C81.6134 83.7827 81.5418 86.1287 81.4736 88.3965C81.4225 90.0659 81.3713 91.7897 81.8316 93.2041C82.2679 94.5403 83.2532 95.8017 84.2998 97.1345C85.7282 98.9603 87.2078 100.847 87.2078 102.999C87.2078 105.152 85.7282 107.039 84.2998 108.864C83.2532 110.197 82.2679 111.459 81.8316 112.795C81.3713 114.209 81.4225 115.933 81.4736 117.602C81.5418 119.87 81.6134 122.216 80.4065 123.872C79.1826 125.548 76.9122 126.204 74.7133 126.84C73.1178 127.303 71.4643 127.779 70.278 128.639C69.112 129.485 68.1609 130.893 67.237 132.253C65.9483 134.157 64.612 136.126 62.604 136.778C62.1369 136.931 61.6426 137.003 61.0971 137.003ZM51.5993 134.313C53.1947 134.313 54.8788 134.915 56.5084 135.5C58.1278 136.081 59.6585 136.629 61.0937 136.629C61.5983 136.629 62.0551 136.561 62.4847 136.421C64.3699 135.813 65.6654 133.895 66.92 132.046C67.8609 130.658 68.8325 129.224 70.0495 128.34C71.2905 127.439 72.9712 126.952 74.6008 126.483C76.7383 125.864 78.9474 125.229 80.0929 123.658C81.2247 122.107 81.1531 119.826 81.0884 117.623C81.0372 115.923 80.9827 114.162 81.4634 112.686C81.9202 111.285 82.9736 109.942 83.993 108.64C85.3839 106.865 86.8191 105.029 86.8191 103.006C86.8191 100.983 85.3805 99.1473 83.993 97.3725C82.9736 96.0703 81.9202 94.7273 81.4634 93.3265C80.9827 91.8509 81.0372 90.0931 81.0884 88.3897C81.1565 86.1831 81.2247 83.9051 80.0929 82.3547C78.9474 80.7839 76.7383 80.1447 74.6008 79.5293C72.9712 79.0601 71.2905 78.5739 70.0495 77.6729C68.8291 76.7889 67.8575 75.3541 66.92 73.9669C65.6654 72.1139 64.3699 70.1997 62.4847 69.5911C62.0551 69.4517 61.5983 69.3837 61.0937 69.3837C59.6585 69.3837 58.1278 69.9311 56.505 70.5125C54.8754 71.0973 53.1913 71.6991 51.5958 71.6991C50.0004 71.6991 48.3162 71.0973 46.6867 70.5125C45.0673 69.9311 43.5366 69.3837 42.1014 69.3837C41.5968 69.3837 41.14 69.4517 40.7104 69.5911C38.8252 70.1997 37.5297 72.1173 36.2751 73.9669C35.3342 75.3541 34.366 76.7889 33.1455 77.6729C31.9046 78.5739 30.2205 79.0601 28.5943 79.5293C26.4568 80.1481 24.2477 80.7839 23.1022 82.3547C21.9704 83.9051 22.042 86.1865 22.1067 88.3897C22.1579 90.0897 22.2124 91.8475 21.7317 93.3231C21.2749 94.7239 20.2215 96.0669 19.2021 97.3691C17.8112 99.1439 16.376 100.976 16.376 102.999C16.376 105.022 17.8146 106.858 19.2021 108.633C20.2215 109.935 21.2749 111.278 21.7317 112.679C22.2124 114.155 22.1579 115.913 22.1067 117.613C22.0386 119.816 21.9704 122.097 23.1022 123.648C24.2477 125.218 26.4602 125.858 28.5943 126.476C30.2239 126.946 31.9046 127.432 33.1455 128.333C34.366 129.217 35.3376 130.652 36.2751 132.039C37.5297 133.892 38.8252 135.806 40.7104 136.415C41.14 136.554 41.5968 136.622 42.1014 136.622C43.5366 136.622 45.0673 136.075 46.6867 135.493C48.3162 134.908 50.0004 134.307 51.5958 134.307L51.5993 134.313Z" fill="#414143"/>
<path d="M84.3665 103.001C84.3665 106.336 80.3812 109.002 79.4028 112.011C78.3869 115.129 80.0062 119.617 78.1107 122.211C76.1982 124.832 71.4083 124.676 68.7765 126.583C66.1719 128.474 64.8526 133.074 61.7264 134.087C58.7093 135.063 54.9422 132.146 51.5978 132.146C48.2534 132.146 44.4863 135.063 41.4692 134.087C38.343 133.074 37.0237 128.47 34.4191 126.583C31.7907 124.676 27.0008 124.832 25.0849 122.211C23.1894 119.617 24.8087 115.129 23.7928 112.011C22.8144 109.002 18.8291 106.336 18.8291 103.001C18.8291 99.6653 22.8144 96.9998 23.7928 93.9908C24.8087 90.873 23.1894 86.385 25.0849 83.7908C26.9974 81.1694 31.7873 81.3258 34.4191 79.4184C37.0203 77.528 38.343 72.9278 41.4692 71.9146C44.4863 70.9388 48.2534 73.856 51.5978 73.856C54.9422 73.856 58.7093 70.9388 61.7264 71.9146C64.8526 72.9278 66.1719 77.5314 68.7765 79.4184C71.4049 81.3258 76.1948 81.1694 78.1107 83.7908C80.0062 86.3884 78.3869 90.873 79.4028 93.9908C80.3812 96.9998 84.3665 99.6653 84.3665 103.001Z" fill="#FE4D13"/>
<path d="M71.0099 122.367C81.7313 111.674 81.7313 94.3378 71.0099 83.6451C60.2885 72.9525 42.9057 72.9525 32.1843 83.6451C21.4629 94.3378 21.4629 111.674 32.1843 122.367C42.9057 133.059 60.2885 133.059 71.0099 122.367Z" fill="#EF4848"/>
<path d="M69.2548 120.616C79.007 110.89 79.007 95.1214 69.2548 85.3954C59.5027 75.6694 43.6913 75.6694 33.9391 85.3954C24.1869 95.1214 24.1869 110.89 33.9391 120.616C43.6913 130.342 59.5027 130.342 69.2548 120.616Z" fill="#F7B538"/>
<path d="M51.4685 81.0312C47.7662 81.0312 44.7627 84.0266 44.7627 87.719H58.1743C58.1743 84.0232 55.1708 81.0312 51.4685 81.0312Z" fill="#FB1F21"/>
<path d="M59.1487 87.7142C59.1487 88.0338 58.8487 88.2956 58.4839 88.2956H44.4519C44.0871 88.2956 43.7871 88.0338 43.7871 87.7142C43.7871 87.3946 44.0871 87.1328 44.4519 87.1328H58.4839C58.8487 87.1328 59.1487 87.3946 59.1487 87.7142Z" fill="#C6121B"/>
<path d="M53.4458 88.0795V81.9017C53.4458 80.8137 52.5594 79.9297 51.4685 79.9297C50.3776 79.9297 49.4912 80.8137 49.4912 81.9017V88.0795H53.4492H53.4458Z" fill="#C6121B"/>
<path d="M56.3621 118.719L55.7109 117.617L56.3757 116.543C55.9837 116.461 55.5643 116.519 55.1927 116.74C54.545 117.121 54.2518 117.869 54.4223 118.563L48.7529 121.901C48.2244 121.415 47.4233 121.31 46.7722 121.691C45.9778 122.156 45.7153 123.18 46.1824 123.972C46.6528 124.764 47.6756 125.026 48.4699 124.56C49.1483 124.162 49.4381 123.36 49.2199 122.643L54.8484 119.331C55.37 119.868 56.2121 120.001 56.8871 119.603C57.2587 119.385 57.5144 119.045 57.6303 118.665L56.3621 118.726V118.719ZM48.6949 123.112L48.1665 124.043L47.096 124.054L46.5506 123.132L47.079 122.201L48.1494 122.19L48.6949 123.112Z" fill="#621708"/>
<path d="M57.0765 123.699L48.1343 117.8L48.3252 117.494C48.9763 116.447 49.5729 116.756 49.5729 116.756L49.7638 116.45C48.407 115.61 47.4524 116.953 47.4524 116.953L46.3683 118.697L46.5252 118.796L46.3581 119.065L46.2013 118.969L45.8672 119.507L46.7433 120.047L47.0774 119.51L46.9206 119.411L47.0877 119.143L47.2445 119.238L47.7149 118.48L56.6605 124.379L57.0833 123.699H57.0765Z" fill="#621708"/>
<path d="M40.5796 122.118C34.0374 118.365 29.6328 111.32 29.6328 103.252C29.6328 95.1835 34.4533 87.4961 41.4966 83.8887" stroke="#414143" stroke-width="0.416682" stroke-miterlimit="10"/>
<path d="M62.6202 122.118C69.1623 118.365 73.567 111.32 73.567 103.252C73.567 95.1835 68.7464 87.4961 61.7031 83.8887" stroke="#414143" stroke-width="0.416682" stroke-miterlimit="10"/>
<path d="M38.0056 100.38C37.9203 100.452 37.8078 100.509 37.6749 100.554C37.5419 100.598 37.3817 100.618 37.2044 100.618C36.9658 100.618 36.7714 100.588 36.618 100.53C36.4612 100.472 36.3623 100.37 36.318 100.224C36.1339 99.6459 35.9805 99.1767 35.8646 98.8197C35.7453 98.4627 35.6532 98.1465 35.5885 97.8779H35.5407C35.5203 98.2655 35.5067 98.6191 35.4964 98.9387C35.4862 99.2583 35.4794 99.5677 35.476 99.8703C35.476 100.173 35.4657 100.479 35.4555 100.788C35.4453 101.098 35.4316 101.438 35.4112 101.815C35.326 101.849 35.2135 101.876 35.0737 101.9C34.9339 101.924 34.7975 101.934 34.6578 101.934C34.368 101.934 34.143 101.886 33.9794 101.795C33.8191 101.703 33.7373 101.536 33.7373 101.291L34.0237 96.2629C34.0782 96.1779 34.1907 96.0861 34.3714 95.9875C34.5487 95.8889 34.801 95.8379 35.1214 95.8379C35.4692 95.8379 35.7453 95.8923 35.943 96.0011C36.1408 96.1099 36.2873 96.2867 36.3794 96.5281C36.4373 96.6845 36.5021 96.8681 36.5737 97.0687C36.6419 97.2727 36.7135 97.4835 36.7817 97.7011C36.8499 97.9187 36.918 98.1329 36.9828 98.3471C37.0476 98.5613 37.1089 98.7517 37.1601 98.9251H37.2078C37.3646 98.3743 37.5249 97.8405 37.6817 97.3237C37.8385 96.8069 37.9851 96.3751 38.1181 96.0283C38.2169 95.9739 38.3431 95.9297 38.4999 95.8957C38.6533 95.8583 38.8272 95.8413 39.0181 95.8413C39.3419 95.8413 39.6044 95.8889 39.809 95.9841C40.0135 96.0793 40.1329 96.2153 40.1635 96.3921C40.1908 96.5247 40.2181 96.7253 40.2488 96.9973C40.2795 97.2693 40.3101 97.5787 40.3442 97.9187C40.3783 98.2621 40.409 98.6225 40.4431 99.0033C40.4772 99.3841 40.5079 99.7513 40.5386 100.101C40.5692 100.452 40.5931 100.775 40.6135 101.067C40.634 101.359 40.6476 101.584 40.6545 101.744C40.542 101.808 40.426 101.856 40.3033 101.886C40.1806 101.917 40.0238 101.931 39.8329 101.931C39.5806 101.931 39.3726 101.886 39.1988 101.801C39.0283 101.716 38.9363 101.55 38.9226 101.298C38.8817 100.581 38.8578 99.9383 38.8476 99.3671C38.8374 98.7959 38.8237 98.3165 38.8033 97.9289H38.7522C38.6874 98.1839 38.5919 98.5069 38.4658 98.8945C38.3397 99.2821 38.1896 99.7785 38.0124 100.384L38.0056 100.38Z" fill="#621708"/>
<path d="M43.0699 96.0508C43.1824 95.9862 43.3528 95.9216 43.5778 95.8638C43.8063 95.806 44.0347 95.7754 44.2665 95.7754C44.5972 95.7754 44.887 95.823 45.1426 95.9182C45.3983 96.0134 45.5586 96.163 45.6336 96.367C45.7529 96.7104 45.8824 97.1048 46.0188 97.5604C46.1586 98.0126 46.2949 98.4818 46.4347 98.9646C46.5745 99.4474 46.7074 99.9234 46.8404 100.396C46.9733 100.865 47.0893 101.283 47.1881 101.644C47.1097 101.736 46.9904 101.81 46.8336 101.865C46.6768 101.919 46.4858 101.95 46.2711 101.95C46.1142 101.95 45.9779 101.936 45.8722 101.909C45.7665 101.882 45.6745 101.844 45.6063 101.79C45.5381 101.739 45.4801 101.668 45.4392 101.583C45.3949 101.498 45.3574 101.399 45.3267 101.287L45.1495 100.607H43.3597C43.3051 100.804 43.254 101.008 43.2028 101.219C43.1517 101.43 43.0972 101.634 43.046 101.831C42.954 101.865 42.8551 101.892 42.7528 101.916C42.6506 101.94 42.5278 101.95 42.3812 101.95C42.0437 101.95 41.7949 101.892 41.6346 101.776C41.4744 101.661 41.3926 101.501 41.3926 101.297C41.3926 101.205 41.4062 101.113 41.4335 101.022C41.4608 100.93 41.488 100.821 41.5221 100.695C41.5664 100.518 41.6312 100.297 41.7164 100.036C41.7983 99.7738 41.8903 99.4882 41.9892 99.1822C42.088 98.8762 42.1937 98.5634 42.3062 98.2404C42.4187 97.9174 42.5244 97.6148 42.6233 97.3292C42.7221 97.0436 42.8142 96.7886 42.896 96.5642C42.9778 96.3398 43.0426 96.1698 43.0903 96.0508H43.0699ZM44.2563 97.3224C44.1642 97.5978 44.0585 97.9072 43.946 98.2438C43.8301 98.5838 43.7278 98.9272 43.6358 99.274H44.8631C44.771 98.9204 44.6756 98.5736 44.5801 98.2336C44.4847 97.8936 44.396 97.591 44.3176 97.3224H44.2597H44.2563Z" fill="#621708"/>
<path d="M49.7337 99.4708C49.444 99.3722 49.1814 99.2736 48.9428 99.1716C48.7042 99.0696 48.503 98.9472 48.3292 98.801C48.1587 98.6582 48.0258 98.4848 47.9303 98.2842C47.8348 98.0836 47.7871 97.8388 47.7871 97.5498C47.7871 96.9922 48.0019 96.5434 48.4348 96.2102C48.8678 95.8736 49.4712 95.707 50.2485 95.707C50.5315 95.707 50.794 95.7274 51.0394 95.7648C51.2815 95.8056 51.4929 95.8634 51.6667 95.9484C51.8406 96.03 51.9769 96.1354 52.0758 96.2646C52.1747 96.3938 52.2224 96.5434 52.2224 96.7134C52.2224 96.8834 52.1815 97.0296 52.1031 97.152C52.0247 97.2744 51.9292 97.3764 51.8167 97.4614C51.6701 97.3696 51.4758 97.288 51.2338 97.22C50.9883 97.152 50.7224 97.118 50.4326 97.118C50.1428 97.118 49.9178 97.1588 49.7815 97.2404C49.6417 97.322 49.5735 97.4274 49.5735 97.5498C49.5735 97.6484 49.6144 97.73 49.703 97.7912C49.7883 97.8524 49.9178 97.9102 50.0883 97.9646L50.6133 98.1312C51.2338 98.3284 51.7076 98.58 52.0417 98.886C52.3758 99.192 52.5395 99.6068 52.5395 100.134C52.5395 100.691 52.3179 101.144 51.8781 101.49C51.4349 101.834 50.7872 102.007 49.9315 102.007C49.628 102.007 49.3451 101.983 49.086 101.932C48.8269 101.885 48.5985 101.81 48.4042 101.715C48.2098 101.62 48.0564 101.501 47.9507 101.361C47.8417 101.218 47.7871 101.059 47.7871 100.872C47.7871 100.685 47.8417 100.518 47.9542 100.382C48.0667 100.246 48.1894 100.144 48.3189 100.073C48.503 100.215 48.728 100.341 48.9974 100.447C49.2633 100.552 49.5565 100.603 49.8735 100.603C50.1906 100.603 50.4224 100.555 50.5553 100.457C50.6883 100.358 50.7531 100.243 50.7531 100.113C50.7531 99.9842 50.6985 99.8822 50.5962 99.8142C50.4906 99.7462 50.3406 99.6782 50.1496 99.6136L49.7337 99.4742V99.4708Z" fill="#621708"/>
<path d="M53.0732 97.2513C53.0255 97.1799 52.9846 97.0814 52.9437 96.9556C52.9028 96.8298 52.8857 96.7006 52.8857 96.5612C52.8857 96.3062 52.9437 96.1226 53.0596 96.0104C53.1755 95.8982 53.3255 95.8438 53.5096 95.8438H57.8188C57.8631 95.9151 57.9074 96.0138 57.9483 96.1396C57.9892 96.2654 58.0063 96.3946 58.0063 96.534C58.0063 96.789 57.9483 96.9726 57.8324 97.0848C57.7165 97.197 57.5665 97.2513 57.3824 97.2513H56.2847V101.807C56.2131 101.828 56.0972 101.848 55.9437 101.865C55.7903 101.886 55.6369 101.896 55.4835 101.896C55.3301 101.896 55.1971 101.886 55.0846 101.862C54.9687 101.838 54.8733 101.797 54.7915 101.739C54.713 101.682 54.6517 101.597 54.6142 101.495C54.5733 101.389 54.5562 101.253 54.5562 101.08V97.2548H53.0732V97.2513Z" fill="#621708"/>
<path d="M58.8486 96.7891C58.8486 96.5069 58.9304 96.2825 59.0975 96.1193C59.2611 95.9561 59.4861 95.8711 59.7691 95.8711H63.0316C63.076 95.9425 63.1203 96.0377 63.1544 96.1567C63.1919 96.2757 63.2089 96.4015 63.2089 96.5307C63.2089 96.7789 63.1544 96.9591 63.0453 97.0645C62.9362 97.1699 62.793 97.2209 62.6157 97.2209H60.5293V98.1389H62.7521C62.7964 98.2103 62.8407 98.3055 62.8748 98.4211C62.9123 98.5367 62.9294 98.6591 62.9294 98.7917C62.9294 99.0433 62.8748 99.2201 62.7725 99.3255C62.6669 99.4309 62.5237 99.4819 62.3464 99.4819H60.5259V100.515H63.0657C63.1135 100.587 63.1544 100.682 63.1885 100.801C63.226 100.92 63.243 101.046 63.243 101.175C63.243 101.423 63.1885 101.603 63.0794 101.712C62.9703 101.821 62.8271 101.875 62.6498 101.875H59.7623C59.4793 101.875 59.2543 101.794 59.0907 101.631C58.927 101.467 58.8418 101.243 58.8418 100.961V96.7891H58.8486Z" fill="#621708"/>
<path d="M65.9858 99.9123V101.806C65.9142 101.827 65.7983 101.847 65.6449 101.864C65.488 101.884 65.3381 101.895 65.1846 101.895C65.0312 101.895 64.8983 101.884 64.7858 101.861C64.6699 101.837 64.5744 101.796 64.4994 101.738C64.4244 101.68 64.3664 101.595 64.3255 101.493C64.2846 101.388 64.2676 101.252 64.2676 101.079V96.4341C64.2676 96.2947 64.3051 96.1893 64.3801 96.1145C64.4551 96.0397 64.5608 95.9785 64.6903 95.9309C64.9153 95.8527 65.1744 95.7949 65.471 95.7575C65.7676 95.7201 66.0847 95.7031 66.4187 95.7031C67.329 95.7031 68.0142 95.8935 68.4745 96.2743C68.9347 96.6551 69.1665 97.1719 69.1665 97.8213C69.1665 98.2293 69.0608 98.5761 68.8495 98.8651C68.6381 99.1541 68.3892 99.3785 68.0995 99.5349C68.3381 99.8579 68.5699 100.161 68.8017 100.443C69.0336 100.725 69.2142 100.983 69.3438 101.211C69.279 101.442 69.1563 101.616 68.9824 101.738C68.8086 101.861 68.6108 101.922 68.3926 101.922C68.246 101.922 68.1233 101.905 68.0176 101.871C67.912 101.837 67.8199 101.793 67.7415 101.731C67.6631 101.674 67.5915 101.599 67.5233 101.514C67.4585 101.429 67.3938 101.337 67.3358 101.238L66.504 99.9055H65.979L65.9858 99.9123ZM66.6097 98.6033C66.8585 98.6033 67.0563 98.5387 67.2029 98.4095C67.346 98.2803 67.421 98.0933 67.421 97.8417C67.421 97.5901 67.3392 97.4031 67.179 97.2739C67.0188 97.1447 66.7631 97.0801 66.4119 97.0801C66.3131 97.0801 66.2347 97.0801 66.1733 97.0903C66.1153 97.0971 66.0471 97.1073 65.9756 97.1209V98.5999H66.6097V98.6033Z" fill="#621708"/>
<path d="M40.3962 108.878C40.3109 108.95 40.1984 109.008 40.0655 109.052C39.9325 109.096 39.7723 109.116 39.595 109.116C39.3564 109.116 39.1621 109.086 39.0087 109.028C38.8518 108.97 38.753 108.868 38.7087 108.722C38.5246 108.144 38.3711 107.675 38.2552 107.318C38.1359 106.961 38.0439 106.645 37.9791 106.376H37.9314C37.9109 106.764 37.8973 107.117 37.887 107.437C37.8768 107.756 37.87 108.066 37.8666 108.368C37.8666 108.671 37.8564 108.977 37.8461 109.286C37.8359 109.596 37.8223 109.936 37.8018 110.313C37.7166 110.347 37.6041 110.374 37.4643 110.398C37.3245 110.422 37.1882 110.432 37.0484 110.432C36.7586 110.432 36.5336 110.385 36.37 110.293C36.2097 110.201 36.1279 110.034 36.1279 109.79L36.4143 104.761C36.4688 104.676 36.5813 104.584 36.762 104.486C36.9393 104.387 37.1916 104.336 37.512 104.336C37.8598 104.336 38.1359 104.39 38.3336 104.499C38.5314 104.608 38.678 104.785 38.77 105.026C38.828 105.183 38.8927 105.366 38.9643 105.567C39.0325 105.771 39.1041 105.982 39.1723 106.199C39.2405 106.417 39.3087 106.631 39.3734 106.845C39.4382 107.059 39.4996 107.25 39.5507 107.423H39.5984C39.7553 106.872 39.9155 106.339 40.0723 105.822C40.2291 105.305 40.3757 104.873 40.5087 104.526C40.6075 104.472 40.7337 104.428 40.8905 104.394C41.0439 104.356 41.2178 104.339 41.4087 104.339C41.7326 104.339 41.9951 104.387 42.1996 104.482C42.4042 104.577 42.5235 104.713 42.5542 104.89C42.5814 105.023 42.6087 105.223 42.6394 105.495C42.6701 105.767 42.7008 106.077 42.7349 106.417C42.7689 106.76 42.7996 107.121 42.8337 107.501C42.8678 107.882 42.8985 108.249 42.9292 108.6C42.9599 108.95 42.9837 109.273 43.0042 109.565C43.0246 109.858 43.0383 110.082 43.0451 110.242C42.9326 110.306 42.8167 110.354 42.6939 110.385C42.5712 110.415 42.4144 110.429 42.2235 110.429C41.9712 110.429 41.7632 110.385 41.5894 110.3C41.4189 110.215 41.3269 110.048 41.3132 109.796C41.2723 109.079 41.2485 108.436 41.2382 107.865C41.228 107.294 41.2144 106.815 41.1939 106.427H41.1428C41.078 106.682 40.9826 107.005 40.8564 107.393C40.7303 107.78 40.5803 108.277 40.403 108.882L40.3962 108.878Z" fill="#621708"/>
<path d="M45.4556 104.551C45.5681 104.486 45.7386 104.422 45.9636 104.364C46.192 104.306 46.4204 104.275 46.6522 104.275C46.9829 104.275 47.2727 104.323 47.5284 104.418C47.7841 104.513 47.9443 104.663 48.0193 104.867C48.1386 105.21 48.2682 105.605 48.4045 106.06C48.5443 106.513 48.6807 106.982 48.8204 107.465C48.9602 107.947 49.0932 108.423 49.2261 108.896C49.3591 109.365 49.475 109.783 49.5739 110.144C49.4955 110.236 49.3761 110.31 49.2193 110.365C49.0625 110.419 48.8716 110.45 48.6568 110.45C48.5 110.45 48.3636 110.436 48.2579 110.409C48.1523 110.382 48.0602 110.344 47.992 110.29C47.9238 110.239 47.8659 110.168 47.825 110.083C47.7807 109.998 47.7432 109.899 47.7125 109.787L47.5352 109.107H45.7454C45.6908 109.304 45.6397 109.508 45.5886 109.719C45.5374 109.93 45.4829 110.134 45.4318 110.331C45.3397 110.365 45.2408 110.392 45.1386 110.416C45.0363 110.44 44.9136 110.45 44.767 110.45C44.4295 110.45 44.1806 110.392 44.0204 110.276C43.8601 110.161 43.7783 110.001 43.7783 109.797C43.7783 109.705 43.792 109.613 43.8192 109.522C43.8465 109.43 43.8738 109.321 43.9079 109.195C43.9522 109.018 44.017 108.797 44.1022 108.536C44.184 108.274 44.2761 107.988 44.3749 107.682C44.4738 107.376 44.5795 107.063 44.692 106.74C44.8045 106.417 44.9102 106.115 45.009 105.829C45.1079 105.544 45.1999 105.289 45.2818 105.064C45.3636 104.84 45.4283 104.67 45.4761 104.551H45.4556ZM46.6454 105.822C46.5534 106.098 46.4477 106.407 46.3352 106.744C46.2193 107.084 46.117 107.427 46.0249 107.774H47.2522C47.1602 107.42 47.0647 107.074 46.9693 106.734C46.8738 106.394 46.7852 106.091 46.7068 105.822H46.6488H46.6454Z" fill="#621708"/>
<path d="M52.1195 108.129V110.309C52.0479 110.329 51.932 110.349 51.7718 110.366C51.615 110.387 51.4581 110.397 51.3081 110.397C51.1581 110.397 51.0218 110.387 50.9093 110.363C50.7934 110.339 50.6979 110.298 50.6161 110.241C50.5377 110.183 50.4763 110.098 50.4388 109.996C50.3979 109.89 50.3809 109.754 50.3809 109.581V104.376C50.4525 104.362 50.5684 104.345 50.7286 104.321C50.8854 104.297 51.0388 104.287 51.182 104.287C51.3252 104.287 51.4684 104.297 51.5809 104.321C51.6934 104.345 51.7922 104.386 51.8741 104.444C51.9525 104.501 52.0138 104.586 52.0513 104.688C52.0923 104.794 52.1093 104.933 52.1093 105.103V106.671L54.165 104.314C54.6116 104.314 54.9355 104.399 55.1298 104.566C55.3241 104.733 55.423 104.933 55.423 105.161C55.423 105.331 55.3787 105.494 55.2934 105.644C55.2082 105.797 55.0684 105.967 54.8775 106.157L53.6434 107.388C53.807 107.572 53.9809 107.762 54.1616 107.959C54.3423 108.156 54.5196 108.35 54.6968 108.537C54.8707 108.724 55.0378 108.904 55.2014 109.074C55.3616 109.244 55.5014 109.394 55.6207 109.52C55.6207 109.663 55.5934 109.792 55.5423 109.904C55.4878 110.016 55.4196 110.111 55.3309 110.19C55.2423 110.268 55.14 110.329 55.0309 110.366C54.9184 110.407 54.7991 110.424 54.6764 110.424C54.4071 110.424 54.1855 110.356 54.015 110.224C53.8446 110.088 53.6775 109.928 53.5207 109.744L52.1263 108.126L52.1195 108.129Z" fill="#621708"/>
<path d="M56.458 105.291C56.458 105.009 56.5398 104.784 56.7069 104.621C56.8705 104.458 57.0955 104.373 57.3785 104.373H60.641C60.6853 104.444 60.7296 104.54 60.7637 104.659C60.8012 104.778 60.8183 104.903 60.8183 105.033C60.8183 105.281 60.7637 105.461 60.6546 105.566C60.5456 105.672 60.4024 105.723 60.2251 105.723H58.1387V106.641H60.3615C60.4058 106.712 60.4501 106.807 60.4842 106.923C60.5217 107.039 60.5387 107.161 60.5387 107.294C60.5387 107.545 60.4842 107.722 60.3819 107.827C60.2762 107.933 60.133 107.984 59.9558 107.984H58.1353V109.017H60.6751C60.7228 109.089 60.7637 109.184 60.7978 109.303C60.8353 109.422 60.8524 109.548 60.8524 109.677C60.8524 109.925 60.7978 110.105 60.6887 110.214C60.5796 110.323 60.4365 110.377 60.2592 110.377H57.3716C57.0887 110.377 56.8637 110.296 56.7 110.133C56.5364 109.969 56.4512 109.745 56.4512 109.463V105.291H56.458Z" fill="#621708"/>
<path d="M63.5991 108.412V110.306C63.5275 110.327 63.4116 110.347 63.2582 110.364C63.1013 110.384 62.9513 110.395 62.7979 110.395C62.6445 110.395 62.5116 110.384 62.3991 110.361C62.2831 110.337 62.1877 110.296 62.1127 110.238C62.0377 110.18 61.9797 110.095 61.9388 109.993C61.8979 109.888 61.8809 109.752 61.8809 109.579V104.934C61.8809 104.795 61.9184 104.689 61.9934 104.615C62.0684 104.54 62.174 104.479 62.3036 104.431C62.5286 104.353 62.7877 104.295 63.0843 104.258C63.3809 104.22 63.6979 104.203 64.032 104.203C64.9423 104.203 65.6275 104.394 66.0877 104.774C66.548 105.155 66.7798 105.672 66.7798 106.321C66.7798 106.729 66.6741 107.076 66.4628 107.365C66.2514 107.654 66.0025 107.879 65.7127 108.035C65.9514 108.358 66.1832 108.661 66.415 108.943C66.6468 109.225 66.8275 109.483 66.9571 109.711C66.8923 109.942 66.7696 110.116 66.5957 110.238C66.4218 110.361 66.2241 110.422 66.0059 110.422C65.8593 110.422 65.7366 110.405 65.6309 110.371C65.5252 110.337 65.4332 110.293 65.3548 110.231C65.2764 110.174 65.2048 110.099 65.1366 110.014C65.0718 109.929 65.007 109.837 64.9491 109.738L64.1173 108.406H63.5923L63.5991 108.412ZM64.2229 107.103C64.4718 107.103 64.6695 107.039 64.8161 106.91C64.9593 106.78 65.0343 106.593 65.0343 106.342C65.0343 106.09 64.9525 105.903 64.7923 105.774C64.632 105.645 64.3764 105.58 64.0252 105.58C63.9263 105.58 63.8479 105.58 63.7866 105.59C63.7286 105.597 63.6604 105.607 63.5888 105.621V107.1H64.2229V107.103Z" fill="#621708"/>
</g>
<g clip-path="url(#clip2_1859_5067)">
<path d="M91.1631 102V139.292C91.1631 154.375 103.39 166.605 118.477 166.605C133.56 166.605 145.791 154.378 145.791 139.292V102H91.1631Z" fill="#621708"/>
<path d="M93.624 104.906V138.842C93.624 152.571 104.752 163.696 118.478 163.696C132.203 163.696 143.331 152.568 143.331 138.842V104.906H93.624Z" fill="#F7B538"/>
<path d="M96.0391 107.783V138.379C96.0391 150.75 106.106 160.816 118.477 160.816C130.848 160.816 140.915 150.75 140.915 138.379V107.783H96.0391ZM139.971 116.577C125.894 112.267 111.059 112.267 96.9861 116.577V110.772H139.971V116.577ZM139.971 108.727V110.303H96.9824V108.727H139.968H139.971ZM134.278 152.526C132.876 152.526 132.173 153.11 131.492 153.676C130.848 154.213 130.241 154.716 129.01 154.716C127.778 154.716 127.167 154.209 126.523 153.676C125.843 153.11 125.14 152.526 123.738 152.526C122.336 152.526 121.633 153.11 120.952 153.676C120.308 154.213 119.701 154.716 118.469 154.716C117.238 154.716 116.631 154.209 115.987 153.676C115.306 153.11 114.603 152.526 113.201 152.526C111.799 152.526 111.096 153.11 110.416 153.676C109.772 154.213 109.165 154.716 107.933 154.716C106.701 154.716 106.094 154.209 105.451 153.676C104.77 153.11 104.067 152.526 102.665 152.526C102.55 152.526 102.439 152.537 102.328 152.544C101.725 151.86 101.163 151.138 100.649 150.38C101.152 150.006 101.729 149.714 102.661 149.714C103.893 149.714 104.5 150.221 105.144 150.754C105.824 151.32 106.527 151.904 107.929 151.904C109.332 151.904 110.034 151.32 110.715 150.754C111.359 150.217 111.966 149.714 113.198 149.714C114.43 149.714 115.036 150.221 115.68 150.754C116.361 151.32 117.064 151.904 118.466 151.904C119.868 151.904 120.571 151.32 121.252 150.754C121.895 150.217 122.502 149.714 123.734 149.714C124.966 149.714 125.573 150.221 126.216 150.754C126.897 151.32 127.6 151.904 129.002 151.904C130.404 151.904 131.107 151.32 131.788 150.754C132.432 150.217 133.038 149.714 134.27 149.714C135.191 149.714 135.758 149.991 136.29 150.384C135.78 151.138 135.217 151.856 134.618 152.54C134.503 152.533 134.389 152.526 134.27 152.526H134.278ZM134.278 149.24C132.876 149.24 132.173 149.825 131.492 150.391C130.848 150.927 130.241 151.431 129.01 151.431C127.778 151.431 127.167 150.924 126.523 150.391C125.843 149.825 125.14 149.24 123.738 149.24C122.336 149.24 121.633 149.825 120.952 150.391C120.308 150.927 119.701 151.431 118.469 151.431C117.238 151.431 116.631 150.924 115.987 150.391C115.306 149.825 114.603 149.24 113.201 149.24C111.799 149.24 111.096 149.825 110.416 150.391C109.772 150.927 109.165 151.431 107.933 151.431C106.701 151.431 106.094 150.924 105.451 150.391C104.77 149.825 104.067 149.24 102.665 149.24C101.607 149.24 100.948 149.573 100.397 149.98C100.009 149.377 99.6498 148.752 99.3206 148.108C99.6424 147.916 99.9162 147.69 100.183 147.468C100.826 146.932 101.433 146.429 102.665 146.429C103.897 146.429 104.504 146.936 105.147 147.468C105.828 148.034 106.531 148.619 107.933 148.619C109.335 148.619 110.038 148.034 110.719 147.468C111.363 146.932 111.969 146.429 113.201 146.429C114.433 146.429 115.04 146.936 115.684 147.468C116.364 148.034 117.067 148.619 118.469 148.619C119.872 148.619 120.575 148.034 121.255 147.468C121.899 146.932 122.506 146.429 123.738 146.429C124.97 146.429 125.576 146.936 126.22 147.468C126.901 148.034 127.604 148.619 129.006 148.619C130.408 148.619 131.111 148.034 131.792 147.468C132.435 146.932 133.042 146.429 134.274 146.429C135.506 146.429 136.116 146.936 136.76 147.468C137.026 147.69 137.304 147.916 137.629 148.112C137.3 148.756 136.941 149.381 136.553 149.988C135.968 149.559 135.321 149.244 134.278 149.244V149.24ZM109.764 158.016C110.127 157.812 110.427 157.564 110.719 157.32C111.363 156.784 111.969 156.281 113.201 156.281C114.433 156.281 115.04 156.788 115.684 157.32C116.364 157.886 117.067 158.471 118.469 158.471C119.872 158.471 120.575 157.886 121.255 157.32C121.899 156.784 122.506 156.281 123.738 156.281C124.97 156.281 125.58 156.788 126.22 157.32C126.516 157.564 126.819 157.816 127.182 158.019C124.518 159.203 121.573 159.869 118.473 159.869C115.373 159.869 112.424 159.203 109.761 158.016H109.764ZM127.748 157.764C127.267 157.568 126.901 157.272 126.523 156.958C125.843 156.392 125.14 155.807 123.738 155.807C122.336 155.807 121.633 156.392 120.952 156.958C120.308 157.494 119.701 157.997 118.469 157.997C117.238 157.997 116.631 157.49 115.987 156.958C115.306 156.392 114.603 155.807 113.201 155.807C111.799 155.807 111.096 156.392 110.416 156.958C110.038 157.268 109.676 157.564 109.202 157.764C106.757 156.591 104.57 154.964 102.743 153.003C103.919 153.025 104.518 153.517 105.147 154.039C105.828 154.605 106.531 155.189 107.933 155.189C109.335 155.189 110.038 154.605 110.719 154.039C111.363 153.502 111.969 152.999 113.201 152.999C114.433 152.999 115.04 153.506 115.684 154.039C116.364 154.605 117.067 155.189 118.469 155.189C119.872 155.189 120.575 154.605 121.255 154.039C121.899 153.502 122.506 152.999 123.738 152.999C124.97 152.999 125.576 153.506 126.22 154.039C126.901 154.605 127.604 155.189 129.006 155.189C130.408 155.189 131.111 154.605 131.792 154.039C132.424 153.513 133.024 153.021 134.207 153.003C132.38 154.967 130.193 156.595 127.748 157.768V157.764ZM137.844 147.69C137.567 147.52 137.319 147.317 137.063 147.106C136.383 146.54 135.68 145.955 134.278 145.955C132.876 145.955 132.173 146.54 131.492 147.106C130.848 147.642 130.241 148.145 129.01 148.145C127.778 148.145 127.167 147.639 126.523 147.106C125.843 146.54 125.14 145.955 123.738 145.955C122.336 145.955 121.633 146.54 120.952 147.106C120.308 147.642 119.701 148.145 118.469 148.145C117.238 148.145 116.631 147.639 115.987 147.106C115.306 146.54 114.603 145.955 113.201 145.955C111.799 145.955 111.096 146.54 110.416 147.106C109.772 147.642 109.165 148.145 107.933 148.145C106.701 148.145 106.094 147.639 105.451 147.106C104.77 146.54 104.067 145.955 102.665 145.955C101.263 145.955 100.56 146.54 99.8792 147.106C99.6239 147.317 99.3798 147.516 99.1023 147.687C97.7409 144.868 96.9787 141.712 96.9787 138.379V117.073C111.052 112.737 125.894 112.737 139.964 117.073V138.379C139.964 141.712 139.202 144.871 137.84 147.694L137.844 147.69Z" fill="white"/>
<path d="M149.531 137.71C130.948 121.313 107.052 121.313 88.4694 137.71C87.9589 135.253 87.7776 133.984 87.5667 131.402C85.0325 130.769 83.7155 130.533 81 130.24C103.667 109.83 134.322 109.822 157 130.24C154.296 130.521 152.982 130.755 150.455 131.376C150.237 133.969 150.052 135.242 149.531 137.71Z" fill="#621708"/>
<path d="M98.496 121.393C98.57 121.433 98.6477 121.5 98.7327 121.589C98.8178 121.677 98.8918 121.781 98.9473 121.896C99.062 122.118 99.0953 122.303 99.0509 122.443C99.0065 122.584 98.9029 122.699 98.7438 122.78L96.9459 123.701L97.4416 124.67L99.3173 123.709C99.395 123.749 99.4764 123.812 99.5614 123.897C99.6465 123.982 99.7168 124.086 99.776 124.201C99.887 124.419 99.9203 124.596 99.8722 124.741C99.8241 124.885 99.7242 124.996 99.5651 125.077L98.0668 125.847L98.9917 127.656C98.9362 127.704 98.8474 127.774 98.7216 127.859C98.5959 127.944 98.4664 128.022 98.3369 128.089C98.2037 128.155 98.0853 128.207 97.9743 128.237C97.8634 128.266 97.7598 128.274 97.6673 128.259C97.5748 128.244 97.486 128.196 97.4046 128.122C97.3232 128.048 97.2455 127.937 97.1678 127.789L95.2552 124.06C95.1294 123.816 95.0998 123.583 95.1701 123.368C95.2404 123.154 95.3957 122.98 95.6436 122.854L98.496 121.393Z" fill="white"/>
<path d="M103.526 125.589C103.467 125.633 103.374 125.692 103.241 125.77C103.108 125.848 102.975 125.911 102.838 125.966C102.701 126.022 102.575 126.062 102.464 126.085C102.353 126.107 102.25 126.107 102.157 126.085C102.065 126.062 101.98 126.007 101.906 125.929C101.832 125.848 101.761 125.733 101.699 125.578L99.7637 120.876C99.8229 120.839 99.9228 120.779 100.056 120.698C100.189 120.617 100.322 120.554 100.452 120.498C100.589 120.443 100.714 120.402 100.825 120.38C100.936 120.358 101.04 120.358 101.133 120.38C101.225 120.406 101.31 120.458 101.384 120.535C101.458 120.613 101.528 120.731 101.591 120.887L103.526 125.589Z" fill="white"/>
<path d="M109.553 123.475C109.49 123.586 109.387 123.689 109.239 123.786C109.091 123.882 108.902 123.959 108.672 124.03C108.443 124.096 108.217 124.126 107.995 124.119C107.773 124.111 107.559 123.996 107.352 123.778L105.887 122.184C105.739 122.021 105.602 121.866 105.476 121.718C105.35 121.57 105.213 121.399 105.062 121.203L105.01 121.229C105.132 121.555 105.247 121.888 105.35 122.232C105.454 122.576 105.557 122.912 105.657 123.245L106.079 124.677C106.016 124.714 105.92 124.766 105.787 124.825C105.654 124.884 105.52 124.932 105.384 124.973C105.247 125.014 105.125 125.04 105.014 125.051C104.903 125.062 104.806 125.051 104.721 125.018C104.636 124.984 104.562 124.921 104.499 124.836C104.433 124.751 104.377 124.633 104.333 124.477L102.968 119.86C103.016 119.712 103.123 119.579 103.282 119.465C103.441 119.35 103.623 119.265 103.826 119.202C104.055 119.135 104.281 119.106 104.507 119.117C104.732 119.128 104.947 119.239 105.143 119.457L106.619 121.048C106.767 121.211 106.904 121.366 107.03 121.514C107.156 121.662 107.293 121.832 107.444 122.028L107.489 122.006C107.367 121.681 107.252 121.355 107.148 121.022C107.045 120.693 106.941 120.36 106.845 120.027L106.401 118.532C106.464 118.495 106.56 118.443 106.693 118.384C106.826 118.325 106.96 118.277 107.096 118.236C107.367 118.155 107.589 118.144 107.759 118.196C107.929 118.251 108.058 118.425 108.147 118.728L109.553 123.475Z" fill="white"/>
<path d="M109.887 118.595C109.846 118.321 109.887 118.096 110.024 117.911C110.157 117.726 110.361 117.615 110.634 117.57L113.775 117.082C113.831 117.145 113.883 117.23 113.938 117.341C113.994 117.452 114.027 117.567 114.045 117.696C114.082 117.937 114.057 118.118 113.968 118.236C113.879 118.355 113.749 118.425 113.579 118.451L111.57 118.762L111.707 119.646L113.849 119.313C113.905 119.376 113.957 119.461 114.012 119.564C114.064 119.672 114.101 119.786 114.119 119.912C114.156 120.153 114.134 120.334 114.045 120.449C113.96 120.567 113.831 120.637 113.661 120.663L111.911 120.937L112.066 121.936L114.512 121.555C114.567 121.618 114.619 121.703 114.674 121.814C114.726 121.921 114.763 122.039 114.782 122.169C114.819 122.409 114.793 122.591 114.704 122.713C114.615 122.835 114.486 122.909 114.315 122.935L111.537 123.368C111.263 123.408 111.038 123.368 110.853 123.231C110.668 123.098 110.557 122.894 110.516 122.62L109.891 118.595H109.887Z" fill="white"/>
<path d="M122.828 121.81C122.825 122.01 122.784 122.154 122.71 122.251C122.636 122.343 122.521 122.436 122.366 122.521C122.273 122.569 122.162 122.617 122.025 122.661C121.889 122.706 121.741 122.743 121.578 122.776C121.415 122.809 121.249 122.831 121.071 122.846C120.893 122.861 120.719 122.865 120.546 122.861C120.083 122.85 119.65 122.776 119.251 122.639C118.851 122.502 118.503 122.306 118.211 122.043C117.919 121.781 117.693 121.459 117.53 121.078C117.368 120.697 117.294 120.253 117.305 119.753C117.32 119.228 117.427 118.769 117.627 118.385C117.826 118 118.085 117.678 118.404 117.426C118.722 117.175 119.084 116.99 119.488 116.871C119.891 116.753 120.305 116.701 120.731 116.712C121.341 116.727 121.822 116.838 122.173 117.045C122.525 117.249 122.695 117.512 122.688 117.826C122.684 117.992 122.64 118.137 122.551 118.255C122.466 118.374 122.366 118.47 122.255 118.536C122.096 118.436 121.9 118.337 121.659 118.237C121.422 118.137 121.152 118.085 120.849 118.074C120.309 118.059 119.876 118.203 119.55 118.503C119.225 118.803 119.055 119.224 119.04 119.772C119.032 120.068 119.069 120.323 119.151 120.541C119.232 120.76 119.343 120.937 119.488 121.082C119.632 121.222 119.798 121.329 119.991 121.403C120.183 121.477 120.387 121.514 120.605 121.522C120.745 121.522 120.871 121.514 120.982 121.492C121.093 121.47 121.175 121.444 121.234 121.411L121.256 120.504L120.227 120.479C120.19 120.408 120.157 120.312 120.124 120.197C120.091 120.079 120.076 119.957 120.079 119.831C120.087 119.602 120.142 119.435 120.25 119.335C120.357 119.236 120.498 119.187 120.664 119.191L122.292 119.236C122.484 119.239 122.632 119.298 122.736 119.406C122.839 119.513 122.887 119.665 122.884 119.857L122.832 121.821L122.828 121.81Z" fill="white"/>
<path d="M125.658 121.299L125.347 123.123C125.273 123.131 125.162 123.131 125.01 123.123C124.859 123.116 124.711 123.101 124.563 123.075C124.418 123.049 124.293 123.016 124.185 122.975C124.078 122.935 123.993 122.879 123.93 122.809C123.867 122.738 123.827 122.65 123.804 122.542C123.782 122.435 123.786 122.298 123.815 122.135L124.578 117.663C124.6 117.529 124.655 117.433 124.74 117.374C124.825 117.315 124.936 117.271 125.07 117.248C125.299 117.208 125.558 117.197 125.846 117.211C126.135 117.226 126.446 117.259 126.768 117.315C127.641 117.463 128.27 117.759 128.647 118.203C129.028 118.647 129.165 119.18 129.058 119.805C128.991 120.197 128.832 120.515 128.584 120.759C128.333 121.003 128.059 121.177 127.752 121.281C127.926 121.629 128.103 121.958 128.277 122.269C128.451 122.579 128.584 122.853 128.673 123.097C128.573 123.308 128.429 123.456 128.24 123.545C128.051 123.634 127.855 123.66 127.644 123.623C127.504 123.6 127.389 123.563 127.293 123.515C127.197 123.467 127.115 123.408 127.049 123.338C126.982 123.268 126.923 123.186 126.875 123.094C126.827 123.001 126.782 122.901 126.738 122.798L126.157 121.381L125.654 121.296L125.658 121.299ZM126.472 120.138C126.712 120.178 126.912 120.149 127.071 120.049C127.23 119.949 127.334 119.779 127.374 119.538C127.415 119.298 127.367 119.102 127.234 118.954C127.101 118.802 126.864 118.702 126.531 118.643C126.435 118.628 126.361 118.617 126.302 118.613C126.242 118.613 126.179 118.61 126.105 118.613L125.865 120.038L126.472 120.141V120.138Z" fill="white"/>
<path d="M130.933 124.376C130.859 124.376 130.748 124.364 130.596 124.342C130.444 124.32 130.3 124.29 130.156 124.25C130.015 124.209 129.889 124.165 129.79 124.113C129.686 124.061 129.605 123.998 129.549 123.921C129.494 123.843 129.457 123.75 129.446 123.643C129.434 123.536 129.453 123.399 129.497 123.24L130.844 118.338C130.914 118.345 131.029 118.356 131.184 118.375C131.34 118.393 131.484 118.423 131.621 118.46C131.761 118.501 131.887 118.545 131.987 118.597C132.091 118.649 132.172 118.712 132.228 118.789C132.287 118.867 132.32 118.959 132.331 119.067C132.342 119.178 132.324 119.311 132.279 119.474L130.933 124.376Z" fill="white"/>
<path d="M136.982 126.398C136.864 126.45 136.72 126.465 136.542 126.45C136.364 126.435 136.168 126.384 135.946 126.295C135.724 126.21 135.528 126.095 135.358 125.951C135.188 125.806 135.088 125.588 135.058 125.285L134.877 123.128C134.859 122.906 134.848 122.702 134.84 122.51C134.833 122.318 134.829 122.096 134.829 121.848L134.77 121.837C134.666 122.17 134.552 122.503 134.426 122.839C134.3 123.176 134.171 123.505 134.045 123.827L133.505 125.218C133.431 125.211 133.323 125.189 133.183 125.155C133.042 125.122 132.905 125.078 132.772 125.026C132.639 124.974 132.528 124.918 132.432 124.863C132.336 124.804 132.269 124.737 132.221 124.656C132.173 124.574 132.154 124.482 132.154 124.378C132.154 124.271 132.184 124.145 132.243 123.994L133.993 119.506C134.122 119.417 134.285 119.38 134.485 119.388C134.681 119.395 134.877 119.439 135.077 119.513C135.299 119.599 135.495 119.717 135.669 119.865C135.843 120.013 135.943 120.231 135.965 120.523L136.157 122.684C136.176 122.906 136.187 123.109 136.194 123.302C136.202 123.494 136.205 123.716 136.205 123.964L136.253 123.971C136.357 123.638 136.468 123.309 136.586 122.984C136.705 122.658 136.831 122.336 136.956 122.011L137.522 120.557C137.596 120.564 137.704 120.586 137.844 120.62C137.985 120.653 138.122 120.697 138.255 120.749C138.518 120.853 138.699 120.975 138.802 121.123C138.902 121.271 138.899 121.489 138.784 121.781L136.986 126.391L136.982 126.398Z" fill="white"/>
<path d="M139.724 128.251C139.628 128.199 139.52 128.133 139.398 128.063C139.276 127.989 139.158 127.907 139.032 127.818C138.91 127.73 138.788 127.633 138.669 127.537C138.551 127.437 138.447 127.337 138.362 127.23C138.118 126.942 138.077 126.649 138.24 126.357L140.416 122.421C140.482 122.302 140.564 122.228 140.663 122.202C140.763 122.173 140.882 122.169 141.015 122.195C141.3 122.251 141.585 122.339 141.87 122.461C142.154 122.584 142.402 122.706 142.617 122.824C143.053 123.068 143.423 123.338 143.719 123.645C144.015 123.952 144.234 124.282 144.367 124.648C144.5 125.01 144.544 125.399 144.496 125.813C144.452 126.228 144.3 126.664 144.045 127.127C143.797 127.574 143.512 127.929 143.194 128.192C142.876 128.451 142.528 128.625 142.151 128.714C141.773 128.802 141.381 128.806 140.971 128.728C140.56 128.647 140.146 128.492 139.724 128.259V128.251ZM139.935 126.757C139.99 126.801 140.06 126.853 140.146 126.912C140.231 126.971 140.312 127.019 140.39 127.064C140.582 127.171 140.771 127.238 140.963 127.271C141.155 127.304 141.34 127.293 141.522 127.238C141.703 127.182 141.877 127.078 142.047 126.927C142.217 126.775 142.373 126.568 142.521 126.302C142.802 125.795 142.894 125.351 142.798 124.962C142.702 124.578 142.458 124.274 142.066 124.056C141.988 124.012 141.907 123.971 141.821 123.93C141.736 123.889 141.651 123.852 141.559 123.819L139.938 126.753L139.935 126.757Z" fill="white"/>
<path d="M91.3187 130.341C91.3187 130.814 90.934 131.203 90.4567 131.203C89.9795 131.203 89.5947 130.818 89.5947 130.341C89.5947 129.863 89.9795 129.479 90.4567 129.479C90.934 129.479 91.3187 129.863 91.3187 130.341Z" fill="white"/>
<path d="M148.444 130.032C148.444 130.505 148.059 130.894 147.582 130.894C147.104 130.894 146.72 130.509 146.72 130.032C146.72 129.555 147.104 129.17 147.582 129.17C148.059 129.17 148.444 129.555 148.444 130.032Z" fill="white"/>
<path d="M109.566 133.315C108.778 133.082 107.819 133.485 107.512 134.24L106.865 135.827C106.525 136.659 106.85 137.584 107.546 138.047L108.692 138.69C108.644 139.464 108.593 140.237 108.692 141.069L107.564 141.669C106.791 142.057 106.495 142.993 106.776 143.814L107.446 145.409C107.805 146.26 108.678 146.707 109.503 146.423L110.716 146.038C111.212 146.767 111.841 147.377 112.462 147.806L112.089 149.153C111.856 149.941 112.288 150.821 113.121 151.162L114.678 151.883C115.437 152.194 116.436 151.894 116.85 151.095L117.464 150.022C118.311 150.104 119.162 150.185 120.102 150.041L120.701 151.165C121.09 151.942 122.026 152.238 122.847 151.953L124.445 151.284C125.222 150.895 125.666 150.019 125.459 149.231L125.148 148.047C125.803 147.521 126.491 146.918 126.95 146.226L128.071 146.508C128.933 146.774 129.813 146.337 130.124 145.583L130.771 143.996C131.186 143.197 130.86 142.268 130.061 141.854L129.14 141.302C129.221 140.455 129.229 139.575 129.158 138.665L130.146 138.184C130.845 137.766 131.215 136.859 130.86 136.008L130.187 134.414C129.906 133.592 128.999 133.223 128.208 133.43L127.131 133.692C126.635 132.964 126.003 132.353 125.266 131.783L125.622 130.696C125.781 129.878 125.422 129.027 124.589 128.687L123.032 127.962C122.2 127.621 121.275 127.947 120.857 128.75L120.305 129.671C119.384 129.56 118.426 129.523 117.486 129.667L117.009 128.679C116.621 127.903 115.685 127.607 114.863 127.891L113.269 128.561C112.418 128.92 111.97 129.797 112.255 130.618L112.566 131.802C111.911 132.327 111.301 132.96 110.764 133.622L109.569 133.311L109.566 133.315ZM120.657 135.731C122.999 136.689 124.042 139.316 123.117 141.584C122.085 143.896 119.454 144.939 117.187 144.01C114.845 143.052 113.802 140.422 114.76 138.08C115.762 135.842 118.419 134.725 120.657 135.727V135.731Z" fill="#4C0000"/>
</g>
<g clip-path="url(#clip3_1859_5067)">
<path d="M105.9 97C104.209 97 102.607 96.1849 101.608 94.8204L67.0251 47.4466C65.8407 45.8226 65.6698 43.698 66.5794 41.9061C67.4891 40.1142 69.3054 39 71.3171 39H140.484C142.495 39 144.309 40.1142 145.221 41.9061C146.131 43.698 145.96 45.8226 144.776 47.4466L110.192 94.8204C109.197 96.1849 107.592 97 105.9 97Z" fill="#414143"/>
<path d="M105.902 95.2732C104.76 95.2732 103.676 94.7237 103.002 93.7988L68.4183 46.428C67.6185 45.3321 67.5025 43.8974 68.1161 42.6855C68.7327 41.4736 69.9568 40.7227 71.3152 40.7227H140.482C141.84 40.7227 143.067 41.4736 143.681 42.6855C144.298 43.8974 144.182 45.3321 143.379 46.428L108.795 93.8018C108.121 94.7237 107.037 95.2762 105.895 95.2762L105.902 95.2732Z" fill="#274074"/>
<path d="M69.8094 45.4125L104.393 92.7863C105.138 93.8089 106.661 93.8089 107.409 92.7863L141.989 45.4125C142.889 44.1792 142.007 42.4453 140.481 42.4453H71.3174C69.7911 42.4453 68.9089 44.1792 69.8094 45.4125Z" fill="#00A99D"/>
<path d="M83.915 64.7344L104.392 92.785C105.137 93.8076 106.66 93.8076 107.408 92.785L127.885 64.7344H83.915Z" fill="#006837"/>
<path d="M143.97 58.1793C119.494 48.6216 92.31 48.6246 67.837 58.1916C66.735 58.622 66.3535 60.0048 67.0952 60.9237C68.6368 62.8285 70.8561 64.4464 71.7566 66.6199C72.7304 68.9734 72.3152 71.9101 72.6694 74.5231C72.822 75.6526 73.985 76.3425 75.0474 75.9334C94.8192 68.2744 116.731 68.2378 136.521 75.8297C137.721 76.2906 139.018 75.3534 138.908 74.0713C138.716 71.8673 137.855 69.4374 138.631 67.5662C139.675 65.0447 142.718 63.207 144.647 60.9878C145.45 60.0628 145.111 58.625 143.97 58.1793Z" fill="#006837"/>
<path d="M116.177 71.231L114.415 74.9308C114.296 75.114 114.165 75.2483 114.034 75.3795C113.579 75.7398 113.02 75.8558 112.492 75.5963C112.086 75.4192 111.86 75.0957 111.735 74.7507C111.65 74.6103 111.662 74.3966 111.68 74.2318C111.637 74.0303 111.708 73.8563 111.766 73.6334L113.585 69.9733C112.935 69.897 112.306 69.9245 111.668 70.1657C109.507 70.938 108.301 73.2519 108.921 75.4467L108.973 75.7001C109.131 76.1977 109.437 76.6586 109.727 77.0219L105.831 85.1327L101.936 77.0219C102.223 76.6586 102.531 76.1946 102.69 75.7001L102.742 75.4467C103.362 73.2519 102.156 70.938 99.9947 70.1657C99.3567 69.9275 98.7279 69.9001 98.0777 69.9733L99.897 73.6334C99.955 73.8563 100.025 74.0303 99.9825 74.2318C100.001 74.3935 100.01 74.6072 99.9276 74.7507C99.8024 75.0957 99.5765 75.4162 99.1705 75.5963C98.6424 75.8558 98.0838 75.7398 97.6289 75.3795C97.5007 75.2483 97.3694 75.114 97.2473 74.9308L95.486 71.231C95.025 71.6614 94.6465 72.217 94.4572 72.8642C93.6849 75.0254 94.7778 77.3729 96.8597 78.2857L97.1527 78.3986C97.6503 78.5573 98.1662 78.6123 98.6454 78.6062L102.818 87.2909C102.959 88.8386 104.253 90.0383 105.783 90.0658C107.352 90.0932 108.707 88.8783 108.85 87.2909L113.023 78.6062C113.5 78.6123 114.018 78.5573 114.516 78.3986L114.809 78.2857C116.891 77.3729 117.984 75.0285 117.212 72.8642C117.022 72.217 116.644 71.6614 116.183 71.231H116.177Z" fill="#F2F3C9"/>
<path d="M106.126 43.6033L106.693 44.9068C106.751 45.0381 106.873 45.1297 107.017 45.1419L108.43 45.2792C108.775 45.3128 108.913 45.7402 108.653 45.9691L107.588 46.9124C107.481 47.007 107.432 47.1535 107.463 47.294L107.771 48.6829C107.844 49.0218 107.481 49.2843 107.185 49.1103L105.961 48.3899C105.836 48.3166 105.683 48.3166 105.561 48.3899L104.337 49.1103C104.038 49.2843 103.674 49.0218 103.751 48.6829L104.059 47.294C104.089 47.1535 104.044 47.007 103.934 46.9124L102.868 45.9691C102.609 45.7402 102.749 45.3128 103.091 45.2792L104.505 45.1419C104.648 45.1266 104.773 45.0381 104.828 44.9068L105.396 43.6033C105.533 43.2859 105.982 43.2859 106.123 43.6033H106.126Z" fill="#FDF0D5"/>
<path d="M96.7027 43.6033L97.2705 44.9068C97.3285 45.0381 97.4506 45.1297 97.5941 45.1419L99.0074 45.2792C99.3524 45.3128 99.4898 45.7402 99.2303 45.9691L98.1649 46.9124C98.0581 47.007 98.0092 47.1535 98.0398 47.294L98.3481 48.6829C98.4213 49.0218 98.0581 49.2843 97.762 49.1103L96.5379 48.3899C96.4127 48.3166 96.2601 48.3166 96.138 48.3899L94.9139 49.1103C94.6147 49.2843 94.2514 49.0218 94.3278 48.6829L94.6361 47.294C94.6666 47.1535 94.6208 47.007 94.5109 46.9124L93.4456 45.9691C93.1861 45.7402 93.3265 45.3128 93.6684 45.2792L95.0818 45.1419C95.2252 45.1266 95.3504 45.0381 95.4053 44.9068L95.9731 43.6033C96.1105 43.2859 96.5592 43.2859 96.6997 43.6033H96.7027Z" fill="#FDF0D5"/>
<path d="M115.553 43.6033L116.121 44.9068C116.179 45.0381 116.301 45.1297 116.445 45.1419L117.858 45.2792C118.203 45.3128 118.34 45.7402 118.081 45.9691L117.016 46.9124C116.909 47.007 116.86 47.1535 116.89 47.294L117.199 48.6829C117.272 49.0218 116.909 49.2843 116.613 49.1103L115.388 48.3899C115.263 48.3166 115.111 48.3166 114.989 48.3899L113.764 49.1103C113.465 49.2843 113.102 49.0218 113.178 48.6829L113.487 47.294C113.517 47.1535 113.471 47.007 113.362 46.9124L112.296 45.9691C112.037 45.7402 112.177 45.3128 112.519 45.2792L113.932 45.1419C114.076 45.1266 114.201 45.0381 114.256 44.9068L114.824 43.6033C114.961 43.2859 115.41 43.2859 115.55 43.6033H115.553Z" fill="#FDF0D5"/>
<path d="M78.471 62.9588C77.9521 63.1084 77.598 63.3709 77.4118 63.7464C77.2256 64.1219 77.2164 64.5767 77.3782 65.114C77.543 65.6574 77.8178 66.0267 78.2024 66.2313C78.587 66.4358 79.0266 66.4663 79.5272 66.3228C79.7928 66.2465 80.0096 66.1488 80.1775 66.0298C80.3423 65.9107 80.501 65.7825 80.6476 65.6482C80.7819 65.7062 80.8979 65.7886 80.9925 65.8955C81.0871 66.0023 81.1573 66.1366 81.2001 66.3015C81.2672 66.5609 81.1787 66.8174 80.9345 67.0768C80.6903 67.3363 80.2721 67.5469 79.6768 67.7179C79.2464 67.84 78.8282 67.901 78.4161 67.8949C78.004 67.8919 77.6193 67.8095 77.2591 67.6538C76.8989 67.4981 76.5784 67.2569 76.2915 66.9364C76.0045 66.6159 75.7786 66.1946 75.6077 65.6726C75.452 65.1903 75.3909 64.7385 75.4367 64.3173C75.4795 63.896 75.6046 63.5114 75.8122 63.1664C76.0167 62.8215 76.2945 62.5254 76.6425 62.275C76.9905 62.0278 77.3873 61.8385 77.83 61.7103C78.4588 61.5302 78.9717 61.4875 79.3685 61.5821C79.7653 61.6767 80.0004 61.8751 80.0798 62.1682C80.1225 62.333 80.1164 62.4857 80.0615 62.6291C80.0065 62.7726 79.9302 62.8947 79.8356 62.9924C79.631 62.9344 79.4204 62.8947 79.2006 62.8734C78.9808 62.852 78.7397 62.8795 78.4771 62.9558L78.471 62.9588Z" fill="#F2F3C9"/>
<path d="M83.207 66.6224C82.9292 66.6895 82.6911 66.6682 82.4896 66.5491C82.2881 66.4331 82.1508 66.2378 82.0836 65.9661C81.6654 64.336 81.2472 62.7059 80.832 61.0727C80.9022 61.0422 81.0213 60.9933 81.18 60.9292C81.3388 60.8651 81.4945 60.8163 81.644 60.7766C81.8028 60.7369 81.9432 60.7155 82.0683 60.7064C82.1935 60.7003 82.3065 60.7155 82.4011 60.7522C82.4957 60.7888 82.5781 60.8529 82.6422 60.9445C82.7094 61.0361 82.7582 61.1643 82.7979 61.3291C83.094 62.5807 83.3901 63.8323 83.6862 65.0839C84.4372 64.9068 85.1912 64.7389 85.9452 64.5771C86.0062 64.6382 86.0673 64.7236 86.1345 64.8335C86.1986 64.9434 86.2443 65.0625 86.2718 65.1876C86.3237 65.4441 86.3085 65.6333 86.2199 65.7646C86.1314 65.8928 85.9971 65.9752 85.8139 66.0149C84.9439 66.2042 84.077 66.4026 83.21 66.6163L83.207 66.6224Z" fill="#F2F3C9"/>
<path d="M87.6038 59.7765C87.7106 59.691 87.8755 59.5964 88.1044 59.4957C88.3334 59.3949 88.5684 59.3247 88.8126 59.282C89.1606 59.224 89.4751 59.2179 89.7589 59.2698C90.0398 59.3186 90.2352 59.4407 90.3451 59.6269C90.5221 59.9413 90.7175 60.3107 90.9281 60.732C91.1387 61.1532 91.3524 61.5928 91.5631 62.0446C91.7737 62.4964 91.9813 62.9451 92.1797 63.3878C92.3781 63.8304 92.5521 64.2211 92.6986 64.563C92.6315 64.6638 92.5246 64.7523 92.3751 64.8317C92.2255 64.908 92.0423 64.9629 91.8256 64.9965C91.6699 65.0209 91.5325 65.027 91.4226 65.0179C91.3097 65.0087 91.2151 64.9843 91.1387 64.9416C91.0624 64.9019 90.9953 64.8408 90.9403 64.7645C90.8854 64.6882 90.8304 64.5966 90.7816 64.4928C90.6869 64.2791 90.5923 64.0685 90.4977 63.8548C89.8994 63.9525 89.298 64.0532 88.6997 64.1631C88.6814 64.3646 88.6661 64.5722 88.6508 64.7889C88.6356 65.0026 88.6203 65.2132 88.602 65.4147C88.5165 65.4636 88.4249 65.5093 88.3303 65.549C88.2326 65.5918 88.1136 65.6253 87.9701 65.6528C87.6374 65.7169 87.3809 65.7078 87.2008 65.6284C87.0177 65.549 86.9078 65.4117 86.8681 65.2132C86.8498 65.1247 86.8437 65.0331 86.8528 64.9385C86.862 64.8439 86.8681 64.734 86.8773 64.6058C86.8895 64.4257 86.9108 64.1967 86.9414 63.925C86.9749 63.6533 87.0116 63.3572 87.0513 63.0428C87.094 62.7253 87.1398 62.4018 87.1947 62.0629C87.2497 61.7271 87.3016 61.4097 87.3504 61.1136C87.3993 60.8144 87.4481 60.5519 87.4939 60.3168C87.5397 60.0818 87.5763 59.9047 87.6038 59.7796V59.7765ZM89.0629 60.7961C89.0141 61.083 88.9561 61.4005 88.8981 61.7516C88.8371 62.1026 88.7913 62.4567 88.7577 62.8139C89.1728 62.7406 89.588 62.6673 90.0062 62.6002C89.8536 62.2674 89.7009 61.9469 89.5483 61.6325C89.3926 61.3181 89.2522 61.0372 89.1271 60.7869C89.1057 60.79 89.0874 60.793 89.066 60.7961H89.0629Z" fill="#F2F3C9"/>
<path d="M95.0054 62.1076C94.697 62.0435 94.4162 61.9764 94.1628 61.9062C93.9064 61.8359 93.6836 61.7413 93.4882 61.6192C93.2928 61.5002 93.1341 61.3475 93.0089 61.1644C92.8838 60.9812 92.8044 60.7462 92.7647 60.4623C92.6915 59.9128 92.8594 59.4427 93.2715 59.0581C93.6836 58.6704 94.3094 58.4292 95.1336 58.3407C95.4358 58.3102 95.7166 58.2979 95.9791 58.3132C96.2417 58.3254 96.4706 58.3651 96.6629 58.4292C96.8553 58.4933 97.0109 58.5849 97.1239 58.7009C97.2399 58.8199 97.304 58.9604 97.3193 59.1313C97.3345 59.2992 97.304 59.4488 97.2307 59.5739C97.1575 59.7022 97.0659 59.8121 96.956 59.9067C96.7973 59.8304 96.5866 59.7693 96.3241 59.7235C96.0616 59.6808 95.7777 59.6747 95.4755 59.7052C95.1641 59.7388 94.9413 59.8029 94.8069 59.9006C94.6726 59.9983 94.6116 60.1082 94.6238 60.2303C94.636 60.3279 94.6879 60.4012 94.7856 60.4531C94.8802 60.505 95.0206 60.5477 95.2038 60.5783C95.39 60.6149 95.5793 60.6485 95.7655 60.6851C96.4279 60.8133 96.9438 61.0178 97.3132 61.2895C97.6825 61.5612 97.887 61.9581 97.9298 62.477C97.9756 63.0295 97.7863 63.4935 97.3742 63.8721C96.9621 64.2536 96.3302 64.4826 95.4785 64.5772C95.1763 64.6108 94.8924 64.6199 94.6268 64.6016C94.3613 64.5833 94.1262 64.5406 93.9217 64.4704C93.7141 64.4002 93.5493 64.3055 93.421 64.1804C93.2928 64.0552 93.2196 63.9026 93.1951 63.7225C93.1707 63.5363 93.2043 63.3684 93.302 63.2218C93.3997 63.0753 93.5096 62.9563 93.6317 62.8677C93.8362 62.9868 94.0804 63.0814 94.3643 63.1516C94.6451 63.2218 94.9474 63.2402 95.2679 63.2035C95.5945 63.1669 95.8174 63.0936 95.9425 62.9837C96.0677 62.8738 96.1226 62.7517 96.1074 62.6235C96.0951 62.4953 96.031 62.4007 95.915 62.3427C95.8021 62.2847 95.6403 62.2358 95.4388 62.1901C95.2923 62.1595 95.1458 62.129 94.9993 62.1015L95.0054 62.1076Z" fill="#F2F3C9"/>
<path d="M100.586 61.6429C100.284 61.5605 100.006 61.4781 99.7559 61.3926C99.5056 61.3072 99.2858 61.2003 99.0996 61.0691C98.9134 60.9378 98.7638 60.7791 98.6478 60.5867C98.5348 60.3975 98.4646 60.1594 98.4433 59.8724C98.4005 59.3199 98.5959 58.862 99.0294 58.4987C99.4628 58.1355 100.101 57.9309 100.928 57.8882C101.23 57.8729 101.511 57.8821 101.774 57.9096C102.036 57.9371 102.259 57.9889 102.448 58.0653C102.638 58.1416 102.784 58.2393 102.894 58.3644C103.001 58.4896 103.059 58.6361 103.062 58.804C103.065 58.9749 103.028 59.1184 102.949 59.2405C102.87 59.3626 102.772 59.4695 102.659 59.558C102.503 59.4725 102.296 59.3993 102.039 59.3413C101.78 59.2833 101.499 59.2588 101.194 59.2741C100.882 59.2894 100.656 59.3413 100.516 59.4298C100.376 59.5183 100.308 59.6252 100.315 59.7503C100.321 59.848 100.369 59.9243 100.461 59.9823C100.553 60.0403 100.69 60.0892 100.873 60.1319C101.059 60.1777 101.243 60.2235 101.426 60.2723C102.079 60.4402 102.583 60.6722 102.934 60.9653C103.288 61.2583 103.468 61.6674 103.48 62.1863C103.492 62.7388 103.279 63.1937 102.845 63.5478C102.412 63.9019 101.768 64.0973 100.913 64.14C100.611 64.1553 100.327 64.1461 100.064 64.1156C99.8017 64.082 99.5697 64.0271 99.3682 63.9446C99.1667 63.8653 99.0049 63.7584 98.8859 63.6272C98.7668 63.4959 98.6997 63.3402 98.6844 63.1571C98.6691 62.9678 98.7149 62.8029 98.8187 62.6625C98.9225 62.5221 99.0385 62.4092 99.1698 62.3298C99.3682 62.4611 99.6063 62.5679 99.8841 62.6564C100.162 62.7449 100.461 62.7785 100.782 62.7602C101.108 62.7419 101.337 62.6839 101.468 62.5801C101.597 62.4763 101.661 62.3603 101.655 62.2291C101.649 62.0978 101.591 62.0032 101.481 61.9391C101.371 61.8749 101.215 61.8169 101.017 61.762C100.873 61.7223 100.73 61.6857 100.583 61.646L100.586 61.6429Z" fill="#F2F3C9"/>
<path d="M108.22 61.9724C108.205 62.5982 108.19 63.2209 108.175 63.8467C108.101 63.865 107.985 63.8803 107.833 63.8986C107.677 63.9138 107.524 63.923 107.372 63.9199C107.219 63.9199 107.085 63.9047 106.972 63.8803C106.856 63.8558 106.761 63.8131 106.685 63.7551C106.609 63.6971 106.554 63.6147 106.514 63.5078C106.474 63.404 106.456 63.2667 106.456 63.0988C106.465 61.5664 106.477 60.0309 106.487 58.4985C106.487 58.3611 106.529 58.2573 106.609 58.181C106.691 58.1077 106.801 58.0467 106.941 58.0039C107.18 57.9276 107.457 57.8757 107.775 57.8452C108.092 57.8147 108.428 57.8055 108.788 57.8177C109.759 57.8452 110.482 58.0711 110.953 58.471C111.423 58.8739 111.633 59.399 111.597 60.0431C111.572 60.446 111.444 60.7849 111.209 61.0596C110.974 61.3344 110.705 61.5419 110.403 61.6824C110.632 62.012 110.855 62.3234 111.075 62.6165C111.294 62.9095 111.462 63.172 111.581 63.4102C111.502 63.633 111.371 63.8009 111.188 63.9108C111.008 64.0207 110.806 64.0695 110.589 64.0604C110.443 64.0543 110.321 64.0298 110.217 63.9932C110.113 63.9566 110.022 63.9077 109.945 63.8436C109.869 63.7826 109.799 63.7063 109.738 63.6208C109.674 63.5323 109.616 63.4407 109.561 63.3399C109.298 62.8912 109.032 62.4394 108.764 61.9937C108.587 61.9876 108.407 61.9846 108.23 61.9785L108.22 61.9724ZM108.898 60.6903C109.158 60.6994 109.365 60.6414 109.521 60.5224C109.677 60.4003 109.759 60.2171 109.768 59.9698C109.777 59.7226 109.701 59.5333 109.536 59.399C109.371 59.2647 109.106 59.1914 108.736 59.1823C108.633 59.1823 108.55 59.1823 108.486 59.1823C108.425 59.1884 108.355 59.1945 108.278 59.2067C108.266 59.6951 108.254 60.1835 108.242 60.6719C108.462 60.678 108.678 60.6842 108.898 60.6903Z" fill="#F2F3C9"/>
<path d="M112.829 59.0923C112.85 58.8145 112.951 58.5978 113.137 58.4482C113.323 58.2987 113.568 58.2345 113.87 58.259C115.024 58.3505 116.178 58.4635 117.331 58.5978C117.371 58.6741 117.405 58.7718 117.429 58.8939C117.454 59.016 117.46 59.1412 117.444 59.2694C117.417 59.5167 117.338 59.6815 117.212 59.7731C117.087 59.8616 116.932 59.8982 116.745 59.8769C116.019 59.7975 115.289 59.7242 114.563 59.6601C114.535 59.9623 114.511 60.2645 114.483 60.5637C115.253 60.6309 116.022 60.7102 116.791 60.7957C116.831 60.872 116.864 60.9697 116.889 61.0857C116.913 61.2048 116.919 61.3269 116.904 61.4551C116.877 61.7023 116.803 61.8702 116.681 61.9618C116.562 62.0534 116.41 62.09 116.229 62.0687C115.61 62.0015 114.99 61.9404 114.367 61.8855C114.337 62.2274 114.306 62.5662 114.276 62.9081C115.134 62.9844 115.991 63.0699 116.849 63.1707C116.886 63.247 116.919 63.3447 116.941 63.4668C116.962 63.5858 116.968 63.711 116.953 63.8422C116.922 64.0895 116.849 64.2574 116.727 64.352C116.608 64.4467 116.458 64.4833 116.281 64.4619C115.323 64.3551 114.361 64.2635 113.4 64.1872C113.116 64.1658 112.899 64.0651 112.746 63.8911C112.594 63.7171 112.527 63.4912 112.545 63.2103C112.643 61.8367 112.737 60.463 112.835 59.0893L112.829 59.0923Z" fill="#F2F3C9"/>
<path d="M120.1 59.1335C120.229 59.0847 120.415 59.0511 120.665 59.0297C120.915 59.0083 121.16 59.0144 121.404 59.0541C121.752 59.1091 122.051 59.2068 122.304 59.3441C122.555 59.4815 122.701 59.6585 122.744 59.8692C122.811 60.2233 122.878 60.6354 122.942 61.1024C123.007 61.5695 123.068 62.0518 123.126 62.5494C123.181 63.047 123.232 63.5354 123.281 64.0177C123.33 64.5 123.37 64.9274 123.4 65.2968C123.306 65.3731 123.174 65.4219 123.007 65.4463C122.842 65.4708 122.649 65.4647 122.433 65.428C122.277 65.4005 122.146 65.3639 122.042 65.3212C121.938 65.2754 121.856 65.2235 121.798 65.1594C121.737 65.0983 121.694 65.019 121.666 64.9274C121.639 64.8358 121.618 64.7351 121.602 64.6191C121.581 64.3871 121.557 64.1551 121.535 63.9231C120.937 63.8223 120.335 63.7308 119.734 63.6422C119.652 63.8284 119.569 64.0177 119.487 64.2192C119.404 64.4176 119.322 64.6099 119.243 64.7961C119.145 64.8144 119.044 64.8297 118.94 64.8389C118.837 64.848 118.711 64.8389 118.568 64.8205C118.235 64.7748 117.994 64.6862 117.848 64.5519C117.701 64.4176 117.64 64.2528 117.664 64.0513C117.677 63.9597 117.701 63.8712 117.738 63.7857C117.777 63.7002 117.82 63.5964 117.869 63.4774C117.936 63.3095 118.031 63.1019 118.147 62.8547C118.263 62.6074 118.394 62.3388 118.534 62.0518C118.675 61.7649 118.824 61.4718 118.983 61.1696C119.142 60.8704 119.291 60.5865 119.435 60.3179C119.578 60.0523 119.707 59.8142 119.826 59.6067C119.942 59.3991 120.033 59.2403 120.1 59.1335ZM121.157 60.5682C121.019 60.8247 120.864 61.1085 120.696 61.4199C120.525 61.7343 120.369 62.0549 120.223 62.3815C120.641 62.4425 121.056 62.5097 121.474 62.5769C121.437 62.2136 121.395 61.8595 121.349 61.5115C121.303 61.1635 121.26 60.8521 121.221 60.5743C121.199 60.5713 121.178 60.5682 121.16 60.5652L121.157 60.5682Z" fill="#F2F3C9"/>
<path d="M126.375 66.2728C126.265 66.2483 126.139 66.2178 125.999 66.1812C125.859 66.1445 125.712 66.0988 125.566 66.0469C125.416 65.995 125.269 65.94 125.123 65.879C124.976 65.8179 124.842 65.7508 124.723 65.6714C124.393 65.4638 124.259 65.1952 124.323 64.8655C124.616 63.3728 124.912 61.8831 125.205 60.3903C125.233 60.256 125.291 60.1614 125.385 60.1034C125.48 60.0454 125.599 60.0088 125.746 59.9904C126.06 59.963 126.387 59.966 126.726 60.0088C127.064 60.0515 127.364 60.1003 127.626 60.1583C128.163 60.2774 128.64 60.4514 129.046 60.6742C129.452 60.8971 129.781 61.1749 130.032 61.5015C130.279 61.8281 130.438 62.2036 130.511 62.6249C130.581 63.0461 130.551 63.5162 130.416 64.0321C130.285 64.5358 130.093 64.954 129.836 65.2898C129.583 65.6256 129.278 65.882 128.927 66.0652C128.572 66.2483 128.182 66.3552 127.751 66.3857C127.321 66.4162 126.863 66.3765 126.378 66.2697L126.375 66.2728ZM126.133 64.7617C126.204 64.7892 126.289 64.8197 126.393 64.8533C126.497 64.8869 126.594 64.9113 126.686 64.9327C126.909 64.9815 127.122 64.9968 127.324 64.9754C127.525 64.954 127.709 64.893 127.876 64.7922C128.041 64.6915 128.188 64.5419 128.316 64.3496C128.444 64.1542 128.542 63.91 128.615 63.6109C128.753 63.04 128.713 62.5791 128.496 62.2219C128.279 61.8678 127.931 61.6328 127.455 61.529C127.361 61.5076 127.263 61.4893 127.162 61.474C127.061 61.4588 126.961 61.4465 126.854 61.4374C126.616 62.5455 126.375 63.6536 126.136 64.7587L126.133 64.7617Z" fill="#F2F3C9"/>
<path d="M133.462 67.9341C133.386 67.931 133.273 67.9157 133.12 67.8913C132.968 67.8669 132.821 67.8303 132.681 67.7906C132.388 67.7051 132.18 67.5922 132.061 67.4517C131.942 67.3113 131.927 67.0854 132.015 66.7741C132.134 66.3528 132.256 65.9285 132.375 65.5072C132.278 65.2294 132.174 64.9211 132.058 64.5853C131.945 64.2495 131.835 63.9076 131.728 63.5627C131.621 63.2177 131.527 62.8789 131.438 62.5492C131.353 62.2195 131.289 61.9204 131.249 61.6548C131.368 61.5632 131.515 61.493 131.695 61.4381C131.875 61.3831 132.076 61.3892 132.302 61.4503C132.568 61.5235 132.772 61.6334 132.91 61.7799C133.047 61.9265 133.154 62.1585 133.224 62.479C133.355 63.0834 133.484 63.6848 133.606 64.2892C133.627 64.2953 133.645 64.3014 133.667 64.3075C133.816 64.1427 133.951 63.9901 134.067 63.8496C134.186 63.7123 134.302 63.5718 134.415 63.4345C134.531 63.2971 134.65 63.1506 134.775 63.0041C134.9 62.8545 135.046 62.6835 135.208 62.4882C135.346 62.4698 135.495 62.4668 135.654 62.4821C135.813 62.4973 135.959 62.5248 136.097 62.5675C136.335 62.6408 136.518 62.766 136.646 62.9308C136.774 63.0987 136.802 63.2971 136.725 63.5261C136.701 63.5993 136.655 63.6848 136.588 63.7794C136.521 63.8741 136.393 64.0084 136.203 64.1854C136.014 64.3594 135.746 64.5945 135.404 64.8906C135.059 65.1867 134.601 65.5683 134.036 66.0414C133.844 66.6733 133.651 67.3052 133.459 67.9371L133.462 67.9341Z" fill="#F2F3C9"/>
</g>
<defs>
<clipPath id="clip0_1859_5067">
<rect width="30" height="30" fill="white" transform="translate(130 196)"/>
</clipPath>
<clipPath id="clip1_1859_5067">
<rect width="71.2" height="68" fill="white" transform="translate(16 69)"/>
</clipPath>
<clipPath id="clip2_1859_5067">
<rect width="76" height="64.6017" fill="white" transform="translate(81 102)"/>
</clipPath>
<clipPath id="clip3_1859_5067">
<rect width="79.7988" height="58" fill="white" transform="translate(66 39)"/>
</clipPath>
</defs>
</svg>
