<?xml version="1.0" encoding="UTF-8"?>
<svg id="Layer_2" data-name="Layer 2" xmlns="http://www.w3.org/2000/svg" viewBox="0 0 281.76 192.79">
  <defs>
    <style>
      .cls-1 {
        fill: #ffba0a;
      }
    </style>
  </defs>
  <g id="Layer_1-2" data-name="Layer 1">
    <g>
      <g>
        <path class="cls-1" d="M135.48,1.84c15.79-3.64,38.69.85,42.51,1.21,4.88.47,17.88-.53,26.72,3.64,26.78,12.66,23.1,46.14,32.79,59.51,10.37,14.31,29.37,59.31,15.79,65.59-5.51,2.55-98.41,31.72-115.42,31.72s-102.58-15.41-111-20c-11-6-6.12-28.75-4.35-33.59,2.35-6.41,20.04-28.54,26.11-34.61,6.07-6.07,17-7.29,19.43-10.93,2.43-3.64,4.86-15.79,8.5-19.43s26.72-18.22,30.36-23.08S127.58,3.66,135.48,1.84Z"/>
        <path d="M281.46,25.57c-.93-7.21-4.07-12.58-9.33-15.99-9.35-6.05-16.29-7.91-21.21-5.67-6.78,3.07-8.29,13.32-9.63,22.37-.43,2.9-.83,5.65-1.39,8.07-2.1,9.24-7.74,20.6-13.24,28.22l-1.35,1.76c-2.36-4.3-3.87-10.24-5.45-16.48-3.71-14.61-8.33-32.79-26.62-41.44-7.05-3.33-16.47-3.5-22.71-3.61-1.84-.03-3.42-.06-4.51-.17-.55-.05-1.62-.21-2.97-.41-7.9-1.17-26.39-3.91-40.02-.77-8.23,1.9-25.57,15.49-29.41,20.6-2.01,2.69-11.16,9.09-18.52,14.24-5.44,3.81-10.13,7.09-11.71,8.67-2.39,2.39-4.1,7.45-5.76,12.34-.46,1.36-.91,2.68-1.35,3.85-.96-1.23-1.92-2.59-2.88-4.05l-1.63-2.57c-4.31-7.1-8.24-15.82-9.91-23.19-.55-2.43-.96-5.17-1.39-8.07-1.34-9.05-2.86-19.31-9.63-22.37-4.93-2.23-11.86-.37-21.21,5.67C4.37,9.99,1.23,15.37.3,22.57c-2.38,18.43,9.83,45.66,22.65,67.46-6.27,7.94-12.54,16.63-13.95,20.47-1.01,2.76-2.64,9.78-2.71,16.86-.09,9.33,2.59,15.75,7.75,18.56,6.19,3.38,51.86,12.27,83.7,17.04,1.16,8.67,1.88,16.19,1.39,17.19-.88,1.46-5.82,1.87-9.08,1.16-1.2-.26-2.93-.87-4.95-1.57-4.29-1.51-9.63-3.38-13.95-3.38-2.32,0-4.3,1.14-5.56,3.2-1.94,3.16-1.94,8.06.02,11.91.41.81,1.2,1.32,2.06,1.32h38.99c1.09,0,1.97-.94,1.97-2.09v-26.2c7.61,1,13.7,1.6,17.13,1.6,2.63,0,6.94-.66,12.37-1.78v26.37c0,1.15.88,2.09,1.97,2.09h38.99c.86,0,1.65-.5,2.06-1.32,1.95-3.85,1.96-8.75.02-11.91-1.27-2.06-3.24-3.2-5.56-3.2-4.32,0-9.66,1.87-13.95,3.38-2.01.71-3.75,1.32-4.95,1.58-3.27.71-8.2.3-9.08-1.15-.51-1.06.29-9.21,1.55-18.36,34.06-8.36,89.48-26.1,92.64-27.56,2.46-1.14,4.13-3.34,4.97-6.53,1.04-4,.71-9.33-.48-15.21,15.57-22.11,38.34-62.34,35.17-86.92ZM244.44,112.57c-.31.44-.61.85-.92,1.28-.7.97-1.4,1.92-2.07,2.82-2.33,3.09-4.44,5.69-6.21,7.62l1.11,1.01c1.39-1.52,3.09-3.58,5.01-6.07l2.51-3.37c.68,4.35.76,8.18,0,11.09-.61,2.32-1.69,3.81-3.32,4.57-3.05,1.41-57.26,18.67-90.93,27.06-.53.13-1.06.26-1.58.39-.15,1.01-.3,2.09-.45,3.21-1.06,7.74-2.14,17.29-1.26,18.75,1.55,2.57,7.83,2.47,10.68,1.85,1.29-.28,3.07-.9,5.13-1.63,4.18-1.47,9.39-3.3,13.45-3.3,2.28,0,3.59,1.35,4.29,2.49,1.68,2.74,1.65,7.04-.08,10.45-.15.3-.43.49-.72.49h-38.99c-.25,0-.47-.27-.47-.59v-29.76c-.51.11-1.01.22-1.5.32-5.5,1.16-9.82,1.84-12.37,1.84-3.33,0-9.44-.62-17.13-1.65-.49-.07-.99-.13-1.5-.2v29.44c0,.32-.21.59-.47.59h-38.99c-.29,0-.57-.19-.72-.49-1.73-3.41-1.76-7.71-.08-10.45.7-1.13,2.01-2.49,4.29-2.49,4.06,0,9.27,1.83,13.46,3.3,2.06.72,3.84,1.35,5.13,1.63,2.86.62,9.13.71,10.68-1.85.85-1.4-.11-10.2-1.12-17.74-.14-1.08-.29-2.12-.43-3.12-.51-.08-1.03-.16-1.55-.23-31.43-4.77-76.05-13.4-81.83-16.55-9.68-5.28-5.66-26.28-3.66-31.75,1.21-3.3,6.87-11.22,12.77-18.75,1.21,2.01,2.42,3.97,3.62,5.86l2.31,3.58c5.95,9.07,11.41,16.28,14.89,20.09l1.11-1.01c-3.95-4.32-9.61-11.9-15.57-21.11-.76-1.17-1.52-2.37-2.29-3.59-1.03-1.64-2.06-3.34-3.09-5.05-.54-.91-1.08-1.83-1.62-2.75-2.09-3.58-4.15-7.26-6.11-11.01C9.36,61.59-.3,38.92,1.79,22.77c.78-6.09,3.25-10.75,7.3-13.93-.31,3.15-.66,9.81,1.49,13.71l1.31-.72c-2.31-4.2-1.38-12.45-1.16-14.16,2.84-1.82,5.43-3.23,7.78-4.24-.36,2.87-.86,9.79,1.98,14.45l1.28-.78c-2.89-4.75-1.93-12.49-1.66-14.31,4.14-1.52,7.48-1.69,10.1-.5,6.03,2.73,7.49,12.56,8.77,21.23.43,2.93.84,5.71,1.41,8.19,1.68,7.37,5.69,16.46,10.24,23.89.54.88,1.09,1.74,1.64,2.57,1.11,1.68,2.25,3.23,3.37,4.63.72.9,1.45,1.72,2.16,2.47,2.55,2.68,4.99,4.32,6.99,4.35l.02-1.5c-1.69-.02-3.92-1.65-6.34-4.31.65-1.55,1.29-3.44,1.99-5.51,1.41-4.14,3.16-9.29,5.05-11.18,1.39-1.39,6.21-4.77,11.31-8.34,8.3-5.82,16.89-11.83,19.2-14.9,3.54-4.72,20.14-17.74,27.68-19.48,13.07-3.02,31.17-.33,38.9.82,1.45.21,2.5.37,3.13.43,1.21.12,2.84.14,4.74.18,5.98.11,15.01.27,21.48,3.33,17.02,8.04,21.26,24.74,25,39.47,1.75,6.91,3.43,13.45,6.33,18.18-2.42,2.65-4.65,4.29-6.34,4.31l.02,1.5c2.05-.02,4.54-1.75,7.15-4.52.5-.54,1.01-1.1,1.52-1.71.17-.2.34-.42.51-.63.48-.59.95-1.2,1.43-1.84,5.9-7.99,11.69-19.95,13.79-29.2.56-2.48.97-5.25,1.41-8.19,1.28-8.67,2.74-18.5,8.77-21.23,2.62-1.19,5.97-1.02,10.1.5.28,1.83,1.23,9.57-1.66,14.31l1.28.78c2.84-4.66,2.34-11.58,1.98-14.45,2.35,1.01,4.94,2.42,7.78,4.25.22,1.71,1.15,9.96-1.15,14.16l1.31.72c2.14-3.9,1.8-10.56,1.49-13.71,4.05,3.17,6.51,7.84,7.3,13.93,2.08,16.15-7.58,38.83-16.05,55-5.73,10.95-12.25,21.44-18.05,29.77-.48.69-.96,1.38-1.43,2.04Z"/>
      </g>
      <path d="M193.66,44.1c-1.74-1.62-6.37-5.07-12.35-2.61-5.69,2.33-7.26,6.7-7.69,8.83-.12.57.21,1.11.67,1.23.03,0,.06.02.09.03.02,0,.04.02.06.02.03,0,.06-.01.1-.02.06,0,.12-.01.18-.03.01,0,.03-.01.04-.02.14-.05.27-.13.37-.26.71-.87,2.44-2.4,6.03-2.7,3.71-.31,5.79,1.73,6.64,2.83.28.37.74.45,1.09.19h.02c.46-.35.55-1.1.18-1.58-1.09-1.43-3.64-3.89-8.05-3.53-1.88.16-3.33.64-4.46,1.22.95-1.51,2.57-3.13,5.31-4.26,5.21-2.14,9.25.91,10.71,2.28.35.33.85.29,1.16-.09h0c.37-.45.32-1.17-.09-1.56Z"/>
      <path d="M141.22,44.1c1.74-1.62,6.37-5.07,12.35-2.61,5.69,2.33,7.26,6.7,7.69,8.83.12.57-.21,1.11-.67,1.23-.03,0-.06.02-.09.03-.02,0-.04.02-.06.02-.03,0-.06-.01-.1-.02-.06,0-.12-.01-.18-.03-.01,0-.03-.01-.04-.02-.14-.05-.27-.13-.37-.26-.71-.87-2.44-2.4-6.03-2.7-3.71-.31-5.79,1.73-6.64,2.83-.28.37-.74.45-1.09.19h-.02c-.46-.35-.55-1.1-.18-1.58,1.09-1.43,3.64-3.89,8.05-3.53,1.88.16,3.33.64,4.46,1.22-.95-1.51-2.57-3.13-5.31-4.26-5.21-2.14-9.25.91-10.71,2.28-.35.33-.85.29-1.16-.09h0c-.37-.45-.32-1.17.09-1.56Z"/>
      <ellipse cx="158.55" cy="90.78" rx="12.05" ry="16.34"/>
    </g>
  </g>
</svg>