<?xml version="1.0" encoding="UTF-8"?>
<svg id="Layer_2" data-name="Layer 2" xmlns="http://www.w3.org/2000/svg" viewBox="0 0 254.68 192.79">
  <defs>
    <style>
      .cls-1 {
        fill: #ffba0a;
      }
    </style>
  </defs>
  <g id="Layer_1-2" data-name="Layer 1">
    <g>
      <g>
        <path class="cls-1" d="M132.15,1.84c15.79-3.64,38.69.85,42.51,1.21,4.88.47,17.88-.53,26.72,3.64,26.78,12.66,23.1,46.14,32.79,59.51,10.37,14.31,29.37,59.31,15.79,65.59-5.51,2.55-98.41,31.72-115.42,31.72s-102.58-15.41-111-20c-11-6-6.12-28.75-4.35-33.59,2.35-6.41,20.04-28.54,26.11-34.61,6.07-6.07,17-7.29,19.43-10.93s4.86-15.79,8.5-19.43,26.72-18.22,30.36-23.08c3.64-4.86,20.65-18.22,28.54-20.04Z"/>
        <path d="M223.27,66.41c-3.13-4.33-4.89-11.23-6.75-18.55-3.71-14.61-8.33-32.79-26.62-41.44-7.05-3.33-16.47-3.5-22.71-3.61-1.84-.03-3.42-.06-4.51-.17-.55-.05-1.62-.21-2.97-.41-7.9-1.17-26.39-3.91-40.02-.77-8.23,1.9-25.57,15.49-29.41,20.6-2.01,2.69-11.16,9.09-18.52,14.24-5.44,3.81-10.13,7.09-11.71,8.67-2.39,2.39-4.1,7.45-5.76,12.34-1.04,3.07-2.03,5.98-2.92,7.32-.86,1.29-3.74,2.43-6.78,3.64-4,1.59-8.97,3.57-12.47,7.06-3.52,3.51-11.86,13.52-18.3,22.26C1.13,107.6.55,115.88.24,120.37c-.04.58-.07,1.08-.13,1.52-.38,3.04.17,8.02,2.87,12.89.31.56.65,1.1,1,1.63,1.2,4.49,3.47,7.72,6.74,9.5,6.19,3.38,51.86,12.27,83.7,17.04,1.16,8.67,1.88,16.19,1.39,17.19-.88,1.46-5.82,1.87-9.08,1.16-1.2-.26-2.93-.87-4.95-1.57-4.29-1.51-9.63-3.38-13.95-3.38-2.32,0-4.3,1.14-5.56,3.2-1.94,3.16-1.94,8.06.02,11.91.41.81,1.2,1.32,2.06,1.32h38.99c1.09,0,1.97-.94,1.97-2.09v-26.2c7.61,1,13.7,1.6,17.13,1.6,2.63,0,6.94-.66,12.37-1.78v26.37c0,1.15.88,2.09,1.97,2.09h38.99c.86,0,1.65-.5,2.06-1.32,1.95-3.85,1.96-8.75.02-11.91-1.27-2.06-3.24-3.2-5.56-3.2-4.32,0-9.66,1.87-13.95,3.38-2.01.71-3.75,1.32-4.95,1.58-3.27.71-8.2.3-9.08-1.15-.51-1.06.29-9.21,1.55-18.36,17.56-4.31,40.8-11.11,59.63-16.89,2.84.87,6.21,1.55,10.23,1.98,2.65.29,5.07.44,7.26.44,6.37,0,10.84-1.23,13.84-3.76,3.13-2.64,4.44-6.59,4.66-11.69.89-1.12,1.55-2.51,1.99-4.17,4-15.3-12.05-50.08-20.17-61.29ZM241.05,123.28c-.53-4.77-1.48-10.15-2.53-16.1l-.1-.56c-.03-.2-.09-.38-.13-.58,1.87,6.46,2.97,12.53,2.76,17.24ZM146.29,158.58c-.53.13-1.06.26-1.58.39-.15,1.01-.3,2.09-.45,3.21-1.06,7.74-2.14,17.29-1.26,18.75,1.55,2.57,7.83,2.47,10.68,1.85,1.29-.28,3.07-.9,5.13-1.63,4.18-1.47,9.39-3.3,13.45-3.3,2.28,0,3.59,1.35,4.29,2.49,1.68,2.74,1.65,7.04-.08,10.45-.15.3-.43.49-.72.49h-38.99c-.25,0-.47-.27-.47-.59v-29.76c-.51.11-1.01.22-1.5.32-5.5,1.16-9.82,1.84-12.37,1.84-3.33,0-9.44-.62-17.13-1.65-.49-.07-.99-.13-1.5-.2v29.44c0,.32-.21.59-.47.59h-38.99c-.29,0-.57-.19-.72-.49-1.73-3.41-1.76-7.71-.08-10.45.7-1.13,2.01-2.49,4.29-2.49,4.06,0,9.27,1.83,13.46,3.3,2.06.72,3.84,1.35,5.13,1.63,2.86.62,9.13.71,10.68-1.85.85-1.4-.11-10.2-1.12-17.74-.14-1.08-.29-2.12-.43-3.12-.51-.08-1.03-.16-1.55-.23-16.54-2.51-36.74-6.09-53-9.38,9.64-.57,17.62-3.64,24.68-6.78,6.11-2.72,8.17-6.85,8.55-11.08h.08c-.02-.12-.04-.23-.06-.34.23-3.28-.52-6.58-1.12-9.29-.09-.39-.17-.77-.25-1.14-1.44-6.63-8.69-10.44-19.89-10.44-9.28,0-29.14,3.7-29.34,3.74l.23,1.22c.2-.04,19.95-3.72,29.11-3.72,4.99,0,16.81.92,18.67,9.46.08.37.17.76.26,1.15.43,1.89.9,4,1.07,6.14-4.35-5.91-17.23-5.28-17.86-5.24l.07,1.24c.16,0,16.05-.79,17.8,6.97-.22,2.59-1.11,5.1-3.29,7.23-2.54-8.17-18.23-7.4-18.93-7.36l.07,1.24c.16,0,16.12-.8,17.81,7.03-.96.75-2.11,1.43-3.49,2.05-8.33,3.7-17.95,7.33-30.12,6.69-8.76-1.85-15.88-3.54-19.9-4.81-2.52-1.26-4.59-2.69-6.28-4.22-2.74-2.48-4.49-5.19-5.61-7.75-2.42-5.52-1.9-10.31-1.89-10.4.06-.47.1-1.02.14-1.59.26-3.79.73-10.41,9.28-18.56,2.28-2.17,5.14-4.46,8.72-6.82.74-.96,1.49-1.93,2.24-2.88,4.87-6.18,9.82-12.02,12.53-14.72,3.05-3.05,7.52-4.83,11.45-6.39,3.64-1.45,6.79-2.7,8.17-4.77,1.11-1.67,2.11-4.61,3.27-8.02,1.41-4.14,3.16-9.29,5.05-11.18,1.39-1.39,6.21-4.77,11.31-8.34,8.3-5.82,16.89-11.83,19.2-14.9,3.54-4.72,20.14-17.74,27.68-19.48,13.07-3.02,31.17-.33,38.9.82,1.45.21,2.5.37,3.13.43,1.21.12,2.84.14,4.74.18,5.98.11,15.01.27,21.48,3.33,17.02,8.04,21.26,24.74,25,39.47,1.93,7.6,3.75,14.78,7.22,19.57,5.36,7.39,12.76,22.54,16.97,36.3-1.75-4.51-6.18-7.06-11.23-8.21.06-.34.11-.66.17-1.01.82-4.6,1.75-9.82-1.52-12.85-1.84-1.7-4.71-2.47-8.78-2.33-5.03.17-8.26,1.13-9.9,2.94-1.91,2.12-1.1,4.81-.51,6.77.1.32.19.62.26.9.52,2.02,1.11,4.86,1.45,6.61-7.6,2.4-13.82,7.08-14.58,13.4-.2,1.67-.44,3.34-.69,5-1.62,11.1-3.15,21.73,8.44,27.44-17.67,5.37-38.51,11.43-54.64,15.45ZM225.3,95.07c-.05.31-.1.6-.16.9-2.11-.37-4.29-.51-6.41-.47-3.2.06-6.48.54-9.57,1.39-.35-1.77-.92-4.49-1.42-6.45-.07-.29-.17-.61-.27-.94-.55-1.82-1.23-4.09.26-5.75,1.33-1.48,4.29-2.3,8.78-2.45,3.6-.11,6.1.51,7.63,1.93,2.81,2.6,1.94,7.52,1.16,11.85ZM235.75,142.71c-3.68,3.1-9.99,4.04-19.86,2.97-3.15-.34-5.87-.83-8.25-1.45-1.84-.48-3.46-1.03-4.89-1.66-9.06-3.96-10.4-10.78-9.78-18.81,6.81-2.75,18.75-.78,18.88-.76l.29-1.19c-.5-.08-11.74-1.94-19.05.57.21-2.12.53-4.31.86-6.55.05-.32.09-.65.14-.97,6.8-2.11,17.68-.75,17.79-.74l.22-1.2c-.45-.06-10.68-1.33-17.82.6.13-.9.25-1.8.36-2.71.69-5.75,6.36-10.04,13.36-12.3.46-.15.93-.29,1.4-.42,3.02-.84,6.24-1.31,9.37-1.37.22,0,.44,0,.66,0,1.12,0,2.26.06,3.39.18,1.21.13,2.4.32,3.56.6,5.23,1.25,9.67,4.1,10.59,9.32l.1.56c1.46,8.23,2.71,15.36,2.93,21.18.06,1.73.04,3.35-.1,4.84-.39,4.04-1.61,7.2-4.14,9.32Z"/>
      </g>
      <path d="M144.93,88.66h0c.86,0,1.58.66,1.63,1.52.48,7.25,4.3,13.11,8.77,13.11s8.3-5.86,8.77-13.11c.06-.86.77-1.52,1.63-1.52h0c.96,0,1.7.79,1.64,1.75-.58,9.19-5.66,16.16-12.05,16.16s-11.47-6.97-12.05-16.16c-.06-.96.68-1.75,1.64-1.75Z"/>
      <path d="M183.97,51.55h0c-.52,0-.96-.4-.99-.92-.29-4.42-2.62-8-5.35-8s-5.06,3.58-5.35,8c-.03.52-.47.92-.99.92h0c-.58,0-1.04-.5-1-1.08.36-5.6,3.45-9.84,7.34-9.84s6.99,4.24,7.34,9.84c.04.58-.42,1.08-1,1.08Z"/>
      <path d="M156.97,51.55h0c-.52,0-.96-.4-.99-.92-.29-4.42-2.62-8-5.35-8s-5.06,3.58-5.35,8c-.03.52-.47.92-.99.92h0c-.58,0-1.04-.5-1-1.08.36-5.6,3.45-9.84,7.34-9.84s6.99,4.24,7.34,9.84c.04.58-.42,1.08-1,1.08Z"/>
    </g>
  </g>
</svg>