<?xml version="1.0" encoding="UTF-8"?>
<svg id="Layer_2" data-name="Layer 2" xmlns="http://www.w3.org/2000/svg" viewBox="0 0 251.72 192.79">
  <defs>
    <style>
      .cls-1 {
        fill: #ffba0a;
      }
    </style>
  </defs>
  <g id="Layer_1-2" data-name="Layer 1">
    <g>
      <g>
        <path class="cls-1" d="M129.18,1.84c15.79-3.64,38.69.85,42.51,1.21,4.88.47,17.88-.53,26.72,3.64,26.78,12.66,23.1,46.14,32.79,59.51,10.37,14.31,29.37,59.31,15.79,65.59-5.51,2.55-98.41,31.72-115.42,31.72s-102.58-15.41-111-20c-11-6-6.12-28.75-4.35-33.59,2.35-6.41,20.04-28.54,26.11-34.61,6.07-6.07,17-7.29,19.43-10.93,2.43-3.64,4.86-15.79,8.5-19.43s26.72-18.22,30.36-23.08S121.29,3.66,129.18,1.84Z"/>
        <path d="M220.31,66.41c-3.13-4.33-4.89-11.23-6.75-18.55-3.71-14.61-8.33-32.79-26.62-41.44-7.05-3.33-16.47-3.5-22.71-3.61-1.84-.03-3.42-.06-4.51-.17-.55-.05-1.62-.21-2.97-.41-7.9-1.17-26.39-3.91-40.02-.77-8.23,1.9-25.57,15.49-29.41,20.6-2.01,2.69-11.16,9.09-18.52,14.24-5.44,3.81-10.13,7.09-11.71,8.67-2.39,2.39-4.1,7.45-5.76,12.34-1.04,3.07-2.03,5.98-2.92,7.32-.86,1.29-3.74,2.43-6.78,3.64-4,1.59-8.97,3.57-12.47,7.06-5.68,5.67-23.94,28.26-26.46,35.16C1.7,113.26.07,120.28,0,127.36c-.09,9.33,2.59,15.75,7.75,18.56,6.19,3.38,51.86,12.27,83.7,17.04,1.16,8.67,1.88,16.19,1.39,17.19-.88,1.46-5.82,1.87-9.08,1.16-1.2-.26-2.93-.87-4.95-1.57-4.29-1.51-9.63-3.38-13.95-3.38-2.32,0-4.3,1.14-5.56,3.2-1.94,3.16-1.94,8.06.02,11.91.41.81,1.2,1.32,2.06,1.32h38.99c1.09,0,1.97-.94,1.97-2.09v-26.2c7.61,1,13.7,1.6,17.13,1.6,2.63,0,6.94-.66,12.37-1.78v26.37c0,1.15.88,2.09,1.97,2.09h38.99c.86,0,1.65-.5,2.06-1.32,1.95-3.85,1.96-8.75.02-11.91-1.27-2.06-3.24-3.2-5.56-3.2-4.32,0-9.66,1.87-13.95,3.38-2.01.71-3.75,1.32-4.95,1.58-3.27.71-8.2.3-9.08-1.15-.51-1.06.29-9.21,1.55-18.36,3.66-.9,7.57-1.91,11.64-2.99,1.59-.42,3.2-.86,4.84-1.31,33-9.01,73.48-22.03,76.16-23.26,2.46-1.14,4.13-3.34,4.97-6.53,4-15.3-12.05-50.08-20.17-61.29ZM143.33,158.58c-.53.13-1.06.26-1.58.39-.15,1.01-.3,2.09-.45,3.21-1.06,7.74-2.14,17.29-1.26,18.75,1.55,2.57,7.83,2.47,10.68,1.85,1.29-.28,3.07-.9,5.13-1.63,4.18-1.47,9.39-3.3,13.45-3.3,2.28,0,3.59,1.35,4.29,2.49,1.68,2.74,1.65,7.04-.08,10.45-.15.3-.43.49-.72.49h-38.99c-.25,0-.47-.27-.47-.59v-29.76c-.51.11-1.01.22-1.5.32-5.5,1.16-9.82,1.84-12.37,1.84-3.33,0-9.44-.62-17.13-1.65-.49-.07-.99-.13-1.5-.2v29.44c0,.32-.21.59-.47.59h-38.99c-.29,0-.57-.19-.72-.49-1.73-3.41-1.76-7.71-.08-10.45.7-1.13,2.01-2.49,4.29-2.49,4.06,0,9.27,1.83,13.46,3.3,2.06.72,3.84,1.35,5.13,1.63,2.86.62,9.13.71,10.68-1.85.85-1.4-.11-10.2-1.12-17.74-.14-1.08-.29-2.12-.43-3.12-.51-.08-1.03-.16-1.55-.23-7.81-1.18-16.43-2.61-25.07-4.12,5.97-2.07,12.67-5.84,20.07-10.01,7.29-4.11,15.34-8.63,23.99-12.21.61.55,1.22,1.09,1.83,1.64,10.99,9.87,22.31,20.02,33.98,22.83-.84.21-1.67.42-2.49.63ZM237.58,126.95c-.61,2.32-1.69,3.81-3.32,4.57-2.87,1.33-51.22,16.75-84.96,25.54-12.38-1.43-24.61-12.41-36.47-23.05-.43-.38-.86-.77-1.29-1.15,11.55-4.59,24.16-7.4,37.51-5.25,20.29,3.28,25.25-4.12,26.41-8.82,2.15-8.77-5.6-21.02-15.36-24.27-7.35-2.45-21.23-1.64-38.71,1.76-21.17-10.9-38.5-18.72-52.69-12.7-7.48,3.17-12.03,9.34-11.31,15.34.61,5.14,5.01,9.22,12.32,11.66-8.26,2.85-16.67,5.99-25.07,9.41l.56,1.39c9.01-3.66,18.09-7.03,27.01-10.05.91-.31,1.81-.6,2.71-.9,37.72-12.52,72.02-18.7,84.7-14.47,8.94,2.98,16.33,14.54,14.38,22.49-1.78,7.25-10.55,9.98-24.71,7.7-13.96-2.25-27.06.77-39,5.61-.52.21-1.03.42-1.54.63-8.46,3.57-16.32,8-23.47,12.02-8.53,4.8-16.1,9.06-22.57,10.74-25.03-4.47-49.36-9.58-53.52-11.85-9.68-5.28-5.66-26.28-3.66-31.75,2.24-6.11,19.68-27.99,25.77-34.07,3.05-3.05,7.52-4.83,11.45-6.39,3.64-1.45,6.79-2.7,8.17-4.77,1.11-1.67,2.11-4.61,3.27-8.02,1.41-4.14,3.16-9.29,5.05-11.18,1.39-1.39,6.21-4.77,11.31-8.34,8.3-5.82,16.89-11.83,19.2-14.9,3.54-4.72,20.14-17.74,27.68-19.48,13.07-3.02,31.17-.33,38.9.82,1.45.21,2.5.37,3.13.43,1.21.12,2.84.14,4.74.18,5.98.11,15.01.27,21.48,3.33,17.02,8.04,21.26,24.74,25,39.47,1.93,7.6,3.75,14.78,7.22,19.57,8.82,12.17,23.2,45.36,19.7,58.78ZM58.95,96.28c.3-1.95,1.22-3.89,2.64-5.66,1.79-.24,11.41-1.27,18.52,2.95l.77-1.29c-6.27-3.72-14.07-3.63-17.75-3.33,1.67-1.59,3.76-2.97,6.16-3.99,13.22-5.61,29.69,1.53,49.74,11.79-13.97,2.85-30.08,7.28-46.9,12.99-7.89-2.15-12.65-6.04-13.24-11.01-.04-.31-.06-.63-.06-.95,7.66.23,16.2,3.84,16.29,3.88l.59-1.38c-.37-.16-8.84-3.74-16.76-4Z"/>
      </g>
      <path d="M141.96,76.73h0c.85,0,1.58.65,1.63,1.51.47,7.25,4.3,13.12,8.77,13.12s8.3-5.87,8.77-13.12c.06-.85.78-1.51,1.63-1.51h0c.96,0,1.7.82,1.64,1.78-.58,9.18-5.67,16.14-12.05,16.14s-11.46-6.96-12.05-16.14c-.06-.96.68-1.78,1.64-1.78Z"/>
      <ellipse cx="147.7" cy="51.62" rx="7.09" ry="11.02"/>
      <path d="M186.12,47.61c-1.74-1.62-6.37-5.07-12.35-2.61-5.69,2.33-7.26,6.7-7.69,8.83-.12.57.21,1.11.67,1.23.03,0,.06.02.09.03.02,0,.04.02.06.02.03,0,.06-.01.1-.02.06,0,.12-.01.18-.03.01,0,.03-.01.04-.02.14-.05.27-.13.37-.26.71-.87,2.44-2.4,6.03-2.7,3.71-.31,5.79,1.73,6.64,2.83.28.37.74.45,1.09.19h.02c.46-.35.55-1.1.18-1.58-1.09-1.43-3.64-3.89-8.05-3.53-1.88.16-3.33.64-4.46,1.22.95-1.51,2.57-3.13,5.31-4.26,5.21-2.14,9.25.91,10.71,2.28.35.33.85.29,1.16-.09h0c.37-.45.32-1.17-.09-1.56Z"/>
    </g>
  </g>
</svg>