<?xml version="1.0" encoding="UTF-8"?>
<svg id="Layer_2" data-name="Layer 2" xmlns="http://www.w3.org/2000/svg" viewBox="0 0 251.72 192.79">
  <defs>
    <style>
      .cls-1 {
        fill: #ffba0a;
      }
    </style>
  </defs>
  <g id="Layer_1-2" data-name="Layer 1">
    <g>
      <g>
        <path class="cls-1" d="M129.18,1.84c15.79-3.64,38.69.85,42.51,1.21,4.88.47,17.88-.53,26.72,3.64,26.78,12.66,23.1,46.14,32.79,59.51,10.37,14.31,29.37,59.31,15.79,65.59-5.51,2.55-98.41,31.72-115.42,31.72s-102.58-15.41-111-20c-11-6-6.12-28.75-4.35-33.59,2.35-6.41,20.04-28.54,26.11-34.61,6.07-6.07,17-7.29,19.43-10.93,2.43-3.64,4.86-15.79,8.5-19.43s26.72-18.22,30.36-23.08c3.64-4.86,20.65-18.22,28.54-20.04Z"/>
        <path d="M248.34,89.01c-.25-.37-.51-.8-.81-1.29-2.34-3.85-6.68-10.97-22.67-14.01-1.65-2.94-3.21-5.45-4.55-7.3-3.13-4.33-4.89-11.23-6.75-18.55-3.71-14.61-8.33-32.79-26.62-41.44-7.05-3.33-16.47-3.5-22.71-3.61-1.84-.03-3.42-.06-4.51-.17-.55-.05-1.62-.21-2.97-.41-7.9-1.17-26.39-3.91-40.02-.77-8.23,1.9-25.57,15.49-29.41,20.6-2.01,2.69-11.16,9.09-18.52,14.24-5.44,3.81-10.13,7.09-11.71,8.67-2.39,2.39-4.1,7.45-5.76,12.34-1.04,3.07-2.03,5.98-2.92,7.32-.86,1.29-3.74,2.43-6.78,3.64-4,1.59-8.97,3.57-12.47,7.06-1.07,1.07-2.58,2.73-4.35,4.78-14.33,3.23-18.39,9.91-20.63,13.59-.3.5-.56.93-.81,1.29-1.73,2.53-3.53,7.21-3.37,12.77.07,2.56.55,5.05,1.4,7.48C.69,118.6.04,122.97,0,127.36c-.09,9.33,2.59,15.75,7.75,18.56,6.19,3.38,51.86,12.27,83.7,17.04,1.16,8.67,1.88,16.19,1.39,17.19-.88,1.46-5.82,1.87-9.08,1.16-1.2-.26-2.93-.87-4.95-1.57-4.29-1.51-9.63-3.38-13.95-3.38-2.32,0-4.3,1.14-5.56,3.2-1.94,3.16-1.94,8.06.02,11.91.41.81,1.2,1.32,2.06,1.32h38.99c1.09,0,1.97-.94,1.97-2.09v-26.2c7.61,1,13.7,1.6,17.13,1.6,2.63,0,6.94-.66,12.37-1.78v26.37c0,1.15.88,2.09,1.97,2.09h38.99c.86,0,1.65-.5,2.06-1.32,1.95-3.85,1.96-8.75.02-11.91-1.27-2.06-3.24-3.2-5.56-3.2-4.32,0-9.66,1.87-13.95,3.38-2.01.71-3.75,1.32-4.95,1.58-3.27.71-8.2.3-9.08-1.15-.51-1.06.29-9.21,1.55-18.36,34.06-8.36,89.48-26.1,92.64-27.56,2.46-1.14,4.13-3.34,4.97-6.53.41-1.56.6-3.33.62-5.25.21-.19.42-.38.63-.57,6.41-6.09,9.77-12.85,9.98-20.1.16-5.56-1.63-10.25-3.37-12.77ZM241.08,120.77c-.07.07-.13.14-.21.21-.93.89-1.87,1.72-2.8,2.51-13.38,11.33-26.59,13.05-38.03,13.72-1.5.09-2.84,0-4.04-.22-2.09-7.73,12.45-14.35,12.6-14.42l-.51-1.13c-.64.28-14.93,6.8-13.44,15.23-2.92-.89-4.87-2.71-6.24-4.91-2.01-7.71,12.47-14.3,12.61-14.37l-.51-1.13c-.58.25-12.31,5.61-13.46,12.85-.83-1.98-1.37-4.07-1.86-5.94-.1-.39-.2-.77-.3-1.14-2.27-8.44,7.81-14.68,12.24-16.98,8.14-4.21,27.38-10,27.57-10.06l-.36-1.19c-.19.06-19.54,5.89-27.79,10.15-9.95,5.14-14.64,11.85-12.87,18.4.1.37.2.74.3,1.13.7,2.69,1.56,5.96,3.26,8.77.03.1.06.21.1.31l.08-.03c2.28,3.58,6.01,6.31,12.68,5.92,8.53-.5,18.03-1.57,27.86-6.65,3.28-1.69,6.6-3.84,9.93-6.56-.08.59-.19,1.17-.33,1.71-.61,2.32-1.69,3.81-3.32,4.57-3.05,1.41-57.26,18.67-90.93,27.06-.53.13-1.06.26-1.58.39-.15,1.01-.3,2.09-.45,3.21-1.06,7.74-2.14,17.29-1.26,18.75,1.55,2.57,7.83,2.47,10.68,1.85,1.29-.28,3.07-.9,5.13-1.63,4.18-1.47,9.39-3.3,13.45-3.3,2.28,0,3.59,1.35,4.29,2.49,1.68,2.74,1.65,7.04-.08,10.45-.15.3-.43.49-.72.49h-38.99c-.25,0-.47-.27-.47-.59v-29.76c-.51.11-1.01.22-1.5.32-5.5,1.16-9.82,1.84-12.37,1.84-3.33,0-9.44-.62-17.13-1.65-.49-.07-.99-.13-1.5-.2v29.44c0,.32-.21.59-.47.59h-38.99c-.29,0-.57-.19-.72-.49-1.73-3.41-1.76-7.71-.08-10.45.7-1.13,2.01-2.49,4.29-2.49,4.06,0,9.27,1.83,13.46,3.3,2.06.72,3.84,1.35,5.13,1.63,2.86.62,9.13.71,10.68-1.85.85-1.4-.11-10.2-1.12-17.74-.14-1.08-.29-2.12-.43-3.12-.51-.08-1.03-.16-1.55-.23-31.43-4.77-76.05-13.4-81.83-16.55-6.75-3.68-6.84-14.98-5.6-23.35,1.6,2.75,3.73,5.41,6.4,7.94,4.62,4.38,9.22,7.58,13.75,9.92,9.84,5.08,19.33,6.15,27.86,6.65,6.67.39,10.4-2.34,12.68-5.92l.08.03c.04-.1.07-.21.1-.31,1.71-2.81,2.56-6.08,3.26-8.77.1-.39.2-.77.3-1.13,1.76-6.56-2.93-13.26-12.87-18.4-8.24-4.26-27.59-10.09-27.79-10.15l-.36,1.19c.19.06,19.43,5.85,27.57,10.06,4.44,2.29,14.51,8.54,12.24,16.98-.1.37-.2.75-.3,1.14-.49,1.88-1.04,3.96-1.86,5.94-1.15-7.25-12.88-12.6-13.46-12.85l-.51,1.13c.15.07,14.62,6.66,12.61,14.37-1.38,2.2-3.32,4.02-6.24,4.91,1.49-8.43-12.8-14.94-13.44-15.23l-.51,1.13c.15.07,14.69,6.69,12.6,14.42-1.2.22-2.53.31-4.04.22-12.24-.72-26.5-2.63-40.83-16.23-3.23-3.07-5.45-6.11-6.93-9.03-.89-1.74-1.51-3.43-1.93-5.05-2.52-9.75,2.35-17.08,2.42-17.19.27-.39.55-.86.85-1.35,2.05-3.38,5.7-9.38,18.19-12.62,1.48-.38,3.09-.73,4.83-1.02.47-.53.91-1.02,1.33-1.47.63-.68,1.2-1.28,1.69-1.78,3.05-3.05,7.52-4.83,11.45-6.39,3.64-1.45,6.79-2.7,8.17-4.77,1.11-1.67,2.11-4.61,3.27-8.02,1.41-4.14,3.16-9.29,5.05-11.18,1.39-1.39,6.21-4.77,11.31-8.34,8.3-5.82,16.89-11.83,19.2-14.9,3.54-4.72,20.14-17.74,27.68-19.48,13.07-3.02,31.17-.33,38.9.82,1.45.21,2.5.37,3.13.43,1.21.12,2.84.14,4.74.18,5.98.11,15.01.27,21.48,3.33,17.02,8.04,21.26,24.74,25,39.47,1.93,7.6,3.75,14.78,7.22,19.57,1,1.39,2.08,3.05,3.2,4.93.27.45.53.9.8,1.37,1.33.2,2.58.42,3.77.66,14.6,3.04,18.62,9.62,20.81,13.23.3.49.58.96.85,1.35.1.15,10.16,15.28-6.24,31.06Z"/>
      </g>
      <path d="M144.19,107.35c-.15,0-.31,0-.46,0-7-.1-9.24-2.52-9.9-4.54-.34-1.05.24-2.18,1.29-2.52,1.05-.34,2.18.24,2.52,1.29.19.58,1.72,1.7,6.15,1.77,4.33.06,9.77-.9,15.35-2.7,5.58-1.81,10.55-4.22,14.02-6.81,3.55-2.65,4.13-4.46,3.94-5.04-.34-1.05.24-2.18,1.29-2.52,1.05-.34,2.18.24,2.52,1.29.65,2.01.25,5.29-5.36,9.48-3.81,2.84-9.2,5.47-15.18,7.41-5.79,1.88-11.51,2.9-16.18,2.9Z"/>
      <path d="M158.81,39.72l-10.93.73c-.09,0-.18.03-.27.05-3.33.33-5.97,4.62-5.97,9.89s2.86,9.92,6.38,9.92,6.38-4.44,6.38-9.92c0-2.38-.54-4.56-1.43-6.26l6.12-.41c1.1-.07,1.94-1.03,1.86-2.13-.07-1.1-1.02-1.94-2.13-1.86Z"/>
      <path d="M183.16,39.72l-10.93.73c-.09,0-.18.03-.27.05-3.33.33-5.97,4.62-5.97,9.89s2.86,9.92,6.38,9.92,6.38-4.44,6.38-9.92c0-2.38-.54-4.56-1.43-6.26l6.12-.41c1.1-.07,1.94-1.03,1.86-2.13-.07-1.1-1.02-1.94-2.13-1.86Z"/>
    </g>
  </g>
</svg>