<?xml version="1.0" encoding="UTF-8"?>
<svg id="Layer_2" data-name="Layer 2" xmlns="http://www.w3.org/2000/svg" viewBox="0 0 124.7 42.11">
  <defs>
    <style>
      .cls-1 {
        fill: #f9ad1d;
      }

      .cls-2 {
        fill: #6b4615;
      }
    </style>
  </defs>
  <g id="Layer_1-2" data-name="Layer 1">
    <g>
      <g>
        <path class="cls-1" d="M121.98,39.51c2.2-6.04-.12-13.19-6.08-13.19-6.85,0-10.94,1.69-15.13,2.56-3.28.68-9.51.58-10.88-1.6-1.37-2.18-2.63-25.64-2.63-25.64h-11.79v36.63s30.86,2.53,46.5,1.24Z"/>
        <path class="cls-1" d="M75.48,40.69c0,.78.6,1.42,1.34,1.42h0c-.74,0-1.34-.64-1.34-1.42Z"/>
        <path class="cls-2" d="M122.06,39.51s-.05,0-.07,0c-15.65,1.29-46.5-1.24-46.5-1.24v2.42c0,.78.6,1.42,1.34,1.42h42.97c.64,0,1.17-.4,1.54-.96.37-.56,1.34-1.7.73-1.65Z"/>
      </g>
      <path d="M121.14,41.52h-42.97c-1.04,0-1.89-.87-1.89-1.95V0h12.87l.03.5c.5,9.38,1.6,23.88,2.55,25.39,1.13,1.79,6.93,2.05,10.29,1.35,1.07-.22,2.14-.5,3.27-.79,3.2-.83,6.83-1.78,11.97-1.78,2.29,0,4.22.97,5.57,2.8,1.98,2.68,2.43,6.8,1.18,10.63.02.03.04.05.05.07.28.47-.13,1.04-.65,1.76-.1.14-.2.27-.27.38-.51.77-1.22,1.2-2,1.2ZM77.37,1.06v38.51c0,.49.35.89.79.89h42.92c.58,0,.95-.45,1.12-.71.08-.12.18-.26.3-.42.08-.1.18-.25.28-.39h-.24s.27-.73.27-.73c1.3-3.58.95-7.65-.88-10.13-1.14-1.54-2.76-2.36-4.68-2.36-5,0-8.55.92-11.69,1.74-1.14.3-2.22.58-3.32.81-3.08.64-9.83.77-11.47-1.84-1.33-2.11-2.46-21.38-2.68-25.38h-10.72Z"/>
      <g>
        <path class="cls-1" d="M2.72,39.51c-2.2-6.04.12-13.19,6.08-13.19,6.85,0,10.94,1.69,15.13,2.56,3.28.68,9.51.58,10.88-1.6,1.37-2.18,2.63-25.64,2.63-25.64h11.79v36.63s-30.86,2.53-46.5,1.24Z"/>
        <path class="cls-1" d="M49.22,40.69c0,.78-.6,1.42-1.34,1.42h0c.74,0,1.34-.64,1.34-1.42Z"/>
        <path class="cls-2" d="M2.64,39.51s.05,0,.07,0c15.65,1.29,46.5-1.24,46.5-1.24v2.42c0,.78-.6,1.42-1.34,1.42H4.96s-.05,0-.05,0c-.64,0-1.17-.4-1.54-.96-.37-.56-1.34-1.7-.73-1.65Z"/>
      </g>
      <path d="M1.56,40.32c-.07-.11-.17-.24-.27-.38-.52-.72-.94-1.29-.65-1.76.01-.02.03-.05.05-.07-1.24-3.82-.8-7.95,1.18-10.63,1.36-1.84,3.28-2.8,5.57-2.8,5.14,0,8.77.94,11.97,1.78,1.13.29,2.19.57,3.27.79,3.36.7,9.16.44,10.29-1.35.95-1.51,2.05-16.01,2.55-25.39l.03-.5h12.87v39.57c0,1.07-.85,1.95-1.89,1.95H3.56c-.78,0-1.49-.43-2-1.2ZM36.61,1.06c-.22,4-1.35,23.27-2.68,25.38-1.64,2.61-8.39,2.48-11.47,1.84-1.1-.23-2.18-.51-3.32-.81-3.14-.81-6.69-1.74-11.69-1.74-1.92,0-3.54.82-4.68,2.36-1.83,2.48-2.18,6.55-.88,10.13l.27.74h-.24c.1.13.2.27.28.38.11.15.22.3.3.42.17.27.55.71,1.12.71h42.92c.44,0,.79-.4.79-.89V1.06s-10.72,0-10.72,0Z"/>
    </g>
  </g>
</svg>