<?xml version="1.0" encoding="UTF-8"?>
<svg id="Layer_2" data-name="Layer 2" xmlns="http://www.w3.org/2000/svg" viewBox="0 0 125.32 37.43">
  <defs>
    <style>
      .cls-1 {
        fill: #d3891c;
      }

      .cls-2 {
        fill: #6b4615;
      }
    </style>
  </defs>
  <g id="Layer_1-2" data-name="Layer 1">
    <g>
      <g>
        <g>
          <path class="cls-1" d="M120.11,16.04c-7.08,0-17,3.88-21.33,4.66-3.4.61-9.83.52-11.25-1.42-.34-.47-.51-1.77-.57-3.47l-1.8.79-.21-.47,1.99-.88v.05c0-.51-.01-1.06,0-1.62l-2.12.35-.08-.5,2.21-.36v.06c.02-1.17.06-2.42.12-3.64v.02h-2.51v-.51h2.53l-.02.42c.16-3.28.42-6.4.53-7.63.03-.29-.2-.54-.5-.54h-2.29c.16.2.27.45.27.72v3.56c0,.66-.54,1.2-1.2,1.2h-8.42v26.43c6.88,1.36,15.3,2.48,24.94,2.6,9.02.1,16.97-.7,23.57-1.78-.33.95-.72,1.79-1.15,2.5-.08.13-.18.25-.29.35.11-.1.21-.22.29-.35,3.44-5.62,4.04-20.54-2.69-20.54ZM86.99,11.07l-.02.51-2.19.16-.04-.51,2.24-.16Z"/>
          <path class="cls-1" d="M121.22,37.43c.08,0,.16-.02.24-.03-.08,0-.16.03-.24.03h0Z"/>
          <path class="cls-2" d="M123.95,34.08c-6.6,1.08-14.56,1.88-23.57,1.78-9.63-.11-18.06-1.23-24.94-2.6h0v2.9c0,.7.62,1.27,1.39,1.27h44.39c.08,0,.16-.02.24-.03.4-.05.77-.21,1.06-.47.11-.1.21-.22.29-.35.43-.7.81-1.55,1.15-2.5Z"/>
          <path class="cls-2" d="M85.07,5.64v-3.56c0-.28-.11-.52-.27-.72-.22-.28-.55-.47-.93-.47h-8.85c-.66,0-1.2.54-1.2,1.2v3.56c0,.66.54,1.2,1.2,1.2h8.85c.66,0,1.2-.54,1.2-1.2Z"/>
          <polygon points="84.55 9.1 84.55 9.61 87.05 9.61 87.05 9.59 87.06 9.53 87.08 9.1 84.55 9.1"/>
          <polygon points="86.97 11.58 86.99 11.07 84.75 11.23 84.79 11.74 86.97 11.58"/>
          <polygon points="84.73 13.53 84.81 14.04 86.93 13.68 86.93 13.68 86.93 13.23 86.93 13.17 84.73 13.53"/>
          <polygon points="84.95 16.13 85.15 16.6 86.95 15.8 86.96 15.8 86.94 15.3 86.94 15.25 84.95 16.13"/>
        </g>
        <path d="M119.86,37.32h-44.39c-.98,0-1.77-.74-1.77-1.65V6.72h-.05c-.87,0-1.58-.71-1.58-1.58V1.58C72.07.71,72.78,0,73.65,0h8.85C82.92,0,83.31.17,83.61.47h2.12c.25,0,.49.1.65.29s.25.43.23.67c-.11,1.19-.37,4.32-.53,7.61-.06,1.28-.11,2.52-.12,3.69v.7c0,.47,0,.92,0,1.35l.03.76h0c.09,2.14.35,2.8.49,3,1.25,1.71,7.37,1.9,10.87,1.27,1.39-.25,3.39-.83,5.7-1.5,4.85-1.41,10.88-3.16,15.7-3.16,1.71,0,3.12.91,4.09,2.63,2.59,4.62,1.56,14.19-1.07,18.49-.1.16-.22.31-.36.44-.33.31-.77.51-1.27.57-.14.02-.21.03-.29.03ZM73.65.77c-.45,0-.82.37-.82.82v3.56c0,.45.37.82.82.82h.81v29.71c0,.49.45.88,1,.88h44.39s.06,0,.1-.01h.1c.34-.06.63-.18.84-.38.09-.08.16-.17.23-.27,2.5-4.09,3.46-13.42,1.05-17.72-.83-1.48-1.98-2.23-3.42-2.23-4.72,0-10.69,1.74-15.49,3.13-2.33.68-4.34,1.26-5.78,1.52-3.33.6-10.06.58-11.63-1.57-.23-.32-.55-1.05-.65-3.68v-.27s0,0,0,0v-.23c-.02-.53-.03-1.07-.02-1.64v-.45c.02-1.18.07-2.43.13-3.66.16-3.37.43-6.51.54-7.71l-.12-.13h-2.48l-.12-.15c-.09-.12-.3-.33-.63-.33h-8.85Z"/>
      </g>
      <g>
        <g>
          <path class="cls-1" d="M2.51,36.58c.08.13.18.25.29.35-.11-.1-.21-.22-.29-.35-.43-.7-.81-1.55-1.15-2.5,6.6,1.08,14.56,1.88,23.57,1.78,9.63-.11,18.06-1.23,24.94-2.6V6.84s-8.42,0-8.42,0c-.66,0-1.2-.54-1.2-1.2v-3.56c0-.28.11-.52.27-.72h-2.29c-.29,0-.52.25-.5.54.11,1.23.37,4.35.53,7.63l-.02-.42h2.53v.51h-2.51v-.02c.06,1.22.1,2.47.12,3.64v-.06s2.21.36,2.21.36l-.08.5-2.12-.35c0,.56,0,1.11-.01,1.62v-.05s1.99.88,1.99.88l-.21.47-1.8-.79c-.06,1.7-.23,3-.57,3.47-1.42,1.94-7.85,2.03-11.25,1.42-4.33-.78-14.25-4.66-21.33-4.66-6.74,0-6.13,14.92-2.69,20.54ZM40.57,11.23l-.04.51-2.19-.16-.02-.51,2.24.16Z"/>
          <path class="cls-1" d="M4.09,37.43c-.08,0-.16-.02-.24-.03.08,0,.16.03.24.03h0Z"/>
          <path class="cls-2" d="M1.36,34.08c6.6,1.08,14.56,1.88,23.57,1.78,9.63-.11,18.06-1.23,24.94-2.6h0v2.9c0,.7-.62,1.27-1.39,1.27H4.09c-.08,0-.16-.02-.24-.03-.4-.05-.77-.21-1.06-.47-.11-.1-.21-.22-.29-.35-.43-.7-.81-1.55-1.15-2.5Z"/>
          <path class="cls-2" d="M40.25,5.64v-3.56c0-.28.11-.52.27-.72.22-.28.55-.47.93-.47h8.85c.66,0,1.2.54,1.2,1.2v3.56c0,.66-.54,1.2-1.2,1.2h-.43s-8.42,0-8.42,0c-.66,0-1.2-.54-1.2-1.2Z"/>
          <polygon points="40.77 9.1 40.77 9.61 38.26 9.61 38.26 9.59 38.26 9.53 38.24 9.1 40.77 9.1"/>
          <polygon points="38.34 11.58 38.33 11.07 40.57 11.23 40.53 11.74 38.34 11.58"/>
          <polygon points="40.59 13.53 40.51 14.04 38.39 13.68 38.39 13.68 38.38 13.23 38.38 13.17 40.59 13.53"/>
          <polygon points="40.37 16.13 40.16 16.6 38.36 15.8 38.36 15.8 38.38 15.3 38.38 15.25 40.37 16.13"/>
        </g>
        <path d="M5.17,37.28c-.5-.06-.94-.26-1.27-.57-.14-.13-.26-.28-.36-.44C.91,31.98-.11,22.41,2.48,17.79c.96-1.72,2.38-2.63,4.09-2.63,4.83,0,10.86,1.75,15.7,3.16,2.31.67,4.3,1.25,5.7,1.5,3.5.63,9.62.44,10.87-1.27.14-.2.4-.85.49-2.99h0s.03-.76.03-.76c0-.43.01-.88.01-1.35v-.7c-.02-1.17-.07-2.41-.13-3.69-.16-3.29-.43-6.42-.53-7.61-.02-.25.06-.49.23-.67s.4-.29.65-.29h2.12C42.01.17,42.4,0,42.81,0h8.85c.87,0,1.58.71,1.58,1.58v3.56c0,.87-.71,1.58-1.58,1.58h-.05v28.94c0,.91-.79,1.65-1.77,1.65H5.46c-.08,0-.15-.01-.29-.03ZM42.81.77c-.33,0-.53.2-.63.33l-.12.15h-2.48s-.12.13-.12.13c.11,1.2.37,4.34.54,7.71.06,1.23.1,2.48.12,3.66v.45c0,.57,0,1.11,0,1.64v.23s0,0,0,0v.27c-.1,2.64-.43,3.36-.66,3.68-1.57,2.15-8.3,2.17-11.63,1.57-1.44-.26-3.45-.84-5.78-1.52-4.8-1.39-10.77-3.13-15.49-3.13-1.44,0-2.59.75-3.42,2.23-2.41,4.3-1.45,13.63,1.05,17.72.06.1.14.19.23.27.21.2.5.33.84.37h.1s.06.03.1.03h44.39c.55,0,1-.4,1-.88V5.96h.81c.45,0,.82-.37.82-.82V1.58c0-.45-.37-.82-.82-.82h-8.85Z"/>
      </g>
    </g>
  </g>
</svg>