<?xml version="1.0" encoding="UTF-8"?>
<svg id="Layer_2" data-name="Layer 2" xmlns="http://www.w3.org/2000/svg" viewBox="0 0 251.26 295.66">
  <defs>
    <style>
      .cls-1 {
        fill: #ffba0a;
      }
    </style>
  </defs>
  <g id="Layer_1-2" data-name="Layer 1">
    <g>
      <g>
        <path class="cls-1" d="M33.11,184.79c-.17,1.35-.73,5.51-.7,11.1.03,5.77.67,10.3.94,11.91,2.25,13.46,12.75,25.7,13.76,27.09,11.48,15.75,33,21.91,39.63,23.1,6.63,1.19,68.94,1.4,79.57,0,15.93-2.1,31.26-9.54,39.79-15.51,17.41-12.18,22.95-30.18,25.18-36.6,10.77-30.96.18-59.19-3.87-70-7.69-20.52-12.62-16.97-21-38-13.07-32.79-2.08-43.91-15.47-66.51-2.36-3.98-16.43-27.73-41.68-31.01-22.86-2.97-40.85,12.68-45.47,16.7-15.18,13.21-12.96,22.75-31.38,51.83-19.07,30.11-23.17,22.59-30,40-9.83,25.07-6.48,53.74-9.3,75.9Z"/>
        <path d="M250.96,53.98c-.93-7.21-4.07-12.58-9.33-15.99-9.35-6.05-16.29-7.91-21.21-5.67-6.78,3.07-8.29,13.32-9.63,22.37-.43,2.9-.83,5.65-1.39,8.07-2.1,9.24-7.74,20.6-13.24,28.22l-1.64,2.15c-4.09-12.36-4.62-21.39-5.09-29.48-.58-10.11-1.08-18.85-8.09-30.68-5.05-8.53-19.33-28.69-42.78-31.73-19.47-2.53-36.1,7.88-46.65,17.05-8.99,7.82-12,14.3-16.56,24.11-3.27,7.04-7.35,15.8-15.1,28.05-3.19,5.03-5.95,9-8.37,12.2l-.09-.15c-4.31-7.1-8.24-15.82-9.91-23.19-.55-2.43-.96-5.17-1.39-8.07-1.34-9.05-2.86-19.31-9.63-22.37-4.93-2.23-11.86-.37-21.21,5.67-5.26,3.4-8.4,8.78-9.33,15.99-2.58,19.99,12.01,50.35,25.92,72.88-3.15,13.54-3.63,27.61-4.06,40.39-.28,8.24-.54,16.03-1.45,23.16l-.02.13c-.2,1.54-.72,5.65-.69,11.17.03,6.15.74,10.86.96,12.15,1.4,8.37,5.96,17.49,13.56,27.12.22.28.38.48.47.6,10.88,14.92,31.3,22.02,40.58,23.69,2.14.39,10.58.68,21.26.84,1.41,9.93,2.38,19.22,1.83,20.35-.88,1.46-5.82,1.87-9.08,1.16-1.2-.26-2.93-.87-4.95-1.58-4.29-1.51-9.63-3.38-13.95-3.38-2.32,0-4.3,1.14-5.56,3.2-1.94,3.16-1.93,8.06.02,11.91.41.81,1.2,1.32,2.06,1.32h38.99c1.09,0,1.97-.94,1.97-2.09v-30.77c2.96.02,5.98.03,9,.03,7.17,0,14.29-.05,20.5-.17v30.91c0,1.15.88,2.09,1.97,2.09h38.99c.86,0,1.65-.5,2.06-1.32,1.95-3.85,1.96-8.75.02-11.91-1.27-2.06-3.24-3.2-5.56-3.2-4.32,0-9.66,1.87-13.95,3.38-2.01.71-3.75,1.32-4.95,1.57-3.27.71-8.2.3-9.08-1.15-.56-1.15.44-10.65,1.87-20.71,2.89-.13,5.16-.29,6.58-.48,16.29-2.15,31.97-9.83,40.45-15.76,17.01-11.9,22.89-29.05,25.41-36.38l.33-.95c10.92-31.4.22-60.08-3.85-70.95,15.42-22.61,36.05-60.35,33.02-83.82ZM218.96,207.77l-.33.96c-2.42,7.05-8.08,23.56-24.29,34.89-8.2,5.74-23.36,13.17-39.12,15.25-1.27.17-3.25.31-5.74.44-.49.02-1,.05-1.53.07-.14.91-.29,1.93-.44,3.01-1.15,8.02-2.62,19.78-1.63,21.41,1.55,2.57,7.83,2.47,10.68,1.85,1.29-.28,3.07-.9,5.13-1.63,4.18-1.47,9.39-3.3,13.46-3.3,2.28,0,3.59,1.35,4.29,2.49,1.68,2.74,1.65,7.04-.08,10.45-.15.3-.43.49-.72.49h-38.99c-.25,0-.47-.27-.47-.59v-33.92c-.49.01-.99.02-1.5.03-8.81.17-19.49.21-29.5.15-.5,0-1,0-1.5-.01v33.76c0,.32-.21.59-.47.59h-38.99c-.29,0-.57-.19-.72-.49-1.73-3.41-1.76-7.71-.08-10.45.7-1.13,2.01-2.49,4.29-2.49,4.06,0,9.27,1.83,13.45,3.3,2.06.72,3.84,1.35,5.13,1.63,2.85.62,9.13.72,10.68-1.85.98-1.61-.45-13.09-1.59-21.1-.15-1.07-.3-2.07-.43-2.98-.51,0-1.02-.01-1.52-.02-10.22-.16-18.23-.44-20.3-.81-8.87-1.59-28.37-8.35-38.68-22.51-.1-.14-.28-.37-.54-.69-7.28-9.23-11.64-17.9-12.96-25.76-.21-1.24-.89-5.75-.92-11.67-.03-5.32.48-9.28.67-10.77l.02-.13c.93-7.26,1.19-15.12,1.47-23.43.41-12.22.84-24.74,3.32-36.88l2.03,3.15c5.95,9.07,11.41,16.28,14.89,20.09l1.11-1.01c-3.95-4.32-9.61-11.9-15.57-21.11-.67-1.04-1.35-2.1-2.02-3.18-.09-.14-.18-.27-.26-.41-.65-1.03-1.3-2.1-1.94-3.16-3.03-4.98-6.05-10.25-8.88-15.65C9.36,89.56-.3,66.89,1.79,50.73c.78-6.09,3.25-10.75,7.3-13.93-.31,3.15-.66,9.81,1.49,13.71l1.31-.72c-2.31-4.2-1.38-12.45-1.16-14.16,2.84-1.82,5.43-3.23,7.78-4.24-.36,2.87-.86,9.79,1.98,14.45l1.28-.78c-2.89-4.75-1.93-12.49-1.66-14.31,4.14-1.52,7.48-1.69,10.1-.5,6.03,2.73,7.49,12.56,8.77,21.23.43,2.93.84,5.71,1.41,8.19,1.68,7.37,5.69,16.46,10.24,23.89.08.13.17.26.25.39.46.74.92,1.48,1.39,2.18.11.17.22.32.33.49,4.31,6.37,8.85,10.91,12.2,10.95l.02-1.5c-2.8-.03-7.07-4.46-11.23-10.71,2.63-3.42,5.66-7.71,9.19-13.29,7.86-12.41,11.98-21.27,15.29-28.39,4.4-9.46,7.31-15.71,15.81-23.11,9.05-7.87,22.76-16.7,38.75-16.7,1.82,0,3.67.11,5.54.36,22.13,2.87,35.75,22.14,40.58,30.29,6.64,11.21,7.12,19.6,7.68,29.32.5,8.66,1.07,18.36,5.81,31.94-2.21,2.31-4.24,3.71-5.8,3.73l.02,1.5c1.83-.02,4.02-1.4,6.34-3.68.75-.74,1.52-1.59,2.29-2.51.01-.02.03-.03.04-.05.65-.77,1.29-1.6,1.94-2.48,5.9-7.99,11.69-19.95,13.79-29.2.56-2.48.97-5.25,1.41-8.19,1.28-8.67,2.74-18.5,8.77-21.23,2.62-1.19,5.97-1.02,10.1.5.28,1.82,1.23,9.57-1.66,14.31l1.28.78c2.84-4.66,2.34-11.58,1.98-14.45,2.35,1.01,4.94,2.42,7.78,4.25.22,1.71,1.15,9.96-1.16,14.16l1.31.72c2.14-3.9,1.8-10.56,1.49-13.71,4.05,3.17,6.51,7.84,7.3,13.93,2.08,16.15-7.58,38.83-16.05,55-5.11,9.75-10.83,19.14-16.12,26.96-.7,1.03-1.38,2.03-2.06,3-.44.63-.87,1.25-1.3,1.85-1.03,1.44-2.03,2.81-2.99,4.09-2.33,3.09-4.44,5.69-6.21,7.62l1.11,1.01c1.39-1.52,3.09-3.58,5.01-6.07l3.12-4.18c.61-.85,1.25-1.74,1.89-2.65,4.35,11.79,13.08,38.29,3.1,66.96Z"/>
      </g>
      <path d="M170.85,116.09c-1.74-1.62-6.37-5.07-12.35-2.61-5.69,2.33-7.26,6.7-7.69,8.83-.12.57.21,1.11.67,1.23.03,0,.06.02.09.03.02,0,.04.02.06.02.03,0,.06-.01.1-.02.06,0,.12-.01.18-.03.01,0,.03-.01.04-.02.14-.05.27-.13.37-.26.71-.87,2.44-2.4,6.03-2.7,3.71-.31,5.79,1.73,6.64,2.83.28.37.74.45,1.09.19h.02c.46-.35.55-1.1.18-1.58-1.09-1.43-3.64-3.89-8.05-3.53-1.88.16-3.33.64-4.46,1.22.95-1.51,2.57-3.13,5.31-4.26,5.21-2.14,9.25.91,10.71,2.28.35.33.85.29,1.16-.09h0c.37-.45.32-1.17-.09-1.56Z"/>
      <path d="M118.41,116.09c1.74-1.62,6.37-5.07,12.35-2.61,5.69,2.33,7.26,6.7,7.69,8.83.12.57-.21,1.11-.67,1.23-.03,0-.06.02-.09.03-.02,0-.04.02-.06.02-.03,0-.06-.01-.1-.02-.06,0-.12-.01-.18-.03-.01,0-.03-.01-.04-.02-.14-.05-.27-.13-.37-.26-.71-.87-2.44-2.4-6.03-2.7-3.71-.31-5.79,1.73-6.64,2.83-.28.37-.74.45-1.09.19h-.02c-.46-.35-.55-1.1-.18-1.58,1.09-1.43,3.64-3.89,8.05-3.53,1.88.16,3.33.64,4.46,1.22-.95-1.51-2.57-3.13-5.31-4.26-5.21-2.14-9.25.91-10.71,2.28-.35.33-.85.29-1.16-.09h0c-.37-.45-.32-1.17.09-1.56Z"/>
      <ellipse cx="135.74" cy="162.78" rx="12.05" ry="16.34"/>
    </g>
  </g>
</svg>