<?xml version="1.0" encoding="UTF-8"?>
<svg id="Layer_2" data-name="Layer 2" xmlns="http://www.w3.org/2000/svg" viewBox="0 0 215.96 295.66">
  <defs>
    <style>
      .cls-1 {
        fill: #ffba0a;
      }
    </style>
  </defs>
  <g id="Layer_1-2" data-name="Layer 1">
    <g>
      <g>
        <path class="cls-1" d="M13.1,184.79c-.17,1.35-.73,5.51-.7,11.1.03,5.77.67,10.3.94,11.91,2.25,13.46,12.75,25.7,13.76,27.09,11.48,15.75,33,21.91,39.63,23.1,6.63,1.19,68.94,1.4,79.57,0,15.93-2.1,31.26-9.54,39.79-15.51,17.41-12.18,22.95-30.18,25.18-36.6,10.77-30.96.18-59.19-3.87-70-7.69-20.52-12.62-16.97-21-38-13.07-32.79-2.08-43.91-15.47-66.51-2.36-3.98-16.43-27.73-41.68-31.01-22.86-2.97-40.85,12.68-45.47,16.7-15.18,13.21-12.96,22.75-31.38,51.83-19.07,30.11-23.17,22.59-30,40-9.83,25.07-6.48,53.74-9.3,75.9Z"/>
        <path d="M197.91,137.73c-3.96-10.57-7.31-15.01-10.55-19.31-3.14-4.17-6.39-8.49-10.46-18.71-6.32-15.85-6.93-26.58-7.48-36.04-.58-10.11-1.08-18.85-8.09-30.68-5.05-8.53-19.33-28.69-42.78-31.73-19.47-2.53-36.1,7.88-46.65,17.05-8.99,7.82-12,14.3-16.56,24.11-3.27,7.04-7.35,15.8-15.1,28.05-9.66,15.25-15.43,20.74-19.65,24.76-4.23,4.02-7.02,6.68-10.48,15.5-6.74,17.17-7.38,36.26-7.95,53.1-.28,8.24-.54,16.03-1.45,23.16l-.02.13c-.2,1.54-.72,5.65-.69,11.17.03,6.15.74,10.86.96,12.15,1.4,8.37,5.96,17.49,13.56,27.12.22.28.38.48.47.6,6.65,9.13,16.88,15.33,25.94,19.15.8.34,1.59.66,2.37.96,4.82,1.86,9.16,3.03,12.26,3.58,2.14.39,10.58.68,21.26.84,1.41,9.93,2.38,19.22,1.83,20.35-.88,1.46-5.82,1.87-9.08,1.16-1.2-.26-2.93-.87-4.95-1.58-4.29-1.51-9.63-3.38-13.95-3.38-2.32,0-4.3,1.14-5.56,3.2-1.94,3.16-1.93,8.06.02,11.91.41.81,1.2,1.32,2.06,1.32h38.99c1.09,0,1.97-.94,1.97-2.09v-30.77c2.96.02,5.98.03,9,.03,7.17,0,14.29-.05,20.5-.17v30.91c0,1.15.88,2.09,1.97,2.09h38.99c.86,0,1.65-.5,2.06-1.32,1.95-3.85,1.96-8.75.02-11.91-1.27-2.06-3.24-3.2-5.56-3.2-4.32,0-9.66,1.87-13.95,3.38-2.01.71-3.75,1.32-4.95,1.57-3.27.71-8.2.3-9.08-1.15-.56-1.15.44-10.65,1.87-20.71,2.89-.13,5.16-.29,6.58-.48,1.8-.24,3.59-.55,5.37-.92,1.74-.36,3.47-.77,5.17-1.23,12.27-3.3,23.28-8.99,29.9-13.62,17.01-11.9,22.89-29.05,25.41-36.38l.33-.95c10.94-31.47.17-60.2-3.88-71.02ZM127.5,262.39c-1.15,8.02-2.62,19.78-1.63,21.41,1.55,2.57,7.83,2.47,10.68,1.85,1.29-.28,3.07-.9,5.13-1.63,4.18-1.47,9.39-3.3,13.46-3.3,2.28,0,3.59,1.35,4.29,2.49,1.68,2.74,1.65,7.04-.08,10.45-.15.3-.43.49-.72.49h-38.99c-.25,0-.47-.27-.47-.59v-33.92c-.49.01-.99.02-1.5.03-8.81.17-19.49.21-29.5.15-.5,0-1,0-1.5-.01v33.76c0,.32-.21.59-.47.59h-38.99c-.29,0-.57-.19-.72-.49-1.73-3.41-1.76-7.71-.08-10.45.7-1.13,2.01-2.49,4.29-2.49,4.06,0,9.27,1.83,13.45,3.3,2.06.72,3.84,1.35,5.13,1.63,2.85.62,9.13.72,10.68-1.85.98-1.61-.45-13.09-1.59-21.1-.15-1.07-.3-2.07-.43-2.98-.51,0-1.02-.01-1.52-.02-10.22-.16-18.23-.44-20.3-.81-2.21-.4-5.07-1.11-8.29-2.18,5.39-2.17,11.34-5.51,17.84-9.17,7.29-4.11,15.34-8.63,23.99-12.21.61.55,1.22,1.09,1.83,1.64,11.73,10.53,23.83,21.38,36.34,23.29-.1.68-.2,1.38-.31,2.14ZM198.95,207.77l-.33.96c-2.42,7.05-8.08,23.56-24.29,34.89-8.2,5.74-23.36,13.17-39.12,15.25-.61.08-1.38.16-2.29.22-.62-.02-1.24-.04-1.87-.05-13.1-.33-26.05-11.96-38.58-23.2-.43-.38-.86-.77-1.29-1.15,11.55-4.59,24.16-7.4,37.51-5.25,20.29,3.28,25.25-4.12,26.41-8.82,2.15-8.77-5.6-21.02-15.36-24.27-7.35-2.45-21.23-1.64-38.71,1.76-21.17-10.9-38.5-18.72-52.69-12.7-7.48,3.17-12.03,9.34-11.31,15.34.61,5.14,5.01,9.22,12.32,11.66-8.26,2.85-16.67,5.99-25.07,9.41l.56,1.39c9.01-3.66,18.09-7.03,27.01-10.05.91-.31,1.81-.6,2.71-.91,37.72-12.52,72.02-18.7,84.7-14.47,8.94,2.98,16.33,14.54,14.38,22.49-1.78,7.25-10.55,9.98-24.71,7.7-13.96-2.25-27.06.77-39,5.61-.52.21-1.03.42-1.54.64-8.46,3.57-16.32,8-23.47,12.02-7.12,4.01-13.58,7.64-19.29,9.71-9.4-3.44-21.03-9.7-28.21-19.56-.1-.14-.28-.37-.54-.69-7.28-9.23-11.64-17.9-12.96-25.76-.21-1.24-.89-5.75-.92-11.67-.03-5.32.48-9.28.67-10.77l.02-.13c.93-7.26,1.19-15.12,1.47-23.43.59-17.41,1.19-35.41,7.74-52.1,3.22-8.2,5.68-10.54,9.76-14.42,4.33-4.12,10.26-9.77,20.12-25.32,7.86-12.41,11.98-21.27,15.29-28.39,4.4-9.46,7.31-15.71,15.81-23.11,9.05-7.87,22.76-16.7,38.75-16.7,1.82,0,3.67.11,5.54.36,22.13,2.87,35.75,22.14,40.58,30.29,6.64,11.21,7.12,19.6,7.68,29.32.56,9.69,1.19,20.68,7.68,36.98,4.22,10.6,7.59,15.08,10.86,19.41,3.25,4.32,6.32,8.4,10.13,18.57,3.95,10.54,14.44,38.54,3.86,68.98ZM38.59,198.12c.3-1.95,1.22-3.89,2.64-5.66,1.79-.24,11.41-1.27,18.52,2.95l.77-1.29c-6.27-3.72-14.07-3.63-17.75-3.33,1.67-1.59,3.76-2.97,6.16-3.99,13.22-5.61,29.69,1.53,49.74,11.79-13.97,2.85-30.07,7.28-46.9,12.99-7.89-2.16-12.65-6.04-13.24-11.01-.04-.31-.06-.63-.06-.95,7.66.23,16.2,3.84,16.29,3.88l.59-1.38c-.37-.16-8.84-3.74-16.76-4Z"/>
      </g>
      <path d="M105.44,161.3h0c.85,0,1.58.65,1.63,1.51.47,7.25,4.3,13.12,8.77,13.12s8.3-5.87,8.77-13.12c.06-.85.78-1.51,1.63-1.51h0c.96,0,1.7.82,1.64,1.78-.58,9.18-5.67,16.14-12.05,16.14s-11.46-6.96-12.05-16.14c-.06-.96.68-1.78,1.64-1.78Z"/>
      <ellipse cx="111.17" cy="124.19" rx="7.09" ry="11.02"/>
      <path d="M149.59,120.18c-1.74-1.62-6.37-5.07-12.35-2.61-5.69,2.33-7.26,6.7-7.69,8.83-.12.57.21,1.11.67,1.23.03,0,.06.02.09.03.02,0,.04.02.06.02.03,0,.06-.01.1-.02.06,0,.12-.01.18-.03.01,0,.03-.01.04-.02.14-.05.27-.13.37-.26.71-.87,2.44-2.4,6.03-2.7,3.71-.31,5.79,1.73,6.64,2.83.28.37.74.45,1.09.19h.02c.46-.35.55-1.1.18-1.58-1.09-1.43-3.64-3.89-8.05-3.53-1.88.16-3.33.64-4.46,1.22.95-1.51,2.57-3.13,5.31-4.26,5.21-2.14,9.25.91,10.71,2.28.35.33.85.29,1.16-.09h0c.37-.45.32-1.17-.09-1.56Z"/>
    </g>
  </g>
</svg>