<?xml version="1.0" encoding="UTF-8"?>
<svg id="Layer_2" data-name="Layer 2" xmlns="http://www.w3.org/2000/svg" viewBox="0 0 252.11 288.72">
  <defs>
    <style>
      .cls-1 {
        fill: #ffba0a;
      }
    </style>
  </defs>
  <g id="Layer_1-2" data-name="Layer 1">
    <g>
      <g>
        <path class="cls-1" d="M153.99.68c11.02.75,20.97,5.1,27.8,10.81,6.83,5.71,17.07,24.49,19.51,44.01,2.44,19.53,7.8,38.3,14.63,53.32,6.83,15.02,17.07,65.34,9.75,84.87-7.32,19.53-15.61,35.3-22.92,45.81-7.32,10.51-20.48,21.03-39.99,18.03-19.51-3-28.77-4.51-43.41-3.76-14.63.75-42.92,3-56.57-15.77-13.66-18.78-25.36-30.79-21.95-61.59,3.41-30.79,4.88-45.06,12.68-68.35,7.8-23.28-3.87-55.96,12.68-71.35,11.32-10.52,15.94-24.47,28.32-27.52C133.75-.49,131.45-.85,153.99.68Z"/>
        <path d="M251.81,63.14c-.93-7.21-4.07-12.58-9.33-15.99-9.35-6.05-16.29-7.91-21.21-5.67-6.78,3.07-8.29,13.32-9.63,22.37-.43,2.9-.83,5.65-1.39,8.07-1.63,7.15-5.38,15.58-9.54,22.55-3.65-11.31-6.37-23.51-7.89-35.66-2.57-20.56-13.28-39.33-20.03-44.98-7.62-6.37-18.07-10.44-28.66-11.16-20.16-1.36-20.68-1.23-47.88,5.57-3.53.88-7.51,1.88-12.05,3-8.34,2.06-13.36,8.73-18.67,15.8-3.07,4.08-6.25,8.31-10.31,12.09-9.9,9.21-10.18,23.75-10.1,39.29-1.39-3.41-2.53-6.8-3.25-9.94-.55-2.43-.96-5.17-1.39-8.07-1.34-9.05-2.86-19.31-9.63-22.37-4.93-2.23-11.86-.37-21.21,5.67-5.26,3.4-8.4,8.78-9.33,15.99-2.7,20.95,13.45,53.28,27.91,76.06l2.31,3.58c1.12,1.71,2.23,3.36,3.31,4.93-1.58,9.56-2.73,19.95-4.23,33.48l-.22,2.02c-3.15,28.44,6.35,41.23,18.38,57.43,1.25,1.69,2.54,3.42,3.84,5.21,11.17,15.37,31.79,17.14,47.06,16.85,1.14,8.52,1.83,15.85,1.35,16.84-.88,1.46-5.82,1.87-9.08,1.16-1.2-.26-2.94-.87-4.95-1.58-4.29-1.5-9.63-3.38-13.95-3.38-2.32,0-4.3,1.14-5.56,3.2-1.94,3.16-1.94,8.06.02,11.91.41.81,1.2,1.32,2.06,1.32h38.99c1.09,0,1.97-.94,1.97-2.09v-27.85c10.6-.54,18.45.13,29.5,1.7v26.15c0,1.15.88,2.09,1.97,2.09h38.99c.86,0,1.65-.5,2.06-1.32,1.95-3.85,1.96-8.75.02-11.91-1.27-2.06-3.24-3.2-5.56-3.2-4.32,0-9.66,1.87-13.95,3.38-2.01.71-3.75,1.32-4.95,1.58-3.27.71-8.2.3-9.08-1.15-.43-.89.07-6.77.98-14.04.56.09,1.1.17,1.68.26l1.41.22c2.43.37,4.75.55,6.96.55,18.19,0,29.25-11.67,34.49-19.2,8.12-11.67,16.32-28.05,23.09-46.14,3.99-10.65,2.86-30.13-.08-48.24,15.56-22.22,37.91-61.98,34.77-86.35ZM214.79,150.14c-.17.23-.33.45-.49.69-.85,1.19-1.69,2.34-2.5,3.41-2.33,3.09-4.44,5.69-6.21,7.62l1.11,1.01c1.39-1.52,3.09-3.58,5.01-6.07l2.91-3.91c2.53,16.73,3.33,34.09-.31,43.79-6.69,17.86-14.77,34.02-22.75,45.48-5.48,7.87-17.76,20.59-38.53,17.4l-1.41-.22c-.6-.09-1.17-.18-1.75-.27-.5-.08-1-.15-1.49-.23-.13.98-.26,1.97-.39,2.98-.86,6.81-1.52,13.81-.77,15.04,1.55,2.57,7.83,2.47,10.68,1.85,1.29-.28,3.07-.9,5.13-1.63,4.18-1.47,9.39-3.29,13.45-3.29,2.28,0,3.59,1.35,4.29,2.49,1.68,2.74,1.65,7.04-.08,10.45-.15.3-.43.49-.72.49h-38.99c-.25,0-.47-.27-.47-.59v-28.96c-.5-.07-1.01-.15-1.5-.22-8.42-1.19-15.04-1.85-22.49-1.85-2.24,0-4.55.06-7.01.18-.06,0-.13,0-.19,0l-1.31.07v30.77c0,.32-.21.59-.47.59h-38.99c-.29,0-.57-.19-.72-.49-1.73-3.41-1.76-7.71-.08-10.45.7-1.13,2.01-2.48,4.29-2.48,4.06,0,9.27,1.83,13.45,3.29,2.06.72,3.84,1.35,5.13,1.63,2.86.62,9.13.72,10.68-1.85.84-1.39-.1-10.14-1.11-17.65-.14-1.02-.28-2.02-.41-2.98-.5.01-1.01.03-1.51.04-14.95.29-33.89-1.42-44.22-15.63-1.31-1.8-2.6-3.54-3.86-5.23-11.64-15.67-20.83-28.04-17.81-55.31l.22-2.02c1.36-12.25,2.41-21.76,3.71-30.29,3.62,5.07,6.81,9.11,9.12,11.64l1.11-1.01c-2.66-2.92-6.11-7.32-9.9-12.7-.8-1.13-1.61-2.31-2.44-3.53-1.06-1.57-2.14-3.2-3.23-4.88-.76-1.17-1.52-2.37-2.29-3.59-3.67-5.87-7.39-12.26-10.83-18.82C9.36,98.71-.3,76.04,1.79,59.88c.78-6.09,3.25-10.75,7.3-13.93-.31,3.15-.66,9.81,1.49,13.71l1.31-.72c-2.31-4.2-1.38-12.45-1.16-14.16,2.84-1.82,5.43-3.23,7.78-4.24-.36,2.87-.86,9.79,1.98,14.45l1.28-.78c-2.89-4.75-1.93-12.49-1.66-14.31,4.14-1.52,7.48-1.69,10.1-.5,6.03,2.73,7.49,12.56,8.77,21.23.43,2.93.84,5.71,1.41,8.19.94,4.14,2.63,8.82,4.73,13.44.92,2.04,1.93,4.06,2.98,6.03.82,1.52,1.66,3.01,2.52,4.43.54.88,1.09,1.74,1.64,2.57,4.4,6.62,9.09,11.4,12.53,11.44l.02-1.5c-2.84-.03-7.2-4.58-11.41-10.98l-1.63-2.57c-1.27-2.09-2.49-4.32-3.64-6.61,0-1.64,0-3.27-.02-4.9-.09-15.52-.17-30.17,9.14-38.83,4.26-3.96,7.52-8.29,10.67-12.48,5.2-6.91,9.68-12.88,16.99-14.69,4.54-1.12,8.53-2.12,12.06-3,26.75-6.69,27.26-6.82,46.94-5.48,9.97.67,19.79,4.49,26.94,10.47,6.21,5.19,16.54,23.51,18.98,43.05,1.65,13.18,4.69,26.44,8.8,38.58-.54.82-1.09,1.62-1.63,2.37l-1.91,2.5c-2.97,3.66-5.78,5.99-7.8,6.01l.02,1.5c2.44-.03,5.52-2.46,8.67-6.23.65-.77,1.29-1.6,1.94-2.48.45-.61.89-1.24,1.34-1.89.7-1.02,1.39-2.08,2.07-3.19,4.61-7.47,8.69-16.67,10.38-24.13.56-2.48.97-5.25,1.41-8.19,1.28-8.67,2.74-18.5,8.77-21.23,2.62-1.19,5.97-1.02,10.1.5.28,1.83,1.23,9.57-1.66,14.31l1.28.78c2.84-4.66,2.34-11.58,1.98-14.45,2.35,1.01,4.94,2.42,7.78,4.25.22,1.71,1.15,9.96-1.16,14.16l1.31.72c2.14-3.9,1.8-10.56,1.49-13.71,4.05,3.17,6.51,7.84,7.3,13.93,2.08,16.15-7.58,38.83-16.05,55-5.58,10.65-11.9,20.87-17.58,29.09-.64.93-1.28,1.84-1.91,2.72Z"/>
      </g>
      <path d="M173.06,126.7c-1.74-1.62-6.37-5.07-12.35-2.61-5.69,2.33-7.26,6.7-7.69,8.83-.12.57.21,1.11.67,1.23.03,0,.06.02.09.03.02,0,.04.02.06.02.03,0,.06-.01.1-.02.06,0,.12-.01.18-.03.01,0,.03-.01.04-.02.14-.05.27-.13.37-.26.71-.87,2.44-2.4,6.03-2.7,3.71-.31,5.79,1.73,6.64,2.83.28.37.74.45,1.09.19h.02c.46-.35.55-1.1.18-1.58-1.09-1.43-3.64-3.89-8.05-3.53-1.88.16-3.33.64-4.46,1.22.95-1.51,2.57-3.13,5.31-4.26,5.21-2.14,9.25.91,10.71,2.28.35.33.85.29,1.16-.09h0c.37-.45.32-1.17-.09-1.56Z"/>
      <path d="M120.63,126.7c1.74-1.62,6.37-5.07,12.35-2.61,5.69,2.33,7.26,6.7,7.69,8.83.12.57-.21,1.11-.67,1.23-.03,0-.06.02-.09.03-.02,0-.04.02-.06.02-.03,0-.06-.01-.1-.02-.06,0-.12-.01-.18-.03-.01,0-.03-.01-.04-.02-.14-.05-.27-.13-.37-.26-.71-.87-2.44-2.4-6.03-2.7-3.71-.31-5.79,1.73-6.64,2.83-.28.37-.74.45-1.09.19h-.02c-.46-.35-.55-1.1-.18-1.58,1.09-1.43,3.64-3.89,8.05-3.53,1.88.16,3.33.64,4.46,1.22-.95-1.51-2.57-3.13-5.31-4.26-5.21-2.14-9.25.91-10.71,2.28-.35.33-.85.29-1.16-.09h0c-.37-.45-.32-1.17.09-1.56Z"/>
      <ellipse cx="137.96" cy="173.38" rx="12.05" ry="16.34"/>
    </g>
  </g>
</svg>