<?xml version="1.0" encoding="UTF-8"?>
<svg id="Layer_2" data-name="Layer 2" xmlns="http://www.w3.org/2000/svg" viewBox="0 0 208.9 288.72">
  <defs>
    <style>
      .cls-1 {
        fill: #ffba0a;
      }
    </style>
  </defs>
  <g id="Layer_1-2" data-name="Layer 1">
    <g>
      <g>
        <path class="cls-1" d="M134.69.68c11.02.75,20.97,5.1,27.8,10.81,6.83,5.71,17.07,24.49,19.51,44.01,2.44,19.53,7.8,38.3,14.63,53.32,6.83,15.02,17.07,65.34,9.75,84.87-7.32,19.53-15.61,35.3-22.92,45.81-7.32,10.51-20.48,21.03-39.99,18.03-19.51-3-28.77-4.51-43.41-3.76-14.63.75-42.92,3-56.57-15.77-13.66-18.78-25.36-30.79-21.95-61.59,3.41-30.79,4.88-45.06,12.68-68.35,7.8-23.28-3.87-55.96,12.68-71.35,11.32-10.52,15.94-24.47,28.32-27.52C114.45-.49,112.16-.85,134.69.68Z"/>
        <path d="M188.03,111.71c-7.03-15.46-12.18-34.24-14.51-52.89-2.57-20.56-13.28-39.33-20.03-44.98-7.62-6.37-18.07-10.44-28.66-11.16-20.16-1.36-20.68-1.23-47.88,5.57-3.53.88-7.51,1.88-12.05,3-8.34,2.06-13.36,8.73-18.67,15.8-3.07,4.08-6.25,8.31-10.31,12.09-10.27,9.55-10.19,24.85-10.1,41.04.06,10.65.12,21.65-2.98,30.93-7.68,22.92-9.3,37.53-12.53,66.64l-.22,2.02c-.19,1.73-.33,3.4-.44,5.02C.99,193.14.51,199.99.24,203.91c-.04.58-.07,1.08-.13,1.52-.38,3.04.17,8.02,2.87,12.89,3.51,6.34,9.6,10.81,18.09,13.28,1.38.4,2.72.74,4.04,1.04,1.09,1.5,2.21,3,3.36,4.54,1.25,1.69,2.54,3.42,3.84,5.21,11.17,15.37,31.79,17.14,47.06,16.85,1.14,8.52,1.83,15.85,1.35,16.84-.88,1.46-5.82,1.87-9.08,1.16-1.2-.26-2.94-.87-4.95-1.58-4.29-1.5-9.63-3.38-13.95-3.38-2.32,0-4.3,1.14-5.56,3.2-1.94,3.16-1.94,8.06.02,11.91.41.81,1.2,1.32,2.06,1.32h38.99c1.09,0,1.97-.94,1.97-2.09v-27.85c10.6-.54,18.45.13,29.5,1.7v26.15c0,1.15.88,2.09,1.97,2.09h38.99c.86,0,1.65-.5,2.06-1.32,1.95-3.85,1.96-8.75.02-11.91-1.27-2.06-3.24-3.2-5.56-3.2-4.32,0-9.66,1.87-13.95,3.38-2.01.71-3.75,1.32-4.95,1.58-3.27.71-8.2.3-9.08-1.15-.43-.89.07-6.77.98-14.04.56.09,1.1.17,1.68.26l1.41.22c2.43.37,4.75.55,6.96.55,18.19,0,29.25-11.67,34.49-19.2,1.64-2.36,3.29-4.93,4.93-7.66,2.96-.6,5.31-1.64,7.11-3.16,4.5-3.79,5.23-10.31,4.38-19.07,2.33-5.2,4.57-10.65,6.68-16.26,7.51-20.04-3.11-71.32-9.79-86.02ZM185.72,232.2c-1.36,1.14-3.08,1.99-5.2,2.56-1.17.31-2.47.53-3.89.67-2.99.29-6.55.2-10.77-.26-21.01-2.29-23.76-10.97-22.92-21.92,6.81-2.75,18.75-.78,18.88-.76l.29-1.19c-.5-.08-11.74-1.94-19.05.57.21-2.12.53-4.31.86-6.55.05-.32.09-.65.14-.97,6.8-2.11,17.68-.75,17.79-.74l.22-1.2c-.45-.06-10.68-1.33-17.82.6.13-.9.25-1.8.36-2.71.69-5.75,6.36-10.04,13.36-12.3.46-.15.93-.29,1.4-.42,3.02-.84,6.24-1.31,9.37-1.37.22,0,.44,0,.66,0,1.12,0,2.26.06,3.39.18,1.21.13,2.4.32,3.56.6,5.23,1.25,9.67,4.1,10.59,9.32l.1.56c.9,5.07,1.71,9.71,2.27,13.89.28,2.1.49,4.1.61,5.96.44,7.09-.49,12.39-4.18,15.5ZM157.7,179.92c-.07-.29-.17-.61-.27-.94-.55-1.82-1.23-4.09.26-5.75,1.33-1.48,4.29-2.3,8.78-2.45,3.6-.12,6.1.51,7.63,1.93,2.81,2.6,1.94,7.52,1.16,11.85-.05.31-.1.6-.16.9-2.11-.37-4.29-.51-6.41-.47-3.2.06-6.48.54-9.57,1.39-.35-1.77-.92-4.49-1.42-6.45ZM195.01,196.67c-1.47,3.93-3.01,7.77-4.6,11.5-.53-3.55-1.2-7.39-1.93-11.49l-.1-.56c-1.04-5.88-6.02-9.04-11.84-10.36.06-.34.11-.66.17-1.01.82-4.6,1.75-9.82-1.52-12.85-1.84-1.7-4.71-2.47-8.78-2.33-5.03.17-8.26,1.13-9.9,2.94-1.91,2.12-1.1,4.81-.51,6.77.1.32.19.62.26.9.52,2.02,1.11,4.86,1.45,6.61-7.6,2.4-13.82,7.08-14.58,13.4-.2,1.67-.44,3.34-.69,5-2.11,14.52-4.11,28.23,23.21,31.2,2.65.29,5.07.44,7.26.44,1.02,0,1.98-.04,2.91-.11-1.19,1.91-2.38,3.74-3.58,5.45-5.48,7.87-17.76,20.59-38.53,17.4l-1.41-.22c-.6-.09-1.17-.18-1.75-.27-.5-.08-1-.15-1.49-.23-.13.98-.26,1.97-.39,2.98-.86,6.81-1.52,13.81-.77,15.04,1.55,2.57,7.83,2.47,10.68,1.85,1.29-.28,3.07-.9,5.13-1.63,4.18-1.47,9.39-3.29,13.45-3.29,2.28,0,3.59,1.35,4.29,2.49,1.68,2.74,1.65,7.04-.08,10.45-.15.3-.43.49-.72.49h-38.99c-.25,0-.47-.27-.47-.59v-28.96c-.5-.07-1.01-.15-1.5-.22-8.42-1.19-15.04-1.85-22.49-1.85-2.24,0-4.55.06-7.01.18-.06,0-.13,0-.19,0l-1.31.07v30.77c0,.32-.21.59-.47.59h-38.99c-.29,0-.57-.19-.72-.49-1.73-3.41-1.76-7.71-.08-10.45.7-1.13,2.01-2.48,4.29-2.48,4.06,0,9.27,1.83,13.45,3.29,2.06.72,3.84,1.35,5.13,1.63,2.86.62,9.13.72,10.68-1.85.84-1.39-.1-10.14-1.11-17.65-.14-1.02-.28-2.02-.41-2.98-.5.01-1.01.03-1.51.04-14.95.29-33.89-1.42-44.22-15.63-1.31-1.8-2.6-3.54-3.86-5.23-.48-.65-.96-1.3-1.44-1.94,2.93.44,5.73.65,8.41.65,11.07,0,20-3.41,27.81-6.88,6.11-2.72,8.17-6.85,8.55-11.08h.08c-.02-.12-.04-.23-.06-.34.23-3.27-.52-6.58-1.12-9.29-.09-.39-.17-.77-.25-1.14-1.44-6.63-8.69-10.44-19.89-10.44-9.28,0-29.14,3.7-29.34,3.74l.23,1.22c.2-.04,19.95-3.72,29.11-3.72,4.99,0,16.81.92,18.67,9.46.08.37.17.76.26,1.15.43,1.89.9,4,1.07,6.14-4.35-5.91-17.23-5.28-17.86-5.24l.07,1.24c.16,0,16.05-.79,17.8,6.97-.22,2.58-1.11,5.1-3.29,7.23-2.54-8.17-18.23-7.4-18.93-7.36l.07,1.24c.16,0,16.12-.8,17.81,7.03-.96.75-2.11,1.44-3.49,2.05-9.79,4.35-21.36,8.6-36.76,5.94-1.43-.25-2.89-.56-4.39-.93-.85-.21-1.71-.43-2.58-.69C-.69,223.99,1.32,205.77,1.34,205.59c.06-.47.1-1.02.14-1.59.25-3.6.68-9.77,8.08-17.37.94-.97,2-1.96,3.18-2.97.04-.58.09-1.16.15-1.74.06-.6.11-1.21.18-1.82l.22-2.02c3.3-29.8,4.81-43.4,12.39-66.02,3.27-9.75,3.2-21.01,3.14-31.9-.09-15.52-.17-30.17,9.14-38.83,4.26-3.96,7.52-8.29,10.67-12.48,5.2-6.91,9.68-12.88,16.99-14.69,4.54-1.12,8.53-2.12,12.06-3,26.75-6.69,27.26-6.82,46.94-5.48,9.97.67,19.79,4.49,26.94,10.47,6.21,5.19,16.54,23.51,18.98,43.05,2.37,18.94,7.6,38.03,14.75,53.76,6.53,14.37,16.98,64.34,9.71,83.72Z"/>
      </g>
      <path d="M108.24,171.81h0c.86,0,1.58.66,1.63,1.52.48,7.25,4.3,13.11,8.77,13.11s8.3-5.86,8.77-13.11c.06-.86.77-1.52,1.63-1.52h0c.96,0,1.7.79,1.64,1.75-.58,9.19-5.66,16.16-12.05,16.16s-11.47-6.97-12.05-16.16c-.06-.96.68-1.75,1.64-1.75Z"/>
      <path d="M147.28,134.7h0c-.52,0-.96-.4-.99-.92-.29-4.42-2.62-8-5.35-8s-5.06,3.58-5.35,8c-.03.52-.47.92-.99.92h0c-.58,0-1.04-.5-1-1.08.36-5.6,3.45-9.84,7.34-9.84s6.99,4.24,7.34,9.84c.04.58-.42,1.08-1,1.08Z"/>
      <path d="M120.28,134.7h0c-.52,0-.96-.4-.99-.92-.29-4.42-2.62-8-5.35-8s-5.06,3.58-5.35,8c-.03.52-.47.92-.99.92h0c-.58,0-1.04-.5-1-1.08.36-5.6,3.45-9.84,7.34-9.84s6.99,4.24,7.34,9.84c.04.58-.42,1.08-1,1.08Z"/>
    </g>
  </g>
</svg>