<?xml version="1.0" encoding="UTF-8"?>
<svg id="Layer_2" data-name="Layer 2" xmlns="http://www.w3.org/2000/svg" viewBox="0 0 239.48 288.72">
  <defs>
    <style>
      .cls-1 {
        fill: #ffba0a;
      }
    </style>
  </defs>
  <g id="Layer_1-2" data-name="Layer 1">
    <g>
      <g>
        <path class="cls-1" d="M146.97.68c11.02.75,20.97,5.1,27.8,10.81,6.83,5.71,17.07,24.49,19.51,44.01,2.44,19.53,7.8,38.3,14.63,53.32,6.83,15.02,17.07,65.34,9.75,84.87-7.32,19.53-15.61,35.3-22.92,45.81-7.32,10.51-20.48,21.03-39.99,18.03-19.51-3-28.77-4.51-43.41-3.76-14.63.75-42.92,3-56.57-15.77-13.66-18.78-25.36-30.79-21.95-61.59,3.41-30.79,4.88-45.06,12.68-68.35,7.8-23.28-3.87-55.96,12.68-71.35,11.32-10.52,15.94-24.47,28.32-27.52C126.74-.49,124.44-.85,146.97.68Z"/>
        <path d="M239.33,161.83c-.6-5.53-3.02-9.93-5.08-12.19-.3-.33-.62-.72-.98-1.17-2.91-3.57-8.35-10.24-25.46-10.83-2.36-11.18-5.17-20.78-7.5-25.92-7.03-15.46-12.18-34.24-14.51-52.89-2.57-20.56-13.28-39.33-20.03-44.98-7.62-6.37-18.07-10.44-28.66-11.16-20.16-1.36-20.68-1.23-47.88,5.57-3.53.88-7.51,1.88-12.05,3-8.34,2.06-13.36,8.73-18.67,15.8-3.07,4.08-6.25,8.31-10.31,12.09-10.27,9.55-10.19,24.85-10.1,41.04.06,10.65.12,21.65-2.98,30.93-3.3,9.85-5.48,18.17-7.15,26.76-14.22,1.35-19.07,7.3-21.76,10.6-.37.45-.68.84-.98,1.17-2.06,2.27-4.48,6.66-5.08,12.19-.78,7.21,1.62,14.37,7.15,21.27,3.98,4.97,8.1,8.76,12.27,11.7.82.57,1.63,1.11,2.45,1.62,1.49,17.55,9.35,28.12,18.74,40.77,1.25,1.69,2.54,3.42,3.84,5.21,11.17,15.37,31.79,17.14,47.06,16.85,1.14,8.52,1.83,15.85,1.35,16.84-.88,1.46-5.82,1.87-9.08,1.16-1.2-.26-2.94-.87-4.95-1.58-4.29-1.5-9.63-3.38-13.95-3.38-2.32,0-4.3,1.14-5.56,3.2-1.94,3.16-1.94,8.06.02,11.91.41.81,1.2,1.32,2.06,1.32h38.99c1.09,0,1.97-.94,1.97-2.09v-27.85c10.6-.54,18.45.13,29.5,1.7v26.15c0,1.15.88,2.09,1.97,2.09h38.99c.86,0,1.65-.5,2.06-1.32,1.95-3.85,1.96-8.75.02-11.91-1.27-2.06-3.24-3.2-5.56-3.2-4.32,0-9.66,1.87-13.95,3.38-2.01.71-3.75,1.32-4.95,1.58-3.27.71-8.2.3-9.08-1.15-.43-.89.07-6.77.98-14.04.56.09,1.1.17,1.68.26l1.41.22c2.43.37,4.75.55,6.96.55,18.19,0,29.25-11.67,34.49-19.2,7.66-11.01,15.39-26.23,21.94-43.11,3.64-1.48,7.32-3.39,10.97-5.96,4.17-2.94,8.3-6.73,12.27-11.7,5.52-6.91,7.93-14.06,7.15-21.27ZM231.21,182.33c-6.93,8.67-14.35,13.68-21.66,16.83-1.27.55-2.53,1.03-3.78,1.48-4.39,1.55-8.7,2.53-12.8,3.34-1.48.29-2.81.39-4.03.34-3.12-7.37,10.38-15.92,10.52-16l-.66-1.05c-.59.37-13.86,8.77-11.24,16.92-3.01-.48-5.19-2.02-6.86-4.01-3.04-7.36,10.4-15.86,10.54-15.95l-.66-1.05c-.54.33-11.43,7.23-11.58,14.57-1.09-1.85-1.91-3.84-2.66-5.63-.16-.37-.31-.74-.45-1.09-3.4-8.05,5.73-15.61,9.81-18.49,5.62-3.96,17.3-9.65,22.87-12.29,1.34-.64,2.32-1.09,2.78-1.3.18-.08.28-.13.29-.14l-.43-.95-.08-.18s-1.07.49-2.71,1.27c-5.43,2.56-17.6,8.47-23.43,12.57-9.15,6.45-12.89,13.73-10.24,19.99.15.35.3.71.45,1.08,1.06,2.56,2.36,5.69,4.43,8.24.04.1.09.2.14.3l.08-.04c2.74,3.23,6.81,5.43,13.37,4.13,3.83-.76,7.85-1.67,11.95-3.04-6.24,15.67-13.47,29.72-20.63,40-5.48,7.87-17.76,20.59-38.53,17.4l-1.41-.22c-.6-.09-1.17-.18-1.75-.27-.5-.08-1-.15-1.49-.23-.13.98-.26,1.97-.39,2.98-.86,6.81-1.52,13.81-.77,15.04,1.55,2.57,7.83,2.47,10.68,1.85,1.29-.28,3.07-.9,5.13-1.63,4.18-1.47,9.39-3.29,13.45-3.29,2.28,0,3.59,1.35,4.29,2.49,1.68,2.74,1.65,7.04-.08,10.45-.15.3-.43.49-.72.49h-38.99c-.25,0-.47-.27-.47-.59v-28.96c-.5-.07-1.01-.15-1.5-.22-8.42-1.19-15.04-1.85-22.49-1.85-2.24,0-4.55.06-7.01.18-.06,0-.13,0-.19,0l-1.31.07v30.77c0,.32-.21.59-.47.59h-38.99c-.29,0-.57-.19-.72-.49-1.73-3.41-1.76-7.71-.08-10.45.7-1.13,2.01-2.48,4.29-2.48,4.06,0,9.27,1.83,13.45,3.29,2.06.72,3.84,1.35,5.13,1.63,2.86.62,9.13.72,10.68-1.85.84-1.39-.1-10.14-1.11-17.65-.14-1.02-.28-2.02-.41-2.98-.5.01-1.01.03-1.51.04-14.95.29-33.89-1.42-44.22-15.63-1.31-1.8-2.6-3.54-3.86-5.23-8.68-11.68-16-21.54-17.9-37.1,7.19,3.83,14.37,5.58,21,6.9,6.56,1.3,10.62-.9,13.37-4.13l.08.04c.05-.1.1-.2.14-.3,2.07-2.55,3.37-5.68,4.43-8.24.15-.37.3-.73.45-1.08,2.64-6.25-1.09-13.54-10.24-19.99-7.58-5.34-25.96-13.75-26.14-13.84l-.52,1.13c.18.08,18.45,8.45,25.94,13.72,4.08,2.88,13.21,10.44,9.81,18.49-.15.35-.3.72-.45,1.09-.74,1.79-1.57,3.79-2.66,5.63-.15-7.34-11.04-14.24-11.58-14.57l-.66,1.05c.14.09,13.58,8.59,10.54,15.95-1.67,1.99-3.84,3.53-6.86,4.01,2.63-8.14-10.65-16.55-11.24-16.92l-.66,1.05c.14.09,13.64,8.63,10.52,16-1.22.06-2.55-.04-4.03-.34-6.75-1.34-14.09-3.13-21.41-7.18-1.06-.59-2.13-1.23-3.19-1.92-4.64-3.01-9.24-7.04-13.64-12.55-14.38-17.98-2.24-31.72-2.12-31.86.32-.35.67-.78,1.03-1.22,2.55-3.13,7.12-8.73,20.55-10.11.98-.1,2-.18,3.08-.23.08-.42.16-.84.25-1.25,1.62-8.19,3.73-16.1,6.92-25.6,3.27-9.75,3.2-21.01,3.14-31.9-.09-15.52-.17-30.17,9.14-38.83,4.26-3.96,7.52-8.29,10.67-12.48,5.2-6.91,9.68-12.88,16.99-14.69,4.54-1.12,8.53-2.12,12.06-3,26.75-6.69,27.26-6.82,46.94-5.48,9.97.67,19.79,4.49,26.94,10.47,6.21,5.19,16.54,23.51,18.98,43.05,2.37,18.94,7.6,38.03,14.75,53.76,2.24,4.92,4.93,14.02,7.22,24.64.09.41.17.83.26,1.24,1.05,0,2.05.02,3.01.06,16.3.64,21.47,6.96,24.23,10.36.36.45.71.87,1.03,1.22.12.14,12.26,13.87-2.12,31.86Z"/>
      </g>
      <path d="M123.55,190.56c-.15,0-.31,0-.46,0-7-.1-9.24-2.52-9.9-4.54-.34-1.05.24-2.18,1.29-2.52,1.05-.34,2.18.24,2.52,1.29.19.58,1.72,1.7,6.15,1.77,4.33.06,9.77-.9,15.35-2.7,5.58-1.81,10.55-4.22,14.02-6.81,3.55-2.65,4.13-4.46,3.94-5.04-.34-1.05.24-2.18,1.29-2.52,1.05-.34,2.18.24,2.52,1.29.65,2.01.25,5.29-5.36,9.48-3.81,2.84-9.2,5.47-15.18,7.41-5.79,1.88-11.51,2.9-16.18,2.9Z"/>
      <path d="M138.17,122.93l-10.93.73c-.09,0-.18.03-.27.05-3.33.33-5.97,4.62-5.97,9.89s2.86,9.92,6.38,9.92,6.38-4.44,6.38-9.92c0-2.38-.54-4.56-1.43-6.26l6.12-.41c1.1-.07,1.94-1.03,1.86-2.13-.07-1.1-1.02-1.94-2.13-1.86Z"/>
      <path d="M162.52,122.93l-10.93.73c-.09,0-.18.03-.27.05-3.33.33-5.97,4.62-5.97,9.89s2.86,9.92,6.38,9.92,6.38-4.44,6.38-9.92c0-2.38-.54-4.56-1.43-6.26l6.12-.41c1.1-.07,1.94-1.03,1.86-2.13-.07-1.1-1.02-1.94-2.13-1.86Z"/>
    </g>
  </g>
</svg>