<?xml version="1.0" encoding="UTF-8"?>
<svg id="Layer_2" data-name="Layer 2" xmlns="http://www.w3.org/2000/svg" viewBox="0 0 199.43 288.72">
  <defs>
    <style>
      .cls-1 {
        fill: #ffba0a;
      }
    </style>
  </defs>
  <g id="Layer_1-2" data-name="Layer 1">
    <g>
      <g>
        <path class="cls-1" d="M125.22.68c11.02.75,20.97,5.1,27.8,10.81,6.83,5.71,17.07,24.49,19.51,44.01,2.44,19.53,7.8,38.3,14.63,53.32,6.83,15.02,17.07,65.34,9.75,84.87-7.32,19.53-15.61,35.3-22.92,45.81-7.32,10.51-20.48,21.03-39.99,18.03-19.51-3-28.77-4.51-43.41-3.76-14.63.75-42.92,3-56.57-15.77-13.66-18.78-25.36-30.79-21.95-61.59,3.41-30.79,4.88-45.06,12.68-68.35,7.8-23.28-3.87-55.96,12.68-71.35,11.32-10.52,15.94-24.47,28.32-27.52C104.98-.49,102.68-.85,125.22.68Z"/>
        <path d="M178.55,111.71c-7.03-15.46-12.18-34.24-14.51-52.89-2.57-20.56-13.28-39.33-20.03-44.98-7.62-6.37-18.07-10.44-28.66-11.16-20.16-1.36-20.68-1.23-47.88,5.57-3.53.88-7.51,1.88-12.05,3-8.34,2.06-13.36,8.73-18.67,15.8-3.07,4.08-6.25,8.31-10.31,12.09-10.27,9.55-10.19,24.85-10.1,41.04.06,10.65.12,21.65-2.98,30.93-7.68,22.92-9.3,37.53-12.53,66.64l-.22,2.02c-3.15,28.44,6.35,41.23,18.38,57.43,1.25,1.69,2.54,3.42,3.84,5.21,2.88,3.96,6.38,7.01,10.26,9.36v.05s.05,0,.07,0c11.17,6.74,25.42,7.67,36.73,7.45,1.14,8.52,1.83,15.85,1.35,16.84-.88,1.46-5.82,1.87-9.08,1.16-1.2-.26-2.94-.87-4.95-1.58-4.29-1.5-9.63-3.38-13.95-3.38-2.32,0-4.3,1.14-5.56,3.2-1.94,3.16-1.94,8.06.02,11.91.41.81,1.2,1.32,2.06,1.32h38.99c1.09,0,1.97-.94,1.97-2.09v-27.85c10.6-.54,18.45.13,29.5,1.7v26.15c0,1.15.88,2.09,1.97,2.09h38.99c.86,0,1.65-.5,2.06-1.32,1.95-3.85,1.96-8.75.02-11.91-1.27-2.06-3.24-3.2-5.56-3.2-4.32,0-9.66,1.87-13.95,3.38-2.01.71-3.75,1.32-4.95,1.58-3.27.71-8.2.3-9.08-1.15-.43-.89.07-6.77.98-14.04.56.09,1.1.17,1.68.26l1.41.22c2.43.37,4.75.55,6.96.55,10.54,0,18.69-3.92,24.7-8.68.63-.5,1.24-1.01,1.82-1.52,3.45-3.04,6.1-6.29,7.98-9,8.12-11.67,16.32-28.05,23.09-46.14,7.51-20.04-3.11-71.32-9.79-86.02ZM124.26,259.56l-1.41-.22c-.6-.09-1.17-.18-1.75-.27-.5-.08-1-.15-1.49-.23-.13.98-.26,1.97-.39,2.98-.86,6.81-1.52,13.81-.77,15.04,1.55,2.57,7.83,2.47,10.68,1.85,1.29-.28,3.07-.9,5.13-1.63,4.18-1.47,9.39-3.29,13.45-3.29,2.28,0,3.59,1.35,4.29,2.49,1.68,2.74,1.65,7.04-.08,10.45-.15.3-.43.49-.72.49h-38.99c-.25,0-.47-.27-.47-.59v-28.96c-.5-.07-1.01-.15-1.5-.22-8.42-1.19-15.04-1.85-22.49-1.85-2.24,0-4.55.06-7.01.18-.06,0-.13,0-.19,0l-1.31.07v30.77c0,.32-.21.59-.47.59h-38.99c-.29,0-.57-.19-.72-.49-1.73-3.41-1.76-7.71-.08-10.45.7-1.13,2.01-2.48,4.29-2.48,4.06,0,9.27,1.83,13.45,3.29,2.06.72,3.84,1.35,5.13,1.63,2.86.62,9.13.72,10.68-1.85.84-1.39-.1-10.14-1.11-17.65-.14-1.02-.28-2.02-.41-2.98-.5.01-1.01.03-1.51.04-10.02.2-21.84-.52-31.66-5.29,6.62-1.77,14.2-6.03,22.71-10.83,7.29-4.11,15.34-8.63,23.99-12.21.61.55,1.22,1.09,1.83,1.64,12.73,11.42,25.89,23.24,39.54,23.59,5.85.15,11.11.44,15.75.7,3.13.17,6.04.33,8.79.42-6.5,4.18-15.14,6.98-26.18,5.28ZM185.54,196.67c-6.69,17.86-14.77,34.02-22.75,45.48-2.24,3.23-5.63,7.26-10.28,10.69-3.31-.08-6.88-.28-10.78-.49-4.65-.26-9.92-.55-15.79-.7-13.1-.33-26.05-11.96-38.58-23.2-.43-.38-.86-.77-1.29-1.15,11.55-4.59,24.16-7.4,37.51-5.25,20.29,3.28,25.25-4.12,26.41-8.82,2.15-8.77-5.6-21.02-15.36-24.27-7.35-2.45-21.23-1.64-38.71,1.76-21.17-10.9-38.5-18.72-52.69-12.7-7.48,3.17-12.03,9.34-11.31,15.34.61,5.14,5.01,9.22,12.32,11.66-8.26,2.85-16.67,5.99-25.07,9.41l.56,1.39c9.01-3.66,18.09-7.03,27.01-10.05.91-.31,1.81-.6,2.71-.91,37.72-12.52,72.02-18.7,84.7-14.47,8.94,2.98,16.33,14.54,14.38,22.49-1.78,7.25-10.55,9.98-24.71,7.7-13.96-2.25-27.06.77-39,5.61-.52.21-1.03.42-1.54.64-8.46,3.57-16.32,8-23.47,12.02-9.16,5.16-17.23,9.7-24.01,11.08-4.01-2.26-7.61-5.27-10.53-9.29-1.31-1.8-2.6-3.54-3.86-5.23-11.64-15.67-20.83-28.04-17.81-55.31l.22-2.02c3.3-29.8,4.81-43.4,12.39-66.02,3.27-9.75,3.2-21.01,3.14-31.9-.09-15.52-.17-30.17,9.14-38.83,4.26-3.96,7.52-8.29,10.67-12.48,5.2-6.91,9.68-12.88,16.99-14.69,4.54-1.12,8.53-2.12,12.06-3,26.75-6.69,27.26-6.82,46.94-5.48,9.97.67,19.79,4.49,26.94,10.47,6.21,5.19,16.54,23.51,18.98,43.05,2.37,18.94,7.6,38.03,14.75,53.76,6.53,14.37,16.98,64.34,9.71,83.72ZM33.48,190.73c.3-1.95,1.22-3.89,2.64-5.66,1.79-.24,11.41-1.27,18.52,2.95l.77-1.29c-6.27-3.72-14.07-3.63-17.75-3.33,1.67-1.59,3.76-2.97,6.16-3.99,13.22-5.61,29.69,1.53,49.74,11.79-13.97,2.85-30.07,7.28-46.9,12.99-7.89-2.16-12.65-6.04-13.24-11.01-.04-.32-.06-.63-.06-.95,7.66.23,16.2,3.84,16.29,3.88l.59-1.38c-.37-.16-8.84-3.74-16.76-4Z"/>
      </g>
      <path d="M99.29,169.59h0c.85,0,1.58.65,1.63,1.51.47,7.25,4.3,13.12,8.77,13.12s8.3-5.87,8.77-13.12c.06-.85.78-1.51,1.63-1.51h0c.96,0,1.7.82,1.64,1.78-.58,9.18-5.67,16.14-12.05,16.14s-11.46-6.96-12.05-16.14c-.06-.96.68-1.78,1.64-1.78Z"/>
      <ellipse cx="105.02" cy="132.48" rx="7.09" ry="11.02"/>
      <path d="M143.45,128.46c-1.74-1.62-6.37-5.07-12.35-2.61-5.69,2.33-7.26,6.7-7.69,8.83-.12.57.21,1.11.67,1.23.03,0,.06.02.09.03.02,0,.04.02.06.02.03,0,.06-.01.1-.02.06,0,.12-.01.18-.03.01,0,.03-.01.04-.02.14-.05.27-.13.37-.26.71-.87,2.44-2.4,6.03-2.7,3.71-.31,5.79,1.73,6.64,2.83.28.37.74.45,1.09.19h.02c.46-.35.55-1.1.18-1.58-1.09-1.43-3.64-3.89-8.05-3.53-1.88.16-3.33.64-4.46,1.22.95-1.51,2.57-3.13,5.31-4.26,5.21-2.14,9.25.91,10.71,2.28.35.33.85.29,1.16-.09h0c.37-.45.32-1.17-.09-1.56Z"/>
    </g>
  </g>
</svg>