<svg width="108" height="101" viewBox="0 0 108 101" fill="none" xmlns="http://www.w3.org/2000/svg">
<g clip-path="url(#clip0_2619_4751)">
<path d="M17.53 22.2209C25.2313 15.1089 38.0718 3.39569 44.9191 1.96317C51.7664 0.535719 84.0067 13.3929 90.854 20.2518C97.7012 27.1107 97.9842 30.5376 99.9853 36.541C101.981 42.5444 102.552 46.5433 103.694 50.5422C104.837 54.5411 95.1341 67.4034 93.4261 70.8353C91.713 74.2622 91.713 76.2667 89.434 78.2662C87.1499 80.2656 67.7501 81.9816 62.0449 83.6976C56.3396 85.4136 56.9107 84.8416 53.4845 84.8416C50.0583 84.8416 46.6372 82.2702 42.9281 82.2702C39.2189 82.2702 29.3447 85.5199 24.7209 83.0041C20.6479 80.782 21.2442 73.9838 17.535 70.8404C13.8259 67.697 13.2549 67.125 11.5418 61.4101C9.82869 55.6952 12.1128 33.9746 13.8259 29.6872C15.539 25.3998 17.535 22.2259 17.535 22.2259L17.53 22.2209Z" fill="#FFBA0A"/>
<path d="M55.1877 41.1328C55.6173 41.1328 55.9862 41.4618 56.0114 41.8972C56.2489 45.567 58.1844 48.5384 60.4432 48.5384C62.7021 48.5384 64.6375 45.567 64.875 41.8972C64.9053 41.4669 65.2692 41.1328 65.6987 41.1328C66.1838 41.1328 66.5578 41.5479 66.5274 42.0338C66.2343 46.6806 63.6622 50.2037 60.4382 50.2037C57.2141 50.2037 54.647 46.6806 54.3489 42.0338C54.3186 41.5479 54.6925 41.1328 55.1776 41.1328H55.1877Z" fill="black"/>
<path d="M81.7226 52.77C81.662 52.9725 81.0101 52.9877 80.9393 52.7852C80.813 52.4208 80.9798 51.5704 80.8938 51.1401C80.7069 51.1401 80.5199 51.1502 80.3279 51.1502L80.3178 52.927L79.6406 52.9371L79.6052 51.1604C79.4183 51.1604 79.2313 51.1705 79.0393 51.1705C78.9736 51.6007 79.1757 52.4461 79.0595 52.8156C78.9988 53.0181 78.347 53.0333 78.2762 52.8308C78.1499 52.4663 78.3166 51.6159 78.2307 51.1857C78.0438 51.1857 77.8568 51.1958 77.6648 51.1958L77.6547 52.9725L76.9775 52.9826L76.9421 51.2059C76.7552 51.2059 76.5682 51.211 76.3762 51.216C76.3105 51.6463 76.5126 52.4916 76.3964 52.8612C76.3357 53.0636 75.6839 53.0788 75.6131 52.8763C75.4868 52.5119 75.6535 51.6615 75.5676 51.2312C75.4059 51.2312 75.2442 51.2363 75.0825 51.2413C75.0421 51.54 75.2139 52.8611 75.0421 52.9826C74.9056 53.0839 74.5014 53.0029 74.3144 53.0333L74.279 51.2565C74.0921 51.2616 73.9051 51.2565 73.713 51.2667L73.7029 53.0434L73.0258 53.0535L72.9904 51.2768C72.8034 51.2869 72.6114 51.2667 72.4244 51.2869C72.3689 51.6109 72.5508 52.7953 72.4244 52.9877C72.3183 53.1446 71.7069 53.0434 71.4946 53.0839C71.4946 53.2965 71.5047 53.5141 71.5098 53.7318C74.466 53.423 77.4727 53.3572 80.4491 53.3117C81.3638 53.2712 82.2835 53.2459 83.1931 53.418C83.1931 53.2307 83.183 53.0434 83.183 52.851C82.9708 52.8207 82.3593 52.9472 82.2481 52.7953C82.2128 52.7447 82.1976 52.6334 82.1875 52.4815H81.8186L81.7984 51.5147C81.7984 51.3628 81.7933 51.2262 81.7832 51.0996C81.7529 51.0996 81.7226 51.0996 81.6923 51.0996C81.6266 51.5299 81.8287 52.3752 81.7125 52.7447L81.7226 52.77Z" fill="#1D292E"/>
<path d="M30.537 53.1409C29.88 53.2927 29.4 53.8191 29.4555 54.5177C29.6324 54.4721 29.8143 54.4316 29.9912 54.4013C30.1731 54.3709 30.35 54.3456 30.5319 54.3405C32.5229 54.3102 34.519 54.295 36.505 54.295C36.8739 54.295 37.2326 54.3658 37.5914 54.4316C37.6015 54.0419 37.4853 53.728 37.2832 53.4851C37.2326 53.4851 37.1821 53.4851 37.1316 53.4851C36.9092 53.4851 36.6919 53.4851 36.4746 53.4952H36.2119L36.2169 53.237C36.2169 53.151 36.2169 53.075 36.2018 52.9991C34.4028 52.8827 32.3562 53.1915 30.5319 53.1358L30.537 53.1409Z" fill="#1D292E"/>
<path d="M22.9419 53.2668C22.2849 53.3376 21.8099 53.7325 21.7998 54.4209L21.9615 54.5778L27.7274 54.4614C27.7577 54.345 27.8234 54.2589 27.9194 54.2134C27.9042 54.0109 27.8335 53.8286 27.7223 53.6717C26.843 53.7173 26.7925 53.7021 26.6965 53.6009C26.6106 53.5097 26.6156 53.4034 26.6207 53.3073C26.6207 53.2921 26.6207 53.2617 26.6207 53.2364L26.5499 53.2111V53.1605C25.5393 53.1048 23.6695 53.1757 22.9368 53.2567L22.9419 53.2668Z" fill="#1D292E"/>
<path d="M72.3083 52.9113L72.2628 51.4079L72.4346 51.3066C71.3734 51.4231 71.4846 52.2785 71.5048 53.1036L71.5907 52.9366L72.3133 52.9163L72.3083 52.9113Z" fill="#44525A"/>
<path d="M72.4344 53.0133C72.5658 52.8209 72.3788 51.6365 72.4344 51.3125L72.2626 51.4137L72.308 52.9171L71.5854 52.9374L71.4995 53.1044C71.7118 53.069 72.3232 53.1702 72.4293 53.0082L72.4344 53.0133Z" fill="#44525A"/>
<path d="M83.0921 52.7051L83.183 52.8722C83.183 52.7406 83.1831 52.614 83.178 52.4824C82.9405 52.4824 82.7232 52.4925 82.5312 52.4925H82.3745V52.7153L83.0921 52.7051Z" fill="#445259"/>
<path d="M82.359 51.2477V51.9969H82.5207C82.7077 51.9969 82.9199 51.9868 83.1372 51.9868C83.0664 51.5565 82.8542 51.2275 82.2983 51.1465C82.2983 51.1515 82.2983 51.1566 82.2983 51.1667C82.3337 51.187 82.3539 51.2174 82.359 51.2578V51.2477Z" fill="#445259"/>
<path d="M82.3189 51.9907H82.3694L82.3644 51.2415C82.3644 51.201 82.3391 51.1757 82.3037 51.1504C82.3088 51.2769 82.3138 51.4085 82.3138 51.525L82.3239 51.9907H82.3189Z" fill="#445259"/>
<path d="M82.2529 52.815C82.364 52.9668 82.9755 52.8454 83.1877 52.8707L83.0968 52.7036L82.3792 52.7138V52.4961H82.1973C82.2023 52.6429 82.2225 52.7593 82.2579 52.8099L82.2529 52.815Z" fill="#445259"/>
<path d="M74.4811 52.8776C74.8955 52.9839 75.0572 52.8422 74.9662 52.4474L74.9258 51.3439L75.0925 51.2578C74.8247 51.2629 74.5569 51.2679 74.2891 51.273L74.4508 51.3388L74.4811 52.8776Z" fill="#435259"/>
<path d="M75.0521 52.9991C75.2239 52.8776 75.0521 51.5565 75.0925 51.2578L74.9258 51.3439L74.9662 52.4474C75.0572 52.8422 74.8904 52.989 74.4811 52.8776L74.4508 51.3388L74.2891 51.273L74.3244 53.0497C74.5114 53.0194 74.9207 53.1003 75.0521 52.9991Z" fill="#435259"/>
<path d="M81.0505 52.3955C80.9141 52.9372 81.7529 52.9169 81.5963 52.3854L81.5306 51.1959L81.7024 51.125C81.4346 51.125 81.1668 51.1402 80.8989 51.1402L81.0707 51.2009L81.0556 52.3905L81.0505 52.3955Z" fill="#435259"/>
<path d="M80.9392 52.7853C81.01 52.9878 81.6619 52.9726 81.7225 52.7701C81.8337 52.4006 81.6315 51.5553 81.7023 51.125L81.5305 51.1959L81.5962 52.3854C81.7528 52.9169 80.919 52.9372 81.0504 52.3955L81.0656 51.206L80.8937 51.1452C80.9797 51.5755 80.8078 52.4259 80.9392 52.7904V52.7853Z" fill="#435259"/>
<path d="M78.3923 52.4463C78.2559 52.9879 79.0947 52.9677 78.9381 52.4362L78.8724 51.2466L79.0442 51.1758C78.7764 51.1758 78.5085 51.1859 78.2407 51.191L78.4125 51.2517L78.3974 52.4413L78.3923 52.4463Z" fill="#435158"/>
<path d="M78.281 52.8361C78.3518 53.0386 79.0037 53.0234 79.0643 52.8209C79.1755 52.4514 78.9733 51.606 79.0441 51.1758L78.8723 51.2466L78.938 52.4362C79.0946 52.9677 78.2608 52.9879 78.3922 52.4463L78.4074 51.2568L78.2355 51.196C78.3214 51.6263 78.1496 52.4767 78.281 52.8411V52.8361Z" fill="#435158"/>
<path d="M75.7341 52.503C75.5977 53.0446 76.4365 53.0243 76.2799 52.4928L76.2142 51.3033L76.386 51.2324C76.1182 51.2375 75.8503 51.2425 75.5825 51.2476L75.7543 51.3084L75.7392 52.4979L75.7341 52.503Z" fill="#435259"/>
<path d="M75.6179 52.8927C75.6887 53.0952 76.3406 53.08 76.4012 52.8775C76.5124 52.508 76.3102 51.6627 76.381 51.2324L76.2092 51.3033L76.2749 52.4928C76.4315 53.0243 75.5977 53.0446 75.7291 52.503L75.7443 51.3134L75.5725 51.2527C75.6584 51.6829 75.4865 52.5333 75.6179 52.8978V52.8927Z" fill="#435259"/>
<path d="M79.797 52.7702C79.9183 52.7753 80.0396 52.7803 80.1558 52.7601L80.1659 51.2668L80.3276 51.1504C80.0851 51.1504 79.8425 51.1605 79.605 51.1656L79.7667 51.2314L79.797 52.7702Z" fill="#44535A"/>
<path d="M80.3175 52.933L80.3276 51.1562L80.1659 51.2727L80.1558 52.7659C80.0396 52.7862 79.9132 52.7811 79.797 52.7761L79.7667 51.2372L79.605 51.1714L79.6404 52.9482L80.3175 52.938V52.933Z" fill="#44535A"/>
<path d="M77.1388 52.8268C77.2601 52.8319 77.3814 52.837 77.4976 52.8167L77.5077 51.3235L77.6694 51.207C77.4268 51.207 77.1843 51.2172 76.9468 51.2222L77.1085 51.288L77.1388 52.8268Z" fill="#44535A"/>
<path d="M77.6593 52.9838L77.6694 51.207L77.5077 51.3235L77.4976 52.8167C77.3814 52.837 77.255 52.8319 77.1388 52.8268L77.1085 51.288L76.9468 51.2222L76.9821 52.9989L77.6593 52.9888V52.9838Z" fill="#44535A"/>
<path d="M73.1922 52.9011C73.3135 52.9061 73.4348 52.9112 73.551 52.8909L73.5611 51.3977L73.7228 51.2812C73.4802 51.2914 73.2377 51.2812 72.9951 51.2964L73.1568 51.3622L73.1871 52.9011H73.1922Z" fill="#44535A"/>
<path d="M73.713 53.0638L73.7231 51.2871L73.5614 51.4035L73.5513 52.8968C73.4351 52.917 73.3087 52.912 73.1925 52.9069L73.1622 51.3681L73.0005 51.3023L73.0359 53.079L73.713 53.0689V53.0638Z" fill="#44535A"/>
<path d="M27.394 58.1858L52.2514 57.6897C52.3727 57.6745 52.494 57.6695 52.6153 57.6543C44.1812 57.8062 35.7876 57.9681 27.4547 58.1453C27.2475 58.1757 27.0049 58.2364 26.7573 58.3225C26.8584 58.368 26.9595 58.4186 27.0555 58.4642C27.1717 58.4186 27.2829 58.3377 27.3991 58.1858H27.394Z" fill="#4F616F"/>
<path d="M75.7239 57.2962L57.3247 57.6657L56.4707 57.6303C60.1394 57.9694 63.606 59.3463 66.5925 61.7355C67.3253 62.3227 69.286 63.9981 69.574 64.7524C69.6043 64.8334 69.6246 64.9194 69.6448 65.0055L69.6953 64.8435C71.1406 64.808 72.5909 64.7726 74.0361 64.7372C74.5364 63.4869 75.4713 62.2619 76.8205 61.1078C76.5375 60.88 76.3202 60.5662 76.2545 60.2118C76.1282 59.5487 76.1383 57.9239 76.1737 57.2051C76.1231 57.3569 75.9715 57.3822 75.7189 57.2911L75.7239 57.2962Z" fill="#4F616F"/>
<path d="M40.8964 62.767C43.5191 60.3272 46.92 58.3885 50.5028 57.8418L49.9014 57.8975L27.4545 58.3227C27.3787 58.4037 27.2928 58.4745 27.1968 58.5353C27.4242 58.6466 27.6415 58.758 27.8386 58.8694C31.4315 60.8131 33.6246 63.1467 34.2159 65.5359L38.4455 65.4751L38.5466 65.6371C38.5516 65.5612 38.5617 65.4802 38.582 65.4093C38.7437 64.8272 40.3557 63.2732 40.8964 62.7721V62.767Z" fill="#4F616F"/>
<path d="M27.0505 58.4651C27.101 58.4904 27.1465 58.5157 27.197 58.5359C27.293 58.4752 27.384 58.4043 27.4547 58.3233L49.9017 57.8981L50.503 57.8425C51.0791 57.7564 51.6602 57.7007 52.2464 57.6855L27.389 58.1816C27.2728 58.3335 27.1616 58.4094 27.0454 58.46L27.0505 58.4651Z" fill="#4F616F"/>
<path d="M77.2755 59.2399C77.3463 59.7055 77.604 60.0346 77.9425 60.2472C78.6096 59.7713 79.3474 59.3107 80.161 58.8703C81.5708 58.106 83.6326 57.2404 85.7399 56.4305C85.5023 55.7067 84.9616 55.5345 83.6831 55.5497C81.5658 55.6459 79.4535 55.7117 77.3614 55.7471L77.1997 55.656C77.3311 56.8051 77.0986 58.106 77.2806 59.2399H77.2755Z" fill="#1D292E"/>
<path d="M76.3306 59.1688C76.3104 60.1609 76.5125 60.7127 76.9421 61.0113C77.2099 60.7886 77.503 60.5659 77.8012 60.3482C77.4424 60.1002 77.1796 59.7408 77.1139 59.27C76.9825 58.3083 77.0027 56.896 77.0583 55.914L77.0735 55.8887C76.6136 56.1165 76.3963 56.6075 76.3508 57.1086L76.1841 57.2149L76.3407 57.3262V59.1688H76.3306Z" fill="#031015"/>
<path d="M76.2597 60.2158C76.3254 60.5701 76.5427 60.889 76.8257 61.1117C76.8661 61.0763 76.9015 61.0408 76.947 61.0054C76.5174 60.7068 76.3153 60.155 76.3355 59.1629V57.3203L76.1839 57.209C76.1486 57.9278 76.1384 59.5526 76.2648 60.2158H76.2597Z" fill="#031015"/>
<path d="M77.0684 55.8832L77.0532 55.9085C76.9976 56.8906 76.9774 58.3079 77.1088 59.2646C77.1745 59.7353 77.4373 60.0998 77.7961 60.3428C77.8415 60.3073 77.8921 60.277 77.9376 60.2415C77.5939 60.0289 77.3413 59.6999 77.2705 59.2342C77.0936 58.1003 77.3261 56.7994 77.1897 55.6504L77.1341 55.8427C77.1341 55.8427 77.0886 55.8681 77.0633 55.8782L77.0684 55.8832Z" fill="#031015"/>
<path d="M34.2565 65.6944C34.2616 65.7247 34.2717 65.7551 34.2767 65.7855L38.4609 65.7197C38.4811 65.6893 38.5165 65.669 38.5417 65.6387L34.2515 65.6994L34.2565 65.6944Z" fill="#44535A"/>
<path d="M69.6451 65.0101C69.6451 65.0101 69.635 65.0759 69.6451 65.0911H69.726L69.9837 65L69.6451 65.0101Z" fill="#44535A"/>
<path d="M45.7832 46.8375C44.1459 46.9641 42.7916 47.5108 41.7557 48.8218C40.5581 50.3454 40.5934 52.5726 39.9315 54.3494C39.1583 54.4354 38.37 54.4152 37.5918 54.4354C34.8781 54.5063 32.1392 54.481 29.4508 54.5164C29.4104 54.5164 29.2891 54.6025 29.1729 54.6025C29.0011 54.6025 28.0409 54.6683 28.0005 54.6278C27.9651 54.5923 28.0612 54.2734 27.9096 54.2279C27.9197 54.3241 27.95 54.6177 27.8691 54.6328L21.79 54.7543C21.79 54.648 21.7849 54.5367 21.7849 54.4304C21.6535 54.4709 21.7647 54.7391 21.6636 54.7594C21.4413 54.8049 21.1128 54.7391 20.8652 54.7695C20.3295 54.8404 19.8293 55.058 19.4048 55.3719C21.8051 56.2375 24.5238 57.2802 26.5553 58.2318C26.7523 58.1711 26.9494 58.1306 27.1364 58.1104L53.5502 57.5789C54.0606 57.5485 54.571 57.5384 55.0763 57.5485L75.7243 57.1334L76.1639 57.2093C76.1993 56.526 76.4873 55.873 77.1796 55.6553C77.2403 55.6351 77.3312 55.5237 77.4525 55.5642C79.7669 55.6908 82.3542 55.2555 84.6384 55.4225C85.3256 55.4731 85.6844 55.8477 85.8663 56.3741C86.7405 56.04 87.6249 55.711 88.4688 55.4073C88.4082 54.7796 88.1706 54.1925 87.8018 53.7065C87.7007 53.666 87.6097 53.6205 87.5036 53.585C86.6496 53.3319 84.1886 53.418 83.183 53.4332C79.3172 53.4888 75.3857 53.6761 71.4997 53.747C70.2414 53.7673 68.9781 53.8027 67.7147 53.8179C67.6339 53.504 67.5581 53.1902 67.4772 52.8713C67.1791 52.8764 66.886 52.8814 66.5878 52.8865H66.3908L66.3402 52.6941C66.2695 52.4107 66.1937 52.1171 66.1229 51.8285C65.6934 50.0771 65.2588 48.2903 64.1925 47.0805C63.7529 46.8578 63.2526 46.6857 62.6614 46.5996C57.1431 46.7667 51.2459 46.4073 45.758 46.8325L45.7832 46.8375ZM66.2796 53.8533L46.4604 54.2481C46.7939 51.9197 47.0466 48.9989 49.7046 48.2295C53.6311 48.1485 57.8557 47.7335 61.772 47.8853C65.3498 48.022 65.7187 50.9579 66.2796 53.8533Z" fill="#44535A"/>
<path d="M66.8049 52.3815C66.9969 52.3815 67.1839 52.3764 67.3759 52.3714C66.9616 50.7212 66.4764 49.071 65.395 47.9473C65.9964 49.0913 66.3299 50.4428 66.6381 51.7133C66.6937 51.936 66.7493 52.1588 66.8049 52.3815Z" fill="#44535A"/>
<path d="M89.3731 55.0888C89.1962 54.7902 88.9789 54.5219 88.7212 54.2891C88.8425 54.5877 88.9284 54.9066 88.9688 55.2356C89.1052 55.185 89.2366 55.1395 89.3731 55.0939V55.0888Z" fill="#44535A"/>
<path d="M73.9705 64.9195V64.9043L70.9385 64.9802L73.9705 64.9195Z" fill="#44535A"/>
<path d="M80.454 53.3321C77.4776 53.3777 74.4709 53.4435 71.5146 53.7523C75.4007 53.6814 79.3322 53.4891 83.198 53.4384C82.2934 53.2663 81.3737 53.2967 80.454 53.3321Z" fill="#44535A"/>
<path d="M36.505 54.2949C34.514 54.2949 32.5179 54.3101 30.5319 54.3405C30.35 54.3405 30.1731 54.3708 29.9912 54.4012C29.8093 54.4316 29.6324 54.4721 29.4556 54.5176C32.1439 54.4822 34.8829 54.5075 37.5965 54.4367C37.2377 54.3658 36.8739 54.3 36.51 54.3L36.505 54.2949Z" fill="#44535A"/>
<path d="M27.879 54.6276C27.9598 54.6124 27.9245 54.3138 27.9194 54.2227C27.8234 54.2682 27.7577 54.3492 27.7274 54.4707L21.9615 54.5871L21.7998 54.4302C21.7998 54.5365 21.8049 54.6479 21.8049 54.7542L27.884 54.6327L27.879 54.6276Z" fill="#44535A"/>
<path d="M69.6955 64.8477L69.645 65.0097L69.9836 64.9995H69.9988L70.9437 64.9742L73.9808 64.8983C74.001 64.8426 74.0212 64.792 74.0414 64.7363C72.5962 64.7718 71.1459 64.8072 69.7006 64.8426L69.6955 64.8477Z" fill="#44535A"/>
<path d="M56.4709 57.6289L57.3249 57.6643L75.7241 57.2948C75.9768 57.3859 76.1284 57.3606 76.1789 57.2087L75.7393 57.1328L55.0913 57.5479C55.5562 57.558 56.0161 57.5884 56.4759 57.6289H56.4709Z" fill="#44535A"/>
<path d="M52.6152 57.656C52.9336 57.6256 53.2469 57.6003 53.5653 57.5801L27.1514 58.1116C26.9645 58.1318 26.7674 58.1723 26.5703 58.2331C26.636 58.2634 26.6966 58.2938 26.7573 58.3242C27.0049 58.2381 27.2525 58.1774 27.4546 58.147C35.7876 57.9698 44.1762 57.8079 52.6152 57.656Z" fill="#44535A"/>
<path d="M34.2158 65.5315C34.231 65.5871 34.2461 65.6377 34.2562 65.6934L38.5465 65.6327L38.4455 65.4707L34.2158 65.5315Z" fill="#44535A"/>
<path d="M83.6833 55.5442C84.9568 55.529 85.5025 55.7011 85.74 56.4249C85.7855 56.4047 85.836 56.3895 85.8815 56.3693C85.6945 55.8428 85.3408 55.4682 84.6536 55.4176C82.3745 55.2506 79.7821 55.6859 77.4677 55.5594C77.3464 55.5189 77.2555 55.6353 77.1948 55.6505L77.3565 55.7416C79.4537 55.7062 81.5609 55.6403 83.6783 55.5442H83.6833Z" fill="#44535A"/>
<path d="M77.0681 55.884L77.1944 55.6562C76.5021 55.8739 76.2141 56.5269 76.1787 57.2103L76.3455 57.104C76.391 56.6028 76.6082 56.1118 77.0681 55.884Z" fill="#44535A"/>
<path d="M77.1391 55.8486L77.1947 55.6562L77.0684 55.884C77.0684 55.884 77.1138 55.8587 77.1391 55.8486Z" fill="#44535A"/>
<path d="M49.7042 48.2347C47.0461 49.0042 46.7935 51.9299 46.46 54.2533L66.2792 53.8585C65.7182 50.9631 65.3493 48.0272 61.7716 47.8905C57.8552 47.7387 53.6307 48.1538 49.7042 48.2347Z" fill="#4F616F"/>
<path d="M69.6448 65.0107C65.9104 60.374 60.6195 57.7873 54.788 57.6152C54.1715 57.6254 53.5651 57.6405 52.9486 57.6507C52.7161 57.6659 52.4837 57.6709 52.2512 57.6912C46.8492 58.167 41.7403 61.3256 38.5466 65.6383C38.5718 65.7143 38.5466 65.7396 38.4657 65.7193L38.3141 66.2154C33.5993 72.968 33.8116 82.2363 38.7689 88.7965L38.9407 89.2825C46.9957 99.5176 62.3882 99.3253 70.1249 88.8168L70.2815 88.3207C75.062 81.558 74.8599 72.2694 69.9025 65.6586L69.7307 65.1676L69.6499 65.0866C69.5791 65.0613 69.5791 65.036 69.6499 65.0056L69.6448 65.0107ZM69.1092 87.4146C61.706 98.2116 45.505 97.6143 38.8649 86.3516C32.2551 75.1496 39.5875 60.4904 52.5089 59.3211C67.7296 57.9493 77.7908 74.7497 69.1092 87.4095V87.4146Z" fill="#566671"/>
<path d="M66.5927 61.7352C63.6062 59.346 60.1446 57.9691 56.4708 57.63L55.6623 57.5996C55.3692 57.6047 55.0812 57.6097 54.7881 57.6148C60.6196 57.7869 65.9105 60.3735 69.6449 65.0102C69.6298 64.9242 69.6095 64.8381 69.5742 64.7571C69.2861 64.0029 67.3254 62.3224 66.5927 61.7402V61.7352Z" fill="#566671"/>
<path d="M52.2515 57.6909C52.4839 57.6706 52.7164 57.6605 52.9488 57.6504C52.8377 57.6504 52.7265 57.6504 52.6153 57.6555C52.494 57.6656 52.3727 57.6757 52.2515 57.6909Z" fill="#566671"/>
<path d="M40.8967 62.7677C40.356 63.2739 38.744 64.8228 38.5822 65.4049C38.562 65.4809 38.5519 65.5568 38.5469 65.6327C41.7406 61.32 46.8495 58.1664 52.2515 57.6855L50.5081 57.8425C46.9253 58.3891 43.5194 60.3279 40.9017 62.7677H40.8967Z" fill="#566671"/>
<path d="M52.2512 57.6914C51.665 57.7015 51.0839 57.7572 50.5078 57.8483L52.2512 57.6914Z" fill="#566671"/>
<path d="M38.5474 65.6328C38.527 65.6635 38.4913 65.6839 38.4658 65.7146C38.5423 65.7351 38.5678 65.7095 38.5474 65.6328Z" fill="#566671"/>
<path d="M69.6453 65.0916C69.6453 65.0916 69.6555 65.0251 69.6453 65.0098C69.5739 65.0404 69.5739 65.066 69.6453 65.0916Z" fill="#566671"/>
<path d="M53.5601 57.5791L55.0862 57.5487C54.5808 57.5386 54.0704 57.5487 53.5601 57.5791Z" fill="#566671"/>
<path d="M52.9487 57.6509C53.5652 57.6408 54.1716 57.6256 54.7881 57.6155C54.1817 57.5952 53.5652 57.6155 52.9487 57.6509Z" fill="#566671"/>
<path d="M52.9489 57.6501C53.5654 57.6146 54.1819 57.5994 54.7883 57.6146C55.0814 57.6096 55.3695 57.6045 55.6626 57.5994L56.4711 57.6298C56.0112 57.5893 55.5514 57.559 55.0865 57.5488L53.5604 57.5792C53.2471 57.5944 52.9287 57.6197 52.6104 57.6551C52.7215 57.6551 52.8327 57.6551 52.9439 57.6501H52.9489Z" fill="#566671"/>
<path d="M52.509 59.3258C39.5876 60.49 32.2552 75.1493 38.865 86.3563C45.5101 97.614 61.7061 98.2163 69.1092 87.4193C77.7909 74.7595 67.7297 57.9591 52.509 59.3309V59.3258ZM68.3714 86.7005C61.5343 96.8193 46.4854 96.5965 39.9919 86.25C33.1244 75.3113 40.5528 61.057 53.3327 60.2774C67.2294 59.4321 76.2142 75.0936 68.3714 86.7005Z" fill="#44535A"/>
<path d="M53.3325 60.2773C40.5526 61.0569 33.1242 75.3112 39.9917 86.2499C46.4852 96.5964 61.5341 96.8242 68.3712 86.7004C76.214 75.0885 67.2342 59.427 53.3325 60.2773ZM66.0012 85.0503C60.2404 93.6605 47.3847 93.2556 42.1798 84.291C37.0153 75.3871 42.8771 64.089 53.0697 63.1829C64.7783 62.1401 72.5756 75.2201 66.0012 85.0503Z" fill="#566671"/>
<path d="M53.0702 63.1875C42.8827 64.0936 37.0157 75.3918 42.1802 84.2956C47.3801 93.2603 60.2358 93.6652 66.0017 85.0549C72.5761 75.2298 64.7788 62.1448 53.0702 63.1875ZM67.1589 81.8153C63.5458 92.0302 49.8158 94.0803 43.3829 85.3435C36.9753 76.637 42.6906 64.367 53.3936 63.5824C63.1617 62.8686 70.4234 72.5824 67.1538 81.8153H67.1589Z" fill="#44535A"/>
<path d="M53.3985 63.582C42.6955 64.3615 36.9802 76.6366 43.3878 85.3431C49.8157 94.0799 63.5507 92.0299 67.1638 81.815C70.4283 72.5821 63.1666 62.8683 53.4036 63.582H53.3985ZM64.1217 85.0647C58.6894 91.959 47.855 91.0883 43.4839 83.5107C38.9763 75.7052 44.0296 65.5561 53.0195 64.7209C64.1065 63.6883 71.0347 76.2975 64.1217 85.0647Z" fill="#566671"/>
<path d="M53.0192 64.7217C44.0293 65.562 38.976 75.706 43.4836 83.5115C47.8598 91.0891 58.6891 91.9598 64.1214 85.0655C71.0344 76.2983 64.1012 63.6891 53.0192 64.7217ZM60.4173 85.9311C53.6004 90.6943 44.2416 86.088 43.7059 77.8421C43.3522 72.4209 47.5515 67.2274 52.9788 66.6604C64.1467 65.4911 69.382 79.6644 60.4173 85.9311Z" fill="#44535A"/>
<path d="M52.9792 66.66C47.5519 67.2269 43.3576 72.4204 43.7063 77.8417C44.242 86.0875 53.5957 90.6938 60.4177 85.9306C69.3823 79.669 64.1471 65.4907 52.9792 66.66ZM62.8736 77.6898C60.3874 81.5723 54.4093 79.7804 51.8321 76.8749C48.8708 73.5391 49.1589 67.9912 54.2829 67.3636C59.4222 66.7359 66.0572 72.719 62.8736 77.6898Z" fill="#93CED4"/>
<path d="M51.8267 76.8693C54.4039 79.7749 60.387 81.5668 62.8682 77.6843C66.0518 72.7135 59.4168 66.7304 54.2775 67.358C49.1535 67.9857 48.8654 73.5285 51.8267 76.8693Z" fill="#BCDDE6"/>
<path d="M38.9358 89.2811C33.5388 82.4222 33.3114 72.7894 38.4658 65.7129L38.2485 65.8647C36.9346 65.8901 35.6208 65.9052 34.3069 65.9305C34.4433 66.7202 34.4029 67.5099 34.1806 68.2945C34.13 68.4767 34.0744 68.669 34.0188 68.8664C33.6398 70.218 33.1749 71.8681 32.2906 73.2754C32.2754 73.326 32.2552 73.3817 32.2401 73.4323L32.1996 73.4171C32.0177 73.6955 31.8156 73.9587 31.5932 74.2067C31.2698 76.9402 31.4315 79.7445 32.0632 82.407C32.518 84.3154 33.2406 86.1174 34.1603 87.8384L20.1424 88.1219L19.8897 75.5481C19.3844 75.4469 18.879 75.3356 18.3687 75.209C18.4596 80.0887 18.5354 84.9683 18.6466 89.8429L18.6971 89.681C20.9812 89.6354 23.2704 89.5898 25.5545 89.5443L25.6556 89.7063C29.9358 89.6202 34.4181 89.7012 38.673 89.4431C38.8296 89.4329 38.9964 89.519 38.9459 89.276L38.9358 89.2811Z" fill="#1D292E"/>
<path d="M34.3016 65.9364C35.6155 65.9111 36.9294 65.8959 38.2432 65.8706L38.4605 65.7188L34.2764 65.7846C34.2865 65.8352 34.2915 65.8858 34.3016 65.9364Z" fill="#1D292E"/>
<path d="M38.3142 66.209L38.4659 65.7129C33.3114 72.7894 33.5388 82.4222 38.9358 89.2811L38.764 88.7951C33.8067 82.2299 33.5995 72.9666 38.3092 66.214L38.3142 66.209Z" fill="#1D292E"/>
<path d="M26.3376 76.3288C27.1512 77.164 27.04 78.7737 25.6756 79.2545C23.5431 80.0037 22.6284 77.1285 23.9675 76.1465C22.6436 76.0149 21.2741 75.8327 19.8794 75.5543L20.1321 88.128L34.15 87.8446C33.2303 86.1185 32.5077 84.3215 32.0529 82.4132C31.4212 79.7506 31.2595 76.9514 31.5829 74.2129C30.4661 75.4885 28.8339 76.3794 26.3376 76.3288Z" fill="#2D393F"/>
<path d="M25.676 79.2537C27.0404 78.7728 27.1516 77.1631 26.338 76.3279C26.1409 76.3279 25.9388 76.3127 25.7265 76.2975C25.1505 76.252 24.5592 76.2014 23.968 76.1406C22.6288 77.1226 23.5435 79.9978 25.676 79.2486V79.2537ZM24.8776 76.5C26.53 76.2267 26.5553 78.8487 24.918 78.6463C23.7456 78.4995 23.7103 76.6924 24.8776 76.5Z" fill="#1D292E"/>
<path d="M24.9228 78.6467C26.5601 78.8492 26.5349 76.2271 24.8824 76.5005C23.7202 76.6928 23.7555 78.4999 24.9228 78.6467Z" fill="#051217"/>
<path d="M88.6958 86.6286C88.6958 86.6286 88.5847 86.7501 88.5796 86.7501L75.4055 87.0133C75.638 86.2489 76.0372 85.5251 76.305 84.7557C77.3561 81.7438 77.7452 78.4435 77.4926 75.1887C76.8003 74.7027 76.2545 74.0902 75.8048 73.417L75.7643 73.4322C75.7441 73.3816 75.729 73.3259 75.7138 73.2753C74.8244 71.8731 74.3646 70.223 73.9856 68.8664C73.93 68.669 73.8794 68.4817 73.8238 68.2944C73.5206 67.2364 73.551 66.1583 73.8997 65.1003C72.6161 65.1206 71.3275 65.1358 70.0541 65.1509C69.8974 65.2269 69.7862 65.2016 69.7256 65.0801V65.1611C75.1226 72.0756 75.3601 81.6983 70.1197 88.8102C76.2949 88.6736 82.4752 88.5774 88.6503 88.4407L88.8222 88.2787C88.9333 88.2787 89.0445 88.2787 89.1557 88.2787C89.1405 87.894 89.1304 87.5144 89.1203 87.1449C89.0597 83.8496 88.9889 80.5492 88.9131 77.2539C88.898 76.6364 88.8879 76.0087 88.8727 75.3861C88.7363 75.4165 88.6049 75.4468 88.4684 75.4772L88.6908 86.6235L88.6958 86.6286Z" fill="#1D292E"/>
<path d="M89.4239 77.25C89.4997 80.5504 89.5704 83.8457 89.6311 87.141C89.6361 87.5105 89.6513 87.8901 89.6614 88.2748C89.8736 88.2597 90.0909 88.2445 90.3032 88.2141L90.5003 88.3305C90.4245 83.9115 90.3183 79.4874 90.2223 75.0684C89.9393 75.1443 89.6614 75.2152 89.3784 75.281C89.3936 75.939 89.4087 76.5971 89.4239 77.25Z" fill="#1D292E"/>
<path d="M70.9438 64.9795L69.9887 65.0048L69.731 65.0909C69.7967 65.2124 69.9078 65.2326 70.0594 65.1617C71.3329 65.1466 72.6164 65.1314 73.905 65.1111C73.9252 65.0504 73.9505 64.9846 73.9758 64.9238L70.9438 64.9846V64.9795Z" fill="#1D292E"/>
<path d="M69.9834 65.0058L70.9435 64.9805L69.9986 65.0007L69.9834 65.0058Z" fill="#1D292E"/>
<path d="M70.2818 88.3191L70.1251 88.8152C75.3654 81.7032 75.133 72.0806 69.731 65.166L69.9028 65.657C74.8601 72.2628 75.0673 81.5564 70.2818 88.3191Z" fill="#1D292E"/>
<path d="M69.7317 65.1736L69.7266 65.0918H69.645L69.7317 65.1736Z" fill="#4F616F"/>
<path d="M86.3511 75.8584C84.9514 76.066 83.587 76.1976 82.2731 76.2988C80.1759 76.4608 78.6397 76.0002 77.4977 75.1953C77.7453 78.445 77.3562 81.7505 76.3101 84.7623C76.0423 85.5368 75.638 86.2556 75.4106 87.0199L88.5847 86.7567C88.5847 86.7567 88.7009 86.6403 88.7009 86.6352L88.4786 75.4889C88.4786 75.4889 88.4685 75.4889 88.4634 75.4889C87.8469 75.6256 87.3669 75.742 86.3562 75.8635L86.3511 75.8584Z" fill="#2D393F"/>
<path d="M89.727 89.874C89.8079 91.7064 89.8938 93.5995 89.7927 95.275C89.6816 97.1833 88.2717 98.6209 86.3615 98.7677L20.6883 100.074C20.2739 100.013 19.8899 99.8914 19.5361 99.7295C20.0869 100.408 20.8904 100.873 21.8101 101.005L87.4682 99.6991C89.2369 99.5624 90.5608 98.216 90.667 96.4443C90.8135 93.9285 90.5457 90.9015 90.5002 88.3301C90.2374 88.4009 89.9544 88.4263 89.6664 88.4364C89.6816 88.9021 89.7068 89.3779 89.727 89.874Z" fill="#44535A"/>
<path d="M88.7464 88.8877C88.8778 91.2667 88.7919 93.6711 88.8677 96.0553C88.7313 97.0525 88.0794 97.7612 87.1092 98.0041L27.8132 99.2038C26.7723 99.1734 25.9536 98.4091 25.7464 97.4018C25.7161 94.9923 25.5544 92.5677 25.5797 90.1531C25.5797 90.0013 25.5645 89.8494 25.6555 89.7127L18.6465 89.8545C18.7021 92.4057 18.5454 95.4884 18.8031 97.9687C18.8335 98.2623 18.9093 98.5306 19.0103 98.7938C19.4752 99.1937 20.0614 99.4721 20.7285 99.5682L86.3461 98.2623C87.9783 98.1357 89.2012 96.8956 89.2972 95.2454C89.3933 93.5952 89.3124 91.7173 89.2315 89.895C89.2113 89.3989 89.1911 88.918 89.1709 88.4473C88.9991 88.4473 88.8273 88.4473 88.6605 88.4473C88.7565 88.5789 88.7464 88.7307 88.7515 88.8877H88.7464Z" fill="#44535A"/>
<path d="M18.6873 89.6867L18.6367 89.8486L25.6457 89.7069L25.5446 89.5449C23.2605 89.5905 20.9714 89.636 18.6873 89.6816V89.6867Z" fill="#44535A"/>
<path d="M88.8276 88.2852L88.6558 88.4471C88.8225 88.4471 88.9943 88.4471 89.1661 88.4471C89.1661 88.3915 89.1661 88.3408 89.1661 88.2852C89.055 88.2852 88.9438 88.2902 88.8326 88.2852H88.8276Z" fill="#44535A"/>
<path d="M89.6613 88.2744C89.6613 88.3301 89.6613 88.3807 89.6613 88.4415C89.9493 88.4314 90.2323 88.406 90.4951 88.3352L90.298 88.2188C90.0858 88.2491 89.8735 88.2694 89.6562 88.2795L89.6613 88.2744Z" fill="#44535A"/>
<path d="M70.12 88.8207C70.1048 88.9118 70.0846 89.0029 70.0543 89.089C69.7915 89.8381 68.1037 91.4225 67.4265 92.0249C60.175 98.5142 49.1739 98.6509 41.7303 92.3994C41.038 91.8173 39.2996 90.2886 39.0116 89.5496C38.9863 89.58 38.9459 89.6053 38.8752 89.6154C34.6607 89.8078 30.3552 89.8736 26.1054 89.8128L25.6455 89.7116L25.7466 89.8786C25.7466 92.3539 25.787 94.8899 25.8982 97.3854C25.9335 98.1852 26.9998 99.0913 27.8083 99.0407L87.0739 97.846C87.8067 97.7144 88.6758 96.8843 88.6859 96.1199C88.7213 93.6295 88.6506 91.0834 88.5495 88.6131L88.6455 88.4512C82.4804 88.846 76.2901 88.9422 70.1149 88.8207H70.12Z" fill="#4F616F"/>
<path d="M38.9355 89.2809C39.0366 89.4075 39.0568 89.4935 39.0113 89.5492C39.2994 90.2883 41.0327 91.817 41.73 92.3991C49.1736 98.6505 60.1747 98.5138 67.4263 92.0245C68.1034 91.4171 69.7912 89.8378 70.054 89.0886C70.0843 89.0025 70.1045 88.9114 70.1197 88.8203C62.383 99.3237 46.9906 99.5161 38.9355 89.286V89.2809Z" fill="#4F616F"/>
<path d="M38.8752 89.6161C38.9459 89.606 38.9863 89.5807 39.0116 89.5503C38.9762 89.4643 38.956 89.3782 38.9358 89.2871C38.9863 89.5301 38.8145 89.444 38.6629 89.4542C34.408 89.7072 29.9257 89.6313 25.6455 89.7174L26.1054 89.8186C30.3502 89.8794 34.6607 89.8135 38.8752 89.6212V89.6161Z" fill="#4F616F"/>
<path d="M38.9355 89.2824C38.9558 89.3735 38.976 89.4646 39.0113 89.5456C39.0568 89.4899 39.0417 89.4039 38.9355 89.2773V89.2824Z" fill="#4F616F"/>
<path d="M88.6507 88.4473C82.4755 88.589 76.2953 88.6801 70.1201 88.8168C76.2953 88.9383 82.4856 88.837 88.6507 88.4473Z" fill="#4F616F"/>
<path d="M88.6911 96.1152C88.681 96.8796 87.8118 97.7097 87.0791 97.8413L27.8135 99.0359C27.005 99.0866 25.9387 98.1805 25.9033 97.3807C25.7922 94.8852 25.7517 92.3492 25.7517 89.8739L25.6507 89.7069C25.5597 89.8436 25.5749 89.9954 25.5749 90.1473C25.5496 92.5567 25.7164 94.9814 25.7416 97.3959C25.9488 98.4032 26.7675 99.1625 27.8084 99.1979L87.1043 97.9983C88.0796 97.7553 88.7265 97.0517 88.8629 96.0494C88.7871 93.6653 88.873 91.2609 88.7416 88.8818C88.7315 88.7299 88.7416 88.5781 88.6507 88.4414L88.5547 88.6034C88.6557 91.0685 88.7265 93.6197 88.6911 96.1102V96.1152Z" fill="#4F616F"/>
<path d="M86.3208 52.6448C86.9171 52.8219 87.4325 53.2066 87.8166 53.7077C88.1552 53.8495 88.4584 54.0469 88.7211 54.2848C88.3068 53.2775 87.4881 52.4625 86.4623 52.1588C85.8003 51.9614 84.2995 51.9614 83.1372 51.9766C83.1625 52.1335 83.1726 52.3056 83.1776 52.4828C84.2742 52.4676 85.7346 52.4676 86.3158 52.6448H86.3208Z" fill="black"/>
<path d="M68.8868 52.8511C69.3921 52.841 69.8924 52.8309 70.3977 52.8208H70.6504L70.6251 51.7324C70.5998 50.8972 70.6251 50.4568 71.3376 50.3809C71.4336 50.3708 71.5347 50.3708 71.6307 50.3759C71.7166 50.3759 71.8025 50.3759 71.8884 50.3759C72.0198 50.3708 72.1563 50.3657 72.2877 50.3657C72.3938 50.3657 72.4999 50.3657 72.606 50.3657C72.702 50.3657 72.798 50.3657 72.8941 50.3607H73.172C73.3185 50.3505 73.4651 50.3505 73.6116 50.3455L75.83 50.2999C76.0726 50.2949 76.3101 50.2898 76.5527 50.2847L78.8216 50.2392C78.953 50.2392 79.0793 50.2341 79.2107 50.2291C79.3067 50.2291 79.4028 50.2291 79.4988 50.224C79.706 50.2189 79.9131 50.2189 80.1254 50.2088C80.277 50.2088 80.4286 50.1987 80.5802 50.2038C80.6509 50.2038 80.7267 50.2038 80.8025 50.1987C80.8834 50.1987 80.9693 50.1886 81.0451 50.1987C81.6313 50.2392 81.7627 50.553 81.798 51.1402C81.9294 51.1402 82.0608 51.125 82.1922 51.1351C82.2377 51.1351 82.268 51.1503 82.3084 51.1554C82.2731 50.4872 82.0962 49.7684 81.0855 49.6976C80.9845 49.6925 80.8834 49.6976 80.7773 49.6976C80.7116 49.6976 80.6509 49.7026 80.5903 49.7026C80.4336 49.7026 80.2719 49.7026 80.1102 49.7127C79.9991 49.7127 79.8879 49.7178 79.7767 49.7229C79.6807 49.7229 79.5847 49.7229 79.4887 49.7279C79.3977 49.7279 79.3017 49.7279 79.2107 49.733C79.0793 49.733 78.948 49.733 78.8115 49.7431L76.5476 49.7887C76.3051 49.7887 76.0625 49.7988 75.8199 49.8039L73.6066 49.8494C73.455 49.8494 73.3084 49.8494 73.1568 49.8595H72.889C72.7879 49.8646 72.6919 49.8697 72.5909 49.8697C72.4898 49.8697 72.3887 49.8697 72.2877 49.8697C72.1462 49.8697 72.0047 49.8697 71.8632 49.8798C71.7874 49.8798 71.7166 49.8798 71.6408 49.8798C71.5195 49.8798 71.4033 49.8798 71.2871 49.8899C70.0743 50.0266 70.1046 51.0288 70.1248 51.7628L70.14 52.3348C69.7206 52.3449 69.3011 52.35 68.8817 52.3601C68.3814 52.3702 67.8811 52.3804 67.3809 52.3905C67.4213 52.5575 67.4668 52.7246 67.5072 52.8916C67.9721 52.8815 68.432 52.8764 68.8969 52.8663L68.8868 52.8511Z" fill="black"/>
<path d="M19.7886 53.8336C19.829 53.8285 19.8796 53.8285 19.9301 53.8285C19.9958 53.8285 20.0666 53.8285 20.1373 53.8336C20.299 53.8437 20.4607 53.8488 20.6073 53.8184C20.7639 53.788 20.8498 53.6615 20.8549 53.4489L20.9256 53.4286V53.2464C20.9357 52.5428 21.5068 52.3758 21.8453 52.3403C22.669 52.2492 25.0188 52.1682 25.792 52.2796C26.2013 52.3403 26.5096 52.6592 26.5449 53.0591L26.555 53.1755C26.7117 53.1857 26.8481 53.1958 26.9543 53.211C27.2777 53.2565 27.5506 53.4337 27.7274 53.6817C27.7476 53.6817 27.7628 53.6817 27.783 53.6817C27.9093 53.6767 28.0155 53.6716 28.0609 53.6716C28.1772 53.6716 28.2782 53.626 28.3742 53.5855H28.6067L28.5865 53.3122C28.541 52.7149 28.9756 52.3302 29.4405 52.2138C30.2743 52.234 31.1637 52.1834 32.0228 52.1328C33.0587 52.072 34.13 52.0062 35.1002 52.0771C35.7319 52.1227 36.1311 52.4618 36.2069 53.0085C36.217 53.0085 36.2322 53.0085 36.2423 53.0085C36.692 53.0389 37.0508 53.211 37.2883 53.4944C37.7987 53.4894 38.3192 53.4792 38.8397 53.4236L38.9964 53.4084L39.052 53.2616C39.2996 52.5985 39.4512 51.8696 39.5977 51.166C39.8504 49.9663 40.1081 48.7261 40.8358 47.8049C41.7454 46.6507 42.9683 46.0484 44.6814 45.9168C47.9559 45.6637 51.4276 45.689 54.7881 45.7143C57.0317 45.7295 59.3563 45.7497 61.5292 45.6789C62.737 45.8611 63.591 46.3774 64.2226 47.0962C64.6774 47.329 65.0716 47.6176 65.4001 47.9618C64.6724 46.5698 63.5455 45.4764 61.5595 45.1777C59.3462 45.2435 57.0317 45.2284 54.7931 45.2081C51.4225 45.1828 47.9408 45.1524 44.646 45.4106C42.7813 45.5574 41.4472 46.2154 40.4416 47.491C39.6432 48.5085 39.3703 49.8043 39.1075 51.0647C38.966 51.7278 38.8347 52.3555 38.6325 52.9427C38.1373 52.9882 37.632 52.9933 37.1367 52.9984C36.9952 52.9984 36.8588 52.9984 36.7173 53.0034C36.6264 52.1885 36.0301 51.6418 35.1356 51.581C34.13 51.5102 33.0435 51.576 31.9975 51.6367C31.1384 51.6873 30.249 51.743 29.4253 51.7177H29.39L29.3596 51.7228C28.6016 51.8999 28.1115 52.4719 28.0812 53.1705C28.071 53.1705 28.0609 53.1755 28.0559 53.1755C28.0054 53.1755 27.8992 53.1806 27.7628 53.1857C27.6061 53.1958 27.3282 53.2059 27.1362 53.211C27.1311 53.1148 27.1059 52.9984 27.0351 52.9123C26.9391 52.3302 26.4742 51.8746 25.8678 51.7886C25.0441 51.6671 22.6589 51.7531 21.7897 51.8442C20.9964 51.9303 20.486 52.4213 20.4253 53.135C20.3799 53.2008 20.3647 53.2768 20.3546 53.3476C20.294 53.3476 20.2232 53.3476 20.1575 53.3426C20.011 53.3324 19.8644 53.3274 19.7179 53.3426C18.8032 53.4641 17.9947 53.9702 17.4287 54.6789C17.5955 54.7346 17.7622 54.7953 17.934 54.8561C18.4091 54.3246 19.0609 53.9449 19.7836 53.8437L19.7886 53.8336Z" fill="black"/>
<path d="M17.9189 96.754C17.7471 95.1292 17.7572 93.2309 17.7724 91.3985C17.7774 90.4368 17.7825 89.5307 17.7622 88.6601C17.6864 85.3344 17.6309 82.0037 17.5702 78.6729C17.55 77.4631 17.5298 76.2432 17.5045 75.0132C17.3378 74.9676 17.166 74.917 16.9941 74.8613C17.0194 76.142 17.0396 77.4176 17.0598 78.678C17.1154 82.0087 17.1761 85.3395 17.2519 88.6651C17.2721 89.5256 17.267 90.4317 17.262 91.3884C17.2519 93.236 17.2418 95.1443 17.4136 96.7996C17.55 98.1055 18.3535 99.1736 19.5309 99.7203C19.3035 99.4419 19.1266 99.1281 18.9953 98.7838C18.399 98.2726 17.9998 97.569 17.9138 96.7439L17.9189 96.754Z" fill="black"/>
<path d="M81.8235 52.5077H82.1923C82.1721 52.0724 82.2328 51.3536 82.1822 51.1157C82.0559 51.1055 81.9195 51.1157 81.7881 51.1207C81.7931 51.2473 81.7982 51.3839 81.8032 51.5358L81.8235 52.5077Z" fill="black"/>
<path d="M36.2123 53.505H36.475C36.6923 53.4898 36.9147 53.4898 37.132 53.4898C37.1825 53.4898 37.233 53.4898 37.2836 53.4898C37.0461 53.2064 36.6873 53.0343 36.2375 53.0039C36.2274 53.0039 36.2123 53.0039 36.2021 53.0039C36.2123 53.0798 36.2173 53.1608 36.2173 53.2418V53.5101L36.2123 53.505Z" fill="black"/>
<path d="M26.6259 53.2466C26.6259 53.2466 26.6259 53.2973 26.6259 53.3175C26.6209 53.4137 26.6108 53.5251 26.7017 53.6111C26.7977 53.7123 26.8483 53.7225 27.7276 53.682C27.5557 53.4339 27.2778 53.2568 26.9544 53.2112C26.8483 53.196 26.7118 53.1859 26.5552 53.1758V53.2264L26.631 53.2517L26.6259 53.2466Z" fill="black"/>
<path d="M82.3691 51.9906V52.4968H82.5309C82.7229 52.4968 82.9402 52.4867 83.1777 52.4867C83.1777 52.3095 83.1625 52.1424 83.1373 51.9805C82.92 51.9805 82.7077 51.9855 82.5207 51.9906H82.3691Z" fill="black"/>
<path d="M82.2984 51.1557C82.2984 51.1557 82.2984 51.1456 82.2984 51.1355C82.2579 51.1304 82.2276 51.1152 82.1821 51.1152C82.2327 51.1203 82.268 51.1355 82.2984 51.1557Z" fill="black"/>
<path d="M82.1924 52.5022H82.3693L82.3642 51.9909H82.3137L82.3036 51.5303C82.3036 51.4088 82.2985 51.2823 82.2935 51.1557C82.2632 51.1355 82.2278 51.1203 82.1772 51.1152C82.2278 51.3531 82.1671 52.0719 82.1874 52.5022H82.1924Z" fill="black"/>
<path d="M64.2178 47.0851C65.284 48.2949 65.7186 50.0818 66.1481 51.8332C66.2189 52.1268 66.2896 52.4153 66.3654 52.6988L66.416 52.8911H66.6131C66.9062 52.8861 67.2043 52.8759 67.5024 52.8709C67.462 52.7038 67.4216 52.5368 67.3761 52.3698C67.1841 52.3698 66.9971 52.3799 66.8051 52.3799C66.7495 52.1572 66.6939 51.9344 66.6383 51.7117C66.3301 50.4412 65.9966 49.0947 65.3952 47.9457C65.0667 47.6015 64.6726 47.3129 64.2178 47.0801V47.0851Z" fill="black"/>
<path d="M88.4839 55.4078C88.6456 55.3471 88.8124 55.2914 88.9691 55.2307C88.9236 54.9016 88.8427 54.5878 88.7214 54.2841C88.4536 54.0411 88.1504 53.8488 87.8169 53.707C88.1858 54.1879 88.4233 54.7751 88.4839 55.4078Z" fill="black"/>
<path d="M88.9182 77.2605C88.994 80.5557 89.0647 83.8561 89.1254 87.1514C89.1304 87.5209 89.1456 87.9006 89.1607 88.2853C89.3275 88.2853 89.4993 88.2853 89.6661 88.2751C89.6509 87.8904 89.6408 87.5108 89.6358 87.1413C89.5751 83.846 89.5044 80.5456 89.4286 77.2503C89.4134 76.5973 89.3983 75.9393 89.3831 75.2812C89.2163 75.3217 89.0496 75.3572 88.8828 75.3926C88.898 76.0152 88.9081 76.6429 88.9232 77.2605H88.9182Z" fill="black"/>
<path d="M86.3615 98.7669C88.2717 98.6201 89.6816 97.1876 89.7927 95.2742C89.8938 93.5987 89.8079 91.7055 89.727 89.8731C89.7068 89.3821 89.6866 88.9063 89.6664 88.4355C89.4996 88.4406 89.3278 88.4457 89.1611 88.4406C89.1762 88.9114 89.2015 89.3922 89.2217 89.8883C89.3026 91.7055 89.3885 93.5885 89.2874 95.2387C89.1914 96.8889 87.9685 98.1291 86.3363 98.2556L20.7186 99.5616C20.0516 99.4654 19.4654 99.187 19.0005 98.7871C19.1268 99.1313 19.3087 99.4452 19.5361 99.7236C19.8899 99.8855 20.2739 100.007 20.6883 100.068L86.3615 98.7618V98.7669Z" fill="black"/>
<path d="M89.1611 88.4475C89.3279 88.4475 89.4997 88.4475 89.6665 88.4424C89.6665 88.3868 89.6665 88.3311 89.6665 88.2754C89.4997 88.2855 89.3279 88.2855 89.1611 88.2855C89.1611 88.3412 89.1611 88.3918 89.1611 88.4475Z" fill="black"/>
<path d="M19.4147 55.3663C18.9043 55.1841 18.409 55.0069 17.934 54.8398C17.7875 55.0018 17.6561 55.179 17.5449 55.3713C17.9694 55.5181 18.4242 55.6801 18.8841 55.8472C19.0458 55.67 19.2176 55.508 19.4096 55.3663H19.4147Z" fill="black"/>
<path d="M13.8966 53.4797L13.7046 54.077C13.74 54.0871 15.1296 54.5376 17.0701 55.2058C17.1762 55.0134 17.2975 54.8363 17.434 54.6642C15.4076 53.9606 13.937 53.4847 13.8966 53.4746V53.4797Z" fill="black"/>
<path d="M106.181 50.8265C106.049 50.6442 105.913 50.4266 105.756 50.1785C104.907 48.8371 103.553 46.7061 100.081 45.0609C100.051 44.9395 100.026 44.818 99.9952 44.6914C99.3737 42.0188 98.6713 38.9917 97.4079 35.1903C97.1249 34.3399 96.8773 33.5451 96.6398 32.7808C95.1642 28.0429 94.098 24.616 88.0946 18.6024C81.121 11.6221 48.4411 -1.34651 41.4725 0.11132C34.2311 1.62483 20.8902 13.9404 13.7246 20.5563L13.6488 20.6221L13.5932 20.7082C13.5124 20.8398 11.5416 23.9933 9.82343 28.296C8.83802 30.7611 7.75661 38.1768 7.22601 45.4153C4.26475 46.9997 3.03679 48.9333 2.24847 50.1836C2.09181 50.4316 1.95537 50.6493 1.82399 50.8315C0.919439 52.0919 -0.0305895 54.4457 -0.000269422 57.2601C0.0401573 60.93 1.67239 64.3873 4.85599 67.5256C7.14515 69.7883 9.44443 71.4436 11.7134 72.6736C13.2799 73.5189 14.8313 74.1618 16.3574 74.6528C16.5494 74.7186 16.7718 74.7945 16.9992 74.8654C16.9992 74.6376 16.9891 74.4098 16.984 74.1871C16.6758 74.0909 16.3675 73.9948 16.0542 73.8885C12.5421 72.6837 8.90877 70.6488 5.29563 67.0802C-2.9969 58.9002 2.27373 51.2719 2.32932 51.196C2.47081 50.9986 2.61736 50.7657 2.77401 50.5177C3.49159 49.3787 4.59322 47.6476 7.17042 46.1695C7.64038 45.9012 8.16088 45.638 8.73696 45.39C8.75717 45.1521 8.77233 44.9142 8.79254 44.6762C9.33325 37.8882 10.3288 31.1053 11.2283 28.8578C12.7392 25.0665 14.5028 22.1255 14.8212 21.5991C21.4107 15.5248 34.9739 3.02191 41.7808 1.59952C48.3046 0.237868 80.4338 13.085 87.0233 19.6857C92.7639 25.436 93.7847 28.711 95.1946 33.2414C95.4321 34.0108 95.6847 34.8207 95.9728 35.6762C97.1098 39.093 97.7869 41.8871 98.363 44.3573C98.4186 44.5851 98.4691 44.818 98.5197 45.0407C98.5197 45.061 98.5298 45.0761 98.5348 45.0964C99.1715 45.3394 99.7476 45.5924 100.268 45.8658C103.25 47.4046 104.457 49.3028 105.225 50.5177C105.382 50.7657 105.529 50.9986 105.67 51.196C105.726 51.2719 110.996 58.9002 102.704 67.0802C98.4893 71.236 94.2496 73.3114 90.212 74.4149C90.212 74.6325 90.2221 74.8502 90.2271 75.0679C92.208 74.5414 94.2395 73.7872 96.2911 72.6736C98.5601 71.4486 100.854 69.7883 103.149 67.5256C106.332 64.3873 107.964 60.93 108.005 57.2601C108.035 54.4406 107.085 52.0919 106.186 50.8265H106.181Z" fill="black"/>
<path d="M94.295 54.0758L94.103 53.4785C94.0575 53.4937 91.9907 54.1568 89.373 55.0882C89.4792 55.2704 89.5752 55.4577 89.6459 55.6602C92.2231 54.744 94.2495 54.0961 94.295 54.0809V54.0758Z" fill="black"/>
<path d="M18.3588 75.214C18.3588 74.9963 18.3486 74.7786 18.3486 74.5559C18.197 74.5154 18.0454 74.485 17.8938 74.4446C17.7625 74.4091 17.626 74.3686 17.4946 74.3281C17.4946 74.5559 17.5047 74.7837 17.5098 75.0115C17.7473 75.0773 17.9747 75.133 18.1516 75.1633C18.2223 75.1836 18.2931 75.1937 18.3638 75.214H18.3588Z" fill="black"/>
<path d="M77.4475 61.426C77.2251 61.3703 77.0129 61.264 76.8259 61.1172C75.4766 62.2662 74.5367 63.4912 74.0415 64.7466C74.2689 64.7415 74.4912 64.7364 74.7186 64.7314C75.2998 63.4507 76.3509 62.332 77.4475 61.431V61.426Z" fill="black"/>
<path d="M27.0506 58.466C26.9545 58.4204 26.8535 58.3698 26.7524 58.3242C26.4997 58.4153 26.2471 58.5318 26.0298 58.6785C26.0955 58.7089 26.1561 58.7393 26.2218 58.7646C26.2976 58.7089 26.3684 58.6634 26.3987 58.6532C26.6564 58.5368 26.8636 58.5419 27.0556 58.466H27.0506Z" fill="black"/>
<path d="M25.4635 65.6325C25.4635 65.6325 25.4888 65.6427 25.5141 65.6579L26.8229 65.6376C26.2216 65.2985 25.8021 65.096 25.7263 65.0605L25.4585 65.6275L25.4635 65.6325Z" fill="black"/>
<path d="M27.8387 58.8692C27.6365 58.7629 27.4192 58.6516 27.1969 58.5352C26.9948 58.6668 26.7522 58.7528 26.4642 58.7933C26.4389 58.8034 26.4136 58.8186 26.3833 58.8338C26.8027 59.0312 27.1969 59.2286 27.5456 59.4159C29.289 60.3574 32.7707 62.5695 33.5894 65.5358L34.221 65.5256C33.6298 63.1364 31.4366 60.8029 27.8437 58.8591L27.8387 58.8692Z" fill="black"/>
<path d="M27.1967 58.5357C27.1461 58.5104 27.1006 58.4851 27.0501 58.4648C26.8581 58.5408 26.6509 58.5357 26.3932 58.6521C26.3629 58.6673 26.2972 58.7078 26.2163 58.7635C26.2719 58.7888 26.3224 58.8141 26.378 58.8394C26.4083 58.8242 26.4387 58.8091 26.4589 58.7989C26.752 58.7584 26.9945 58.6673 27.1916 58.5408L27.1967 58.5357Z" fill="black"/>
<path d="M80.4591 59.4224C81.8235 58.6834 83.8145 57.8431 85.8611 57.0535C85.8359 56.8105 85.7954 56.6029 85.7348 56.4258C83.6276 57.2357 81.5658 58.1063 80.1559 58.8656C79.3423 59.306 78.6096 59.7666 77.9375 60.2425C78.1497 60.3741 78.3923 60.4652 78.6601 60.5107C79.3322 60.0552 79.9639 59.6856 80.4541 59.4174L80.4591 59.4224Z" fill="black"/>
<path d="M78.4781 60.6424C78.2305 60.5867 78.0031 60.4855 77.801 60.3438C77.5028 60.5614 77.2097 60.7841 76.9419 61.0069C77.1289 61.1385 77.3563 61.2195 77.6342 61.2701C77.9172 61.0474 78.2002 60.8348 78.4781 60.6424Z" fill="black"/>
<path d="M77.6344 61.2749C77.3615 61.2243 77.129 61.1433 76.9421 61.0117C76.9016 61.0472 76.8612 61.0826 76.8208 61.118C77.0027 61.2648 77.215 61.3762 77.4424 61.4268C77.503 61.3762 77.5687 61.3256 77.6293 61.2749H77.6344Z" fill="black"/>
<path d="M78.6654 60.5144C78.4026 60.4688 78.1601 60.3777 77.9428 60.2461C77.8973 60.2815 77.8467 60.3119 77.8013 60.3473C78.0034 60.484 78.2308 60.5852 78.4784 60.646C78.5391 60.6004 78.6047 60.5599 78.6654 60.5194V60.5144Z" fill="black"/>
<path d="M27.0957 65.7949L25.8223 65.8152C25.8829 65.8455 25.9486 65.881 26.0143 65.9164L27.2675 65.8962C27.2119 65.8607 27.1513 65.8253 27.0957 65.7949Z" fill="black"/>
<path d="M33.6447 65.7946L34.2764 65.7845C34.2713 65.7541 34.2612 65.7237 34.2562 65.6934L33.6245 65.7035C33.6296 65.7339 33.6397 65.7642 33.6447 65.7946Z" fill="black"/>
<path d="M89.0092 55.5345C89.186 55.58 89.3528 55.6408 89.5095 55.7066C89.5549 55.6914 89.6004 55.6762 89.6459 55.656C89.5701 55.4586 89.4791 55.2662 89.373 55.084C89.2416 55.1295 89.1052 55.1802 88.9688 55.2257C88.9839 55.327 89.0041 55.4282 89.0092 55.5294V55.5345Z" fill="black"/>
<path d="M19.4147 55.3672C19.2227 55.5089 19.0458 55.6709 18.8892 55.8481C21.1733 56.6681 23.796 57.6602 25.8426 58.5916C26.0548 58.4296 26.3075 58.3132 26.5652 58.2322C24.5337 57.2755 21.815 56.2328 19.4147 55.3723V55.3672Z" fill="black"/>
<path d="M86.018 56.9918C86.018 56.9918 86.0584 56.9766 86.0735 56.9715C86.0735 56.9563 86.0786 56.9361 86.0837 56.931C86.1039 56.931 86.119 56.9412 86.1392 56.9462C87.0034 56.6121 87.8776 56.2932 88.7114 55.9895L88.5042 55.949V55.7364C88.5042 55.6251 88.4941 55.5137 88.4789 55.4023C87.635 55.7061 86.7507 56.0351 85.8765 56.3692C85.9422 56.5615 85.9876 56.7691 86.018 56.9867V56.9918Z" fill="black"/>
<path d="M73.9756 64.9039V64.919L74.6376 64.9039C74.6376 64.8988 74.6376 64.8937 74.6426 64.8887L73.9756 64.9039Z" fill="black"/>
<path d="M86.0888 56.9316C86.0888 56.9316 86.0786 56.9521 86.0786 56.9725C86.099 56.9623 86.1245 56.9572 86.1449 56.947C86.1245 56.947 86.1092 56.9368 86.0888 56.9316Z" fill="black"/>
<path d="M26.7524 58.3177C26.6917 58.2873 26.6311 58.2569 26.5654 58.2266C26.3077 58.3076 26.055 58.424 25.8428 58.586C25.9034 58.6163 25.9641 58.6416 26.0297 58.672C26.247 58.5252 26.4997 58.4037 26.7524 58.3177Z" fill="black"/>
<path d="M74.0362 64.7417C74.016 64.7974 73.9958 64.848 73.9756 64.9037L74.6426 64.8885C74.6679 64.8329 74.6881 64.7772 74.7134 64.7266C74.486 64.7316 74.2636 64.7367 74.0362 64.7417Z" fill="black"/>
<path d="M26.8279 65.6387L25.519 65.6589C25.5746 65.6893 25.6808 65.7399 25.8273 65.8158L27.1007 65.7956C27.0047 65.7399 26.9138 65.6893 26.8279 65.6387Z" fill="black"/>
<path d="M34.2566 65.6932C34.2465 65.6375 34.2313 65.5869 34.2161 65.5312L33.5845 65.5414C33.5996 65.597 33.6097 65.6477 33.6249 65.7034L34.2566 65.6932Z" fill="black"/>
<path d="M85.8612 57.0533C85.9168 57.033 85.9673 57.0128 86.0178 56.9925C85.9926 56.7698 85.9471 56.5623 85.8764 56.375C85.8309 56.3952 85.7803 56.4104 85.7349 56.4307C85.7905 56.6078 85.8309 56.8103 85.8612 57.0584V57.0533Z" fill="black"/>
<path d="M19.8697 74.9059C19.3644 74.8047 18.859 74.6882 18.3486 74.5566C18.3486 74.7743 18.3587 74.992 18.3587 75.2147C18.8691 75.3412 19.3745 75.4526 19.8798 75.5538L19.8646 74.911L19.8697 74.9059Z" fill="black"/>
<path d="M27.5203 66.0469C27.111 66.0519 26.7067 66.0621 26.2974 66.0671C26.7572 66.3253 27.3687 66.6897 28.0155 67.1352L29.0767 67.1149C28.541 66.7049 28.0003 66.3455 27.5203 66.0469Z" fill="black"/>
<path d="M33.569 68.1273C33.5134 68.3146 33.4629 68.507 33.4073 68.6993C33.1445 69.6459 32.8463 70.6937 32.4118 71.6909C32.3764 71.4328 32.3107 71.1797 32.2248 70.9316C31.9266 72.0048 31.7144 73.1032 31.583 74.2117C31.8054 73.9587 32.0075 73.6954 32.1894 73.4221L32.2298 73.4373C32.25 73.3867 32.2652 73.331 32.2804 73.2804C33.1698 71.8782 33.6296 70.228 34.0086 68.8714C34.0642 68.674 34.1147 68.4867 34.1703 68.2995C34.3977 67.5149 34.4331 66.7201 34.2967 65.9355C34.0895 65.9355 33.8772 65.9406 33.67 65.9457C33.8014 66.6392 33.7863 67.363 33.5639 68.1273H33.569Z" fill="black"/>
<path d="M27.5204 66.0483C27.4345 65.9977 27.3536 65.9471 27.2728 65.8965L26.0195 65.9167C26.1054 65.9623 26.1964 66.0129 26.2975 66.0686C26.7068 66.0635 27.1111 66.0534 27.5204 66.0483Z" fill="black"/>
<path d="M33.645 65.7953C33.6551 65.8459 33.6652 65.8965 33.6753 65.9471C33.8825 65.9471 34.0948 65.9421 34.302 65.937C34.2918 65.8864 34.2868 65.8358 34.2767 65.7852L33.645 65.7953Z" fill="black"/>
<path d="M29.0766 67.1164L28.0154 67.1366C30.0115 68.5185 32.3563 70.6951 31.7044 73.0186C30.9868 74.117 29.9862 75.0231 28.5056 75.4432C29.3394 71.1912 22.1738 67.7593 21.8554 67.6125L21.5876 68.1794C21.623 68.1946 23.3765 69.0349 25.0289 70.3408C25.9587 70.3813 26.6915 71.1355 26.7572 71.9961C27.6516 73.0793 28.1923 74.3144 27.8234 75.5951C27.217 75.6963 26.5399 75.7267 25.7819 75.6659C23.897 75.5191 21.9161 75.3167 19.8745 74.9016L19.8897 75.5444C21.2844 75.8178 22.6488 76.0051 23.9778 76.1367C24.1547 76.0051 24.372 75.9038 24.6297 75.8583C25.3827 75.7115 25.9638 75.9342 26.3478 76.324C28.8492 76.3746 30.4764 75.4837 31.5932 74.2081C31.7246 73.0996 31.9368 72.0011 32.235 70.928C31.7246 69.4347 30.4057 68.1186 29.0868 67.1113L29.0766 67.1164Z" fill="black"/>
<path d="M26.3378 76.3276C25.9588 75.9378 25.3777 75.7151 24.6197 75.8619C24.3569 75.9125 24.1446 76.0137 23.9678 76.1403C24.5641 76.201 25.1503 76.2516 25.7263 76.2972C25.9335 76.3124 26.1357 76.3225 26.3378 76.3276Z" fill="black"/>
<path d="M26.7571 72.0009C26.6914 71.1404 25.9637 70.3913 25.0288 70.3457C25.6504 70.8367 26.2568 71.3935 26.7571 72.0009Z" fill="black"/>
<path d="M89.3633 74.6337C89.3633 74.8513 89.3734 75.0639 89.3784 75.2816C89.6564 75.2158 89.9394 75.1449 90.2223 75.069C90.2223 74.8513 90.2122 74.6337 90.2072 74.416C89.9242 74.4919 89.6412 74.5679 89.3633 74.6337Z" fill="black"/>
<path d="M88.4585 74.84L88.4737 75.4828C88.6101 75.4575 88.7415 75.4221 88.8779 75.3917C88.8779 75.1791 88.8678 74.9665 88.8628 74.7539C88.8476 74.7539 88.8375 74.759 88.8223 74.764C88.7011 74.7893 88.5798 74.8147 88.4585 74.84Z" fill="black"/>
<path d="M82.5358 65.6333L82.268 65.0664C82.1669 65.112 81.3988 65.4815 80.4185 66.0889L81.7172 66.0636C82.2023 65.7953 82.5206 65.6435 82.5358 65.6333Z" fill="black"/>
<path d="M73.824 68.3007C73.8796 68.4829 73.9301 68.6753 73.9857 68.8727C74.3647 70.2242 74.8296 71.8744 75.7139 73.2816C75.7291 73.3322 75.7493 73.3879 75.7645 73.4385L75.8049 73.4233C76.2496 74.0966 76.8004 74.709 77.4927 75.195C77.4725 74.9014 77.4422 74.6078 77.4068 74.3142C76.9722 73.9346 76.6033 73.4942 76.29 73.0184C76.0424 72.1376 76.2294 71.2771 76.6589 70.4773C76.5831 70.204 76.4972 69.9306 76.4113 69.6573C75.9868 70.2951 75.6786 70.9784 75.5825 71.6922C75.148 70.7 74.8498 69.6471 74.587 68.7006C74.5315 68.5032 74.4759 68.3108 74.4253 68.1286C74.112 67.0504 74.208 66.033 74.5567 65.1016C74.3344 65.1016 74.1171 65.1066 73.8998 65.1117C73.5511 66.1696 73.5157 67.2427 73.824 68.3057V68.3007Z" fill="black"/>
<path d="M73.9001 65.1107C74.1224 65.1107 74.3397 65.1056 74.557 65.1006C74.5823 65.0348 74.6075 64.9689 74.6328 64.9082L73.9658 64.9234C73.9405 64.9841 73.9152 65.0499 73.895 65.1107H73.9001Z" fill="black"/>
<path d="M82.2226 75.6707C81.4646 75.7314 80.7874 75.701 80.181 75.5998C79.0541 71.7072 86.341 68.2196 86.4118 68.1841L86.144 67.6172C85.8256 67.764 78.665 71.1959 79.4938 75.4479C78.6549 75.21 77.9727 74.8152 77.4067 74.3191C77.4371 74.6127 77.4674 74.9063 77.4927 75.1999C78.6347 76.0047 80.1659 76.4704 82.2681 76.3034C83.587 76.2022 84.9514 76.0705 86.3461 75.863C87.3568 75.7415 87.8368 75.6251 88.4533 75.4884C88.4533 75.4884 88.4635 75.4884 88.4685 75.4884L88.4533 74.8456C87.9278 74.9569 87.4073 75.0582 86.8868 75.1442C85.2798 75.4125 83.7184 75.5644 82.2125 75.6808L82.2226 75.6707Z" fill="black"/>
<path d="M81.7223 66.0625L80.4236 66.0878C79.1148 66.9028 77.427 68.148 76.4214 69.6564C76.5073 69.9298 76.5932 70.2031 76.669 70.4765C77.7504 68.4669 80.3782 66.8066 81.7223 66.0625Z" fill="black"/>
<path d="M17.939 54.8412C17.7672 54.7805 17.5954 54.7197 17.4337 54.6641C17.2972 54.8311 17.1759 55.0133 17.0698 55.2057C17.2265 55.2614 17.3882 55.317 17.5499 55.3727C17.6611 55.1854 17.7925 55.0032 17.939 54.8412Z" fill="black"/>
<path d="M17.4943 74.3284C17.3275 74.2778 17.1557 74.2323 16.9839 74.1816C16.9839 74.4094 16.994 74.6372 16.999 74.8599C17.1709 74.9106 17.3427 74.9662 17.5094 75.0118C17.5094 74.784 17.4993 74.5562 17.4943 74.3284Z" fill="black"/>
<path d="M88.5038 55.9493L88.711 55.9898C88.9788 55.8936 89.2466 55.7974 89.5043 55.7063C89.3426 55.6405 89.1809 55.5797 89.0041 55.5342C88.999 55.4329 88.9788 55.3317 88.9636 55.2305C88.8019 55.2861 88.6402 55.3469 88.4785 55.4076C88.4886 55.519 88.5038 55.6304 88.5038 55.7417V55.9543V55.9493Z" fill="black"/>
<path d="M88.878 75.3921C89.0447 75.3567 89.2115 75.3212 89.3782 75.2807C89.3782 75.0631 89.3681 74.8505 89.3631 74.6328C89.1963 74.6733 89.0296 74.7138 88.8628 74.7543C88.8628 74.9669 88.8729 75.1795 88.878 75.3921Z" fill="black"/>
<path d="M53.6614 33.631C55.6402 33.631 57.2443 31.1336 57.2443 28.0528C57.2443 24.9721 55.6402 22.4746 53.6614 22.4746C51.6827 22.4746 50.0786 24.9721 50.0786 28.0528C50.0786 31.1336 51.6827 33.631 53.6614 33.631Z" fill="black"/>
<path d="M73.0764 26.023C72.1972 25.2029 69.8575 23.4566 66.8356 24.7018C63.9602 25.8812 63.1668 28.0933 62.9496 29.1715C62.8889 29.46 63.0557 29.7333 63.2881 29.7941C63.3033 29.7941 63.3184 29.8042 63.3336 29.8093C63.3437 29.8093 63.3538 29.8194 63.3639 29.8194C63.3791 29.8194 63.3942 29.8143 63.4145 29.8093C63.4448 29.8093 63.4751 29.8042 63.5054 29.7941C63.5105 29.7941 63.5206 29.789 63.5256 29.7839C63.5964 29.7586 63.6621 29.7181 63.7126 29.6523C64.0714 29.212 64.9456 28.4375 66.7598 28.2856C68.6346 28.1287 69.6857 29.1613 70.1152 29.7181C70.2567 29.9054 70.4891 29.9459 70.666 29.8143H70.6761C70.9086 29.6372 70.954 29.2575 70.7671 29.0145C70.2163 28.2907 68.9277 27.0455 66.6991 27.2277C65.7491 27.3087 65.0164 27.5517 64.4453 27.8452C64.9254 27.0809 65.744 26.2609 67.1287 25.6889C69.7615 24.6056 71.803 26.1495 72.5408 26.843C72.7177 27.01 72.9703 26.9898 73.127 26.7974C73.314 26.5696 73.2887 26.2052 73.0815 26.0078L73.0764 26.023Z" fill="black"/>
</g>
<defs>
<clipPath id="clip0_2619_4751">
<rect width="108" height="101" fill="white"/>
</clipPath>
</defs>
</svg>
