<svg width="343" height="308" viewBox="0 0 343 308" fill="none" xmlns="http://www.w3.org/2000/svg">
<path d="M218.615 87.2098C218.615 143.823 159.826 132.684 159.446 151.78C126.074 139.332 85.4586 156.969 52.0809 138.892C23.7467 123.547 19.2591 94.9003 30.1301 65.4858C39.4434 40.286 89.801 24.2116 126.035 24.2108C160.006 24.2099 218.615 40.6455 218.615 87.2098Z" fill="#3953CD"/>
<path d="M55.456 72.1143C55.456 70.5249 55.8222 69.0991 56.5545 67.837C57.3025 66.5748 58.3075 65.5932 59.5696 64.892C60.8474 64.1752 62.242 63.8168 63.7534 63.8168C65.483 63.8168 67.0179 64.2453 68.3579 65.1023C69.7136 65.9438 70.6952 67.1436 71.303 68.7018H68.1008C67.6801 67.8448 67.0958 67.2059 66.3478 66.7852C65.5999 66.3645 64.7351 66.1541 63.7534 66.1541C62.6783 66.1541 61.72 66.3956 60.8785 66.8787C60.0371 67.3617 59.3749 68.0551 58.8918 68.9589C58.4244 69.8627 58.1906 70.9144 58.1906 72.1143C58.1906 73.3141 58.4244 74.3659 58.8918 75.2696C59.3749 76.1734 60.0371 76.8746 60.8785 77.3732C61.72 77.8563 62.6783 78.0978 63.7534 78.0978C64.7351 78.0978 65.5999 77.8874 66.3478 77.4667C67.0958 77.046 67.6801 76.4071 68.1008 75.5501H71.303C70.6952 77.1083 69.7136 78.3081 68.3579 79.1496C67.0179 79.991 65.483 80.4117 63.7534 80.4117C62.2264 80.4117 60.8318 80.0611 59.5696 79.3599C58.3075 78.6432 57.3025 77.6537 56.5545 76.3915C55.8222 75.1294 55.456 73.7036 55.456 72.1143ZM80.008 80.4818C78.7926 80.4818 77.694 80.2092 76.7124 79.6638C75.7307 79.1028 74.9594 78.3237 74.3984 77.3265C73.8375 76.3136 73.557 75.145 73.557 73.8205C73.557 72.5116 73.8453 71.3507 74.4218 70.3379C74.9983 69.3251 75.7852 68.546 76.7825 68.0006C77.7797 67.4552 78.8939 67.1825 80.1248 67.1825C81.3558 67.1825 82.4699 67.4552 83.4672 68.0006C84.4645 68.546 85.2513 69.3251 85.8279 70.3379C86.4044 71.3507 86.6927 72.5116 86.6927 73.8205C86.6927 75.1294 86.3966 76.2903 85.8045 77.3031C85.2124 78.3159 84.4021 79.1028 83.3737 79.6638C82.3609 80.2092 81.239 80.4818 80.008 80.4818ZM80.008 78.1679C80.6936 78.1679 81.3325 78.0043 81.9246 77.6771C82.5323 77.3498 83.0231 76.859 83.3971 76.2046C83.771 75.5501 83.958 74.7554 83.958 73.8205C83.958 72.8856 83.7788 72.0987 83.4205 71.4598C83.0621 70.8054 82.5868 70.3145 81.9947 69.9873C81.4026 69.6601 80.7637 69.4965 80.0781 69.4965C79.3925 69.4965 78.7536 69.6601 78.1615 69.9873C77.585 70.3145 77.1253 70.8054 76.7825 71.4598C76.4397 72.0987 76.2683 72.8856 76.2683 73.8205C76.2683 75.2073 76.6189 76.2825 77.3201 77.046C78.0368 77.7939 78.9328 78.1679 80.008 78.1679ZM104.917 67.1825C105.929 67.1825 106.833 67.3929 107.628 67.8136C108.438 68.2343 109.069 68.8576 109.521 69.6835C109.989 70.5093 110.222 71.5066 110.222 72.6752V80.2715H107.581V73.0726C107.581 71.9195 107.293 71.0391 106.716 70.4314C106.14 69.8081 105.353 69.4965 104.356 69.4965C103.358 69.4965 102.564 69.8081 101.972 70.4314C101.395 71.0391 101.107 71.9195 101.107 73.0726V80.2715H98.4656V73.0726C98.4656 71.9195 98.1773 71.0391 97.6008 70.4314C97.0243 69.8081 96.2374 69.4965 95.2401 69.4965C94.2429 69.4965 93.4482 69.8081 92.8561 70.4314C92.2795 71.0391 91.9913 71.9195 91.9913 73.0726V80.2715H89.3267V67.3929H91.9913V68.8654C92.4276 68.3356 92.9807 67.9227 93.6508 67.6266C94.3208 67.3306 95.0376 67.1825 95.8011 67.1825C96.8295 67.1825 97.7488 67.4007 98.5591 67.837C99.3694 68.2733 99.9927 68.9044 100.429 69.7302C100.819 68.9511 101.426 68.3356 102.252 67.8837C103.078 67.4163 103.966 67.1825 104.917 67.1825ZM125.416 73.5167C125.416 73.9997 125.385 74.436 125.323 74.8255H115.483C115.561 75.854 115.942 76.6798 116.628 77.3031C117.314 77.9264 118.155 78.238 119.152 78.238C120.586 78.238 121.599 77.6381 122.191 76.4383H125.066C124.676 77.6225 123.967 78.5964 122.939 79.3599C121.926 80.1079 120.664 80.4818 119.152 80.4818C117.921 80.4818 116.815 80.2092 115.833 79.6638C114.867 79.1028 114.104 78.3237 113.543 77.3265C112.997 76.3136 112.725 75.145 112.725 73.8205C112.725 72.496 112.99 71.3352 113.519 70.3379C114.065 69.3251 114.82 68.546 115.787 68.0006C116.768 67.4552 117.89 67.1825 119.152 67.1825C120.368 67.1825 121.451 67.4474 122.401 67.9772C123.352 68.507 124.092 69.255 124.622 70.221C125.151 71.1715 125.416 72.2701 125.416 73.5167ZM122.635 72.6752C122.619 71.6935 122.269 70.9067 121.583 70.3145C120.897 69.7224 120.048 69.4264 119.035 69.4264C118.116 69.4264 117.329 69.7224 116.675 70.3145C116.02 70.8911 115.631 71.678 115.506 72.6752H122.635ZM133.222 73.7738C133.222 72.4804 133.487 71.3352 134.017 70.3379C134.562 69.3407 135.294 68.5693 136.214 68.024C137.149 67.463 138.177 67.1825 139.299 67.1825C140.312 67.1825 141.192 67.3851 141.94 67.7902C142.704 68.1798 143.311 68.6706 143.763 69.2627V67.3929H146.451V80.2715H143.763V78.3549C143.311 78.9626 142.696 79.469 141.917 79.8741C141.138 80.2793 140.249 80.4818 139.252 80.4818C138.146 80.4818 137.133 80.2014 136.214 79.6404C135.294 79.0639 134.562 78.2692 134.017 77.2564C133.487 76.2279 133.222 75.0671 133.222 73.7738ZM143.763 73.8205C143.763 72.9323 143.576 72.161 143.202 71.5066C142.844 70.8521 142.368 70.3535 141.776 70.0107C141.184 69.6679 140.545 69.4965 139.86 69.4965C139.174 69.4965 138.535 69.6679 137.943 70.0107C137.351 70.3379 136.868 70.8287 136.494 71.4832C136.136 72.1221 135.956 72.8856 135.956 73.7738C135.956 74.6619 136.136 75.441 136.494 76.1111C136.868 76.7811 137.351 77.2953 137.943 77.6537C138.551 77.9965 139.19 78.1679 139.86 78.1679C140.545 78.1679 141.184 77.9965 141.776 77.6537C142.368 77.3109 142.844 76.8123 143.202 76.1578C143.576 75.4878 143.763 74.7087 143.763 73.8205ZM156.448 67.1825C157.461 67.1825 158.365 67.3929 159.16 67.8136C159.97 68.2343 160.601 68.8576 161.053 69.6835C161.505 70.5093 161.731 71.5066 161.731 72.6752V80.2715H159.09V73.0726C159.09 71.9195 158.801 71.0391 158.225 70.4314C157.648 69.8081 156.861 69.4965 155.864 69.4965C154.867 69.4965 154.072 69.8081 153.48 70.4314C152.904 71.0391 152.615 71.9195 152.615 73.0726V80.2715H149.951V67.3929H152.615V68.8654C153.052 68.3356 153.605 67.9227 154.275 67.6266C154.96 67.3306 155.685 67.1825 156.448 67.1825ZM164.241 73.7738C164.241 72.4804 164.506 71.3352 165.036 70.3379C165.581 69.3407 166.314 68.5693 167.233 68.024C168.168 67.463 169.204 67.1825 170.342 67.1825C171.183 67.1825 172.009 67.3695 172.819 67.7435C173.645 68.1019 174.3 68.5849 174.783 69.1926V62.9754H177.471V80.2715H174.783V78.3315C174.346 78.9548 173.739 79.469 172.96 79.8741C172.196 80.2793 171.316 80.4818 170.318 80.4818C169.197 80.4818 168.168 80.2014 167.233 79.6404C166.314 79.0639 165.581 78.2692 165.036 77.2564C164.506 76.2279 164.241 75.0671 164.241 73.7738ZM174.783 73.8205C174.783 72.9323 174.596 72.161 174.222 71.5066C173.863 70.8521 173.388 70.3535 172.796 70.0107C172.204 69.6679 171.565 69.4965 170.879 69.4965C170.194 69.4965 169.555 69.6679 168.963 70.0107C168.371 70.3379 167.888 70.8287 167.514 71.4832C167.155 72.1221 166.976 72.8856 166.976 73.7738C166.976 74.6619 167.155 75.441 167.514 76.1111C167.888 76.7811 168.371 77.2953 168.963 77.6537C169.57 77.9965 170.209 78.1679 170.879 78.1679C171.565 78.1679 172.204 77.9965 172.796 77.6537C173.388 77.3109 173.863 76.8123 174.222 76.1578C174.596 75.4878 174.783 74.7087 174.783 73.8205ZM90.1445 94.1825C91.1418 94.1825 92.0222 94.3851 92.7857 94.7902C93.5648 95.1798 94.1725 95.6706 94.6088 96.2627V94.3929H97.2967V107.482C97.2967 108.666 97.0474 109.718 96.5487 110.637C96.0501 111.572 95.3256 112.304 94.375 112.834C93.4401 113.364 92.3182 113.629 91.0093 113.629C89.2641 113.629 87.815 113.216 86.6619 112.39C85.5088 111.58 84.8544 110.474 84.6986 109.071H87.3397C87.5423 109.741 87.9708 110.279 88.6253 110.684C89.2953 111.105 90.09 111.315 91.0093 111.315C92.0845 111.315 92.9493 110.988 93.6037 110.333C94.2738 109.679 94.6088 108.728 94.6088 107.482V105.332C94.1569 105.939 93.5414 106.453 92.7623 106.874C91.9988 107.279 91.1262 107.482 90.1445 107.482C89.0226 107.482 87.9942 107.201 87.0593 106.64C86.1399 106.064 85.4076 105.269 84.8622 104.256C84.3324 103.228 84.0675 102.067 84.0675 100.774C84.0675 99.4804 84.3324 98.3352 84.8622 97.3379C85.4076 96.3407 86.1399 95.5693 87.0593 95.024C87.9942 94.463 89.0226 94.1825 90.1445 94.1825ZM94.6088 100.821C94.6088 99.9323 94.4218 99.161 94.0478 98.5066C93.6894 97.8521 93.2142 97.3535 92.6221 97.0107C92.0299 96.6679 91.3911 96.4965 90.7055 96.4965C90.0199 96.4965 89.381 96.6679 88.7889 97.0107C88.1968 97.3379 87.7137 97.8287 87.3397 98.4832C86.9814 99.1221 86.8022 99.8856 86.8022 100.774C86.8022 101.662 86.9814 102.441 87.3397 103.111C87.7137 103.781 88.1968 104.295 88.7889 104.654C89.3966 104.997 90.0354 105.168 90.7055 105.168C91.3911 105.168 92.0299 104.997 92.6221 104.654C93.2142 104.311 93.6894 103.812 94.0478 103.158C94.4218 102.488 94.6088 101.709 94.6088 100.821ZM112.6 100.517C112.6 101 112.569 101.436 112.506 101.826H102.666C102.744 102.854 103.126 103.68 103.812 104.303C104.497 104.926 105.339 105.238 106.336 105.238C107.769 105.238 108.782 104.638 109.374 103.438H112.249C111.86 104.623 111.151 105.596 110.122 106.36C109.109 107.108 107.847 107.482 106.336 107.482C105.105 107.482 103.999 107.209 103.017 106.664C102.051 106.103 101.287 105.324 100.726 104.326C100.181 103.314 99.9083 102.145 99.9083 100.821C99.9083 99.496 100.173 98.3352 100.703 97.3379C101.248 96.3251 102.004 95.546 102.97 95.0006C103.952 94.4552 105.074 94.1825 106.336 94.1825C107.551 94.1825 108.634 94.4474 109.585 94.9772C110.535 95.507 111.275 96.255 111.805 97.221C112.335 98.1715 112.6 99.2701 112.6 100.517ZM109.818 99.6752C109.803 98.6935 109.452 97.9067 108.767 97.3145C108.081 96.7224 107.232 96.4264 106.219 96.4264C105.3 96.4264 104.513 96.7224 103.858 97.3145C103.204 97.8911 102.814 98.678 102.69 99.6752H109.818ZM118.331 96.5666V103.695C118.331 104.178 118.44 104.529 118.658 104.747C118.892 104.95 119.281 105.051 119.827 105.051H121.463V107.271H119.359C118.159 107.271 117.24 106.991 116.601 106.43C115.962 105.869 115.643 104.958 115.643 103.695V96.5666H114.124V94.3929H115.643V91.1908H118.331V94.3929H121.463V96.5666H118.331ZM131.346 92.6867C130.863 92.6867 130.457 92.523 130.13 92.1958C129.803 91.8686 129.639 91.4635 129.639 90.9804C129.639 90.4974 129.803 90.0922 130.13 89.765C130.457 89.4378 130.863 89.2742 131.346 89.2742C131.813 89.2742 132.21 89.4378 132.538 89.765C132.865 90.0922 133.029 90.4974 133.029 90.9804C133.029 91.4635 132.865 91.8686 132.538 92.1958C132.21 92.523 131.813 92.6867 131.346 92.6867ZM132.655 94.3929V107.271H129.99V94.3929H132.655ZM139.261 96.5666V103.695C139.261 104.178 139.371 104.529 139.589 104.747C139.822 104.95 140.212 105.051 140.757 105.051H142.393V107.271H140.29C139.09 107.271 138.171 106.991 137.532 106.43C136.893 105.869 136.574 104.958 136.574 103.695V96.5666H135.054V94.3929H136.574V91.1908H139.261V94.3929H142.393V96.5666H139.261ZM148.192 91.0272L147.888 102.363H145.667L145.364 91.0272H148.192ZM146.859 107.435C146.376 107.435 145.971 107.271 145.644 106.944C145.317 106.617 145.153 106.212 145.153 105.729C145.153 105.246 145.317 104.841 145.644 104.513C145.971 104.186 146.376 104.023 146.859 104.023C147.327 104.023 147.724 104.186 148.051 104.513C148.379 104.841 148.542 105.246 148.542 105.729C148.542 106.212 148.379 106.617 148.051 106.944C147.724 107.271 147.327 107.435 146.859 107.435Z" fill="#FFFEFC"/>
<path d="M306.952 205.109C296.81 195.742 279.901 180.308 270.884 178.428C261.867 176.548 219.412 193.482 210.395 202.516C201.378 211.55 201.005 216.063 198.37 223.971C195.741 231.878 194.99 237.145 193.486 242.412C191.982 247.679 204.758 264.62 207.008 269.14C209.263 273.654 209.263 276.294 212.265 278.928C215.272 281.561 240.819 283.821 248.332 286.081C255.845 288.342 255.093 287.588 259.605 287.588C264.117 287.588 268.622 284.201 273.506 284.201C278.39 284.201 291.393 288.482 297.482 285.168C302.846 282.241 302.06 273.287 306.945 269.147C311.829 265.007 312.581 264.253 314.837 256.726C317.093 249.199 314.085 220.59 311.829 214.943C309.573 209.296 306.945 205.116 306.945 205.116L306.952 205.109Z" fill="#FFBA0A"/>
<path d="M197.697 237.502C187.396 222.501 173.302 196.899 175.338 181.052C175.957 176.245 178.047 172.664 181.547 170.391C187.769 166.357 192.387 165.117 195.661 166.611C200.173 168.658 201.178 175.491 202.069 181.525C202.356 183.458 202.622 185.292 202.994 186.905C204.239 192.399 207.366 199.02 210.62 203.993C211.599 202.853 212.723 201.64 214.021 200.34C223.204 191.139 266.239 174.058 275.415 175.978C284.332 177.838 300.257 192.132 310.005 201.106C312.062 197.173 313.799 192.879 314.657 189.112C315.023 187.492 315.296 185.665 315.582 183.732C316.474 177.698 317.485 170.858 321.99 168.818C325.271 167.331 329.882 168.571 336.104 172.598C339.618 174.871 341.708 178.458 342.326 183.265C344.123 197.233 333.376 218.787 323.754 233.975L322.216 236.362C321.711 237.135 321.212 237.882 320.719 238.615C321.132 245.803 321.065 252.45 320.14 255.55C317.818 263.297 316.926 264.217 311.942 268.444C309.852 270.218 308.848 273.124 307.876 275.931C306.705 279.331 305.487 282.852 302.313 284.578C297.794 287.039 290.182 285.685 284.066 284.592C282.423 284.298 280.919 284.032 279.681 283.878C278.603 291.239 277.804 298.639 278.197 299.466C278.789 300.453 282.07 300.733 284.239 300.253C285.038 300.079 286.196 299.666 287.533 299.186C290.388 298.166 293.942 296.906 296.816 296.906C298.36 296.906 299.678 297.673 300.516 299.066C301.807 301.2 301.8 304.506 300.503 307.107C300.23 307.653 299.704 307.993 299.132 307.993H273.186C272.461 307.993 271.875 307.36 271.875 306.58V285.085C271.569 285.199 271.27 285.305 270.964 285.419C268.688 286.259 266.332 287.125 263.95 287.125C262.938 287.125 262.206 287.165 261.561 287.199C261.055 287.225 260.609 287.245 260.163 287.245C258.613 287.245 257.009 286.965 252.391 285.579C252.344 285.565 252.291 285.552 252.244 285.539V306.593C252.244 307.367 251.659 308 250.933 308H224.988C224.415 308 223.89 307.66 223.617 307.113C222.319 304.526 222.312 301.233 223.603 299.113C224.449 297.726 225.759 296.966 227.303 296.966C230.178 296.966 233.732 298.226 236.586 299.239C237.924 299.713 239.082 300.126 239.88 300.299C242.05 300.773 245.337 300.5 245.923 299.526C246.322 298.693 245.517 291.299 244.439 283.965C242.023 283.565 239.341 283.165 236.593 282.752C224.974 281.012 217.787 279.838 215.957 278.225C213.781 276.318 213.056 274.431 212.138 272.044C211.698 270.904 211.199 269.611 210.461 268.131C209.875 266.964 208.491 264.824 206.887 262.344C200.739 252.836 195.741 244.649 196.866 240.682C197.165 239.636 197.431 238.582 197.697 237.502ZM208.564 261.25C210.268 263.884 211.619 265.964 212.251 267.231C213.029 268.797 213.548 270.138 214.001 271.318C214.853 273.531 215.465 275.125 217.275 276.711C218.805 278.051 228.834 279.551 236.892 280.765C239.408 281.138 241.87 281.512 244.126 281.878C244.479 281.932 244.825 281.992 245.164 282.045C245.25 282.612 245.357 283.318 245.477 284.125C246.249 289.399 247.506 298.826 246.781 300.026C245.743 301.753 241.571 301.686 239.674 301.273C238.816 301.086 237.631 300.666 236.26 300.179C233.479 299.193 230.012 297.966 227.303 297.966C225.786 297.966 224.914 298.873 224.449 299.633C223.331 301.473 223.351 304.36 224.502 306.653C224.602 306.86 224.788 306.987 224.981 306.987H250.927C251.093 306.987 251.24 306.807 251.24 306.587V283.205C251.592 283.285 251.925 283.372 252.238 283.452C252.491 283.518 252.737 283.585 252.956 283.652C258.579 285.339 259.358 285.299 261.448 285.192C262.086 285.159 262.878 285.119 263.943 285.119C265.973 285.119 268.062 284.352 270.271 283.538C270.797 283.345 271.33 283.152 271.869 282.965C272.201 282.852 272.534 282.738 272.867 282.632V306.587C272.867 306.807 273.006 306.987 273.179 306.987H299.125C299.318 306.987 299.505 306.86 299.604 306.653C300.756 304.346 300.776 301.446 299.658 299.599C299.192 298.833 298.32 297.919 296.803 297.919C294.101 297.919 290.634 299.153 287.853 300.146C286.482 300.633 285.297 301.053 284.439 301.246C282.536 301.66 278.363 301.726 277.332 299.993C276.6 298.759 277.904 289.025 278.669 283.778C278.783 283.005 278.882 282.332 278.969 281.798C279.282 281.825 279.614 281.858 279.96 281.905C281.245 282.065 282.755 282.338 284.399 282.632C289.902 283.612 297.435 284.958 301.341 282.832C303.837 281.472 304.875 278.465 305.973 275.285C307.031 272.218 308.122 269.051 310.631 266.924C315.276 262.984 315.995 262.377 318.21 254.977C318.969 252.45 319.096 247.236 318.849 241.309C316.241 245.016 313.932 247.956 312.295 249.756L311.556 249.083C313.472 246.976 316.001 243.709 318.769 239.709C319.368 238.842 319.981 237.942 320.599 237.009C321.032 236.355 321.471 235.689 321.91 235.009C322.416 234.229 322.922 233.428 323.434 232.615C325.876 228.701 328.352 224.441 330.641 220.068C336.297 209.28 342.726 194.159 341.335 183.392C340.816 179.332 339.172 176.225 336.477 174.105C336.683 176.205 336.916 180.645 335.486 183.245L334.614 182.765C336.151 179.965 335.532 174.465 335.386 173.324C333.496 172.111 331.772 171.171 330.209 170.498C330.448 172.411 330.781 177.025 328.891 180.132L328.039 179.612C329.962 176.445 329.324 171.284 329.144 170.071C326.389 169.058 324.166 168.944 322.423 169.738C318.41 171.558 317.439 178.111 316.587 183.892C316.301 185.845 316.028 187.699 315.649 189.352C314.783 193.172 312.967 197.679 310.784 201.826C310.465 202.44 310.132 203.04 309.799 203.633C309.48 204.193 309.16 204.747 308.834 205.28C308.475 205.867 308.109 206.44 307.743 206.993C304.815 211.407 301.694 214.594 299.405 214.621L299.392 213.62C301.281 213.6 304.183 210.567 306.984 206.3L308.069 204.587C308.395 204.047 308.715 203.493 309.034 202.933C299.944 194.559 283.501 179.718 275.016 177.951C266.425 176.158 224.116 193.079 215.438 201.773C214.021 203.193 212.823 204.5 211.792 205.727C211.792 205.727 211.798 205.733 211.805 205.74L213.076 207.407C215.052 209.847 216.922 211.4 218.266 211.414L218.253 212.414C216.629 212.394 214.58 210.774 212.484 208.26C212.051 207.747 211.625 207.193 211.193 206.607C211.173 206.58 211.153 206.553 211.133 206.527C210.734 205.98 210.334 205.407 209.942 204.813C206.475 199.6 203.267 192.652 202.016 187.139C201.644 185.485 201.371 183.639 201.078 181.678C200.226 175.898 199.255 169.344 195.242 167.524C193.498 166.731 191.269 166.844 188.521 167.857C188.335 169.078 187.702 174.238 189.625 177.398L188.774 177.918C186.884 174.811 187.217 170.198 187.456 168.284C185.892 168.958 184.169 169.898 182.279 171.118C182.133 172.258 181.514 177.758 183.044 180.558L182.172 181.038C180.748 178.438 180.975 173.998 181.181 171.898C178.486 174.011 176.849 177.125 176.323 181.185C174.939 191.952 181.367 207.073 187.004 217.854C190.491 224.521 194.403 230.928 197.997 236.222C198.509 236.982 199.022 237.715 199.521 238.429C199.674 238.642 199.82 238.855 199.967 239.069C200.652 240.029 201.317 240.942 201.956 241.796C203.507 243.856 204.911 245.589 206.089 246.876L205.35 247.549C204.425 246.536 203.294 245.163 202.016 243.502L199.94 240.716C199.694 240.382 199.448 240.029 199.195 239.676C199.062 240.196 198.915 240.716 198.769 241.236C197.797 244.649 204.525 255.043 208.544 261.257L208.564 261.25Z" fill="#181818"/>
<path d="M224.489 206.273C225.647 205.193 228.728 202.893 232.707 204.533C236.494 206.086 237.539 209 237.825 210.42C237.905 210.8 237.685 211.16 237.379 211.24C237.359 211.24 237.339 211.253 237.319 211.26C237.306 211.26 237.292 211.273 237.279 211.273C237.259 211.273 237.239 211.267 237.212 211.26C237.173 211.26 237.133 211.253 237.093 211.24C237.086 211.24 237.073 211.233 237.066 211.227C236.973 211.193 236.886 211.14 236.82 211.053C236.347 210.473 235.196 209.453 232.807 209.253C230.338 209.046 228.954 210.407 228.389 211.14C228.202 211.387 227.896 211.44 227.663 211.267H227.65C227.344 211.033 227.284 210.533 227.53 210.213C228.255 209.26 229.952 207.62 232.887 207.86C234.138 207.966 235.103 208.286 235.855 208.673C235.223 207.666 234.145 206.586 232.321 205.833C228.854 204.406 226.166 206.44 225.194 207.353C224.961 207.573 224.629 207.546 224.422 207.293C224.176 206.993 224.21 206.513 224.482 206.253L224.489 206.273Z" fill="#181818"/>
<path d="M259.384 206.273C258.226 205.193 255.145 202.893 251.165 204.533C247.379 206.086 246.334 209 246.048 210.42C245.968 210.8 246.188 211.16 246.494 211.24C246.514 211.24 246.534 211.253 246.554 211.26C246.567 211.26 246.58 211.273 246.594 211.273C246.614 211.273 246.634 211.267 246.66 211.26C246.7 211.26 246.74 211.253 246.78 211.24C246.787 211.24 246.8 211.233 246.807 211.227C246.9 211.193 246.986 211.14 247.053 211.053C247.525 210.473 248.677 209.453 251.066 209.253C253.534 209.046 254.919 210.407 255.484 211.14C255.671 211.387 255.977 211.44 256.21 211.267H256.223C256.529 211.033 256.589 210.533 256.343 210.213C255.617 209.26 253.92 207.62 250.986 207.86C249.735 207.966 248.77 208.286 248.018 208.673C248.65 207.666 249.728 206.586 251.551 205.833C255.018 204.406 257.707 206.44 258.678 207.353C258.911 207.573 259.244 207.546 259.45 207.293C259.697 206.993 259.663 206.513 259.39 206.253L259.384 206.273Z" fill="#181818"/>
<path d="M247.853 248.288C243.424 248.288 239.834 243.411 239.834 237.394C239.834 231.377 243.424 226.5 247.853 226.5C252.281 226.5 255.871 231.377 255.871 237.394C255.871 243.411 252.281 248.288 247.853 248.288Z" fill="#181818"/>
<g clip-path="url(#clip0_1859_5067)">
<path d="M149.007 288.722C147.205 289.184 145.068 288.984 143.003 288.791C140.911 288.597 138.747 288.395 136.913 288.866C135.079 289.336 133.28 290.556 131.541 291.734C129.823 292.897 128.047 294.102 126.246 294.564C125.592 294.732 124.977 294.794 124.371 294.758C121.765 294.596 119.56 292.641 117.424 290.746C115.902 289.396 114.324 287.998 112.666 287.339C110.979 286.671 108.855 286.606 106.801 286.542C103.97 286.454 101.047 286.364 99.0635 284.727C97.1068 283.109 96.4691 280.268 95.8514 277.522C95.3979 275.501 94.9316 273.413 93.9399 271.856C93.0049 270.385 91.4354 269.173 89.7703 267.893C87.4957 266.139 85.1409 264.327 84.4772 261.741C83.8134 259.156 85.0043 256.434 86.1528 253.801C86.9958 251.877 87.7873 250.059 87.8981 248.319C88.0134 246.479 87.4205 244.423 86.8444 242.433C86.0633 239.73 85.254 236.933 86.1894 234.573C87.1389 232.182 89.6571 230.696 92.0958 229.255C93.8649 228.209 95.6992 227.129 96.8555 225.73C97.9914 224.355 98.697 222.371 99.3805 220.454C100.337 217.77 101.332 214.994 103.536 213.592C104.049 213.264 104.619 213.027 105.273 212.859C107.074 212.396 109.211 212.597 111.276 212.789C113.368 212.984 115.528 213.187 117.366 212.715C119.204 212.243 120.999 211.025 122.738 209.847C124.456 208.684 126.232 207.479 128.033 207.016C128.687 206.849 129.302 206.786 129.908 206.822C132.514 206.985 134.72 208.944 136.855 210.834C138.377 212.185 139.955 213.583 141.613 214.241C143.3 214.91 145.424 214.974 147.483 215.038C150.313 215.126 153.236 215.216 155.22 216.853C157.176 218.471 157.814 221.312 158.432 224.057C158.885 226.079 159.356 228.166 160.343 229.723C161.278 231.194 162.848 232.407 164.513 233.686C166.788 235.441 169.142 237.253 169.806 239.838C170.47 242.424 169.279 245.146 168.13 247.779C167.287 249.702 166.496 251.521 166.385 253.26C166.27 255.101 166.863 257.157 167.439 259.146C168.22 261.85 169.029 264.647 168.094 267.007C167.144 269.397 164.626 270.884 162.187 272.324C160.418 273.371 158.584 274.451 157.428 275.849C156.292 277.225 155.586 279.209 154.899 281.127C153.942 283.811 152.948 286.587 150.743 287.989C150.23 288.316 149.66 288.554 149.007 288.722ZM136.797 288.412C138.708 287.921 140.912 288.126 143.045 288.328C145.164 288.528 147.167 288.715 148.887 288.274C149.492 288.118 150.018 287.896 150.49 287.597C152.561 286.286 153.522 283.583 154.455 280.975C155.154 279.019 155.876 276.997 157.062 275.56C158.271 274.096 160.135 272.995 161.943 271.93C164.313 270.529 166.764 269.086 167.652 266.846C168.53 264.635 167.741 261.917 166.984 259.289C166.398 257.263 165.789 255.164 165.91 253.243C166.026 251.419 166.874 249.482 167.694 247.604C168.813 245.044 169.966 242.396 169.342 239.966C168.719 237.536 166.429 235.772 164.219 234.067C162.596 232.816 160.919 231.526 159.94 229.984C158.909 228.359 158.432 226.23 157.968 224.168C157.369 221.496 156.748 218.738 154.914 217.223C153.057 215.688 150.213 215.6 147.462 215.518C145.365 215.455 143.201 215.388 141.436 214.687C139.701 214.001 138.095 212.576 136.543 211.197C134.469 209.357 132.326 207.456 129.879 207.304C129.322 207.269 128.753 207.328 128.149 207.483C126.429 207.924 124.764 209.053 122.999 210.251C121.227 211.454 119.394 212.695 117.483 213.186C115.571 213.677 113.367 213.472 111.234 213.27C109.115 213.07 107.112 212.883 105.392 213.325C104.788 213.48 104.261 213.702 103.789 214.002C101.718 215.313 100.757 218.015 99.8245 220.623C99.1249 222.579 98.4072 224.601 97.2175 226.038C96.0085 227.502 94.1405 228.604 92.3367 229.668C89.9663 231.069 87.5154 232.512 86.6273 234.752C85.7493 236.963 86.5386 239.682 87.2957 242.309C87.8813 244.335 88.4887 246.431 88.3678 248.351C88.2524 250.175 87.4044 252.112 86.5846 253.99C85.4653 256.55 84.3108 259.194 84.9347 261.624C85.5585 264.055 87.8486 265.818 90.0585 267.523C91.6814 268.774 93.3578 270.064 94.3372 271.606C95.3683 273.231 95.845 275.36 96.308 277.418C96.9058 280.086 97.5276 282.848 99.362 284.363C101.219 285.898 104.067 285.985 106.815 286.072C108.912 286.135 111.076 286.202 112.841 286.903C114.576 287.589 116.183 289.014 117.734 290.393C119.808 292.233 121.951 294.134 124.398 294.286C124.955 294.321 125.524 294.262 126.128 294.107C127.848 293.666 129.513 292.537 131.274 291.341C133.046 290.137 134.879 288.896 136.791 288.405L136.797 288.412Z" fill="#414143"/>
<path d="M166.404 240.716C167.433 244.723 163.479 249.151 163.235 253.067C162.979 257.126 166.304 262.02 164.833 265.719C163.349 269.457 157.562 270.742 154.997 273.843C152.459 276.916 152.297 282.848 148.863 285.027C145.549 287.127 140.136 284.781 136.128 285.81C132.121 286.839 128.507 291.502 124.591 291.258C120.533 291.002 117.532 285.877 113.829 284.411C110.092 282.928 104.401 284.589 101.296 282.029C98.2252 279.495 98.7814 273.605 96.6026 270.171C94.5023 266.857 88.905 264.88 87.8764 260.873C86.8478 256.866 90.8009 252.438 91.0453 248.521C91.3011 244.463 87.9767 239.569 89.4478 235.869C90.931 232.132 96.7185 230.846 99.2838 227.745C101.818 224.674 101.984 218.74 105.417 216.562C108.731 214.461 114.145 216.808 118.152 215.779C122.159 214.75 125.773 210.087 129.689 210.331C133.748 210.587 136.748 215.712 140.451 217.178C144.189 218.661 149.88 217 152.984 219.56C156.056 222.098 155.499 227.984 157.678 231.418C159.778 234.732 165.375 236.708 166.404 240.716Z" fill="#FE4D13"/>
<path d="M156.37 268.087C165.919 251.942 160.573 231.114 144.429 221.565C128.285 212.016 107.456 217.363 97.9074 233.507C88.3585 249.651 93.7049 270.479 109.849 280.028C125.993 289.577 146.821 284.231 156.37 268.087Z" fill="#EF4848"/>
<path d="M153.728 266.523C162.414 251.838 157.551 232.893 142.866 224.207C128.181 215.522 109.236 220.385 100.55 235.069C91.8647 249.754 96.7278 268.699 111.412 277.385C126.097 286.071 145.042 281.208 153.728 266.523Z" fill="#F7B538"/>
<path d="M120.209 224.441C115.773 225.58 113.098 230.103 114.237 234.539L130.307 230.414C129.167 225.974 124.645 223.303 120.209 224.441Z" fill="#FB1F21"/>
<path d="M131.474 230.109C131.572 230.492 131.294 230.899 130.857 231.011L114.043 235.327C113.606 235.44 113.166 235.217 113.067 234.833C112.969 234.449 113.248 234.042 113.685 233.93L130.498 229.614C130.935 229.502 131.375 229.725 131.474 230.109Z" fill="#C6121B"/>
<path d="M124.753 232.306L122.848 224.883C122.512 223.576 121.178 222.787 119.871 223.122C118.563 223.458 117.774 224.793 118.109 226.1L120.015 233.522L124.757 232.305L124.753 232.306Z" fill="#C6121B"/>
<path d="M137.694 268.218L136.574 267.095L137.039 265.6C136.544 265.622 136.06 265.821 135.682 266.201C135.024 266.857 134.903 267.846 135.321 268.627L129.558 274.382C128.775 273.96 127.782 274.08 127.12 274.738C126.311 275.542 126.313 276.852 127.116 277.66C127.924 278.467 129.231 278.467 130.039 277.663C130.729 276.977 130.829 275.924 130.346 275.129L136.069 269.419C136.86 269.904 137.909 269.804 138.596 269.119C138.974 268.743 139.175 268.256 139.197 267.763L137.696 268.226L137.694 268.218ZM129.862 275.854L129.516 277.136L128.236 277.477L127.299 276.538L127.644 275.256L128.924 274.915L129.862 275.854Z" fill="#621708"/>
<path d="M140.088 273.98L127.554 269.643L127.689 269.217C128.146 267.758 128.956 267.946 128.956 267.946L129.09 267.52C127.206 266.928 126.476 268.836 126.476 268.836L125.715 271.265L125.933 271.335L125.816 271.709L125.599 271.643L125.364 272.391L126.581 272.771L126.815 272.023L126.597 271.953L126.714 271.578L126.932 271.645L127.261 270.589L139.799 274.925L140.096 273.978L140.088 273.98Z" fill="#621708"/>
<path d="M119.833 277.151C110.836 274.654 103.386 267.545 100.898 257.851C98.4094 248.158 101.815 237.439 109.141 230.939" stroke="#414143" stroke-width="0.468121" stroke-miterlimit="10"/>
<path d="M146.242 270.373C152.923 263.851 156.028 254.032 153.54 244.339C151.052 234.646 142.905 226.892 133.353 224.725" stroke="#414143" stroke-width="0.468121" stroke-miterlimit="10"/>
<path d="M110.043 251.828C109.963 251.94 109.846 252.044 109.7 252.138C109.554 252.232 109.369 252.306 109.156 252.361C108.87 252.434 108.628 252.457 108.426 252.435C108.221 252.413 108.071 252.321 107.973 252.159C107.574 251.522 107.245 251.005 106.996 250.612C106.743 250.22 106.535 249.868 106.375 249.565L106.318 249.58C106.413 250.052 106.505 250.481 106.592 250.868C106.678 251.255 106.765 251.629 106.855 251.993C106.948 252.357 107.03 252.728 107.113 253.103C107.196 253.478 107.285 253.89 107.377 254.35C107.285 254.417 107.159 254.484 106.999 254.556C106.838 254.627 106.678 254.682 106.511 254.725C106.163 254.814 105.879 254.826 105.655 254.766C105.434 254.705 105.285 254.53 105.21 254.236L104.002 248.106C104.041 247.987 104.148 247.842 104.334 247.668C104.516 247.495 104.802 247.356 105.186 247.258C105.603 247.151 105.95 247.131 106.221 247.201C106.491 247.271 106.722 247.438 106.906 247.7C107.024 247.87 107.158 248.071 107.306 248.29C107.45 248.514 107.601 248.745 107.75 248.986C107.899 249.226 108.047 249.463 108.19 249.7C108.334 249.937 108.466 250.147 108.581 250.34L108.638 250.325C108.656 249.615 108.684 248.925 108.712 248.256C108.741 247.586 108.783 247.023 108.835 246.565C108.937 246.469 109.075 246.377 109.252 246.288C109.424 246.196 109.627 246.122 109.856 246.063C110.244 245.964 110.573 245.94 110.848 245.992C111.122 246.043 111.307 246.17 111.399 246.373C111.472 246.524 111.567 246.756 111.687 247.074C111.808 247.391 111.94 247.753 112.086 248.151C112.233 248.554 112.381 248.977 112.539 249.424C112.697 249.871 112.847 250.303 112.992 250.714C113.137 251.125 113.265 251.506 113.38 251.851C113.494 252.196 113.58 252.462 113.637 252.652C113.522 252.764 113.398 252.857 113.261 252.931C113.123 253.006 112.939 253.07 112.71 253.129C112.408 253.206 112.145 253.217 111.911 253.169C111.68 253.119 111.519 252.947 111.425 252.649C111.154 251.8 110.928 251.035 110.739 250.352C110.551 249.669 110.387 249.097 110.243 248.638L110.181 248.653C110.182 248.98 110.168 249.397 110.136 249.902C110.104 250.406 110.078 251.049 110.052 251.83L110.043 251.828Z" fill="#621708"/>
<path d="M114.776 245.071C114.891 244.959 115.075 244.829 115.327 244.69C115.583 244.55 115.847 244.443 116.125 244.372C116.521 244.27 116.883 244.238 117.218 244.274C117.554 244.31 117.792 244.44 117.945 244.662C118.194 245.038 118.471 245.472 118.775 245.978C119.082 246.478 119.39 247 119.706 247.537C120.022 248.074 120.329 248.605 120.634 249.132C120.938 249.654 121.205 250.121 121.435 250.524C121.369 250.658 121.25 250.785 121.078 250.898C120.907 251.012 120.688 251.107 120.431 251.174C120.243 251.222 120.075 251.247 119.94 251.247C119.805 251.247 119.683 251.23 119.585 251.186C119.487 251.146 119.396 251.078 119.321 250.988C119.241 250.9 119.166 250.793 119.095 250.667L118.673 249.905L116.528 250.455C116.523 250.709 116.525 250.97 116.529 251.239C116.533 251.508 116.53 251.77 116.53 252.022C116.43 252.092 116.32 252.155 116.205 252.215C116.089 252.275 115.945 252.325 115.77 252.37C115.365 252.474 115.049 252.481 114.822 252.391C114.594 252.302 114.447 252.135 114.384 251.89C114.356 251.779 114.344 251.665 114.348 251.546C114.352 251.428 114.351 251.288 114.353 251.127C114.352 250.901 114.362 250.615 114.383 250.275C114.4 249.935 114.422 249.563 114.447 249.165C114.471 248.767 114.501 248.359 114.536 247.936C114.571 247.514 114.604 247.118 114.635 246.744C114.665 246.371 114.697 246.036 114.726 245.741C114.755 245.446 114.78 245.222 114.8 245.065L114.776 245.071ZM116.589 246.234C116.564 246.593 116.533 246.997 116.502 247.436C116.468 247.88 116.451 248.324 116.448 248.769L117.918 248.392C117.699 247.995 117.478 247.608 117.258 247.229C117.039 246.85 116.84 246.513 116.663 246.215L116.593 246.233L116.589 246.234Z" fill="#621708"/>
<path d="M123.817 247.13C123.439 247.101 123.094 247.063 122.777 247.014C122.459 246.965 122.181 246.88 121.927 246.758C121.679 246.638 121.466 246.471 121.29 246.259C121.114 246.048 120.981 245.768 120.892 245.421C120.72 244.751 120.839 244.146 121.255 243.612C121.67 243.075 122.342 242.689 123.273 242.45C123.612 242.363 123.933 242.307 124.238 242.276C124.541 242.251 124.812 242.255 125.047 242.304C125.28 242.348 125.476 242.433 125.634 242.558C125.793 242.683 125.896 242.848 125.948 243.052C126.001 243.256 125.997 243.444 125.941 243.616C125.884 243.787 125.802 243.939 125.693 244.075C125.489 244.01 125.231 243.972 124.92 243.965C124.605 243.959 124.276 243.999 123.929 244.089C123.581 244.178 123.324 244.296 123.186 244.436C123.044 244.577 122.995 244.725 123.032 244.872C123.063 244.99 123.137 245.076 123.262 245.122C123.383 245.169 123.556 245.199 123.777 245.212L124.458 245.25C125.262 245.296 125.907 245.453 126.402 245.718C126.897 245.983 127.221 246.431 127.383 247.064C127.555 247.734 127.429 248.345 127.009 248.897C126.584 249.446 125.861 249.854 124.836 250.117C124.472 250.21 124.126 250.269 123.8 250.287C123.475 250.309 123.178 250.29 122.916 250.235C122.654 250.181 122.433 250.085 122.263 249.95C122.089 249.812 121.974 249.637 121.916 249.412C121.859 249.187 121.873 248.97 121.966 248.772C122.058 248.574 122.174 248.414 122.307 248.288C122.572 248.403 122.88 248.485 123.235 248.529C123.587 248.574 123.954 248.545 124.333 248.448C124.713 248.35 124.976 248.222 125.105 248.062C125.234 247.903 125.276 247.744 125.236 247.589C125.197 247.434 125.1 247.328 124.956 247.278C124.809 247.228 124.608 247.193 124.359 247.174L123.818 247.134L123.817 247.13Z" fill="#621708"/>
<path d="M127.134 243.434C127.055 243.363 126.975 243.257 126.887 243.119C126.799 242.98 126.739 242.83 126.696 242.663C126.618 242.356 126.63 242.118 126.735 241.947C126.839 241.777 127.002 241.666 127.222 241.609L132.386 240.284C132.461 240.356 132.544 240.461 132.632 240.599C132.72 240.738 132.78 240.888 132.823 241.055C132.902 241.361 132.889 241.6 132.785 241.77C132.681 241.941 132.518 242.052 132.297 242.109L130.982 242.447L132.387 247.92C132.307 247.967 132.175 248.027 131.996 248.095C131.819 248.166 131.638 248.226 131.454 248.273C131.27 248.32 131.108 248.349 130.966 248.355C130.819 248.362 130.692 248.342 130.577 248.298C130.465 248.252 130.365 248.169 130.289 248.058C130.207 247.944 130.145 247.786 130.091 247.578L128.912 242.982L127.135 243.438L127.134 243.434Z" fill="#621708"/>
<path d="M133.911 241.103C133.824 240.764 133.853 240.469 134.002 240.222C134.148 239.975 134.392 239.804 134.731 239.717L138.64 238.713C138.715 238.785 138.797 238.886 138.875 239.019C138.957 239.15 139.016 239.296 139.056 239.451C139.132 239.749 139.122 239.983 139.024 240.143C138.926 240.303 138.77 240.408 138.558 240.463L136.058 241.105L136.341 242.208L139.004 241.524C139.079 241.596 139.162 241.697 139.238 241.825C139.319 241.953 139.377 242.094 139.418 242.254C139.496 242.556 139.485 242.785 139.395 242.943C139.301 243.102 139.145 243.208 138.932 243.262L136.751 243.822L137.07 245.064L140.113 244.283C140.192 244.354 140.271 244.456 140.348 244.588C140.43 244.72 140.489 244.865 140.529 245.021C140.605 245.319 140.596 245.552 140.498 245.716C140.401 245.881 140.246 245.99 140.034 246.045L136.574 246.933C136.235 247.02 135.94 246.991 135.694 246.845C135.448 246.699 135.276 246.456 135.189 246.117L133.903 241.105L133.911 241.103Z" fill="#621708"/>
<path d="M143.425 242.661L144.009 244.937C143.929 244.983 143.797 245.043 143.618 245.111C143.436 245.184 143.26 245.242 143.076 245.289C142.892 245.336 142.73 245.365 142.588 245.371C142.441 245.378 142.314 245.359 142.207 245.312C142.099 245.266 142.003 245.181 141.923 245.072C141.841 244.957 141.779 244.799 141.725 244.591L140.293 239.011C140.25 238.844 140.263 238.705 140.329 238.592C140.396 238.48 140.504 238.374 140.645 238.276C140.89 238.113 141.183 237.964 141.526 237.828C141.87 237.692 142.245 237.574 142.645 237.471C143.736 237.191 144.616 237.209 145.285 237.525C145.954 237.841 146.391 238.391 146.591 239.171C146.717 239.661 146.697 240.11 146.533 240.522C146.369 240.935 146.14 241.281 145.841 241.558C146.226 241.873 146.597 242.165 146.962 242.433C147.327 242.7 147.623 242.955 147.849 243.189C147.842 243.487 147.749 243.733 147.578 243.933C147.408 244.134 147.19 244.268 146.928 244.335C146.753 244.38 146.6 244.398 146.463 244.389C146.326 244.381 146.202 244.356 146.089 244.307C145.978 244.261 145.869 244.194 145.761 244.112C145.657 244.03 145.551 243.94 145.451 243.839L144.043 242.494L143.414 242.655L143.425 242.661ZM143.768 240.897C144.067 240.82 144.284 240.682 144.419 240.482C144.551 240.282 144.583 240.035 144.506 239.732C144.428 239.43 144.272 239.231 144.041 239.125C143.809 239.019 143.483 239.02 143.062 239.128C142.943 239.158 142.849 239.182 142.779 239.213C142.712 239.239 142.633 239.273 142.552 239.311L143.008 241.088L143.767 240.893L143.768 240.897Z" fill="#621708"/>
<path d="M115.529 261.303C115.449 261.415 115.332 261.519 115.186 261.613C115.041 261.707 114.855 261.781 114.643 261.835C114.357 261.909 114.114 261.932 113.913 261.909C113.707 261.888 113.557 261.796 113.459 261.634C113.06 260.996 112.732 260.48 112.483 260.086C112.229 259.694 112.022 259.343 111.861 259.04L111.804 259.054C111.899 259.526 111.992 259.955 112.078 260.343C112.164 260.73 112.252 261.103 112.341 261.468C112.434 261.832 112.516 262.202 112.599 262.577C112.683 262.952 112.771 263.365 112.863 263.825C112.771 263.892 112.645 263.959 112.485 264.03C112.325 264.102 112.164 264.156 111.997 264.199C111.65 264.288 111.365 264.3 111.141 264.24C110.921 264.179 110.771 264.004 110.696 263.71L109.488 257.581C109.527 257.462 109.634 257.317 109.82 257.143C110.002 256.97 110.289 256.831 110.672 256.732C111.089 256.626 111.437 256.606 111.707 256.676C111.978 256.746 112.208 256.913 112.393 257.175C112.51 257.345 112.645 257.546 112.792 257.765C112.937 257.989 113.088 258.22 113.236 258.46C113.385 258.701 113.533 258.937 113.677 259.175C113.82 259.412 113.953 259.622 114.067 259.815L114.125 259.8C114.143 259.09 114.17 258.399 114.198 257.73C114.227 257.061 114.269 256.497 114.322 256.04C114.423 255.944 114.561 255.852 114.738 255.763C114.911 255.671 115.114 255.597 115.343 255.538C115.731 255.438 116.06 255.415 116.334 255.466C116.609 255.518 116.794 255.645 116.885 255.848C116.958 255.998 117.053 256.231 117.174 256.548C117.294 256.866 117.427 257.228 117.572 257.626C117.719 258.028 117.867 258.452 118.025 258.899C118.183 259.346 118.333 259.777 118.478 260.189C118.623 260.6 118.751 260.981 118.866 261.326C118.981 261.671 119.066 261.936 119.124 262.126C119.009 262.238 118.884 262.331 118.747 262.406C118.609 262.48 118.426 262.545 118.197 262.603C117.894 262.681 117.632 262.692 117.397 262.643C117.167 262.594 117.005 262.422 116.911 262.124C116.641 261.274 116.414 260.51 116.226 259.827C116.037 259.143 115.873 258.572 115.729 258.112L115.668 258.128C115.669 258.454 115.654 258.872 115.622 259.376C115.591 259.881 115.564 260.523 115.538 261.305L115.529 261.303Z" fill="#621708"/>
<path d="M120.256 254.549C120.371 254.437 120.555 254.307 120.807 254.168C121.063 254.029 121.327 253.922 121.605 253.85C122.001 253.749 122.363 253.717 122.699 253.753C123.035 253.788 123.273 253.919 123.426 254.141C123.674 254.517 123.951 254.951 124.255 255.456C124.562 255.956 124.87 256.478 125.187 257.015C125.503 257.552 125.809 258.083 126.114 258.61C126.418 259.133 126.686 259.6 126.916 260.002C126.85 260.137 126.73 260.263 126.559 260.377C126.388 260.49 126.168 260.586 125.911 260.652C125.723 260.7 125.556 260.726 125.421 260.726C125.286 260.726 125.164 260.709 125.065 260.665C124.968 260.624 124.876 260.556 124.801 260.467C124.722 260.378 124.646 260.271 124.575 260.146L124.153 259.383L122.008 259.934C122.004 260.188 122.006 260.448 122.009 260.717C122.013 260.986 122.011 261.248 122.01 261.501C121.91 261.57 121.8 261.633 121.685 261.693C121.57 261.753 121.426 261.803 121.25 261.848C120.846 261.952 120.53 261.959 120.302 261.87C120.075 261.78 119.927 261.613 119.864 261.368C119.836 261.258 119.824 261.143 119.828 261.025C119.833 260.906 119.832 260.767 119.834 260.605C119.833 260.379 119.842 260.094 119.863 259.753C119.881 259.413 119.903 259.042 119.927 258.644C119.951 258.246 119.981 257.838 120.016 257.415C120.052 256.992 120.085 256.596 120.115 256.223C120.146 255.849 120.177 255.514 120.206 255.22C120.235 254.925 120.26 254.701 120.281 254.543L120.256 254.549ZM122.074 255.711C122.049 256.07 122.017 256.475 121.986 256.914C121.952 257.358 121.936 257.802 121.932 258.247L123.403 257.869C123.184 257.473 122.962 257.085 122.743 256.706C122.524 256.327 122.324 255.991 122.147 255.692L122.078 255.71L122.074 255.711Z" fill="#621708"/>
<path d="M129.345 256.794L130.017 259.412C129.937 259.459 129.805 259.519 129.618 259.589C129.436 259.662 129.252 259.722 129.072 259.768C128.892 259.814 128.726 259.844 128.583 259.85C128.437 259.857 128.31 259.837 128.194 259.793C128.083 259.748 127.983 259.665 127.906 259.554C127.825 259.44 127.763 259.281 127.709 259.073L126.104 252.819C126.185 252.781 126.319 252.725 126.504 252.647C126.684 252.57 126.865 252.511 127.036 252.466C127.208 252.422 127.383 252.391 127.525 252.385C127.667 252.379 127.798 252.397 127.914 252.442C128.026 252.487 128.125 252.57 128.202 252.681C128.283 252.795 128.347 252.957 128.399 253.162L128.883 255.045L130.619 251.582C131.154 251.444 131.569 251.447 131.853 251.587C132.137 251.728 132.317 251.938 132.388 252.212C132.44 252.416 132.437 252.626 132.381 252.832C132.326 253.042 132.211 253.289 132.041 253.577L130.942 255.435C131.195 255.605 131.462 255.78 131.739 255.962C132.016 256.143 132.289 256.321 132.559 256.492C132.825 256.663 133.08 256.828 133.329 256.982C133.573 257.137 133.787 257.273 133.969 257.388C134.013 257.559 134.02 257.723 133.993 257.874C133.962 258.025 133.91 258.161 133.828 258.282C133.746 258.403 133.642 258.508 133.523 258.586C133.401 258.67 133.263 258.727 133.116 258.765C132.793 258.848 132.507 258.834 132.262 258.727C132.016 258.616 131.766 258.476 131.522 258.303L129.352 256.788L129.345 256.794Z" fill="#621708"/>
<path d="M133.67 252.05C133.583 251.711 133.611 251.416 133.761 251.169C133.907 250.922 134.15 250.751 134.489 250.664L138.399 249.661C138.474 249.733 138.556 249.833 138.634 249.966C138.715 250.097 138.775 250.243 138.814 250.398C138.891 250.697 138.881 250.93 138.783 251.09C138.685 251.25 138.529 251.356 138.317 251.41L135.817 252.052L136.1 253.155L138.763 252.471C138.838 252.543 138.921 252.644 138.997 252.772C139.078 252.9 139.136 253.042 139.177 253.201C139.254 253.503 139.244 253.732 139.153 253.89C139.059 254.05 138.904 254.155 138.691 254.209L136.51 254.769L136.829 256.011L139.872 255.23C139.951 255.301 140.029 255.403 140.107 255.535C140.189 255.667 140.248 255.813 140.288 255.968C140.364 256.266 140.354 256.499 140.257 256.664C140.16 256.828 140.005 256.937 139.793 256.992L136.333 257.88C135.994 257.967 135.699 257.938 135.453 257.792C135.206 257.647 135.035 257.403 134.948 257.064L133.661 252.052L133.67 252.05Z" fill="#621708"/>
<path d="M143.187 253.607L143.771 255.882C143.692 255.929 143.559 255.989 143.381 256.056C143.199 256.129 143.022 256.187 142.839 256.235C142.655 256.282 142.492 256.31 142.35 256.316C142.204 256.324 142.077 256.304 141.969 256.257C141.862 256.211 141.766 256.127 141.686 256.017C141.604 255.903 141.542 255.745 141.488 255.536L140.056 249.956C140.013 249.789 140.025 249.651 140.092 249.538C140.159 249.425 140.267 249.319 140.407 249.222C140.653 249.059 140.945 248.91 141.289 248.773C141.633 248.637 142.008 248.519 142.408 248.416C143.499 248.137 144.378 248.155 145.047 248.47C145.716 248.786 146.153 249.336 146.354 250.116C146.479 250.606 146.46 251.056 146.296 251.468C146.132 251.88 145.903 252.226 145.604 252.503C145.989 252.818 146.36 253.11 146.725 253.378C147.09 253.646 147.386 253.9 147.611 254.134C147.605 254.432 147.512 254.678 147.341 254.879C147.17 255.079 146.952 255.214 146.691 255.281C146.515 255.326 146.363 255.343 146.226 255.335C146.089 255.326 145.965 255.302 145.852 255.252C145.74 255.207 145.631 255.139 145.523 255.058C145.42 254.976 145.314 254.885 145.214 254.785L143.806 253.439L143.177 253.601L143.187 253.607ZM143.531 251.842C143.829 251.766 144.046 251.627 144.182 251.427C144.314 251.228 144.346 250.98 144.268 250.678C144.191 250.375 144.035 250.176 143.803 250.07C143.572 249.964 143.245 249.965 142.824 250.073C142.706 250.103 142.612 250.127 142.542 250.159C142.474 250.185 142.396 250.218 142.314 250.256L142.77 252.033L143.53 251.838L143.531 251.842Z" fill="#621708"/>
</g>
<g clip-path="url(#clip1_1859_5067)">
<path d="M238.925 80.582L249.45 128.005C253.706 147.186 272.707 159.289 291.893 155.032C311.074 150.775 323.177 131.774 318.919 112.588L308.395 65.165L238.925 80.582Z" fill="#621708"/>
<path d="M242.875 83.5859L252.453 126.742C256.327 144.201 273.619 155.208 291.073 151.334C308.528 147.461 319.539 130.168 315.665 112.714L306.088 69.5576L242.875 83.5859Z" fill="#F7B538"/>
<path d="M246.759 86.5645L255.394 125.472C258.885 141.205 274.528 151.165 290.26 147.674C305.993 144.182 315.953 128.54 312.462 112.808L303.827 73.8997L246.759 86.5645ZM305.109 85.349C285.991 83.8408 267.126 88.0276 250.445 97.4802L248.807 90.0986L303.471 77.9673L305.109 85.349ZM302.894 75.3656L303.338 77.3698L248.67 89.5021L248.225 87.4979L302.889 75.3667L302.894 75.3656ZM308.014 132.671C306.231 133.067 305.502 134.009 304.796 134.921C304.129 135.785 303.499 136.596 301.933 136.943C300.366 137.291 299.447 136.819 298.478 136.323C297.452 135.795 296.393 135.25 294.61 135.646C292.827 136.042 292.098 136.983 291.392 137.895C290.725 138.759 290.096 139.57 288.529 139.918C286.962 140.266 286.048 139.792 285.079 139.297C284.053 138.769 282.995 138.224 281.211 138.62C279.428 139.015 278.699 139.957 277.994 140.869C277.326 141.733 276.697 142.544 275.13 142.892C273.563 143.239 272.649 142.766 271.68 142.27C270.654 141.742 269.596 141.197 267.812 141.593C267.667 141.625 267.529 141.671 267.39 141.712C266.43 141.011 265.511 140.253 264.643 139.433C265.177 138.816 265.829 138.282 267.014 138.019C268.581 137.671 269.496 138.144 270.464 138.64C271.49 139.168 272.549 139.713 274.332 139.317C276.115 138.921 276.844 137.98 277.55 137.068C278.217 136.204 278.847 135.393 280.413 135.045C281.98 134.697 282.894 135.171 283.863 135.666C284.889 136.194 285.948 136.739 287.731 136.343C289.514 135.948 290.243 135.006 290.949 134.094C291.616 133.23 292.246 132.419 293.812 132.071C295.379 131.724 296.293 132.197 297.262 132.693C298.288 133.221 299.347 133.766 301.13 133.37C302.913 132.974 303.642 132.032 304.348 131.12C305.015 130.257 305.645 129.446 307.211 129.098C308.383 128.838 309.181 129.031 309.969 129.379C309.533 130.483 309.02 131.555 308.451 132.594C308.303 132.617 308.155 132.64 308.005 132.673L308.014 132.671ZM307.087 128.494C305.304 128.889 304.575 129.831 303.869 130.743C303.202 131.607 302.572 132.418 301.006 132.766C299.439 133.113 298.52 132.641 297.551 132.145C296.525 131.617 295.466 131.072 293.683 131.468C291.9 131.864 291.171 132.806 290.465 133.718C289.798 134.581 289.169 135.392 287.602 135.74C286.035 136.088 285.121 135.615 284.152 135.119C283.126 134.591 282.067 134.046 280.284 134.442C278.501 134.837 277.772 135.779 277.066 136.691C276.399 137.555 275.77 138.366 274.203 138.714C272.636 139.061 271.722 138.588 270.753 138.092C269.727 137.565 268.668 137.02 266.885 137.415C265.54 137.714 264.796 138.323 264.21 138.996C263.546 138.339 262.913 137.645 262.313 136.92C262.668 136.584 262.952 136.22 263.228 135.862C263.896 134.999 264.525 134.187 266.092 133.84C267.658 133.492 268.573 133.965 269.542 134.461C270.567 134.989 271.626 135.534 273.409 135.138C275.192 134.742 275.921 133.801 276.627 132.889C277.295 132.025 277.924 131.214 279.491 130.866C281.057 130.519 281.972 130.992 282.941 131.488C283.966 132.015 285.025 132.56 286.808 132.165C288.591 131.769 289.32 130.827 290.026 129.915C290.694 129.051 291.323 128.24 292.89 127.893C294.456 127.545 295.371 128.018 296.34 128.514C297.365 129.042 298.424 129.587 300.207 129.191C301.99 128.795 302.719 127.854 303.425 126.942C304.092 126.078 304.722 125.267 306.289 124.919C307.855 124.571 308.775 125.044 309.744 125.539C310.145 125.747 310.562 125.955 311.031 126.113C310.794 127.024 310.514 127.921 310.191 128.802C309.327 128.421 308.415 128.204 307.088 128.498L307.087 128.494ZM278.39 146.571C278.794 146.21 279.105 145.81 279.408 145.417C280.075 144.554 280.705 143.742 282.271 143.395C283.838 143.047 284.752 143.52 285.721 144.016C286.747 144.544 287.806 145.089 289.589 144.693C291.372 144.298 292.101 143.356 292.807 142.444C293.474 141.58 294.103 140.769 295.67 140.421C297.237 140.074 298.156 140.546 299.12 141.043C299.566 141.27 300.022 141.504 300.541 141.66C297.488 143.918 293.931 145.596 289.988 146.471C286.046 147.345 282.108 147.331 278.385 146.572L278.39 146.571ZM301.189 141.176C300.522 141.062 299.972 140.789 299.404 140.496C298.378 139.968 297.32 139.423 295.537 139.819C293.753 140.215 293.025 141.156 292.319 142.068C291.651 142.932 291.022 143.743 289.455 144.091C287.888 144.439 286.974 143.965 286.005 143.47C284.979 142.942 283.921 142.397 282.138 142.793C280.354 143.188 279.626 144.13 278.92 145.042C278.527 145.544 278.15 146.022 277.604 146.41C274.163 145.609 270.923 144.156 268.046 142.178C269.548 141.874 270.449 142.331 271.396 142.817C272.422 143.344 273.481 143.889 275.264 143.494C277.047 143.098 277.776 142.156 278.482 141.244C279.149 140.38 279.778 139.569 281.345 139.222C282.912 138.874 283.826 139.347 284.795 139.843C285.821 140.371 286.88 140.916 288.663 140.52C290.446 140.124 291.175 139.183 291.881 138.271C292.548 137.407 293.177 136.596 294.744 136.248C296.311 135.901 297.225 136.374 298.194 136.87C299.22 137.397 300.279 137.942 302.062 137.547C303.845 137.151 304.574 136.209 305.28 135.297C305.936 134.451 306.559 133.656 308.059 133.298C306.29 136.312 303.969 138.999 301.19 141.181L301.189 141.176ZM311.185 125.516C310.784 125.378 310.411 125.189 310.027 124.993C309.002 124.465 307.943 123.92 306.16 124.316C304.377 124.712 303.648 125.653 302.942 126.565C302.275 127.429 301.645 128.24 300.078 128.588C298.512 128.935 297.592 128.463 296.623 127.967C295.598 127.44 294.539 126.895 292.756 127.29C290.973 127.686 290.244 128.628 289.538 129.54C288.871 130.404 288.241 131.215 286.675 131.562C285.108 131.91 284.193 131.437 283.224 130.941C282.199 130.413 281.14 129.868 279.357 130.264C277.574 130.66 276.845 131.601 276.139 132.513C275.472 133.377 274.842 134.188 273.276 134.536C271.709 134.884 270.794 134.41 269.826 133.915C268.8 133.387 267.741 132.842 265.958 133.238C264.175 133.633 263.446 134.575 262.74 135.487C262.475 135.827 262.221 136.15 261.916 136.445C259.389 133.244 257.529 129.446 256.589 125.207L250.576 98.1128C267.249 88.6271 286.124 84.4383 305.24 85.9815L311.253 113.076C312.193 117.315 312.116 121.548 311.181 125.522L311.185 125.516Z" fill="white"/>
<path d="M323.23 109.523C294.97 93.9163 264.583 100.66 245.578 126.756C244.236 123.776 243.647 122.213 242.65 118.989C239.249 118.9 237.507 118.97 233.972 119.365C257.037 87.012 296.018 78.3513 330.62 97.9162C327.261 99.037 325.656 99.7041 322.618 101.208C323.073 104.567 323.196 106.238 323.23 109.523Z" fill="#621708"/>
<path d="M253.723 103.174C253.828 103.205 253.946 103.268 254.079 103.356C254.212 103.445 254.336 103.556 254.439 103.686C254.647 103.936 254.742 104.162 254.725 104.353C254.708 104.545 254.609 104.72 254.429 104.868L252.403 106.547L253.307 107.64L255.421 105.887C255.531 105.917 255.652 105.974 255.784 106.058C255.917 106.142 256.035 106.254 256.143 106.384C256.346 106.63 256.438 106.846 256.418 107.043C256.397 107.24 256.301 107.41 256.122 107.558L254.434 108.959L256.121 110.999C256.064 111.076 255.971 111.19 255.835 111.334C255.699 111.478 255.556 111.613 255.41 111.734C255.259 111.857 255.124 111.956 254.991 112.025C254.858 112.094 254.728 112.132 254.607 112.14C254.485 112.147 254.358 112.111 254.234 112.04C254.109 111.969 253.979 111.849 253.839 111.683L250.354 107.481C250.125 107.206 250.022 106.918 250.051 106.625C250.079 106.332 250.228 106.067 250.508 105.837L253.723 103.174Z" fill="white"/>
<path d="M261.305 107.089C261.242 107.163 261.141 107.264 260.994 107.4C260.846 107.537 260.695 107.654 260.536 107.763C260.378 107.873 260.229 107.96 260.094 108.019C259.96 108.079 259.828 108.108 259.704 108.106C259.58 108.104 259.456 108.057 259.34 107.98C259.223 107.897 259.101 107.771 258.977 107.591L255.19 102.157C255.255 102.094 255.365 101.99 255.511 101.849C255.658 101.708 255.809 101.59 255.958 101.483C256.117 101.374 256.265 101.287 256.4 101.227C256.535 101.168 256.667 101.139 256.791 101.141C256.916 101.148 257.038 101.189 257.154 101.267C257.271 101.345 257.393 101.476 257.517 101.656L261.305 107.089Z" fill="white"/>
<path d="M268.373 102.704C268.324 102.863 268.221 103.024 268.06 103.188C267.899 103.352 267.681 103.504 267.409 103.658C267.137 103.807 266.858 103.909 266.574 103.962C266.289 104.015 265.984 103.93 265.659 103.711L263.346 102.097C263.112 101.931 262.894 101.772 262.692 101.62C262.49 101.467 262.268 101.289 262.02 101.083L261.961 101.13C262.209 101.51 262.448 101.901 262.677 102.309C262.906 102.717 263.133 103.116 263.354 103.512L264.294 105.213C264.225 105.278 264.117 105.371 263.964 105.484C263.812 105.597 263.656 105.695 263.493 105.786C263.331 105.876 263.183 105.944 263.045 105.989C262.907 106.035 262.781 106.048 262.664 106.029C262.546 106.011 262.434 105.952 262.33 105.861C262.221 105.772 262.117 105.637 262.017 105.452L258.978 99.9658C258.998 99.764 259.096 99.5643 259.266 99.3736C259.436 99.1829 259.643 99.0235 259.884 98.8861C260.157 98.7367 260.435 98.6353 260.725 98.5858C261.016 98.5362 261.32 98.6168 261.631 98.839L263.957 100.445C264.191 100.611 264.409 100.77 264.611 100.922C264.812 101.075 265.034 101.253 265.283 101.459L265.333 101.419C265.086 101.039 264.848 100.657 264.622 100.263C264.398 99.8737 264.172 99.4795 263.956 99.0833L262.969 97.3079C263.039 97.2431 263.146 97.15 263.299 97.0372C263.452 96.9243 263.608 96.8256 263.77 96.7352C264.091 96.5555 264.37 96.4787 264.601 96.4965C264.833 96.5191 265.047 96.7037 265.245 97.0644L268.373 102.704Z" fill="white"/>
<path d="M267.419 96.4024C267.29 96.0657 267.278 95.7673 267.4 95.4934C267.517 95.2206 267.745 95.022 268.08 94.8883L271.937 93.3808C272.025 93.4452 272.115 93.5388 272.217 93.6642C272.319 93.7897 272.393 93.9262 272.454 94.0856C272.568 94.381 272.587 94.6188 272.507 94.7944C272.428 94.97 272.283 95.096 272.074 95.1769L269.607 96.1391L270.03 97.2248L272.66 96.1969C272.749 96.2612 272.839 96.3548 272.938 96.4709C273.035 96.5927 273.114 96.7281 273.173 96.8828C273.288 97.1782 273.311 97.415 273.23 97.5859C273.156 97.7605 273.011 97.8864 272.802 97.9674L270.654 98.8094L271.133 100.036L274.135 98.861C274.224 98.9254 274.314 99.019 274.415 99.1444C274.512 99.2663 274.592 99.4064 274.652 99.5658C274.767 99.8612 274.785 100.099 274.707 100.279C274.628 100.46 274.485 100.59 274.275 100.671L270.864 102.006C270.528 102.135 270.229 102.147 269.955 102.025C269.683 101.908 269.484 101.68 269.355 101.344L267.424 96.4014L267.419 96.4024Z" fill="white"/>
<path d="M284.783 96.8379C284.835 97.093 284.824 97.288 284.757 97.4312C284.689 97.5697 284.569 97.7197 284.396 97.8717C284.292 97.959 284.164 98.0515 284.003 98.1466C283.841 98.2417 283.663 98.3305 283.466 98.4187C283.268 98.507 283.063 98.5822 282.841 98.6512C282.619 98.7201 282.399 98.7739 282.177 98.8183C281.586 98.9347 281.015 98.9627 280.468 98.9014C279.921 98.8401 279.423 98.6889 278.978 98.4373C278.532 98.1858 278.154 97.8402 277.84 97.4015C277.525 96.9629 277.306 96.4192 277.179 95.7809C277.049 95.1087 277.056 94.495 277.202 93.9494C277.347 93.4037 277.586 92.9213 277.919 92.5116C278.253 92.1019 278.662 91.7643 279.141 91.5C279.621 91.2356 280.133 91.0528 280.677 90.9468C281.458 90.7934 282.1 90.7988 282.606 90.9631C283.11 91.1226 283.401 91.4086 283.48 91.8106C283.522 92.0234 283.507 92.2194 283.427 92.395C283.352 92.5696 283.252 92.7201 283.13 92.8361C282.9 92.754 282.622 92.6823 282.288 92.6231C281.959 92.5629 281.601 92.5733 281.212 92.6448C280.521 92.7784 280.011 93.084 279.682 93.557C279.352 94.0299 279.255 94.6143 279.39 95.3148C279.465 95.6932 279.584 96.0074 279.749 96.262C279.914 96.5166 280.105 96.7111 280.329 96.8539C280.553 96.992 280.794 97.0814 281.06 97.1212C281.326 97.161 281.595 97.1506 281.874 97.0984C282.053 97.0588 282.211 97.0139 282.346 96.9543C282.481 96.8948 282.577 96.8389 282.643 96.7798L282.415 95.6209L281.1 95.8782C281.033 95.7993 280.964 95.6863 280.889 95.5499C280.813 95.4087 280.76 95.2577 280.729 95.0967C280.674 94.8029 280.697 94.5755 280.806 94.4182C280.914 94.2609 281.079 94.1601 281.292 94.1178L283.375 93.7148C283.62 93.6653 283.825 93.6988 283.987 93.806C284.149 93.9132 284.253 94.0925 284.303 94.3382L284.791 96.851L284.783 96.8379Z" fill="white"/>
<path d="M288.238 95.3924L288.358 97.7995C288.266 97.8298 288.124 97.8612 287.929 97.8946C287.734 97.928 287.542 97.9509 287.347 97.9597C287.156 97.9675 286.986 97.9607 286.839 97.9392C286.691 97.9177 286.567 97.8712 286.467 97.7995C286.367 97.7279 286.29 97.6265 286.232 97.4963C286.173 97.3661 286.139 97.191 286.131 96.9756L285.838 91.0726C285.829 90.8969 285.872 90.759 285.964 90.6597C286.055 90.5604 286.184 90.4726 286.347 90.4068C286.627 90.2903 286.953 90.2031 287.324 90.1405C287.695 90.0779 288.1 90.0325 288.525 90.0122C289.677 89.954 290.56 90.1529 291.166 90.611C291.775 91.068 292.1 91.7068 292.14 92.5322C292.166 93.0497 292.053 93.4992 291.807 93.8797C291.556 94.2612 291.257 94.5596 290.896 94.7779C291.215 95.1711 291.534 95.5397 291.843 95.8858C292.151 96.232 292.398 96.5425 292.58 96.828C292.512 97.1243 292.371 97.3532 292.156 97.5194C291.941 97.6856 291.699 97.7738 291.42 97.7863C291.235 97.7977 291.079 97.7831 290.943 97.7491C290.807 97.715 290.687 97.6627 290.582 97.5921C290.478 97.5215 290.38 97.4347 290.292 97.3307C290.205 97.2267 290.12 97.1122 290.035 96.993L288.896 95.355L288.232 95.3888L288.238 95.3924ZM288.945 93.6855C289.263 93.6693 289.508 93.5753 289.682 93.4034C289.856 93.2315 289.94 92.9858 289.924 92.6685C289.908 92.3512 289.791 92.1155 289.58 91.9649C289.368 91.8096 289.039 91.7494 288.599 91.768C288.472 91.7764 288.375 91.7831 288.299 91.7951C288.223 91.8118 288.142 91.8249 288.049 91.8505L288.145 93.7297L288.946 93.6902L288.945 93.6855Z" fill="white"/>
<path d="M295.814 97.8121C295.72 97.833 295.576 97.8502 295.377 97.8648C295.178 97.8794 294.986 97.8825 294.791 97.8714C294.601 97.8594 294.428 97.8384 294.287 97.8007C294.14 97.7641 294.019 97.7071 293.926 97.624C293.834 97.5408 293.761 97.4336 293.716 97.3003C293.672 97.167 293.657 96.9877 293.668 96.7729L293.998 90.1591C294.089 90.1487 294.238 90.1305 294.441 90.1101C294.644 90.0898 294.836 90.0867 295.02 90.0951C295.21 90.1072 295.383 90.1282 295.524 90.1658C295.671 90.2025 295.792 90.2595 295.885 90.3426C295.982 90.4247 296.05 90.5329 296.095 90.6662C296.14 90.8042 296.154 90.9788 296.144 91.1984L295.814 97.8121Z" fill="white"/>
<path d="M304.079 98.679C303.943 98.7783 303.764 98.8379 303.534 98.8691C303.304 98.9004 303.04 98.8899 302.732 98.8397C302.426 98.7941 302.144 98.7036 301.887 98.5681C301.63 98.4327 301.441 98.1833 301.318 97.8059L300.479 95.1142C300.393 94.8371 300.321 94.5815 300.257 94.3389C300.194 94.0964 300.126 93.8151 300.056 93.4999L299.978 93.5025C299.94 93.9552 299.888 94.411 299.823 94.8746C299.758 95.3382 299.687 95.7935 299.618 96.2383L299.323 98.1597C299.227 98.1712 299.084 98.1732 298.896 98.1705C298.708 98.1679 298.521 98.15 298.337 98.1218C298.153 98.0935 297.997 98.0542 297.859 98.0108C297.72 97.9627 297.616 97.8968 297.532 97.8069C297.448 97.7169 297.398 97.6045 297.369 97.4728C297.339 97.3364 297.341 97.1681 297.373 96.9585L298.332 90.7578C298.472 90.6084 298.668 90.5154 298.925 90.4684C299.176 90.4225 299.438 90.4236 299.713 90.4613C300.019 90.5069 300.302 90.6021 300.565 90.7412C300.828 90.8803 301.016 91.1297 301.127 91.4951L301.981 94.1884C302.068 94.4654 302.139 94.721 302.203 94.9636C302.266 95.2062 302.334 95.4874 302.404 95.8026L302.467 95.7984C302.505 95.3458 302.553 94.8957 302.612 94.4483C302.67 94.0009 302.739 93.5561 302.808 93.1066L303.117 91.0979C303.213 91.0864 303.356 91.0844 303.544 91.087C303.732 91.0897 303.919 91.1075 304.103 91.1358C304.466 91.1934 304.731 91.2975 304.905 91.4564C305.073 91.6164 305.13 91.8951 305.067 92.2991L304.081 98.6686L304.079 98.679Z" fill="white"/>
<path d="M308.088 100.262C307.951 100.223 307.795 100.169 307.62 100.114C307.444 100.054 307.271 99.984 307.086 99.9065C306.905 99.8281 306.723 99.7402 306.545 99.6513C306.366 99.5577 306.206 99.4599 306.068 99.3475C305.676 99.0494 305.542 98.6892 305.666 98.2716L307.322 92.6519C307.373 92.4826 307.456 92.3655 307.575 92.3044C307.694 92.2385 307.844 92.2004 308.02 92.1958C308.398 92.1859 308.786 92.2185 309.182 92.2933C309.579 92.3682 309.929 92.4535 310.235 92.5435C310.859 92.7308 311.406 92.9698 311.869 93.2768C312.332 93.5837 312.702 93.9409 312.975 94.369C313.247 94.7925 313.413 95.274 313.469 95.8145C313.529 96.3539 313.459 96.9519 313.265 97.612C313.076 98.2512 312.814 98.7833 312.484 99.2071C312.152 99.6262 311.759 99.9455 311.304 100.165C310.849 100.384 310.352 100.5 309.808 100.517C309.262 100.529 308.692 100.449 308.09 100.271L308.088 100.262ZM307.934 98.3015C308.017 98.3423 308.121 98.3884 308.246 98.4396C308.371 98.4909 308.488 98.5291 308.599 98.5636C308.874 98.6457 309.133 98.6772 309.387 98.6652C309.641 98.6533 309.873 98.587 310.088 98.4652C310.303 98.3435 310.495 98.1627 310.668 97.9218C310.842 97.6809 310.981 97.3735 311.094 96.993C311.309 96.2691 311.301 95.6785 311.069 95.2116C310.838 94.7495 310.442 94.4326 309.882 94.2657C309.77 94.2312 309.655 94.2024 309.536 94.1747C309.416 94.1469 309.297 94.1239 309.17 94.1076L307.938 98.2958L307.934 98.3015Z" fill="white"/>
<path d="M247.121 116.578C247.254 117.181 246.875 117.783 246.268 117.918C245.661 118.053 245.063 117.672 244.928 117.065C244.794 116.458 245.174 115.86 245.781 115.725C246.388 115.591 246.986 115.971 247.121 116.578Z" fill="white"/>
<path d="M319.679 100.063C319.813 100.665 319.433 101.268 318.826 101.402C318.219 101.537 317.621 101.156 317.487 100.549C317.352 99.9424 317.733 99.3445 318.34 99.2099C318.947 99.0752 319.544 99.4559 319.679 100.063Z" fill="white"/>
<path d="M271.166 115.214C270.098 115.14 268.993 115.923 268.816 116.969L268.44 119.17C268.242 120.325 268.917 121.409 269.932 121.801L271.572 122.296C271.729 123.293 271.882 124.291 272.244 125.321L270.978 126.402C270.104 127.114 269.992 128.388 270.581 129.353L271.883 131.192C272.58 132.172 273.816 132.495 274.785 131.9L276.219 131.068C277.056 131.855 278.028 132.454 278.939 132.824L278.844 134.642C278.77 135.71 279.569 136.708 280.724 136.906L282.908 137.384C283.96 137.565 285.146 136.902 285.447 135.769L285.925 134.231C287.026 134.095 288.131 133.959 289.285 133.51L290.365 134.771C291.078 135.649 292.352 135.762 293.316 135.168L295.159 133.865C296.037 133.152 296.355 131.912 295.869 130.968L295.139 129.55C295.824 128.697 296.529 127.736 296.917 126.727L298.422 126.768C299.593 126.864 300.59 126.06 300.772 125.012L301.147 122.811C301.449 121.678 300.773 120.589 299.639 120.288L298.312 119.847C298.177 118.746 297.938 117.625 297.592 116.487L298.712 115.597C299.483 114.868 299.698 113.611 299.006 112.629L297.7 110.791C297.11 109.826 295.853 109.611 294.905 110.098L293.61 110.736C292.774 109.949 291.797 109.352 290.7 108.835L290.845 107.351C290.816 106.267 290.12 105.286 288.965 105.088L286.78 104.605C285.625 104.408 284.541 105.083 284.236 106.222L283.795 107.549C282.592 107.667 281.363 107.891 280.209 108.339L279.323 107.218C278.61 106.34 277.336 106.227 276.372 106.821L274.533 108.123C273.553 108.819 273.231 110.061 273.825 111.025L274.554 112.443C273.87 113.296 273.272 114.272 272.777 115.266L271.169 115.208L271.166 115.214ZM285.952 115.156C289.201 115.713 291.269 118.759 290.733 121.904C290.072 125.136 287.022 127.205 283.876 126.664C280.627 126.107 278.558 123.056 279.116 119.807C279.759 116.678 282.822 114.508 285.951 115.151L285.952 115.156Z" fill="#4C0000"/>
</g>
<g clip-path="url(#clip2_1859_5067)">
<path d="M40.6038 229.673C38.8828 229.264 37.449 228.047 36.7633 226.417L13.0289 169.843C12.2164 167.904 12.5563 165.701 13.9154 164.097C15.2746 162.494 17.3924 161.799 19.4395 162.286L89.8253 179.016C91.8725 179.502 93.4482 181.075 93.9436 183.119C94.4359 185.162 93.7481 187.283 92.15 188.649L45.4986 228.493C44.1559 229.641 42.3247 230.082 40.6038 229.673Z" fill="#414143"/>
<path d="M41.0221 227.916C39.8603 227.64 38.8904 226.818 38.4276 225.714L14.6925 169.143C14.1437 167.835 14.3726 166.347 15.2902 165.262C16.2108 164.178 17.6381 163.71 19.0205 164.038L89.4063 180.768C90.7886 181.096 91.8558 182.157 92.1871 183.539C92.5214 184.921 92.0564 186.353 90.9743 187.274L44.3229 227.118C43.4134 227.893 42.177 228.194 41.0152 227.917L41.0221 227.916Z" fill="#274074"/>
<path d="M16.3544 168.449L40.0888 225.023C40.5994 226.243 42.1495 226.612 43.158 225.752L89.8062 185.907C91.0209 184.87 90.5425 182.892 88.9893 182.523L18.6066 165.794C17.0534 165.425 15.7363 166.976 16.3544 168.449Z" fill="#00A99D"/>
<path d="M26.0345 191.523L40.0878 225.021C40.5985 226.242 42.1486 226.611 43.157 225.751L70.7797 202.159L26.0345 191.523Z" fill="#006837"/>
<path d="M88.7345 199.375C66.1388 183.729 38.4752 177.157 11.2568 180.973C10.0313 181.145 9.30851 182.459 9.84114 183.574C10.9492 185.885 12.8162 188.068 13.2069 190.498C13.6286 193.129 12.4958 196.017 12.2241 198.761C12.1063 199.948 13.123 200.931 14.3029 200.772C36.2759 197.76 58.5828 203.023 76.8856 215.535C77.995 216.294 79.5419 215.654 79.7401 214.323C80.0775 212.034 79.7892 209.353 81.0309 207.636C82.7032 205.323 86.2448 204.189 88.7448 202.397C89.7856 201.65 89.7885 200.105 88.7345 199.375Z" fill="#006837"/>
<path d="M57.2939 205.934L54.6066 209.273C54.4412 209.431 54.2751 209.536 54.1098 209.638C53.5598 209.894 52.9633 209.877 52.4886 209.485C52.1183 209.207 51.9667 208.823 51.9227 208.442C51.8697 208.278 51.9338 208.064 51.9923 207.901C51.9976 207.685 52.1111 207.525 52.224 207.312L54.9608 204.028C54.3176 203.793 53.671 203.669 52.9634 203.76C50.5772 204.023 48.7905 206.086 48.8903 208.469L48.8818 208.74C48.923 209.285 49.1221 209.827 49.3294 210.267L43.4037 217.579L41.4017 208.383C41.7816 208.083 42.2076 207.685 42.4887 207.22L42.6028 206.975C43.7643 204.891 43.0969 202.245 41.0844 200.936C40.4927 200.54 39.8594 200.36 39.18 200.277L40.1462 204.442C40.1513 204.682 40.1807 204.876 40.0885 205.071C40.068 205.24 40.0256 205.46 39.907 205.586C39.6962 205.907 39.3888 206.178 38.9321 206.263C38.3319 206.4 37.7915 206.146 37.4158 205.67C37.317 205.505 37.216 205.337 37.136 205.121L36.2385 200.93C35.6653 201.256 35.1457 201.73 34.7966 202.343C33.4879 204.356 34.0322 207.009 35.93 208.441L36.2009 208.627C36.6689 208.909 37.1806 209.09 37.6698 209.199L39.8157 219.046C39.5842 220.655 40.6112 222.189 42.1609 222.587C43.7509 222.995 45.4241 222.086 45.954 220.505L52.3011 212.677C52.7843 212.798 53.3256 212.868 53.8704 212.827L54.1959 212.783C56.5353 212.357 58.2144 210.236 57.952 207.847C57.9159 207.142 57.6651 206.485 57.3002 205.936L57.2939 205.934Z" fill="#F2F3C9"/>
<path d="M53.7492 175.389L54.0117 176.852C54.039 177 54.1411 177.123 54.2841 177.17L55.6892 177.652C56.0321 177.769 56.0685 178.237 55.7491 178.408L54.4368 179.11C54.3052 179.18 54.2201 179.318 54.2172 179.468L54.195 180.956C54.1875 181.318 53.7544 181.498 53.4951 181.249L52.4237 180.22C52.3141 180.115 52.1587 180.078 52.0168 180.123L50.5968 180.56C50.2503 180.665 49.9441 180.31 50.1038 179.983L50.7535 178.645C50.8185 178.509 50.8073 178.349 50.7184 178.226L49.8624 177.008C49.6537 176.713 49.9 176.312 50.256 176.36L51.7275 176.562C51.8772 176.581 52.026 176.522 52.1137 176.401L53.0068 175.212C53.2233 174.922 53.68 175.031 53.7461 175.388L53.7492 175.389Z" fill="#FDF0D5"/>
<path d="M44.1594 173.111L44.4219 174.575C44.4491 174.723 44.5513 174.845 44.6943 174.893L46.0994 175.374C46.4423 175.492 46.4787 175.96 46.1593 176.13L44.847 176.832C44.7154 176.903 44.6302 177.04 44.6273 177.19L44.6051 178.678C44.5977 179.041 44.1645 179.22 43.9053 178.972L42.8339 177.942C42.7242 177.838 42.5689 177.801 42.4269 177.846L41.007 178.283C40.6605 178.387 40.3543 178.032 40.5139 177.706L41.1636 176.367C41.2286 176.232 41.2175 176.071 41.1286 175.949L40.2726 174.731C40.0639 174.435 40.3101 174.034 40.6662 174.083L42.1377 174.285C42.2874 174.304 42.4362 174.244 42.5238 174.124L43.4169 172.935C43.6335 172.645 44.0901 172.754 44.1562 173.111L44.1594 173.111Z" fill="#FDF0D5"/>
<path d="M63.342 177.67L63.6045 179.134C63.6318 179.281 63.7339 179.404 63.8769 179.451L65.282 179.933C65.6249 180.05 65.6613 180.519 65.3419 180.689L64.0296 181.391C63.898 181.461 63.8128 181.599 63.8099 181.749L63.7877 183.237C63.7803 183.6 63.3472 183.779 63.0879 183.53L62.0165 182.501C61.9068 182.396 61.7515 182.359 61.6095 182.404L60.1896 182.841C59.8431 182.946 59.5369 182.591 59.6965 182.265L60.3462 180.926C60.4113 180.79 60.4001 180.63 60.3112 180.507L59.4552 179.29C59.2465 178.994 59.4928 178.593 59.8488 178.641L61.3203 178.844C61.47 178.863 61.6188 178.803 61.7065 178.683L62.5995 177.493C62.8161 177.204 63.2728 177.312 63.3389 177.669L63.342 177.67Z" fill="#FDF0D5"/>
<path d="M20.9264 188.397C20.3621 188.424 19.9383 188.605 19.658 188.943C19.3777 189.28 19.2583 189.74 19.293 190.326C19.3293 190.919 19.5196 191.361 19.8615 191.662C20.2035 191.964 20.6434 192.101 21.1876 192.076C21.4763 192.063 21.7205 192.016 21.9201 191.935C22.1167 191.854 22.3092 191.762 22.4908 191.66C22.6135 191.752 22.7116 191.864 22.782 191.996C22.8525 192.127 22.8915 192.281 22.8951 192.459C22.9007 192.739 22.7485 192.979 22.4373 193.184C22.126 193.389 21.6495 193.502 21.0024 193.532C20.5348 193.552 20.0945 193.513 19.6766 193.407C19.2579 193.304 18.8865 193.127 18.5576 192.882C18.2287 192.636 17.9608 192.313 17.7463 191.918C17.5319 191.522 17.4039 191.039 17.3562 190.466C17.3144 189.938 17.3615 189.463 17.51 189.046C17.6554 188.627 17.8758 188.266 18.1705 187.965C18.4621 187.664 18.8164 187.43 19.231 187.259C19.645 187.092 20.0946 186.995 20.576 186.972C21.2595 186.94 21.7917 187.021 22.1727 187.213C22.5536 187.406 22.7449 187.664 22.7547 187.982C22.7584 188.16 22.7152 188.314 22.6246 188.446C22.534 188.579 22.4268 188.685 22.3069 188.761C22.1128 188.653 21.908 188.562 21.6895 188.487C21.471 188.412 21.219 188.381 20.9334 188.396L20.9264 188.397Z" fill="#F2F3C9"/>
<path d="M24.859 193.27C24.56 193.271 24.3229 193.192 24.1467 193.022C23.9697 192.855 23.8772 192.623 23.8745 192.33C23.8432 190.57 23.8119 188.81 23.7845 187.048C23.8633 187.034 23.9963 187.013 24.1733 186.986C24.3504 186.959 24.5206 186.947 24.6824 186.943C24.8535 186.941 25.0016 186.953 25.1312 186.974C25.26 186.998 25.3713 187.041 25.4587 187.101C25.5462 187.161 25.6145 187.247 25.6576 187.355C25.7038 187.465 25.7225 187.607 25.723 187.784C25.7216 189.13 25.7202 190.475 25.7188 191.82C26.5258 191.822 27.3337 191.833 28.1401 191.851C28.1875 191.928 28.229 192.03 28.2707 192.158C28.3094 192.285 28.3272 192.417 28.3249 192.551C28.3157 192.825 28.2543 193.014 28.1325 193.126C28.0114 193.235 27.8548 193.286 27.6588 193.282C26.7277 193.264 25.7975 193.257 24.8636 193.264L24.859 193.27Z" fill="#F2F3C9"/>
<path d="M30.9863 187.369C31.1157 187.308 31.3064 187.252 31.5637 187.204C31.8211 187.157 32.0772 187.143 32.3361 187.158C32.7043 187.183 33.0257 187.253 33.302 187.375C33.576 187.492 33.7453 187.664 33.8121 187.88C33.9162 188.243 34.0257 188.666 34.1381 189.145C34.2506 189.625 34.3617 190.124 34.4668 190.635C34.5719 191.146 34.6746 191.652 34.7694 192.151C34.8643 192.649 34.9468 193.089 35.0132 193.472C34.9205 193.559 34.7904 193.623 34.619 193.667C34.4483 193.709 34.2486 193.721 34.02 193.702C33.8556 193.689 33.7144 193.662 33.6047 193.627C33.492 193.59 33.4016 193.542 33.3343 193.48C33.2662 193.421 33.2127 193.343 33.1752 193.252C33.1377 193.161 33.104 193.055 33.0794 192.937C33.0348 192.697 32.9894 192.46 32.9448 192.219C32.3123 192.174 31.676 192.131 31.0405 192.098C30.9732 192.299 30.9074 192.506 30.8395 192.723C30.7722 192.937 30.7058 193.148 30.6384 193.348C30.5396 193.377 30.4353 193.402 30.3294 193.419C30.2197 193.439 30.0904 193.444 29.9378 193.438C29.5837 193.422 29.3249 193.351 29.1609 193.227C28.9937 193.102 28.9151 192.935 28.9227 192.724C28.9254 192.629 28.9414 192.535 28.9736 192.44C29.0058 192.346 29.0386 192.236 29.0789 192.108C29.1349 191.927 29.212 191.7 29.3088 191.431C29.4087 191.162 29.5176 190.87 29.634 190.559C29.7543 190.247 29.8792 189.928 30.017 189.597C30.1542 189.268 30.2838 188.958 30.4051 188.668C30.5272 188.376 30.6404 188.12 30.7438 187.892C30.8473 187.664 30.9274 187.493 30.9856 187.372L30.9863 187.369ZM32.2246 188.76C32.1055 189.04 31.9697 189.349 31.8257 189.692C31.6787 190.035 31.5465 190.384 31.4259 190.739C31.8661 190.765 32.3063 190.791 32.7481 190.824C32.6733 190.448 32.5955 190.085 32.5162 189.728C32.4338 189.371 32.3589 189.051 32.292 188.766C32.2696 188.764 32.2502 188.762 32.2277 188.76L32.2246 188.76Z" fill="#F2F3C9"/>
<path d="M37.9562 191.529C37.658 191.389 37.3884 191.253 37.1476 191.12C36.9036 190.987 36.6997 190.837 36.5305 190.665C36.3604 190.497 36.2358 190.303 36.1528 190.086C36.0697 189.87 36.0458 189.611 36.0741 189.313C36.1324 188.736 36.417 188.298 36.9294 188.006C37.4425 187.712 38.1377 187.618 38.9978 187.727C39.3127 187.769 39.6015 187.824 39.8649 187.903C40.1292 187.979 40.3525 188.075 40.5327 188.187C40.7129 188.299 40.8492 188.429 40.9361 188.575C41.0253 188.724 41.0566 188.882 41.0308 189.06C41.0057 189.235 40.9385 189.379 40.8337 189.489C40.7281 189.602 40.6083 189.692 40.4736 189.761C40.3305 189.645 40.1309 189.532 39.8749 189.422C39.618 189.315 39.3306 189.24 39.0157 189.198C38.6907 189.157 38.4484 189.168 38.2881 189.235C38.1278 189.302 38.0391 189.399 38.022 189.526C38.0108 189.629 38.0459 189.716 38.1327 189.792C38.2165 189.868 38.3491 189.946 38.5281 190.021C38.7087 190.103 38.8932 190.183 39.0738 190.265C39.7169 190.556 40.1924 190.889 40.5026 191.255C40.8127 191.621 40.9249 192.074 40.8429 192.612C40.7558 193.186 40.451 193.612 39.9401 193.898C39.4284 194.186 38.73 194.266 37.8404 194.157C37.5247 194.118 37.2336 194.059 36.9678 193.976C36.702 193.893 36.4731 193.792 36.282 193.671C36.0877 193.55 35.9428 193.414 35.8426 193.255C35.7424 193.097 35.7048 192.924 35.7235 192.735C35.7437 192.539 35.8185 192.377 35.9533 192.251C36.0882 192.126 36.2288 192.031 36.3745 191.97C36.5538 192.141 36.7794 192.296 37.0514 192.437C37.3202 192.576 37.6233 192.668 37.9583 192.708C38.2996 192.75 38.544 192.729 38.698 192.647C38.8519 192.566 38.9374 192.455 38.9529 192.321C38.9715 192.187 38.9291 192.076 38.8251 191.988C38.7242 191.902 38.5714 191.813 38.3774 191.718C38.2357 191.651 38.094 191.585 37.9515 191.522L37.9562 191.529Z" fill="#F2F3C9"/>
<path d="M43.7467 192.407C43.4591 192.25 43.1964 192.099 42.9623 191.951C42.7282 191.804 42.5304 191.642 42.3727 191.463C42.2149 191.285 42.1011 191.087 42.0296 190.863C41.9604 190.643 41.9466 190.384 41.9942 190.087C42.0844 189.514 42.3939 189.095 42.9229 188.831C43.4519 188.566 44.1506 188.512 45.0028 188.668C45.314 188.726 45.5976 188.803 45.8581 188.895C46.1186 188.986 46.3328 189.093 46.507 189.216C46.6811 189.34 46.8066 189.475 46.8882 189.629C46.9666 189.782 46.9902 189.945 46.9527 190.117C46.9145 190.291 46.8425 190.428 46.7322 190.533C46.6219 190.638 46.4966 190.724 46.3603 190.786C46.2225 190.662 46.029 190.537 45.7821 190.416C45.5321 190.294 45.2522 190.201 44.9379 190.143C44.6173 190.083 44.3749 190.081 44.2106 190.138C44.0463 190.194 43.9521 190.286 43.928 190.415C43.9106 190.516 43.9418 190.605 44.021 190.687C44.1002 190.768 44.2281 190.851 44.4042 190.938C44.5826 191.03 44.7579 191.121 44.9325 191.215C45.5567 191.544 46.0131 191.902 46.2995 192.285C46.5889 192.669 46.6733 193.129 46.5602 193.66C46.439 194.225 46.1115 194.636 45.5847 194.892C45.058 195.147 44.3553 195.19 43.4751 195.027C43.1639 194.969 42.8772 194.891 42.6174 194.797C42.3584 194.699 42.1356 194.587 41.9505 194.454C41.7647 194.325 41.6259 194.177 41.5365 194.015C41.4471 193.852 41.4164 193.678 41.4452 193.488C41.4754 193.291 41.5619 193.135 41.7015 193.017C41.8411 192.899 41.9864 192.812 42.1392 192.763C42.3094 192.945 42.5258 193.111 42.7871 193.268C43.0484 193.426 43.3447 193.532 43.6753 193.591C44.0121 193.651 44.2591 193.648 44.4178 193.574C44.5734 193.499 44.6667 193.397 44.6922 193.262C44.7177 193.127 44.6816 193.016 44.5853 192.924C44.4889 192.833 44.3445 192.736 44.1559 192.632C44.0195 192.557 43.8824 192.485 43.7429 192.409L43.7467 192.407Z" fill="#F2F3C9"/>
<path d="M51.4362 194.59C51.2693 195.223 51.1032 195.853 50.9363 196.486C50.8573 196.487 50.7355 196.474 50.5758 196.456C50.4137 196.434 50.2561 196.406 50.1015 196.366C49.9462 196.329 49.8132 196.281 49.7042 196.229C49.5921 196.176 49.5061 196.11 49.4425 196.032C49.3788 195.955 49.3428 195.858 49.3283 195.739C49.313 195.624 49.3276 195.48 49.3682 195.309C49.7482 193.752 50.132 192.192 50.512 190.635C50.5452 190.495 50.6138 190.4 50.713 190.342C50.8146 190.287 50.9412 190.251 51.0945 190.242C51.3552 190.222 51.6505 190.236 51.9809 190.282C52.3114 190.328 52.6553 190.4 53.0189 190.499C54.0001 190.762 54.6817 191.167 55.0634 191.687C55.4443 192.211 55.5316 192.796 55.3386 193.443C55.2162 193.847 55.0038 194.161 54.6982 194.384C54.3925 194.606 54.069 194.753 53.7275 194.822C53.8807 195.213 54.0322 195.584 54.1849 195.935C54.3377 196.287 54.4451 196.595 54.5086 196.866C54.374 197.073 54.1998 197.212 53.9868 197.28C53.7769 197.348 53.5601 197.349 53.3418 197.287C53.1941 197.246 53.0758 197.191 52.979 197.129C52.8823 197.067 52.8009 196.995 52.7387 196.911C52.6758 196.83 52.6228 196.736 52.5814 196.634C52.5376 196.528 52.5007 196.421 52.4691 196.305C52.3105 195.785 52.1495 195.261 51.984 194.743C51.8053 194.694 51.6227 194.647 51.444 194.598L51.4362 194.59ZM52.4359 193.449C52.6978 193.521 52.923 193.512 53.1103 193.429C53.2982 193.342 53.4264 193.176 53.4955 192.926C53.5647 192.677 53.5328 192.466 53.3975 192.289C53.2622 192.113 53.0097 191.974 52.636 191.875C52.5304 191.85 52.4465 191.83 52.3813 191.815C52.3177 191.806 52.2448 191.795 52.1642 191.789C52.0336 192.283 51.903 192.777 51.7725 193.271C51.9947 193.331 52.2138 193.389 52.4359 193.449Z" fill="#F2F3C9"/>
<path d="M56.8238 192.772C56.9128 192.495 57.0677 192.298 57.2934 192.191C57.519 192.084 57.7831 192.078 58.0847 192.176C59.2368 192.548 60.3837 192.942 61.5254 193.358C61.5474 193.445 61.5579 193.553 61.5532 193.683C61.5485 193.813 61.5245 193.942 61.4779 194.069C61.3902 194.314 61.2695 194.462 61.12 194.525C60.9713 194.585 60.804 194.585 60.6196 194.518C59.8995 194.261 59.1748 194.01 58.451 193.769C58.3499 194.07 58.252 194.372 58.1516 194.67C58.9182 194.924 59.6818 195.191 60.444 195.464C60.4659 195.551 60.4765 195.659 60.4733 195.783C60.4693 195.91 60.446 196.036 60.3994 196.162C60.3117 196.407 60.1965 196.56 60.0501 196.624C59.9068 196.688 59.7426 196.689 59.5645 196.624C58.9502 196.405 58.3343 196.193 57.7139 195.987C57.6001 196.327 57.4871 196.665 57.3733 197.005C58.2278 197.29 59.08 197.585 59.9286 197.895C59.9474 197.981 59.9579 198.089 59.9502 198.218C59.9431 198.345 59.919 198.473 59.8718 198.603C59.7809 198.848 59.6657 199.001 59.5186 199.067C59.3745 199.135 59.2135 199.136 59.0385 199.072C58.0889 198.731 57.1325 198.405 56.1724 198.095C55.8887 198.005 55.6925 197.85 55.5793 197.636C55.466 197.422 55.4523 197.175 55.5389 196.894C55.9706 195.52 56.3991 194.145 56.8308 192.771L56.8238 192.772Z" fill="#F2F3C9"/>
<path d="M64.2144 194.572C64.3567 194.553 64.5543 194.564 64.8142 194.603C65.0741 194.641 65.3211 194.707 65.56 194.806C65.9009 194.946 66.1817 195.118 66.4063 195.319C66.6278 195.519 66.7341 195.735 66.7266 195.96C66.7093 196.336 66.678 196.772 66.6303 197.263C66.5825 197.754 66.528 198.259 66.4667 198.78C66.4022 199.299 66.3369 199.809 66.2699 200.311C66.203 200.814 66.14 201.259 66.0817 201.642C65.967 201.697 65.8216 201.715 65.6448 201.699C65.4712 201.684 65.2769 201.631 65.0652 201.541C64.9135 201.476 64.7887 201.407 64.6935 201.338C64.5989 201.266 64.5276 201.194 64.4841 201.114C64.4367 201.037 64.4124 200.946 64.4066 200.847C64.4008 200.747 64.4034 200.639 64.4159 200.517C64.4503 200.276 64.4816 200.034 64.5159 199.793C63.9315 199.546 63.3416 199.307 62.7511 199.071C62.6222 199.241 62.4925 199.414 62.3599 199.599C62.228 199.781 62.0976 199.956 61.9718 200.127C61.868 200.122 61.7618 200.113 61.654 200.097C61.5461 200.081 61.421 200.042 61.2794 199.988C60.9519 199.861 60.7279 199.713 60.6113 199.541C60.4946 199.369 60.4724 199.186 60.546 198.987C60.5805 198.897 60.6268 198.813 60.6848 198.734C60.7458 198.657 60.8144 198.562 60.8929 198.452C61.0019 198.298 61.1484 198.109 61.3262 197.886C61.5041 197.662 61.7026 197.421 61.9149 197.163C62.1272 196.905 62.3503 196.643 62.585 196.373C62.8189 196.107 63.0397 195.855 63.2507 195.616C63.461 195.38 63.649 195.169 63.8204 194.987C63.9886 194.804 64.1202 194.664 64.2144 194.572ZM64.9422 196.287C64.7404 196.515 64.5133 196.766 64.2671 197.042C64.0171 197.321 63.7812 197.61 63.553 197.907C63.9639 198.07 64.3701 198.239 64.7794 198.408C64.83 198.03 64.8722 197.659 64.9098 197.294C64.9473 196.928 64.9792 196.601 65.006 196.309C64.9849 196.301 64.9639 196.292 64.946 196.285L64.9422 196.287Z" fill="#F2F3C9"/>
<path d="M68.8709 203.356C68.765 203.305 68.645 203.244 68.511 203.172C68.3769 203.101 68.2389 203.019 68.1023 202.931C67.9627 202.842 67.8268 202.751 67.6925 202.653C67.5582 202.555 67.4377 202.455 67.3358 202.345C67.0505 202.054 66.9788 201.748 67.1237 201.428C67.783 199.98 68.4447 198.536 69.1039 197.087C69.1644 196.957 69.2463 196.875 69.3566 196.839C69.4669 196.803 69.597 196.794 69.7505 196.811C70.0771 196.859 70.4087 196.941 70.7432 197.067C71.0777 197.192 71.3703 197.314 71.6235 197.437C72.1414 197.688 72.5839 197.98 72.9432 198.305C73.3024 198.63 73.5707 198.993 73.7465 199.386C73.9191 199.778 73.9898 200.198 73.9625 200.645C73.932 201.09 73.7872 201.561 73.5258 202.054C73.2704 202.535 72.9735 202.914 72.6313 203.193C72.2923 203.474 71.9196 203.661 71.5181 203.762C71.1134 203.863 70.69 203.877 70.2446 203.804C69.7992 203.731 69.3428 203.58 68.8747 203.354L68.8709 203.356ZM68.991 201.76C69.0558 201.805 69.1354 201.857 69.2329 201.916C69.3304 201.976 69.4239 202.024 69.5119 202.068C69.7268 202.172 69.9406 202.239 70.1508 202.266C70.361 202.293 70.5621 202.275 70.7574 202.213C70.9495 202.15 71.1348 202.034 71.3118 201.869C71.4895 201.701 71.6479 201.476 71.7949 201.19C72.0727 200.642 72.1438 200.163 72.0097 199.747C71.8748 199.335 71.5775 199.011 71.118 198.79C71.0268 198.746 70.9319 198.703 70.833 198.664C70.7342 198.624 70.6347 198.587 70.5282 198.552C70.0178 199.622 69.5044 200.691 68.9948 201.758L68.991 201.76Z" fill="#F2F3C9"/>
<path d="M75.6829 206.762C75.606 206.741 75.4948 206.698 75.3454 206.636C75.1959 206.574 75.0557 206.502 74.9224 206.427C74.6449 206.269 74.4609 206.104 74.3737 205.933C74.2866 205.761 74.3257 205.527 74.4911 205.232C74.7141 204.832 74.941 204.43 75.164 204.03C75.1318 203.723 75.1008 203.385 75.064 203.015C75.0302 202.646 75.0011 202.271 74.9758 201.894C74.9505 201.518 74.9362 201.15 74.9258 200.793C74.9186 200.437 74.9257 200.117 74.9496 199.837C75.0929 199.773 75.259 199.737 75.4555 199.724C75.6521 199.712 75.8556 199.767 76.0708 199.884C76.3233 200.022 76.5048 200.184 76.6092 200.366C76.7135 200.548 76.7662 200.81 76.7601 201.153C76.7475 201.8 76.7325 202.443 76.7105 203.088C76.7308 203.099 76.748 203.11 76.7682 203.121C76.9603 202.99 77.1339 202.867 77.2859 202.752C77.4403 202.641 77.5923 202.526 77.7405 202.414C77.8918 202.302 78.0483 202.182 78.2112 202.063C78.3747 201.941 78.5652 201.802 78.7771 201.643C78.9213 201.657 79.0742 201.69 79.2321 201.744C79.3899 201.798 79.5324 201.862 79.6618 201.938C79.8864 202.07 80.0425 202.242 80.1331 202.441C80.223 202.643 80.203 202.851 80.0699 203.066C80.0273 203.135 79.9601 203.21 79.8688 203.29C79.7776 203.371 79.6146 203.476 79.3792 203.611C79.1445 203.742 78.8143 203.916 78.3948 204.135C77.9721 204.353 77.4139 204.63 76.7247 204.975C76.3762 205.572 76.0276 206.168 75.6791 206.765L75.6829 206.762Z" fill="#F2F3C9"/>
</g>
<defs>
<clipPath id="clip0_1859_5067">
<rect width="88.0784" height="84.3461" fill="white" transform="translate(74.0004 220.898) rotate(-14.3965)"/>
</clipPath>
<clipPath id="clip1_1859_5067">
<rect width="99" height="84.1522" fill="white" transform="translate(226 83.4492) rotate(-12.5126)"/>
</clipPath>
<clipPath id="clip2_1859_5067">
<rect width="83.4678" height="60.6667" fill="white" transform="translate(14.0287 161) rotate(13.3702)"/>
</clipPath>
</defs>
</svg>
