<svg width="196" height="182" viewBox="0 0 196 182" fill="none" xmlns="http://www.w3.org/2000/svg">
<mask id="mask0_2004_9874" style="mask-type:alpha" maskUnits="userSpaceOnUse" x="0" y="0" width="196" height="182">
<path d="M192.244 91.8704C192.006 91.541 191.759 91.1476 191.475 90.6993C189.938 88.2748 187.486 84.423 181.201 81.4495C181.146 81.2299 181.1 81.0103 181.045 80.7816C179.92 75.9508 178.648 70.4796 176.361 63.6086C175.849 62.0715 175.4 60.6351 174.97 59.2536C172.299 50.6899 170.368 44.4959 159.499 33.6267C146.873 21.01 87.7053 -2.43023 75.0886 0.204737C61.9778 2.94034 37.824 25.2003 24.8505 37.1583L24.7132 37.2772L24.6126 37.4328C24.4662 37.6706 20.898 43.3706 17.7873 51.1474C16.0032 55.603 14.0453 69.0066 13.0846 82.0899C7.72319 84.9536 5.49994 88.4486 4.07267 90.7085C3.78904 91.1568 3.54201 91.5502 3.30414 91.8795C1.66643 94.1577 -0.0536148 98.4121 0.00128029 103.499C0.0744737 110.132 3.02966 116.381 8.79364 122.054C12.9382 126.143 17.1011 129.135 21.2091 131.358C24.0453 132.886 26.8541 134.048 29.6172 134.936C29.9191 135.741 30.2027 136.555 30.4772 137.369C32.0875 142.035 33.7618 146.866 38.1259 149.236C44.3382 152.612 54.8049 150.755 63.213 149.254C65.4728 148.852 67.5405 148.486 69.2423 148.275C70.7245 158.376 71.8224 168.531 71.2826 169.666C70.4683 171.02 65.9577 171.404 62.9751 170.746C61.8772 170.508 60.2852 169.94 58.4463 169.282C54.5213 167.882 49.6356 166.153 45.6832 166.153C43.5605 166.153 41.749 167.205 40.5962 169.117C38.8213 172.045 38.8304 176.583 40.6145 180.151C40.9896 180.901 41.7124 181.368 42.4992 181.368H78.1719C79.1692 181.368 79.9743 180.499 79.9743 179.428V149.931C80.3951 150.087 80.8069 150.233 81.2277 150.389C84.3567 151.541 87.5956 152.731 90.871 152.731C92.2616 152.731 93.268 152.786 94.1555 152.831C94.8509 152.868 95.4638 152.895 96.0768 152.895C98.2086 152.895 100.414 152.511 106.763 150.608C106.827 150.59 106.9 150.572 106.964 150.553V179.446C106.964 180.508 107.769 181.377 108.767 181.377H144.439C145.226 181.377 145.949 180.91 146.324 180.16C148.108 176.61 148.117 172.09 146.342 169.181C145.181 167.278 143.378 166.235 141.256 166.235C137.303 166.235 132.417 167.964 128.492 169.355C126.653 170.004 125.061 170.572 123.964 170.81C120.981 171.459 116.461 171.084 115.656 169.748C115.107 168.605 116.214 158.458 117.696 148.394C121.018 147.854 124.705 147.296 128.483 146.729C144.458 144.341 154.339 142.731 156.855 140.517C158.374 139.181 159.38 137.863 160.167 136.454C164.751 135.503 169.508 133.984 174.339 131.377C178.447 129.162 182.601 126.162 186.754 122.072C192.518 116.399 195.474 110.15 195.547 103.517C195.602 98.4212 193.882 94.176 192.253 91.8887L192.244 91.8704ZM185.949 121.248C177.441 129.62 168.877 133.334 160.826 135.137C159.655 135.402 158.483 135.622 157.331 135.814C154.421 136.299 151.594 136.573 148.868 136.784C147.495 136.894 146.269 136.839 145.171 136.656C143.131 129.62 156.324 123.316 156.452 123.252L155.967 122.227C155.391 122.493 142.427 128.696 143.927 136.381C141.237 135.622 139.426 133.984 138.136 131.999C136.169 124.981 149.298 118.714 149.435 118.641L148.95 117.616C148.428 117.863 137.788 122.95 136.855 129.602C136.068 127.808 135.528 125.905 135.052 124.194C134.952 123.838 134.851 123.49 134.76 123.161C132.536 115.484 141.658 109.602 145.675 107.424C153.049 103.444 170.551 97.8174 170.725 97.7625L170.377 96.6829C170.204 96.7378 152.6 102.392 145.126 106.427C136.114 111.294 131.932 117.506 133.653 123.481C133.753 123.81 133.845 124.158 133.945 124.515C134.632 126.958 135.473 129.94 137.074 132.484C137.102 132.575 137.138 132.676 137.166 132.767L137.239 132.74C139.38 135.979 142.838 138.412 148.941 137.937C151.329 137.754 153.799 137.516 156.324 137.141C155.94 137.589 155.519 138.028 155.025 138.458C152.921 140.297 139.133 142.356 128.053 144.021C124.595 144.542 121.21 145.045 118.108 145.549C117.623 145.622 117.147 145.704 116.681 145.777C116.562 146.555 116.415 147.525 116.251 148.632C115.189 155.869 113.46 168.806 114.458 170.453C115.885 172.822 121.621 172.731 124.229 172.164C125.409 171.907 127.038 171.331 128.922 170.663C132.747 169.309 137.514 167.626 141.237 167.626C143.323 167.626 144.522 168.87 145.162 169.913C146.699 172.438 146.672 176.4 145.089 179.547C144.952 179.831 144.696 180.004 144.43 180.004H108.758C108.529 180.004 108.328 179.757 108.328 179.456V147.369C107.843 147.479 107.385 147.598 106.955 147.708C106.608 147.799 106.269 147.891 105.967 147.982C98.236 150.297 97.1656 150.242 94.2927 150.096C93.4144 150.05 92.3257 149.995 90.8618 149.995C88.0713 149.995 85.1985 148.943 82.1609 147.827C81.4382 147.561 80.7062 147.296 79.9651 147.04C79.5077 146.884 79.0502 146.729 78.5928 146.583V179.456C78.5928 179.757 78.4006 180.004 78.1627 180.004H42.4901C42.2248 180.004 41.9686 179.831 41.8313 179.547C40.2485 176.381 40.2211 172.402 41.7581 169.867C42.3986 168.815 43.5971 167.562 45.6832 167.562C49.3977 167.562 54.1644 169.254 57.9888 170.617C59.8735 171.285 61.5021 171.862 62.6823 172.127C65.299 172.694 71.0355 172.786 72.4537 170.407C73.4601 168.714 71.6668 155.357 70.6147 148.156C70.4591 147.095 70.3219 146.171 70.203 145.439C69.7729 145.475 69.3155 145.521 68.8397 145.585C67.0739 145.805 64.9971 146.18 62.7372 146.583C55.1708 147.927 44.814 149.776 39.4434 146.857C36.0125 144.991 34.5852 140.864 33.0756 136.5C33.0024 136.299 32.9383 136.098 32.8651 135.896C37.641 137.104 42.2522 137.607 46.5889 137.946C52.6914 138.412 56.1407 135.979 58.2907 132.749L58.3639 132.776C58.4005 132.685 58.428 132.584 58.4554 132.493C60.0657 129.958 60.8982 126.976 61.5844 124.524C61.6851 124.167 61.7766 123.829 61.8772 123.49C63.5972 117.525 59.4252 111.312 50.4041 106.436C42.9384 102.401 25.3354 96.7469 25.1524 96.692L24.8047 97.7716C24.9785 97.8265 42.4809 103.453 49.8552 107.433C53.8717 109.602 62.9934 115.484 60.7701 123.17C60.6695 123.508 60.578 123.856 60.4774 124.204C60.0016 125.915 59.4618 127.808 58.675 129.611C57.7418 122.959 47.1013 117.872 46.5798 117.625L46.0949 118.65C46.2321 118.714 59.3612 124.99 57.3941 132.008C56.0949 133.993 54.2834 135.631 51.6027 136.39C53.1123 128.705 40.1387 122.502 39.5623 122.237L39.0774 123.261C39.2147 123.325 52.3987 129.629 50.3584 136.665C49.2605 136.848 48.0345 136.903 46.6621 136.793C42.1607 136.445 37.3574 135.915 32.3894 134.579C31.2915 134.286 30.1844 133.947 29.0682 133.563C22.7096 131.386 16.1313 127.708 9.58962 121.258C-5.42419 106.473 4.11841 92.6847 4.21905 92.5474C4.47523 92.1906 4.74056 91.7698 5.02418 91.3214C6.32337 89.2629 8.31789 86.1339 12.984 83.4623C13.8348 82.9774 14.7772 82.5016 15.8202 82.0533C15.8568 81.6233 15.8843 81.1933 15.9209 80.7633C16.8998 68.4942 18.7022 56.2343 20.3308 52.1721C23.0664 45.3194 26.2594 40.0037 26.8358 39.0522C38.7664 28.064 63.3228 5.46552 75.6467 2.8946C87.4583 0.433467 145.629 23.6541 157.559 35.5846C167.953 45.9781 169.801 51.8976 172.354 60.0861C172.784 61.4768 173.241 62.9407 173.763 64.4869C175.821 70.6626 177.047 75.7129 178.09 80.1777C178.191 80.5895 178.282 81.0103 178.374 81.4129C178.374 81.4495 178.392 81.4769 178.401 81.5135C179.554 81.9527 180.597 82.4101 181.539 82.9042C186.937 85.6856 189.124 89.1165 190.515 91.3123C190.798 91.7606 191.064 92.1815 191.32 92.5383C191.42 92.6755 200.963 106.463 185.949 121.248Z" fill="black"/>
</mask>
<g mask="url(#mask0_2004_9874)">
<rect x="-5.05273" y="0.212891" width="206.335" height="137.725" fill="black"/>
</g>
</svg>
