<svg width="64" height="101" viewBox="0 0 64 101" fill="none" xmlns="http://www.w3.org/2000/svg">
<path d="M0 52C0 49.7909 1.79086 48 4 48H60C62.2091 48 64 49.7909 64 52V101H0V52Z" fill="#FE4D13"/>
<g clip-path="url(#clip0_2836_6680)">
<path d="M13.3985 17.9359C17.4355 14.255 24.1664 8.19008 27.7558 7.45129C31.3451 6.71249 48.2454 13.3669 51.8347 16.9167C55.4241 20.4666 55.5724 22.2402 56.6214 25.3474C57.6677 28.4545 57.9671 30.5242 58.5657 32.5938C59.1644 34.6635 54.0784 41.3205 53.1831 43.0967C52.2851 44.8704 52.2851 45.9078 51.0904 46.9426C49.8957 47.9775 39.7237 48.8656 36.7331 49.7537C33.7424 50.6419 34.0417 50.3458 32.2457 50.3458C30.4498 50.3458 28.6564 49.0149 26.7121 49.0149C24.7678 49.0149 19.5917 50.6969 17.1679 49.3948C15.0329 48.2447 15.3454 44.7263 13.4011 43.0993C11.4568 41.4724 11.1574 41.1764 10.2594 38.2186C9.36145 35.2608 10.5588 24.0191 11.4568 21.8001C12.3548 19.5811 13.4011 17.9385 13.4011 17.9385L13.3985 17.9359Z" fill="#FFBA0A"/>
<path d="M56.0251 30.139C55.8132 29.2404 55.5827 28.2606 55.2648 27.1445C55.0688 27.4458 54.8754 27.7366 54.6847 28.0222C54.9072 28.8527 55.0847 29.6098 55.2516 30.3145C55.445 31.1398 55.6277 31.9205 55.8555 32.7012C56.2423 34.0426 53.5642 38.1269 51.9642 40.5686C51.9377 40.6105 51.9113 40.6472 51.8848 40.6891C52.1073 40.917 52.2609 41.1659 52.3616 41.4043C52.449 41.2707 52.5364 41.1344 52.6291 40.9956C55.0768 37.2623 57.0661 34.0426 56.6158 32.4864C56.3959 31.724 56.2158 30.9538 56.0224 30.139H56.0251Z" fill="black"/>
<path d="M40.876 48.2129C40.8124 48.2234 40.7488 48.2312 40.6879 48.2417C38.0548 48.6321 35.5675 48.9988 34.288 49.3787C32.0523 50.0415 31.7397 50.0258 30.908 49.9839C30.6537 49.9708 30.3384 49.9551 29.9146 49.9551C29.1067 49.9551 28.2749 49.6538 27.3955 49.3342C26.4365 48.9857 25.4432 48.6242 24.3809 48.6242C23.7478 48.6242 22.8313 48.7866 21.7691 48.9726C21.7188 48.9805 21.6631 48.991 21.6101 49.0015C20.7122 49.5123 20.3545 49.8529 20.2168 50.0311C20.7969 49.942 21.3664 49.8424 21.9095 49.7481C22.9346 49.5673 23.8167 49.4128 24.3809 49.4128C25.3028 49.4128 26.2273 49.7481 27.1226 50.073C28.0286 50.4031 28.9663 50.7437 29.9146 50.7437C30.3172 50.7437 30.6086 50.7594 30.8656 50.7725C31.0669 50.7829 31.2444 50.7934 31.4219 50.7934C32.0391 50.7934 32.6775 50.6834 34.5158 50.1385C35.7396 49.7743 38.2005 49.4102 40.8044 49.025C41.2574 48.9569 41.6892 48.894 42.1104 48.8312C41.8349 48.6845 41.5223 48.5247 41.1568 48.3517C41.0614 48.3072 40.9687 48.2653 40.876 48.2207V48.2129Z" fill="black"/>
<path d="M44.7383 47.6113C44.6933 47.6192 44.6483 47.6271 44.6006 47.6349C44.6456 47.6559 44.6854 47.6742 44.7198 47.6899C44.7251 47.6637 44.7304 47.6375 44.7357 47.6113H44.7383Z" fill="black"/>
<path d="M15.0273 49.0484C14.2591 48.6344 13.8379 47.8328 13.4829 46.9132C13.4088 46.8372 13.3346 46.7586 13.2578 46.6774C12.2114 45.6216 11.5545 44.186 11.4618 42.9232C11.4167 42.8813 11.377 42.8367 11.3293 42.7974C9.47771 41.2491 9.19427 41.0107 8.31217 38.1027C7.78768 36.371 8.02079 31.4221 8.48965 27.3823C8.35456 27.1832 8.22211 26.9841 8.08436 26.7798L7.81682 26.3711C7.25789 30.6519 6.94796 36.3474 7.54927 38.3306C8.47376 41.3749 8.82872 41.7364 10.8128 43.4C11.6446 44.0969 12.0445 45.2391 12.4313 46.3421C12.8975 47.6782 13.3823 49.0615 14.6458 49.74C14.916 49.8841 15.2153 49.9915 15.5332 50.0753C15.4034 49.7426 15.2604 49.4151 15.0829 49.0746C15.0643 49.0641 15.0432 49.0588 15.0246 49.0484H15.0273Z" fill="black"/>
<path d="M14.4604 15.4214C18.0947 12.2252 22.8152 8.39235 25.5091 7.83694C28.7117 7.17674 43.6783 12.9613 48.4093 16.506C48.5577 16.3016 48.7087 16.0842 48.857 15.8589C43.8531 12.1413 28.7462 6.36197 25.3476 7.06671C22.4708 7.65879 17.761 11.4602 14.0127 14.7585L14.1451 14.9655C14.2485 15.1227 14.3544 15.272 14.4604 15.4214Z" fill="black"/>
<path d="M7.59187 25.303C6.61971 23.7652 5.6343 22.0911 4.72306 20.3725C2.4794 16.1362 -0.0794894 10.197 0.474141 5.966C0.680759 4.37052 1.33505 3.14968 2.40788 2.31657C2.32576 3.14182 2.23304 4.88663 2.80257 5.90837L3.14958 5.71974C2.53767 4.61941 2.78403 2.45805 2.8423 2.01005C3.59461 1.53324 4.28068 1.16385 4.90319 0.899245C4.80782 1.65114 4.67538 3.46406 5.42768 4.6849L5.76675 4.48056C5.0012 3.23614 5.2555 1.20839 5.32702 0.731576C6.42369 0.333361 7.30843 0.288824 8.00246 0.600584C9.59978 1.3158 9.98652 3.89109 10.3256 6.16249C10.4395 6.9301 10.5481 7.65841 10.6991 8.30813C11.1441 10.239 12.2063 12.6204 13.4116 14.5669C13.5096 14.7267 13.6103 14.8761 13.7083 15.0306C13.809 14.9416 13.9096 14.8525 14.0103 14.7634L13.7109 14.2945C12.5693 12.4344 11.5282 10.1499 11.0858 8.21906C10.9401 7.58244 10.8315 6.86461 10.7176 6.10485C10.3627 3.7339 9.96003 1.04596 8.16669 0.244287C6.86076 -0.339936 5.02504 0.147353 2.54827 1.72973C1.15757 2.61786 0.3258 4.02733 0.0794476 5.91361C-0.635769 11.4022 3.64229 19.8721 7.47267 25.8401L7.81703 26.3666C7.84352 26.1649 7.87001 25.9684 7.8965 25.7746C7.79584 25.6174 7.69253 25.4628 7.59187 25.3004V25.303Z" fill="black"/>
<path d="M17.1653 18.2356L17.1705 17.8426C16.4898 17.8347 15.4752 16.8523 14.4607 15.4219C14.36 15.5109 14.2594 15.6 14.1587 15.6865C15.2315 17.185 16.3361 18.2251 17.1653 18.2356Z" fill="black"/>
<path d="M12.3228 31.7759C11.3586 30.7306 10.0049 28.957 8.56127 26.793C8.53743 26.9868 8.51359 27.1833 8.48975 27.3824C9.90693 29.4731 11.1864 31.1288 12.0287 32.0405L12.3228 31.7759Z" fill="black"/>
<path d="M52.2981 9.20617C52.4465 8.55645 52.5551 7.83076 52.6716 7.06053C53.0107 4.78914 53.3974 2.21384 54.9948 1.49862C55.6888 1.18686 56.5762 1.2314 57.6702 1.62962C57.7444 2.10643 57.996 4.1368 57.2305 5.3786L57.5695 5.58294C58.3218 4.3621 58.1894 2.54918 58.094 1.79729C58.7165 2.06189 59.4026 2.43129 60.1549 2.91071C60.2132 3.35871 60.4595 5.52007 59.8476 6.6204L60.1947 6.80903C60.7615 5.78729 60.6715 4.04248 60.5893 3.21724C61.6622 4.04772 62.3138 5.27118 62.5231 6.86666C63.0741 11.0977 60.5152 17.0395 58.2715 21.2757C57.2729 23.162 56.1841 24.9959 55.1193 26.6516C55.1696 26.8193 55.2173 26.9844 55.2623 27.1468C59.1589 21.1631 63.6489 12.4312 62.9178 6.81689C62.6714 4.92799 61.8397 3.52114 60.4463 2.62777C57.9695 1.04277 56.1312 0.555485 54.8279 1.14233C53.0319 1.94662 52.6319 4.63194 52.2769 7.00289C52.163 7.76265 52.0571 8.4831 51.9087 9.1171C51.4107 11.2863 50.1578 13.9009 48.8545 15.8579C48.9657 15.9391 49.0717 16.0204 49.1724 16.1016C50.5419 14.0581 51.8028 11.3544 52.2955 9.20355L52.2981 9.20617Z" fill="black"/>
<path d="M47.8982 17.1693C47.1115 18.1282 46.3671 18.7386 45.832 18.7439L45.8373 19.1368C46.4837 19.129 47.2996 18.4924 48.134 17.5047C48.3062 17.303 48.4757 17.0855 48.6479 16.855C48.6744 16.8209 48.6982 16.7842 48.7247 16.7475C48.6267 16.6663 48.5234 16.5851 48.4121 16.5039C48.4121 16.5039 48.4095 16.5091 48.4068 16.5118L47.9009 17.1667L47.8982 17.1693Z" fill="black"/>
<path d="M53.1143 29.6094C52.8414 29.9867 52.5765 30.3456 52.3222 30.681C51.705 31.4905 51.1461 32.1716 50.6772 32.6773L50.9713 32.9419C51.3395 32.5437 51.7898 32.004 52.2984 31.3516L53.1249 30.2565C53.6176 29.5859 54.1447 28.834 54.6878 28.0244C54.6454 27.862 54.6003 27.697 54.5527 27.5293C54.06 28.2707 53.5778 28.9702 53.1169 29.6094H53.1143Z" fill="black"/>
<path d="M8.48973 27.3826C8.51357 27.1835 8.53741 26.987 8.56125 26.7932C8.44205 26.6124 8.3202 26.4316 8.19834 26.2456C8.09768 26.0937 7.99702 25.9339 7.89636 25.7793C7.86987 25.9732 7.84338 26.1697 7.81689 26.3714L8.08444 26.7801C8.21954 26.9844 8.35463 27.1861 8.48973 27.3826Z" fill="black"/>
<path d="M54.5498 27.53C54.5975 27.6977 54.6425 27.8627 54.6849 28.0251C54.8756 27.7396 55.0717 27.4462 55.265 27.1475C55.22 26.9851 55.1723 26.8226 55.122 26.6523C54.9286 26.951 54.7379 27.2444 54.5498 27.53Z" fill="black"/>
<path d="M13.846 15.2372C13.9493 15.3918 14.0553 15.5411 14.1586 15.6852C14.2593 15.5962 14.3573 15.5097 14.4606 15.4206C14.3546 15.2739 14.2513 15.122 14.1454 14.9648L14.0129 14.7578C13.9123 14.8469 13.8089 14.936 13.7109 15.025C13.756 15.0958 13.801 15.1691 13.846 15.2372Z" fill="black"/>
<path d="M48.7222 16.7501C48.8732 16.5432 49.0269 16.3283 49.1752 16.103C49.0746 16.0218 48.9686 15.9406 48.8573 15.8594C48.709 16.0821 48.558 16.3021 48.4097 16.5065C48.5209 16.5903 48.6242 16.6715 48.7222 16.7501Z" fill="black"/>
<path d="M11.9231 43.425C11.7986 42.7963 11.8118 42.1963 11.9893 41.6959C12.2675 40.9126 12.935 40.4358 13.9178 40.3179C15.1177 40.1738 16.1826 40.4777 17.0038 41.1982C18.1322 42.1885 18.7547 43.8992 18.7547 46.016C18.7547 47.4386 19.0753 48.5049 19.4302 49.3458C19.5653 49.3275 19.7031 49.3092 19.8382 49.2908C19.666 48.8979 19.5044 48.4577 19.3799 47.9547C19.3402 47.973 19.3084 47.9861 19.3031 47.9888L19.1945 47.7504C19.1945 47.7504 19.2448 47.7268 19.3216 47.6927C19.2183 47.2002 19.1547 46.6474 19.1547 46.016C19.1547 43.7866 18.4846 41.971 17.2687 40.9047C16.3627 40.1109 15.1866 39.773 13.8727 39.9302C12.429 40.1031 11.8489 40.9152 11.6158 41.5676C11.4728 41.9736 11.4277 42.4373 11.4622 42.9273C11.6317 43.0818 11.7854 43.2495 11.9231 43.4276V43.425Z" fill="black"/>
<path d="M13.1362 45.9473C13.1521 45.9918 13.168 46.039 13.1839 46.0835C13.2819 46.3664 13.3799 46.6441 13.4832 46.914C14.2673 47.7392 14.7441 48.4256 15.0859 49.0753C15.2527 49.1592 15.4355 49.2299 15.6315 49.2876C15.2368 48.4413 14.6647 47.5375 13.5442 46.4057C13.4011 46.2616 13.266 46.1071 13.1389 45.9473H13.1362Z" fill="black"/>
<path d="M19.8645 50.1621C19.8645 50.1464 19.8672 50.1176 19.8831 50.0783C19.846 50.0835 19.8115 50.0887 19.7745 50.094C19.8062 50.1595 19.838 50.225 19.8698 50.2879C20.2804 51.1183 20.5506 51.6659 20.1983 52.2265C19.7612 52.9182 19.0274 53.6386 18.2831 53.6098C17.7639 53.5862 17.3056 53.1854 16.9215 52.4256C16.5825 51.7497 16.3653 51.1629 16.156 50.5944C16.1057 50.4555 16.0527 50.3167 15.9997 50.1778C15.8408 50.1516 15.6871 50.1176 15.5361 50.0783C15.6209 50.2931 15.7004 50.5079 15.7825 50.728C15.9944 51.307 16.2169 51.9069 16.5666 52.6012C17.0195 53.4998 17.5891 53.9713 18.2646 54.0028C18.2884 54.0028 18.3122 54.0028 18.3361 54.0028C19.0963 54.0028 19.9122 53.4212 20.5374 52.4335C21.0089 51.6895 20.6645 50.9926 20.2301 50.1149C20.2195 50.0966 20.2115 50.0756 20.2009 50.0547C20.1427 50.1359 20.1321 50.1752 20.1321 50.1778L19.8672 50.1621H19.8645Z" fill="black"/>
<path d="M13.1361 45.9471C12.5162 45.1795 12.0924 44.2783 11.9228 43.4242C11.7851 43.2461 11.6314 43.081 11.4619 42.9238C11.5546 44.1866 12.2116 45.6223 13.2579 46.678C13.3374 46.7566 13.4115 46.8352 13.4831 46.9138C13.3798 46.644 13.2817 46.3663 13.1837 46.0833C13.1678 46.0388 13.1519 45.9917 13.1361 45.9471Z" fill="black"/>
<path d="M15.6316 49.2884C15.4356 49.2307 15.2528 49.1626 15.0859 49.0762C15.2634 49.4141 15.4065 49.7442 15.5363 50.0769C15.6872 50.1162 15.8409 50.1477 15.9998 50.1765C15.8886 49.8831 15.7694 49.5897 15.6316 49.2884Z" fill="black"/>
<path d="M19.4302 49.3428C19.5441 49.6153 19.6633 49.8641 19.7745 50.0921C19.8116 50.0868 19.8461 50.0816 19.8831 50.0763C19.907 50.0135 19.9573 49.9192 20.0712 49.7908C19.9944 49.631 19.9149 49.4633 19.8381 49.2852C19.703 49.3035 19.5679 49.3218 19.4302 49.3402V49.3428Z" fill="black"/>
<path d="M22.1875 46.5031C23.9887 45.3504 25.541 43.789 25.5569 43.7732L25.3688 43.5898C25.3529 43.6056 23.8192 45.1486 22.0444 46.283C21.2338 46.8018 19.7584 47.4882 19.3213 47.6873C19.3398 47.7763 19.3584 47.8628 19.3796 47.9492C19.7425 47.7842 21.3133 47.0611 22.1875 46.5031Z" fill="black"/>
<path d="M19.3 47.9855C19.3 47.9855 19.3371 47.9698 19.3768 47.9514C19.3556 47.865 19.3371 47.7785 19.3186 47.6895C19.2417 47.7235 19.1941 47.7471 19.1914 47.7471L19.3 47.9855Z" fill="black"/>
<path d="M20.1983 50.056C20.1983 50.056 20.2117 50.0373 20.2198 50.0293C20.209 50.0293 20.1983 50.032 20.1875 50.0346C20.1902 50.0426 20.1956 50.0506 20.1983 50.056Z" fill="black"/>
<path d="M27.8987 46.5217L27.8404 46.2676C27.8166 46.2728 25.5279 46.802 22.7703 48.1067C21.9253 48.5075 21.3267 48.8429 20.9028 49.1206C21.1465 49.0787 21.3849 49.0367 21.6154 48.9974C21.9571 48.8036 22.373 48.5861 22.8869 48.3425C25.6153 47.0509 27.8802 46.5269 27.9014 46.5217H27.8987Z" fill="black"/>
<path d="M21.6127 48.9961C21.3822 49.0354 21.1465 49.0773 20.9001 49.1192C20.4684 49.4022 20.2167 49.6222 20.0684 49.7899C20.1081 49.8711 20.1478 49.9523 20.1849 50.0309C20.1955 50.0309 20.2061 50.0283 20.2167 50.0257C20.3571 49.8475 20.7121 49.507 21.61 48.9961H21.6127Z" fill="black"/>
<path d="M19.8828 50.0758C19.8696 50.1151 19.8643 50.1439 19.8643 50.1596L20.1292 50.1753C20.1292 50.1753 20.1397 50.1334 20.198 50.0522C20.1954 50.0443 20.1901 50.0365 20.1874 50.0312C20.0868 50.047 19.9835 50.0627 19.8828 50.0758Z" fill="black"/>
<path d="M20.1874 50.032C20.1477 49.9534 20.1106 49.8749 20.0709 49.791C19.9596 49.9168 19.9067 50.0111 19.8828 50.0766C19.9835 50.0609 20.0868 50.0478 20.1874 50.032Z" fill="black"/>
<path d="M50.1713 39.9271C48.8547 39.7673 47.6813 40.1079 46.7753 40.9017C45.5595 41.968 44.8893 43.7835 44.8893 46.013C44.8893 46.6103 44.831 47.1369 44.7383 47.6111C44.8787 47.5875 45.0164 47.564 45.1515 47.5378C45.2336 47.0793 45.284 46.5737 45.284 46.013C45.284 43.8962 45.9065 42.1854 47.0349 41.1951C47.721 40.5926 48.5846 40.2808 49.5514 40.2808C49.7369 40.2808 49.9276 40.2913 50.121 40.3149C50.7858 40.3935 51.3024 40.6424 51.6573 41.0353C51.7315 40.9227 51.8057 40.8074 51.8851 40.6895C51.5275 40.328 50.9872 40.0241 50.1713 39.9271Z" fill="black"/>
<path d="M50.4993 46.4062C48.7934 48.13 48.3537 49.3247 47.8848 50.5927C47.6756 51.1612 47.4583 51.748 47.1193 52.4239C46.7352 53.1837 46.2769 53.5819 45.7577 53.6081C45.0187 53.6369 44.2796 52.9165 43.8425 52.2248C43.4876 51.6642 43.7604 51.1166 44.171 50.2862C44.4253 49.77 44.7299 49.1491 44.9577 48.3711C44.8147 48.3946 44.6716 48.4208 44.5233 48.4444C44.3617 48.9553 44.163 49.3954 43.9723 49.7936C44.1551 49.998 44.1763 50.1185 44.1789 50.163L43.914 50.1787C43.914 50.1787 43.9034 50.1368 43.8452 50.0556C43.8346 50.0766 43.8266 50.0949 43.816 50.1159C43.3816 50.9961 43.0372 51.6904 43.5088 52.4344C44.1339 53.4221 44.9498 54.0037 45.71 54.0037C45.7339 54.0037 45.7577 54.0037 45.7789 54.0037C46.4544 53.9723 47.0239 53.5007 47.4769 52.6021C47.8265 51.9078 48.0464 51.3079 48.261 50.7289C48.7325 49.4504 49.1378 48.3449 50.7854 46.6839C52.237 45.2168 52.9443 43.0187 52.4278 41.57C52.4092 41.5176 52.388 41.4652 52.3642 41.4102C52.2688 41.5542 52.1788 41.6931 52.0914 41.8293C52.4754 43.1471 51.8106 45.0858 50.4993 46.4088V46.4062Z" fill="black"/>
<path d="M51.6599 41.0372C51.8294 41.2259 51.9619 41.4433 52.0519 41.6948C52.0678 41.7367 52.0784 41.7813 52.089 41.8258C52.1764 41.6896 52.2665 41.5507 52.3618 41.4066C52.2585 41.1682 52.1075 40.9167 51.885 40.6914C51.8082 40.8093 51.7314 40.9246 51.6572 41.0372H51.6599Z" fill="black"/>
<path d="M44.7383 47.6117C44.733 47.6379 44.7277 47.6641 44.7224 47.6903C44.7992 47.7244 44.8469 47.748 44.8495 47.748L44.7409 47.9864C44.7409 47.9864 44.7038 47.9707 44.6641 47.9523C44.6217 48.1226 44.5767 48.2877 44.5264 48.4449C44.6747 48.4213 44.8178 48.3951 44.9608 48.3715C45.035 48.1121 45.1012 47.8371 45.1542 47.541C45.0191 47.5646 44.8787 47.5882 44.7409 47.6144L44.7383 47.6117Z" fill="black"/>
<path d="M41.9993 46.283C40.2245 45.1486 38.6908 43.6056 38.6749 43.5898L38.4868 43.7732C38.5027 43.789 40.055 45.353 41.8563 46.5031C42.4947 46.9118 43.5039 47.4069 44.145 47.7108C44.2986 47.6846 44.4523 47.6611 44.6032 47.6349C44.0602 47.3834 42.749 46.7625 41.9993 46.2857V46.283Z" fill="black"/>
<path d="M44.722 47.6898C44.6876 47.6741 44.6478 47.6557 44.6028 47.6348C44.4518 47.661 44.3008 47.6845 44.1445 47.7107C44.3803 47.8234 44.5657 47.9072 44.6637 47.9518C44.6849 47.8653 44.7035 47.7789 44.722 47.6898Z" fill="black"/>
<path d="M44.7409 47.9855L44.8495 47.7471C44.8495 47.7471 44.7992 47.7235 44.7223 47.6895C44.7038 47.7785 44.6853 47.865 44.6641 47.9514C44.7038 47.9698 44.7329 47.9829 44.7409 47.9855Z" fill="black"/>
<path d="M36.2033 46.2676L36.145 46.5217C36.1662 46.5269 38.2774 47.0168 40.8787 48.2141C41.035 48.1905 41.1913 48.167 41.3502 48.1434C41.3237 48.1303 41.2999 48.1198 41.2734 48.1067C38.5158 46.802 36.2271 46.2728 36.2033 46.2676Z" fill="black"/>
<path d="M42.5395 48.7578C42.3991 48.7788 42.2534 48.7997 42.1104 48.8233C43.2971 49.4599 43.705 49.866 43.8428 50.0546C43.8851 49.9682 43.9275 49.8817 43.9699 49.7926C43.7633 49.5595 43.3527 49.2189 42.5368 48.7578H42.5395Z" fill="black"/>
<path d="M41.3475 48.1426C41.1886 48.1662 41.0323 48.1897 40.876 48.2133C40.9687 48.2552 41.0614 48.2971 41.1568 48.3443C41.5223 48.5172 41.8349 48.677 42.1104 48.8237C42.2534 48.8028 42.3991 48.7792 42.5395 48.7582C42.211 48.5722 41.819 48.3679 41.3475 48.1426Z" fill="black"/>
<path d="M44.179 50.1624C44.179 50.1178 44.1551 49.9973 43.9724 49.793C43.93 49.882 43.8849 49.9711 43.8452 50.055C43.9035 50.1362 43.9141 50.1755 43.9141 50.1781L44.179 50.1624Z" fill="black"/>
<path d="M29.7106 29.7266C29.9358 29.7266 30.1292 29.8969 30.1424 30.1222C30.2669 32.0215 31.2815 33.5594 32.4656 33.5594C33.6496 33.5594 34.6642 32.0215 34.7887 30.1222C34.8046 29.8995 34.9953 29.7266 35.2205 29.7266C35.4748 29.7266 35.6708 29.9414 35.6549 30.1929C35.5013 32.5979 34.1529 34.4213 32.4629 34.4213C30.7729 34.4213 29.4272 32.5979 29.2709 30.1929C29.255 29.9414 29.4511 29.7266 29.7053 29.7266H29.7106Z" fill="black"/>
<path d="M31.0803 24.0944C32.1175 24.0944 32.9584 22.8018 32.9584 21.2074C32.9584 19.6129 32.1175 18.3203 31.0803 18.3203C30.043 18.3203 29.2021 19.6129 29.2021 21.2074C29.2021 22.8018 30.043 24.0944 31.0803 24.0944Z" fill="black"/>
<path d="M41.2575 20.1546C40.7965 19.7302 39.5701 18.8264 37.986 19.4708C36.4787 20.0813 36.0629 21.2261 35.949 21.7841C35.9172 21.9335 36.0046 22.0749 36.1264 22.1064C36.1344 22.1064 36.1423 22.1116 36.1503 22.1142C36.1556 22.1142 36.1609 22.1195 36.1662 22.1195C36.1741 22.1195 36.1821 22.1169 36.1927 22.1142C36.2086 22.1142 36.2244 22.1116 36.2403 22.1064C36.243 22.1064 36.2483 22.1038 36.2509 22.1011C36.288 22.088 36.3225 22.0671 36.3489 22.033C36.537 21.8051 36.9953 21.4043 37.9463 21.3257C38.929 21.2445 39.48 21.7789 39.7052 22.0671C39.7793 22.164 39.9012 22.185 39.9939 22.1169H39.9992C40.1211 22.0252 40.1449 21.8287 40.0469 21.7029C39.7581 21.3283 39.0827 20.6838 37.9145 20.7781C37.4165 20.82 37.0324 20.9458 36.733 21.0977C36.9847 20.7022 37.4138 20.2777 38.1396 19.9817C39.5197 19.4211 40.5899 20.2201 40.9767 20.579C41.0694 20.6655 41.2018 20.655 41.2839 20.5554C41.382 20.4376 41.3687 20.2489 41.2601 20.1467L41.2575 20.1546Z" fill="black"/>
</g>
<g clip-path="url(#clip1_2836_6680)">
<path d="M58.9952 62.9028V59.5228C58.9952 59.2857 58.8039 59.0925 58.5685 59.0925H50.4295C50.1944 59.0925 50.0028 59.2854 50.0028 59.5228V62.9028L49.3003 63.6111V59.523C49.3003 58.8954 49.8067 58.3848 50.4295 58.3848H58.5685C59.1911 58.3848 59.6978 58.8954 59.6978 59.523V63.6111L58.9952 62.9028Z" fill="#D3A148"/>
<path d="M58.3156 48H50.6812C50.5035 48 50.3594 48.1453 50.3594 48.3245V59.0418C50.3594 59.221 50.5035 59.3663 50.6812 59.3663H58.3156C58.4934 59.3663 58.6375 59.221 58.6375 59.0418V48.3245C58.6375 48.1453 58.4934 48 58.3156 48Z" fill="#BA4242"/>
<path d="M57.7114 48H51.2852V59.3663H57.7114V48Z" fill="#E52E2E"/>
<path d="M54.4992 75.0009C58.6414 75.0009 61.9993 71.6153 61.9993 67.4389C61.9993 63.2626 58.6414 59.877 54.4992 59.877C50.3569 59.877 46.999 63.2626 46.999 67.4389C46.999 71.6153 50.3569 75.0009 54.4992 75.0009Z" fill="#EFB04B"/>
<path d="M54.4979 73.2818C57.6991 73.2818 60.2942 70.6654 60.2942 67.4378C60.2942 64.2102 57.6991 61.5938 54.4979 61.5938C51.2967 61.5938 48.7017 64.2102 48.7017 67.4378C48.7017 70.6654 51.2967 73.2818 54.4979 73.2818Z" fill="#F7C452"/>
</g>
<path d="M25.3471 87.6586V85.6143H28.9086V95H26.62V87.6586H25.3471ZM33.5497 95.1029C32.924 95.1029 32.3668 94.9957 31.8783 94.7814C31.3897 94.5671 31.004 94.2757 30.7211 93.9071C30.4383 93.53 30.2797 93.11 30.2454 92.6471H32.4183C32.444 92.8957 32.5597 93.0971 32.7654 93.2514C32.9711 93.4057 33.224 93.4829 33.524 93.4829C33.7983 93.4829 34.0083 93.4314 34.154 93.3286C34.3083 93.2171 34.3854 93.0757 34.3854 92.9043C34.3854 92.6986 34.2783 92.5486 34.064 92.4543C33.8497 92.3514 33.5026 92.24 33.0226 92.12C32.5083 92 32.0797 91.8757 31.7368 91.7471C31.394 91.61 31.0983 91.4 30.8497 91.1171C30.6011 90.8257 30.4768 90.4357 30.4768 89.9471C30.4768 89.5357 30.5883 89.1629 30.8111 88.8286C31.0426 88.4857 31.3768 88.2157 31.814 88.0186C32.2597 87.8214 32.7868 87.7229 33.3954 87.7229C34.2954 87.7229 35.0026 87.9457 35.5168 88.3914C36.0397 88.8371 36.3397 89.4286 36.4168 90.1657H34.3854C34.3511 89.9171 34.2397 89.72 34.0511 89.5743C33.8711 89.4286 33.6311 89.3557 33.3311 89.3557C33.074 89.3557 32.8768 89.4071 32.7397 89.51C32.6026 89.6043 32.534 89.7371 32.534 89.9086C32.534 90.1143 32.6411 90.2686 32.8554 90.3714C33.0783 90.4743 33.4211 90.5771 33.884 90.68C34.4154 90.8171 34.8483 90.9543 35.1826 91.0914C35.5168 91.22 35.8083 91.4343 36.0568 91.7343C36.314 92.0257 36.4468 92.42 36.4554 92.9171C36.4554 93.3371 36.3354 93.7143 36.0954 94.0486C35.864 94.3743 35.5254 94.6314 35.0797 94.82C34.6426 95.0086 34.1326 95.1029 33.5497 95.1029ZM41.7991 93.1357V95H40.6805C39.8833 95 39.2619 94.8071 38.8162 94.4214C38.3705 94.0271 38.1476 93.3886 38.1476 92.5057V89.6514H37.2733V87.8257H38.1476V86.0771H40.3462V87.8257H41.7862V89.6514H40.3462V92.5314C40.3462 92.7457 40.3976 92.9 40.5005 92.9943C40.6033 93.0886 40.7748 93.1357 41.0148 93.1357H41.7991Z" fill="#F7F7F5"/>
<defs>
<clipPath id="clip0_2836_6680">
<rect width="63" height="54" fill="white"/>
</clipPath>
<clipPath id="clip1_2836_6680">
<rect width="15" height="27" fill="white" transform="translate(47 48)"/>
</clipPath>
</defs>
</svg>
