<svg width="146" height="87" viewBox="0 0 146 87" fill="none" xmlns="http://www.w3.org/2000/svg">
<path d="M33.4949 2.39568C37.4955 1.46897 43.2991 2.6104 44.2682 2.70364C45.505 2.8223 48.8012 2.56802 51.041 3.63034C57.8306 6.84838 56.8953 15.3582 59.3519 18.7571C61.9805 22.3933 66.7952 33.833 63.3525 35.4293C61.9551 36.0763 38.4083 43.4927 34.0978 43.4927C29.7874 43.4927 8.09994 39.5769 5.96444 38.41C3.17533 36.8843 4.41493 31.1037 4.86288 29.8719C5.45733 28.2417 9.94244 22.6165 11.4807 21.0739C13.0189 19.5312 15.7911 19.2204 16.4053 18.2966C17.0195 17.3727 17.6364 14.2846 18.5605 13.3579C19.4846 12.4312 25.3333 8.72721 26.2573 7.49255C27.1814 6.25789 31.4918 2.86185 33.4921 2.3985L33.4949 2.39568Z" fill="#FFBA0A"/>
<path d="M56.5909 18.8089C55.7964 17.7098 55.3513 15.9525 54.8808 14.0934C53.9398 10.3781 52.7706 5.75875 48.1334 3.56065C46.3472 2.71306 43.9582 2.67068 42.3777 2.64243C41.9128 2.63395 41.51 2.62547 41.2339 2.60005C41.093 2.58592 40.8225 2.54637 40.4817 2.49551C38.4786 2.19885 33.7906 1.501 30.3394 2.30056C28.2547 2.78369 23.8597 6.23623 22.8877 7.53588C22.3778 8.2196 20.0592 9.84699 18.1941 11.1551C16.8165 12.1214 15.6276 12.9577 15.2275 13.3589C14.6218 13.9663 14.188 15.2518 13.7654 16.495C13.5005 17.2776 13.2498 18.015 13.0244 18.3568C12.8075 18.6846 12.0778 18.9756 11.3059 19.2835C10.2917 19.6876 9.03234 20.1905 8.14489 21.0776C7.25463 21.9704 5.13885 24.5132 3.50765 26.7367C0.287492 29.2767 0.138176 31.3844 0.0592922 32.523C0.0480231 32.6699 0.0395712 32.797 0.0254848 32.9101C-0.0703028 33.6842 0.0705613 34.9499 0.752344 36.1874C0.831228 36.3287 0.915746 36.4671 1.0059 36.6027C1.31017 37.7442 1.88489 38.5663 2.71317 39.0184C4.2824 39.8773 15.8558 42.1375 23.9273 43.3496C24.2231 45.5533 24.4034 47.4633 24.2795 47.7204C24.0541 48.0933 22.806 48.195 21.9777 48.017C21.6735 47.952 21.234 47.7967 20.7241 47.6158C19.6366 47.2316 18.2815 46.7569 17.1884 46.7569C16.5996 46.7569 16.1009 47.0451 15.7769 47.5706C15.2839 48.373 15.2867 49.619 15.7797 50.5994C15.884 50.8056 16.084 50.9328 16.3009 50.9328H26.184C26.46 50.9328 26.6826 50.6954 26.6826 50.4016V43.7423C28.6124 43.9966 30.1535 44.1492 31.024 44.1492C31.6917 44.1492 32.782 43.9825 34.1597 43.6971V50.4016C34.1597 50.6954 34.3822 50.9328 34.6583 50.9328H44.5414C44.7583 50.9328 44.9611 50.8056 45.0626 50.5994C45.5584 49.619 45.5584 48.3758 45.0682 47.5706C44.747 47.0451 44.2455 46.7569 43.6567 46.7569C42.5608 46.7569 41.2085 47.2344 40.121 47.6158C39.6111 47.7967 39.1716 47.9492 38.8674 48.017C38.0391 48.1978 36.7882 48.0933 36.5656 47.7232C36.436 47.4548 36.6389 45.381 36.9572 43.0558C41.4085 41.9595 47.2995 40.2305 52.072 38.7613C52.7932 38.9817 53.6468 39.154 54.6667 39.2642C55.34 39.3377 55.9514 39.3744 56.5064 39.3744C58.1207 39.3744 59.2532 39.0608 60.0139 38.4194C60.8055 37.7498 61.138 36.744 61.1943 35.45C61.4197 35.1675 61.5887 34.8143 61.6986 34.3905C62.71 30.5001 58.6447 21.6596 56.5852 18.8117L56.5909 18.8089ZM61.0957 33.2632C60.9605 32.0512 60.721 30.6837 60.4534 29.1722L60.428 29.0281C60.4196 28.9772 60.4055 28.9292 60.3942 28.8812C60.8703 30.5227 61.1492 32.0653 61.0929 33.2632H61.0957ZM37.0784 42.2364C36.9431 42.2703 36.8107 42.3042 36.6783 42.3353C36.6417 42.5924 36.6023 42.8665 36.5628 43.1518C36.2952 45.1183 36.0191 47.5452 36.2445 47.9181C36.6389 48.5708 38.2278 48.5454 38.9519 48.39C39.2787 48.3193 39.7294 48.1611 40.2506 47.9775C41.3099 47.6045 42.6312 47.1384 43.6595 47.1384C44.2371 47.1384 44.5695 47.483 44.747 47.7712C45.1724 48.4663 45.164 49.5597 44.7273 50.427C44.6879 50.5033 44.6174 50.5513 44.5442 50.5513H34.6612C34.5964 50.5513 34.5428 50.4835 34.5428 50.4016V42.8354C34.4132 42.8636 34.2865 42.8919 34.1625 42.9173C32.7679 43.2112 31.6748 43.3863 31.0269 43.3863C30.1845 43.3863 28.635 43.2281 26.6854 42.9682C26.5615 42.9512 26.4347 42.9343 26.3051 42.9173V50.4016C26.3051 50.4835 26.2516 50.5513 26.1868 50.5513H16.3037C16.2305 50.5513 16.1601 50.5033 16.1206 50.427C15.6811 49.5597 15.6755 48.4663 16.1009 47.7712C16.2784 47.483 16.608 47.1384 17.1884 47.1384C18.2195 47.1384 19.538 47.6017 20.5973 47.9775C21.1185 48.1611 21.5692 48.3193 21.896 48.39C22.6201 48.5482 24.209 48.5708 24.6035 47.9181C24.8176 47.5622 24.5753 45.3245 24.3189 43.4089C24.2823 43.1349 24.2457 42.8693 24.209 42.615C24.0794 42.5952 23.947 42.5755 23.8146 42.5557C19.6225 41.9172 14.5035 41.0074 10.3818 40.1711C12.8244 40.027 14.8472 39.2444 16.6362 38.4477C18.1857 37.7583 18.7069 36.7045 18.8027 35.6308H18.8252C18.8196 35.5998 18.8168 35.5715 18.8111 35.5461C18.8675 34.7126 18.6815 33.8735 18.5266 33.1841C18.504 33.0852 18.4815 32.9863 18.4618 32.8931C18.0955 31.2064 16.2587 30.2401 13.4217 30.2401C11.0692 30.2401 6.03475 31.181 5.98404 31.1923L6.0432 31.503C6.09391 31.4946 11.1002 30.5566 13.4217 30.5566C14.6866 30.5566 17.6842 30.7911 18.1547 32.9609C18.1744 33.0541 18.197 33.153 18.2195 33.2547C18.3265 33.735 18.4477 34.2719 18.49 34.8143C17.3884 33.3112 14.1232 33.4723 13.9654 33.4808L13.9823 33.7972C14.0246 33.7972 18.0505 33.5966 18.4956 35.5687C18.4421 36.227 18.2139 36.8655 17.6617 37.4051C17.0165 35.3285 13.0413 35.5235 12.8638 35.5348L12.8807 35.8512C12.923 35.8512 16.9658 35.6478 17.3968 37.6368C17.1546 37.8261 16.8616 38.0013 16.5122 38.1567C14.4021 39.0975 11.9623 40.0186 8.87739 39.8575C6.65737 39.3885 4.85149 38.9591 3.83163 38.637C3.19493 38.3177 2.6681 37.9532 2.23987 37.5634C1.54682 36.9333 1.10169 36.2439 0.817141 35.5941C0.202974 34.1899 0.335386 32.9722 0.338203 32.9496C0.35229 32.8281 0.363559 32.6897 0.372011 32.5456C0.439625 31.5822 0.555134 29.8983 2.72444 27.8273C3.30198 27.2735 4.02603 26.6944 4.93319 26.0926C5.12195 25.8468 5.31071 25.6038 5.50228 25.358C6.73625 23.7871 7.99276 22.3038 8.67736 21.6144C9.45211 20.8375 10.5818 20.3882 11.5792 19.9899C12.5032 19.6226 13.3005 19.3033 13.6499 18.7778C13.9316 18.354 14.1851 17.6053 14.4781 16.7379C14.8359 15.6869 15.2782 14.376 15.7572 13.8957C16.1093 13.5425 17.332 12.6836 18.6224 11.7767C20.7269 10.299 22.9046 8.77054 23.4878 7.98793C24.3837 6.78717 28.5927 3.47872 30.5028 3.03797C33.816 2.27231 38.4025 2.95321 40.3633 3.24422C40.7296 3.2979 40.9972 3.33745 41.155 3.35441C41.4593 3.38266 41.8762 3.39114 42.358 3.39961C43.8737 3.42786 46.1613 3.46742 47.801 4.24438C52.1142 6.28991 53.1876 10.5335 54.137 14.2771C54.6272 16.2096 55.0893 18.0348 55.9683 19.2525C57.3262 21.1313 59.2025 24.9822 60.2702 28.48C59.8251 27.3329 58.7038 26.6859 57.422 26.392C57.4361 26.3073 57.4501 26.2225 57.467 26.1349C57.6755 24.9653 57.9122 23.6402 57.0811 22.8689C56.6134 22.4366 55.8866 22.2417 54.8554 22.2784C53.582 22.3208 52.7622 22.5637 52.348 23.0243C51.8635 23.5611 52.0691 24.2448 52.2185 24.7449C52.2438 24.8268 52.2663 24.9031 52.2833 24.9737C52.4157 25.4879 52.565 26.2084 52.6523 26.6548C50.7253 27.2651 49.1504 28.4545 48.956 30.0593C48.9053 30.4831 48.8433 30.9097 48.7814 31.3307C48.3729 34.1532 47.9841 36.8542 50.9197 38.3064C46.4402 39.671 41.1578 41.2108 37.0727 42.2336L37.0784 42.2364ZM57.1036 26.0926C57.0895 26.1688 57.0783 26.2451 57.0642 26.3214C56.5289 26.2282 55.9767 26.1915 55.4386 26.1999C54.6272 26.2169 53.7961 26.3355 53.0129 26.5531C52.9228 26.1039 52.7791 25.4117 52.6523 24.9116C52.6326 24.8381 52.6101 24.759 52.5847 24.6714C52.4467 24.2081 52.272 23.6317 52.6495 23.2107C52.9876 22.835 53.737 22.6259 54.8751 22.5892C55.7879 22.5609 56.4218 22.7191 56.8106 23.0779C57.5234 23.7391 57.3008 24.9879 57.1036 26.0897V26.0926ZM59.7547 38.2019C58.8222 38.9901 57.2219 39.2303 54.7202 38.9562C53.9229 38.8687 53.2327 38.7443 52.6298 38.5889C52.1621 38.4675 51.7536 38.3262 51.3902 38.168C49.0941 37.1622 48.756 35.4302 48.911 33.3847C50.638 32.6869 53.6637 33.1869 53.6947 33.1926L53.768 32.8903C53.6412 32.8677 50.7929 32.3958 48.9391 33.0344C48.9927 32.4976 49.0744 31.9381 49.1561 31.3703C49.1673 31.2883 49.1786 31.2064 49.1927 31.1245C50.9141 30.5876 53.675 30.9323 53.7032 30.938L53.7595 30.6328C53.644 30.6187 51.0521 30.2938 49.2406 30.7854C49.2716 30.5566 49.3026 30.3277 49.3307 30.096C49.5054 28.6353 50.9422 27.5448 52.7171 26.9712C52.8354 26.9345 52.9538 26.8978 53.0721 26.8639C53.8384 26.6492 54.6526 26.5305 55.4471 26.5135C55.5034 26.5135 55.5569 26.5135 55.6133 26.5135C55.8978 26.5135 56.1852 26.5305 56.4725 26.5587C56.7768 26.5898 57.0811 26.6407 57.3741 26.7113C58.701 27.0277 59.8251 27.7538 60.0589 29.0789L60.0843 29.223C60.4534 31.3137 60.7717 33.1276 60.8252 34.6081C60.8422 35.0488 60.8365 35.4585 60.7999 35.8399C60.7013 36.8683 60.3914 37.6679 59.7519 38.2104L59.7547 38.2019Z" fill="black"/>
<path d="M36.7346 24.4648C36.9515 24.4648 37.1347 24.6344 37.1487 24.8519C37.2699 26.694 38.239 28.183 39.3716 28.183C40.5041 28.183 41.4733 26.694 41.5944 24.8519C41.6085 24.6344 41.7916 24.4648 42.0086 24.4648C42.2537 24.4648 42.4396 24.6654 42.4255 24.9112C42.279 27.2478 40.9915 29.0193 39.3716 29.0193C37.7516 29.0193 36.4641 27.2478 36.3176 24.9112C36.3036 24.6654 36.4895 24.4648 36.7346 24.4648Z" fill="black"/>
<path d="M46.6288 15.0323C46.4964 15.0323 46.3865 14.9306 46.378 14.7978C46.3048 13.6733 45.7132 12.7635 45.0229 12.7635C44.3327 12.7635 43.7411 13.6733 43.6678 14.7978C43.6594 14.9306 43.5467 15.0323 43.4171 15.0323C43.2678 15.0323 43.1551 14.9051 43.1635 14.7582C43.2537 13.3371 44.0397 12.2578 45.0258 12.2578C46.0118 12.2578 46.7978 13.3343 46.888 14.7582C46.8964 14.9051 46.7809 15.0323 46.6344 15.0323H46.6288Z" fill="black"/>
<path d="M39.786 15.0323C39.6536 15.0323 39.5437 14.9306 39.5353 14.7978C39.462 13.6733 38.8704 12.7635 38.1802 12.7635C37.4899 12.7635 36.8983 13.6733 36.8251 14.7978C36.8166 14.9306 36.7039 15.0323 36.5743 15.0323C36.425 15.0323 36.3123 14.9051 36.3208 14.7582C36.4109 13.3371 37.1969 12.2578 38.183 12.2578C39.169 12.2578 39.9551 13.3343 40.0452 14.7582C40.0537 14.9051 39.9382 15.0323 39.7917 15.0323H39.786Z" fill="black"/>
<path d="M102.619 5.61982C99.5147 5.83172 96.7115 7.06073 94.7873 8.67399C92.8631 10.2872 89.9782 15.5932 89.2908 21.1082C88.6034 26.6261 87.0933 31.9292 85.1691 36.1728C83.2449 40.4164 80.36 54.6334 82.4222 60.1513C84.4845 65.6691 86.82 70.1246 88.8795 73.094C90.9417 76.0635 94.6492 79.0357 100.146 78.1881C105.642 77.3405 108.251 76.9139 112.376 77.1258C116.497 77.3377 124.467 77.9734 128.313 72.6702C132.161 67.3643 135.458 63.9711 134.497 55.2691C133.536 46.57 133.122 42.5382 130.925 35.9581C128.727 29.3807 132.015 20.1476 127.352 15.7994C124.163 12.8272 122.862 8.88588 119.374 8.02416C108.322 5.28643 108.967 5.18472 102.619 5.61417V5.61982Z" fill="#FFBA0A"/>
<path d="M84.8535 47.6609C84.0253 52.7804 83.7069 58.2813 84.831 61.2903C86.7411 66.4013 89.0513 71.032 91.3361 74.3263C92.8124 76.4538 95.9283 79.7509 101.053 79.7509C101.676 79.7509 102.329 79.7029 103.014 79.5955L103.411 79.5334C103.574 79.5079 103.727 79.4853 103.884 79.4599C104.141 81.5139 104.282 83.178 104.16 83.4266C103.912 83.8391 102.524 83.9521 101.602 83.7515C101.264 83.6781 100.774 83.5058 100.208 83.3052C98.9991 82.8785 97.4947 82.3502 96.2776 82.3502C95.624 82.3502 95.0662 82.6723 94.7112 83.2543C94.1647 84.1471 94.1675 85.5315 94.7168 86.6192C94.8324 86.8481 95.0549 86.9922 95.2972 86.9922H106.282C106.589 86.9922 106.837 86.7266 106.837 86.4017V79.0135C109.95 78.5699 112.161 78.3806 115.148 78.5332V86.4017C115.148 86.7266 115.396 86.9922 115.703 86.9922H126.687C126.93 86.9922 127.152 86.8509 127.268 86.6192C127.817 85.5315 127.82 84.1471 127.273 83.2543C126.916 82.6723 126.361 82.3502 125.707 82.3502C124.49 82.3502 122.985 82.8785 121.777 83.3052C121.211 83.5058 120.72 83.6781 120.382 83.7515C119.461 83.9521 118.072 83.8363 117.824 83.4238C117.689 83.1441 117.883 81.0732 118.205 78.666C122.507 78.7479 128.313 78.2478 131.463 73.9053C131.829 73.3996 132.192 72.9108 132.544 72.4333C135.934 67.8563 138.613 64.2427 137.723 56.2075L137.661 55.6368C137.238 51.8142 136.914 48.8758 136.469 46.1777C136.773 45.7341 137.086 45.2679 137.401 44.7848L138.052 43.7733C142.129 37.3372 146.679 28.2002 145.915 22.2839C145.653 20.2469 144.769 18.7297 143.287 17.7663C140.653 16.0569 138.697 15.5314 137.311 16.1643C135.401 17.0317 134.976 19.9276 134.598 22.4845C134.477 23.3067 134.362 24.0808 134.207 24.7646C134.007 25.6517 133.683 26.6123 133.291 27.5729C133.314 23.1824 133.235 19.0744 130.446 16.4723C129.302 15.4043 128.406 14.212 127.541 13.0565C126.045 11.0618 124.631 9.17447 122.281 8.59245C121.002 8.27602 119.881 7.99349 118.886 7.74486C111.223 5.82364 111.08 5.78691 105.4 6.17116C102.416 6.37458 99.4724 7.52448 97.3256 9.32421C95.424 10.9205 92.4039 16.2236 91.6826 22.0325C91.2544 25.4653 90.4881 28.9121 89.4598 32.1076C88.2878 30.1355 87.2313 27.7566 86.7721 25.7365C86.6172 25.0499 86.5016 24.2758 86.3805 23.4564C86.003 20.8995 85.5748 18.0008 83.6675 17.1362C82.2785 16.5062 80.3233 17.0317 77.692 18.7382C76.2101 19.6988 75.3255 21.2188 75.0635 23.2559C74.1789 30.1412 80.4755 41.3718 84.8592 47.6525L84.8535 47.6609ZM84.9521 47.0789C83.3519 44.7565 81.5714 41.869 79.9994 38.8601C77.6131 34.2915 74.8916 27.8837 75.4776 23.3208C75.6974 21.6002 76.3932 20.2836 77.5342 19.3852C77.4469 20.2751 77.3483 22.1568 77.954 23.2587L78.3231 23.0553C77.6723 21.8686 77.9343 19.5377 77.9963 19.0546C78.7964 18.5404 79.5261 18.142 80.1881 17.8538C80.0867 18.6647 79.9458 20.6198 80.7459 21.9364L81.1066 21.7161C80.2924 20.374 80.5628 18.1872 80.6389 17.673C81.8024 17.2436 82.7462 17.1955 83.4843 17.5318C85.1832 18.3031 85.5917 21.0804 85.9551 23.5299C86.0762 24.3577 86.1917 25.1432 86.3523 25.8438C86.8285 27.9487 87.9807 30.548 89.2767 32.6613C89.4682 32.9721 89.6626 33.2744 89.8598 33.5626C89.9838 33.7463 90.1106 33.9243 90.2374 34.0966C90.4205 34.3452 90.6036 34.5769 90.7839 34.7973C91.6742 35.8624 92.5391 36.549 93.2265 36.5574L93.2321 36.1337C92.6602 36.128 91.8714 35.4669 91.0347 34.4356L90.4966 33.7293C90.3444 33.5174 90.1895 33.2914 90.0373 33.0597C91.1952 29.6269 92.0517 25.8834 92.5165 22.1596C93.204 16.639 96.1142 11.4658 97.8637 9.99664C99.8781 8.3071 102.642 7.23065 105.454 7.03853C111.001 6.66276 111.144 6.69667 118.678 8.5868C119.672 8.83543 120.796 9.11796 122.075 9.4344C124.135 9.94296 125.397 11.6297 126.862 13.5848C127.749 14.7686 128.668 15.992 129.868 17.1108C132.491 19.5575 132.468 23.6966 132.443 28.0815C132.443 28.542 132.437 29.0026 132.437 29.4659C132.113 30.1129 131.767 30.7429 131.412 31.3334L130.953 32.0595C129.764 33.8677 128.538 35.1504 127.738 35.1617L127.744 35.5855C128.713 35.5742 130.031 34.2237 131.274 32.3534C131.429 32.1189 131.584 31.8759 131.736 31.6273C131.981 31.2261 132.218 30.8051 132.446 30.3757C132.745 29.8191 133.026 29.2484 133.285 28.672C133.877 27.3667 134.353 26.0444 134.618 24.8748C134.776 24.1741 134.891 23.3915 135.015 22.5608C135.376 20.1113 135.787 17.334 137.486 16.5627C138.224 16.2265 139.168 16.2745 140.331 16.7039C140.41 17.2181 140.678 19.4049 139.864 20.747L140.224 20.9673C141.025 19.6507 140.884 17.6956 140.782 16.8848C141.444 17.1701 142.174 17.5685 142.974 18.0827C143.036 18.5658 143.298 20.8967 142.647 22.0833L143.016 22.2868C143.619 21.1849 143.523 19.3032 143.436 18.4133C144.577 19.3089 145.27 20.6283 145.493 22.3489C146.079 26.9118 143.357 33.3196 140.971 37.8882C140.005 39.7416 138.957 41.547 137.92 43.2054C137.703 43.5501 137.489 43.8891 137.275 44.2197C136.968 44.6972 136.663 45.1549 136.365 45.5985C136.131 45.9432 135.903 46.2737 135.677 46.5958C134.61 48.1158 133.638 49.3618 132.888 50.184L133.201 50.4693C133.852 49.7545 134.75 48.6159 135.77 47.1806C136.137 49.5906 136.432 52.2775 136.815 55.7385L136.877 56.3092C137.728 64.0111 135.139 67.5088 131.86 71.9361C131.505 72.4164 131.141 72.9052 130.772 73.4137C127.862 77.4285 122.523 77.9116 118.314 77.8297C118.171 77.8297 118.027 77.824 117.889 77.8184C117.85 78.0896 117.813 78.3721 117.773 78.6603C117.489 80.785 117.224 83.2543 117.461 83.647C117.897 84.3731 119.667 84.3449 120.47 84.1697C120.833 84.0906 121.335 83.9154 121.915 83.7092C123.093 83.2938 124.56 82.7796 125.704 82.7796C126.346 82.7796 126.716 83.1611 126.913 83.4803C127.386 84.2545 127.378 85.4693 126.89 86.4328C126.848 86.5175 126.769 86.5712 126.687 86.5712H115.703C115.632 86.5712 115.57 86.4949 115.57 86.4045V78.5586V77.711L115.201 77.6913C115.184 77.6913 115.165 77.6913 115.148 77.6913C114.455 77.6573 113.801 77.6404 113.173 77.6404C111.074 77.6404 109.212 77.8269 106.837 78.1631C106.699 78.1829 106.555 78.2026 106.414 78.2252V79.0813V86.4073C106.414 86.4978 106.355 86.5741 106.282 86.5741H95.2972C95.2155 86.5741 95.1366 86.5204 95.0944 86.4356C94.607 85.4693 94.5985 84.2573 95.0718 83.4831C95.269 83.1639 95.6381 82.7796 96.2804 82.7796C97.4242 82.7796 98.8921 83.2967 100.07 83.7092C100.65 83.9126 101.152 84.0906 101.515 84.1697C102.321 84.3449 104.087 84.3731 104.524 83.647C104.735 83.2995 104.549 81.3218 104.307 79.3977C104.27 79.1152 104.234 78.8327 104.197 78.5558C104.059 78.5756 103.918 78.5982 103.777 78.6208C103.614 78.6462 103.453 78.6716 103.284 78.6971L102.887 78.7592C97.0355 79.6633 93.573 76.0667 92.032 73.8432C89.7838 70.6025 87.5074 66.0396 85.6227 60.9936C84.6 58.2531 84.8254 53.3483 85.5353 48.6216L86.3551 49.7263C86.8961 50.4326 87.375 51.0146 87.7666 51.4412L88.0793 51.1559C87.5807 50.6106 86.9862 49.876 86.3298 49.003C86.1016 48.7007 85.8649 48.3758 85.6255 48.0395C85.5776 47.9746 85.5325 47.9124 85.4874 47.8446C85.3128 47.596 85.1324 47.3389 84.9493 47.0761L84.9521 47.0789Z" fill="black"/>
<path d="M97.2441 41.2239C97.7343 40.7662 99.0387 39.7915 100.723 40.4865C102.326 41.1448 102.769 42.3795 102.89 42.9813C102.924 43.1423 102.831 43.2949 102.701 43.3288C102.693 43.3288 102.684 43.3344 102.676 43.3373C102.67 43.3373 102.665 43.3429 102.659 43.3429C102.65 43.3429 102.642 43.3401 102.631 43.3373C102.614 43.3373 102.597 43.3344 102.58 43.3288C102.577 43.3288 102.572 43.3259 102.569 43.3231C102.529 43.309 102.493 43.2864 102.464 43.2497C102.264 43.0039 101.777 42.5716 100.766 42.4868C99.7205 42.3992 99.1345 42.9756 98.895 43.2864C98.8161 43.3909 98.6865 43.4135 98.5879 43.3401H98.5823C98.4527 43.2412 98.4273 43.0293 98.5316 42.8937C98.8386 42.4897 99.5571 41.7946 100.799 41.8963C101.329 41.9415 101.738 42.0772 102.056 42.241C101.788 41.8144 101.332 41.3567 100.56 41.0374C99.0922 40.4328 97.954 41.2945 97.5427 41.6816C97.4441 41.7749 97.3032 41.7635 97.2159 41.6562C97.1117 41.529 97.1257 41.3256 97.2413 41.2154L97.2441 41.2239Z" fill="black"/>
<path d="M112.018 41.2239C111.527 40.7662 110.223 39.7915 108.538 40.4865C106.935 41.1448 106.493 42.3795 106.372 42.9813C106.338 43.1423 106.431 43.2949 106.56 43.3288C106.569 43.3288 106.577 43.3344 106.586 43.3373C106.591 43.3373 106.597 43.3429 106.603 43.3429C106.611 43.3429 106.62 43.3401 106.631 43.3373C106.648 43.3373 106.665 43.3344 106.682 43.3288C106.684 43.3288 106.69 43.3259 106.693 43.3231C106.732 43.309 106.769 43.2864 106.797 43.2497C106.997 43.0039 107.485 42.5716 108.496 42.4868C109.541 42.3992 110.127 42.9756 110.367 43.2864C110.446 43.3909 110.575 43.4135 110.674 43.3401H110.679C110.809 43.2412 110.834 43.0293 110.73 42.8937C110.423 42.4897 109.705 41.7946 108.462 41.8963C107.933 41.9415 107.524 42.0772 107.206 42.241C107.473 41.8144 107.93 41.3567 108.702 41.0374C110.169 40.4328 111.308 41.2945 111.719 41.6816C111.818 41.7749 111.958 41.7635 112.046 41.6562C112.15 41.529 112.136 41.3256 112.02 41.2154L112.018 41.2239Z" fill="black"/>
<path d="M107.136 59.03C109.01 59.03 110.53 56.9631 110.53 54.4134C110.53 51.8638 109.01 49.7969 107.136 49.7969C105.261 49.7969 103.741 51.8638 103.741 54.4134C103.741 56.9631 105.261 59.03 107.136 59.03Z" fill="black"/>
<path d="M63.3493 15.2853C63.3154 15.2853 63.2816 15.2796 63.2478 15.2627C63.1211 15.2062 63.0619 15.0564 63.1182 14.9264C64.5381 11.6915 64.4142 8.16829 62.7773 5.26386C61.287 2.62219 58.7148 0.887446 55.7172 0.503202C55.5792 0.48625 55.4806 0.359111 55.4975 0.217845C55.5144 0.0794047 55.6412 -0.0166561 55.782 -0.00252951C58.9402 0.401491 61.6504 2.22947 63.2197 5.01241C64.9354 8.0581 65.0678 11.7451 63.5831 15.1299C63.5408 15.2259 63.4479 15.2824 63.3521 15.2824L63.3493 15.2853Z" fill="#365CCC"/>
<path d="M59.498 12.9761C59.4642 12.9761 59.4304 12.9705 59.3966 12.9535C59.2698 12.897 59.2107 12.7473 59.267 12.6173C60.0333 10.8741 59.9657 8.97546 59.0839 7.41306C58.2838 5.99475 56.9005 5.05957 55.289 4.85333C55.151 4.83637 55.0524 4.70924 55.0693 4.56797C55.0862 4.42953 55.2129 4.33064 55.3538 4.34759C57.1259 4.57362 58.6444 5.59921 59.5262 7.16161C60.4869 8.86528 60.563 10.9306 59.7319 12.8235C59.6896 12.9196 59.5966 12.9761 59.5009 12.9761H59.498Z" fill="#365CCC"/>
<path d="M61.3547 14.8082C61.3209 14.8082 61.2871 14.8025 61.2533 14.7856C61.1265 14.7291 61.0674 14.5793 61.1237 14.4494C62.3323 11.6947 62.2281 8.69985 60.8335 6.2277C59.5658 3.98157 57.3796 2.50393 54.8271 2.17902C54.6891 2.16207 54.5905 2.03493 54.6074 1.89366C54.6243 1.7524 54.751 1.65916 54.8919 1.67329C57.6021 2.0208 59.9292 3.58885 61.273 5.97624C62.7465 8.58684 62.8592 11.7512 61.5858 14.6528C61.5435 14.7489 61.4505 14.8054 61.3547 14.8054V14.8082Z" fill="#365CCC"/>
<path d="M78.0022 52.4925C77.9346 52.4925 77.867 52.484 77.8022 52.4642L64.499 48.4918C64.1271 48.3817 63.913 47.9861 64.0257 47.6132C64.1356 47.2402 64.53 47.0283 64.9019 47.1385L78.2051 51.1109C78.5769 51.2211 78.7911 51.6166 78.6784 51.9896C78.5882 52.2975 78.3065 52.4953 78.0022 52.4953V52.4925Z" fill="#365CCC"/>
<path d="M64.127 55.5597C63.7467 55.5597 63.4339 55.2574 63.4227 54.8731C63.4114 54.4833 63.7185 54.1583 64.1073 54.147L77.9824 53.7656C77.9824 53.7656 77.9965 53.7656 78.0021 53.7656C78.3824 53.7656 78.6951 54.0679 78.7064 54.4522C78.7177 54.8421 78.4106 55.167 78.0218 55.1783L64.1467 55.5597C64.1467 55.5597 64.1326 55.5597 64.127 55.5597Z" fill="#365CCC"/>
<path d="M65.6706 62.7958C65.3917 62.7958 65.1269 62.6263 65.017 62.3523C64.8734 61.9906 65.048 61.5781 65.4115 61.434L78.3005 56.275C78.6611 56.1309 79.0725 56.3061 79.2161 56.6705C79.3598 57.0322 79.1851 57.4447 78.8217 57.5888L65.9327 62.7478C65.8481 62.7817 65.758 62.7987 65.6706 62.7987V62.7958Z" fill="#365CCC"/>
</svg>
