<svg width="252" height="163" viewBox="0 0 252 163" fill="none" xmlns="http://www.w3.org/2000/svg">
<g clip-path="url(#clip0_6_12)">
<mask id="mask0_6_12" style="mask-type:luminance" maskUnits="userSpaceOnUse" x="0" y="95" width="78" height="68">
<path d="M78 95H0V163H78V95Z" fill="white"/>
</mask>
<g mask="url(#mask0_6_12)">
<path d="M14.4809 109.567C19.6703 104.717 28.3226 96.719 32.9364 95.7413C37.5503 94.7636 59.2747 103.542 63.8885 108.223C68.5024 112.905 68.6931 115.243 70.0415 119.341C71.3899 123.438 71.7713 126.167 72.5408 128.897C73.3104 131.626 66.7726 140.404 65.6217 142.747C64.4708 145.089 64.4674 146.454 62.9317 147.818C61.396 149.183 48.3205 150.354 44.4762 151.525C40.6319 152.696 41.0167 152.306 38.708 152.306C36.3994 152.306 34.0942 150.551 31.5948 150.551C29.0955 150.551 22.442 152.769 19.3264 151.052C16.5819 149.535 16.9837 144.896 14.4843 142.75C11.985 140.605 11.6003 140.214 10.4459 136.314C9.29161 132.414 10.8307 117.589 11.985 114.663C13.1393 111.737 14.4843 109.571 14.4843 109.571L14.4809 109.567Z" fill="#888376"/>
<path d="M60.4601 108.006C60.3851 107.926 60.3068 107.847 60.2285 107.768C60.2387 107.868 60.2455 107.965 60.266 108.061C60.3239 108.044 60.392 108.023 60.4601 108.003V108.006Z" fill="black"/>
<path d="M8.36933 114.698C9.39086 112.11 10.5758 110.103 10.7937 109.743C15.2306 105.594 24.3698 97.061 28.953 96.0903C33.3455 95.1644 54.9984 103.929 59.4386 108.434C59.7212 108.721 59.98 108.994 60.2286 109.263C59.9051 108.652 59.7485 108.009 59.7621 107.325C54.3446 102.485 33.3251 94.1038 28.7453 95.078C23.8658 96.111 14.8764 104.513 10.048 109.032L9.99696 109.08L9.9595 109.139C9.90502 109.229 8.57704 111.381 7.41932 114.318C6.69744 116.149 5.90066 121.959 5.58398 127.276C5.91768 127.035 6.27521 126.789 6.64977 126.544C6.98687 121.579 7.71896 116.352 8.36593 114.704L8.36933 114.698Z" fill="black"/>
<path d="M67.9608 128.883C68.4579 130.652 65.0154 136.038 62.9587 139.258C62.087 140.622 61.3958 141.704 61.0723 142.36C60.6739 143.172 60.4083 143.866 60.1768 144.478C59.741 145.625 59.4277 146.45 58.5015 147.273C57.7183 147.967 52.5869 148.744 48.4634 149.373C46.9787 149.598 45.5282 149.819 44.2308 150.036C44.1764 150.396 44.1253 150.755 44.0742 151.114C45.4431 150.879 47.006 150.641 48.6132 150.399C54.5584 149.497 58.2359 148.889 59.1723 148.053C60.2858 147.065 60.6569 146.088 61.1268 144.851C61.3516 144.26 61.6069 143.59 61.9849 142.823C62.2845 142.218 62.9928 141.109 63.8134 139.821C66.9597 134.898 69.5169 130.652 68.9381 128.6C68.8359 128.233 68.7406 127.864 68.6452 127.494C68.2979 127.619 67.971 127.733 67.6714 127.815C67.7599 128.171 67.8518 128.527 67.954 128.883H67.9608Z" fill="black"/>
<path d="M35.8921 151.667C35.5653 151.649 35.16 151.629 34.6152 151.629C33.5767 151.629 32.5075 151.231 31.377 150.81C30.9582 150.655 30.5326 150.496 30.1035 150.357V151.449C30.4134 151.556 30.7198 151.67 31.0263 151.784C32.1908 152.22 33.3962 152.669 34.6152 152.669C35.1328 152.669 35.5074 152.689 35.8377 152.707C36.0964 152.72 36.3246 152.734 36.5527 152.734C37.3018 152.734 38.0748 152.603 40.1485 151.985V150.903C37.3563 151.75 36.9477 151.729 35.8921 151.674V151.667Z" fill="black"/>
<path d="M24.1485 150.333C21.3325 150.84 17.478 151.538 15.4792 150.436C14.2023 149.731 13.6711 148.173 13.1092 146.525C13.0752 146.425 13.0411 146.325 13.0071 146.225C12.9662 146.225 12.9254 146.225 12.8845 146.225C12.5678 146.225 12.2409 146.215 11.9141 146.197C11.9924 146.418 12.0707 146.639 12.1456 146.864C12.7449 148.626 13.368 150.45 14.9922 151.345C17.3043 152.62 21.1997 151.918 24.329 151.352C24.9998 151.231 25.6263 151.117 26.1711 151.037C26.1234 150.695 26.0724 150.353 26.0213 150.011C25.456 150.094 24.8261 150.208 24.1485 150.333Z" fill="black"/>
<path d="M65.6936 116.646C65.1624 114.943 64.6278 113.444 63.5007 111.716C62.8401 111.485 62.1659 111.247 61.6211 110.877C63.5416 113.309 64.1613 115.137 64.8525 117.386C65.1556 117.168 65.445 116.923 65.6936 116.646Z" fill="black"/>
<path d="M25.2639 140.025H25.2911C25.2843 139.983 25.2775 139.945 25.2707 139.907C25.349 138.774 25.0936 137.634 24.8893 136.698C24.8587 136.563 24.8314 136.432 24.8042 136.304C24.3139 134.014 21.8452 132.697 18.0315 132.697C14.8716 132.697 8.10912 133.976 8.04102 133.989L8.11933 134.411C8.18743 134.397 14.9125 133.126 18.0315 133.126C19.7306 133.126 23.7554 133.443 24.3888 136.394C24.416 136.522 24.4467 136.656 24.4773 136.791C24.6237 137.444 24.7838 138.173 24.8416 138.912C23.3604 136.871 18.9747 137.088 18.7602 137.102L18.784 137.53C18.8385 137.53 24.2492 137.258 24.845 139.938C24.7701 140.833 24.4671 141.7 23.7248 142.436C22.8599 139.614 17.5173 139.88 17.279 139.894L17.3028 140.322C17.3573 140.322 22.7918 140.046 23.3672 142.751C23.0404 143.01 22.6488 143.245 22.1789 143.459C19.5604 144.64 16.5639 145.801 12.8524 145.794C12.9035 145.939 12.9545 146.081 13.0022 146.226C16.7171 146.202 19.7204 145.038 22.3491 143.853C24.4296 142.913 25.1311 141.486 25.2605 140.025H25.2639Z" fill="black"/>
<path d="M65.3555 108.589L65.4951 108.175C65.427 108.15 63.8232 107.598 62.7165 107.598C61.9913 107.598 61.0481 107.833 60.459 108.005C60.5782 108.126 60.6905 108.247 60.8029 108.365C61.3647 108.213 62.1343 108.036 62.7165 108.036C63.7483 108.036 65.3385 108.582 65.3555 108.589Z" fill="black"/>
<path d="M66.508 114.532C66.5659 115.368 66.2186 116.069 65.6976 116.646C65.7453 116.805 65.7964 116.964 65.8475 117.123C66.634 116.339 67.0086 115.447 66.9439 114.501C66.7975 112.407 65.1256 111.82 63.6478 111.301C63.4571 111.236 63.2698 111.167 63.0859 111.098C63.2358 111.308 63.3754 111.512 63.5082 111.716C64.9894 112.238 66.3855 112.728 66.5114 114.532H66.508Z" fill="black"/>
<path d="M61.6217 110.877C61.2199 110.369 60.7602 109.833 60.2324 109.26C60.4606 109.688 60.767 110.099 61.1586 110.497C61.2982 110.638 61.4548 110.763 61.6217 110.873V110.877Z" fill="black"/>
<path d="M29.5931 162.273C29.5931 162.384 29.5216 162.477 29.433 162.477H16.1567C16.0579 162.477 15.9626 162.411 15.9115 162.308C15.3224 161.13 15.3122 159.644 15.8842 158.697C16.1226 158.307 16.5687 157.837 17.345 157.837C18.7275 157.837 20.5015 158.469 21.9248 158.977C22.6263 159.226 23.2324 159.444 23.6716 159.54C24.6455 159.755 26.7805 159.789 27.3083 158.901C27.6658 158.3 27.0733 153.723 26.6749 150.973C26.5149 150.993 26.348 151.014 26.1676 151.042C26.6885 154.676 27.0665 158.224 26.869 158.635C26.566 159.14 24.8873 159.281 23.7772 159.036C23.3686 158.946 22.7795 158.735 22.0917 158.49C20.6309 157.969 18.8126 157.322 17.3416 157.322C16.5516 157.322 15.8774 157.716 15.4484 158.428C14.7878 159.52 14.7912 161.213 15.4552 162.543C15.5948 162.822 15.8638 162.999 16.1567 162.999H29.433C29.8042 162.999 30.1038 162.674 30.1038 162.277V151.449C29.9336 151.391 29.7633 151.335 29.5931 151.284V162.277V162.273Z" fill="black"/>
<path d="M42.9479 158.9C43.4757 159.788 45.6141 159.754 46.5845 159.539C47.0238 159.443 47.6299 159.229 48.3313 158.976C49.7547 158.468 51.5287 157.836 52.9112 157.836C53.6875 157.836 54.1336 158.303 54.3719 158.696C54.944 159.643 54.9338 161.129 54.3447 162.307C54.2936 162.41 54.1983 162.476 54.0995 162.476H40.8231C40.738 162.476 40.6631 162.383 40.6631 162.272V151.825C40.6188 151.839 40.5746 151.849 40.5337 151.863C40.4009 151.904 40.2749 151.942 40.1523 151.977V162.272C40.1523 162.669 40.452 162.994 40.8231 162.994H54.0995C54.3924 162.994 54.6614 162.821 54.801 162.538C55.465 161.208 55.4684 159.515 54.8078 158.424C54.3753 157.712 53.7045 157.318 52.9146 157.318C51.4436 157.318 49.6253 157.964 48.1645 158.486C47.4801 158.731 46.8876 158.942 46.479 159.032C45.3655 159.277 43.6868 159.135 43.3872 158.634C43.1897 158.223 43.5608 154.72 44.0784 151.113C43.8979 151.144 43.7209 151.175 43.5472 151.207C43.1522 153.974 42.6006 158.316 42.9479 158.9Z" fill="black"/>
<path d="M77.8621 110.451C77.382 107.459 75.5841 105.687 73.8918 104.35C72.271 103.068 68.4097 101.3 64.9501 102.001C62.3554 102.526 60.6972 103.832 60.0264 105.881C59.8629 106.382 59.7778 106.862 59.7676 107.325C59.9106 107.453 60.0434 107.577 60.166 107.698C60.1898 107.722 60.2102 107.743 60.2307 107.763C60.1762 107.242 60.2307 106.699 60.4043 106.126C60.8129 105.995 62.0762 105.618 62.9377 105.618C63.9694 105.618 65.5596 106.164 65.5766 106.171L65.7162 105.756C65.6481 105.732 64.0443 105.179 62.9377 105.179C62.1784 105.179 61.1705 105.438 60.5916 105.611C61.2931 103.956 62.7845 102.889 65.0352 102.429C68.1747 101.794 71.9475 103.369 73.6262 104.692C75.9349 106.513 77.0756 108.254 77.4365 110.517C77.8689 113.208 77.1845 118.186 76.054 120.567C74.6307 123.569 72.9588 125.151 69.6695 126.609C69.2711 126.785 68.8966 126.937 68.5493 127.065C68.5833 127.207 68.6208 127.348 68.6548 127.49C69.026 127.355 69.4141 127.203 69.8432 127.013C73.2414 125.504 74.9712 123.87 76.4456 120.757C77.6272 118.269 78.315 113.26 77.8655 110.448L77.8621 110.451Z" fill="black"/>
<path d="M7.29289 144.955C-0.23573 142.737 0.44869 136.442 0.4555 136.38C0.47593 136.218 0.489551 136.028 0.503171 135.831C0.608728 134.283 0.813032 131.367 5.5563 127.826C5.56651 127.643 5.57673 127.457 5.58694 127.273C0.411234 131.018 0.193309 134.152 0.080942 135.8C0.0673217 136 0.0571065 136.173 0.036676 136.325C-0.0927167 137.375 0.0945623 139.096 1.01393 140.778C2.20911 142.968 4.2828 144.513 7.17371 145.366C8.87284 145.867 10.446 146.123 11.9136 146.199C11.8625 146.05 11.808 145.905 11.7535 145.76C10.3677 145.673 8.88646 145.421 7.29289 144.951V144.955Z" fill="black"/>
<path d="M40.6592 151.826V150.752C40.5094 150.79 40.3664 150.831 40.237 150.869C40.2063 150.88 40.1791 150.887 40.1484 150.897V151.978C40.271 151.94 40.397 151.902 40.5298 151.864C40.5707 151.851 40.6183 151.84 40.6592 151.826Z" fill="black"/>
<path d="M6.61902 127.069C6.62924 126.893 6.64286 126.713 6.65307 126.537C6.27511 126.782 5.92098 127.028 5.58729 127.27C5.57707 127.456 5.56686 127.639 5.55664 127.822C5.89034 127.574 6.24106 127.325 6.61902 127.069Z" fill="black"/>
<path d="M43.7035 150.127C43.6558 150.445 43.6014 150.808 43.5469 151.208C43.7205 151.177 43.8976 151.146 44.0781 151.115C44.1291 150.756 44.1836 150.396 44.2347 150.037C44.0542 150.068 43.8772 150.096 43.7035 150.127Z" fill="black"/>
<path d="M67.5723 127.39C67.6063 127.532 67.6438 127.677 67.6778 127.818C67.9741 127.732 68.3044 127.622 68.6517 127.497C68.6176 127.356 68.5802 127.214 68.5461 127.072C68.1954 127.2 67.8719 127.307 67.5723 127.394V127.39Z" fill="black"/>
<path d="M60.2325 109.264C60.7636 109.834 61.2199 110.369 61.6217 110.881C62.1665 111.247 62.8441 111.485 63.5013 111.72C63.3685 111.516 63.2289 111.312 63.0791 111.102C62.4423 110.863 61.8669 110.601 61.4617 110.193C60.9305 109.654 60.5696 109.091 60.3721 108.493C60.4912 108.459 60.6377 108.414 60.8011 108.369C60.6887 108.251 60.5764 108.131 60.4572 108.01C60.3891 108.03 60.321 108.048 60.2631 108.068C60.2461 107.972 60.2359 107.871 60.2256 107.775C60.2018 107.751 60.1814 107.73 60.1609 107.709C60.0418 107.588 59.9056 107.46 59.7626 107.336C59.7489 108.017 59.9022 108.659 60.2291 109.274L60.2325 109.264Z" fill="black"/>
<path d="M13.0075 146.226C12.9598 146.081 12.9087 145.939 12.8577 145.794C12.4967 145.794 12.129 145.78 11.7578 145.76C11.8123 145.905 11.8634 146.053 11.9179 146.199C12.2447 146.216 12.5716 146.226 12.8883 146.226C12.9292 146.226 12.97 146.226 13.0109 146.226H13.0075Z" fill="black"/>
<path d="M29.5918 150.199V151.281C29.7621 151.332 29.9323 151.388 30.1026 151.446V150.355C29.9323 150.299 29.7621 150.248 29.5918 150.199Z" fill="black"/>
<path d="M26.5249 149.947C26.3615 149.968 26.1946 149.989 26.0176 150.016C26.0687 150.358 26.1197 150.7 26.1674 151.042C26.3445 151.015 26.5147 150.994 26.6748 150.973C26.6203 150.59 26.5692 150.244 26.5249 149.947Z" fill="black"/>
<path d="M64.8516 117.386C64.8822 117.486 64.9129 117.583 64.9435 117.686C64.9571 117.731 64.9741 117.783 64.9878 117.828C65.3112 117.603 65.5973 117.369 65.8424 117.123C65.7914 116.961 65.7437 116.802 65.6926 116.646C65.444 116.923 65.1546 117.168 64.8516 117.386Z" fill="black"/>
<path d="M41.2681 115.682C42.4679 115.682 43.4406 114.148 43.4406 112.255C43.4406 110.362 42.4679 108.828 41.2681 108.828C40.0683 108.828 39.0957 110.362 39.0957 112.255C39.0957 114.148 40.0683 115.682 41.2681 115.682Z" fill="black"/>
<path d="M49.5592 115.682C50.759 115.682 51.7316 114.148 51.7316 112.255C51.7316 110.362 50.759 108.828 49.5592 108.828C48.3594 108.828 47.3867 110.362 47.3867 112.255C47.3867 114.148 48.3594 115.682 49.5592 115.682Z" fill="black"/>
<path d="M38.7559 125.422C39.0453 125.422 39.2939 125.646 39.3109 125.944C39.4709 128.448 40.7751 130.476 42.2971 130.476C43.8192 130.476 45.1233 128.448 45.2834 125.944C45.3038 125.65 45.549 125.422 45.8384 125.422C46.1653 125.422 46.4173 125.705 46.3968 126.037C46.1993 129.208 44.4662 131.613 42.2937 131.613C40.1213 131.613 38.3915 129.208 38.1906 126.037C38.1702 125.705 38.4222 125.422 38.749 125.422H38.7559Z" fill="black"/>
</g>
<mask id="mask1_6_12" style="mask-type:luminance" maskUnits="userSpaceOnUse" x="170" y="0" width="82" height="72">
<path d="M170 0H252V72H170V0Z" fill="white"/>
</mask>
<g mask="url(#mask1_6_12)">
<path d="M236.776 15.4241C231.32 10.2883 222.224 1.82004 217.374 0.784835C212.523 -0.250373 189.685 9.04455 184.834 14.0011C179.984 18.9577 179.783 21.4341 178.366 25.7725C176.948 30.1109 176.547 33.0007 175.738 35.8905C174.929 38.7803 181.802 48.0752 183.012 50.5553C184.222 53.0354 184.226 54.4803 185.84 55.9252C187.455 57.3701 201.201 58.6102 205.242 59.8502C209.284 61.0903 208.879 60.6769 211.306 60.6769C213.733 60.6769 216.157 58.8187 218.784 58.8187C221.412 58.8187 228.406 61.1671 231.682 59.3491C234.567 57.7432 234.144 52.8306 236.772 50.559C239.399 48.2873 239.804 47.874 241.017 43.7441C242.231 39.6143 240.613 23.9179 239.399 20.8196C238.186 17.7213 236.772 15.4277 236.772 15.4277L236.776 15.4241Z" fill="#888376"/>
<path d="M188.44 13.77C188.519 13.6858 188.601 13.6017 188.684 13.5176C188.673 13.6237 188.666 13.7261 188.644 13.8285C188.583 13.8102 188.512 13.7883 188.44 13.7663V13.77Z" fill="black"/>
<path d="M243.203 20.8563C242.129 18.1164 240.883 15.9912 240.654 15.6107C235.99 11.2175 226.382 2.18229 221.563 1.15439C216.946 0.174055 194.182 9.45435 189.514 14.2243C189.217 14.528 188.945 14.8169 188.684 15.1023C189.024 14.4548 189.189 13.7744 189.174 13.0501C194.87 7.92531 216.967 -0.948944 221.782 0.0826055C226.911 1.17634 236.362 10.0725 241.438 14.8572L241.492 14.9084L241.531 14.9706C241.588 15.0657 242.984 17.3446 244.201 20.4539C244.96 22.3926 245.798 28.5453 246.131 34.175C245.78 33.9189 245.404 33.6592 245.01 33.3995C244.656 28.143 243.886 22.6084 243.206 20.8636L243.203 20.8563Z" fill="black"/>
<path d="M180.554 35.8768C180.032 37.7496 183.651 43.4524 185.813 46.8617C186.729 48.3066 187.456 49.4515 187.796 50.1465C188.215 51.0062 188.494 51.7414 188.738 52.3889C189.196 53.6033 189.525 54.4776 190.499 55.3482C191.322 56.0834 196.717 56.9065 201.052 57.5722C202.613 57.81 204.137 58.0441 205.501 58.2746C205.559 58.655 205.612 59.0354 205.666 59.4158C204.227 59.1671 202.584 58.9147 200.894 58.6586C194.644 57.7039 190.778 57.0601 189.794 56.1749C188.623 55.1287 188.233 54.0935 187.739 52.7839C187.503 52.1584 187.234 51.4488 186.837 50.6367C186.522 49.9966 185.777 48.8223 184.915 47.4579C181.607 42.2453 178.919 37.7496 179.527 35.5768C179.634 35.1891 179.735 34.7977 179.835 34.4062C180.2 34.5379 180.544 34.6587 180.859 34.7464C180.766 35.1232 180.669 35.5 180.562 35.8768H180.554Z" fill="black"/>
<path d="M214.268 59.9997C214.612 59.9814 215.038 59.9594 215.61 59.9594C216.702 59.9594 217.826 59.5387 219.015 59.0925C219.455 58.9279 219.902 58.7596 220.354 58.6133V59.7692C220.028 59.8826 219.706 60.0033 219.383 60.124C218.159 60.5849 216.892 61.0605 215.61 61.0605C215.066 61.0605 214.673 61.0824 214.325 61.1007C214.053 61.1153 213.813 61.13 213.574 61.13C212.786 61.13 211.973 60.991 209.793 60.3362V59.1912C212.729 60.0874 213.158 60.0655 214.268 60.007V59.9997Z" fill="black"/>
<path d="M226.613 58.5876C229.573 59.1253 233.625 59.8642 235.727 58.6973C237.069 57.9511 237.627 56.3013 238.218 54.5565C238.254 54.4504 238.29 54.3443 238.326 54.2382C238.368 54.2382 238.411 54.2382 238.454 54.2382C238.787 54.2382 239.131 54.2273 239.475 54.209C239.392 54.4431 239.31 54.6772 239.231 54.915C238.601 56.7805 237.946 58.712 236.239 59.6594C233.808 61.0092 229.713 60.2666 226.423 59.6667C225.718 59.5387 225.059 59.418 224.486 59.3338C224.537 58.9717 224.59 58.6095 224.644 58.2474C225.238 58.3352 225.9 58.4559 226.613 58.5876Z" fill="black"/>
<path d="M182.937 22.9194C183.496 21.116 184.058 19.5284 185.243 17.6994C185.937 17.4544 186.646 17.202 187.219 16.8105C185.2 19.3858 184.548 21.3208 183.822 23.7022C183.503 23.4717 183.199 23.212 182.937 22.9194Z" fill="black"/>
<path d="M225.439 47.6726H225.41C225.417 47.6287 225.425 47.5885 225.432 47.5483C225.349 46.3484 225.618 45.1413 225.833 44.15C225.865 44.0073 225.893 43.8683 225.922 43.733C226.438 41.3078 229.033 39.9141 233.042 39.9141C236.364 39.9141 243.473 41.2675 243.545 41.2821L243.463 41.7284C243.391 41.7138 236.321 40.3677 233.042 40.3677C231.256 40.3677 227.025 40.7042 226.359 43.8281C226.33 43.9634 226.298 44.1061 226.266 44.2488C226.112 44.9401 225.944 45.712 225.883 46.4948C227.44 44.3329 232.051 44.5634 232.276 44.578L232.251 45.0316C232.194 45.0316 226.506 44.7426 225.879 47.5812C225.958 48.5286 226.276 49.4468 227.057 50.2259C227.966 47.2373 233.583 47.519 233.833 47.5336L233.808 47.9872C233.751 47.9872 228.038 47.6946 227.433 50.5588C227.776 50.8331 228.188 51.0819 228.682 51.3087C231.435 52.5597 234.585 53.7888 238.487 53.7815C238.433 53.9351 238.379 54.0851 238.329 54.2387C234.424 54.2131 231.267 52.9804 228.503 51.7257C226.316 50.7307 225.578 49.22 225.442 47.6726H225.439Z" fill="black"/>
<path d="M183.292 14.3897L183.145 13.9507C183.217 13.9251 184.903 13.3398 186.066 13.3398C186.829 13.3398 187.82 13.5886 188.439 13.7715C188.314 13.8995 188.196 14.0275 188.078 14.1519C187.487 13.991 186.678 13.8044 186.066 13.8044C184.981 13.8044 183.31 14.3824 183.292 14.3897Z" fill="black"/>
<path d="M182.082 20.681C182.021 21.5662 182.386 22.3088 182.934 22.9196C182.884 23.0879 182.83 23.2562 182.777 23.4244C181.95 22.5941 181.556 21.6503 181.624 20.648C181.778 18.4313 183.535 17.8094 185.089 17.2607C185.29 17.1912 185.486 17.1181 185.68 17.0449C185.522 17.2681 185.375 17.4839 185.236 17.6997C183.679 18.2521 182.211 18.7715 182.079 20.681H182.082Z" fill="black"/>
<path d="M187.219 16.8115C187.642 16.2738 188.125 15.7068 188.68 15.0996C188.44 15.5532 188.118 15.9885 187.706 16.4092C187.559 16.5591 187.395 16.6908 187.219 16.8079V16.8115Z" fill="black"/>
<path d="M220.891 71.2309C220.891 71.3479 220.966 71.4467 221.059 71.4467H235.016C235.12 71.4467 235.22 71.3772 235.274 71.2675C235.893 70.0201 235.904 68.4472 235.302 67.4449C235.052 67.0315 234.583 66.534 233.767 66.534C232.313 66.534 230.448 67.2034 228.952 67.7412C228.215 68.0045 227.578 68.235 227.116 68.3374C226.092 68.5642 223.847 68.6008 223.293 67.6607C222.917 67.0242 223.54 62.1774 223.958 59.2656C224.127 59.2876 224.302 59.3095 224.492 59.3388C223.944 63.187 223.547 66.9437 223.754 67.379C224.073 67.9131 225.838 68.0631 227.005 67.8033C227.434 67.7082 228.054 67.4851 228.777 67.2254C230.312 66.673 232.224 65.989 233.77 65.989C234.601 65.989 235.31 66.406 235.761 67.1595C236.455 68.3155 236.452 70.1079 235.754 71.5162C235.607 71.8125 235.324 71.999 235.016 71.999H221.059C220.669 71.999 220.354 71.6552 220.354 71.2345V59.7704C220.533 59.7082 220.712 59.6497 220.891 59.5948V71.2345V71.2309Z" fill="black"/>
<path d="M206.85 67.6611C206.295 68.6012 204.047 68.5646 203.027 68.3378C202.565 68.2354 201.928 68.0086 201.191 67.7416C199.694 67.2039 197.829 66.5344 196.376 66.5344C195.56 66.5344 195.091 67.0283 194.84 67.4453C194.239 68.4476 194.25 70.0205 194.869 71.2679C194.923 71.3776 195.023 71.4471 195.127 71.4471H209.084C209.173 71.4471 209.252 71.3483 209.252 71.2313V60.1696C209.299 60.1842 209.345 60.1952 209.388 60.2098C209.528 60.2537 209.66 60.2939 209.789 60.3305V71.2313C209.789 71.652 209.474 71.9958 209.084 71.9958H195.127C194.819 71.9958 194.536 71.8129 194.389 71.513C193.691 70.1046 193.688 68.3122 194.382 67.1563C194.837 66.4028 195.542 65.9857 196.372 65.9857C197.919 65.9857 199.83 66.6698 201.366 67.2221C202.086 67.4819 202.708 67.705 203.138 67.8001C204.309 68.0598 206.073 67.9098 206.388 67.3794C206.596 66.9441 206.206 63.2349 205.662 59.416C205.851 59.4489 206.038 59.4819 206.22 59.5148C206.635 62.4448 207.215 67.0429 206.85 67.6611Z" fill="black"/>
<path d="M170.144 16.36C170.648 13.1922 172.538 11.3157 174.317 9.90003C176.021 8.54292 180.081 6.67003 183.718 7.4126C186.445 7.96862 188.189 9.35133 188.894 11.5205C189.066 12.0509 189.155 12.5594 189.166 13.0495C189.016 13.1849 188.876 13.3166 188.747 13.4446C188.722 13.4702 188.701 13.4922 188.679 13.5141C188.736 12.9618 188.679 12.3875 188.497 11.7802C188.067 11.6412 186.739 11.2425 185.833 11.2425C184.749 11.2425 183.077 11.8205 183.059 11.8278L182.912 11.3888C182.984 11.3632 184.67 10.7779 185.833 10.7779C186.632 10.7779 187.691 11.0523 188.3 11.2352C187.562 9.48302 185.994 8.3527 183.628 7.86619C180.328 7.19313 176.361 8.86116 174.597 10.2622C172.17 12.1899 170.97 14.0335 170.591 16.4295C170.136 19.2791 170.856 24.5502 172.044 27.0706C173.541 30.2494 175.298 31.9247 178.756 33.4684C179.175 33.6549 179.569 33.8159 179.934 33.9512C179.898 34.1012 179.859 34.2512 179.823 34.4012C179.433 34.2585 179.025 34.0976 178.574 33.8964C175.001 32.2978 173.183 30.5676 171.633 27.2718C170.391 24.638 169.667 19.334 170.14 16.3564L170.144 16.36Z" fill="black"/>
<path d="M244.333 52.8934C252.248 50.545 251.528 43.8802 251.521 43.8143C251.5 43.6424 251.485 43.4412 251.471 43.2327C251.36 41.5939 251.145 38.5066 246.159 34.7572C246.148 34.5633 246.137 34.3657 246.127 34.1719C251.568 38.1371 251.797 41.4549 251.915 43.1998C251.929 43.4119 251.94 43.5948 251.961 43.7558C252.097 44.8678 251.901 46.6895 250.934 48.4709C249.678 50.7901 247.498 52.4252 244.458 53.3287C242.672 53.8591 241.018 54.1298 239.475 54.2103C239.529 54.053 239.586 53.8994 239.644 53.7457C241.101 53.6543 242.658 53.3872 244.333 52.8898V52.8934Z" fill="black"/>
<path d="M209.256 60.1689V59.0312C209.414 59.0715 209.564 59.1154 209.7 59.1556C209.732 59.1666 209.761 59.1739 209.793 59.1849V60.3298C209.664 60.2896 209.532 60.2494 209.392 60.2091C209.349 60.1945 209.299 60.1835 209.256 60.1689Z" fill="black"/>
<path d="M245.041 33.9559C245.031 33.7694 245.016 33.5791 245.006 33.3926C245.403 33.6523 245.775 33.912 246.126 34.1681C246.137 34.3656 246.147 34.5595 246.158 34.7533C245.807 34.49 245.439 34.2266 245.041 33.9559Z" fill="black"/>
<path d="M206.056 58.3685C206.106 58.7051 206.163 59.0892 206.221 59.5135C206.038 59.4806 205.852 59.4476 205.662 59.4147C205.609 59.0343 205.551 58.6539 205.498 58.2734C205.687 58.3064 205.873 58.3356 206.056 58.3685Z" fill="black"/>
<path d="M180.961 34.2955C180.925 34.4455 180.886 34.5991 180.85 34.7491C180.539 34.6577 180.191 34.5406 179.826 34.4089C179.862 34.2589 179.901 34.109 179.937 33.959C180.306 34.0943 180.646 34.2077 180.961 34.2992V34.2955Z" fill="black"/>
<path d="M188.679 15.1017C188.121 15.7053 187.641 16.2723 187.218 16.8136C186.646 17.2014 185.933 17.4538 185.242 17.7025C185.382 17.4867 185.529 17.2709 185.686 17.0477C186.356 16.7953 186.961 16.5173 187.387 16.0857C187.945 15.5151 188.325 14.9188 188.532 14.286C188.407 14.2494 188.253 14.2018 188.081 14.1543C188.199 14.0299 188.317 13.9019 188.443 13.7739C188.514 13.7958 188.586 13.8141 188.647 13.836C188.665 13.7336 188.675 13.6275 188.686 13.5251C188.711 13.4995 188.733 13.4776 188.754 13.4556C188.879 13.3276 189.023 13.1922 189.173 13.0605C189.187 13.7812 189.026 14.4616 188.683 15.1127L188.679 15.1017Z" fill="black"/>
<path d="M238.327 54.2399C238.377 54.0863 238.431 53.9363 238.484 53.7827C238.864 53.7827 239.25 53.768 239.641 53.7461C239.583 53.8997 239.53 54.057 239.472 54.2107C239.129 54.2289 238.785 54.2399 238.452 54.2399C238.409 54.2399 238.366 54.2399 238.323 54.2399H238.327Z" fill="black"/>
<path d="M220.891 58.4453V59.5903C220.712 59.6451 220.533 59.7037 220.354 59.7658V58.6099C220.533 58.5514 220.712 58.4965 220.891 58.4453Z" fill="black"/>
<path d="M224.115 58.1777C224.287 58.1997 224.462 58.2216 224.648 58.2509C224.595 58.613 224.541 58.9752 224.491 59.3373C224.305 59.308 224.126 59.2861 223.958 59.2642C224.015 58.8581 224.069 58.4923 224.115 58.1777Z" fill="black"/>
<path d="M183.822 23.7027C183.79 23.8088 183.758 23.9112 183.726 24.021C183.711 24.0685 183.693 24.1234 183.679 24.171C183.339 23.9332 183.038 23.6844 182.781 23.4247C182.834 23.2528 182.884 23.0845 182.938 22.9199C183.199 23.2126 183.504 23.4723 183.822 23.7027Z" fill="black"/>
<path d="M208.615 21.8981C207.353 21.8981 206.331 20.2734 206.331 18.2693C206.331 16.2653 207.353 14.6406 208.615 14.6406C209.876 14.6406 210.898 16.2653 210.898 18.2693C210.898 20.2734 209.876 21.8981 208.615 21.8981Z" fill="black"/>
<path d="M199.898 21.8981C198.636 21.8981 197.614 20.2734 197.614 18.2693C197.614 16.2653 198.636 14.6406 199.898 14.6406C201.159 14.6406 202.182 16.2653 202.182 18.2693C202.182 20.2734 201.159 21.8981 199.898 21.8981Z" fill="black"/>
<path d="M211.256 32.2109C210.952 32.2109 210.691 32.4487 210.673 32.7633C210.504 35.4153 209.133 37.5626 207.533 37.5626C205.933 37.5626 204.562 35.4153 204.394 32.7633C204.372 32.4524 204.115 32.2109 203.81 32.2109C203.467 32.2109 203.202 32.5109 203.223 32.8621C203.431 36.2201 205.253 38.766 207.537 38.766C209.821 38.766 211.639 36.2201 211.85 32.8621C211.872 32.5109 211.607 32.2109 211.263 32.2109H211.256Z" fill="black"/>
</g>
<path d="M89.0007 144C104.834 146.166 157.501 151 153.001 112.5C151.201 97.1044 130.501 88.4996 89.0007 84.4996C47.5007 80.4996 55.0007 34.9995 86.5007 27.4996C107.416 22.5197 152.001 42.9994 162.501 48.9994" stroke="black" stroke-dasharray="2 2"/>
</g>
<defs>
<clipPath id="clip0_6_12">
<rect width="252" height="163" fill="white"/>
</clipPath>
</defs>
</svg>
