<svg width="252" height="163" viewBox="0 0 252 163" fill="none" xmlns="http://www.w3.org/2000/svg">
<g clip-path="url(#clip0_6_147)">
<path d="M14.481 109.567C19.6703 104.717 28.3226 96.719 32.9365 95.7413C37.5504 94.7636 59.2747 103.542 63.8886 108.223C68.5025 112.905 68.6932 115.243 70.0416 119.341C71.39 123.438 71.7713 126.167 72.5409 128.897C73.3104 131.626 66.7727 140.404 65.6218 142.747C64.4709 145.089 64.4675 146.454 62.9318 147.818C61.3961 149.183 48.3206 150.354 44.4763 151.525C40.632 152.696 41.0167 152.306 38.7081 152.306C36.3995 152.306 34.0942 150.551 31.5949 150.551C29.0956 150.551 22.4421 152.769 19.3264 151.052C16.5819 149.535 16.9837 144.896 14.4844 142.75C11.9851 140.605 11.6003 140.214 10.446 136.314C9.29167 132.414 10.8308 117.589 11.9851 114.663C13.1394 111.737 14.4844 109.571 14.4844 109.571L14.481 109.567Z" fill="#FFBA0A"/>
<path d="M60.4596 108.006C60.3847 107.926 60.3064 107.847 60.2281 107.767C60.2383 107.868 60.2451 107.964 60.2655 108.061C60.3234 108.044 60.3915 108.023 60.4596 108.002V108.006Z" fill="#6F2E17"/>
<path d="M8.36885 114.698C9.39037 112.11 10.5753 110.103 10.7933 109.743C15.2301 105.594 24.3693 97.0611 28.9525 96.0903C33.3451 95.1644 54.9979 103.929 59.4381 108.434C59.7207 108.721 59.9795 108.994 60.2281 109.263C59.9046 108.652 59.748 108.009 59.7616 107.325C54.3441 102.485 33.3246 94.1038 28.7448 95.078C23.8653 96.111 14.8759 104.513 10.0475 109.032L9.99647 109.08L9.95901 109.139C9.90453 109.229 8.57656 111.381 7.41883 114.318C6.69696 116.149 5.90017 121.96 5.5835 127.276C5.91719 127.035 6.27473 126.789 6.64928 126.544C6.98639 121.579 7.71848 116.352 8.36544 114.705L8.36885 114.698Z" fill="#6F2E17"/>
<path d="M67.961 128.883C68.4582 130.652 65.0157 136.038 62.959 139.257C62.0873 140.622 61.3961 141.703 61.0726 142.36C60.6742 143.172 60.4086 143.866 60.177 144.478C59.7412 145.625 59.4279 146.45 58.5018 147.273C57.7186 147.967 52.5871 148.744 48.4636 149.373C46.979 149.598 45.5284 149.819 44.2311 150.036C44.1766 150.396 44.1255 150.755 44.0745 151.114C45.4433 150.879 47.0062 150.641 48.6134 150.399C54.5587 149.497 58.2362 148.889 59.1726 148.053C60.286 147.065 60.6572 146.088 61.1271 144.851C61.3518 144.26 61.6072 143.59 61.9851 142.823C62.2848 142.218 62.993 141.109 63.8137 139.821C66.96 134.898 69.5172 130.652 68.9383 128.6C68.8362 128.233 68.7408 127.864 68.6455 127.494C68.2982 127.618 67.9713 127.732 67.6716 127.815C67.7601 128.171 67.8521 128.527 67.9542 128.883H67.961Z" fill="#6F2E17"/>
<path d="M35.892 151.667C35.5651 151.65 35.1599 151.629 34.6151 151.629C33.5766 151.629 32.5074 151.232 31.3769 150.81C30.9581 150.655 30.5324 150.496 30.1034 150.358V151.449C30.4133 151.556 30.7197 151.67 31.0262 151.784C32.1907 152.22 33.3961 152.669 34.6151 152.669C35.1327 152.669 35.5072 152.69 35.8375 152.707C36.0963 152.721 36.3245 152.734 36.5526 152.734C37.3017 152.734 38.0747 152.603 40.1484 151.985V150.903C37.3562 151.75 36.9476 151.729 35.892 151.674V151.667Z" fill="#6F2E17"/>
<path d="M24.148 150.333C21.332 150.841 17.4775 151.539 15.4787 150.437C14.2018 149.732 13.6706 148.174 13.1088 146.526C13.0747 146.426 13.0407 146.326 13.0066 146.226C12.9657 146.226 12.9249 146.226 12.884 146.226C12.5673 146.226 12.2405 146.215 11.9136 146.198C11.9919 146.419 12.0702 146.64 12.1451 146.865C12.7444 148.627 13.3675 150.451 14.9918 151.346C17.3038 152.62 21.1992 151.919 24.3285 151.353C24.9993 151.232 25.6258 151.118 26.1706 151.038C26.1229 150.696 26.0719 150.354 26.0208 150.012C25.4555 150.095 24.8256 150.209 24.148 150.333Z" fill="#6F2E17"/>
<path d="M65.6933 116.646C65.1621 114.943 64.6275 113.444 63.5004 111.716C62.8398 111.485 62.1656 111.246 61.6208 110.877C63.5412 113.309 64.161 115.136 64.8522 117.385C65.1553 117.168 65.4447 116.922 65.6933 116.646Z" fill="#6F2E17"/>
<path d="M25.2648 140.024H25.292C25.2852 139.983 25.2784 139.945 25.2716 139.907C25.3499 138.774 25.0945 137.634 24.8902 136.698C24.8596 136.563 24.8323 136.431 24.8051 136.304C24.3148 134.013 21.8461 132.697 18.0324 132.697C14.8725 132.697 8.11003 133.975 8.04193 133.989L8.12025 134.41C8.18835 134.397 14.9134 133.125 18.0324 133.125C19.7315 133.125 23.7563 133.443 24.3897 136.393C24.4169 136.521 24.4476 136.656 24.4782 136.791C24.6246 137.444 24.7847 138.173 24.8426 138.912C23.3614 136.87 18.9756 137.088 18.7611 137.102L18.7849 137.53C18.8394 137.53 24.2501 137.257 24.846 139.938C24.7711 140.833 24.468 141.7 23.7257 142.436C22.8608 139.613 17.5182 139.879 17.2799 139.893L17.3037 140.322C17.3582 140.322 22.7927 140.045 23.3682 142.75C23.0413 143.009 22.6497 143.244 22.1798 143.458C19.5613 144.64 16.5648 145.801 12.8533 145.794C12.9044 145.939 12.9554 146.081 13.0031 146.226C16.7181 146.202 19.7213 145.037 22.35 143.852C24.4305 142.913 25.132 141.486 25.2614 140.024H25.2648Z" fill="#6F2E17"/>
<path d="M65.3561 108.59L65.4957 108.175C65.4276 108.151 63.8238 107.598 62.7172 107.598C61.9919 107.598 61.0487 107.833 60.4596 108.006C60.5788 108.127 60.6911 108.248 60.8035 108.365C61.3653 108.213 62.1349 108.037 62.7172 108.037C63.7489 108.037 65.3391 108.583 65.3561 108.59Z" fill="#6F2E17"/>
<path d="M66.5071 114.532C66.5649 115.368 66.2176 116.069 65.6967 116.646C65.7443 116.805 65.7954 116.964 65.8465 117.123C66.633 116.339 67.0076 115.447 66.9429 114.501C66.7965 112.407 65.1246 111.82 63.6468 111.302C63.4561 111.236 63.2688 111.167 63.085 111.098C63.2348 111.308 63.3744 111.512 63.5072 111.716C64.9884 112.238 66.3845 112.728 66.5105 114.532H66.5071Z" fill="#6F2E17"/>
<path d="M61.6208 110.877C61.219 110.369 60.7593 109.833 60.2315 109.26C60.4596 109.688 60.7661 110.099 61.1577 110.497C61.2973 110.638 61.4539 110.763 61.6208 110.873V110.877Z" fill="#6F2E17"/>
<path d="M29.5926 162.273C29.5926 162.384 29.5211 162.477 29.4326 162.477H16.1562C16.0575 162.477 15.9621 162.411 15.9111 162.308C15.322 161.13 15.3118 159.644 15.8838 158.697C16.1222 158.307 16.5682 157.837 17.3446 157.837C18.7271 157.837 20.5011 158.469 21.9244 158.977C22.6259 159.226 23.232 159.444 23.6712 159.54C24.6451 159.755 26.78 159.789 27.3078 158.901C27.6654 158.3 27.0729 153.723 26.6745 150.973C26.5145 150.993 26.3476 151.014 26.1671 151.042C26.6881 154.676 27.0661 158.224 26.8686 158.635C26.5655 159.14 24.8868 159.281 23.7768 159.036C23.3682 158.946 22.7791 158.735 22.0913 158.49C20.6305 157.968 18.8122 157.322 17.3412 157.322C16.5512 157.322 15.877 157.716 15.448 158.428C14.7874 159.52 14.7908 161.212 15.4548 162.543C15.5944 162.822 15.8634 162.999 16.1562 162.999H29.4326C29.8038 162.999 30.1034 162.674 30.1034 162.277V151.449C29.9331 151.391 29.7629 151.335 29.5926 151.283V162.277V162.273Z" fill="#6F2E17"/>
<path d="M42.9474 158.901C43.4751 159.789 45.6135 159.755 46.584 159.54C47.0232 159.444 47.6293 159.229 48.3308 158.977C49.7541 158.469 51.5281 157.837 52.9106 157.837C53.687 157.837 54.133 158.304 54.3714 158.697C54.9434 159.644 54.9332 161.13 54.3441 162.308C54.2931 162.411 54.1977 162.477 54.099 162.477H40.8226C40.7375 162.477 40.6626 162.384 40.6626 162.273V151.826C40.6183 151.84 40.574 151.85 40.5332 151.864C40.4004 151.905 40.2744 151.943 40.1518 151.978V162.273C40.1518 162.67 40.4514 162.995 40.8226 162.995H54.099C54.3918 162.995 54.6608 162.822 54.8004 162.539C55.4644 161.209 55.4678 159.516 54.8072 158.424C54.3748 157.713 53.704 157.319 52.914 157.319C51.443 157.319 49.6247 157.965 48.1639 158.487C47.4795 158.732 46.887 158.943 46.4784 159.033C45.365 159.278 43.6863 159.136 43.3866 158.635C43.1891 158.224 43.5603 154.721 44.0778 151.114C43.8974 151.145 43.7203 151.176 43.5467 151.207C43.1517 153.975 42.6 158.317 42.9474 158.901Z" fill="#6F2E17"/>
<path d="M77.8629 110.452C77.3828 107.46 75.5849 105.688 73.8926 104.351C72.2718 103.069 68.4104 101.3 64.9509 102.001C62.3562 102.526 60.698 103.832 60.0272 105.881C59.8637 106.382 59.7786 106.862 59.7684 107.325C59.9114 107.453 60.0442 107.577 60.1668 107.698C60.1906 107.722 60.211 107.743 60.2315 107.764C60.177 107.242 60.2315 106.7 60.4051 106.126C60.8137 105.995 62.077 105.619 62.9385 105.619C63.9702 105.619 65.5604 106.164 65.5774 106.171L65.717 105.757C65.6489 105.733 64.0451 105.18 62.9385 105.18C62.1792 105.18 61.1713 105.439 60.5924 105.612C61.2938 103.957 62.7853 102.889 65.036 102.43C68.1755 101.794 71.9483 103.369 73.627 104.693C75.9357 106.513 77.0764 108.254 77.4373 110.517C77.8697 113.209 77.1853 118.187 76.0548 120.567C74.6315 123.569 72.9596 125.152 69.6703 126.61C69.2719 126.786 68.8974 126.938 68.5501 127.066C68.5841 127.207 68.6216 127.349 68.6556 127.491C69.0268 127.356 69.4149 127.204 69.844 127.014C73.2422 125.504 74.972 123.87 76.4464 120.757C77.628 118.27 78.3158 113.26 77.8663 110.448L77.8629 110.452Z" fill="#6F2E17"/>
<path d="M7.29289 144.954C-0.23573 142.736 0.44869 136.442 0.4555 136.38C0.47593 136.217 0.489551 136.027 0.503171 135.83C0.608728 134.283 0.813032 131.367 5.5563 127.826C5.56651 127.643 5.57673 127.456 5.58694 127.273C0.411234 131.018 0.193309 134.151 0.080942 135.799C0.0673217 136 0.0571064 136.172 0.036676 136.324C-0.0927167 137.375 0.0945623 139.095 1.01393 140.778C2.20911 142.968 4.2828 144.512 7.17371 145.365C8.87284 145.866 10.446 146.122 11.9136 146.198C11.8625 146.05 11.808 145.904 11.7535 145.759C10.3677 145.673 8.88646 145.421 7.29289 144.951V144.954Z" fill="#6F2E17"/>
<path d="M40.6591 151.826V150.751C40.5093 150.789 40.3663 150.831 40.2369 150.869C40.2063 150.879 40.179 150.886 40.1484 150.897V151.978C40.271 151.94 40.3969 151.902 40.5297 151.864C40.5706 151.85 40.6183 151.84 40.6591 151.826Z" fill="#6F2E17"/>
<path d="M6.6186 127.069C6.62881 126.893 6.64243 126.713 6.65265 126.537C6.27468 126.782 5.92056 127.028 5.58686 127.269C5.57664 127.456 5.56643 127.639 5.55621 127.822C5.88991 127.573 6.24063 127.325 6.6186 127.069Z" fill="#6F2E17"/>
<path d="M43.7033 150.126C43.6556 150.444 43.6011 150.807 43.5466 151.207C43.7203 151.176 43.8974 151.145 44.0778 151.114C44.1289 150.755 44.1834 150.396 44.2345 150.036C44.054 150.067 43.8769 150.095 43.7033 150.126Z" fill="#6F2E17"/>
<path d="M67.5729 127.39C67.6069 127.532 67.6444 127.677 67.6784 127.819C67.9747 127.732 68.305 127.622 68.6523 127.497C68.6182 127.356 68.5808 127.214 68.5467 127.073C68.196 127.2 67.8725 127.307 67.5729 127.394V127.39Z" fill="#6F2E17"/>
<path d="M60.2315 109.263C60.7627 109.833 61.219 110.369 61.6208 110.88C62.1656 111.246 62.8432 111.485 63.5004 111.72C63.3676 111.516 63.228 111.312 63.0782 111.101C62.4414 110.863 61.866 110.6 61.4608 110.193C60.9296 109.654 60.5686 109.091 60.3711 108.493C60.4903 108.458 60.6367 108.413 60.8002 108.368C60.6878 108.251 60.5755 108.13 60.4563 108.009C60.3882 108.03 60.3201 108.047 60.2622 108.068C60.2452 107.971 60.2349 107.871 60.2247 107.774C60.2009 107.75 60.1805 107.729 60.16 107.709C60.0409 107.588 59.9046 107.46 59.7616 107.336C59.748 108.016 59.9012 108.659 60.2281 109.274L60.2315 109.263Z" fill="#6F2E17"/>
<path d="M13.0065 146.226C12.9588 146.081 12.9078 145.939 12.8567 145.794C12.4957 145.794 12.128 145.78 11.7568 145.759C11.8113 145.904 11.8624 146.053 11.9169 146.198C12.2438 146.215 12.5706 146.226 12.8873 146.226C12.9282 146.226 12.969 146.226 13.0099 146.226H13.0065Z" fill="#6F2E17"/>
<path d="M29.5927 150.199V151.28C29.7629 151.332 29.9332 151.387 30.1034 151.446V150.354C29.9332 150.299 29.7629 150.247 29.5927 150.199Z" fill="#6F2E17"/>
<path d="M26.5247 149.946C26.3612 149.967 26.1944 149.988 26.0173 150.016C26.0684 150.358 26.1195 150.7 26.1672 151.042C26.3442 151.014 26.5145 150.993 26.6745 150.973C26.62 150.589 26.569 150.244 26.5247 149.946Z" fill="#6F2E17"/>
<path d="M64.8522 117.385C64.8829 117.486 64.9135 117.582 64.9442 117.686C64.9578 117.731 64.9748 117.783 64.9884 117.828C65.3119 117.603 65.5979 117.368 65.8431 117.123C65.792 116.96 65.7444 116.802 65.6933 116.646C65.4447 116.922 65.1553 117.168 64.8522 117.385Z" fill="#6F2E17"/>
<path d="M41.2687 115.682C42.4685 115.682 43.4411 114.148 43.4411 112.255C43.4411 110.362 42.4685 108.828 41.2687 108.828C40.0689 108.828 39.0963 110.362 39.0963 112.255C39.0963 114.148 40.0689 115.682 41.2687 115.682Z" fill="#6F2E17"/>
<path d="M49.56 115.682C50.7598 115.682 51.7324 114.148 51.7324 112.255C51.7324 110.362 50.7598 108.828 49.56 108.828C48.3602 108.828 47.3876 110.362 47.3876 112.255C47.3876 114.148 48.3602 115.682 49.56 115.682Z" fill="#6F2E17"/>
<path d="M38.7557 125.421C39.0452 125.421 39.2937 125.646 39.3108 125.943C39.4708 128.448 40.7749 130.475 42.297 130.475C43.8191 130.475 45.1232 128.448 45.2833 125.943C45.3037 125.649 45.5489 125.421 45.8383 125.421C46.1652 125.421 46.4171 125.704 46.3967 126.036C46.1992 129.208 44.466 131.612 42.2936 131.612C40.1212 131.612 38.3914 129.208 38.1905 126.036C38.1701 125.704 38.422 125.421 38.7489 125.421H38.7557Z" fill="#6F2E17"/>
</g>
<g clip-path="url(#clip1_6_147)">
<path d="M236.776 15.4242C231.321 10.2884 222.225 1.82016 217.374 0.78495C212.524 -0.250258 189.686 9.04466 184.835 14.0012C179.985 18.9578 179.784 21.4342 178.367 25.7726C176.949 30.111 176.548 33.0008 175.739 35.8906C174.93 38.7804 181.803 48.0753 183.013 50.5554C184.223 53.0355 184.227 54.4804 185.841 55.9253C187.455 57.3702 201.201 58.6103 205.243 59.8503C209.284 61.0904 208.88 60.677 211.307 60.677C213.734 60.677 216.157 58.8188 218.785 58.8188C221.412 58.8188 228.407 61.1672 231.683 59.3492C234.568 57.7433 234.145 52.8307 236.773 50.5591C239.4 48.2875 239.805 47.8741 241.018 43.7443C242.232 39.6144 240.614 23.918 239.4 20.8197C238.187 17.7214 236.773 15.4278 236.773 15.4278L236.776 15.4242Z" fill="#FFBA0A"/>
<path d="M188.44 13.7708C188.519 13.6867 188.601 13.6025 188.683 13.5184C188.673 13.6245 188.665 13.7269 188.644 13.8293C188.583 13.811 188.511 13.7891 188.44 13.7671V13.7708Z" fill="#6F2E17"/>
<path d="M243.202 20.8563C242.128 18.1165 240.882 15.9912 240.653 15.6108C235.989 11.2175 226.381 2.18232 221.563 1.15442C216.945 0.174086 194.182 9.45438 189.514 14.2244C189.217 14.528 188.945 14.817 188.683 15.1023C189.023 14.4548 189.188 13.7744 189.174 13.0502C194.869 7.92534 216.966 -0.948914 221.781 0.082636C226.911 1.17637 236.361 10.0726 241.437 14.8572L241.491 14.9084L241.53 14.9706C241.588 15.0657 242.984 17.3446 244.201 20.4539C244.96 22.3926 245.797 28.5454 246.13 34.175C245.779 33.9189 245.404 33.6592 245.01 33.3995C244.655 28.143 243.886 22.6085 243.206 20.8636L243.202 20.8563Z" fill="#6F2E17"/>
<path d="M180.554 35.8759C180.031 37.7488 183.65 43.4516 185.812 46.8608C186.729 48.3057 187.455 49.4507 187.796 50.1457C188.214 51.0053 188.494 51.7406 188.737 52.3881C189.195 53.6025 189.525 54.4768 190.498 55.3474C191.322 56.0826 196.716 56.9057 201.051 57.5714C202.612 57.8092 204.137 58.0433 205.501 58.2737C205.558 58.6542 205.612 59.0346 205.665 59.415C204.226 59.1663 202.583 58.9139 200.894 58.6578C194.643 57.7031 190.777 57.0593 189.793 56.1741C188.622 55.1279 188.232 54.0927 187.738 52.7831C187.502 52.1576 187.234 51.4479 186.836 50.6359C186.521 49.9957 185.777 48.8215 184.914 47.4571C181.606 42.2445 178.918 37.7488 179.526 35.576C179.634 35.1882 179.734 34.7968 179.834 34.4054C180.199 34.5371 180.543 34.6578 180.858 34.7456C180.765 35.1224 180.668 35.4992 180.561 35.8759H180.554Z" fill="#6F2E17"/>
<path d="M214.267 60.0003C214.611 59.982 215.037 59.9601 215.61 59.9601C216.702 59.9601 217.826 59.5394 219.014 59.0931C219.454 58.9285 219.902 58.7603 220.353 58.6139V59.7699C220.027 59.8833 219.705 60.004 219.383 60.1247C218.158 60.5856 216.891 61.0611 215.61 61.0611C215.066 61.0611 214.672 61.0831 214.325 61.1014C214.053 61.116 213.813 61.1306 213.573 61.1306C212.785 61.1306 211.973 60.9916 209.793 60.3369V59.1919C212.728 60.0881 213.158 60.0662 214.267 60.0076V60.0003Z" fill="#6F2E17"/>
<path d="M226.614 58.5883C229.574 59.1261 233.626 59.865 235.728 58.6981C237.07 57.9518 237.628 56.3021 238.219 54.5572C238.255 54.4512 238.291 54.3451 238.326 54.239C238.369 54.239 238.412 54.239 238.455 54.239C238.788 54.239 239.132 54.228 239.476 54.2097C239.393 54.4438 239.311 54.678 239.232 54.9157C238.602 56.7813 237.947 58.7127 236.239 59.6601C233.809 61.0099 229.714 60.2673 226.424 59.6674C225.719 59.5394 225.06 59.4187 224.487 59.3346C224.537 58.9724 224.591 58.6103 224.645 58.2481C225.239 58.3359 225.901 58.4566 226.614 58.5883Z" fill="#6F2E17"/>
<path d="M182.938 22.9194C183.496 21.116 184.058 19.5284 185.243 17.6995C185.938 17.4544 186.646 17.202 187.219 16.8106C185.2 19.3858 184.549 21.3209 183.822 23.7022C183.503 23.4717 183.199 23.212 182.938 22.9194Z" fill="#6F2E17"/>
<path d="M225.44 47.6729H225.411C225.418 47.629 225.425 47.5888 225.432 47.5486C225.35 46.3488 225.619 45.1416 225.833 44.1503C225.866 44.0076 225.894 43.8686 225.923 43.7333C226.438 41.3081 229.034 39.9144 233.043 39.9144C236.365 39.9144 243.474 41.2678 243.546 41.2825L243.463 41.7287C243.392 41.7141 236.322 40.368 233.043 40.368C231.257 40.368 227.025 40.7045 226.36 43.8284C226.331 43.9637 226.299 44.1064 226.266 44.2491C226.113 44.9404 225.944 45.7123 225.883 46.4951C227.441 44.3332 232.051 44.5637 232.277 44.5783L232.252 45.0319C232.194 45.0319 226.506 44.7429 225.88 47.5815C225.959 48.5289 226.277 49.4471 227.058 50.2262C227.967 47.2376 233.583 47.5193 233.834 47.5339L233.809 47.9875C233.752 47.9875 228.038 47.6949 227.433 50.5591C227.777 50.8334 228.189 51.0822 228.683 51.309C231.436 52.56 234.586 53.7891 238.488 53.7818C238.434 53.9354 238.38 54.0854 238.33 54.239C234.425 54.2134 231.267 52.9807 228.504 51.726C226.317 50.731 225.579 49.2203 225.443 47.6729H225.44Z" fill="#6F2E17"/>
<path d="M183.292 14.389L183.146 13.95C183.217 13.9244 184.903 13.3391 186.067 13.3391C186.829 13.3391 187.821 13.5879 188.44 13.7708C188.315 13.8988 188.196 14.0268 188.078 14.1512C187.488 13.9903 186.679 13.8037 186.067 13.8037C184.982 13.8037 183.31 14.3817 183.292 14.389Z" fill="#6F2E17"/>
<path d="M182.082 20.6807C182.021 21.5659 182.387 22.3085 182.934 22.9194C182.884 23.0877 182.83 23.2559 182.777 23.4242C181.95 22.5938 181.556 21.6501 181.624 20.6478C181.778 18.431 183.536 17.8092 185.089 17.2605C185.29 17.191 185.487 17.1178 185.68 17.0447C185.522 17.2678 185.376 17.4836 185.236 17.6994C183.679 18.2518 182.211 18.7712 182.079 20.6807H182.082Z" fill="#6F2E17"/>
<path d="M187.219 16.8106C187.642 16.2728 188.125 15.7059 188.68 15.0986C188.44 15.5522 188.118 15.9875 187.706 16.4082C187.559 16.5582 187.395 16.6899 187.219 16.8069V16.8106Z" fill="#6F2E17"/>
<path d="M220.89 71.2303C220.89 71.3474 220.965 71.4461 221.058 71.4461H235.015C235.119 71.4461 235.219 71.3766 235.273 71.2669C235.892 70.0195 235.903 68.4466 235.302 67.4443C235.051 67.031 234.582 66.5335 233.766 66.5335C232.313 66.5335 230.448 67.2029 228.951 67.7406C228.214 68.004 227.577 68.2344 227.115 68.3369C226.091 68.5637 223.847 68.6002 223.292 67.6601C222.916 67.0236 223.539 62.1768 223.958 59.2651C224.126 59.287 224.301 59.309 224.491 59.3382C223.943 63.1864 223.546 66.9432 223.754 67.3785C224.072 67.9125 225.837 68.0625 227.004 67.8028C227.433 67.7077 228.053 67.4845 228.776 67.2248C230.312 66.6725 232.223 65.9884 233.77 65.9884C234.6 65.9884 235.309 66.4054 235.76 67.159C236.454 68.3149 236.451 70.1073 235.753 71.5156C235.606 71.8119 235.323 71.9985 235.015 71.9985H221.058C220.668 71.9985 220.353 71.6546 220.353 71.234V59.7699C220.532 59.7077 220.711 59.6492 220.89 59.5943V71.234V71.2303Z" fill="#6F2E17"/>
<path d="M206.85 67.6601C206.295 68.6002 204.047 68.5637 203.027 68.3369C202.565 68.2344 201.928 68.0076 201.191 67.7406C199.694 67.2029 197.829 66.5335 196.376 66.5335C195.56 66.5335 195.091 67.0273 194.84 67.4443C194.239 68.4466 194.25 70.0195 194.869 71.2669C194.923 71.3766 195.023 71.4461 195.127 71.4461H209.084C209.173 71.4461 209.252 71.3474 209.252 71.2303V60.1686C209.299 60.1832 209.345 60.1942 209.388 60.2088C209.528 60.2527 209.66 60.293 209.789 60.3295V71.2303C209.789 71.651 209.474 71.9948 209.084 71.9948H195.127C194.819 71.9948 194.536 71.8119 194.389 71.512C193.691 70.1037 193.688 68.3112 194.382 67.1553C194.837 66.4018 195.542 65.9848 196.372 65.9848C197.919 65.9848 199.83 66.6688 201.366 67.2212C202.086 67.4809 202.708 67.704 203.138 67.7991C204.309 68.0589 206.073 67.9089 206.388 67.3785C206.596 66.9432 206.206 63.234 205.662 59.415C205.851 59.448 206.038 59.4809 206.22 59.5138C206.635 62.4439 207.215 67.0419 206.85 67.6601Z" fill="#6F2E17"/>
<path d="M170.144 16.3606C170.649 13.1928 172.539 11.3163 174.318 9.90064C176.022 8.54353 180.081 6.67064 183.718 7.41321C186.446 7.96923 188.189 9.35194 188.895 11.5211C189.066 12.0515 189.156 12.56 189.167 13.0502C189.016 13.1855 188.877 13.3172 188.748 13.4452C188.723 13.4708 188.701 13.4928 188.68 13.5147C188.737 12.9624 188.68 12.3881 188.497 11.7808C188.068 11.6418 186.74 11.2431 185.834 11.2431C184.749 11.2431 183.078 11.8211 183.06 11.8284L182.913 11.3894C182.984 11.3638 184.67 10.7786 185.834 10.7786C186.632 10.7786 187.692 11.0529 188.3 11.2358C187.563 9.48363 185.995 8.35332 183.629 7.8668C180.328 7.19374 176.362 8.86177 174.597 10.2628C172.17 12.1905 170.971 14.0342 170.592 16.4301C170.137 19.2797 170.856 24.5508 172.045 27.0712C173.541 30.25 175.299 31.9253 178.757 33.469C179.176 33.6556 179.569 33.8165 179.935 33.9519C179.899 34.1018 179.859 34.2518 179.824 34.4018C179.433 34.2591 179.025 34.0982 178.574 33.897C175.002 32.2984 173.183 30.5682 171.633 27.2724C170.391 24.6386 169.668 19.3346 170.141 16.357L170.144 16.3606Z" fill="#6F2E17"/>
<path d="M244.333 52.8929C252.248 50.5444 251.528 43.8796 251.521 43.8138C251.5 43.6418 251.485 43.4406 251.471 43.2321C251.36 41.5934 251.145 38.506 246.159 34.7566C246.148 34.5627 246.137 34.3652 246.127 34.1713C251.568 38.1366 251.797 41.4544 251.915 43.1992C251.929 43.4114 251.94 43.5943 251.961 43.7552C252.097 44.8673 251.901 46.6889 250.934 48.4704C249.678 50.7895 247.498 52.4246 244.458 53.3282C242.672 53.8586 241.018 54.1293 239.475 54.2097C239.529 54.0524 239.586 53.8988 239.644 53.7452C241.101 53.6537 242.658 53.3867 244.333 52.8892V52.8929Z" fill="#6F2E17"/>
<path d="M209.256 60.1686V59.0309C209.413 59.0712 209.564 59.1151 209.7 59.1553C209.732 59.1663 209.761 59.1736 209.793 59.1846V60.3295C209.664 60.2893 209.531 60.2491 209.392 60.2088C209.349 60.1942 209.299 60.1832 209.256 60.1686Z" fill="#6F2E17"/>
<path d="M245.042 33.9555C245.031 33.769 245.017 33.5787 245.006 33.3922C245.403 33.6519 245.776 33.9116 246.127 34.1677C246.137 34.3652 246.148 34.5591 246.159 34.753C245.808 34.4896 245.439 34.2262 245.042 33.9555Z" fill="#6F2E17"/>
<path d="M206.056 58.3689C206.106 58.7054 206.163 59.0895 206.22 59.5138C206.038 59.4809 205.852 59.448 205.662 59.415C205.608 59.0346 205.551 58.6542 205.497 58.2737C205.687 58.3067 205.873 58.3359 206.056 58.3689Z" fill="#6F2E17"/>
<path d="M180.962 34.2957C180.926 34.4457 180.887 34.5993 180.851 34.7493C180.539 34.6578 180.192 34.5408 179.827 34.4091C179.863 34.2591 179.902 34.1091 179.938 33.9592C180.307 34.0945 180.647 34.2079 180.962 34.2994V34.2957Z" fill="#6F2E17"/>
<path d="M188.68 15.1023C188.121 15.7059 187.642 16.2728 187.219 16.8142C186.646 17.202 185.934 17.4544 185.243 17.7031C185.383 17.4873 185.53 17.2715 185.687 17.0483C186.356 16.7959 186.961 16.5179 187.387 16.0863C187.946 15.5156 188.325 14.9194 188.533 14.2866C188.408 14.25 188.254 14.2024 188.082 14.1549C188.2 14.0305 188.318 13.9025 188.443 13.7744C188.515 13.7964 188.587 13.8147 188.647 13.8366C188.665 13.7342 188.676 13.6281 188.687 13.5257C188.712 13.5001 188.733 13.4781 188.755 13.4562C188.88 13.3282 189.023 13.1928 189.174 13.0611C189.188 13.7818 189.027 14.4621 188.683 15.1133L188.68 15.1023Z" fill="#6F2E17"/>
<path d="M238.327 54.239C238.377 54.0854 238.43 53.9354 238.484 53.7817C238.863 53.7817 239.25 53.7671 239.64 53.7452C239.583 53.8988 239.529 54.0561 239.472 54.2097C239.128 54.228 238.785 54.239 238.452 54.239C238.409 54.239 238.366 54.239 238.323 54.239H238.327Z" fill="#6F2E17"/>
<path d="M220.89 58.4457V59.5906C220.711 59.6455 220.532 59.704 220.353 59.7662V58.6103C220.532 58.5518 220.711 58.4969 220.89 58.4457Z" fill="#6F2E17"/>
<path d="M224.115 58.1786C224.287 58.2006 224.462 58.2225 224.648 58.2518C224.595 58.6139 224.541 58.9761 224.491 59.3382C224.305 59.309 224.126 59.287 223.958 59.2651C224.015 58.859 224.069 58.4932 224.115 58.1786Z" fill="#6F2E17"/>
<path d="M183.822 23.7022C183.79 23.8083 183.758 23.9107 183.725 24.0204C183.711 24.068 183.693 24.1229 183.679 24.1704C183.339 23.9327 183.038 23.6839 182.78 23.4242C182.834 23.2523 182.884 23.084 182.938 22.9194C183.199 23.212 183.503 23.4718 183.822 23.7022Z" fill="#6F2E17"/>
<path d="M208.615 21.8987C207.354 21.8987 206.331 20.2741 206.331 18.27C206.331 16.2659 207.354 14.6413 208.615 14.6413C209.876 14.6413 210.899 16.2659 210.899 18.27C210.899 20.2741 209.876 21.8987 208.615 21.8987Z" fill="#6F2E17"/>
<path d="M199.898 21.8987C198.637 21.8987 197.615 20.2741 197.615 18.27C197.615 16.2659 198.637 14.6413 199.898 14.6413C201.16 14.6413 202.182 16.2659 202.182 18.27C202.182 20.2741 201.16 21.8987 199.898 21.8987Z" fill="#6F2E17"/>
<path d="M211.257 32.2106C210.953 32.2106 210.691 32.4484 210.673 32.763C210.505 35.415 209.134 37.5622 207.534 37.5622C205.934 37.5622 204.563 35.415 204.395 32.763C204.373 32.452 204.115 32.2106 203.811 32.2106C203.467 32.2106 203.202 32.5106 203.224 32.8617C203.432 36.2198 205.254 38.7657 207.537 38.7657C209.821 38.7657 211.64 36.2198 211.851 32.8617C211.872 32.5106 211.608 32.2106 211.264 32.2106H211.257Z" fill="#6F2E17"/>
</g>
<path d="M89 144C104.833 146.166 157.5 151 153 112.5C151.201 97.1044 130.5 88.4996 89 84.4996C47.5 80.4996 55 34.9995 86.5 27.4996C107.415 22.5197 152 42.9994 162.5 48.9994" stroke="#6F2E17" stroke-dasharray="2 2"/>
<defs>
<clipPath id="clip0_6_147">
<rect width="78" height="68" fill="white" transform="translate(0 95)"/>
</clipPath>
<clipPath id="clip1_6_147">
<rect width="82" height="72" fill="white" transform="matrix(-1 0 0 1 252 0)"/>
</clipPath>
</defs>
</svg>
