<svg width="276" height="275" viewBox="0 0 276 275" fill="none" xmlns="http://www.w3.org/2000/svg">
<path fill-rule="evenodd" clip-rule="evenodd" d="M132.575 186.914C105.94 184.187 86.1315 161.01 88.17 134.395C90.92 107.109 114.132 87.3692 141.459 90.0767C168.094 92.1121 187.883 115.981 185.152 142.595C183.114 169.862 159.21 189.66 132.555 186.894L132.575 186.914ZM246.653 117.382C245.307 108.492 241.865 100.331 239.134 92.8226L252.115 78.4977C256.211 73.7356 256.211 66.2275 252.788 61.4653L233.653 38.9603C229.557 34.1597 222.749 32.8156 217.249 36.9057L200.864 47.1213C194.056 42.3591 185.152 37.5777 176.96 34.8318V15.0727C176.268 8.23671 172.191 3.47455 165.344 2.80247L135.979 0.075753C129.825 -0.615528 123.69 3.47455 122.998 10.2913L118.901 28.7063C109.324 30.0697 99.7664 32.7964 91.5932 36.9057L77.2468 23.9441C73.1505 19.182 65.6505 19.182 60.8427 23.2721L38.3038 42.3783C33.5153 46.4684 32.1692 53.2852 35.5731 58.7386L45.8232 74.4461C40.3616 81.9349 35.573 90.8064 32.8422 99.0057L15.1112 99.6778C8.26491 99.6778 3.4956 105.131 2.13019 111.257L0.0725129 140.598C-0.600575 146.723 3.47641 152.849 9.63036 154.212L26.7075 156.958C28.0729 166.502 31.4768 175.373 34.9 184.225L23.3036 196.515C19.2074 201.277 18.5343 208.766 22.6305 213.547L41.7655 236.052C45.8617 240.814 52.6887 242.178 58.1503 238.107L72.4967 229.255C80.0161 234.689 88.8816 239.47 98.4394 242.869L99.1125 259.921C99.1125 266.046 103.901 271.519 110.036 272.21L139.382 274.937C146.229 275.609 151.69 270.847 153.056 264.683L156.46 248.322C166.691 246.287 175.595 243.522 185.133 238.76L198.133 251.049C202.21 255.139 209.73 255.139 214.518 251.049L237.057 232.634C241.826 228.544 243.192 221.727 239.788 216.274L229.557 200.586C235.019 193.078 239.115 184.206 241.846 176.026L260.981 175.335C267.134 175.335 272.596 169.881 272.596 163.756L276 134.415C276 128.289 271.904 122.836 265.75 120.781L246.634 117.382H246.653Z" fill="#FE4D13"/>
</svg>
