<?xml version="1.0" encoding="UTF-8"?>
<svg id="Layer_1" data-name="Layer 1" xmlns="http://www.w3.org/2000/svg" viewBox="0 0 210 149.01">
  <defs>
    <style>
      .cls-1 {
        fill: #ffba0a;
      }

      .cls-2 {
        fill: none;
      }
    </style>
  </defs>
  <path class="cls-2" d="M61.85,145.74c.83,0,1.66.02,2.49.03v-3.37h82.63v4.42c.61,0,1.23.02,1.84.02,1.12,0,2.24.03,3.36.04.06.02.11.05.17.07-.58-.28-1.02-.54-1.13-.61-.98-.61-1.78-1.31-2.4-1.97,0,0,0,0,0-.02-.61-.66-1.06-1.29-1.39-1.8l-.08.03c-.03-.1-.07-.21-.1-.3-1.72-2.73-2.62-5.93-3.36-8.56-.11-.38-.21-.76-.31-1.11-1.78-6.17,2.32-12.57,11.23-17.7-13.68-1.29-29.68-3.07-46.99-3.5-23.15-.58-40.54,1.44-53.62,2.92,5.19,2.6,9.7,5.31,11.56,10.34,1.23,3.34.82,7.18.74,7.96-.19,1.8-.71,4.57-2.37,7.97-.46.93-.96,1.71-1.85,3.12-.14.22-.28.43-.39.63-.38.6-.71,1.1-.96,1.47h.03s.08-.06.12-.1c.28,0,.54,0,.82,0h0Z"/>
  <path class="cls-2" d="M21.3,109.42c-9.11-13.45,1.23-42.95,5.57-51.8.72-1.47,7.19-14.45,7.21-14.48h0C49.08,29.33,74.03,6.61,87.34,3.83c.68-.14,1.49-.21,2.41-.21-3.69-.68-6.64-.88-8.5-.5-13.24,2.76-39.61,27.03-52.42,38.83-.62,1.02-4.05,6.73-6.99,14.09-1.75,4.36-3.68,17.53-4.74,30.71-.04.46-.07.92-.11,1.39-1.12.48-2.13.99-3.05,1.51-5.01,2.87-7.15,6.23-8.55,8.44-.3.48-.59.93-.86,1.32-.11.15-10.36,14.95,5.77,30.83,7.03,6.93,14.09,10.88,20.92,13.22,1.2.41,2.39.78,3.57,1.09,5.34,1.43,10.49,2,15.33,2.38,1.47.12,2.79.06,3.97-.14,2.19-7.56-11.97-14.33-12.12-14.39l.52-1.1c.62.28,14.55,6.95,12.93,15.2,2.88-.82,4.82-2.57,6.22-4.71,2.11-7.54-11.99-14.28-12.13-14.35l.52-1.1c.56.27,11.99,5.73,12.99,12.87.85-1.94,1.42-3.97,1.94-5.81.11-.37.21-.75.31-1.11,2.39-8.25-7.41-14.57-11.72-16.9-.49-.27-1.02-.53-1.58-.81-16.34,1.82-25.54,2.4-30.66-5.16h0Z"/>
  <path class="cls-2" d="M199,108.61c-4.88,8.91-20.37,8.49-42.07,6.5-.16.09-.32.17-.48.26-4.31,2.34-14.11,8.66-11.72,16.9.1.35.21.73.31,1.11.51,1.84,1.09,3.88,1.94,5.81,1-7.14,12.43-12.61,12.99-12.87l.52,1.1c-.15.08-14.25,6.81-12.13,14.35,1.39,2.13,3.33,3.89,6.22,4.71-1.61-8.25,12.31-14.92,12.93-15.2l.52,1.1c-.14.07-14.31,6.84-12.12,14.39,1.66.15,3.03.16,3.97.14,2.61-.06,4.86-.39,7.91-.85.53-.08.92-.15,1.18-.19,1.24-.21,2.5-.44,3.75-.73,0,0,5.99-1.34,11.49-3.9,7.9-3.68,24.64-17.09,24.55-29.32-.03-3.76-1.51-10.04-3.29-12.52-.28-.38-.56-.84-.86-1.32-.93-1.47-2.19-3.45-4.41-5.46.45,1.87.9,3.69,1.42,5.51.22.77-.58,6.76-2.61,10.48h0Z"/>
  <path class="cls-1" d="M187.9,63.64c.46,1.48.94,3.03,1.49,4.68,2.46,7.38,3.82,13.26,5.03,18.44.06.25.11.48.17.72,2.06.97,3.73,2.04,5.12,3.12-1.3-5.56-2.66-11.7-5.31-19.65-3.89-11.65-4.44-18.31-17.76-31.62-2.6-2.6-7.09-5.65-12.72-8.84,3.12,2.01,5.65,3.91,7.36,5.63,11.67,11.67,13.75,18.33,16.62,27.52h0Z"/>
  <polygon class="cls-1" points="34.08 43.15 34.09 43.14 34.09 43.14 34.08 43.15"/>
  <path class="cls-1" d="M107.78,111.42c17.3.44,33.31,2.22,46.99,3.5.36-.21.72-.41,1.09-.62,8.03-4.33,26.93-10.41,27.12-10.46l.37,1.16c-.19.06-18.26,5.87-26.42,10.12,21.71,1.97,37.2,2.41,42.07-6.5,2.03-3.72,2.83-9.72,2.61-10.48-.52-1.82-.98-3.65-1.42-5.51-1.35-1.22-3.04-2.44-5.23-3.57-1.01-.53-2.13-1.02-3.37-1.49,0-.04-.03-.07-.03-.11-.1-.43-.2-.88-.3-1.33-1.12-4.8-2.44-10.22-4.65-16.85-.56-1.66-1.05-3.23-1.51-4.73-2.74-8.79-4.73-15.15-15.89-26.31-10.93-10.93-58-30.69-79.47-34.61-.92,0-1.73.07-2.41.21-13.31,2.78-38.26,25.51-53.25,39.31,0,.03-6.49,13.01-7.21,14.48-4.34,8.85-14.68,38.35-5.57,51.8,5.12,7.56,14.32,6.97,30.66,5.16-8.59-4.19-25.14-9.51-25.32-9.57l.37-1.16c12.01,3.42,21.05,7.4,27.12,10.46,0,0,.02,0,.03.02,13.08-1.47,30.47-3.5,53.62-2.92h0ZM140.52,41.37c.09-.02.18-.05.27-.05l10.74-.72h0c1.09-.07,2.02.76,2.09,1.84.08,1.08-.75,2.02-1.83,2.09l-6.01.4c.87,1.67,1.41,3.81,1.41,6.15,0,5.38-2.81,9.75-6.27,9.75s-6.27-4.57-6.27-9.75,2.59-9.39,5.87-9.72h0ZM116.6,41.37c.09-.02.18-.05.27-.05l10.74-.72h0c1.09-.07,2.02.76,2.09,1.84.08,1.08-.75,2.02-1.83,2.09l-6.01.4c.87,1.67,1.41,3.81,1.41,6.15,0,5.38-2.81,9.75-6.27,9.75s-6.27-4.57-6.27-9.75,2.59-9.39,5.87-9.72ZM104.32,100.12c1.03-.33,2.14.24,2.48,1.27.19.57,1.69,1.67,6.04,1.74,4.25.06,9.6-.88,15.08-2.65,5.48-1.78,10.37-4.15,13.78-6.69,3.49-2.6,4.06-4.38,3.87-4.95-.33-1.03.24-2.14,1.27-2.48,1.03-.33,2.14.24,2.48,1.27.64,1.97.25,5.2-5.27,9.31-3.74,2.79-9.04,5.37-14.92,7.28-5.69,1.85-11.31,2.85-15.9,2.85h-.45c-6.88-.11-9.08-2.49-9.73-4.47-.33-1.03.24-2.14,1.27-2.48Z"/>
  <path d="M112.78,107.06h.45c4.59,0,10.21-.99,15.9-2.84,5.88-1.91,11.17-4.49,14.92-7.28,5.51-4.12,5.91-7.34,5.27-9.31-.33-1.03-1.44-1.6-2.48-1.27-1.03.33-1.6,1.44-1.27,2.48.19.57-.38,2.35-3.87,4.95-3.41,2.54-8.29,4.91-13.78,6.69-5.48,1.77-10.83,2.71-15.08,2.65-4.35-.07-5.86-1.17-6.04-1.74-.33-1.03-1.44-1.6-2.48-1.27s-1.6,1.44-1.27,2.48c.65,1.98,2.85,4.36,9.73,4.46h0Z"/>
  <path d="M117,60.83c3.46,0,6.27-4.36,6.27-9.75,0-2.34-.53-4.48-1.41-6.15l6.01-.4c1.08-.07,1.91-1.01,1.83-2.09-.07-1.08-1-1.91-2.09-1.83h0l-10.74.71c-.09,0-.18.03-.27.05-3.27.32-5.87,4.54-5.87,9.72s2.81,9.75,6.27,9.75Z"/>
  <path d="M140.92,60.83c3.46,0,6.27-4.36,6.27-9.75,0-2.34-.53-4.48-1.41-6.15l6.01-.4c1.08-.07,1.91-1.01,1.83-2.09-.07-1.08-1-1.91-2.09-1.83h0l-10.74.71c-.09,0-.18.03-.27.05-3.27.32-5.87,4.54-5.87,9.72s2.81,9.75,6.27,9.75h0Z"/>
  <path d="M206.45,98.66c-.26-.35-.52-.78-.83-1.26-1.15-1.81-2.77-4.35-5.92-6.81-1.39-1.08-3.06-2.14-5.12-3.12-.06-.24-.11-.47-.17-.72-1.21-5.19-2.57-11.06-5.03-18.44-.55-1.65-1.03-3.19-1.49-4.68-2.87-9.2-4.94-15.85-16.62-27.52-1.72-1.72-4.24-3.63-7.36-5.63C142.43,16.63,92.47-2.25,80.63.22c-14.08,2.94-40.02,26.84-53.95,39.69l-.15.13-.11.17c-.16.26-3.99,6.38-7.33,14.73-1.92,4.79-4.02,19.18-5.05,33.23-5.76,3.08-8.15,6.83-9.68,9.26-.3.48-.57.9-.83,1.26C1.79,101.12-.06,105.69,0,111.16c.08,7.12,3.25,13.83,9.44,19.93,4.45,4.39,8.92,7.61,13.33,9.99,1.31.71,2.61,1.34,3.9,1.91,2.16.94,3.92,1.54,5.13,1.94,6.56,2.14,12.2,3.97,18.77,4.08,1.65.03,3.57-.06,5.79-.8,2.07-.69,3.6-1.68,4.51-2.38h.04-.03c.26-.37.58-.87.96-1.47.13-.2.26-.41.39-.63.88-1.41,1.39-2.19,1.85-3.12,1.66-3.4,2.18-6.17,2.37-7.97.08-.78.49-4.62-.74-7.96-1.86-5.03-6.37-7.73-11.56-10.34,0,0-.02,0-.03-.02-6.07-3.07-15.11-7.05-27.12-10.46l-.37,1.16c.18.06,16.73,5.37,25.32,9.57.56.28,1.09.55,1.58.81,4.31,2.33,14.11,8.65,11.72,16.9-.11.36-.21.74-.31,1.11-.51,1.84-1.09,3.87-1.94,5.81-1-7.14-12.43-12.61-12.99-12.87l-.52,1.1c.15.07,14.25,6.81,12.13,14.35-1.4,2.13-3.34,3.89-6.22,4.71,1.62-8.25-12.31-14.92-12.93-15.2l-.52,1.1c.15.07,14.31,6.84,12.12,14.39-1.18.2-2.5.26-3.97.14-4.83-.37-9.99-.94-15.33-2.38-1.18-.31-2.37-.68-3.57-1.09-6.83-2.34-13.89-6.29-20.92-13.22-16.12-15.88-5.88-30.69-5.77-30.83.28-.38.56-.84.86-1.32,1.4-2.21,3.54-5.57,8.55-8.44.91-.52,1.93-1.03,3.05-1.51.04-.46.07-.92.11-1.39,1.05-13.18,2.99-26.34,4.74-30.71,2.94-7.36,6.37-13.07,6.99-14.09C41.63,30.15,68.01,5.88,81.24,3.12c1.87-.39,4.8-.18,8.5.5,21.47,3.93,68.54,23.68,79.47,34.61,11.16,11.16,13.15,17.52,15.89,26.31.46,1.49.95,3.07,1.51,4.73,2.21,6.63,3.53,12.06,4.65,16.85.11.44.21.89.3,1.33,0,.04.02.07.03.11,1.24.47,2.36.96,3.37,1.49,2.18,1.13,3.88,2.35,5.23,3.57,2.22,2.01,3.49,3.99,4.41,5.46.3.48.59.93.86,1.32,1.78,2.48,3.26,8.75,3.29,12.52.09,12.23-16.65,25.64-24.55,29.32-5.49,2.56-11.49,3.9-11.49,3.9-1.26.28-2.52.52-3.75.73-.26.04-.65.11-1.18.19-3.05.46-5.3.8-7.91.85-.94.02-2.31,0-3.97-.14-2.19-7.56,11.98-14.33,12.12-14.39l-.52-1.1c-.62.28-14.54,6.95-12.93,15.2-2.89-.82-4.83-2.57-6.22-4.71-2.11-7.54,11.99-14.27,12.13-14.35l-.52-1.1c-.56.27-11.99,5.73-12.99,12.87-.85-1.93-1.42-3.97-1.94-5.81-.11-.38-.22-.76-.31-1.11-2.39-8.24,7.41-14.56,11.72-16.9.16-.08.31-.17.48-.26,8.17-4.25,26.24-10.06,26.42-10.12l-.37-1.16c-.19.06-19.09,6.13-27.12,10.46-.37.21-.73.41-1.09.62-8.91,5.13-13,11.53-11.23,17.7.11.35.21.73.31,1.11.74,2.62,1.64,5.83,3.36,8.56.03.1.07.21.1.3l.08-.03c.32.51.78,1.14,1.39,1.8h0v.02c.63.67,1.41,1.37,2.4,1.97.1.07.54.33,1.13.61.15.07.29.13.44.2,2.56,1.09,5.28,1.15,7.18.98,1.13.14,2.78-.16,6.42-.65.33-.05.86-.12,1.51-.21h-.47c1.49-.18,3.02-.4,4.61-.73,7.2-1.46,12.52-4,15.22-5.45,4.41-2.38,8.87-5.6,13.33-9.99,3.72-3.67,9.43-10.48,9.44-19.93,0-5.7-2.15-10.14-3.56-12.52h0Z"/>
  <path d="M148.79,144.35h0s0,0,0,.02v-.02Z"/>
</svg>