<?xml version="1.0" encoding="UTF-8"?>
<svg id="Layer_1" data-name="Layer 1" xmlns="http://www.w3.org/2000/svg" viewBox="0 0 210 149.01">
  <defs>
    <style>
      .cls-1 {
        fill: #ffba0a;
      }
    </style>
  </defs>
  <path class="cls-1" d="M34.08,43.46C49.06,29.66,74.02,6.92,87.33,4.14c13.31-2.77,76,22.19,89.31,35.5,13.31,13.31,13.86,19.97,17.75,31.62,3.88,11.65,4.99,19.41,7.21,27.18.22.77-.58,6.76-2.61,10.48-8.06,14.72-45.01,3.98-91.22,2.81-54.5-1.37-77.19,11.71-86.47-1.99-9.11-13.45,1.23-42.95,5.57-51.8.72-1.47,7.21-14.48,7.21-14.48h0Z"/>
  <path d="M113.23,107.37h-.45c-6.88-.1-9.08-2.48-9.73-4.46-.33-1.03.24-2.14,1.27-2.48s2.14.24,2.48,1.27c.19.57,1.69,1.67,6.04,1.74,4.25.06,9.6-.88,15.08-2.65,5.48-1.78,10.37-4.15,13.78-6.69,3.49-2.6,4.06-4.38,3.87-4.95-.33-1.03.24-2.14,1.27-2.48,1.03-.33,2.14.24,2.48,1.27.64,1.97.25,5.2-5.27,9.31-3.74,2.79-9.04,5.37-14.91,7.28-5.69,1.85-11.31,2.85-15.9,2.85h0Z"/>
  <path d="M127.59,40.92l-10.74.72c-.09,0-.18.03-.27.05-3.27.32-5.87,4.54-5.87,9.72s2.81,9.75,6.27,9.75,6.27-4.36,6.27-9.75c0-2.34-.53-4.48-1.41-6.15l6.01-.4c1.08-.07,1.91-1.01,1.83-2.09-.07-1.08-1-1.91-2.09-1.83h0Z"/>
  <path d="M151.52,40.92l-10.74.72c-.09,0-.18.03-.27.05-3.27.32-5.87,4.54-5.87,9.72s2.81,9.75,6.27,9.75,6.27-4.36,6.27-9.75c0-2.34-.53-4.48-1.41-6.15l6.01-.4c1.08-.07,1.91-1.01,1.83-2.09-.07-1.08-1-1.91-2.09-1.83h0Z"/>
  <g>
    <path d="M155.84,114.62c-1.19.64-2.29,1.31-3.32,1.98h2.31c.58-.35,1.13-.66,1.6-.91,7.92-4.27,26.72-10.32,26.9-10.38l-.37-1.16c-.19.06-19.09,6.13-27.12,10.46h0Z"/>
    <path d="M1.84,116.6c-2.33-9.65,2.6-16.79,2.68-16.89.28-.38.56-.84.86-1.32,1.4-2.21,3.54-5.57,8.55-8.44.91-.52,1.93-1.03,3.05-1.51.04-.46.07-.92.11-1.39,1.05-13.18,2.99-26.34,4.74-30.7,2.94-7.36,6.37-13.07,6.99-14.09C41.62,30.46,67.99,6.19,81.23,3.43c12.68-2.64,75.15,22.29,87.97,35.11,11.16,11.16,13.15,17.52,15.89,26.31.46,1.49.95,3.07,1.51,4.73,2.21,6.63,3.53,12.06,4.65,16.85.11.44.21.89.3,1.33,0,.04.02.07.03.11,1.24.47,2.36.96,3.37,1.49,5.8,2.99,8.15,6.67,9.64,9.03.3.48.59.93.86,1.32.08.1,5.01,7.24,2.67,16.9h1.27c.38-1.67.59-3.37.61-5.1.06-5.47-1.79-10.03-3.54-12.49l-.02-.03c-.26-.35-.52-.78-.83-1.26-1.65-2.6-4.28-6.74-11.03-9.93-.06-.24-.11-.47-.17-.72-1.21-5.19-2.57-11.06-5.03-18.44-.55-1.65-1.03-3.19-1.49-4.68-2.87-9.2-4.94-15.85-16.61-27.52C157.72,22.89,94.18-2.29,80.63.54c-14.08,2.94-40.02,26.84-53.95,39.68l-.15.13-.11.17c-.16.26-3.99,6.38-7.33,14.73-1.92,4.78-4.02,19.18-5.05,33.23-5.76,3.08-8.15,6.83-9.68,9.26-.3.48-.57.9-.83,1.26C1.79,101.44-.06,106.01,0,111.48c.02,1.73.23,3.44.61,5.12h1.23Z"/>
    <path d="M54.12,114.63c-8.02-4.33-26.92-10.41-27.12-10.46l-.37,1.16c.19.06,18.98,6.1,26.9,10.38.47.26,1.01.56,1.59.9h2.31c-1.02-.68-2.12-1.34-3.3-1.97h0Z"/>
  </g>
</svg>