<?xml version="1.0" encoding="UTF-8"?>
<svg id="Layer_2" data-name="Layer 2" xmlns="http://www.w3.org/2000/svg" viewBox="0 0 232.17 157.82">
  <defs>
    <style>
      .cls-1 {
        fill: #5b3319;
      }

      .cls-2 {
        fill: #512e14;
      }
    </style>
  </defs>
  <g id="Layer_1-2" data-name="Layer 1">
    <g>
      <g>
        <path class="cls-1" d="M97.17,68.13c10.74-12.96,22.55-19.06,33.53-21.2,7.68-1.49,14.96-1.06,21.18.38,2.1.49,3.72,1.58,4.96,3.08,1.24-1.5,2.86-2.6,4.96-3.08,0,0-18.07-45.62-54.65-43.82-23.67,1.16-63.47,16.49-67.18,56.17-3.71,39.68-20.02,47.09-29.66,47.09s-1.48,3.71,11.12,6.67c11.73,2.76,29.88,19.64,59.23,1.06.34-4.36,1.23-8.8,1.86-13.15,1.61-11.09,5.56-22.24,14.65-33.22Z"/>
        <path class="cls-2" d="M156.84,50.4c-1.24-1.5-2.86-2.6-4.96-3.08-6.22-1.45-13.5-1.88-21.18-.38-10.98,2.13-22.79,8.23-33.53,21.2-9.09,10.97-13.04,22.13-14.65,33.22-.63,4.35-1.52,8.79-1.86,13.15-.31,3.94-.17,7.82,1.02,11.48,4.32,13.3,12.15,22.1,14.18,27.77,3.78,10.57-2.28-18.87,5.44-29.84,7.28-10.34,11.82-28.77,22.48-28.1,23.29,1.45,26.55-2.46,30.21-6.67.8-.93,1.85-3.18,2.85-6.17-3.09-9.21-5.8-25.53,0-32.55Z"/>
        <path class="cls-2" d="M231.15,101.23c-1.62-11.05-5.57-22.17-14.64-33.11-11.11-13.41-23.36-19.48-34.65-21.41-7.27-1.24-14.15-.78-20.06.59-2.1.49-3.72,1.58-4.96,3.08-5.8,7.02-3.09,23.34,0,32.55,1,2.99,2.05,5.24,2.85,6.17,3.66,4.22,6.92,8.12,30.21,6.67,10.66-.66,22.83,15.46,22.48,28.1-.35,12.65,1.07,42.41,4.13,31.61,3.06-10.8,14.88-10.59,15.49-29.54.26-8.14.36-16.42-.86-24.73Z"/>
      </g>
      <path d="M210,155.98c-.06,0-.12,0-.19-.01-.79-.12-2.11-.32-3.01-13.82-.45-6.81-.65-15.22-.49-20.92.2-7.14-3.77-15.89-9.87-21.79-3.9-3.77-8.07-5.72-11.76-5.49-23.56,1.46-27.08-2.59-30.81-6.88-.85-.98-1.67-2.77-2.3-4.4-.63,1.62-1.44,3.4-2.24,4.33-3.79,4.36-7.3,8.42-30.87,6.95-6.92-.45-11.14,7.95-15.62,16.82-1.93,3.82-3.92,7.77-6.15,10.94-4.49,6.38-4.15,19.56-3.97,26.64.12,4.63.15,5.59-.86,5.78-.88.17-1.3-.72-2.03-2.77-.74-2.08-2.37-4.71-4.25-7.75-3.22-5.22-7.23-11.71-9.94-20.04-.96-2.96-1.34-6.24-1.15-10.22-22.6,13.66-38.42,6.63-50.02,1.47-3.22-1.43-6.01-2.67-8.49-3.25C8.54,109.82-.27,107.24,0,104.89c.13-1.14,1.54-1.58,5.03-1.58,7.37,0,24.95-4.52,28.86-46.36,1.66-17.75,10.81-32.66,26.46-43.12C72.22,5.9,87.73.75,101.83.05c34.33-1.7,52.77,38.14,55.17,43.69,6.43-1.4,13.23-1.56,19.72-.45,13.27,2.27,25.09,9.56,35.14,21.69,8.21,9.91,12.91,20.55,14.81,33.5h0c1.26,8.6,1.11,17.35.86,24.87-.38,11.8-5.09,16.47-9.25,20.6-2.63,2.61-5.12,5.08-6.27,9.13-.43,1.51-.97,2.9-2.01,2.9ZM185.25,92.32c3.96,0,8.29,2.1,12.29,5.96,6.41,6.19,10.57,15.43,10.36,22.99-.32,11.41.7,29.41,2.08,32.75.12-.27.29-.7.48-1.37,1.26-4.46,3.9-7.07,6.68-9.84,4.14-4.11,8.42-8.35,8.78-19.51.24-7.45.39-16.12-.85-24.59h0c-1.85-12.65-6.45-23.04-14.46-32.71-9.79-11.82-21.29-18.93-34.17-21.13-6.5-1.11-13.33-.91-19.74.58l-.67.16-.26-.64c-.18-.45-18.25-45.06-53.86-43.31-13.83.68-29.03,5.73-40.67,13.51-10.62,7.1-23.71,20.14-25.75,41.93-4.03,43.16-22.64,47.82-30.46,47.82-1.84,0-2.74.14-3.18.25,1.23.94,6.02,2.84,14.48,4.83,2.63.62,5.48,1.88,8.77,3.35,11.5,5.11,27.25,12.11,49.84-2.19l1.36-.86-.13,1.6c-.35,4.48-.04,8.03.98,11.17,2.65,8.14,6.6,14.54,9.78,19.69,1.79,2.9,3.35,5.43,4.21,7.56-.01-.61-.03-1.28-.05-1.94-.19-7.26-.54-20.79,4.26-27.6,2.17-3.08,4.13-6.97,6.03-10.74,4.52-8.95,9.2-18.18,17.15-17.7,22.77,1.42,26.03-2.35,29.49-6.33.79-.91,1.8-3.12,2.76-5.96l.76-2.27.76,2.27c.96,2.85,1.96,5.05,2.7,5.89,3.52,4.05,6.78,7.82,29.55,6.4.23-.01.45-.02.68-.02Z"/>
    </g>
  </g>
</svg>