<?xml version="1.0" encoding="UTF-8"?>
<svg id="Layer_2" data-name="Layer 2" xmlns="http://www.w3.org/2000/svg" viewBox="0 0 270.75 158.75">
  <defs>
    <style>
      .cls-1 {
        fill: #512e14;
      }
    </style>
  </defs>
  <g id="Layer_1-2" data-name="Layer 1">
    <g>
      <path class="cls-1" d="M270.75,111.5c0-6.89-7.68-12.72-18.3-14.74,5.11-2.83,8.3-6.82,8.3-11.26,0-5.1-4.21-9.62-10.71-12.45.46-1.14.71-2.33.71-3.55,0-1.38-.31-2.72-.9-4,.58-1.28.9-2.62.9-4,0-6.04-5.91-11.27-14.52-13.82.98-1.62,1.52-3.36,1.52-5.18,0-6.85-7.59-12.65-18.12-14.7,1.99-2.17,3.12-4.66,3.12-7.3,0-8.56-11.86-15.5-26.5-15.5-3.21,0-6.29.33-9.14.95-4.85-3.62-12.39-5.95-20.86-5.95s-16.15,2.37-21,6.05c-4.85-3.68-12.45-6.05-21-6.05-2.79,0-5.48.25-8,.72-2.52-.47-5.21-.72-8-.72-11.69,0-21.6,4.43-25.12,10.57-8.99,1.47-16.06,5.63-18.47,10.91-11.44,1.72-19.9,7.79-19.9,15.02,0,.32.02.64.06.96-11.52,1.68-20.06,7.78-20.06,15.04,0,3.6,2.1,6.91,5.63,9.54-13.76.56-24.63,7.27-24.63,15.46,0,4.65,3.51,8.82,9.06,11.66-.68,1.38-1.06,2.83-1.06,4.34s.37,2.96,1.06,4.34c-5.55,2.84-9.06,7.01-9.06,11.66,0,5.54,4.98,10.4,12.46,13.14-.3.93-.46,1.88-.46,2.86,0,3.34,1.81,6.43,4.89,8.97-1.84,2.11-2.89,4.5-2.89,7.03,0,8.56,11.86,15.5,26.5,15.5s26.5-6.94,26.5-15.5c0-3.34-1.81-6.43-4.89-8.97,1.84-2.11,2.89-4.5,2.89-7.03,0-.67-.08-1.33-.22-1.97,8.99-2.48,15.22-7.83,15.22-14.03,0-3.81-2.36-7.3-6.26-10,3.9-2.7,6.26-6.19,6.26-10,0-3.58-2.08-6.88-5.57-9.5,3.49-2.62,5.57-5.92,5.57-9.5,0-1.29-.27-2.54-.78-3.74,7.66-2.72,12.78-7.64,12.78-13.26,0-3.14-1.6-6.06-4.34-8.5,1.53-1.36,2.7-2.87,3.44-4.48,8.71-1.31,15.69-5.14,18.53-10.09.29-.05.59-.1.88-.15,2.52.47,5.21.72,8,.72,8.55,0,16.15-2.37,21-6.05,3.25,2.47,7.74,4.35,12.93,5.32,1.76,5.7,8.84,10.32,18.14,12.03-4.09,2.73-6.57,6.3-6.57,10.21,0,6.66,7.19,12.34,17.28,14.53-2.09,2.21-3.28,4.76-3.28,7.47,0,2.37.92,4.62,2.55,6.63-9.7,2.3-16.55,7.86-16.55,14.37,0,4.14,2.78,7.9,7.3,10.68-1.48,1.93-2.3,4.07-2.3,6.32,0,8.02,10.42,14.62,23.78,15.42-1.14,1.73-1.78,3.61-1.78,5.58,0,8.56,11.86,15.5,26.5,15.5s26.5-6.94,26.5-15.5c0-2.36-.91-4.6-2.52-6.6,13.23-.87,23.52-7.43,23.52-15.4Z"/>
      <path d="M41.25,158.75c-15.03,0-27.25-7.29-27.25-16.25,0-2.4.89-4.79,2.59-6.95-3.01-2.67-4.59-5.79-4.59-9.05,0-.79.1-1.6.3-2.4-7.72-3-12.3-8.05-12.3-13.6,0-4.59,3.21-8.93,8.83-12-.55-1.31-.83-2.65-.83-4s.28-2.69.83-4c-5.62-3.07-8.83-7.41-8.83-12,0-8.12,10.15-14.98,23.43-16.09-2.91-2.64-4.43-5.69-4.43-8.91,0-7.37,8.19-13.75,20.01-15.67,0-.11,0-.22,0-.33,0-7.38,8.26-13.8,20.15-15.7,2.63-5.25,9.65-9.4,18.51-10.92,3.9-6.38,14.11-10.64,25.59-10.64,2.72,0,5.41.24,8,.71,2.59-.47,5.28-.71,8-.71,8.2,0,15.81,2.13,21,5.87,5.19-3.74,12.8-5.87,21-5.87s15.84,2.14,21.03,5.89c2.88-.59,5.89-.89,8.97-.89,15.03,0,27.25,7.29,27.25,16.25,0,2.36-.86,4.7-2.49,6.82,10.51,2.39,17.49,8.39,17.49,15.18,0,1.61-.39,3.2-1.17,4.73,8.76,2.84,14.17,8.26,14.17,14.27,0,1.35-.28,2.69-.83,4,.55,1.31.83,2.65.83,4,0,1.05-.17,2.11-.51,3.15,6.69,3.09,10.51,7.74,10.51,12.85,0,4.11-2.48,7.94-7.04,10.92,10.27,2.45,17.04,8.37,17.04,15.08,0,8.03-9.74,14.79-22.87,16.04,1.24,1.89,1.87,3.89,1.87,5.96,0,8.96-12.22,16.25-27.25,16.25s-27.25-7.29-27.25-16.25c0-1.68.42-3.33,1.26-4.92-13.35-1.15-23.26-7.94-23.26-16.08,0-2.12.67-4.17,1.98-6.11-4.51-2.98-6.98-6.82-6.98-10.89,0-6.46,6.25-12.2,16.02-14.82-1.34-1.96-2.02-4.03-2.02-6.18,0-2.44.91-4.84,2.64-7.02-10.01-2.51-16.64-8.43-16.64-14.98,0-3.57,1.94-7.01,5.5-9.81-8.62-1.95-14.97-6.36-16.89-11.77-4.85-.96-9.1-2.69-12.36-5.04-5.19,3.74-12.8,5.87-21,5.87-2.72,0-5.41-.24-8-.71-.14.02-.27.05-.41.07-3.04,4.97-9.9,8.72-18.49,10.08-.67,1.34-1.62,2.61-2.85,3.8,2.62,2.55,3.99,5.47,3.99,8.5,0,5.63-4.68,10.72-12.56,13.71.37,1.08.56,2.19.56,3.29,0,3.46-1.76,6.73-5.11,9.5,3.35,2.77,5.11,6.04,5.11,9.5,0,3.64-2.03,7.16-5.74,10,3.71,2.84,5.74,6.36,5.74,10,0,6.17-5.91,11.84-15.11,14.56.07.49.11.97.11,1.44,0,2.4-.89,4.79-2.59,6.95,3.01,2.67,4.59,5.79,4.59,9.05,0,8.96-12.22,16.25-27.25,16.25ZM103.25,1.75c-11.14,0-20.98,4.1-24.47,10.19l-.18.31-.35.06c-8.74,1.42-15.6,5.44-17.91,10.49l-.17.37-.4.06c-11.34,1.7-19.26,7.57-19.26,14.27,0,.3.02.59.05.88l.08.72-.71.1c-11.43,1.67-19.41,7.55-19.41,14.29,0,3.25,1.84,6.34,5.32,8.94l1.69,1.26-2.11.09c-13.41.55-23.91,7.01-23.91,14.71,0,4.17,3.15,8.18,8.65,11l.66.34-.33.66c-.65,1.31-.98,2.65-.98,4s.33,2.69.98,4l.33.66-.66.34c-5.5,2.81-8.65,6.82-8.65,11,0,5.04,4.47,9.69,11.96,12.44l.68.25-.22.68c-.28.88-.42,1.76-.42,2.63,0,3,1.6,5.9,4.62,8.39l.6.49-.51.58c-1.79,2.06-2.7,4.26-2.7,6.54,0,8.13,11.55,14.75,25.75,14.75s25.75-6.62,25.75-14.75c0-3-1.6-5.9-4.62-8.39l-.6-.49.51-.58c1.79-2.06,2.7-4.26,2.7-6.54,0-.59-.07-1.18-.2-1.81l-.15-.69.68-.19c8.91-2.46,14.67-7.68,14.67-13.3,0-3.4-2.11-6.74-5.94-9.38l-.89-.62.89-.62c3.83-2.65,5.94-5.98,5.94-9.38,0-3.23-1.82-6.31-5.27-8.9l-.8-.6.8-.6c3.45-2.59,5.27-5.67,5.27-8.9,0-1.16-.24-2.31-.72-3.44l-.31-.73.75-.27c7.58-2.69,12.28-7.5,12.28-12.56,0-2.81-1.42-5.56-4.09-7.94l-.63-.56.63-.56c1.48-1.31,2.57-2.74,3.26-4.24l.17-.37.4-.06c8.38-1.26,15.27-4.98,17.99-9.72l.18-.31.35-.06c.3-.05.58-.09.86-.15l.14-.03.14.03c2.54.47,5.19.71,7.86.71,8.12,0,15.61-2.15,20.55-5.9l.45-.34.45.34c3.22,2.45,7.58,4.24,12.61,5.18l.45.08.13.43c1.65,5.34,8.54,9.86,17.56,11.51l1.82.33-1.54,1.03c-4.02,2.68-6.23,6.09-6.23,9.58,0,6.09,6.71,11.63,16.68,13.8l1.3.28-.91.97c-2.01,2.13-3.07,4.54-3.07,6.95,0,2.14.8,4.21,2.38,6.16l.75.93-1.16.28c-9.7,2.3-15.97,7.65-15.97,13.64,0,3.72,2.47,7.29,6.95,10.04l.71.43-.5.66c-1.43,1.87-2.15,3.84-2.15,5.86,0,7.45,10.13,13.9,23.07,14.67l1.3.08-.72,1.08c-1.1,1.66-1.65,3.4-1.65,5.17,0,8.13,11.55,14.75,25.75,14.75s25.75-6.62,25.75-14.75c0-2.13-.79-4.19-2.35-6.13l-.91-1.12,1.44-.09c13.01-.85,22.82-7.15,22.82-14.65,0-6.36-7.11-11.99-17.69-14l-2.04-.39,1.82-1c5.1-2.82,7.91-6.59,7.91-10.6,0-4.57-3.83-8.97-10.26-11.76l-.67-.29.27-.68c.43-1.08.65-2.18.65-3.27,0-1.24-.28-2.48-.83-3.69l-.14-.31.14-.31c.55-1.21.83-2.45.83-3.69,0-5.52-5.36-10.54-13.98-13.11l-.93-.28.5-.83c.94-1.55,1.41-3.16,1.41-4.79,0-6.31-7.04-11.93-17.51-13.97l-1.31-.26.9-.99c1.94-2.12,2.92-4.41,2.92-6.79,0-8.13-11.55-14.75-25.75-14.75-3.09,0-6.11.31-8.98.93l-.33.07-.27-.2c-4.94-3.69-12.38-5.8-20.41-5.8s-15.61,2.15-20.55,5.9l-.45.34-.45-.34c-4.94-3.75-12.43-5.9-20.55-5.9-2.68,0-5.32.24-7.86.71l-.14.03-.14-.03c-2.54-.47-5.19-.71-7.86-.71Z"/>
    </g>
  </g>
</svg>