<?xml version="1.0" encoding="UTF-8"?>
<svg id="Layer_2" data-name="Layer 2" xmlns="http://www.w3.org/2000/svg" viewBox="0 0 240.32 151.13">
  <defs>
    <style>
      .cls-1 {
        fill: #5b3319;
      }

      .cls-2 {
        fill: #512e14;
      }
    </style>
  </defs>
  <g id="Layer_1-2" data-name="Layer 1">
    <g>
      <g>
        <path class="cls-1" d="M94.2,22.75c-2.11-11.28-16.96-20.72-26.98-22.09-12.22-1.68-20.6-.72-27.79,9.82-7.19,10.54-4.52,12.13-18.18,18.36-13.66,6.23-15.96,21.83-14.41,32.67,2.14,14.91,18.52,22.07,32.36,23.34,1.84-12.65,6.34-25.38,16.72-37.91,12.26-14.8,25.74-21.75,38.27-24.19Z"/>
        <path class="cls-1" d="M225.49,28.84c-13.66-6.23-10.99-7.82-18.18-18.36C200.13-.06,191.74-1.02,179.52.66c-9.95,1.37-24.67,10.68-26.94,21.85,12.89,2.2,26.87,9.13,39.55,24.43,10.34,12.48,14.86,25.17,16.7,37.78,13.55-1.59,28.99-8.77,31.06-23.21,1.56-10.85-.75-26.44-14.41-32.67Z"/>
        <path class="cls-2" d="M124.03,26.71c-1.42-1.72-3.26-2.96-5.66-3.52-7.09-1.65-15.41-2.14-24.17-.44-12.53,2.44-26.01,9.39-38.27,24.19-10.38,12.52-14.88,25.26-16.72,37.91-1.37,9.45-3.82,19.3-.96,28.1,4.93,15.18,7.56,20.07,17.68,33.71,7.63,10.29,5.12-21.65,4.72-36.08-.4-14.43,13.49-32.83,25.66-32.07,26.58,1.65,30.3-2.81,34.48-7.62.92-1.06,2.11-3.62,3.25-7.04-3.53-10.51-6.62-29.13,0-37.15Z"/>
        <path class="cls-2" d="M152.58,22.51c-8.3-1.42-16.14-.89-22.89.68-2.4.56-4.24,1.8-5.66,3.52-6.62,8.02-3.53,26.64,0,37.15,1.15,3.41,2.34,5.98,3.25,7.04,4.18,4.81,7.89,9.27,34.48,7.62,12.17-.76,26.06,17.64,25.66,32.07-.4,14.43,1.22,48.4,4.71,36.08,3.5-12.32,16.98-12.09,17.68-33.71.3-9.29.41-18.73-.98-28.23-1.85-12.61-6.36-25.3-16.7-37.78-12.68-15.3-26.66-22.23-39.55-24.43Z"/>
      </g>
      <path d="M185.27,151.13c-.07,0-.14,0-.22-.02-.9-.14-2.41-.37-3.44-15.77-.52-7.77-.75-17.37-.57-23.88.23-8.15-4.3-18.14-11.26-24.87-4.45-4.3-9.21-6.54-13.42-6.27-26.89,1.67-30.91-2.95-35.16-7.85-.97-1.12-1.91-3.17-2.63-5.02-.72,1.84-1.64,3.87-2.56,4.94-4.32,4.98-8.34,9.6-35.23,7.93-4.2-.27-8.97,1.96-13.42,6.27-6.96,6.73-11.49,16.72-11.26,24.87.06,2.04.16,4.44.26,7.02.74,17.86.98,30.6-2.66,31.89-1.81.65-3.44-1.54-3.97-2.26-10.25-13.81-12.91-18.9-17.81-33.98-2.46-7.56-1.11-15.84.19-23.84.2-1.25.41-2.49.59-3.73-13.71-1.51-30.01-8.62-32.22-24.02-2.66-18.56,5.97-29.55,14.93-33.64,9.84-4.49,10.89-6.35,13.69-11.33.99-1.75,2.22-3.94,4.11-6.71C40.6.05,49.32-1.07,61.9.66c5.3.73,11.61,3.53,16.88,7.51,5.68,4.28,9.43,9.37,10.68,14.43,7.81-1.39,15.97-1.18,23.67.61,2.12.49,3.95,1.51,5.45,3.04,1.51-1.53,3.33-2.55,5.45-3.04,7.28-1.69,15-1.98,22.4-.83,2.97-11.55,17.82-20.39,27.51-21.72,12.57-1.73,21.29-.61,28.67,10.21,1.89,2.77,3.12,4.95,4.11,6.71,2.81,4.98,3.86,6.85,13.69,11.33,8.97,4.09,17.6,15.07,14.93,33.64-2.13,14.86-17.78,22.09-30.93,23.88,1.3,9.52,1.12,19.14.85,27.46-.43,13.47-5.81,18.8-10.56,23.51-3.01,2.98-5.84,5.8-7.16,10.42-.49,1.73-1.11,3.31-2.29,3.31ZM157.03,78.48c4.52,0,9.47,2.39,14.03,6.8,7.31,7.06,12.06,17.61,11.82,26.23-.36,13.02.81,33.56,2.37,37.37.14-.31.33-.8.54-1.56,1.44-5.09,4.45-8.07,7.63-11.22,4.72-4.69,9.6-9.53,10.01-22.27.29-8.9.45-18.4-.97-28.06l-.14-.93.94-.11c12.69-1.49,28.23-8.26,30.26-22.43,2.52-17.56-5.52-27.89-13.88-31.71-10.38-4.74-11.68-7.04-14.53-12.1-.97-1.72-2.18-3.87-4.02-6.57-6.88-10.09-14.77-11.1-26.91-9.43-9.17,1.26-23.92,10.11-26.17,21.13l-.18.87-.88-.15c-7.42-1.27-15.21-1.04-22.53.67-2.09.49-3.78,1.54-5.16,3.21l-.71.86-.71-.86c-1.38-1.67-3.07-2.73-5.16-3.21-7.74-1.8-15.97-1.95-23.79-.43l-.91.18-.17-.91c-2.08-11.12-16.91-20.08-26.2-21.35-12.15-1.67-20.03-.66-26.91,9.43-1.84,2.71-3.05,4.85-4.02,6.57-2.85,5.06-4.15,7.37-14.53,12.1C7.82,34.39-.21,44.73,2.3,62.29c1.97,13.77,17.26,21.25,31.54,22.55l.96.09-.14.96c-.23,1.56-.48,3.13-.74,4.71-1.27,7.79-2.58,15.84-.26,22.98,4.88,15,7.34,19.69,17.54,33.45,1.06,1.44,1.7,1.69,1.89,1.62,2.65-.94,1.83-20.63,1.44-30.09-.11-2.59-.21-4.99-.26-7.04-.24-8.63,4.51-19.17,11.82-26.23,4.83-4.67,10.1-7.05,14.81-6.78,25.98,1.62,29.71-2.67,33.66-7.22.9-1.04,2.05-3.56,3.15-6.81l.87-2.59.87,2.59c1.09,3.25,2.24,5.76,3.08,6.73,4.01,4.63,7.74,8.93,33.73,7.3.26-.02.52-.02.78-.02Z"/>
    </g>
  </g>
</svg>