<svg viewBox="0 0 48 45" fill="none" xmlns="http://www.w3.org/2000/svg">
<path d="M22.874 29.9322C22.874 30.3606 23.044 30.7716 23.347 31.0746C23.65 31.3775 24.061 31.5477 24.49 31.5477C24.918 31.5477 25.329 31.3775 25.632 31.0746C25.935 30.7716 26.105 30.3606 26.105 29.9322V22.9313H33.106C33.535 22.9313 33.946 22.7611 34.249 22.4581C34.552 22.1552 34.722 21.7442 34.722 21.3157C34.722 20.8873 34.552 20.4763 34.249 20.1734C33.946 19.8704 33.535 19.7002 33.106 19.7002H26.105V12.6993C26.105 12.2708 25.935 11.8599 25.632 11.5569C25.329 11.254 24.918 11.0837 24.49 11.0837C24.061 11.0837 23.65 11.254 23.347 11.5569C23.044 11.8599 22.874 12.2708 22.874 12.6993V19.7002H15.873C15.445 19.7002 15.034 19.8704 14.731 20.1734C14.428 20.4763 14.258 20.8873 14.258 21.3157C14.258 21.7442 14.428 22.1552 14.731 22.4581C15.034 22.7611 15.445 22.9313 15.873 22.9313H22.874V29.9322Z" fill="#6B2008" stroke="#6B2008" stroke-width="2.5"/>
</svg>