<svg width="35" height="27" viewBox="0 0 35 27" fill="none" xmlns="http://www.w3.org/2000/svg">
<path d="M9.9873 13.2529C9.93048 12.6806 9.67781 12.1427 9.26758 11.7324C8.79874 11.2636 8.16304 11 7.5 11C6.83696 11 6.20126 11.2636 5.73242 11.7324C5.26358 12.2013 5 12.837 5 13.5C5 14.163 5.26358 14.7987 5.73242 15.2676C6.20126 15.7364 6.83696 16 7.5 16C8.16304 16 8.79874 15.7364 9.26758 15.2676C9.73642 14.7987 10 14.163 10 13.5L9.9873 13.2529ZM28 7.5C28 6.30653 27.5256 5.16227 26.6816 4.31836C25.8377 3.47445 24.6935 3 23.5 3C22.3065 3 21.1623 3.47445 20.3184 4.31836C19.4744 5.16227 19 6.30653 19 7.5C19 8.69347 19.4744 9.83773 20.3184 10.6816C21.1623 11.5256 22.3065 12 23.5 12C24.6935 12 25.8377 11.5256 26.6816 10.6816C27.5256 9.83773 28 8.69347 28 7.5ZM12.9932 13.7725C12.9258 15.132 12.3557 16.4216 11.3887 17.3887C10.3572 18.4201 8.95869 19 7.5 19C6.30653 19 5.16227 19.4744 4.31836 20.3184C3.47445 21.1623 3 22.3065 3 23.5V25.5C3 26.3284 2.32843 27 1.5 27C0.671573 27 0 26.3284 0 25.5V23.5C0 21.5109 0.789766 19.6028 2.19629 18.1963C2.57432 17.8183 2.98936 17.4858 3.43164 17.2002C2.51286 16.1901 2 14.8717 2 13.5C2 12.0413 2.57988 10.6428 3.61133 9.61133C4.64278 8.57988 6.04131 8 7.5 8C8.95869 8 10.3572 8.57988 11.3887 9.61133C12.4201 10.6428 13 12.0413 13 13.5L12.9932 13.7725ZM31 7.5C31 9.48912 30.2102 11.3972 28.8037 12.8037C28.6923 12.9152 28.5755 13.0204 28.458 13.124C29.6247 13.6815 30.7001 14.4364 31.6318 15.3682C33.7885 17.5248 35 20.45 35 23.5V25.5C35 26.3284 34.3284 27 33.5 27C32.6716 27 32 26.3284 32 25.5V23.5C32 21.2457 31.1048 19.0833 29.5107 17.4893C28.0164 15.9949 26.0226 15.1151 23.9219 15.0107L23.5 15C21.2457 15 19.0833 15.8952 17.4893 17.4893C15.8952 19.0833 15 21.2457 15 23.5V25.5C15 26.3284 14.3284 27 13.5 27C12.6716 27 12 26.3284 12 25.5V23.5C12 20.45 13.2115 17.5248 15.3682 15.3682C16.2997 14.4366 17.3746 13.6814 18.541 13.124C18.4237 13.0205 18.3076 12.915 18.1963 12.8037C16.7898 11.3972 16 9.48912 16 7.5C16 5.51088 16.7898 3.60281 18.1963 2.19629C19.6028 0.789766 21.5109 0 23.5 0C25.4891 0 27.3972 0.789766 28.8037 2.19629C30.2102 3.60281 31 5.51088 31 7.5Z" fill="#6B4E04"/>
</svg>
