<svg width="24" height="30" viewBox="0 0 24 30" fill="none" xmlns="http://www.w3.org/2000/svg">
<path d="M1.5 9.6C1.5 5.7822 1.5 3.87195 2.65369 2.68665C3.80606 1.5 5.66325 1.5 9.375 1.5H14.625C18.3368 1.5 20.1939 1.5 21.3463 2.68665C22.5 3.87195 22.5 5.7822 22.5 9.6V20.4C22.5 24.2178 22.5 26.1281 21.3463 27.3134C20.1939 28.5 18.3368 28.5 14.625 28.5H9.375C5.66325 28.5 3.80606 28.5 2.65369 27.3134C1.5 26.1281 1.5 24.2178 1.5 20.4V9.6Z" stroke="#6B4E04" stroke-width="3"/>
<path d="M22.3661 20.4H6.61612C5.3955 20.4 4.78519 20.4 4.28381 20.5377C3.61616 20.7219 3.0074 21.0836 2.51873 21.5864C2.03007 22.0893 1.67872 22.7156 1.5 23.4024" stroke="#6B4E04" stroke-width="2"/>
<path d="M6.75 8.25H17.25M6.75 12.975H13.3125" stroke="#6B4E04" stroke-width="2" stroke-linecap="round"/>
</svg>
