<svg width="29" height="30" viewBox="0 0 29 30" fill="none" xmlns="http://www.w3.org/2000/svg">
<path d="M1.5 15.2754C1.5 12.1853 1.5 10.6409 2.176 9.36105C2.8494 8.0799 4.0831 7.2861 6.5492 5.6958L9.1492 4.02045C11.7557 2.3397 13.0596 1.5 14.5 1.5C15.9404 1.5 17.243 2.3397 19.8508 4.02045L22.4508 5.6958C24.9169 7.2861 26.1506 8.0799 26.8253 9.36105C27.5 10.6422 27.5 12.1853 27.5 15.2741V17.3288C27.5 22.5938 27.5 25.2276 25.9764 26.8638C24.4528 28.5 22.0023 28.5 17.1 28.5H11.9C6.9977 28.5 4.5459 28.5 3.0236 26.8638C1.5013 25.2276 1.5 22.5951 1.5 17.3288V15.2754Z" stroke="#6B4E04" stroke-width="3"/>
<path d="M14.5 19.05V23.1" stroke="#6B4E04" stroke-width="3" stroke-linecap="round"/>
</svg>
