<svg width="23" height="31" viewBox="0 0 23 31" fill="none" xmlns="http://www.w3.org/2000/svg">
<mask id="path-1-outside-1_1227_11034" maskUnits="userSpaceOnUse" x="-0.800049" y="-0.799988" width="23" height="32" fill="black">
<rect fill="white" x="-0.800049" y="-0.799988" width="23" height="32"/>
<path d="M15.3869 29.9703L14.9829 30.5769C15.0927 30.65 15.2203 30.6919 15.352 30.6982C15.4838 30.7045 15.6148 30.675 15.731 30.6127C15.8473 30.5505 15.9445 30.4578 16.0123 30.3447C16.0801 30.2316 16.116 30.1021 16.116 29.9703H15.3869ZM11.0119 27.0536L11.4158 26.4469C11.2961 26.3673 11.1556 26.3248 11.0119 26.3248C10.8681 26.3248 10.7276 26.3673 10.6079 26.4469L11.0119 27.0536ZM6.63686 29.9703H5.90769C5.90776 30.1021 5.9436 30.2316 6.0114 30.3447C6.0792 30.4578 6.17641 30.5505 6.29269 30.6127C6.40897 30.675 6.53996 30.7045 6.6717 30.6982C6.80345 30.6919 6.93102 30.65 7.04082 30.5769L6.63686 29.9703ZM15.7908 29.3636L11.4158 26.4469L10.6079 27.6603L14.9829 30.5769L15.7908 29.3636ZM10.6079 26.4469L6.2329 29.3636L7.04082 30.5769L11.4158 27.6603L10.6079 26.4469ZM12.6787 2.42817L12.74 2.50109L13.8498 1.55609L13.7885 1.48317L12.6787 2.42817ZM15.8083 3.77276L15.9031 3.76401L15.7864 2.31151L15.6917 2.3188L15.8083 3.77276ZM18.2583 6.12067L18.2525 6.21546L19.705 6.33213L19.7123 6.23734L18.2583 6.12067ZM19.5227 9.2838L19.5956 9.34651L20.5406 8.23526L20.4677 8.17401L19.5227 9.2838ZM19.5956 12.6788L19.5227 12.74L20.4677 13.8498L20.5406 13.7886L19.5956 12.6788ZM18.2525 15.8084L18.2598 15.9032L19.7123 15.7865L19.705 15.6917L18.2525 15.8084ZM15.9046 18.2584L15.8083 18.2511L15.6917 19.705L15.7864 19.7123L15.9046 18.2584ZM12.74 19.5228L12.6773 19.5957L13.7885 20.5407L13.8498 20.4678L12.74 19.5228ZM9.34645 19.5957L9.28374 19.5228L8.17394 20.4678L8.23519 20.5407L9.34645 19.5957ZM6.2154 18.2525L6.12061 18.2598L6.23728 19.7123L6.33207 19.705L6.2154 18.2525ZM3.7654 15.9046L3.77269 15.8084L2.31874 15.6917L2.31144 15.7865L3.7654 15.9046ZM2.50103 12.74L2.42811 12.6773L1.48311 13.7886L1.55603 13.8498L2.50103 12.74ZM2.42811 9.34651L2.50103 9.2838L1.55603 8.17401L1.48311 8.23526L2.42811 9.34651ZM3.77269 6.21546L3.76395 6.12067L2.31144 6.23734L2.31874 6.33213L3.77269 6.21546ZM6.12061 3.76546L6.2154 3.77276L6.33207 2.3188L6.23728 2.31151L6.12061 3.76546ZM9.2852 2.50109L9.34499 2.42817L8.23519 1.48317L8.17394 1.55609L9.2852 2.50109ZM6.2154 3.77276C6.79124 3.81916 7.36987 3.72807 7.90359 3.50697C8.43732 3.28587 8.91086 2.94111 9.2852 2.50109L8.17394 1.55609C7.94931 1.82005 7.66518 2.02685 7.34494 2.15946C7.02471 2.29206 6.67755 2.34668 6.33207 2.3188L6.2154 3.77276ZM3.76395 6.12067C3.73846 5.80497 3.78328 5.4875 3.89251 5.19021C4.00175 4.89292 4.17423 4.62289 4.39805 4.39879C4.62187 4.17469 4.89169 4.00187 5.18885 3.89227C5.48601 3.78267 5.80342 3.73891 6.11915 3.76401L6.23728 2.31151C5.711 2.26927 5.18038 2.34183 4.6849 2.52419C4.18943 2.70654 3.73947 2.99433 3.36614 3.36766C2.99281 3.74099 2.70502 4.19095 2.52267 4.68642C2.34031 5.1819 2.2692 5.71106 2.31144 6.23734L3.76395 6.12067ZM2.50103 9.2838C2.94105 8.90946 3.28581 8.43738 3.50691 7.90365C3.72801 7.36993 3.8191 6.7913 3.77269 6.21546L2.31874 6.33213C2.34662 6.67761 2.292 7.02477 2.1594 7.345C2.02679 7.66524 1.81999 7.94937 1.55603 8.17401L2.50103 9.2838ZM2.42811 12.6773C2.18697 12.472 1.9933 12.2167 1.86049 11.9292C1.72768 11.6416 1.6589 11.3287 1.6589 11.0119C1.6589 10.6952 1.72768 10.3822 1.86049 10.0947C1.9933 9.80714 2.18697 9.55186 2.42811 9.34651L1.48311 8.23526C1.08088 8.57752 0.757806 9.00309 0.536252 9.48251C0.314698 9.96194 0.199951 10.4838 0.199951 11.0119C0.199951 11.5401 0.314698 12.0619 0.536252 12.5413C0.757806 13.0208 1.08088 13.4463 1.48311 13.7886L2.42811 12.6773ZM3.77269 15.8084C3.81887 15.2328 3.72765 14.6544 3.50657 14.121C3.28548 13.5875 2.94084 13.1142 2.50103 12.74L1.55603 13.8498C1.81999 14.0745 2.02679 14.3586 2.1594 14.6788C2.292 14.9991 2.34662 15.3462 2.31874 15.6917L3.77269 15.8084ZM6.12061 18.2584C5.80478 18.2839 5.48718 18.2405 5.18977 18.1312C4.89236 18.0219 4.62225 17.8492 4.39813 17.6253C4.17401 17.4013 4.00122 17.1313 3.89172 16.8339C3.78222 16.5366 3.73862 16.219 3.76395 15.9032L2.31144 15.7865C2.26898 16.3129 2.34138 16.8422 2.52363 17.3379C2.70589 17.8335 2.99365 18.2837 3.367 18.6572C3.74035 19.0307 4.19039 19.3186 4.68598 19.501C5.18157 19.6835 5.71087 19.7561 6.23728 19.7138L6.12061 18.2584ZM12.6773 19.5957C12.4719 19.8368 12.2166 20.0305 11.9291 20.1633C11.6416 20.2961 11.3286 20.3649 11.0119 20.3649C10.6951 20.3649 10.3822 20.2961 10.0946 20.1633C9.80708 20.0305 9.5518 19.8368 9.34645 19.5957L8.23519 20.5407C8.57746 20.9429 9.00302 21.266 9.48245 21.4875C9.96188 21.7091 10.4837 21.8238 11.0119 21.8238C11.54 21.8238 12.0618 21.7091 12.5413 21.4875C13.0207 21.266 13.4463 20.9429 13.7885 20.5407L12.6773 19.5957ZM18.2598 15.9032C18.2853 16.2191 18.2419 16.5369 18.1325 16.8344C18.0231 17.1319 17.8503 17.4021 17.6262 17.6262C17.402 17.8504 17.1319 18.0232 16.8343 18.1326C16.5368 18.242 16.2191 18.2854 15.9031 18.2598L15.7864 19.7123C16.3128 19.7548 16.8422 19.6824 17.3378 19.5001C17.8335 19.3179 18.2836 19.0301 18.6571 18.6568C19.0306 18.2834 19.3185 17.8334 19.501 17.3378C19.6834 16.8422 19.7545 16.3129 19.7123 15.7865L18.2598 15.9032ZM19.5227 12.7386C19.0829 13.1131 18.7385 13.5867 18.5176 14.1204C18.2968 14.6541 18.2059 15.2327 18.2525 15.8084L19.705 15.6917C19.6771 15.3462 19.7317 14.9991 19.8643 14.6788C19.9969 14.3586 20.2037 14.0745 20.4677 13.8498L19.5227 12.7386ZM19.5956 9.34651C19.8368 9.55186 20.0304 9.80714 20.1632 10.0947C20.296 10.3822 20.3648 10.6952 20.3648 11.0119C20.3648 11.3287 20.296 11.6416 20.1632 11.9292C20.0304 12.2167 19.8368 12.4734 19.5956 12.6788L20.5406 13.7886C20.9428 13.4463 21.2659 13.0208 21.4875 12.5413C21.709 12.0619 21.8238 11.5401 21.8238 11.0119C21.8238 10.4838 21.709 9.96194 21.4875 9.48251C21.2659 9.00309 20.9428 8.57752 20.5406 8.23526L19.5956 9.34651ZM18.2525 6.21546C18.2061 6.79095 18.2971 7.36921 18.518 7.90265C18.7388 8.43609 19.0831 8.90946 19.5227 9.2838L20.4677 8.17401C20.2037 7.94937 19.9969 7.66524 19.8643 7.345C19.7317 7.02477 19.6771 6.67761 19.705 6.33213L18.2525 6.21546ZM15.9046 3.76546C16.2203 3.74017 16.5377 3.78374 16.835 3.89315C17.1322 4.00257 17.4021 4.17522 17.6261 4.39918C17.85 4.62314 18.0227 4.89306 18.1321 5.19029C18.2415 5.48752 18.2836 5.80496 18.2583 6.12067L19.7123 6.23734C19.7545 5.71093 19.6834 5.18163 19.501 4.68604C19.3185 4.19045 19.0306 3.74042 18.6571 3.36706C18.2836 2.99371 17.8335 2.70595 17.3378 2.5237C16.8422 2.34144 16.3128 2.26904 15.7864 2.31151L15.9046 3.76546ZM12.74 2.50109C13.1142 2.9409 13.5875 3.28554 14.1209 3.50663C14.6544 3.72771 15.2327 3.81893 15.8083 3.77276L15.6917 2.3188C15.3462 2.34668 14.999 2.29206 14.6788 2.15946C14.3585 2.02685 14.0744 1.82005 13.8498 1.55609L12.74 2.50109ZM13.7885 1.48317C13.4463 1.08094 13.0207 0.757867 12.5413 0.536313C12.0618 0.314759 11.54 0.200012 11.0119 0.200012C10.4837 0.200012 9.96188 0.314759 9.48245 0.536313C9.00302 0.757867 8.57746 1.08094 8.23519 1.48317L9.34499 2.42817C9.55035 2.18703 9.80708 1.99336 10.0946 1.86055C10.3822 1.72774 10.6951 1.65896 11.0119 1.65896C11.3286 1.65896 11.6416 1.72774 11.9291 1.86055C12.2166 1.99336 12.4734 2.18703 12.6787 2.42817L13.7885 1.48317ZM9.2852 19.5228C8.9604 19.1412 8.56045 18.8308 8.11031 18.6107C7.66017 18.3907 7.16951 18.2643 6.66895 18.2423L6.60478 19.7007C6.90499 19.7139 7.19927 19.7888 7.46924 19.9208C7.73922 20.0528 7.97911 20.239 8.17394 20.4678L9.2852 19.5228ZM6.66895 18.2423C6.51774 18.2369 6.36636 18.2408 6.2154 18.2511L6.33207 19.705C6.42346 19.6973 6.51436 19.6958 6.60478 19.7007L6.66895 18.2423ZM7.36603 29.9703V18.9715H5.90769V29.9703H7.36603ZM15.8098 18.2511C15.6583 18.2408 15.5065 18.2383 15.3548 18.2438L15.4189 19.7007C15.5094 19.6958 15.6003 19.6973 15.6917 19.705L15.8098 18.2511ZM15.3548 18.2438C14.8545 18.266 14.3641 18.391 13.9142 18.611C13.4643 18.831 13.0646 19.1414 12.74 19.5228L13.8498 20.4678C14.0446 20.239 14.2845 20.0528 14.5545 19.9208C14.8245 19.7888 15.1187 19.7139 15.4189 19.7007L15.3548 18.2438ZM14.6577 18.973V29.9703H16.116V18.9715L14.6577 18.973Z"/>
</mask>
<path d="M15.3869 29.9703L14.9829 30.5769C15.0927 30.65 15.2203 30.6919 15.352 30.6982C15.4838 30.7045 15.6148 30.675 15.731 30.6127C15.8473 30.5505 15.9445 30.4578 16.0123 30.3447C16.0801 30.2316 16.116 30.1021 16.116 29.9703H15.3869ZM11.0119 27.0536L11.4158 26.4469C11.2961 26.3673 11.1556 26.3248 11.0119 26.3248C10.8681 26.3248 10.7276 26.3673 10.6079 26.4469L11.0119 27.0536ZM6.63686 29.9703H5.90769C5.90776 30.1021 5.9436 30.2316 6.0114 30.3447C6.0792 30.4578 6.17641 30.5505 6.29269 30.6127C6.40897 30.675 6.53996 30.7045 6.6717 30.6982C6.80345 30.6919 6.93102 30.65 7.04082 30.5769L6.63686 29.9703ZM15.7908 29.3636L11.4158 26.4469L10.6079 27.6603L14.9829 30.5769L15.7908 29.3636ZM10.6079 26.4469L6.2329 29.3636L7.04082 30.5769L11.4158 27.6603L10.6079 26.4469ZM12.6787 2.42817L12.74 2.50109L13.8498 1.55609L13.7885 1.48317L12.6787 2.42817ZM15.8083 3.77276L15.9031 3.76401L15.7864 2.31151L15.6917 2.3188L15.8083 3.77276ZM18.2583 6.12067L18.2525 6.21546L19.705 6.33213L19.7123 6.23734L18.2583 6.12067ZM19.5227 9.2838L19.5956 9.34651L20.5406 8.23526L20.4677 8.17401L19.5227 9.2838ZM19.5956 12.6788L19.5227 12.74L20.4677 13.8498L20.5406 13.7886L19.5956 12.6788ZM18.2525 15.8084L18.2598 15.9032L19.7123 15.7865L19.705 15.6917L18.2525 15.8084ZM15.9046 18.2584L15.8083 18.2511L15.6917 19.705L15.7864 19.7123L15.9046 18.2584ZM12.74 19.5228L12.6773 19.5957L13.7885 20.5407L13.8498 20.4678L12.74 19.5228ZM9.34645 19.5957L9.28374 19.5228L8.17394 20.4678L8.23519 20.5407L9.34645 19.5957ZM6.2154 18.2525L6.12061 18.2598L6.23728 19.7123L6.33207 19.705L6.2154 18.2525ZM3.7654 15.9046L3.77269 15.8084L2.31874 15.6917L2.31144 15.7865L3.7654 15.9046ZM2.50103 12.74L2.42811 12.6773L1.48311 13.7886L1.55603 13.8498L2.50103 12.74ZM2.42811 9.34651L2.50103 9.2838L1.55603 8.17401L1.48311 8.23526L2.42811 9.34651ZM3.77269 6.21546L3.76395 6.12067L2.31144 6.23734L2.31874 6.33213L3.77269 6.21546ZM6.12061 3.76546L6.2154 3.77276L6.33207 2.3188L6.23728 2.31151L6.12061 3.76546ZM9.2852 2.50109L9.34499 2.42817L8.23519 1.48317L8.17394 1.55609L9.2852 2.50109ZM6.2154 3.77276C6.79124 3.81916 7.36987 3.72807 7.90359 3.50697C8.43732 3.28587 8.91086 2.94111 9.2852 2.50109L8.17394 1.55609C7.94931 1.82005 7.66518 2.02685 7.34494 2.15946C7.02471 2.29206 6.67755 2.34668 6.33207 2.3188L6.2154 3.77276ZM3.76395 6.12067C3.73846 5.80497 3.78328 5.4875 3.89251 5.19021C4.00175 4.89292 4.17423 4.62289 4.39805 4.39879C4.62187 4.17469 4.89169 4.00187 5.18885 3.89227C5.48601 3.78267 5.80342 3.73891 6.11915 3.76401L6.23728 2.31151C5.711 2.26927 5.18038 2.34183 4.6849 2.52419C4.18943 2.70654 3.73947 2.99433 3.36614 3.36766C2.99281 3.74099 2.70502 4.19095 2.52267 4.68642C2.34031 5.1819 2.2692 5.71106 2.31144 6.23734L3.76395 6.12067ZM2.50103 9.2838C2.94105 8.90946 3.28581 8.43738 3.50691 7.90365C3.72801 7.36993 3.8191 6.7913 3.77269 6.21546L2.31874 6.33213C2.34662 6.67761 2.292 7.02477 2.1594 7.345C2.02679 7.66524 1.81999 7.94937 1.55603 8.17401L2.50103 9.2838ZM2.42811 12.6773C2.18697 12.472 1.9933 12.2167 1.86049 11.9292C1.72768 11.6416 1.6589 11.3287 1.6589 11.0119C1.6589 10.6952 1.72768 10.3822 1.86049 10.0947C1.9933 9.80714 2.18697 9.55186 2.42811 9.34651L1.48311 8.23526C1.08088 8.57752 0.757806 9.00309 0.536252 9.48251C0.314698 9.96194 0.199951 10.4838 0.199951 11.0119C0.199951 11.5401 0.314698 12.0619 0.536252 12.5413C0.757806 13.0208 1.08088 13.4463 1.48311 13.7886L2.42811 12.6773ZM3.77269 15.8084C3.81887 15.2328 3.72765 14.6544 3.50657 14.121C3.28548 13.5875 2.94084 13.1142 2.50103 12.74L1.55603 13.8498C1.81999 14.0745 2.02679 14.3586 2.1594 14.6788C2.292 14.9991 2.34662 15.3462 2.31874 15.6917L3.77269 15.8084ZM6.12061 18.2584C5.80478 18.2839 5.48718 18.2405 5.18977 18.1312C4.89236 18.0219 4.62225 17.8492 4.39813 17.6253C4.17401 17.4013 4.00122 17.1313 3.89172 16.8339C3.78222 16.5366 3.73862 16.219 3.76395 15.9032L2.31144 15.7865C2.26898 16.3129 2.34138 16.8422 2.52363 17.3379C2.70589 17.8335 2.99365 18.2837 3.367 18.6572C3.74035 19.0307 4.19039 19.3186 4.68598 19.501C5.18157 19.6835 5.71087 19.7561 6.23728 19.7138L6.12061 18.2584ZM12.6773 19.5957C12.4719 19.8368 12.2166 20.0305 11.9291 20.1633C11.6416 20.2961 11.3286 20.3649 11.0119 20.3649C10.6951 20.3649 10.3822 20.2961 10.0946 20.1633C9.80708 20.0305 9.5518 19.8368 9.34645 19.5957L8.23519 20.5407C8.57746 20.9429 9.00302 21.266 9.48245 21.4875C9.96188 21.7091 10.4837 21.8238 11.0119 21.8238C11.54 21.8238 12.0618 21.7091 12.5413 21.4875C13.0207 21.266 13.4463 20.9429 13.7885 20.5407L12.6773 19.5957ZM18.2598 15.9032C18.2853 16.2191 18.2419 16.5369 18.1325 16.8344C18.0231 17.1319 17.8503 17.4021 17.6262 17.6262C17.402 17.8504 17.1319 18.0232 16.8343 18.1326C16.5368 18.242 16.2191 18.2854 15.9031 18.2598L15.7864 19.7123C16.3128 19.7548 16.8422 19.6824 17.3378 19.5001C17.8335 19.3179 18.2836 19.0301 18.6571 18.6568C19.0306 18.2834 19.3185 17.8334 19.501 17.3378C19.6834 16.8422 19.7545 16.3129 19.7123 15.7865L18.2598 15.9032ZM19.5227 12.7386C19.0829 13.1131 18.7385 13.5867 18.5176 14.1204C18.2968 14.6541 18.2059 15.2327 18.2525 15.8084L19.705 15.6917C19.6771 15.3462 19.7317 14.9991 19.8643 14.6788C19.9969 14.3586 20.2037 14.0745 20.4677 13.8498L19.5227 12.7386ZM19.5956 9.34651C19.8368 9.55186 20.0304 9.80714 20.1632 10.0947C20.296 10.3822 20.3648 10.6952 20.3648 11.0119C20.3648 11.3287 20.296 11.6416 20.1632 11.9292C20.0304 12.2167 19.8368 12.4734 19.5956 12.6788L20.5406 13.7886C20.9428 13.4463 21.2659 13.0208 21.4875 12.5413C21.709 12.0619 21.8238 11.5401 21.8238 11.0119C21.8238 10.4838 21.709 9.96194 21.4875 9.48251C21.2659 9.00309 20.9428 8.57752 20.5406 8.23526L19.5956 9.34651ZM18.2525 6.21546C18.2061 6.79095 18.2971 7.36921 18.518 7.90265C18.7388 8.43609 19.0831 8.90946 19.5227 9.2838L20.4677 8.17401C20.2037 7.94937 19.9969 7.66524 19.8643 7.345C19.7317 7.02477 19.6771 6.67761 19.705 6.33213L18.2525 6.21546ZM15.9046 3.76546C16.2203 3.74017 16.5377 3.78374 16.835 3.89315C17.1322 4.00257 17.4021 4.17522 17.6261 4.39918C17.85 4.62314 18.0227 4.89306 18.1321 5.19029C18.2415 5.48752 18.2836 5.80496 18.2583 6.12067L19.7123 6.23734C19.7545 5.71093 19.6834 5.18163 19.501 4.68604C19.3185 4.19045 19.0306 3.74042 18.6571 3.36706C18.2836 2.99371 17.8335 2.70595 17.3378 2.5237C16.8422 2.34144 16.3128 2.26904 15.7864 2.31151L15.9046 3.76546ZM12.74 2.50109C13.1142 2.9409 13.5875 3.28554 14.1209 3.50663C14.6544 3.72771 15.2327 3.81893 15.8083 3.77276L15.6917 2.3188C15.3462 2.34668 14.999 2.29206 14.6788 2.15946C14.3585 2.02685 14.0744 1.82005 13.8498 1.55609L12.74 2.50109ZM13.7885 1.48317C13.4463 1.08094 13.0207 0.757867 12.5413 0.536313C12.0618 0.314759 11.54 0.200012 11.0119 0.200012C10.4837 0.200012 9.96188 0.314759 9.48245 0.536313C9.00302 0.757867 8.57746 1.08094 8.23519 1.48317L9.34499 2.42817C9.55035 2.18703 9.80708 1.99336 10.0946 1.86055C10.3822 1.72774 10.6951 1.65896 11.0119 1.65896C11.3286 1.65896 11.6416 1.72774 11.9291 1.86055C12.2166 1.99336 12.4734 2.18703 12.6787 2.42817L13.7885 1.48317ZM9.2852 19.5228C8.9604 19.1412 8.56045 18.8308 8.11031 18.6107C7.66017 18.3907 7.16951 18.2643 6.66895 18.2423L6.60478 19.7007C6.90499 19.7139 7.19927 19.7888 7.46924 19.9208C7.73922 20.0528 7.97911 20.239 8.17394 20.4678L9.2852 19.5228ZM6.66895 18.2423C6.51774 18.2369 6.36636 18.2408 6.2154 18.2511L6.33207 19.705C6.42346 19.6973 6.51436 19.6958 6.60478 19.7007L6.66895 18.2423ZM7.36603 29.9703V18.9715H5.90769V29.9703H7.36603ZM15.8098 18.2511C15.6583 18.2408 15.5065 18.2383 15.3548 18.2438L15.4189 19.7007C15.5094 19.6958 15.6003 19.6973 15.6917 19.705L15.8098 18.2511ZM15.3548 18.2438C14.8545 18.266 14.3641 18.391 13.9142 18.611C13.4643 18.831 13.0646 19.1414 12.74 19.5228L13.8498 20.4678C14.0446 20.239 14.2845 20.0528 14.5545 19.9208C14.8245 19.7888 15.1187 19.7139 15.4189 19.7007L15.3548 18.2438ZM14.6577 18.973V29.9703H16.116V18.9715L14.6577 18.973Z" fill="#FFBA0A"/>
<path d="M2.50103 9.2838L2.42493 9.34868L2.57717 9.21897L2.50103 9.2838ZM3.77269 6.21546L3.78069 6.31514L3.7647 6.11578L3.77269 6.21546ZM2.31874 15.6917L2.32673 15.592L2.31073 15.7914L2.31874 15.6917ZM2.50103 12.74L2.57717 12.8049L2.42493 12.6752L2.50103 12.74ZM12.74 19.5228L12.8048 19.4466L12.6751 19.5989L12.74 19.5228ZM19.5956 12.6788L19.6717 12.6139L19.5195 12.7436L19.5956 12.6788ZM19.5227 9.2838L19.4466 9.21897L19.5988 9.34868L19.5227 9.2838ZM19.7123 6.23734L19.7043 6.33702L19.7203 6.13766L19.7123 6.23734ZM13.8498 1.55609L13.9146 1.63223L13.785 1.47991L13.8498 1.55609ZM15.8083 3.77276L15.7086 3.78075L15.908 3.76477L15.8083 3.77276ZM12.6787 2.42817L12.6139 2.35208L12.7436 2.50431L12.6787 2.42817ZM9.34499 2.42817L9.28016 2.50431L9.40987 2.35208L9.34499 2.42817ZM6.27228 3.04505L6.1726 3.03706L6.11426 3.76477L6.21394 3.77276L6.31363 3.78075L6.37196 3.05304L6.27228 3.04505ZM8.72957 2.02859L8.79435 1.95241L8.23873 1.47991L8.17394 1.55609L8.10916 1.63227L8.66479 2.10477L8.72957 2.02859ZM3.03769 6.17901L3.02969 6.07933L2.30344 6.13766L2.31144 6.23734L2.31945 6.33702L3.0457 6.27868L3.03769 6.17901ZM6.17894 3.03776L6.27862 3.04576L6.33696 2.31951L6.23728 2.31151L6.1376 2.3035L6.07927 3.02975L6.17894 3.03776ZM2.02853 8.72963L1.95243 8.79451L2.42493 9.34868L2.50103 9.2838L2.57712 9.21892L2.10462 8.66475L2.02853 8.72963ZM3.04499 6.2738L3.05298 6.37348L3.78068 6.31514L3.77269 6.21546L3.7647 6.11578L3.037 6.17412L3.04499 6.2738ZM1.95561 13.233L1.87943 13.1682L1.40693 13.7238L1.48311 13.7886L1.55929 13.8534L2.03179 13.2977L1.95561 13.233ZM1.95561 8.79088L2.03179 8.7261L1.55929 8.17047L1.48311 8.23526L1.40693 8.30004L1.87943 8.85566L1.95561 8.79088ZM3.04499 15.75L3.05299 15.6504L2.32674 15.592L2.31874 15.6917L2.31073 15.7914L3.03698 15.8497L3.04499 15.75ZM2.02853 13.2942L2.10462 13.3591L2.57712 12.8049L2.50103 12.74L2.42493 12.6752L1.95243 13.2293L2.02853 13.2942ZM6.17894 18.9861L6.07927 18.9941L6.1376 19.7203L6.23728 19.7123L6.33696 19.7043L6.27862 18.9781L6.17894 18.9861ZM3.03769 15.8448L3.02969 15.9445L3.75594 16.0029L3.76395 15.9032L3.77195 15.8035L3.0457 15.7452L3.03769 15.8448ZM8.72957 19.9953L8.79445 20.0714L9.34862 19.5989L9.28374 19.5228L9.21885 19.4467L8.66469 19.9192L8.72957 19.9953ZM6.27374 18.9788L6.37342 18.9708L6.31508 18.2445L6.2154 18.2525L6.11573 18.2606L6.17406 18.9868L6.27374 18.9788ZM13.2329 20.0682L13.1681 20.1444L13.7237 20.6169L13.7885 20.5407L13.8533 20.4645L13.2977 19.992L13.2329 20.0682ZM8.79082 20.0682L8.72604 19.992L8.17041 20.4645L8.23519 20.5407L8.29998 20.6169L8.8556 20.1444L8.79082 20.0682ZM15.75 18.9788L15.8497 18.9868L15.908 18.2606L15.8083 18.2525L15.7086 18.2445L15.6503 18.9708L15.75 18.9788ZM13.2942 19.9953L13.359 19.9192L12.8049 19.4467L12.74 19.5228L12.6751 19.5989L13.2293 20.0714L13.2942 19.9953ZM18.986 15.8448L18.994 15.9445L19.7203 15.8862L19.7123 15.7865L19.7043 15.6868L18.978 15.7452L18.986 15.8448ZM15.8448 18.9861L15.7451 18.9781L15.6868 19.7043L15.7864 19.7123L15.8861 19.7203L15.9445 18.9941L15.8448 18.9861ZM19.9952 13.2942L19.919 13.359L20.3915 13.9146L20.4677 13.8498L20.5439 13.7851L20.0714 13.2294L19.9952 13.2942ZM18.9787 15.75L18.9707 15.6504L18.2445 15.7087L18.2525 15.8084L18.2605 15.9081L18.9867 15.8497L18.9787 15.75ZM20.0681 8.79088L20.1443 8.85566L20.6168 8.30004L20.5406 8.23526L20.4644 8.17047L19.9919 8.7261L20.0681 8.79088ZM20.0681 13.233L20.1442 13.1681L19.6717 12.6139L19.5956 12.6788L19.5195 12.7437L19.992 13.2978L20.0681 13.233ZM18.9787 6.2738L18.9867 6.17412L18.2605 6.11579L18.2525 6.21546L18.2445 6.31514L18.9707 6.37348L18.9787 6.2738ZM19.9952 8.72963L19.9191 8.66475L19.4466 9.21892L19.5227 9.2838L19.5988 9.34868L20.0713 8.79451L19.9952 8.72963ZM15.8448 3.03776L15.9445 3.02975L15.8861 2.3035L15.7864 2.31151L15.6868 2.31951L15.7451 3.04576L15.8448 3.03776ZM18.986 6.17901L18.978 6.27868L19.7043 6.33702L19.7123 6.23734L19.7203 6.13766L18.994 6.07933L18.986 6.17901ZM13.2942 2.02859L13.3589 2.10477L13.9146 1.63227L13.8498 1.55609L13.785 1.47991L13.2294 1.95241L13.2942 2.02859ZM15.75 3.04505L15.6503 3.05304L15.7086 3.78075L15.8083 3.77276L15.908 3.76477L15.8497 3.03706L15.75 3.04505ZM13.2329 1.95567L13.168 1.87958L12.6139 2.35208L12.6787 2.42817L12.7436 2.50427L13.2978 2.03177L13.2329 1.95567ZM8.79082 1.95567L8.72594 2.03177L9.28011 2.50427L9.34499 2.42817L9.40987 2.35208L8.8557 1.87958L8.79082 1.95567ZM6.63686 18.9715L6.73676 18.9759L6.76885 18.2467L6.66895 18.2423L6.56904 18.2379L6.53696 18.9671L6.63686 18.9715ZM12.74 2.50109L12.8048 2.57723L13.9146 1.63223L13.8498 1.55609L13.7849 1.47995L12.6752 2.42495L12.74 2.50109ZM13.7885 1.48317L13.7237 1.40704L12.6139 2.35204L12.6787 2.42817L12.7436 2.50431L13.8534 1.55931L13.7885 1.48317ZM15.6917 2.3188L15.592 2.3268L15.7086 3.78075L15.8083 3.77276L15.908 3.76476L15.7913 2.3108L15.6917 2.3188ZM18.2525 6.21546L18.2445 6.31514L19.697 6.43181L19.705 6.33213L19.713 6.23245L18.2605 6.11579L18.2525 6.21546ZM19.7123 6.23734L19.7203 6.13766L18.2663 6.02099L18.2583 6.12067L18.2503 6.22035L19.7043 6.33702L19.7123 6.23734ZM19.5956 9.34651L19.6718 9.41129L20.6168 8.30004L20.5406 8.23526L20.4644 8.17047L19.5194 9.28172L19.5956 9.34651ZM20.4677 8.17401L20.3916 8.10917L19.4466 9.21897L19.5227 9.2838L19.5988 9.34863L20.5438 8.23884L20.4677 8.17401ZM20.5406 13.7886L20.6167 13.7238L19.6717 12.614L19.5956 12.6788L19.5195 12.7436L20.4645 13.8534L20.5406 13.7886ZM18.2598 15.9032L18.2678 16.0029L19.7203 15.8862L19.7123 15.7865L19.7043 15.6868L18.2518 15.8035L18.2598 15.9032ZM19.705 15.6917L19.697 15.592L18.2445 15.7087L18.2525 15.8084L18.2605 15.9081L19.713 15.7914L19.705 15.6917ZM12.6773 19.5957L12.6125 19.6719L13.7237 20.6169L13.7885 20.5407L13.8533 20.4645L12.7421 19.5195L12.6773 19.5957ZM13.8498 20.4678L13.9146 20.3916L12.8048 19.4466L12.74 19.5228L12.6752 19.5989L13.7849 20.5439L13.8498 20.4678ZM8.23519 20.5407L8.29998 20.6169L9.41123 19.6719L9.34645 19.5957L9.28166 19.5195L8.17041 20.4645L8.23519 20.5407ZM3.77269 15.8084L3.78069 15.7087L2.32673 15.592L2.31874 15.6917L2.31074 15.7914L3.7647 15.9081L3.77269 15.8084ZM2.42811 12.6773L2.35193 12.6126L1.40693 13.7238L1.48311 13.7886L1.55929 13.8534L2.50429 12.7421L2.42811 12.6773ZM1.55603 13.8498L1.63216 13.9147L2.57717 12.8049L2.50103 12.74L2.42489 12.6752L1.47989 13.785L1.55603 13.8498ZM2.50103 9.2838L2.57717 9.21897L1.63216 8.10917L1.55603 8.17401L1.47989 8.23884L2.42489 9.34863L2.50103 9.2838ZM1.48311 8.23526L1.40693 8.30004L2.35193 9.41129L2.42811 9.34651L2.50429 9.28172L1.55929 8.17047L1.48311 8.23526ZM3.76395 6.12067L3.75594 6.02099L2.30344 6.13766L2.31144 6.23734L2.31945 6.33702L3.77195 6.22035L3.76395 6.12067ZM2.31874 6.33213L2.32673 6.43181L3.78069 6.31514L3.77269 6.21546L3.7647 6.11578L2.31074 6.23245L2.31874 6.33213ZM6.2154 3.77276L6.31508 3.78075L6.43175 2.3268L6.33207 2.3188L6.23239 2.3108L6.11572 3.76476L6.2154 3.77276ZM9.34499 2.42817L9.40982 2.35204L8.30003 1.40704L8.23519 1.48317L8.17036 1.55931L9.28016 2.50431L9.34499 2.42817ZM8.17394 1.55609L8.10916 1.63227L9.22041 2.57727L9.2852 2.50109L9.34998 2.42491L8.23873 1.47991L8.17394 1.55609ZM6.66895 18.2423L6.56904 18.2379L6.50487 19.6963L6.60478 19.7007L6.70468 19.7051L6.76885 18.2467L6.66895 18.2423ZM15.3548 18.2438L15.2549 18.2482L15.319 19.7051L15.4189 19.7007L15.5188 19.6963L15.4547 18.2394L15.3548 18.2438ZM15.3869 29.9703V29.7703H15.2798L15.2204 29.8594L15.3869 29.9703ZM14.9829 30.5769L14.872 30.7433L14.8721 30.7434L14.9829 30.5769ZM16.116 29.9703L16.316 29.9704V29.9703H16.116ZM11.0119 27.0536L10.8454 27.1644L11.0119 27.4144L11.1783 27.1644L11.0119 27.0536ZM11.4158 26.4469L11.5268 26.2805L11.5266 26.2804L11.4158 26.4469ZM10.6079 26.4469L10.4971 26.2804L10.497 26.2805L10.6079 26.4469ZM6.63686 29.9703L6.80333 29.8594L6.74397 29.7703H6.63686V29.9703ZM5.90769 29.9703H5.7077V29.9704L5.90769 29.9703ZM7.04082 30.5769L7.15162 30.7434L7.15176 30.7433L7.04082 30.5769ZM8.17394 1.55609L8.32626 1.68571L8.32709 1.68473L8.17394 1.55609ZM2.31144 6.23734L2.51086 6.222L2.5108 6.22134L2.31144 6.23734ZM2.50103 9.2838L2.37143 9.13146L2.37062 9.13216L2.50103 9.2838ZM3.77269 6.21546L3.97206 6.1994L3.97185 6.19708L3.77269 6.21546ZM1.48311 13.7886L1.3535 13.9409L1.35447 13.9417L1.48311 13.7886ZM1.48311 8.23526L1.35447 8.08211L1.3535 8.08294L1.48311 8.23526ZM2.31874 15.6917L2.11938 15.6756L2.11933 15.6764L2.31874 15.6917ZM2.50103 12.74L2.37062 12.8917L2.37143 12.8924L2.50103 12.74ZM6.23728 19.7123L6.03792 19.7283L6.05388 19.927L6.25261 19.9117L6.23728 19.7123ZM3.76395 15.9032L3.96331 15.9192L3.97929 15.7198L3.77996 15.7038L3.76395 15.9032ZM9.28374 19.5228L9.43537 19.3923L9.3056 19.2415L9.15407 19.3705L9.28374 19.5228ZM6.2154 18.2525L6.41476 18.2365L6.3988 18.0378L6.20006 18.0531L6.2154 18.2525ZM13.7885 20.5407L13.9409 20.6703L13.9417 20.6693L13.7885 20.5407ZM8.23519 20.5407L8.08205 20.6693L8.08287 20.6703L8.23519 20.5407ZM12.74 19.5228L12.8916 19.6532L12.8923 19.6524L12.74 19.5228ZM19.7123 15.7865L19.5129 15.8018L19.5129 15.8025L19.7123 15.7865ZM18.2525 15.8084L18.4519 15.793L18.4518 15.7922L18.2525 15.8084ZM20.5406 8.23526L20.6702 8.08293L20.6693 8.08212L20.5406 8.23526ZM19.5956 12.6788L19.7243 12.8319L19.7253 12.8311L19.5956 12.6788ZM18.2525 6.21546L18.4519 6.23152L18.4521 6.22775L18.2525 6.21546ZM19.5227 9.2838L19.6531 9.13216L19.6524 9.13153L19.5227 9.2838ZM19.7123 6.23734L19.5129 6.22133L19.5129 6.222L19.7123 6.23734ZM13.8498 1.55609L13.6966 1.68473L13.6975 1.68571L13.8498 1.55609ZM15.8083 3.77276L15.8243 3.97213L15.8267 3.97191L15.8083 3.77276ZM12.6787 2.42817L12.8319 2.29953L12.831 2.2985L12.6787 2.42817ZM9.34499 2.42817L9.19269 2.29848L9.19033 2.30136L9.34499 2.42817ZM6.66895 18.2423L6.67771 18.0425L6.6761 18.0425L6.66895 18.2423ZM15.7908 29.3636L15.9573 29.4744L16.0681 29.3081L15.9018 29.1972L15.7908 29.3636ZM10.6079 27.6603L10.4414 27.5494L10.3306 27.7158L10.497 27.8267L10.6079 27.6603ZM6.2329 29.3636L6.12196 29.1972L5.95564 29.3081L6.06643 29.4744L6.2329 29.3636ZM11.4158 27.6603L11.5268 27.8267L11.6931 27.7158L11.5823 27.5494L11.4158 27.6603ZM12.74 2.50109L12.5868 2.62973L12.5877 2.63069L12.74 2.50109ZM13.7885 1.48317L13.9417 1.35453L13.9408 1.35356L13.7885 1.48317ZM15.9031 3.76401L15.9215 3.96316L16.1183 3.945L16.1025 3.74799L15.9031 3.76401ZM15.6917 2.3188L15.6763 2.11939L15.6756 2.11945L15.6917 2.3188ZM18.2583 6.12067L18.0589 6.1047L18.0587 6.10839L18.2583 6.12067ZM19.705 6.33213L19.9043 6.34822L19.9044 6.34747L19.705 6.33213ZM19.5956 9.34651L19.4652 9.49814L19.4659 9.49877L19.5956 9.34651ZM20.4677 8.17401L20.3381 8.32632L20.3391 8.32715L20.4677 8.17401ZM19.5227 12.74L19.3941 12.5869L19.2399 12.7164L19.3704 12.8697L19.5227 12.74ZM20.5406 13.7886L20.6693 13.9417L20.6702 13.9409L20.5406 13.7886ZM18.2598 15.9032L18.0604 15.9185L18.0604 15.9193L18.2598 15.9032ZM19.705 15.6917L19.9044 15.6764L19.9043 15.6756L19.705 15.6917ZM15.9046 18.2584L16.1039 18.2746L16.1202 18.0741L15.9197 18.059L15.9046 18.2584ZM15.8083 18.2511L15.8234 18.0517L15.6249 18.0366L15.609 18.2351L15.8083 18.2511ZM15.6917 19.705L15.6747 19.9043L15.6763 19.9045L15.6917 19.705ZM12.6773 19.5957L12.5256 19.4653L12.525 19.466L12.6773 19.5957ZM13.8498 20.4678L13.6975 20.3381L13.6966 20.3391L13.8498 20.4678ZM9.34645 19.5957L9.49871 19.466L9.49808 19.4653L9.34645 19.5957ZM6.12061 18.2598L6.10527 18.0604L5.90519 18.0758L5.92125 18.2759L6.12061 18.2598ZM6.33207 19.705L6.34741 19.9045L6.34903 19.9043L6.33207 19.705ZM3.7654 15.9046L3.74921 16.104L3.94964 16.1203L3.96483 15.9197L3.7654 15.9046ZM3.77269 15.8084L3.57333 15.7924L3.57327 15.7933L3.77269 15.8084ZM2.42811 12.6773L2.55852 12.5257L2.55778 12.5251L2.42811 12.6773ZM1.55603 13.8498L1.68565 13.6975L1.68467 13.6967L1.55603 13.8498ZM2.42811 9.34651L2.55778 9.49877L2.55852 9.49814L2.42811 9.34651ZM1.55603 8.17401L1.68467 8.32715L1.68565 8.32632L1.55603 8.17401ZM3.76395 6.12067L3.56458 6.13677L3.56479 6.13905L3.76395 6.12067ZM2.31874 6.33213L2.11932 6.34747L2.11938 6.34822L2.31874 6.33213ZM6.12061 3.76546L5.92125 3.74947L5.9052 3.94949L6.10527 3.96488L6.12061 3.76546ZM6.2154 3.77276L6.23147 3.5734L6.23074 3.57334L6.2154 3.77276ZM6.33207 2.3188L6.34816 2.11944L6.34741 2.11939L6.33207 2.3188ZM9.2852 2.50109L9.43755 2.6307L9.43985 2.62791L9.2852 2.50109ZM8.23519 1.48317L8.08287 1.35356L8.08205 1.35453L8.23519 1.48317ZM6.11915 3.76401L6.10331 3.96338L6.30231 3.9792L6.3185 3.78022L6.11915 3.76401ZM1.6589 11.0119H1.4589H1.6589ZM6.12061 18.2584L6.31997 18.2424L6.30398 18.0429L6.10451 18.059L6.12061 18.2584ZM6.23728 19.7138L6.25329 19.9132L6.45262 19.8972L6.43664 19.6978L6.23728 19.7138ZM15.9031 18.2598L15.9192 18.0605L15.7198 18.0444L15.7038 18.2438L15.9031 18.2598ZM19.5227 12.7386L19.6751 12.609L19.5454 12.4566L19.393 12.5863L19.5227 12.7386ZM15.9046 3.76546L15.7052 3.78166L15.7214 3.98078L15.9205 3.96483L15.9046 3.76546ZM11.0119 0.200012V1.22041e-05V0.200012ZM11.0119 1.65896V1.85896V1.65896ZM9.2852 19.5228L9.41476 19.6751L9.5672 19.5455L9.43748 19.3931L9.2852 19.5228ZM6.60478 19.7007L6.59404 19.9004L6.59598 19.9005L6.60478 19.7007ZM6.2154 18.2511L6.20183 18.0515L5.99985 18.0653L6.01604 18.2671L6.2154 18.2511ZM7.36603 29.9703V30.1703H7.56603V29.9703H7.36603ZM7.36603 18.9715H7.56603V18.7715H7.36603V18.9715ZM5.90769 18.9715V18.7715H5.7077V18.9715H5.90769ZM15.8098 18.2511L16.0091 18.2673L16.0255 18.0653L15.8234 18.0515L15.8098 18.2511ZM15.3548 18.2438L15.3476 18.0439L15.3459 18.044L15.3548 18.2438ZM15.4189 19.7007L15.4277 19.9005L15.4297 19.9004L15.4189 19.7007ZM14.6577 18.973L14.6575 18.773L14.4577 18.7732V18.973H14.6577ZM14.6577 29.9703H14.4577V30.1703H14.6577V29.9703ZM16.116 18.9715H16.316V18.7713L16.1158 18.7715L16.116 18.9715ZM15.3869 29.9703L15.2204 29.8594L14.8164 30.4661L14.9829 30.5769L15.1494 30.6878L15.5533 30.0811L15.3869 29.9703ZM14.9829 30.5769L14.8721 30.7434C15.012 30.8365 15.1746 30.89 15.3425 30.898L15.352 30.6982L15.3616 30.4984C15.266 30.4939 15.1734 30.4634 15.0937 30.4104L14.9829 30.5769ZM15.352 30.6982L15.3425 30.898C15.5103 30.906 15.6773 30.8684 15.8254 30.789L15.731 30.6127L15.6366 30.4364C15.5522 30.4816 15.4572 30.503 15.3616 30.4984L15.352 30.6982ZM15.731 30.6127L15.8254 30.789C15.9736 30.7097 16.0975 30.5917 16.1839 30.4475L16.0123 30.3447L15.8408 30.2419C15.7916 30.324 15.721 30.3912 15.6366 30.4364L15.731 30.6127ZM16.0123 30.3447L16.1839 30.4475C16.2703 30.3033 16.3159 30.1384 16.316 29.9704L16.116 29.9703L15.916 29.9701C15.916 30.0659 15.89 30.1598 15.8408 30.2419L16.0123 30.3447ZM16.116 29.9703V29.7703H15.3869V29.9703V30.1703H16.116V29.9703ZM11.0119 27.0536L11.1783 27.1644L11.5823 26.5578L11.4158 26.4469L11.2493 26.3361L10.8454 26.9427L11.0119 27.0536ZM11.4158 26.4469L11.5266 26.2804C11.3741 26.1789 11.195 26.1248 11.0119 26.1248V26.3248V26.5248C11.1162 26.5248 11.2182 26.5556 11.305 26.6134L11.4158 26.4469ZM11.0119 26.3248V26.1248C10.8287 26.1248 10.6496 26.1789 10.4971 26.2804L10.6079 26.4469L10.7187 26.6134C10.8056 26.5556 10.9075 26.5248 11.0119 26.5248V26.3248ZM10.6079 26.4469L10.4414 26.5578L10.8454 27.1644L11.0119 27.0536L11.1783 26.9427L10.7744 26.3361L10.6079 26.4469ZM6.63686 29.9703V29.7703H5.90769V29.9703V30.1703H6.63686V29.9703ZM5.90769 29.9703L5.7077 29.9704C5.70778 30.1384 5.75345 30.3033 5.83985 30.4475L6.0114 30.3447L6.18296 30.2419C6.13376 30.1598 6.10774 30.0659 6.1077 29.9701L5.90769 29.9703ZM6.0114 30.3447L5.83985 30.4475C5.92624 30.5917 6.05012 30.7097 6.19829 30.789L6.29269 30.6127L6.38709 30.4364C6.30271 30.3912 6.23216 30.324 6.18296 30.2419L6.0114 30.3447ZM6.29269 30.6127L6.19829 30.789C6.34647 30.8684 6.51338 30.906 6.68126 30.898L6.6717 30.6982L6.66215 30.4984C6.56654 30.503 6.47148 30.4816 6.38709 30.4364L6.29269 30.6127ZM6.6717 30.6982L6.68126 30.898C6.84914 30.89 7.0117 30.8365 7.15162 30.7434L7.04082 30.5769L6.93002 30.4104C6.85033 30.4634 6.75776 30.4939 6.66215 30.4984L6.6717 30.6982ZM7.04082 30.5769L7.20729 30.4661L6.80333 29.8594L6.63686 29.9703L6.47039 30.0811L6.87435 30.6878L7.04082 30.5769ZM15.7908 29.3636L15.9018 29.1972L11.5268 26.2805L11.4158 26.4469L11.3049 26.6133L15.6799 29.53L15.7908 29.3636ZM11.4158 26.4469L11.2493 26.3361L10.4414 27.5494L10.6079 27.6603L10.7744 27.7711L11.5823 26.5578L11.4158 26.4469ZM10.6079 27.6603L10.497 27.8267L14.872 30.7433L14.9829 30.5769L15.0938 30.4105L10.7188 27.4938L10.6079 27.6603ZM14.9829 30.5769L15.1494 30.6878L15.9573 29.4744L15.7908 29.3636L15.6243 29.2527L14.8164 30.4661L14.9829 30.5769ZM10.6079 26.4469L10.497 26.2805L6.12196 29.1972L6.2329 29.3636L6.34384 29.53L10.7188 26.6133L10.6079 26.4469ZM6.2329 29.3636L6.06643 29.4744L6.87435 30.6878L7.04082 30.5769L7.20729 30.4661L6.39937 29.2527L6.2329 29.3636ZM7.04082 30.5769L7.15176 30.7433L11.5268 27.8267L11.4158 27.6603L11.3049 27.4938L6.92988 30.4105L7.04082 30.5769ZM11.4158 27.6603L11.5823 27.5494L10.7744 26.3361L10.6079 26.4469L10.4414 26.5578L11.2493 27.7711L11.4158 27.6603ZM12.6787 2.42817L12.5256 2.55681L12.5868 2.62973L12.74 2.50109L12.8931 2.37245L12.8319 2.29953L12.6787 2.42817ZM13.8498 1.55609L14.0029 1.42745L13.9417 1.35453L13.7885 1.48317L13.6354 1.61181L13.6966 1.68473L13.8498 1.55609ZM15.8083 3.77276L15.8267 3.97191L15.9215 3.96316L15.9031 3.76401L15.8847 3.56485L15.7899 3.5736L15.8083 3.77276ZM15.9031 3.76401L16.1025 3.74799L15.9858 2.29549L15.7864 2.31151L15.5871 2.32752L15.7038 3.78002L15.9031 3.76401ZM15.7864 2.31151L15.7711 2.11209L15.6763 2.11939L15.6917 2.3188L15.707 2.51821L15.8018 2.51092L15.7864 2.31151ZM18.2583 6.12067L18.0587 6.10839L18.0529 6.20318L18.2525 6.21546L18.4521 6.22775L18.4579 6.13296L18.2583 6.12067ZM19.705 6.33213L19.9044 6.34747L19.9117 6.25268L19.7123 6.23734L19.5129 6.222L19.5056 6.31679L19.705 6.33213ZM19.5227 9.2838L19.3923 9.43544L19.4652 9.49814L19.5956 9.34651L19.726 9.19487L19.6531 9.13216L19.5227 9.2838ZM20.5406 8.23526L20.6693 8.08212L20.5963 8.02086L20.4677 8.17401L20.3391 8.32715L20.412 8.3884L20.5406 8.23526ZM19.5956 12.6788L19.467 12.5257L19.3941 12.5869L19.5227 12.74L19.6513 12.8932L19.7243 12.8319L19.5956 12.6788ZM19.5227 12.74L19.3704 12.8697L20.3154 13.9795L20.4677 13.8498L20.62 13.7202L19.675 12.6104L19.5227 12.74ZM20.4677 13.8498L20.5963 14.003L20.6692 13.9417L20.5406 13.7886L20.412 13.6354L20.3391 13.6967L20.4677 13.8498ZM18.2525 15.8084L18.0531 15.8237L18.0604 15.9185L18.2598 15.9032L18.4592 15.8878L18.4519 15.793L18.2525 15.8084ZM19.7123 15.7865L19.9117 15.7712L19.9044 15.6764L19.705 15.6917L19.5056 15.707L19.5129 15.8018L19.7123 15.7865ZM15.9046 18.2584L15.9197 18.059L15.8234 18.0517L15.8083 18.2511L15.7932 18.4505L15.8895 18.4578L15.9046 18.2584ZM15.8083 18.2511L15.609 18.2351L15.4923 19.6891L15.6917 19.705L15.891 19.721L16.0077 18.2671L15.8083 18.2511ZM15.6917 19.705L15.6763 19.9045L15.7711 19.9117L15.7864 19.7123L15.8018 19.5129L15.707 19.5056L15.6917 19.705ZM15.7864 19.7123L15.9858 19.7285L16.1039 18.2746L15.9046 18.2584L15.7052 18.2422L15.5871 19.6961L15.7864 19.7123ZM12.74 19.5228L12.5884 19.3923L12.5256 19.4653L12.6773 19.5957L12.8289 19.7261L12.8916 19.6532L12.74 19.5228ZM13.7885 20.5407L13.9417 20.6693L14.0029 20.5964L13.8498 20.4678L13.6966 20.3391L13.6354 20.412L13.7885 20.5407ZM9.34645 19.5957L9.49808 19.4653L9.43537 19.3923L9.28374 19.5228L9.1321 19.6532L9.19481 19.7261L9.34645 19.5957ZM9.28374 19.5228L9.15407 19.3705L8.04428 20.3155L8.17394 20.4678L8.30361 20.62L9.4134 19.675L9.28374 19.5228ZM8.17394 20.4678L8.0208 20.5964L8.08205 20.6693L8.23519 20.5407L8.38834 20.412L8.32709 20.3391L8.17394 20.4678ZM6.2154 18.2525L6.20006 18.0531L6.10527 18.0604L6.12061 18.2598L6.13595 18.4592L6.23074 18.452L6.2154 18.2525ZM6.12061 18.2598L5.92125 18.2759L6.03792 19.7283L6.23728 19.7123L6.43664 19.6963L6.31997 18.2438L6.12061 18.2598ZM6.23728 19.7123L6.25261 19.9117L6.34741 19.9045L6.33207 19.705L6.31673 19.5056L6.22194 19.5129L6.23728 19.7123ZM6.33207 19.705L6.53143 19.689L6.41476 18.2365L6.2154 18.2525L6.01605 18.2686L6.13271 19.7211L6.33207 19.705ZM3.7654 15.9046L3.96483 15.9197L3.97212 15.8235L3.77269 15.8084L3.57327 15.7933L3.56597 15.8895L3.7654 15.9046ZM2.31874 15.6917L2.11933 15.6764L2.11203 15.7712L2.31144 15.7865L2.51086 15.8018L2.51815 15.7071L2.31874 15.6917ZM2.31144 15.7865L2.29525 15.9858L3.74921 16.104L3.7654 15.9046L3.7816 15.7053L2.32764 15.5872L2.31144 15.7865ZM2.50103 12.74L2.63144 12.5884L2.55852 12.5257L2.42811 12.6773L2.2977 12.829L2.37062 12.8917L2.50103 12.74ZM1.48311 13.7886L1.35447 13.9417L1.42739 14.003L1.55603 13.8498L1.68467 13.6967L1.61175 13.6354L1.48311 13.7886ZM2.42811 9.34651L2.55852 9.49814L2.63143 9.43544L2.50103 9.2838L2.37062 9.13216L2.2977 9.19487L2.42811 9.34651ZM1.55603 8.17401L1.42739 8.02087L1.35447 8.08212L1.48311 8.23526L1.61175 8.3884L1.68467 8.32714L1.55603 8.17401ZM3.77269 6.21546L3.97185 6.19708L3.9631 6.10229L3.76395 6.12067L3.56479 6.13905L3.57354 6.23385L3.77269 6.21546ZM2.31144 6.23734L2.11203 6.25268L2.11933 6.34747L2.31874 6.33213L2.51815 6.31679L2.51086 6.222L2.31144 6.23734ZM6.12061 3.76546L6.10527 3.96488L6.20007 3.97217L6.2154 3.77276L6.23074 3.57334L6.13595 3.56605L6.12061 3.76546ZM6.33207 2.3188L6.34741 2.11939L6.25262 2.11209L6.23728 2.31151L6.22194 2.51092L6.31673 2.51821L6.33207 2.3188ZM6.23728 2.31151L6.03792 2.29551L5.92125 3.74947L6.12061 3.76546L6.31997 3.78146L6.43664 2.3275L6.23728 2.31151ZM9.2852 2.50109L9.43985 2.62791L9.49964 2.55499L9.34499 2.42817L9.19033 2.30136L9.13054 2.37427L9.2852 2.50109ZM8.23519 1.48317L8.08205 1.35453L8.0208 1.42745L8.17394 1.55609L8.32709 1.68473L8.38834 1.61181L8.23519 1.48317ZM6.2154 3.77276L6.19934 3.97211C6.80677 4.02106 7.41713 3.92497 7.98013 3.69174L7.90359 3.50697L7.82705 3.3222C7.3226 3.53116 6.77572 3.61726 6.23147 3.5734L6.2154 3.77276ZM7.90359 3.50697L7.98013 3.69174C8.54314 3.45852 9.04266 3.09484 9.43753 2.63068L9.2852 2.50109L9.13286 2.3715C8.77906 2.78738 8.3315 3.11323 7.82705 3.3222L7.90359 3.50697ZM8.17394 1.55609L8.02163 1.42647C7.81754 1.6663 7.55938 1.85419 7.26842 1.97467L7.34494 2.15946L7.42146 2.34424C7.77097 2.19951 8.08109 1.9738 8.32626 1.68571L8.17394 1.55609ZM7.34494 2.15946L7.26842 1.97467C6.97747 2.09516 6.66205 2.14478 6.34816 2.11945L6.33207 2.3188L6.31598 2.51815C6.69305 2.54858 7.07195 2.48897 7.42146 2.34424L7.34494 2.15946ZM3.76395 6.12067L3.9633 6.10458C3.94019 5.81836 3.98078 5.52989 4.08024 5.25918L3.89251 5.19021L3.70479 5.12123C3.58578 5.44512 3.53672 5.79158 3.56459 6.13677L3.76395 6.12067ZM3.89251 5.19021L4.08024 5.25918C4.17949 4.98907 4.33621 4.74373 4.53956 4.54012L4.39805 4.39879L4.25655 4.25745C4.01226 4.50204 3.824 4.79676 3.70479 5.12123L3.89251 5.19021ZM4.39805 4.39879L4.53956 4.54012C4.74292 4.33651 4.98807 4.17949 5.25806 4.07991L5.18885 3.89227L5.11964 3.70463C4.79531 3.82425 4.50083 4.01287 4.25655 4.25745L4.39805 4.39879ZM5.18885 3.89227L5.25806 4.07991C5.52805 3.98033 5.81644 3.94057 6.10331 3.96338L6.11915 3.76401L6.135 3.56464C5.79041 3.53724 5.44397 3.58501 5.11964 3.70463L5.18885 3.89227ZM6.11915 3.76401L6.3185 3.78022L6.43662 2.32772L6.23728 2.31151L6.03794 2.29529L5.91981 3.74779L6.11915 3.76401ZM6.23728 2.31151L6.25328 2.11215C5.69819 2.06759 5.13853 2.14412 4.61582 2.33649L4.6849 2.52419L4.75398 2.71188C5.22223 2.53954 5.72382 2.47094 6.22128 2.51086L6.23728 2.31151ZM4.6849 2.52419L4.61582 2.33649C4.09317 2.52885 3.61853 2.83243 3.22472 3.22624L3.36614 3.36766L3.50756 3.50908C3.86041 3.15623 4.28568 2.88423 4.75398 2.71188L4.6849 2.52419ZM3.36614 3.36766L3.22472 3.22624C2.83091 3.62005 2.52733 4.09469 2.33497 4.61734L2.52267 4.68642L2.71036 4.7555C2.88271 4.2872 3.15471 3.86193 3.50756 3.50908L3.36614 3.36766ZM2.52267 4.68642L2.33497 4.61734C2.14249 5.14035 2.06756 5.69857 2.11209 6.25334L2.31144 6.23734L2.5108 6.22134C2.47085 5.72356 2.53814 5.22344 2.71036 4.7555L2.52267 4.68642ZM2.50103 9.2838L2.63062 9.43613C3.09462 9.04139 3.45838 8.54339 3.69168 7.9802L3.50691 7.90365L3.32214 7.82711C3.11325 8.33137 2.78747 8.77753 2.37143 9.13146L2.50103 9.2838ZM3.50691 7.90365L3.69168 7.9802C3.92491 7.41719 4.021 6.80683 3.97205 6.1994L3.77269 6.21546L3.57334 6.23153C3.6172 6.77578 3.5311 7.32266 3.32214 7.82711L3.50691 7.90365ZM2.31874 6.33213L2.11938 6.34822C2.14472 6.66211 2.0951 6.97753 1.97461 7.26849L2.1594 7.345L2.34418 7.42152C2.48891 7.07201 2.54852 6.69311 2.51809 6.31604L2.31874 6.33213ZM2.1594 7.345L1.97461 7.26849C1.85413 7.55944 1.66624 7.8176 1.42641 8.02169L1.55603 8.17401L1.68565 8.32632C1.97374 8.08115 2.19945 7.77103 2.34418 7.42152L2.1594 7.345ZM2.42811 12.6773L2.55778 12.5251C2.33869 12.3385 2.16273 12.1066 2.04206 11.8453L1.86049 11.9292L1.67892 12.013C1.82388 12.3269 2.03525 12.6055 2.29844 12.8296L2.42811 12.6773ZM1.86049 11.9292L2.04206 11.8453C1.92139 11.584 1.8589 11.2997 1.8589 11.0119H1.6589H1.4589C1.4589 11.3576 1.53397 11.6992 1.67892 12.013L1.86049 11.9292ZM1.6589 11.0119H1.8589C1.8589 10.7241 1.92139 10.4398 2.04206 10.1785L1.86049 10.0947L1.67892 10.0108C1.53397 10.3247 1.4589 10.6662 1.4589 11.0119H1.6589ZM1.86049 10.0947L2.04206 10.1785C2.16273 9.91729 2.33869 9.68535 2.55778 9.49877L2.42811 9.34651L2.29844 9.19424C2.03525 9.41837 1.82388 9.69699 1.67892 10.0108L1.86049 10.0947ZM1.48311 8.23526L1.3535 8.08294C0.929202 8.44397 0.588408 8.89289 0.3547 9.39861L0.536252 9.48251L0.717803 9.56641C0.927203 9.11329 1.23255 8.71106 1.61272 8.38758L1.48311 8.23526ZM0.536252 9.48251L0.3547 9.39861C0.120992 9.90434 -4.88311e-05 10.4548 -4.88311e-05 11.0119H0.199951H0.399951C0.399951 10.5128 0.508403 10.0195 0.717803 9.56641L0.536252 9.48251ZM0.199951 11.0119H-4.88311e-05C-4.88311e-05 11.569 0.120992 12.1195 0.3547 12.6252L0.536252 12.5413L0.717803 12.4574C0.508403 12.0043 0.399951 11.5111 0.399951 11.0119H0.199951ZM0.536252 12.5413L0.3547 12.6252C0.588408 13.131 0.929202 13.5799 1.3535 13.9409L1.48311 13.7886L1.61272 13.6363C1.23255 13.3128 0.927203 12.9106 0.717803 12.4574L0.536252 12.5413ZM3.77269 15.8084L3.97205 15.8244C4.02076 15.2172 3.92454 14.6071 3.69133 14.0444L3.50657 14.121L3.32181 14.1976C3.53076 14.7018 3.61697 15.2484 3.57333 15.7924L3.77269 15.8084ZM3.50657 14.121L3.69133 14.0444C3.45811 13.4817 3.09457 12.9824 2.63063 12.5877L2.50103 12.74L2.37143 12.8924C2.78711 13.246 3.11285 13.6934 3.32181 14.1976L3.50657 14.121ZM1.55603 13.8498L1.42641 14.0022C1.66624 14.2062 1.85413 14.4644 1.97461 14.7554L2.1594 14.6788L2.34418 14.6023C2.19945 14.2528 1.97374 13.9427 1.68565 13.6975L1.55603 13.8498ZM2.1594 14.6788L1.97461 14.7554C2.0951 15.0463 2.14472 15.3617 2.11938 15.6756L2.31874 15.6917L2.51809 15.7078C2.54852 15.3307 2.48891 14.9518 2.34418 14.6023L2.1594 14.6788ZM6.12061 18.2584L6.10451 18.059C5.81755 18.0822 5.52898 18.0428 5.25877 17.9435L5.18977 18.1312L5.12077 18.3189C5.44537 18.4382 5.79201 18.4856 6.13672 18.4577L6.12061 18.2584ZM5.18977 18.1312L5.25877 17.9435C4.98855 17.8441 4.74314 17.6873 4.53951 17.4838L4.39813 17.6253L4.25675 17.7667C4.50137 18.0112 4.79617 18.1996 5.12077 18.3189L5.18977 18.1312ZM4.39813 17.6253L4.53951 17.4838C4.33588 17.2803 4.17889 17.035 4.0794 16.7648L3.89172 16.8339L3.70404 16.9031C3.82355 17.2276 4.01214 17.5223 4.25675 17.7667L4.39813 17.6253ZM3.89172 16.8339L4.0794 16.7648C3.97991 16.4947 3.9403 16.2061 3.96331 15.9192L3.76395 15.9032L3.56458 15.8872C3.53695 16.2319 3.58453 16.5785 3.70404 16.9031L3.89172 16.8339ZM3.76395 15.9032L3.77996 15.7038L2.32746 15.5871L2.31144 15.7865L2.29543 15.9859L3.74793 16.1025L3.76395 15.9032ZM2.31144 15.7865L2.11209 15.7704C2.0673 16.3257 2.14367 16.8841 2.33592 17.4069L2.52363 17.3379L2.71135 17.2689C2.53909 16.8004 2.47066 16.3001 2.5108 15.8026L2.31144 15.7865ZM2.52363 17.3379L2.33592 17.4069C2.52817 17.9298 2.83172 18.4046 3.22555 18.7986L3.367 18.6572L3.50845 18.5158C3.15558 18.1628 2.8836 17.7373 2.71135 17.2689L2.52363 17.3379ZM3.367 18.6572L3.22555 18.7986C3.61939 19.1926 4.09411 19.4963 4.61689 19.6887L4.68598 19.501L4.75507 19.3133C4.28667 19.1409 3.86132 18.8688 3.50845 18.5158L3.367 18.6572ZM4.68598 19.501L4.61689 19.6887C5.13966 19.8812 5.698 19.9577 6.25329 19.9132L6.23728 19.7138L6.22127 19.5144C5.72374 19.5544 5.22347 19.4858 4.75507 19.3133L4.68598 19.501ZM6.23728 19.7138L6.43664 19.6978L6.31997 18.2424L6.12061 18.2584L5.92125 18.2744L6.03792 19.7298L6.23728 19.7138ZM12.6773 19.5957L12.525 19.466C12.3384 19.6851 12.1065 19.8611 11.8452 19.9817L11.9291 20.1633L12.013 20.3449C12.3268 20.1999 12.6054 19.9885 12.8295 19.7253L12.6773 19.5957ZM11.9291 20.1633L11.8452 19.9817C11.584 20.1024 11.2996 20.1649 11.0119 20.1649V20.3649V20.5649C11.3576 20.5649 11.6991 20.4898 12.013 20.3449L11.9291 20.1633ZM11.0119 20.3649V20.1649C10.7241 20.1649 10.4397 20.1024 10.1785 19.9817L10.0946 20.1633L10.0108 20.3449C10.3246 20.4898 10.6662 20.5649 11.0119 20.5649V20.3649ZM10.0946 20.1633L10.1785 19.9817C9.91723 19.8611 9.68529 19.6851 9.49871 19.466L9.34645 19.5957L9.19418 19.7253C9.41831 19.9885 9.69693 20.1999 10.0108 20.3449L10.0946 20.1633ZM8.23519 20.5407L8.08287 20.6703C8.44391 21.0946 8.89283 21.4354 9.39855 21.6691L9.48245 21.4875L9.56635 21.306C9.11322 21.0966 8.711 20.7912 8.38751 20.4111L8.23519 20.5407ZM9.48245 21.4875L9.39855 21.6691C9.90428 21.9028 10.4547 22.0238 11.0119 22.0238V21.8238V21.6238C10.5127 21.6238 10.0195 21.5154 9.56635 21.306L9.48245 21.4875ZM11.0119 21.8238V22.0238C11.569 22.0238 12.1194 21.9028 12.6252 21.6691L12.5413 21.4875L12.4574 21.306C12.0042 21.5154 11.511 21.6238 11.0119 21.6238V21.8238ZM12.5413 21.4875L12.6252 21.6691C13.1309 21.4354 13.5798 21.0946 13.9408 20.6703L13.7885 20.5407L13.6362 20.4111C13.3127 20.7912 12.9105 21.0966 12.4574 21.306L12.5413 21.4875ZM18.2598 15.9032L18.0604 15.9193C18.0836 16.2064 18.0442 16.4951 17.9448 16.7654L18.1325 16.8344L18.3202 16.9034C18.4396 16.5787 18.487 16.2319 18.4591 15.8871L18.2598 15.9032ZM18.1325 16.8344L17.9448 16.7654C17.8454 17.0357 17.6884 17.2812 17.4848 17.4848L17.6262 17.6262L17.7676 17.7677C18.0123 17.523 18.2008 17.2281 18.3202 16.9034L18.1325 16.8344ZM17.6262 17.6262L17.4848 17.4848C17.2811 17.6885 17.0356 17.8454 16.7653 17.9448L16.8343 18.1326L16.9034 18.3203C17.2281 18.2009 17.523 18.0123 17.7676 17.7677L17.6262 17.6262ZM16.8343 18.1326L16.7653 17.9448C16.495 18.0442 16.2063 18.0837 15.9192 18.0605L15.9031 18.2598L15.887 18.4592C16.2318 18.4871 16.5786 18.4397 16.9034 18.3203L16.8343 18.1326ZM15.9031 18.2598L15.7038 18.2438L15.5871 19.6963L15.7864 19.7123L15.9858 19.7283L16.1025 18.2759L15.9031 18.2598ZM15.7864 19.7123L15.7704 19.9117C16.3256 19.9565 16.884 19.8801 17.4068 19.6879L17.3378 19.5001L17.2688 19.3124C16.8003 19.4847 16.3 19.5531 15.8025 19.513L15.7864 19.7123ZM17.3378 19.5001L17.4068 19.6879C17.9297 19.4956 18.4045 19.1921 18.7985 18.7982L18.6571 18.6568L18.5157 18.5153C18.1627 18.8682 17.7373 19.1402 17.2688 19.3124L17.3378 19.5001ZM18.6571 18.6568L18.7985 18.7982C19.1925 18.4044 19.4962 17.9297 19.6887 17.4069L19.501 17.3378L19.3133 17.2687C19.1409 17.7371 18.8687 18.1625 18.5157 18.5153L18.6571 18.6568ZM19.501 17.3378L19.6887 17.4069C19.8812 16.8838 19.9562 16.3254 19.9116 15.7705L19.7123 15.7865L19.5129 15.8025C19.5529 16.3004 19.4856 16.8007 19.3133 17.2687L19.501 17.3378ZM19.5227 12.7386L19.393 12.5863C18.9291 12.9813 18.5658 13.4809 18.3328 14.0439L18.5176 14.1204L18.7024 14.1969C18.9111 13.6924 19.2367 13.2448 19.6524 12.8909L19.5227 12.7386ZM18.5176 14.1204L18.3328 14.0439C18.0999 14.6069 18.004 15.2172 18.0531 15.8245L18.2525 15.8084L18.4518 15.7922C18.4078 15.2481 18.4937 14.7013 18.7024 14.1969L18.5176 14.1204ZM19.705 15.6917L19.9043 15.6756C19.879 15.3617 19.9286 15.0463 20.0491 14.7554L19.8643 14.6788L19.6795 14.6023C19.5348 14.9518 19.4752 15.3307 19.5056 15.7078L19.705 15.6917ZM19.8643 14.6788L20.0491 14.7554C20.1696 14.4644 20.3575 14.2062 20.5973 14.0022L20.4677 13.8498L20.3381 13.6975C20.05 13.9427 19.8243 14.2528 19.6795 14.6023L19.8643 14.6788ZM20.4677 13.8498L20.6201 13.7203L19.6751 12.609L19.5227 12.7386L19.3703 12.8682L20.3153 13.9794L20.4677 13.8498ZM19.5956 9.34651L19.4659 9.49877C19.685 9.68535 19.861 9.91729 19.9817 10.1785L20.1632 10.0947L20.3448 10.0108C20.1998 9.69699 19.9885 9.41837 19.7253 9.19424L19.5956 9.34651ZM20.1632 10.0947L19.9817 10.1785C20.1023 10.4398 20.1648 10.7241 20.1648 11.0119H20.3648H20.5648C20.5648 10.6662 20.4898 10.3247 20.3448 10.0108L20.1632 10.0947ZM20.3648 11.0119H20.1648C20.1648 11.2997 20.1023 11.584 19.9817 11.8453L20.1632 11.9292L20.3448 12.013C20.4898 11.6992 20.5648 11.3576 20.5648 11.0119H20.3648ZM20.1632 11.9292L19.9817 11.8453C19.8608 12.1069 19.6847 12.3402 19.4659 12.5265L19.5956 12.6788L19.7253 12.8311C19.9888 12.6067 20.2 12.3265 20.3448 12.013L20.1632 11.9292ZM20.5406 13.7886L20.6702 13.9409C21.0945 13.5799 21.4353 13.131 21.669 12.6252L21.4875 12.5413L21.3059 12.4574C21.0965 12.9106 20.7912 13.3128 20.411 13.6363L20.5406 13.7886ZM21.4875 12.5413L21.669 12.6252C21.9027 12.1195 22.0238 11.569 22.0238 11.0119H21.8238H21.6238C21.6238 11.5111 21.5153 12.0043 21.3059 12.4574L21.4875 12.5413ZM21.8238 11.0119H22.0238C22.0238 10.4548 21.9027 9.90434 21.669 9.39861L21.4875 9.48251L21.3059 9.56641C21.5153 10.0195 21.6238 10.5128 21.6238 11.0119H21.8238ZM21.4875 9.48251L21.669 9.39861C21.4353 8.89289 21.0945 8.44397 20.6702 8.08294L20.5406 8.23526L20.411 8.38758C20.7912 8.71106 21.0965 9.11329 21.3059 9.56641L21.4875 9.48251ZM18.2525 6.21546L18.0531 6.19941C18.0042 6.80646 18.1002 7.41644 18.3332 7.97915L18.518 7.90265L18.7027 7.82615C18.494 7.32197 18.408 6.77543 18.4518 6.23152L18.2525 6.21546ZM18.518 7.90265L18.3332 7.97915C18.5661 8.54185 18.9294 9.04119 19.393 9.43606L19.5227 9.2838L19.6524 9.13153C19.2369 8.77773 18.9115 8.33033 18.7027 7.82615L18.518 7.90265ZM20.4677 8.17401L20.5973 8.02169C20.3575 7.8176 20.1696 7.55944 20.0491 7.26849L19.8643 7.345L19.6795 7.42152C19.8243 7.77103 20.05 8.08115 20.3381 8.32632L20.4677 8.17401ZM19.8643 7.345L20.0491 7.26849C19.9286 6.97753 19.879 6.66211 19.9043 6.34822L19.705 6.33213L19.5056 6.31604C19.4752 6.69311 19.5348 7.07201 19.6795 7.42152L19.8643 7.345ZM15.9046 3.76546L15.9205 3.96483C16.2074 3.94184 16.4958 3.98143 16.7659 4.08084L16.835 3.89315L16.904 3.70547C16.5796 3.58605 16.2332 3.5385 15.8886 3.5661L15.9046 3.76546ZM16.835 3.89315L16.7659 4.08084C17.0359 4.18025 17.2812 4.33712 17.4846 4.5406L17.6261 4.39918L17.7675 4.25776C17.523 4.01332 17.2284 3.82488 16.904 3.70547L16.835 3.89315ZM17.6261 4.39918L17.4846 4.5406C17.6881 4.74409 17.845 4.98933 17.9444 5.25938L18.1321 5.19029L18.3198 5.1212C18.2004 4.7968 18.0119 4.5022 17.7675 4.25776L17.6261 4.39918ZM18.1321 5.19029L17.9444 5.25938C18.0436 5.52885 18.082 5.81722 18.059 6.1047L18.2583 6.12067L18.4577 6.13664C18.4852 5.79269 18.4394 5.44618 18.3198 5.1212L18.1321 5.19029ZM19.7123 6.23734L19.9116 6.25335C19.9562 5.69844 19.8812 5.14007 19.6887 4.61695L19.501 4.68604L19.3133 4.75513C19.4856 5.22318 19.5529 5.72343 19.5129 6.22133L19.7123 6.23734ZM19.501 4.68604L19.6887 4.61695C19.4962 4.09417 19.1925 3.61945 18.7985 3.22561L18.6571 3.36706L18.5157 3.50851C18.8687 3.86138 19.1409 4.28673 19.3133 4.75513L19.501 4.68604ZM18.6571 3.36706L18.7985 3.22561C18.4045 2.83178 17.9297 2.52824 17.4068 2.33598L17.3378 2.5237L17.2688 2.71141C17.7373 2.88366 18.1627 3.15564 18.5157 3.50851L18.6571 3.36706ZM17.3378 2.5237L17.4068 2.33598C16.884 2.14373 16.3256 2.06736 15.7704 2.11215L15.7864 2.31151L15.8025 2.51086C16.3 2.47072 16.8003 2.53915 17.2688 2.71141L17.3378 2.5237ZM15.7864 2.31151L15.5871 2.3277L15.7052 3.78166L15.9046 3.76546L16.1039 3.74927L15.9858 2.29531L15.7864 2.31151ZM12.74 2.50109L12.5877 2.63069C12.9824 3.09463 13.4816 3.45817 14.0444 3.69139L14.1209 3.50663L14.1975 3.32187C13.6933 3.11291 13.246 2.78717 12.8923 2.37149L12.74 2.50109ZM14.1209 3.50663L14.0444 3.69139C14.6071 3.9246 15.2171 4.02082 15.8243 3.97212L15.8083 3.77276L15.7923 3.5734C15.2483 3.61703 14.7017 3.53083 14.1975 3.32187L14.1209 3.50663ZM15.6917 2.3188L15.6756 2.11945C15.3617 2.14478 15.0463 2.09516 14.7553 1.97467L14.6788 2.15946L14.6023 2.34424C14.9518 2.48897 15.3307 2.54858 15.7077 2.51815L15.6917 2.3188ZM14.6788 2.15946L14.7553 1.97467C14.4643 1.85419 14.2062 1.6663 14.0021 1.42647L13.8498 1.55609L13.6975 1.68571C13.9426 1.9738 14.2528 2.19951 14.6023 2.34424L14.6788 2.15946ZM13.7885 1.48317L13.9408 1.35356C13.5798 0.929263 13.1309 0.588469 12.6252 0.354762L12.5413 0.536313L12.4574 0.717865C12.9105 0.927265 13.3127 1.23261 13.6362 1.61278L13.7885 1.48317ZM12.5413 0.536313L12.6252 0.354762C12.1194 0.121054 11.569 1.22041e-05 11.0119 1.22041e-05V0.200012V0.400012C11.511 0.400012 12.0042 0.508464 12.4574 0.717865L12.5413 0.536313ZM11.0119 0.200012V1.22041e-05C10.4547 1.22041e-05 9.90428 0.121054 9.39855 0.354762L9.48245 0.536313L9.56635 0.717865C10.0195 0.508464 10.5127 0.400012 11.0119 0.400012V0.200012ZM9.48245 0.536313L9.39855 0.354762C8.89283 0.588469 8.44391 0.929263 8.08287 1.35356L8.23519 1.48317L8.38751 1.61278C8.711 1.23261 9.11322 0.927265 9.56635 0.717865L9.48245 0.536313ZM9.34499 2.42817L9.49725 2.55784C9.68359 2.33904 9.91688 2.16295 10.1785 2.04212L10.0946 1.86055L10.0108 1.67898C9.69728 1.82378 9.4171 2.03502 9.19272 2.2985L9.34499 2.42817ZM10.0946 1.86055L10.1785 2.04212C10.4397 1.92146 10.7241 1.85896 11.0119 1.85896V1.65896V1.45896C10.6662 1.45896 10.3246 1.53403 10.0108 1.67898L10.0946 1.86055ZM11.0119 1.65896V1.85896C11.2996 1.85896 11.584 1.92146 11.8452 2.04212L11.9291 1.86055L12.013 1.67898C11.6991 1.53403 11.3576 1.45896 11.0119 1.45896V1.65896ZM11.9291 1.86055L11.8452 2.04212C12.1068 2.16295 12.3401 2.33904 12.5265 2.55784L12.6787 2.42817L12.831 2.2985C12.6066 2.03502 12.3264 1.82378 12.013 1.67898L11.9291 1.86055ZM9.2852 19.5228L9.43748 19.3931C9.09487 18.9907 8.67298 18.6632 8.19815 18.431L8.11031 18.6107L8.02247 18.7904C8.44792 18.9984 8.82593 19.2918 9.13291 19.6524L9.2852 19.5228ZM8.11031 18.6107L8.19815 18.431C7.72366 18.1991 7.20612 18.0657 6.67771 18.0425L6.66895 18.2423L6.66018 18.4421C7.1329 18.4629 7.59668 18.5822 8.02247 18.7904L8.11031 18.6107ZM6.60478 19.7007L6.59598 19.9005C6.86875 19.9125 7.13612 19.9806 7.38141 20.1005L7.46924 19.9208L7.55708 19.7411C7.26242 19.5971 6.94124 19.5153 6.61358 19.5009L6.60478 19.7007ZM7.46924 19.9208L7.38141 20.1005C7.6267 20.2204 7.84465 20.3896 8.02168 20.5974L8.17394 20.4678L8.32621 20.3381C8.11356 20.0884 7.85174 19.8852 7.55708 19.7411L7.46924 19.9208ZM8.17394 20.4678L8.30351 20.6201L9.41476 19.6751L9.2852 19.5228L9.15563 19.3704L8.04438 20.3154L8.17394 20.4678ZM6.66895 18.2423L6.6761 18.0425C6.51676 18.0368 6.35834 18.0409 6.20183 18.0515L6.2154 18.2511L6.22898 18.4506C6.37438 18.4407 6.51872 18.4371 6.66179 18.4422L6.66895 18.2423ZM6.2154 18.2511L6.01604 18.2671L6.13271 19.721L6.33207 19.705L6.53143 19.6891L6.41476 18.2351L6.2154 18.2511ZM6.33207 19.705L6.34903 19.9043C6.43133 19.8973 6.51297 19.896 6.59404 19.9004L6.60478 19.7007L6.61551 19.501C6.51575 19.4956 6.41559 19.4972 6.31511 19.5058L6.33207 19.705ZM7.36603 29.9703H7.56603V18.9715H7.36603H7.16603V29.9703H7.36603ZM7.36603 18.9715V18.7715H5.90769V18.9715V19.1715H7.36603V18.9715ZM5.90769 18.9715H5.7077V29.9703H5.90769H6.1077V18.9715H5.90769ZM5.90769 29.9703V30.1703H7.36603V29.9703V29.7703H5.90769V29.9703ZM15.8098 18.2511L15.8234 18.0515C15.665 18.0408 15.5062 18.0382 15.3476 18.0439L15.3548 18.2438L15.362 18.4437C15.5067 18.4385 15.6517 18.4408 15.7962 18.4506L15.8098 18.2511ZM15.4189 19.7007L15.4297 19.9004C15.5107 19.896 15.5924 19.8973 15.6747 19.9043L15.6917 19.705L15.7086 19.5058C15.6081 19.4972 15.508 19.4956 15.4082 19.501L15.4189 19.7007ZM15.6917 19.705L15.891 19.7212L16.0091 18.2673L15.8098 18.2511L15.6104 18.2349L15.4923 19.6889L15.6917 19.705ZM15.3548 18.2438L15.3459 18.044C14.8182 18.0674 14.3009 18.1992 13.8263 18.4313L13.9142 18.611L14.0021 18.7907C14.4273 18.5827 14.8908 18.4645 15.3636 18.4436L15.3548 18.2438ZM13.9142 18.611L13.8263 18.4313C13.3518 18.6635 12.9301 18.9909 12.5877 19.3931L12.74 19.5228L12.8923 19.6524C13.1991 19.292 13.5769 18.9986 14.0021 18.7907L13.9142 18.611ZM13.8498 20.4678L14.002 20.5974C14.1791 20.3896 14.397 20.2204 14.6423 20.1005L14.5545 19.9208L14.4666 19.7411C14.172 19.8852 13.9102 20.0884 13.6975 20.3381L13.8498 20.4678ZM14.5545 19.9208L14.6423 20.1005C14.8876 19.9806 15.155 19.9125 15.4277 19.9005L15.4189 19.7007L15.4101 19.5009C15.0825 19.5153 14.7613 19.5971 14.4666 19.7411L14.5545 19.9208ZM14.6577 18.973H14.4577V29.9703H14.6577H14.8577V18.973H14.6577ZM14.6577 29.9703V30.1703H16.116V29.9703V29.7703H14.6577V29.9703ZM16.116 29.9703H16.316V18.9715H16.116H15.916V29.9703H16.116ZM16.116 18.9715L16.1158 18.7715L14.6575 18.773L14.6577 18.973L14.6579 19.173L16.1162 19.1715L16.116 18.9715Z" fill="#FFBA0A" mask="url(#path-1-outside-1_1227_11034)"/>
</svg>
