<svg width="24" height="33" viewBox="0 0 24 33" fill="none" xmlns="http://www.w3.org/2000/svg">
<path d="M16.1869 30.7702L15.783 31.3769C15.8928 31.45 16.0203 31.4919 16.1521 31.4982C16.2838 31.5045 16.4148 31.475 16.5311 31.4127C16.6474 31.3504 16.7446 31.2578 16.8124 31.1447C16.8802 31.0315 16.916 30.9021 16.9161 30.7702H16.1869ZM11.8119 27.8536L12.2159 27.2469C12.0962 27.1673 11.9557 27.1248 11.8119 27.1248C11.6682 27.1248 11.5276 27.1673 11.408 27.2469L11.8119 27.8536ZM7.43691 30.7702H6.70774C6.70781 30.9021 6.74365 31.0315 6.81145 31.1447C6.87925 31.2578 6.97646 31.3504 7.09274 31.4127C7.20902 31.475 7.34001 31.5045 7.47175 31.4982C7.6035 31.4919 7.73106 31.45 7.84087 31.3769L7.43691 30.7702ZM16.5909 30.1636L12.2159 27.2469L11.408 28.4602L15.783 31.3769L16.5909 30.1636ZM11.408 27.2469L7.03295 30.1636L7.84087 31.3769L12.2159 28.4602L11.408 27.2469ZM13.4788 3.22816L13.54 3.30108L14.6498 2.35608L14.5886 2.28316L13.4788 3.22816ZM16.6084 4.57274L16.7032 4.56399L16.5865 3.11149L16.4917 3.11879L16.6084 4.57274ZM19.0584 6.92066L19.0525 7.01545L20.505 7.13212L20.5123 7.03733L19.0584 6.92066ZM20.3227 10.0838L20.3957 10.1465L21.3407 9.03524L21.2677 8.97399L20.3227 10.0838ZM20.3957 13.4788L20.3227 13.54L21.2677 14.6498L21.3407 14.5886L20.3957 13.4788ZM19.0525 16.6084L19.0598 16.7032L20.5123 16.5865L20.505 16.4917L19.0525 16.6084ZM16.7046 19.0584L16.6084 19.0511L16.4917 20.505L16.5865 20.5123L16.7046 19.0584ZM13.54 20.3227L13.4773 20.3957L14.5886 21.3407L14.6498 21.2677L13.54 20.3227ZM10.1465 20.3957L10.0838 20.3227L8.97399 21.2677L9.03524 21.3407L10.1465 20.3957ZM7.01545 19.0525L6.92066 19.0598L7.03733 20.5123L7.13212 20.505L7.01545 19.0525ZM4.56545 16.7046L4.57274 16.6084L3.11879 16.4917L3.11149 16.5865L4.56545 16.7046ZM3.30108 13.54L3.22816 13.4773L2.28316 14.5886L2.35608 14.6498L3.30108 13.54ZM3.22816 10.1465L3.30108 10.0838L2.35608 8.97399L2.28316 9.03524L3.22816 10.1465ZM4.57274 7.01545L4.56399 6.92066L3.11149 7.03733L3.11879 7.13212L4.57274 7.01545ZM6.92066 4.56545L7.01545 4.57274L7.13212 3.11879L7.03733 3.11149L6.92066 4.56545ZM10.0852 3.30108L10.145 3.22816L9.03524 2.28316L8.97399 2.35608L10.0852 3.30108ZM7.01545 4.57274C7.59129 4.61915 8.16992 4.52805 8.70364 4.30696C9.23737 4.08586 9.71091 3.7411 10.0852 3.30108L8.97399 2.35608C8.74936 2.62004 8.46522 2.82684 8.14499 2.95945C7.82476 3.09205 7.4776 3.14667 7.13212 3.11879L7.01545 4.57274ZM4.56399 6.92066C4.5385 6.60496 4.58333 6.28749 4.69256 5.9902C4.80179 5.6929 4.97428 5.42287 5.1981 5.19878C5.42192 4.97468 5.69174 4.80186 5.9889 4.69226C6.28606 4.58266 6.60347 4.5389 6.9192 4.56399L7.03733 3.11149C6.51105 3.06925 5.98043 3.14182 5.48495 3.32417C4.98947 3.50653 4.53952 3.79432 4.16619 4.16765C3.79286 4.54098 3.50507 4.99093 3.32271 5.48641C3.14036 5.98188 3.06925 6.51105 3.11149 7.03733L4.56399 6.92066ZM3.30108 10.0838C3.7411 9.70945 4.08586 9.23736 4.30696 8.70364C4.52805 8.16992 4.61915 7.59129 4.57274 7.01545L3.11879 7.13212C3.14667 7.4776 3.09205 7.82476 2.95945 8.14499C2.82684 8.46522 2.62004 8.74936 2.35608 8.97399L3.30108 10.0838ZM3.22816 13.4773C2.98702 13.272 2.79335 13.0167 2.66054 12.7291C2.52773 12.4416 2.45895 12.1286 2.45895 11.8119C2.45895 11.4952 2.52773 11.1822 2.66054 10.8947C2.79335 10.6071 2.98702 10.3519 3.22816 10.1465L2.28316 9.03524C1.88093 9.37751 1.55785 9.80307 1.3363 10.2825C1.11475 10.7619 1 11.2838 1 11.8119C1 12.3401 1.11475 12.8619 1.3363 13.3413C1.55785 13.8207 1.88093 14.2463 2.28316 14.5886L3.22816 13.4773ZM4.57274 16.6084C4.61892 16.0328 4.5277 15.4544 4.30661 14.921C4.08553 14.3875 3.74089 13.9142 3.30108 13.54L2.35608 14.6498C2.62004 14.8745 2.82684 15.1586 2.95945 15.4788C3.09205 15.7991 3.14667 16.1462 3.11879 16.4917L4.57274 16.6084ZM6.92066 19.0584C6.60483 19.0839 6.28723 19.0405 5.98982 18.9312C5.69241 18.8219 5.4223 18.6492 5.19818 18.4252C4.97406 18.2013 4.80127 17.9313 4.69177 17.6339C4.58227 17.3366 4.53867 17.019 4.56399 16.7032L3.11149 16.5865C3.06903 17.1129 3.14143 17.6422 3.32368 18.1379C3.50594 18.6335 3.7937 19.0837 4.16705 19.4572C4.5404 19.8307 4.99044 20.1186 5.48603 20.301C5.98162 20.4835 6.51092 20.5561 7.03733 20.5138L6.92066 19.0584ZM13.4773 20.3957C13.272 20.6368 13.0167 20.8305 12.7291 20.9633C12.4416 21.0961 12.1286 21.1649 11.8119 21.1649C11.4952 21.1649 11.1822 21.0961 10.8947 20.9633C10.6071 20.8305 10.3519 20.6368 10.1465 20.3957L9.03524 21.3407C9.37751 21.7429 9.80307 22.066 10.2825 22.2875C10.7619 22.5091 11.2838 22.6238 11.8119 22.6238C12.3401 22.6238 12.8619 22.5091 13.3413 22.2875C13.8207 22.066 14.2463 21.7429 14.5886 21.3407L13.4773 20.3957ZM19.0598 16.7032C19.0854 17.0191 19.0419 17.3369 18.9325 17.6344C18.8231 17.9319 18.6504 18.2021 18.4262 18.4262C18.2021 18.6504 17.9319 18.8231 17.6344 18.9325C17.3369 19.0419 17.0191 19.0854 16.7032 19.0598L16.5865 20.5123C17.1129 20.5548 17.6422 20.4824 18.1379 20.3001C18.6335 20.1179 19.0837 19.8301 19.4572 19.4568C19.8307 19.0834 20.1186 18.6334 20.301 18.1378C20.4835 17.6422 20.5546 17.1129 20.5123 16.5865L19.0598 16.7032ZM20.3227 13.5386C19.883 13.9131 19.5385 14.3867 19.3177 14.9204C19.0968 15.4541 19.006 16.0326 19.0525 16.6084L20.505 16.4917C20.4772 16.1462 20.5318 15.7991 20.6644 15.4788C20.797 15.1586 21.0038 14.8745 21.2677 14.6498L20.3227 13.5386ZM20.3957 10.1465C20.6368 10.3519 20.8305 10.6071 20.9633 10.8947C21.0961 11.1822 21.1649 11.4952 21.1649 11.8119C21.1649 12.1286 21.0961 12.4416 20.9633 12.7291C20.8305 13.0167 20.6368 13.2734 20.3957 13.4788L21.3407 14.5886C21.7429 14.2463 22.066 13.8207 22.2875 13.3413C22.5091 12.8619 22.6238 12.3401 22.6238 11.8119C22.6238 11.2838 22.5091 10.7619 22.2875 10.2825C22.066 9.80307 21.7429 9.37751 21.3407 9.03524L20.3957 10.1465ZM19.0525 7.01545C19.0062 7.59093 19.0972 8.1692 19.318 8.70264C19.5388 9.23608 19.8832 9.70945 20.3227 10.0838L21.2677 8.97399C21.0038 8.74936 20.797 8.46522 20.6644 8.14499C20.5318 7.82476 20.4772 7.4776 20.505 7.13212L19.0525 7.01545ZM16.7046 4.56545C17.0203 4.54016 17.3378 4.58372 17.635 4.69314C17.9322 4.80256 18.2022 4.97521 18.4261 5.19917C18.6501 5.42313 18.8227 5.69305 18.9321 5.99028C19.0416 6.2875 19.0837 6.60495 19.0584 6.92066L20.5123 7.03733C20.5546 6.51092 20.4835 5.98162 20.301 5.48603C20.1186 4.99044 19.8307 4.5404 19.4572 4.16705C19.0837 3.7937 18.6335 3.50594 18.1379 3.32368C17.6422 3.14143 17.1129 3.06903 16.5865 3.11149L16.7046 4.56545ZM13.54 3.30108C13.9142 3.74089 14.3875 4.08553 14.921 4.30661C15.4544 4.5277 16.0328 4.61892 16.6084 4.57274L16.4917 3.11879C16.1462 3.14667 15.7991 3.09205 15.4788 2.95945C15.1586 2.82684 14.8745 2.62004 14.6498 2.35608L13.54 3.30108ZM14.5886 2.28316C14.2463 1.88093 13.8207 1.55785 13.3413 1.3363C12.8619 1.11475 12.3401 1 11.8119 1C11.2838 1 10.7619 1.11475 10.2825 1.3363C9.80307 1.55785 9.37751 1.88093 9.03524 2.28316L10.145 3.22816C10.3504 2.98702 10.6071 2.79335 10.8947 2.66054C11.1822 2.52773 11.4952 2.45895 11.8119 2.45895C12.1286 2.45895 12.4416 2.52773 12.7291 2.66054C13.0167 2.79335 13.2734 2.98702 13.4788 3.22816L14.5886 2.28316ZM10.0852 20.3227C9.76045 19.9412 9.3605 19.6308 8.91036 19.4107C8.46022 19.1907 7.96956 19.0643 7.46899 19.0423L7.40483 20.5007C7.70504 20.5139 7.99932 20.5888 8.26929 20.7208C8.53927 20.8528 8.77916 21.039 8.97399 21.2677L10.0852 20.3227ZM7.46899 19.0423C7.31779 19.0369 7.16641 19.0408 7.01545 19.0511L7.13212 20.505C7.22351 20.4973 7.31441 20.4958 7.40483 20.5007L7.46899 19.0423ZM8.16608 30.7702V19.7715H6.70774V30.7702H8.16608ZM16.6098 19.0511C16.4584 19.0408 16.3065 19.0383 16.1548 19.0438L16.219 20.5007C16.3094 20.4958 16.4003 20.4973 16.4917 20.505L16.6098 19.0511ZM16.1548 19.0438C15.6545 19.0659 15.1641 19.1909 14.7143 19.411C14.2644 19.631 13.8647 19.9414 13.54 20.3227L14.6498 21.2677C14.8447 21.039 15.0846 20.8528 15.3545 20.7208C15.6245 20.5888 15.9188 20.5139 16.219 20.5007L16.1548 19.0438ZM15.4577 19.773V30.7702H16.9161V19.7715L15.4577 19.773Z" fill="#6B4E04"/>
<path d="M15.783 31.3769L16.1869 30.7702H16.9161M15.783 31.3769C15.8928 31.45 16.0203 31.4919 16.1521 31.4982C16.2838 31.5045 16.4148 31.475 16.5311 31.4127C16.6474 31.3504 16.7446 31.2578 16.8124 31.1447C16.8802 31.0315 16.916 30.9021 16.9161 30.7702M15.783 31.3769L11.408 28.4602L12.2159 27.2469M15.783 31.3769L16.5909 30.1636L12.2159 27.2469M16.9161 30.7702H15.4577V19.773L16.9161 19.7715V30.7702ZM12.2159 27.2469L11.8119 27.8536L11.408 27.2469M12.2159 27.2469C12.0962 27.1673 11.9557 27.1248 11.8119 27.1248C11.6682 27.1248 11.5276 27.1673 11.408 27.2469M11.408 27.2469L7.03295 30.1636L7.84087 31.3769M11.408 27.2469L12.2159 28.4602L7.84087 31.3769M6.70774 30.7702H7.43691L7.84087 31.3769M6.70774 30.7702C6.70781 30.9021 6.74365 31.0315 6.81145 31.1447C6.87925 31.2578 6.97646 31.3504 7.09274 31.4127C7.20902 31.475 7.34001 31.5045 7.47175 31.4982C7.6035 31.4919 7.73106 31.45 7.84087 31.3769M6.70774 30.7702V19.7715H8.16608V30.7702H6.70774ZM7.07233 3.84504L7.01399 4.57274M9.52962 2.82858L8.97399 2.35608M8.97399 2.35608L9.03524 2.28316M8.97399 2.35608L10.0852 3.30108M8.97399 2.35608C8.74936 2.62004 8.46522 2.82684 8.14499 2.95945C7.82476 3.09205 7.4776 3.14667 7.13212 3.11879M3.83774 6.97899L3.11149 7.03733M3.11149 7.03733L4.56399 6.92066M3.11149 7.03733L3.11879 7.13212M3.11149 7.03733C3.06925 6.51105 3.14036 5.98188 3.32271 5.48641C3.50507 4.99093 3.79286 4.54098 4.16619 4.16765C4.53952 3.79432 4.98947 3.50653 5.48495 3.32417C5.98043 3.14182 6.51105 3.06925 7.03733 3.11149M6.97899 3.83774L7.03733 3.11149M7.03733 3.11149L7.13212 3.11879M7.03733 3.11149L6.92066 4.56545L7.01545 4.57274M7.03733 3.11149L6.9192 4.56399C6.60347 4.5389 6.28606 4.58266 5.9889 4.69226C5.69174 4.80186 5.42192 4.97468 5.1981 5.19878C4.97428 5.42287 4.80179 5.6929 4.69256 5.9902C4.58333 6.28749 4.5385 6.60496 4.56399 6.92066M2.82858 9.52962L3.30108 10.0838M3.30108 10.0838L3.22816 10.1465M3.30108 10.0838L2.35608 8.97399M3.30108 10.0838C3.7411 9.70945 4.08586 9.23736 4.30696 8.70364C4.52805 8.16992 4.61915 7.59129 4.57274 7.01545M3.84504 7.07379L4.57274 7.01545M4.57274 7.01545L4.56399 6.92066M4.57274 7.01545L3.11879 7.13212M2.75566 14.033L2.28316 14.5886M2.28316 14.5886L3.22816 13.4773M2.28316 14.5886L2.35608 14.6498M2.28316 14.5886C1.88093 14.2463 1.55785 13.8207 1.3363 13.3413C1.11475 12.8619 1 12.3401 1 11.8119C1 11.2838 1.11475 10.7619 1.3363 10.2825C1.55785 9.80307 1.88093 9.37751 2.28316 9.03524M2.75566 9.59087L2.28316 9.03524M2.28316 9.03524L2.35608 8.97399M2.28316 9.03524L3.22816 10.1465M3.84504 16.55L3.11879 16.4917M3.11879 16.4917L4.57274 16.6084M3.11879 16.4917L3.11149 16.5865M3.11879 16.4917C3.14667 16.1462 3.09205 15.7991 2.95945 15.4788C2.82684 15.1586 2.62004 14.8745 2.35608 14.6498M2.82858 14.0942L3.30108 13.54M3.30108 13.54L3.22816 13.4773M3.30108 13.54L2.35608 14.6498M3.30108 13.54C3.74089 13.9142 4.08553 14.3875 4.30661 14.921C4.5277 15.4544 4.61892 16.0328 4.57274 16.6084M6.97899 19.7861L7.03733 20.5123M7.03733 20.5123L6.92066 19.0598L7.01545 19.0525M7.03733 20.5123L7.13212 20.505M3.83774 16.6448L4.56399 16.7032M4.56399 16.7032C4.53867 17.019 4.58227 17.3366 4.69177 17.6339C4.80127 17.9313 4.97406 18.2013 5.19818 18.4252C5.4223 18.6492 5.69241 18.8219 5.98982 18.9312C6.28723 19.0405 6.60483 19.0839 6.92066 19.0584L7.03733 20.5138C6.51092 20.5561 5.98162 20.4835 5.48603 20.301C4.99044 20.1186 4.5404 19.8307 4.16705 19.4572C3.7937 19.0837 3.50594 18.6335 3.32368 18.1379C3.14143 17.6422 3.06903 17.1129 3.11149 16.5865M4.56399 16.7032L3.11149 16.5865M9.52962 20.7952L10.0838 20.3227M10.0838 20.3227L10.1465 20.3957M10.0838 20.3227L8.97399 21.2677M7.07379 19.7788L7.01545 19.0525M7.01545 19.0525L7.13212 20.505M14.033 20.8682L14.5886 21.3407M14.5886 21.3407L13.4773 20.3957M14.5886 21.3407L14.6498 21.2677M14.5886 21.3407C14.2463 21.7429 13.8207 22.066 13.3413 22.2875C12.8619 22.5091 12.3401 22.6238 11.8119 22.6238C11.2838 22.6238 10.7619 22.5091 10.2825 22.2875C9.80307 22.066 9.37751 21.7429 9.03524 21.3407M9.59087 20.8682L9.03524 21.3407M9.03524 21.3407L8.97399 21.2677M9.03524 21.3407L10.1465 20.3957M16.55 19.7788L16.6084 19.0525M14.0942 20.7952L13.54 20.3227M13.54 20.3227L13.4773 20.3957M13.54 20.3227L14.6498 21.2677M13.54 20.3227C13.8647 19.9414 14.2644 19.631 14.7143 19.411C15.1641 19.1909 15.6545 19.0659 16.1548 19.0438M19.7861 16.6448L20.5123 16.5865M20.5123 16.5865L19.0598 16.7032M20.5123 16.5865L20.505 16.4917M20.5123 16.5865C20.5546 17.1129 20.4835 17.6422 20.301 18.1378C20.1186 18.6334 19.8307 19.0834 19.4572 19.4568C19.0837 19.8301 18.6335 20.1179 18.1379 20.3001C17.6422 20.4824 17.1129 20.5548 16.5865 20.5123M16.6448 19.7861L16.5865 20.5123M16.5865 20.5123L16.4917 20.505M16.5865 20.5123L16.7046 19.0584L16.6084 19.0511L16.4917 20.505M16.5865 20.5123L16.7032 19.0598C17.0191 19.0854 17.3369 19.0419 17.6344 18.9325C17.9319 18.8231 18.2021 18.6504 18.4262 18.4262C18.6504 18.2021 18.8231 17.9319 18.9325 17.6344C19.0419 17.3369 19.0854 17.0191 19.0598 16.7032M20.7952 14.0942L21.2677 14.6498M21.2677 14.6498L20.3227 13.54L20.3957 13.4788M21.2677 14.6498L21.3407 14.5886M21.2677 14.6498C21.0038 14.8745 20.797 15.1586 20.6644 15.4788C20.5318 15.7991 20.4772 16.1462 20.505 16.4917M21.2677 14.6498L20.3227 13.5386C19.883 13.9131 19.5385 14.3867 19.3177 14.9204C19.0968 15.4541 19.006 16.0326 19.0525 16.6084M19.7788 16.55L19.0525 16.6084M19.0525 16.6084L19.0598 16.7032M19.0525 16.6084L20.505 16.4917M20.8682 9.59087L21.3407 9.03524M21.3407 9.03524L20.3957 10.1465M21.3407 9.03524L21.2677 8.97399M21.3407 9.03524C21.7429 9.37751 22.066 9.80307 22.2875 10.2825C22.5091 10.7619 22.6238 11.2838 22.6238 11.8119C22.6238 12.3401 22.5091 12.8619 22.2875 13.3413C22.066 13.8207 21.7429 14.2463 21.3407 14.5886M20.8682 14.033L20.3957 13.4788M20.3957 13.4788L21.3407 14.5886M20.3957 13.4788C20.6368 13.2734 20.8305 13.0167 20.9633 12.7291C21.0961 12.4416 21.1649 12.1286 21.1649 11.8119C21.1649 11.4952 21.0961 11.1822 20.9633 10.8947C20.8305 10.6071 20.6368 10.3519 20.3957 10.1465M19.7788 7.07379L19.0525 7.01545M19.0525 7.01545L19.0584 6.92066M19.0525 7.01545L20.505 7.13212M19.0525 7.01545C19.0062 7.59093 19.0972 8.1692 19.318 8.70264C19.5388 9.23608 19.8832 9.70945 20.3227 10.0838M20.7952 9.52962L20.3227 10.0838M20.3227 10.0838L20.3957 10.1465M20.3227 10.0838L21.2677 8.97399M16.6448 3.83774L16.5865 3.11149M16.5865 3.11149L16.7032 4.56399L16.6084 4.57274M16.5865 3.11149L16.4917 3.11879M16.5865 3.11149C17.1129 3.06903 17.6422 3.14143 18.1379 3.32368C18.6335 3.50594 19.0837 3.7937 19.4572 4.16705C19.8307 4.5404 20.1186 4.99044 20.301 5.48603C20.4835 5.98162 20.5546 6.51092 20.5123 7.03733M16.5865 3.11149L16.7046 4.56545C17.0203 4.54016 17.3378 4.58372 17.635 4.69314C17.9322 4.80256 18.2022 4.97521 18.4261 5.19917C18.6501 5.42313 18.8227 5.69305 18.9321 5.99028C19.0416 6.2875 19.0837 6.60495 19.0584 6.92066M19.7861 6.97899L20.5123 7.03733M20.5123 7.03733L20.505 7.13212M20.5123 7.03733L19.0584 6.92066M14.0942 2.82858L14.6498 2.35608M14.6498 2.35608L13.54 3.30108M14.6498 2.35608L14.5886 2.28316M14.6498 2.35608C14.8745 2.62004 15.1586 2.82684 15.4788 2.95945C15.7991 3.09205 16.1462 3.14667 16.4917 3.11879M16.55 3.84504L16.6084 4.57274M16.6084 4.57274L16.4917 3.11879M16.6084 4.57274C16.0328 4.61892 15.4544 4.5277 14.921 4.30661C14.3875 4.08553 13.9142 3.74089 13.54 3.30108M14.033 2.75566L13.4788 3.22816M13.4788 3.22816L13.54 3.30108M13.4788 3.22816L14.5886 2.28316M13.4788 3.22816C13.2734 2.98702 13.0167 2.79335 12.7291 2.66054C12.4416 2.52773 12.1286 2.45895 11.8119 2.45895C11.4952 2.45895 11.1822 2.52773 10.8947 2.66054C10.6071 2.79335 10.3504 2.98702 10.145 3.22816M9.59087 2.75566L10.145 3.22816M10.145 3.22816L10.0852 3.30108M10.145 3.22816L9.03524 2.28316M7.43691 19.7715L7.46899 19.0423M7.46899 19.0423C7.96956 19.0643 8.46022 19.1907 8.91036 19.4107C9.3605 19.6308 9.76045 19.9412 10.0852 20.3227L8.97399 21.2677M7.46899 19.0423L7.40483 20.5007M7.46899 19.0423C7.31779 19.0369 7.16641 19.0408 7.01545 19.0511L7.13212 20.505M14.5886 2.28316C14.2463 1.88093 13.8207 1.55785 13.3413 1.3363C12.8619 1.11475 12.3401 1 11.8119 1C11.2838 1 10.7619 1.11475 10.2825 1.3363C9.80307 1.55785 9.37751 1.88093 9.03524 2.28316M20.505 7.13212C20.4772 7.4776 20.5318 7.82476 20.6644 8.14499C20.797 8.46522 21.0038 8.74936 21.2677 8.97399M16.4917 20.505C16.4003 20.4973 16.3094 20.4958 16.219 20.5007M16.4917 20.505L16.6098 19.0511C16.4584 19.0408 16.3065 19.0383 16.1548 19.0438M13.4773 20.3957C13.272 20.6368 13.0167 20.8305 12.7291 20.9633C12.4416 21.0961 12.1286 21.1649 11.8119 21.1649C11.4952 21.1649 11.1822 21.0961 10.8947 20.9633C10.6071 20.8305 10.3519 20.6368 10.1465 20.3957M14.6498 21.2677C14.8447 21.039 15.0846 20.8528 15.3545 20.7208C15.6245 20.5888 15.9188 20.5139 16.219 20.5007M8.97399 21.2677C8.77916 21.039 8.53927 20.8528 8.26929 20.7208C7.99932 20.5888 7.70504 20.5139 7.40483 20.5007M7.13212 20.505C7.22351 20.4973 7.31441 20.4958 7.40483 20.5007M4.57274 16.6084L4.56545 16.7046L3.11149 16.5865M3.22816 13.4773C2.98702 13.272 2.79335 13.0167 2.66054 12.7291C2.52773 12.4416 2.45895 12.1286 2.45895 11.8119C2.45895 11.4952 2.52773 11.1822 2.66054 10.8947C2.79335 10.6071 2.98702 10.3519 3.22816 10.1465M2.35608 8.97399C2.62004 8.74936 2.82684 8.46522 2.95945 8.14499C3.09205 7.82476 3.14667 7.4776 3.11879 7.13212M7.01545 4.57274L7.13212 3.11879M7.01545 4.57274C7.59129 4.61915 8.16992 4.52805 8.70364 4.30696C9.23737 4.08586 9.71091 3.7411 10.0852 3.30108M16.1548 19.0438L16.219 20.5007" stroke="#6B4E04" stroke-width="2"/>
</svg>
