<svg width="36" height="30" viewBox="0 0 36 30" fill="none" xmlns="http://www.w3.org/2000/svg">
<path d="M33.1111 21.3636H32.4815V18.1818C32.4735 15.0804 31.4946 12.061 29.685 9.55618C27.8754 7.05137 25.3279 5.18959 22.4074 4.2375V2.90909C22.4074 2.40277 22.2084 1.91718 21.8542 1.55916C21.4999 1.20114 21.0195 1 20.5185 1H15.4815C14.9805 1 14.5001 1.20114 14.1458 1.55916C13.7916 1.91718 13.5926 2.40277 13.5926 2.90909V4.2375C10.6721 5.18959 8.12463 7.05137 6.31503 9.55618C4.50543 12.061 3.52652 15.0804 3.51852 18.1818V21.3636H2.88889C2.38792 21.3636 1.90748 21.5648 1.55324 21.9228C1.19901 22.2808 1 22.7664 1 23.2727V27.0909C1 27.5972 1.19901 28.0828 1.55324 28.4408C1.90748 28.7989 2.38792 29 2.88889 29H33.1111C33.6121 29 34.0925 28.7989 34.4468 28.4408C34.801 28.0828 35 27.5972 35 27.0909V23.2727C35 22.7664 34.801 22.2808 34.4468 21.9228C34.0925 21.5648 33.6121 21.3636 33.1111 21.3636ZM31.2222 18.1818V21.3636H22.4074V5.58182C24.9812 6.50962 27.209 8.21765 28.7866 10.4727C30.3642 12.7278 31.2148 15.42 31.2222 18.1818ZM15.4815 2.27273H20.5185C20.6855 2.27273 20.8457 2.33977 20.9637 2.45911C21.0818 2.57846 21.1481 2.74032 21.1481 2.90909V21.3636H14.8519V2.90909C14.8519 2.74032 14.9182 2.57846 15.0363 2.45911C15.1543 2.33977 15.3145 2.27273 15.4815 2.27273ZM4.77778 18.1818C4.7852 15.42 5.63578 12.7278 7.2134 10.4727C8.79102 8.21765 11.0188 6.50962 13.5926 5.58182V21.3636H4.77778V18.1818ZM33.7407 27.0909C33.7407 27.2597 33.6744 27.4215 33.5563 27.5409C33.4382 27.6602 33.2781 27.7273 33.1111 27.7273H2.88889C2.7219 27.7273 2.56175 27.6602 2.44367 27.5409C2.3256 27.4215 2.25926 27.2597 2.25926 27.0909V23.2727C2.25926 23.104 2.3256 22.9421 2.44367 22.8227C2.56175 22.7034 2.7219 22.6364 2.88889 22.6364H33.1111C33.2781 22.6364 33.4382 22.7034 33.5563 22.8227C33.6744 22.9421 33.7407 23.104 33.7407 23.2727V27.0909Z" fill="#6B4E04" stroke="#6B4E04" stroke-width="2"/>
</svg>
