<svg width="35" height="29" viewBox="0 0 35 29" fill="none" xmlns="http://www.w3.org/2000/svg">
<path d="M19.7185 0.100403C20.2463 0.100413 20.7519 0.312387 21.1248 0.68927C21.4976 1.06613 21.7078 1.57669 21.7078 2.10919V3.36603C24.6194 4.3315 27.158 6.19612 28.9656 8.69806C30.7874 11.2199 31.7729 14.2594 31.781 17.3817V20.4637H32.3113C32.839 20.4637 33.3447 20.6758 33.7175 21.0526C34.0903 21.4293 34.2995 21.9401 34.2996 22.4725V26.2908C34.2996 26.8233 34.0903 27.3339 33.7175 27.7108C33.3447 28.0876 32.839 28.2996 32.3113 28.2996H2.08862C1.56087 28.2996 1.05523 28.0876 0.682373 27.7108C0.309556 27.3339 0.100342 26.8233 0.100342 26.2908V22.4725C0.100411 21.9401 0.309566 21.4293 0.682373 21.0526C1.05522 20.6758 1.56091 20.4637 2.08862 20.4637H2.6189V17.3817L2.63159 16.7977C2.75309 13.8816 3.72624 11.0624 5.43433 8.69806C7.24185 6.19612 9.78054 4.3315 12.6921 3.36603V2.10919C12.6921 1.57669 12.9023 1.06613 13.2751 0.68927C13.648 0.312388 14.1536 0.100413 14.6814 0.100403H19.7185ZM2.08862 21.9363C1.94858 21.9364 1.81396 21.9931 1.7146 22.0936C1.6154 22.194 1.5594 22.3301 1.55933 22.4725V26.2908C1.55933 26.4334 1.61516 26.5702 1.7146 26.6707C1.81396 26.7711 1.94859 26.8269 2.08862 26.827H32.3113C32.4513 26.8269 32.5859 26.7711 32.6853 26.6707C32.7847 26.5702 32.8406 26.4334 32.8406 26.2908V22.4725C32.8405 22.3301 32.7845 22.194 32.6853 22.0936C32.5859 21.9931 32.4513 21.9364 32.3113 21.9363H2.08862ZM21.7078 20.4637H30.322V17.3817C30.3146 14.6405 29.4707 11.9684 27.905 9.73029C26.3668 7.53149 24.205 5.85786 21.7078 4.92657V20.4637ZM14.6814 1.57306C14.5413 1.57307 14.4068 1.62892 14.3074 1.72931C14.2079 1.82982 14.1521 1.9666 14.1521 2.10919V20.4637H20.2478V2.10919C20.2478 1.9666 20.192 1.82982 20.0925 1.72931C19.9931 1.62892 19.8586 1.57307 19.7185 1.57306H14.6814ZM12.6921 4.92657C10.1949 5.85786 8.03313 7.53149 6.49487 9.73029C4.92925 11.9684 4.08534 14.6405 4.07788 17.3817V20.4637H12.6921V4.92657Z" fill="#FFBA0A" stroke="#FFBA0A" stroke-width="0.2"/>
</svg>
