<?xml version="1.0" encoding="UTF-8"?>
<svg id="Layer_2" data-name="Layer 2" xmlns="http://www.w3.org/2000/svg" viewBox="0 0 251.53 212.98">
  <defs>
    <style>
      .cls-1 {
        fill: #ffba0a;
      }
    </style>
  </defs>
  <g id="Layer_1-2" data-name="Layer 1">
    <g>
      <path class="cls-1" d="M53.46,58.65c15.24-14.05,40.65-37.2,54.2-40.02,13.55-2.82,77.35,22.58,90.9,36.13,13.55,13.55,14.11,20.32,18.07,32.18,3.95,11.86,5.08,19.76,7.34,27.66,2.26,7.9-16.94,33.31-20.32,40.09-3.39,6.77-3.39,10.73-7.9,14.68-4.52,3.95-42.91,7.34-54.2,10.73-11.29,3.39-10.16,2.26-16.94,2.26s-13.55-5.08-20.89-5.08-26.88,6.42-36.03,1.45c-8.06-4.39-6.88-17.82-14.22-24.03-7.34-6.21-8.47-7.34-11.86-18.63-3.39-11.29,1.13-54.2,4.52-62.67,3.39-8.47,7.34-14.74,7.34-14.74Z"/>
      <path d="M217.64,107.24c15.48-22.5,36.66-60.9,33.6-84.67-.93-7.21-4.07-12.58-9.33-15.99-9.35-6.05-16.29-7.91-21.21-5.67-6.78,3.07-8.29,13.32-9.63,22.37-.43,2.9-.83,5.65-1.39,8.07-1.87,8.24-6.57,18.17-11.46,25.63-1.47-1.71-3.16-3.53-5.11-5.48-13.8-13.8-78.47-39.42-92.26-36.54-13.4,2.79-37.33,24.23-51.98,37.69-3.09-5.9-5.7-12.34-6.99-17.99-.55-2.43-.96-5.17-1.39-8.07-1.34-9.05-2.86-19.31-9.63-22.37-4.93-2.23-11.86-.37-21.21,5.67C4.37,13.3,1.23,18.68.3,25.89c-2.7,20.95,13.45,53.28,27.91,76.06l2.31,3.58c.76,1.16,1.51,2.28,2.25,3.38-.62,10.78-.52,20.75.87,25.4,3.49,11.62,4.83,13,12.32,19.34,3.14,2.66,4.65,7.02,6.11,11.23,1.76,5.1,3.59,10.38,8.36,12.97,6.79,3.69,18.23,1.66,27.42.02,2.47-.44,4.73-.84,6.59-1.07,1.62,11.04,2.82,22.14,2.23,23.38-.89,1.48-5.82,1.9-9.08,1.18-1.2-.26-2.94-.88-4.95-1.6-4.29-1.53-9.63-3.42-13.95-3.42-2.32,0-4.3,1.15-5.56,3.24-1.94,3.2-1.93,8.16.02,12.06.41.82,1.2,1.33,2.06,1.33h38.99c1.09,0,1.97-.95,1.97-2.12v-32.24c.46.17.91.33,1.37.5,3.42,1.26,6.96,2.56,10.54,2.56,1.52,0,2.62.06,3.59.11.76.04,1.43.07,2.1.07,2.33,0,4.74-.42,11.68-2.5.07-.02.15-.04.22-.06v31.58c0,1.16.88,2.11,1.97,2.11h38.99c.86,0,1.65-.51,2.06-1.33,1.95-3.88,1.96-8.82.02-12-1.27-2.08-3.24-3.22-5.56-3.22-4.32,0-9.66,1.89-13.95,3.41-2.01.71-3.75,1.33-4.95,1.59-3.26.71-8.2.3-9.08-1.16-.6-1.25.61-12.34,2.23-23.34,3.63-.6,7.66-1.2,11.79-1.82,17.46-2.61,28.26-4.37,31.01-6.79,3.27-2.86,4.36-5.69,5.74-9.27.66-1.71,1.41-3.65,2.52-5.87.88-1.75,2.96-4.96,5.37-8.68,9.24-14.26,16.75-26.54,15.06-32.49-.45-1.57-.85-3.15-1.25-4.77ZM201.31,142.86c-2.56,3.95-4.59,7.07-5.54,8.97-1.17,2.35-1.95,4.36-2.63,6.13-1.28,3.32-2.2,5.71-4.92,8.09-2.3,2.01-17.37,4.26-29.48,6.08-3.78.56-7.48,1.12-10.87,1.67-.53.08-1.05.17-1.56.25-.13.85-.29,1.91-.47,3.12-1.16,7.91-3.05,22.05-1.96,23.85,1.56,2.59,7.83,2.49,10.68,1.87,1.29-.28,3.07-.91,5.13-1.64,4.18-1.48,9.39-3.32,13.46-3.32,2.28,0,3.59,1.36,4.29,2.5,1.68,2.76,1.65,7.09-.08,10.53-.15.31-.43.5-.72.5h-38.99c-.25,0-.47-.27-.47-.6v-35.07c-.53.12-1.03.25-1.5.37-.38.1-.75.2-1.08.3-8.45,2.53-9.62,2.47-12.76,2.31-.96-.05-2.15-.11-3.75-.11-3.05,0-6.19-1.15-9.51-2.37-.79-.29-1.59-.58-2.4-.86-.5-.17-1-.34-1.5-.5v35.93c0,.33-.21.6-.47.6h-38.99c-.29,0-.57-.19-.72-.5-1.73-3.46-1.76-7.81-.08-10.58.7-1.15,2.01-2.52,4.29-2.52,4.06,0,9.27,1.85,13.45,3.34,2.06.73,3.84,1.36,5.13,1.65,2.86.62,9.13.72,10.68-1.88,1.1-1.85-.86-16.45-2.01-24.32-.17-1.16-.32-2.17-.45-2.97-.47.04-.97.09-1.49.16-1.93.24-4.2.65-6.67,1.09-8.27,1.47-19.59,3.49-25.46.3-3.75-2.04-5.31-6.55-6.96-11.32-1.59-4.6-3.23-9.35-7-12.54-6.98-5.91-8.06-6.82-11.39-17.92-1.14-3.79-1.33-11.61-.96-20.5,3.92,5.56,7.39,9.97,9.85,12.67l1.11-1.01c-2.88-3.16-6.68-8.06-10.84-14.06-.9-1.3-1.82-2.65-2.75-4.05-.65-.98-1.31-1.98-1.97-3-.76-1.17-1.52-2.37-2.29-3.59-3.67-5.87-7.39-12.26-10.83-18.82C9.36,64.91-.3,42.23,1.79,26.08c.78-6.09,3.25-10.75,7.3-13.93-.31,3.15-.66,9.81,1.49,13.71l1.31-.72c-2.31-4.2-1.38-12.45-1.16-14.16,2.84-1.82,5.43-3.23,7.78-4.24-.36,2.87-.86,9.79,1.98,14.45l1.28-.78c-2.89-4.75-1.93-12.49-1.66-14.31,4.14-1.52,7.48-1.69,10.1-.5,6.03,2.73,7.49,12.56,8.77,21.23.43,2.93.84,5.71,1.41,8.19,1.3,5.73,4.03,12.49,7.31,18.71.48.92.98,1.82,1.48,2.71.48.84.96,1.67,1.45,2.47.54.88,1.09,1.74,1.64,2.57,4.4,6.62,9.09,11.4,12.53,11.44l.02-1.5c-2.84-.03-7.2-4.58-11.41-10.98l-1.63-2.57c-.49-.81-.97-1.64-1.45-2.48,13.66-12.56,38.37-34.82,51.12-37.47,12.91-2.69,76.49,22.69,89.53,35.73,2.13,2.13,3.93,4.09,5.48,5.93,0,0-.01.01-.02.02l-1.91,2.5c-2.97,3.66-5.78,5.99-7.8,6.01l.02,1.5c2.44-.03,5.52-2.46,8.67-6.23.65-.77,1.29-1.6,1.94-2.48.03-.04.06-.08.09-.12.6-.82,1.2-1.68,1.79-2.57,5.21-7.82,10.03-18.24,11.91-26.51.56-2.48.97-5.25,1.41-8.19,1.28-8.67,2.74-18.5,8.77-21.23,2.62-1.19,5.97-1.02,10.1.5.28,1.83,1.23,9.57-1.66,14.31l1.28.78c2.84-4.66,2.34-11.58,1.98-14.45,2.35,1.01,4.94,2.42,7.78,4.25.22,1.71,1.15,9.96-1.15,14.16l1.31.72c2.14-3.9,1.8-10.56,1.49-13.71,4.05,3.17,6.51,7.84,7.3,13.93,2.08,16.15-7.58,38.83-16.05,55-5.24,10-11.12,19.61-16.52,27.55-.77,1.14-1.54,2.24-2.29,3.31-.23.32-.45.64-.67.96-1.03,1.44-2.03,2.81-2.99,4.09-2.33,3.09-4.44,5.69-6.21,7.62l1.11,1.01c1.39-1.52,3.09-3.58,5.01-6.07l3.12-4.18c.37-.5.74-1.03,1.12-1.56.2.78.42,1.56.64,2.34,1.46,5.12-8.65,20.71-14.69,30.03Z"/>
      <path d="M177.38,60.4c-1.74-1.62-6.37-5.07-12.35-2.61-5.69,2.33-7.26,6.7-7.69,8.83-.12.57.21,1.11.67,1.23.03,0,.06.02.09.03.02,0,.04.02.06.02.03,0,.06-.01.1-.02.06,0,.12-.01.18-.03.01,0,.03-.01.04-.02.14-.05.27-.13.37-.26.71-.87,2.44-2.4,6.03-2.7,3.71-.31,5.79,1.73,6.64,2.83.28.37.74.45,1.09.19h.02c.46-.35.55-1.1.18-1.58-1.09-1.43-3.64-3.89-8.05-3.53-1.88.16-3.33.64-4.46,1.22.95-1.51,2.57-3.13,5.31-4.26,5.21-2.14,9.25.91,10.71,2.28.35.33.85.29,1.16-.09h0c.37-.45.32-1.17-.09-1.56Z"/>
      <path d="M124.94,60.4c1.74-1.62,6.37-5.07,12.35-2.61,5.69,2.33,7.26,6.7,7.69,8.83.12.57-.21,1.11-.67,1.23-.03,0-.06.02-.09.03-.02,0-.04.02-.06.02-.03,0-.06-.01-.1-.02-.06,0-.12-.01-.18-.03-.01,0-.03-.01-.04-.02-.14-.05-.27-.13-.37-.26-.71-.87-2.44-2.4-6.03-2.7-3.71-.31-5.79,1.73-6.64,2.83-.28.37-.74.45-1.09.19h-.02c-.46-.35-.55-1.1-.18-1.58,1.09-1.43,3.64-3.89,8.05-3.53,1.88.16,3.33.64,4.46,1.22-.95-1.51-2.57-3.13-5.31-4.26-5.21-2.14-9.25.91-10.71,2.28-.35.33-.85.29-1.16-.09h0c-.37-.45-.32-1.17.09-1.56Z"/>
      <ellipse cx="142.27" cy="107.08" rx="12.05" ry="16.34"/>
    </g>
  </g>
</svg>