<?xml version="1.0" encoding="UTF-8"?>
<svg id="Layer_2" data-name="Layer 2" xmlns="http://www.w3.org/2000/svg" viewBox="0 0 191.74 198.23">
  <defs>
    <style>
      .cls-1 {
        fill: #ffba0a;
      }
    </style>
  </defs>
  <g id="Layer_1-2" data-name="Layer 1">
    <g>
      <g>
        <path class="cls-1" d="M21.05,43.9C36.29,29.85,61.7,6.71,75.25,3.88c13.55-2.82,77.35,22.58,90.9,36.13,13.55,13.55,14.11,20.32,18.07,32.18,3.95,11.86,5.08,19.76,7.34,27.66,2.26,7.9-16.94,33.31-20.32,40.09-3.39,6.77-3.39,10.73-7.9,14.68-4.52,3.95-42.91,7.34-54.2,10.73-11.29,3.39-10.16,2.26-16.94,2.26s-13.55-5.08-20.89-5.08-26.88,6.42-36.03,1.45c-8.06-4.39-6.88-17.82-14.22-24.03-7.34-6.21-8.47-7.34-11.86-18.63-3.39-11.29,1.13-54.2,4.52-62.67,3.39-8.47,7.34-14.74,7.34-14.74Z"/>
        <path d="M186.48,97.26c-.83-2.91-1.51-5.85-2.24-8.96-1.23-5.28-2.62-11.26-5.12-18.77-.56-1.68-1.05-3.25-1.52-4.76-2.92-9.36-5.03-16.13-16.91-28.01C146.89,22.96,82.22-2.66,68.42.22,54.09,3.21,27.69,27.54,13.51,40.61l-.15.13-.11.17c-.16.26-4.06,6.49-7.46,14.99-3.64,9.11-7.97,52.31-4.56,63.66,3.49,11.62,4.83,13,12.32,19.34,3.14,2.66,4.65,7.02,6.11,11.23,1.76,5.1,3.59,10.38,8.36,12.97,6.79,3.69,18.23,1.66,27.42.02,2.47-.44,4.73-.84,6.59-1.07,1.62,11.04,2.82,22.14,2.23,23.38-.89,1.48-5.82,1.9-9.08,1.18-1.2-.26-2.94-.88-4.95-1.6-4.29-1.53-9.63-3.42-13.95-3.42-2.32,0-4.3,1.15-5.56,3.24-1.94,3.2-1.93,8.16.02,12.06.41.82,1.2,1.33,2.06,1.33h38.99c1.09,0,1.97-.95,1.97-2.12v-32.24c.46.17.91.33,1.37.5,3.42,1.26,6.96,2.56,10.54,2.56,1.52,0,2.62.06,3.59.11.76.04,1.43.07,2.1.07,2.33,0,4.74-.42,11.68-2.5.07-.02.15-.04.22-.06v31.58c0,1.16.88,2.11,1.97,2.11h38.99c.86,0,1.65-.51,2.06-1.33,1.95-3.88,1.96-8.82.02-12-1.27-2.08-3.24-3.22-5.56-3.22-4.32,0-9.66,1.89-13.95,3.41-2.01.71-3.75,1.33-4.95,1.59-3.26.71-8.2.3-9.08-1.16-.6-1.25.61-12.34,2.23-23.34.44-.07.9-.14,1.35-.22.85-.14,1.72-.27,2.61-.41,2.52-.39,5.14-.79,7.82-1.19,17.46-2.61,28.26-4.37,31.01-6.79,3.27-2.86,4.36-5.69,5.74-9.27.66-1.71,1.41-3.65,2.52-5.87.88-1.75,2.96-4.96,5.37-8.68,9.24-14.26,16.75-26.54,15.06-32.49ZM113.43,162.43c-1.16,7.91-3.05,22.05-1.96,23.85,1.56,2.59,7.83,2.49,10.68,1.87,1.29-.28,3.07-.91,5.13-1.64,4.18-1.48,9.39-3.32,13.46-3.32,2.28,0,3.59,1.36,4.29,2.5,1.68,2.76,1.65,7.09-.08,10.53-.15.31-.43.5-.72.5h-38.99c-.25,0-.47-.27-.47-.6v-35.07c-.53.12-1.03.25-1.5.37-.38.1-.75.2-1.08.3-8.45,2.53-9.62,2.47-12.76,2.31-.96-.05-2.15-.11-3.75-.11-3.05,0-6.19-1.15-9.51-2.37-.79-.29-1.59-.58-2.4-.86-.5-.17-1-.34-1.5-.5v35.93c0,.33-.21.6-.47.6h-38.99c-.29,0-.57-.19-.72-.5-1.73-3.46-1.76-7.81-.08-10.58.7-1.15,2.01-2.52,4.29-2.52,4.06,0,9.27,1.85,13.45,3.34,2.06.73,3.84,1.36,5.13,1.65,2.86.62,9.13.72,10.68-1.88,1.1-1.85-.86-16.45-2.01-24.32-.17-1.16-.32-2.17-.45-2.97-.47.04-.97.09-1.49.16-1.93.24-4.2.65-6.67,1.09-1.9.34-3.96.7-6.07,1.03,4.88-2.15,10.2-5.14,15.94-8.37,7.29-4.11,15.34-8.63,23.99-12.21.61.55,1.22,1.09,1.83,1.64,7.55,6.77,15.25,13.69,23.11,18.26-.09.58-.18,1.22-.28,1.91ZM168.9,128.11c-2.56,3.95-4.59,7.07-5.54,8.97-1.17,2.35-1.95,4.36-2.63,6.13-1.28,3.32-2.2,5.71-4.92,8.09-2.3,2.01-17.37,4.26-29.48,6.08-3.78.57-7.48,1.12-10.87,1.67-.34.05-.66.11-1,.16-7.73-4.5-15.37-11.35-22.86-18.07-.43-.38-.86-.77-1.29-1.15,11.55-4.59,24.16-7.4,37.51-5.25,20.29,3.28,25.25-4.12,26.41-8.82,2.15-8.77-5.6-21.02-15.36-24.27-7.35-2.45-21.23-1.64-38.71,1.76-21.17-10.9-38.5-18.72-52.69-12.7-7.48,3.17-12.03,9.34-11.31,15.34.61,5.14,5.01,9.22,12.32,11.66-8.26,2.85-16.67,5.99-25.07,9.41l.56,1.39c9.01-3.66,18.09-7.03,27.01-10.05.91-.31,1.81-.6,2.71-.91,37.72-12.52,72.02-18.7,84.7-14.47,8.94,2.98,16.33,14.54,14.38,22.49-1.78,7.25-10.55,9.98-24.71,7.7-13.96-2.25-27.06.77-39,5.61-.52.21-1.03.42-1.54.64-8.46,3.57-16.32,8-23.47,12.02-8.08,4.55-15.31,8.61-21.55,10.45-5.05.42-9.85.23-13.04-1.5-3.75-2.04-5.31-6.55-6.96-11.32-1.59-4.6-3.23-9.35-7-12.54-6.98-5.91-8.06-6.82-11.39-17.92-3.19-10.64,1.03-53.07,4.47-61.68,2.99-7.49,6.48-13.3,7.11-14.34C28.73,30.67,55.57,5.97,69.04,3.16c12.91-2.69,76.49,22.69,89.53,35.73,11.36,11.36,13.38,17.83,16.17,26.78.47,1.52.97,3.12,1.54,4.81,2.46,7.38,3.83,13.29,5.05,18.5.73,3.15,1.42,6.12,2.27,9.1,1.46,5.12-8.65,20.71-14.69,30.03ZM37.72,103.42c.3-1.95,1.22-3.89,2.64-5.66,1.79-.24,11.41-1.27,18.52,2.95l.77-1.29c-6.27-3.72-14.07-3.63-17.75-3.33,1.67-1.59,3.76-2.97,6.16-3.99,13.22-5.61,29.69,1.53,49.74,11.79-13.97,2.85-30.08,7.28-46.9,12.99-7.89-2.16-12.65-6.04-13.24-11.01-.04-.31-.06-.63-.06-.95,7.66.23,16.2,3.84,16.29,3.88l.59-1.38c-.37-.16-8.84-3.74-16.76-4Z"/>
      </g>
      <path d="M99.45,85.73h0c.85,0,1.58.65,1.63,1.51.47,7.25,4.3,13.12,8.77,13.12s8.3-5.87,8.77-13.12c.06-.85.78-1.51,1.63-1.51h0c.96,0,1.7.82,1.64,1.78-.58,9.18-5.67,16.14-12.05,16.14s-11.46-6.96-12.05-16.14c-.06-.96.68-1.78,1.64-1.78Z"/>
      <ellipse cx="104.62" cy="53.21" rx="7.09" ry="11.02"/>
      <path d="M143.04,49.2c-1.74-1.62-6.37-5.07-12.35-2.61-5.69,2.33-7.26,6.7-7.69,8.83-.12.57.21,1.11.67,1.23.03,0,.06.02.09.03.02,0,.04.02.06.02.03,0,.06-.01.1-.02.06,0,.12-.01.18-.03.01,0,.03-.01.04-.02.14-.05.27-.13.37-.26.71-.87,2.44-2.4,6.03-2.7,3.71-.31,5.79,1.73,6.64,2.83.28.37.74.45,1.09.19h.02c.46-.35.55-1.1.18-1.58-1.09-1.43-3.64-3.89-8.05-3.53-1.88.16-3.33.64-4.46,1.22.95-1.51,2.57-3.13,5.31-4.26,5.21-2.14,9.25.91,10.71,2.28.35.33.85.29,1.16-.09h0c.37-.45.32-1.17-.09-1.56Z"/>
    </g>
  </g>
</svg>