<?xml version="1.0" encoding="UTF-8"?>
<svg id="Layer_2" data-name="Layer 2" xmlns="http://www.w3.org/2000/svg" viewBox="0 0 208.55 198.23">
  <defs>
    <style>
      .cls-1 {
        fill: #ffba0a;
      }
    </style>
  </defs>
  <g id="Layer_1-2" data-name="Layer 1">
    <g>
      <g>
        <path class="cls-1" d="M36.68,43.9C51.93,29.85,77.33,6.71,90.88,3.88c13.55-2.82,77.35,22.58,90.9,36.13,13.55,13.55,14.11,20.32,18.07,32.18,3.95,11.86,5.08,19.76,7.34,27.66,2.26,7.9-16.94,33.31-20.32,40.09-3.39,6.77-3.39,10.73-7.9,14.68-4.52,3.95-42.91,7.34-54.2,10.73-11.29,3.39-10.16,2.26-16.94,2.26s-13.55-5.08-20.89-5.08-26.88,6.42-36.03,1.45c-8.06-4.39-6.88-17.82-14.22-24.03-7.34-6.21-8.47-7.34-11.86-18.63-3.39-11.29,1.13-54.2,4.52-62.67,3.39-8.47,7.34-14.74,7.34-14.74Z"/>
        <path d="M205.56,107.47l-.1-.56c-.45-2.52-1.62-4.53-3.26-6.12.2-1.34.19-2.53-.09-3.53-.83-2.91-1.51-5.85-2.24-8.96-1.23-5.28-2.62-11.26-5.12-18.77-.56-1.68-1.05-3.25-1.52-4.76-2.92-9.36-5.03-16.13-16.91-28.01C162.52,22.96,97.85-2.66,84.06.22c-14.33,2.99-40.73,27.32-54.91,40.39l-.15.13-.11.17c-.16.26-4.06,6.49-7.46,14.99-2.1,5.25-4.42,21.8-5.36,37.07C1.2,103.71.57,112.68.24,117.41c-.04.58-.07,1.08-.13,1.52-.38,3.04.17,8.02,2.87,12.89,3.51,6.34,9.6,10.81,18.09,13.28,4.75,1.38,9.16,2.12,13.29,2.38.32.88.63,1.76.94,2.64,1.76,5.1,3.59,10.38,8.36,12.97,6.79,3.69,18.23,1.66,27.42.02,2.47-.44,4.73-.84,6.59-1.07,1.62,11.04,2.82,22.14,2.23,23.38-.89,1.48-5.82,1.9-9.08,1.18-1.2-.26-2.94-.88-4.95-1.6-4.29-1.53-9.63-3.42-13.95-3.42-2.32,0-4.3,1.15-5.56,3.24-1.94,3.2-1.93,8.16.02,12.06.41.82,1.2,1.33,2.06,1.33h38.99c1.09,0,1.97-.95,1.97-2.12v-32.24c.46.17.91.33,1.37.5,3.42,1.26,6.96,2.56,10.54,2.56,1.52,0,2.62.06,3.59.11.76.04,1.43.07,2.1.07,2.33,0,4.74-.42,11.68-2.5.07-.02.15-.04.22-.06v31.58c0,1.16.88,2.11,1.97,2.11h38.99c.86,0,1.65-.51,2.06-1.33,1.95-3.88,1.96-8.82.02-12-1.27-2.08-3.24-3.22-5.56-3.22-4.32,0-9.66,1.89-13.95,3.41-2.01.71-3.75,1.33-4.95,1.59-3.26.71-8.2.3-9.08-1.16-.6-1.25.61-12.34,2.23-23.34,3.63-.59,7.66-1.2,11.79-1.82,17.46-2.61,28.26-4.37,31.01-6.79,2.56-2.24,3.78-4.46,4.85-7.03,1.4.24,2.88.46,4.48.63,2.65.29,5.07.44,7.26.44,6.37,0,10.84-1.23,13.84-3.76,7.1-5.99,4.84-18.74,1.71-36.38ZM171.45,151.31c-2.3,2.01-17.37,4.26-29.48,6.08-3.78.57-7.48,1.12-10.87,1.67-.53.08-1.05.17-1.56.25-.13.85-.29,1.91-.47,3.12-1.16,7.91-3.05,22.05-1.96,23.85,1.56,2.59,7.83,2.49,10.68,1.87,1.29-.28,3.07-.91,5.13-1.64,4.18-1.48,9.39-3.32,13.46-3.32,2.28,0,3.59,1.36,4.29,2.5,1.68,2.76,1.65,7.09-.08,10.53-.15.31-.43.5-.72.5h-38.99c-.25,0-.47-.27-.47-.6v-35.07c-.53.12-1.03.25-1.5.37-.38.1-.75.2-1.08.3-8.45,2.53-9.62,2.47-12.76,2.31-.96-.05-2.15-.11-3.75-.11-3.05,0-6.19-1.15-9.51-2.37-.79-.29-1.59-.58-2.4-.86-.5-.17-1-.34-1.5-.5v35.93c0,.33-.21.6-.47.6h-38.99c-.29,0-.57-.19-.72-.5-1.73-3.46-1.76-7.81-.08-10.58.7-1.15,2.01-2.52,4.29-2.52,4.06,0,9.27,1.85,13.45,3.34,2.06.73,3.84,1.36,5.13,1.65,2.86.62,9.13.72,10.68-1.88,1.1-1.85-.86-16.45-2.01-24.32-.17-1.16-.32-2.17-.45-2.97-.47.04-.97.09-1.49.16-1.93.24-4.2.65-6.67,1.09-8.27,1.47-19.59,3.49-25.46.3-3.75-2.04-5.31-6.55-6.96-11.32-.18-.52-.36-1.03-.54-1.55.08,0,.16,0,.25,0,11.07,0,20-3.41,27.81-6.88,6.11-2.72,8.17-6.85,8.55-11.08h.08c-.02-.12-.04-.23-.06-.34.23-3.27-.52-6.58-1.12-9.29-.09-.39-.17-.77-.25-1.14-1.44-6.63-8.69-10.44-19.89-10.44-9.28,0-29.14,3.7-29.34,3.74l.23,1.22c.2-.04,19.95-3.72,29.11-3.72,4.99,0,16.81.92,18.67,9.46.08.37.17.76.26,1.15.43,1.89.9,4,1.07,6.14-4.35-5.91-17.23-5.28-17.86-5.24l.07,1.24c.16,0,16.05-.79,17.8,6.97-.22,2.59-1.11,5.1-3.29,7.23-2.54-8.17-18.23-7.4-18.93-7.36l.07,1.24c.16,0,16.12-.8,17.81,7.03-.96.75-2.11,1.43-3.49,2.05-7.84,3.48-16.82,6.9-28.01,6.76-1.07-.01-2.16-.06-3.27-.14-3.88-.29-8.01-1-12.45-2.29C-.69,137.49,1.32,119.28,1.34,119.09c.06-.47.1-1.02.14-1.59.31-4.44.89-12.79,14.49-22.92.97-.72,2.02-1.46,3.13-2.2.03-.52.07-1.04.11-1.56,1.01-14.23,3.12-29.09,5.01-33.8,2.99-7.49,6.48-13.3,7.11-14.34C44.36,30.67,71.2,5.97,84.67,3.16c12.91-2.69,76.49,22.69,89.53,35.73,11.36,11.36,13.38,17.83,16.17,26.78.47,1.52.97,3.12,1.54,4.81,2.46,7.38,3.83,13.29,5.05,18.5.73,3.15,1.42,6.12,2.27,9.1.05.18.09.38.11.59-1.71-.96-3.65-1.67-5.7-2.13.06-.34.11-.66.17-1.01.82-4.6,1.75-9.82-1.52-12.85-1.84-1.7-4.71-2.47-8.78-2.33-5.03.17-8.26,1.13-9.9,2.94-1.91,2.12-1.1,4.81-.51,6.77.1.32.19.62.26.9.52,2.02,1.11,4.86,1.45,6.61-7.6,2.4-13.82,7.08-14.58,13.4-.2,1.67-.45,3.34-.69,5-1.9,13.03-3.68,25.41,15.73,29.95-.89,2.01-1.91,3.71-3.82,5.38ZM192.35,95.36c-.05.31-.1.6-.16.9-2.11-.37-4.29-.51-6.41-.47-3.2.06-6.48.54-9.57,1.39-.35-1.77-.92-4.49-1.42-6.45-.07-.29-.17-.61-.27-.94-.55-1.82-1.23-4.09.26-5.75,1.33-1.48,4.29-2.3,8.78-2.45,3.6-.11,6.1.51,7.63,1.93,2.81,2.6,1.94,7.52,1.16,11.85ZM202.8,143c-3.68,3.1-9.99,4.04-19.86,2.97-1.49-.16-2.88-.36-4.2-.59-1.05-.18-2.05-.38-2.99-.6-14.46-3.36-16.46-11.19-15.73-20.73,6.81-2.75,18.75-.78,18.88-.76l.29-1.19c-.5-.08-11.74-1.94-19.05.57.21-2.12.53-4.31.86-6.55.05-.32.09-.65.14-.97,6.8-2.11,17.68-.75,17.79-.74l.22-1.2c-.45-.06-10.68-1.33-17.82.6.13-.9.25-1.8.36-2.71.69-5.75,6.36-10.04,13.36-12.3.46-.15.93-.29,1.4-.42,3.02-.84,6.24-1.31,9.37-1.37.22,0,.44,0,.66,0,1.12,0,2.26.06,3.39.18,1.21.13,2.4.32,3.56.6,2.16.51,4.18,1.31,5.87,2.42.98.64,1.84,1.39,2.57,2.26,1.07,1.28,1.83,2.81,2.15,4.64l.1.56c3.07,17.3,5.28,29.79-1.31,35.35Z"/>
      </g>
      <path d="M114.78,90.22h0c.85,0,1.58.65,1.63,1.51.47,7.25,4.3,13.12,8.77,13.12s8.3-5.87,8.77-13.12c.06-.85.78-1.51,1.63-1.51h0c.96,0,1.7.82,1.64,1.78-.58,9.18-5.67,16.14-12.05,16.14s-11.46-6.96-12.05-16.14c-.06-.96.68-1.78,1.64-1.78Z"/>
      <path d="M153.83,53.11h0c-.52,0-.96-.4-.99-.92-.29-4.42-2.62-8-5.35-8s-5.06,3.58-5.35,8c-.03.52-.47.92-.99.92h0c-.58,0-1.04-.5-1-1.08.36-5.6,3.45-9.84,7.34-9.84s6.99,4.24,7.34,9.84c.04.58-.42,1.08-1,1.08Z"/>
      <path d="M126.83,53.11h0c-.52,0-.96-.4-.99-.92-.29-4.42-2.62-8-5.35-8s-5.06,3.58-5.35,8c-.03.52-.47.92-.99.92h0c-.58,0-1.04-.5-1-1.08.36-5.6,3.45-9.84,7.34-9.84s6.99,4.24,7.34,9.84c.04.58-.42,1.08-1,1.08Z"/>
    </g>
  </g>
</svg>