<?xml version="1.0" encoding="UTF-8"?>
<svg id="Layer_2" data-name="Layer 2" xmlns="http://www.w3.org/2000/svg" viewBox="0 0 213.72 198.23">
  <defs>
    <style>
      .cls-1 {
        fill: #ffba0a;
      }
    </style>
  </defs>
  <g id="Layer_1-2" data-name="Layer 1">
    <g>
      <path class="cls-1" d="M34.69,43.9C49.93,29.85,75.34,6.71,88.89,3.88c13.55-2.82,77.35,22.58,90.9,36.13s14.11,20.32,18.07,32.18c3.95,11.86,5.08,19.76,7.34,27.66,2.26,7.9-16.94,33.31-20.32,40.09-3.39,6.77-3.39,10.73-7.9,14.68-4.52,3.95-42.91,7.34-54.2,10.73-11.29,3.39-10.16,2.26-16.94,2.26s-13.55-5.08-20.89-5.08-26.88,6.42-36.03,1.45c-8.06-4.39-6.88-17.82-14.22-24.03-7.34-6.21-8.47-7.34-11.86-18.63-3.39-11.29,1.13-54.2,4.52-62.67,3.39-8.47,7.34-14.74,7.34-14.74Z"/>
      <path d="M210.12,100.41c-.26-.36-.53-.79-.84-1.28-1.68-2.65-4.36-6.86-11.23-10.11-.06-.24-.11-.48-.17-.73-1.23-5.28-2.62-11.26-5.12-18.77-.56-1.68-1.05-3.25-1.52-4.76-2.92-9.36-5.03-16.13-16.91-28.01C160.53,22.96,95.86-2.66,82.07.22c-14.33,2.99-40.73,27.32-54.91,40.39l-.15.13-.11.17c-.16.26-4.06,6.49-7.46,14.99-1.95,4.87-4.09,19.52-5.14,33.82-5.86,3.13-8.29,6.95-9.85,9.42-.31.49-.58.92-.84,1.28C1.82,102.91-.06,107.56,0,113.12c.08,7.25,3.31,14.08,9.61,20.28,4.53,4.47,9.08,7.74,13.57,10.17,3.1,1.67,6.17,2.94,9.19,3.91.33.88.64,1.77.94,2.66,1.76,5.1,3.59,10.38,8.36,12.97,6.79,3.69,18.23,1.66,27.42.02,2.47-.44,4.73-.84,6.59-1.07,1.62,11.04,2.82,22.14,2.23,23.38-.89,1.48-5.82,1.9-9.08,1.18-1.2-.26-2.94-.88-4.95-1.6-4.29-1.53-9.63-3.42-13.95-3.42-2.32,0-4.3,1.15-5.56,3.24-1.94,3.2-1.93,8.16.02,12.06.41.82,1.2,1.33,2.06,1.33h38.99c1.09,0,1.97-.95,1.97-2.12v-32.24c.46.17.91.33,1.37.5,3.42,1.26,6.96,2.56,10.54,2.56,1.52,0,2.62.06,3.59.11.76.04,1.43.07,2.1.07,2.33,0,4.74-.42,11.68-2.5.07-.02.15-.04.22-.06v31.58c0,1.16.88,2.11,1.97,2.11h38.99c.86,0,1.65-.51,2.06-1.33,1.95-3.88,1.96-8.82.02-12-1.27-2.08-3.24-3.22-5.56-3.22-4.32,0-9.66,1.89-13.95,3.41-2.01.71-3.75,1.33-4.95,1.59-3.26.71-8.2.3-9.08-1.16-.6-1.25.61-12.34,2.23-23.34,3.63-.59,7.66-1.2,11.79-1.82,17.46-2.61,28.26-4.37,31.01-6.79,1.66-1.46,2.76-2.9,3.62-4.44,5.01-1.04,10.21-2.7,15.49-5.55,4.49-2.42,9.03-5.7,13.57-10.17,6.3-6.2,9.53-13.03,9.61-20.28.06-5.57-1.82-10.21-3.6-12.71ZM203.24,132.52c-9.3,9.15-18.66,13.21-27.46,15.18-1.28.29-2.56.53-3.82.74-3.18.53-6.27.83-9.25,1.06-1.5.12-2.84.06-4.04-.14-2.23-7.69,12.19-14.58,12.33-14.65l-.53-1.12c-.63.29-14.8,7.07-13.16,15.47-2.94-.83-4.92-2.62-6.33-4.79-2.15-7.67,12.2-14.52,12.35-14.6l-.53-1.12c-.57.27-12.2,5.83-13.22,13.1-.86-1.96-1.45-4.04-1.97-5.91-.11-.39-.22-.77-.32-1.13-2.43-8.39,7.54-14.82,11.93-17.2,8.06-4.35,27.19-10.5,27.38-10.56l-.38-1.18c-.19.06-19.43,6.24-27.6,10.65-9.85,5.32-14.42,12.11-12.54,18.64.11.36.21.74.32,1.13.75,2.67,1.67,5.93,3.42,8.71.03.1.07.21.1.31l.08-.03c2.34,3.54,6.12,6.2,12.79,5.68,2.61-.2,5.31-.46,8.07-.87-.42.49-.88.97-1.42,1.44-2.3,2.01-17.37,4.26-29.48,6.08-3.78.57-7.48,1.12-10.87,1.67-.53.08-1.05.17-1.56.25-.13.85-.29,1.91-.47,3.12-1.16,7.91-3.05,22.05-1.96,23.85,1.56,2.59,7.83,2.49,10.68,1.87,1.29-.28,3.07-.91,5.13-1.64,4.18-1.48,9.39-3.32,13.46-3.32,2.28,0,3.59,1.36,4.29,2.5,1.68,2.76,1.65,7.09-.08,10.53-.15.31-.43.5-.72.5h-38.99c-.25,0-.47-.27-.47-.6v-35.07c-.53.12-1.03.25-1.5.37-.38.1-.75.2-1.08.3-8.45,2.53-9.62,2.47-12.76,2.31-.96-.05-2.15-.11-3.75-.11-3.05,0-6.19-1.15-9.51-2.37-.79-.29-1.59-.58-2.4-.86-.5-.17-1-.34-1.5-.5v35.93c0,.33-.21.6-.47.6h-38.99c-.29,0-.57-.19-.72-.5-1.73-3.46-1.76-7.81-.08-10.58.7-1.15,2.01-2.52,4.29-2.52,4.06,0,9.27,1.85,13.45,3.34,2.06.73,3.84,1.36,5.13,1.65,2.86.62,9.13.72,10.68-1.88,1.1-1.85-.86-16.45-2.01-24.32-.17-1.16-.32-2.17-.45-2.97-.47.04-.97.09-1.49.16-1.93.24-4.2.65-6.67,1.09-8.27,1.47-19.59,3.49-25.46.3-3.75-2.04-5.31-6.55-6.96-11.32-.08-.22-.15-.44-.23-.66,5.22,1.32,10.26,1.87,15,2.24,6.67.51,10.44-2.15,12.79-5.68l.08.03c.04-.1.07-.21.1-.31,1.76-2.77,2.67-6.03,3.42-8.71.11-.39.21-.76.32-1.13,1.88-6.52-2.68-13.31-12.54-18.64-8.16-4.41-27.4-10.59-27.6-10.65l-.38,1.18c.19.06,19.32,6.21,27.38,10.56,4.39,2.37,14.36,8.8,11.93,17.2-.11.37-.21.75-.32,1.13-.52,1.87-1.11,3.94-1.97,5.91-1.02-7.27-12.65-12.83-13.22-13.1l-.53,1.12c.15.07,14.5,6.93,12.35,14.6-1.42,2.17-3.4,3.96-6.33,4.79,1.65-8.4-12.53-15.18-13.16-15.47l-.53,1.12c.15.07,14.56,6.96,12.33,14.65-1.2.2-2.54.26-4.04.14-4.92-.38-10.17-.96-15.6-2.42-1.2-.32-2.41-.69-3.63-1.11-6.95-2.38-14.14-6.4-21.29-13.45-16.41-16.16-5.98-31.23-5.87-31.38.28-.39.57-.85.88-1.34,1.42-2.25,3.6-5.67,8.7-8.59.93-.53,1.96-1.05,3.1-1.54.04-.47.07-.94.11-1.41,1.07-13.41,3.04-26.81,4.82-31.25,2.99-7.49,6.48-13.3,7.11-14.34C42.37,30.67,69.21,5.97,82.68,3.16c12.91-2.69,76.49,22.69,89.53,35.73,11.36,11.36,13.38,17.83,16.17,26.78.47,1.52.97,3.12,1.54,4.81,2.25,6.75,3.59,12.27,4.73,17.15.11.45.21.91.31,1.35,0,.04.02.07.03.11,1.26.48,2.4.98,3.43,1.52,5.9,3.04,8.29,6.79,9.81,9.19.31.49.6.95.88,1.34.11.15,10.54,15.22-5.87,31.38Z"/>
      <path d="M115.25,108.94c-.15,0-.31,0-.46,0-7-.1-9.24-2.52-9.9-4.54-.34-1.05.24-2.18,1.29-2.52,1.05-.34,2.18.24,2.52,1.29.19.58,1.72,1.7,6.15,1.77,4.33.06,9.77-.9,15.35-2.7,5.58-1.81,10.55-4.22,14.02-6.81,3.55-2.65,4.13-4.46,3.94-5.04-.34-1.05.24-2.18,1.29-2.52,1.05-.34,2.18.24,2.52,1.29.65,2.01.25,5.29-5.36,9.48-3.81,2.84-9.2,5.47-15.18,7.41-5.79,1.88-11.51,2.9-16.18,2.9Z"/>
      <path d="M129.87,41.31l-10.93.73c-.09,0-.18.03-.27.05-3.33.33-5.97,4.62-5.97,9.89s2.86,9.92,6.38,9.92,6.38-4.44,6.38-9.92c0-2.38-.54-4.56-1.43-6.26l6.12-.41c1.1-.07,1.94-1.03,1.86-2.13-.07-1.1-1.02-1.94-2.13-1.86Z"/>
      <path d="M154.22,41.31l-10.93.73c-.09,0-.18.03-.27.05-3.33.33-5.97,4.62-5.97,9.89s2.86,9.92,6.38,9.92,6.38-4.44,6.38-9.92c0-2.38-.54-4.56-1.43-6.26l6.12-.41c1.1-.07,1.94-1.03,1.86-2.13-.07-1.1-1.02-1.94-2.13-1.86Z"/>
    </g>
  </g>
</svg>